<?xml version="1.0" standalone="no"?>
<!DOCTYPE svg PUBLIC "-//W3C//DTD SVG 20010904//EN"
 "http://www.w3.org/TR/2001/REC-SVG-20010904/DTD/svg10.dtd">
<svg version="1.0" xmlns="http://www.w3.org/2000/svg"
 width="4272.000000pt" height="2568.000000pt" viewBox="0 0 4272.000000 2568.000000"
 preserveAspectRatio="xMidYMid meet">
<metadata>
Created by potrace 1.16, written by Peter Selinger 2001-2019
</metadata>
<g transform="translate(0.000000,2568.000000) scale(0.100000,-0.100000)"
fill="#000000" stroke="none">
<path d="M25683 22725 c-7 -12 -77 -14 -473 -15 -256 -1 -479 -3 -497 -6 -17
-3 -40 -14 -51 -24 -14 -14 -40 -19 -104 -22 -69 -3 -89 -8 -108 -25 -23 -22
-63 -36 -110 -37 -16 -1 -29 -9 -35 -23 -8 -20 -17 -23 -63 -23 -45 0 -58 -4
-81 -27 -19 -20 -35 -27 -54 -25 -16 2 -27 -2 -27 -9 0 -7 -9 -9 -22 -6 -16 5
-30 -1 -48 -18 -22 -22 -35 -25 -105 -26 -90 -1 -132 -13 -140 -39 -4 -14 -14
-17 -53 -14 -26 2 -42 1 -37 -3 6 -5 2 -16 -12 -30 -25 -24 -29 -22 -13 8 15
27 3 24 -23 -6 -19 -21 -31 -25 -92 -27 -76 -1 -105 -11 -105 -33 0 -11 -12
-15 -42 -16 -108 -1 -236 -11 -268 -19 -19 -6 -72 -10 -117 -10 -119 0 -115
-19 4 -22 54 -2 -50 -3 -232 -3 -434 0 -613 -4 -620 -16 -4 -5 -15 -5 -27 2
-29 15 -95 5 -129 -20 -24 -18 -44 -21 -133 -22 -58 -1 -106 -5 -106 -9 0 -4
-11 -7 -25 -7 -14 0 -25 3 -25 8 0 5 -10 9 -22 8 -19 0 -20 -2 -5 -7 14 -6 12
-10 -15 -24 -32 -16 -88 -29 -88 -21 0 2 19 13 43 24 l42 19 -39 -4 c-39 -5
-86 -30 -86 -45 0 -9 139 -6 170 4 11 3 19 11 17 16 -1 6 29 12 68 14 39 3
117 8 175 12 58 3 109 6 114 4 4 -1 13 2 20 7 6 4 21 7 33 6 12 0 21 2 18 6
-2 3 31 7 73 7 42 1 120 4 172 8 52 3 273 5 490 5 l395 -1 75 27 c41 14 93 31
115 38 22 6 60 19 85 28 25 8 67 21 95 27 27 7 57 19 65 26 9 8 39 20 68 28
29 7 50 16 46 19 -3 4 3 4 13 2 11 -3 51 4 89 15 38 11 92 23 119 26 55 8 195
54 325 108 149 61 311 96 520 113 41 3 97 10 125 15 27 5 172 12 320 15 149 2
304 8 345 13 45 5 86 4 103 -2 22 -7 247 -5 312 4 6 1 44 -2 85 -5 167 -14
206 -16 475 -22 154 -4 282 -8 285 -9 3 -2 70 -6 150 -10 109 -4 159 -2 203 8
31 8 57 11 57 7 0 -5 8 -7 18 -5 9 1 23 -2 30 -8 8 -6 12 -6 12 2 0 8 6 9 18
3 9 -5 78 -10 152 -11 74 -1 209 -4 300 -6 91 -3 314 -8 495 -11 489 -9 838
-19 855 -26 8 -4 143 -9 300 -12 157 -3 344 -8 415 -11 435 -15 634 -25 661
-33 27 -9 173 -16 529 -27 61 -2 223 -12 360 -22 291 -21 450 -22 484 -4 13 7
21 9 18 4 -8 -13 162 -38 248 -37 46 0 80 6 100 17 24 14 26 17 10 17 -17 0
-17 2 -5 10 19 12 100 13 119 1 7 -5 11 -13 8 -18 -3 -5 0 -10 7 -10 6 0 37
-12 67 -26 51 -25 67 -27 269 -37 118 -6 240 -12 270 -15 30 -2 87 -7 126 -10
39 -3 82 -8 95 -11 13 -2 110 -7 214 -9 184 -4 350 -12 485 -22 36 -3 73 -5
82 -6 9 -1 14 -5 12 -9 -3 -4 1 -9 8 -9 7 -1 29 -3 48 -5 137 -15 249 -20 335
-17 118 5 155 11 136 23 -11 6 -9 10 7 19 23 12 82 -3 82 -22 0 -7 4 -7 12 1
9 9 9 15 -1 25 -8 8 -57 12 -169 12 -86 0 -197 4 -247 8 -69 5 -82 4 -55 -4
19 -6 43 -10 53 -10 9 0 17 -4 17 -9 0 -5 15 -11 33 -13 l32 -4 -35 -1 c-19
-1 -64 7 -98 18 -74 23 -96 25 -86 8 5 -10 4 -10 -6 -1 -7 6 -19 9 -26 6 -8
-3 -14 -2 -14 1 0 4 10 11 23 16 18 7 15 9 -20 9 -24 1 -43 -4 -43 -9 0 -7 -7
-7 -17 -2 -10 4 -83 9 -163 11 -96 2 -150 7 -160 15 -28 24 -223 36 -564 36
-332 0 -340 0 -362 21 -26 24 -164 44 -249 36 -41 -4 -54 -1 -73 16 -20 19
-34 21 -90 19 -143 -6 -259 -5 -306 3 -36 6 -47 5 -42 -4 4 -6 12 -9 17 -6 5
4 9 1 9 -5 0 -6 6 -8 13 -4 7 4 9 3 4 -2 -11 -12 -57 -13 -50 0 4 5 -3 7 -15
4 -12 -4 -22 -2 -22 2 0 5 -28 11 -62 13 l-63 3 73 1 c40 0 75 3 78 6 3 3
-121 6 -276 6 -228 0 -286 3 -299 14 -9 8 -53 18 -101 22 -91 9 -574 19 -855
19 -93 0 -159 3 -145 7 55 14 -15 21 -350 33 -70 2 -97 1 -70 -4 43 -7 42 -7
-24 -8 -54 -2 -67 1 -63 12 5 11 -79 14 -516 15 -469 1 -523 3 -539 18 -26 23
-450 31 -1718 32 -858 1 -985 3 -993 16 -10 19 -36 19 -43 0 -5 -12 -30 -15
-139 -15 -106 0 -135 3 -145 15 -16 20 -86 20 -97 0z"/>
<path d="M24981 22178 c-6 -17 -11 -39 -11 -50 0 -35 38 -95 69 -108 17 -7 36
-18 42 -26 6 -8 25 -14 41 -14 16 0 45 -7 64 -15 32 -13 39 -13 64 0 16 8 41
15 55 15 54 0 114 51 101 86 -8 22 -30 17 -55 -12 -20 -24 -28 -26 -69 -20
-85 11 -117 18 -152 33 -39 18 -120 98 -120 118 0 28 -18 24 -29 -7z"/>
<path d="M21120 22048 c-19 -5 -43 -17 -52 -25 -12 -11 -41 -16 -94 -17 -75
-2 -93 -10 -106 -47 -2 -5 -37 -10 -78 -11 -66 -3 -75 -5 -78 -23 l-4 -20 15
20 c13 17 18 18 29 6 11 -12 11 -13 0 -6 -8 4 -18 0 -25 -9 -9 -12 -31 -16
-84 -18 -63 -1 -71 -3 -60 -17 10 -12 9 -13 -8 -4 -16 9 -25 7 -48 -13 -28
-24 -46 -28 -99 -25 -15 0 -29 -3 -32 -8 -4 -5 3 -7 14 -4 11 3 20 1 20 -5 0
-5 12 -8 28 -7 87 10 130 19 152 34 14 9 61 25 105 37 44 12 130 35 190 51 61
16 129 38 150 49 22 12 47 19 55 17 12 -4 13 -3 1 5 -11 8 -6 14 22 27 20 9
41 13 48 9 8 -4 9 -3 5 4 -8 14 -18 14 -66 0z"/>
<path d="M31941 21981 c-8 -5 -19 -21 -25 -35 l-11 -27 -203 -2 c-189 -2 -205
-3 -218 -21 -17 -23 -19 -86 -3 -86 8 0 8 -5 -1 -15 -8 -10 -31 -15 -66 -15
-29 0 -64 -5 -78 -11 -19 -9 -33 -9 -58 2 -38 16 -87 13 -107 -6 -20 -19 -29
-385 -11 -448 6 -25 13 -73 14 -108 1 -35 7 -74 14 -86 9 -16 12 -114 12 -368
0 -216 4 -373 12 -417 9 -54 9 -78 -1 -104 -15 -42 3 -220 25 -245 11 -12 14
-75 14 -311 0 -163 3 -303 6 -312 3 -9 13 -16 20 -16 12 0 12 -5 -1 -31 -25
-48 -16 -91 22 -108 17 -8 36 -24 42 -37 9 -20 18 -24 55 -24 59 0 81 24 47
51 -13 11 -36 19 -52 19 -15 0 -30 4 -34 9 -6 10 49 41 72 41 8 0 11 5 7 12
-5 8 -2 9 11 5 9 -4 24 -2 31 4 10 8 44 9 116 3 62 -5 87 -10 64 -12 -22 -2
-51 -13 -66 -25 -21 -18 -24 -25 -15 -43 27 -55 78 -84 146 -84 28 0 41 -5 49
-19 16 -30 12 -92 -6 -105 -35 -26 -29 -284 8 -358 9 -19 81 -25 106 -9 9 6
14 48 16 154 2 99 7 151 15 161 9 10 11 29 6 56 -6 36 -4 41 17 49 30 11 47
-11 48 -60 0 -22 7 -42 18 -53 17 -14 19 -34 20 -158 1 -78 5 -145 10 -149 4
-4 43 -14 87 -23 63 -12 115 -14 245 -9 91 3 173 10 183 15 11 5 17 21 17 41
0 18 7 41 15 51 10 13 15 43 15 86 0 54 -4 70 -20 85 -16 14 -23 16 -32 7 -7
-7 -32 -12 -56 -12 -24 0 -53 -5 -65 -12 -24 -13 -88 -27 -157 -34 -42 -5 -47
-3 -72 29 -35 45 -47 94 -49 202 -1 50 -5 100 -10 111 -12 34 -53 41 -174 32
-60 -5 -139 -7 -175 -6 l-65 3 -3 39 -3 39 43 -7 c98 -16 221 -26 343 -26 72
0 145 -4 163 -8 l34 -7 -22 -27 c-20 -26 -20 -29 -5 -52 9 -14 24 -26 33 -28
13 -3 17 -15 17 -63 l0 -60 35 -3 c22 -2 46 -14 66 -33 36 -35 45 -29 63 39
10 34 16 42 34 42 13 0 28 -5 34 -11 16 -16 43 -3 43 20 0 11 -6 26 -14 34
-11 11 -12 17 -4 25 7 7 9 14 7 17 -3 2 -50 6 -104 7 l-99 3 -7 34 c-13 64
-27 61 316 61 254 0 314 -3 318 -14 8 -20 139 -28 522 -31 432 -4 565 -12 565
-32 0 -8 -9 -17 -21 -20 -13 -4 -18 -11 -14 -21 3 -8 -2 -20 -11 -27 -14 -10
-14 -15 -5 -34 12 -21 17 -22 99 -18 48 3 105 8 127 10 22 3 30 3 18 1 -13 -3
-23 -9 -23 -12 0 -4 10 -12 23 -17 20 -9 22 -18 25 -91 4 -117 -6 -113 237
-105 l200 6 3 144 c1 81 7 150 13 157 13 15 109 29 138 19 20 -6 21 -12 21
-199 0 -138 4 -197 13 -209 6 -9 30 -17 52 -19 l40 -3 -3 -41 c-4 -58 14 -74
87 -74 35 0 63 -5 69 -13 10 -12 12 -136 8 -412 l-1 -100 45 -5 c59 -7 70 -15
70 -51 0 -45 17 -69 48 -69 16 0 37 6 48 14 17 13 19 28 20 155 0 78 5 146 10
151 15 15 342 14 360 -1 10 -8 12 -15 4 -23 -5 -5 -10 -43 -10 -84 0 -69 2
-75 30 -100 31 -28 38 -50 19 -69 -8 -8 -7 -17 5 -34 24 -35 21 -106 -5 -121
-11 -7 -30 -31 -41 -52 -19 -37 -19 -40 -3 -52 19 -14 13 -47 -13 -76 -13 -15
-32 -18 -126 -17 -61 1 -122 5 -136 9 -21 7 -22 8 -5 9 39 2 -8 21 -50 19 -28
0 -33 -2 -15 -6 22 -4 21 -6 -16 -17 -67 -20 -595 -20 -692 0 -78 16 -101 25
-66 25 15 0 13 4 -11 20 -39 26 -144 28 -181 4 -23 -15 -26 -15 -43 0 -26 23
-93 21 -116 -4 -16 -18 -16 -20 -2 -20 21 0 21 -5 0 -30 -23 -26 -82 -28 -85
-2 0 9 -2 22 -2 28 -3 33 -29 42 -124 48 -53 3 -133 9 -177 14 -100 10 -267 0
-273 -16 -4 -14 -192 -17 -192 -3 0 18 -68 20 -177 7 -61 -8 -118 -18 -125
-22 -7 -5 -37 -14 -65 -20 -53 -10 -81 -5 -69 14 12 19 -27 22 -294 21 -148 0
-274 2 -280 6 -6 4 -17 1 -25 -5 -10 -9 -36 -10 -82 -6 -38 3 -140 9 -227 12
-145 6 -160 5 -172 -11 -17 -23 -97 -33 -369 -45 -121 -5 -231 -13 -245 -18
-14 -5 -36 -6 -50 -2 -14 3 -61 4 -105 1 l-80 -6 60 -6 c42 -4 15 -6 -87 -7
-93 -1 -148 -6 -148 -12 0 -6 -12 -16 -27 -23 -16 -6 -31 -16 -35 -22 -4 -5
-43 -11 -86 -13 -77 -4 -79 -4 -90 -35 -7 -19 -8 -35 -2 -42 15 -18 1 -49 -35
-74 -32 -22 -34 -25 -20 -44 10 -14 15 -45 15 -87 0 -58 3 -70 25 -90 l25 -23
0 -198 0 -198 -25 -19 c-15 -12 -25 -30 -25 -45 0 -13 -6 -40 -14 -58 -10 -23
-12 -62 -9 -138 6 -160 8 -168 44 -176 17 -4 44 -22 61 -40 16 -19 44 -37 61
-41 101 -22 -65 -26 -1096 -27 -849 0 -1199 4 -1572 17 -264 9 -794 20 -1178
23 l-698 6 -17 25 c-14 21 -18 62 -23 222 l-5 195 -2 -172 c-1 -94 -7 -206
-13 -248 -8 -58 -7 -95 2 -146 l12 -68 31 16 c16 9 57 18 91 20 129 10 640
-33 685 -57 47 -25 33 -103 -19 -115 -19 -4 -42 -21 -57 -41 -17 -22 -38 -36
-60 -40 -32 -6 -33 -8 -17 -19 42 -30 98 -36 193 -21 59 8 106 10 129 5 20 -5
84 -9 142 -9 180 0 399 -26 453 -53 14 -7 133 -10 212 -4 16 1 12 31 -6 39 -8
4 -46 7 -85 7 -74 1 -88 6 -98 33 -3 10 -22 24 -41 32 -22 9 -40 27 -51 50
-11 22 -33 44 -59 58 -74 42 -53 102 35 101 28 0 62 -6 75 -14 20 -10 28 -10
48 1 28 14 160 7 211 -12 28 -11 86 -57 165 -132 19 -18 48 -36 63 -40 16 -4
161 -7 322 -7 235 0 302 -3 329 -14 29 -12 101 -15 383 -15 191 0 490 -4 663
-10 173 -6 569 -15 880 -20 311 -6 585 -14 610 -19 25 -5 367 -12 760 -15 830
-7 1316 -20 1553 -42 93 -9 183 -13 200 -10 18 3 133 1 257 -5 124 -5 344 -12
490 -14 879 -13 1511 -26 1690 -35 437 -22 683 -30 880 -30 113 0 268 -5 345
-10 242 -17 872 -50 955 -50 73 0 84 -3 133 -34 62 -40 72 -63 87 -201 31
-287 41 -438 50 -775 6 -206 15 -451 20 -545 5 -93 10 -251 10 -350 0 -100 4
-185 9 -190 11 -13 46 -886 55 -1405 3 -118 10 -249 16 -290 7 -46 13 -234 15
-485 3 -412 20 -1019 30 -1034 5 -9 19 -572 20 -817 0 -136 -2 -154 -19 -173
-11 -12 -28 -21 -38 -21 -10 0 -32 -7 -48 -15 -26 -13 -133 -16 -770 -19 -530
-3 -745 -8 -755 -16 -9 -8 -185 -12 -602 -15 -323 -2 -617 -7 -653 -11 -36 -4
-159 -9 -275 -10 -115 -1 -271 -6 -345 -10 -74 -5 -158 -6 -185 -2 -78 10
-1660 9 -1755 -1 -47 -5 -166 -9 -265 -9 -184 1 -313 -13 -352 -38 -12 -8 -31
-14 -42 -14 -11 0 -23 -5 -26 -11 -10 -15 3 -59 17 -59 13 0 78 -65 78 -79 0
-13 28 -21 72 -19 20 1 43 -3 50 -9 7 -6 42 -9 78 -7 70 3 90 -6 90 -41 0 -22
3 -23 107 -27 74 -2 108 -7 111 -15 5 -17 72 -17 73 0 1 6 2 17 4 22 1 6 3 18
3 27 2 20 50 32 92 23 l31 -7 -3 -86 -3 -87 -125 -6 c-69 -3 -136 -10 -150
-16 -33 -14 -120 7 -148 35 -12 12 -26 22 -31 22 -27 0 -16 -75 13 -86 8 -3
19 -25 25 -49 6 -24 16 -47 21 -50 6 -4 -1 -16 -17 -28 -27 -22 -33 -22 -483
-25 -250 -1 -475 -6 -500 -11 -25 -5 -62 -6 -83 -4 -37 5 -38 5 -35 -23 l3
-29 95 -8 c52 -4 158 -18 235 -32 95 -16 236 -29 435 -40 180 -10 336 -24 400
-36 66 -12 149 -19 223 -19 65 0 126 -4 136 -9 12 -7 35 -2 76 14 83 34 134
42 345 56 102 7 199 18 217 25 26 10 35 10 50 -2 25 -19 94 -17 122 2 22 16
25 16 51 0 25 -14 53 -15 224 -9 164 5 196 9 191 20 -3 8 -5 17 -5 19 0 2 -27
4 -59 4 -33 0 -63 5 -66 10 -4 7 93 10 284 10 160 0 291 -4 291 -8 0 -5 60
-10 133 -11 72 -1 143 -3 157 -4 70 -6 677 16 695 25 11 6 29 19 40 28 18 16
45 18 245 20 124 1 252 -1 286 -5 50 -6 69 -4 109 14 30 13 68 21 104 21 31 0
69 7 85 15 38 20 116 20 116 1 0 -25 13 -25 91 -5 59 16 91 19 159 14 47 -3
166 -6 265 -5 170 1 183 3 228 26 55 27 69 29 130 12 33 -8 64 -8 128 0 46 6
136 19 199 27 66 9 165 15 232 13 110 -3 118 -2 141 20 l25 23 41 -20 c48 -25
114 -27 192 -7 30 8 133 22 229 31 96 9 200 23 230 32 30 8 114 19 185 23 158
10 211 18 248 37 17 8 71 16 133 18 96 4 104 3 104 -14 0 -10 -12 -26 -26 -36
-21 -13 -24 -19 -13 -26 19 -12 66 -11 74 1 11 18 22 11 49 -30 15 -23 30 -39
34 -36 4 2 8 -19 10 -47 3 -56 24 -89 43 -70 12 12 42 6 34 -7 -2 -4 6 -6 19
-5 26 3 40 -4 44 -24 2 -8 -3 -11 -13 -8 -8 4 -15 1 -15 -6 0 -8 -4 -6 -10 3
-8 12 -10 11 -10 -7 0 -21 -2 -22 -26 -11 -22 10 -28 9 -50 -15 -14 -15 -31
-27 -39 -27 -8 0 -18 -7 -22 -15 -5 -8 -42 -28 -83 -45 -72 -30 -83 -32 -279
-41 -113 -5 -212 -11 -221 -14 -9 -3 -68 -12 -131 -21 -63 -8 -143 -20 -179
-25 -44 -7 -98 -6 -169 2 -117 13 -212 6 -249 -19 -21 -14 -46 -15 -161 -12
-174 6 -261 4 -391 -9 -58 -6 -244 -15 -415 -20 -170 -6 -344 -15 -385 -22
-41 -6 -239 -15 -440 -21 -681 -17 -1034 -33 -1209 -55 -89 -11 -174 -14 -305
-10 -100 2 -263 0 -362 -6 -98 -5 -339 -11 -534 -12 -195 -2 -413 -7 -485 -12
-85 -7 -196 -7 -319 0 -171 9 -190 8 -198 -7 -12 -22 -47 -20 -73 4 -12 11
-29 18 -37 15 -13 -5 -14 -11 -2 -45 8 -22 23 -49 34 -60 11 -11 23 -34 27
-50 3 -17 10 -30 15 -30 5 0 18 -21 30 -47 11 -27 26 -55 33 -63 6 -8 18 -31
25 -50 8 -19 22 -41 32 -48 10 -7 18 -19 18 -26 0 -12 20 -41 82 -120 13 -16
32 -48 44 -70 51 -99 59 -112 75 -124 10 -7 21 -28 25 -47 3 -18 15 -41 25
-51 10 -9 19 -23 19 -31 0 -7 11 -23 25 -35 14 -12 28 -37 31 -55 4 -20 16
-41 30 -50 16 -10 26 -29 30 -55 4 -22 13 -42 21 -45 8 -3 32 -43 54 -89 24
-49 47 -85 59 -89 10 -3 24 -23 31 -43 6 -20 20 -48 30 -61 11 -13 19 -29 19
-36 0 -6 14 -27 30 -45 17 -18 30 -42 30 -52 0 -10 7 -21 16 -25 14 -5 33 -37
83 -139 11 -22 29 -52 40 -66 11 -13 23 -37 26 -51 4 -15 11 -27 15 -27 4 0
13 -14 20 -30 7 -17 22 -43 34 -57 23 -30 46 -69 77 -133 12 -25 32 -58 45
-73 13 -16 24 -37 24 -47 0 -11 9 -24 20 -30 11 -6 20 -17 20 -24 0 -7 12 -31
26 -52 15 -21 31 -52 37 -69 6 -16 21 -43 34 -58 12 -16 23 -35 23 -42 0 -8
11 -26 26 -42 l25 -27 -43 -23 c-42 -22 -50 -22 -383 -23 -186 0 -387 -5 -445
-10 -58 -6 -467 -15 -910 -21 -443 -6 -863 -12 -935 -14 -138 -4 -800 -24
-947 -29 -65 -2 -93 -7 -106 -19 -23 -21 -60 -22 -99 -2 -41 20 -121 21 -548
9 l-350 -11 -52 -27 c-50 -26 -54 -26 -83 -11 -28 14 -57 15 -263 6 -128 -6
-385 -15 -572 -21 -187 -5 -372 -12 -410 -16 -120 -10 -135 -2 -283 150 -24
24 -50 61 -57 83 -10 29 -21 41 -45 49 -41 14 -50 30 -38 67 9 24 8 31 -6 39
-9 5 -16 14 -16 20 0 6 -18 31 -41 55 -22 24 -52 69 -65 100 -14 30 -32 62
-41 71 -8 9 -20 29 -25 44 -6 16 -18 33 -28 38 -11 6 -21 27 -25 51 -5 28 -14
43 -29 50 -12 6 -33 33 -46 61 -13 27 -36 63 -52 80 -15 17 -28 40 -28 52 0
28 -12 45 -41 60 -14 7 -26 23 -29 40 -4 25 -12 31 -54 41 -48 12 -70 30 -59
48 11 17 4 100 -10 116 -8 9 -19 30 -26 48 -7 17 -22 40 -33 50 -11 10 -24 28
-29 41 -9 24 -31 37 -51 29 -7 -2 -17 -6 -23 -7 -5 -2 -18 -17 -28 -33 l-19
-30 -21 34 c-12 19 -32 43 -44 54 -28 25 -34 74 -11 88 21 14 48 -7 48 -37 0
-12 6 -30 13 -41 19 -25 28 -7 29 57 0 44 -4 55 -25 70 -14 10 -28 32 -32 48
-5 22 -13 30 -33 32 -23 3 -27 8 -30 40 -2 25 -8 38 -18 38 -8 0 -14 9 -14 20
0 24 -17 54 -47 86 -13 13 -23 32 -23 43 0 11 -8 25 -19 30 -10 6 -26 29 -35
51 -9 22 -23 40 -31 40 -9 0 -19 8 -22 18 -4 9 -19 29 -35 44 -18 17 -28 36
-28 56 0 34 -54 141 -81 160 -11 7 -19 19 -19 27 0 8 -12 20 -27 27 -23 11
-29 21 -31 56 -3 46 -21 56 -37 20 -6 -13 -19 -23 -30 -23 -29 0 -33 50 -6 65
28 15 26 27 -9 60 -19 17 -30 38 -30 54 0 15 -6 29 -14 32 -8 3 -19 19 -25 35
-9 25 -15 30 -38 27 -17 -2 -29 -10 -33 -23 -7 -29 -33 -29 -60 0 -19 20 -33
25 -71 25 -63 0 -79 -7 -79 -36 0 -20 5 -24 33 -24 17 0 40 -7 50 -14 9 -7 27
-11 40 -9 14 3 29 -2 36 -11 8 -9 18 -16 23 -16 6 0 5 7 -2 15 -10 12 -10 15
3 15 8 0 22 -11 31 -25 18 -28 21 -39 6 -30 -6 4 -5 -5 2 -20 9 -19 9 -28 0
-37 -7 -7 -12 -22 -12 -34 0 -27 -24 -38 -51 -23 -15 8 -24 7 -36 -2 -13 -12
-15 -7 -13 36 4 76 4 76 -37 73 -34 -3 -38 0 -57 37 -12 22 -27 46 -33 53 -7
7 -13 20 -13 27 0 8 -8 19 -18 24 -20 11 -48 -2 -73 -33 -15 -18 -28 -21 -101
-21 -102 0 -368 13 -425 21 -46 7 -48 3 -55 -71 -3 -29 -5 -30 -57 -33 -30 -2
-66 0 -79 3 -23 6 -24 8 -17 64 6 55 5 59 -17 64 -13 4 -37 7 -54 7 -21 0 -36
7 -46 21 -13 20 -25 22 -155 27 -77 2 -152 2 -167 -2 -23 -6 -24 -9 -14 -31 8
-19 8 -28 -2 -40 -12 -14 -35 -15 -177 -10 -105 4 -163 3 -163 -4 0 -5 -9 -12
-19 -16 -14 -4 -19 -15 -19 -41 0 -19 -7 -43 -15 -52 -10 -11 -18 -49 -22
-102 -6 -69 -12 -90 -30 -110 -13 -14 -25 -41 -27 -60 -2 -29 -9 -38 -38 -52
-19 -9 -48 -17 -65 -18 -52 -1 -56 -8 -53 -106 l3 -89 40 2 c22 2 55 -5 75
-15 34 -17 35 -19 38 -83 2 -36 -2 -78 -7 -92 -10 -25 -15 -27 -64 -27 -30 0
-68 -5 -86 -11 l-31 -11 0 -88 c0 -111 -15 -188 -41 -216 -23 -25 -36 -68 -51
-169 -11 -78 -6 -121 16 -167 24 -47 21 -140 -4 -163 -12 -11 -20 -31 -20 -51
0 -17 -11 -56 -25 -86 -14 -29 -25 -64 -25 -78 -1 -14 -7 -36 -15 -50 -8 -14
-14 -39 -15 -56 0 -33 -27 -123 -41 -139 -5 -5 -9 -18 -9 -30 -1 -25 -41 -72
-66 -77 -15 -3 -18 -11 -16 -43 2 -22 11 -46 20 -52 14 -12 13 -16 -9 -40 -25
-27 -49 -106 -49 -161 0 -15 -9 -41 -19 -59 l-20 -31 25 -17 c13 -8 35 -20 49
-25 l24 -9 -29 -31 c-25 -27 -34 -30 -87 -30 -32 0 -148 -7 -258 -15 -253 -19
-240 -24 -260 119 -3 22 -10 45 -16 52 -5 7 -14 50 -19 96 -5 45 -13 98 -19
115 -6 21 -6 120 -1 275 8 199 7 251 -4 288 -9 27 -17 119 -21 234 -7 201 -16
245 -55 266 -32 17 -40 0 -40 -97 0 -74 2 -82 21 -88 11 -4 23 -15 27 -25 4
-10 3 -108 -2 -217 -10 -236 -12 -371 -8 -638 3 -159 1 -201 -10 -206 -7 -3
-33 -16 -58 -27 -51 -25 -131 -29 -149 -8 -8 9 -46 16 -119 20 -231 14 -258
17 -304 36 -26 11 -57 20 -70 20 -13 0 -40 9 -61 20 -23 13 -56 20 -89 20 -28
0 -78 7 -110 16 -44 13 -67 14 -100 7 -48 -11 -369 -10 -435 2 -47 7 -57 28
-25 51 16 12 16 14 -3 28 -11 9 -32 21 -47 28 -27 13 -28 15 -28 98 0 57 5 92
14 105 8 12 16 59 20 110 17 259 18 282 7 322 -7 24 -21 47 -31 53 -14 8 -20
21 -20 46 0 19 -13 69 -29 112 -16 42 -34 100 -40 128 -14 71 -16 306 -2 332
14 27 14 113 -1 149 -15 38 -21 555 -6 643 5 36 10 191 9 347 -1 270 0 283 18
293 27 14 71 12 101 -3 17 -9 35 -11 58 -5 37 10 151 7 347 -10 309 -28 463
-35 624 -30 160 5 201 13 201 37 0 12 -193 43 -295 47 -55 3 -116 9 -135 15
-19 5 -73 14 -120 19 -47 6 -110 15 -140 20 -30 6 -107 15 -170 19 -63 5 -158
17 -210 26 -60 10 -115 14 -148 10 -118 -15 -138 12 -134 184 1 84 -1 108 -14
122 -35 39 18 119 78 119 18 0 44 -9 57 -19 22 -17 27 -17 46 -5 16 11 43 13
101 10 43 -3 183 -8 309 -12 146 -4 245 -11 271 -19 43 -15 303 -35 419 -34
58 1 80 -4 119 -25 44 -24 60 -26 162 -26 144 0 161 6 169 62 4 25 2 56 -5 73
-8 20 -11 125 -11 321 1 269 0 293 -17 314 l-19 23 -18 -44 c-14 -34 -23 -103
-36 -295 -11 -161 -22 -262 -31 -280 l-13 -29 -175 0 c-131 0 -181 4 -200 15
-45 25 -181 40 -371 40 -179 0 -188 1 -250 27 -62 26 -70 27 -269 27 -195 1
-206 2 -235 23 -21 15 -47 23 -85 25 -55 2 -55 2 -67 -32 -10 -31 -15 -92 -16
-225 0 -22 6 -84 13 -138 11 -75 19 -101 32 -108 22 -12 23 -32 2 -49 -33 -28
-45 -82 -44 -190 1 -88 -15 -542 -19 -546 0 -1 -23 -26 -50 -55 -51 -56 -51
-69 1 -69 51 0 58 -19 51 -138 -3 -59 -5 -118 -4 -132 6 -104 -1 -340 -10
-363 -7 -17 -9 -48 -4 -85 4 -31 8 -104 9 -162 1 -90 -2 -112 -21 -151 -13
-25 -23 -54 -23 -65 0 -10 -5 -26 -10 -34 -8 -12 -10 -9 -10 12 0 15 -9 62
-21 104 -17 64 -20 92 -14 168 10 137 9 215 -2 276 -10 58 -18 53 -28 -20 -3
-25 -12 -56 -19 -69 -13 -23 -14 -23 -19 -5 -3 10 -9 91 -13 179 -6 158 5 292
28 322 15 19 12 73 -8 170 -2 12 -16 35 -30 52 -20 25 -34 31 -64 31 -21 0
-43 -6 -50 -15 -17 -20 -39 -19 -79 6 -36 22 -168 38 -318 39 -63 0 -81 3 -77
13 2 7 -5 34 -16 60 l-21 47 -85 0 c-80 0 -86 2 -116 30 -21 20 -41 30 -62 30
-17 0 -42 3 -55 7 -17 4 -22 3 -17 -5 8 -13 -63 -8 -119 8 -16 5 -52 12 -78
16 -71 10 -53 28 30 32 78 3 106 19 83 47 -9 11 -32 15 -81 15 -95 0 -119 11
-119 54 0 40 13 46 108 46 84 0 102 10 102 59 0 21 -6 43 -13 49 -7 6 -49 12
-94 13 -45 1 -87 5 -93 9 -8 5 -17 56 -23 128 -10 111 -9 123 7 141 15 16 16
25 7 58 -6 21 -11 67 -11 103 0 38 -5 71 -12 78 -7 7 -45 12 -98 12 -73 0 -90
3 -104 19 -13 14 -14 21 -6 26 9 5 10 23 5 59 -9 63 -7 165 5 225 7 34 6 49
-4 56 -7 6 -15 18 -19 28 -6 15 -25 17 -200 17 -237 0 -224 -7 -229 135 l-3
100 -195 -4 c-152 -2 -198 -6 -210 -17 -10 -10 -16 -41 -18 -97 -4 -95 1 -104
63 -109 l40 -3 7 -70 c10 -104 26 -98 -257 -97 -88 0 -184 -2 -213 -5 -36 -3
-58 -1 -69 9 -12 9 -41 12 -105 9 -55 -2 -94 1 -102 8 -9 7 -12 28 -9 64 8
105 1 99 108 96 119 -3 125 1 125 93 0 119 42 108 -434 108 -486 0 -446 -11
-446 122 0 110 -7 118 -116 118 -50 1 -88 6 -104 15 -39 22 -142 19 -184 -6
-40 -23 -39 -22 -36 -97 2 -57 42 -131 81 -152 36 -20 11 -60 -37 -60 -10 0
-28 -12 -39 -26 -21 -27 -22 -27 -49 -9 -15 10 -36 34 -46 54 -34 64 -36 66
-101 71 l-63 5 -11 52 c-9 38 -9 53 -1 56 16 6 -63 37 -104 41 -71 7 -116 19
-157 42 -23 13 -57 24 -76 24 -29 0 -36 -4 -41 -24 -10 -40 -82 -42 -89 -2 -3
21 -4 21 -12 1 -11 -26 -24 -35 -52 -35 -24 0 -86 -53 -96 -82 -4 -12 -17 -18
-37 -18 -38 0 -70 -16 -70 -35 0 -11 -5 -12 -26 -5 -14 6 -38 9 -53 8 -37 -3
-41 -44 -6 -60 19 -9 25 -19 25 -45 0 -29 -3 -33 -25 -33 -23 0 -25 -4 -25
-45 0 -39 -3 -47 -25 -55 -14 -5 -30 -21 -35 -35 -5 -14 -16 -25 -24 -25 -18
0 -26 -22 -26 -71 0 -33 -9 -47 -23 -36 -2 1 -11 -4 -20 -11 -12 -10 -15 -25
-10 -63 5 -40 3 -50 -11 -55 -10 -4 -24 0 -33 9 -14 14 -14 18 1 48 9 17 16
42 16 53 0 12 9 32 20 46 31 39 24 130 -10 130 -10 0 -31 -14 -48 -31 -16 -17
-38 -29 -47 -27 -28 5 -46 74 -39 154 6 69 6 70 -25 96 -17 15 -31 36 -31 47
0 15 -6 21 -21 21 -17 0 -20 -4 -15 -24 8 -33 -18 -55 -45 -38 -10 7 -44 12
-75 12 -101 0 -98 -7 -89 214 4 126 11 193 18 198 7 4 121 8 254 8 283 0 263
-9 263 122 0 90 10 122 32 100 32 -32 78 0 78 54 0 33 1 34 39 34 40 0 51 -11
51 -50 0 -10 7 -21 16 -24 25 -10 278 -7 294 4 10 6 24 3 46 -11 29 -18 51
-19 312 -19 315 0 316 0 310 69 l-3 36 -148 5 c-157 5 -173 11 -162 55 2 11 5
30 5 43 0 21 3 22 89 22 49 0 101 4 116 10 20 8 27 7 31 -5 7 -17 59 -21 69
-5 6 10 -29 50 -45 50 -5 0 -10 8 -10 18 0 11 -9 27 -21 38 -37 33 -42 51 -19
74 24 24 50 26 50 5 0 -8 7 -15 15 -15 9 0 26 -11 38 -24 20 -21 32 -24 139
-28 127 -5 148 -13 148 -58 0 -36 17 -49 76 -56 75 -10 90 -28 52 -64 l-22
-20 22 -23 c12 -13 22 -36 22 -53 0 -16 7 -40 16 -52 15 -21 20 -22 202 -22
142 1 191 4 205 14 14 11 26 11 53 3 30 -9 38 -8 55 9 17 18 19 27 11 85 -5
35 -9 78 -8 94 l1 30 98 5 c103 5 117 12 117 56 0 36 21 44 96 37 64 -6 68 -5
55 10 -12 16 -4 17 102 17 100 0 117 -2 126 -17 10 -17 12 -17 25 0 19 25 82
20 80 -5 -1 -14 6 -18 38 -18 21 0 37 4 34 8 -3 5 -1 26 5 47 12 42 3 55 -39
55 -20 0 -23 5 -20 28 l3 27 91 -2 c80 -1 96 -5 129 -27 37 -26 43 -39 48
-118 1 -16 13 -18 95 -18 68 0 91 3 86 12 -4 6 0 16 8 22 16 12 38 49 38 65 0
5 -21 11 -47 13 -40 2 -49 7 -51 24 -3 20 3 22 88 28 78 7 92 10 102 29 7 12
11 25 11 28 -1 4 6 14 16 23 15 14 49 17 217 19 184 2 202 0 231 -18 17 -11
32 -24 32 -30 0 -5 15 -13 33 -16 20 -4 25 -7 13 -9 -17 -1 -16 -3 5 -9 43
-13 155 -22 145 -12 -6 5 -26 11 -45 14 -19 2 -2 5 39 5 41 1 72 5 68 8 -3 4
1 13 9 22 13 12 40 15 142 13 70 -1 156 -3 192 -5 49 -3 55 -2 25 4 l-40 7 47
1 c26 1 50 6 53 12 3 6 50 10 104 10 90 0 99 -2 104 -20 3 -13 20 -23 51 -31
26 -6 63 -24 83 -40 19 -16 54 -34 77 -40 46 -13 121 -5 140 13 12 13 26 43
25 54 -2 21 58 30 120 18 23 -5 30 -11 26 -23 -7 -23 6 -38 46 -55 48 -20 59
-35 66 -95 7 -62 11 -61 19 5 4 39 12 55 40 81 21 20 34 41 34 57 0 21 6 26
35 32 19 3 41 4 49 1 21 -8 26 -151 22 -650 l-3 -449 24 -29 c38 -44 60 -53
87 -35 28 18 232 21 274 4 29 -12 848 -40 895 -31 17 4 32 15 37 28 10 28 14
148 10 312 -3 133 3 153 47 153 52 0 103 86 102 172 0 87 -16 118 -79 154 -35
19 -53 36 -51 45 3 8 4 29 3 47 -3 66 -4 78 -2 102 1 14 -2 39 -5 56 -5 22 -1
46 13 78 l21 46 63 0 c101 0 103 2 106 170 2 113 6 147 20 168 15 22 17 61 18
306 1 245 -2 289 -18 346 -22 78 -23 153 -4 208 13 37 13 46 -5 97 -15 44 -19
82 -19 188 -1 72 3 145 7 160 5 16 5 61 1 100 -4 40 -7 108 -7 152 -1 72 2 84
29 123 38 57 45 107 35 277 -11 186 -11 180 3 635 7 217 12 517 12 665 0 149
5 324 10 390 5 66 10 255 10 420 1 165 6 345 11 400 5 55 11 444 14 865 8
1192 37 2803 55 3055 9 113 26 1186 32 1970 3 343 3 351 26 394 28 54 17 73
-25 43 -15 -12 -57 -28 -92 -37 -35 -9 -73 -22 -85 -30 -11 -7 -46 -20 -76
-29 -30 -8 -80 -24 -110 -35 -30 -11 -63 -20 -73 -21 -10 0 -35 -9 -55 -19
-21 -11 -62 -26 -92 -35 -88 -24 -208 -62 -315 -99 -55 -20 -128 -42 -161 -51
-34 -9 -81 -25 -105 -36 -24 -11 -60 -20 -79 -20 -19 0 -59 -12 -89 -25 -30
-14 -71 -30 -90 -35 -20 -5 -61 -18 -91 -28 -30 -11 -109 -37 -175 -57 -143
-43 -243 -76 -465 -151 -132 -44 -186 -58 -270 -66 -80 -8 -135 -20 -235 -55
-71 -25 -158 -51 -192 -57 -33 -7 -72 -19 -85 -28 -12 -8 -45 -20 -73 -27 -27
-7 -70 -21 -95 -31 -25 -10 -82 -25 -126 -34 -45 -8 -101 -24 -125 -34 -24
-11 -84 -32 -134 -47 -49 -15 -113 -36 -140 -46 -28 -11 -57 -19 -65 -19 -9 0
-42 -13 -75 -29 -34 -17 -85 -33 -115 -36 -30 -4 -79 -18 -107 -31 -29 -14
-67 -27 -85 -31 -18 -3 -42 -12 -53 -19 -11 -7 -47 -18 -80 -25 -33 -7 -73
-19 -90 -27 -16 -8 -61 -21 -100 -29 -38 -8 -91 -25 -117 -39 -26 -13 -58 -24
-70 -24 -13 0 -43 -10 -68 -21 -25 -11 -65 -21 -90 -23 -25 -1 -64 -11 -85
-22 -22 -12 -56 -24 -75 -27 -19 -4 -53 -16 -75 -27 -53 -26 -184 -67 -266
-85 -36 -7 -83 -21 -104 -29 -21 -9 -65 -23 -98 -32 -33 -8 -69 -22 -82 -30
-12 -8 -47 -19 -78 -25 -51 -9 -146 -46 -219 -85 -14 -8 -39 -14 -55 -14 -17
0 -52 -7 -79 -15 -27 -8 -66 -15 -86 -15 -20 0 -39 -4 -43 -9 -3 -5 -18 -12
-35 -16 -16 -3 -45 -19 -64 -34 -26 -21 -51 -30 -96 -34 -60 -7 -155 -33 -240
-68 -25 -11 -67 -24 -95 -29 -60 -13 -225 -69 -242 -82 -7 -5 -42 -16 -79 -24
-37 -7 -77 -20 -90 -29 -13 -8 -34 -15 -46 -15 -13 0 -45 -12 -73 -26 -27 -15
-76 -33 -110 -41 -96 -22 -229 -65 -246 -80 -14 -12 -50 -24 -229 -74 -19 -6
-55 -15 -80 -21 -25 -5 -63 -18 -85 -29 -23 -10 -63 -23 -90 -28 -53 -11 -134
-40 -194 -70 -20 -10 -58 -22 -86 -25 -27 -4 -68 -18 -90 -30 -22 -13 -62 -26
-89 -30 -63 -8 -224 -63 -255 -87 -14 -12 -38 -18 -61 -17 -25 1 -48 -6 -69
-21 -18 -13 -57 -26 -92 -31 -33 -5 -73 -17 -87 -26 -15 -10 -53 -21 -86 -25
-36 -4 -70 -16 -88 -29 -33 -25 -240 -101 -363 -134 -44 -12 -91 -29 -105 -38
-14 -9 -43 -20 -65 -24 -22 -3 -66 -17 -97 -30 -32 -13 -81 -29 -110 -35 -76
-16 -165 -46 -201 -68 -18 -10 -61 -22 -97 -26 -36 -3 -81 -15 -100 -25 -30
-16 -100 -37 -314 -91 -37 -9 -81 -28 -170 -70 -22 -11 -50 -19 -62 -19 -25 0
-92 -26 -114 -45 -8 -7 -44 -18 -80 -24 -36 -7 -75 -19 -87 -27 -13 -8 -56
-21 -97 -29 -41 -7 -85 -20 -98 -28 -13 -8 -49 -22 -80 -31 -32 -9 -58 -20
-58 -25 0 -5 -30 -12 -67 -16 -38 -4 -93 -17 -123 -29 -30 -13 -77 -28 -105
-35 -27 -6 -81 -27 -119 -47 -38 -19 -100 -42 -139 -50 -39 -8 -81 -23 -92
-33 -11 -10 -38 -22 -59 -26 -22 -3 -60 -17 -85 -31 -26 -13 -69 -27 -96 -30
-28 -4 -88 -22 -134 -40 -46 -19 -100 -34 -119 -34 -21 0 -64 -14 -105 -36
-38 -20 -95 -42 -126 -50 -31 -8 -66 -21 -78 -29 -12 -8 -54 -21 -94 -29 -39
-9 -82 -22 -95 -31 -12 -8 -44 -19 -71 -25 -26 -6 -57 -20 -68 -30 -25 -23
-130 -75 -170 -85 -16 -3 -47 -15 -70 -25 -39 -18 -130 -48 -265 -89 -70 -21
-186 -63 -235 -85 -72 -33 -164 -55 -194 -46 -35 10 -156 -17 -218 -48 -21
-11 -55 -22 -75 -26 -21 -4 -79 -23 -130 -43 -51 -19 -122 -44 -158 -54 -129
-36 -162 -49 -208 -80 -38 -26 -61 -34 -117 -39 -38 -3 -81 -12 -95 -20 -14
-7 -61 -24 -105 -36 -44 -12 -105 -31 -135 -43 -30 -12 -93 -29 -139 -36 -47
-8 -117 -28 -157 -45 -40 -16 -87 -30 -104 -30 -17 0 -61 -12 -96 -26 -35 -14
-69 -24 -76 -22 -18 6 -47 90 -48 138 -1 71 -24 89 -50 39 -13 -23 -7 -25 15
-3 21 21 28 13 16 -17 -5 -13 -10 -18 -10 -11 -1 7 -6 10 -11 7 -6 -4 -8 -10
-5 -15 3 -4 0 -10 -6 -12 -5 -2 -12 -16 -13 -31 -2 -16 -13 -35 -25 -43 -11
-8 -21 -23 -22 -32 0 -12 -2 -13 -6 -4 -8 19 -53 -26 -53 -52 0 -19 1 -19 13
3 6 14 18 26 26 29 8 3 4 -8 -10 -27 -12 -17 -28 -31 -35 -31 -13 0 -44 -37
-44 -52 0 -5 12 -1 28 8 26 15 26 15 4 -1 -12 -10 -22 -25 -22 -34 0 -12 -2
-13 -8 -3 -5 7 -9 -23 -9 -67 0 -60 -4 -83 -16 -96 -22 -22 -25 -226 -4 -244
8 -6 16 -9 18 -7 2 2 5 -24 7 -57 1 -34 5 -71 8 -82 4 -17 3 -18 -6 -5 -9 11
-10 -35 -7 -188 4 -181 3 -205 -13 -225 -24 -31 -31 -144 -36 -592 -4 -323 -6
-381 -19 -388 -21 -11 -21 -130 0 -147 21 -17 22 -225 1 -233 -8 -3 -16 -28
-20 -59 -16 -140 -25 -263 -26 -365 0 -61 -4 -114 -9 -117 -5 -3 -11 -23 -14
-43 -3 -21 -10 -58 -16 -83 -5 -25 -10 -163 -10 -308 -1 -226 -3 -266 -17
-279 -9 -9 -20 -28 -26 -42 -6 -17 -7 -305 -2 -831 11 -1047 11 -1008 -4
-1418 -12 -323 -15 -356 -33 -387 -12 -20 -21 -55 -22 -81 -2 -33 -8 -54 -24
-69 -22 -23 -38 -94 -30 -136 2 -13 5 -3 6 24 0 26 5 47 11 47 5 0 9 3 9 7 -3
19 2 33 12 33 7 0 9 -10 7 -25 -3 -14 -1 -28 4 -31 4 -3 8 -2 7 3 -1 4 2 18 6
31 7 21 8 21 22 5 8 -10 12 -12 8 -5 -8 15 -3 15 29 1 22 -10 29 -8 56 15 17
14 35 26 40 26 4 0 15 16 24 35 10 20 21 33 25 31 4 -3 11 -47 14 -98 4 -68 2
-98 -8 -117 -10 -19 -16 -106 -23 -322 -11 -320 -13 -333 -70 -386 -15 -14
-27 -28 -27 -32 0 -24 -69 -59 -80 -41 -3 5 -14 7 -25 5 -13 -3 -18 0 -14 7 5
7 -2 9 -19 6 -19 -4 -27 0 -33 16 -6 18 -8 16 -11 -11 -5 -38 -20 -44 -26 -10
-2 12 -4 -12 -4 -53 0 -57 1 -67 7 -40 l7 35 2 -37 c1 -29 5 -38 19 -38 14 0
15 -2 2 -10 -13 -8 -13 -14 -1 -42 17 -41 26 -118 14 -118 -5 0 -7 17 -5 38 3
21 1 33 -4 29 -5 -5 -15 8 -21 30 -12 35 -12 33 -8 -37 16 -230 10 -208 80
-279 l64 -65 6 -85 c6 -66 12 -91 28 -108 11 -12 23 -20 27 -18 4 2 5 -6 3
-19 -3 -13 0 -34 7 -46 8 -15 8 -25 0 -35 -18 -22 17 -191 37 -172 2 3 13 -3
24 -14 11 -11 25 -17 32 -13 7 4 9 4 5 0 -4 -5 -3 -19 2 -32 10 -26 -4 -79
-19 -70 -5 3 -12 -4 -16 -17 -7 -18 -9 -13 -16 28 -5 36 -6 23 -3 -45 5 -121
9 -147 25 -168 7 -9 9 -14 5 -10 -14 12 -36 -41 -36 -87 0 -39 2 -42 25 -38
20 4 24 2 20 -15 -2 -12 -8 -30 -14 -41 -6 -11 -11 -26 -11 -33 1 -7 7 2 15
20 8 17 16 32 19 32 2 0 4 -58 3 -128 0 -71 2 -133 6 -138 3 -6 6 -28 7 -50 1
-76 16 -121 41 -127 12 -3 19 -14 20 -29 2 -54 24 -91 51 -86 6 2 12 -2 13 -9
0 -6 4 -15 9 -20 5 -5 6 -3 2 5 -4 6 -2 12 3 12 6 0 11 -8 12 -17 0 -14 2 -15
6 -3 6 16 23 30 36 30 5 0 5 -4 2 -10 -6 -10 23 -15 55 -10 8 1 12 -1 8 -5
-16 -16 33 -47 157 -100 44 -19 44 -18 98 -30 29 -6 35 -10 27 -20 -8 -10 -6
-15 9 -20 12 -3 21 -10 21 -15 0 -5 6 -7 14 -4 8 3 28 -8 45 -25 18 -17 39
-31 49 -31 12 0 10 4 -8 13 -14 7 -26 21 -28 31 -3 13 0 16 10 10 7 -5 18 -9
23 -9 6 -1 9 -7 7 -14 -1 -7 2 -10 8 -6 6 3 8 11 5 16 -4 5 -1 9 4 9 6 0 11
-7 11 -16 0 -12 6 -15 25 -10 15 4 25 2 25 -4 0 -6 5 -8 10 -5 6 3 10 2 10 -4
0 -6 7 -7 17 -4 10 4 14 2 10 -4 -5 -7 0 -9 12 -6 12 3 24 -3 33 -16 19 -27
100 -58 83 -32 -3 6 22 8 62 5 38 -2 76 -4 85 -5 10 0 15 -6 12 -14 -3 -7 3
-18 14 -24 15 -8 21 -7 25 4 4 9 1 12 -9 8 -9 -3 -14 1 -14 11 0 15 3 15 33
-1 17 -9 35 -16 40 -15 4 1 7 -2 7 -6 0 -10 47 -14 200 -16 119 -1 126 -2 138
-23 7 -13 17 -23 22 -23 6 0 5 10 -2 23 -16 27 -29 37 -40 31 -4 -3 -8 0 -8 7
0 7 10 9 26 6 18 -3 22 -1 15 6 -17 17 -13 29 7 25 13 -2 17 -14 19 -48 3 -97
21 -173 45 -191 5 -3 10 -52 11 -109 3 -70 8 -105 16 -108 8 -3 7 -8 -4 -16
-20 -14 -12 -54 16 -85 14 -14 21 -40 24 -78 3 -43 10 -62 30 -83 18 -18 25
-37 25 -64 0 -26 7 -44 25 -62 14 -14 25 -33 25 -42 0 -23 19 -42 42 -42 13 0
18 -8 18 -26 0 -21 4 -25 20 -21 23 6 40 -16 33 -42 -5 -18 44 -74 57 -66 5 3
10 -5 12 -17 2 -15 11 -24 25 -26 13 -2 23 -8 23 -13 0 -6 8 -8 18 -5 12 4 29
-4 49 -22 29 -29 33 -29 147 -31 104 -1 121 -4 148 -24 27 -20 41 -22 135 -21
65 1 101 -1 92 -7 -17 -11 497 -11 699 0 123 7 146 10 172 29 19 14 44 22 70
22 48 0 80 14 80 35 0 8 8 15 18 15 27 0 92 67 92 94 0 13 14 40 30 61 17 21
30 49 30 62 0 14 11 38 25 55 19 23 25 41 25 79 0 36 4 49 15 49 8 0 22 14 31
32 30 57 32 58 174 58 126 0 133 -1 162 -25 27 -23 37 -25 135 -25 83 0 110
-4 124 -16 26 -23 115 -44 192 -44 52 0 72 -4 88 -19 24 -22 69 -31 167 -31
59 0 78 -4 102 -22 31 -22 98 -36 183 -37 38 -1 53 -6 67 -23 16 -21 29 -23
116 -27 79 -2 103 -7 125 -23 21 -16 52 -23 130 -30 86 -7 107 -12 127 -31 20
-19 37 -23 114 -26 75 -2 96 -7 125 -27 32 -21 47 -24 133 -24 89 0 98 -2 103
-20 7 -29 47 -40 141 -40 71 0 85 -3 106 -22 21 -19 38 -24 110 -26 74 -3 88
-7 112 -29 24 -23 35 -25 155 -30 90 -4 131 -9 139 -19 20 -25 65 -34 175 -34
60 0 109 -4 109 -9 0 -19 70 -39 165 -46 75 -5 106 -11 127 -26 20 -14 51 -22
113 -26 47 -3 85 -9 85 -12 0 -4 13 -14 29 -24 23 -13 54 -17 149 -17 107 0
122 -2 134 -19 17 -24 78 -41 151 -41 48 0 62 -4 76 -22 14 -17 32 -23 80 -26
46 -3 69 -10 85 -26 52 -48 106 -86 121 -86 9 0 19 -9 22 -20 3 -11 16 -23 28
-26 14 -3 26 -16 29 -30 4 -15 14 -24 26 -24 13 0 20 -7 20 -19 0 -11 11 -32
24 -48 14 -16 28 -43 32 -59 3 -16 17 -42 29 -59 13 -18 24 -52 28 -84 4 -32
14 -63 26 -75 11 -13 21 -44 25 -78 4 -31 16 -67 26 -80 12 -16 20 -50 25
-110 6 -72 11 -92 31 -113 18 -20 24 -37 24 -71 0 -43 25 -104 42 -104 4 0 10
-17 14 -38 3 -20 17 -48 29 -62 13 -14 25 -38 27 -55 2 -22 9 -31 26 -33 16
-2 22 -10 22 -27 0 -38 19 -77 40 -82 19 -5 25 -25 21 -78 -1 -11 12 -33 28
-49 16 -16 27 -34 24 -41 -7 -19 15 -55 32 -55 8 0 15 -5 15 -12 0 -6 8 -20
18 -31 9 -11 11 -17 5 -13 -7 4 -13 3 -13 -1 0 -14 23 -40 40 -45 8 -3 15 -15
15 -29 0 -19 5 -23 21 -21 16 2 24 -5 32 -28 6 -16 15 -30 19 -31 4 -1 28 -3
53 -5 27 -2 52 -12 64 -24 11 -11 15 -20 9 -20 -7 0 -17 8 -23 18 -10 15 -10
15 -8 -3 3 -20 24 -25 130 -29 20 0 34 -5 31 -9 -7 -12 17 -37 36 -37 14 1 14
2 -1 11 -10 5 -18 15 -18 20 0 6 13 2 30 -7 16 -10 25 -21 20 -24 -5 -3 43 -6
105 -7 90 -1 118 -5 131 -17 8 -9 27 -19 42 -23 38 -11 764 -10 957 1 101 5
166 13 175 21 11 9 105 14 344 19 316 6 428 15 471 40 11 6 79 14 150 18 140
7 223 19 234 35 3 5 35 15 71 22 36 7 73 20 82 28 10 9 39 19 65 24 26 5 55
17 63 27 9 11 32 22 51 26 20 3 46 17 59 31 13 14 31 25 41 25 19 0 100 73
118 107 6 12 11 42 11 67 0 31 6 51 19 63 11 11 21 40 25 73 6 46 14 61 44 90
l37 35 328 -2 c326 -3 329 -3 347 -25 19 -24 96 -36 239 -37 56 -1 86 -7 120
-23 45 -22 55 -23 436 -27 406 -3 620 8 662 35 13 8 50 14 90 14 152 2 262 16
286 37 19 18 40 21 147 26 117 5 177 17 190 36 14 23 655 38 1350 32 58 -1
435 1 839 4 623 5 736 8 745 20 11 14 694 21 2481 27 425 1 670 -9 686 -28 9
-11 50 -14 185 -14 153 0 174 2 183 17 8 15 35 17 276 18 244 0 267 -1 276
-18 9 -15 30 -17 215 -17 173 0 206 2 210 15 5 11 21 15 59 15 44 0 59 5 86
27 32 27 35 28 178 30 80 1 159 6 174 12 16 6 54 11 86 11 31 0 61 4 67 9 5 6
81 13 169 16 203 7 363 25 377 42 8 10 72 13 282 14 301 0 473 13 531 39 11 5
457 14 990 19 534 6 990 13 1015 17 25 3 52 13 61 21 14 12 177 14 1125 17
1177 4 1456 10 1475 33 9 10 83 13 373 14 430 0 642 15 667 45 9 11 59 14 243
14 233 1 385 15 408 38 8 8 56 12 157 13 81 0 169 4 196 9 104 19 120 23 132
32 6 5 69 12 140 15 122 5 193 21 193 44 0 5 9 9 19 9 32 0 52 12 62 36 5 14
17 24 29 24 13 0 22 9 26 28 4 15 18 37 31 49 17 17 23 34 25 70 1 26 2 55 3
63 1 20 35 71 44 66 3 -2 7 97 7 220 1 216 2 226 23 248 12 13 24 41 26 62 5
39 5 39 -4 6 -5 -19 -14 -39 -20 -45 -17 -17 -27 2 -12 25 7 11 8 17 2 14 -9
-6 -9 4 -2 58 0 5 9 2 18 -5 15 -12 16 -12 10 3 -3 10 -2 20 4 24 6 3 9 67 8
165 -2 140 0 161 15 172 9 7 21 30 26 52 15 62 10 85 -6 33 -20 -64 -36 -72
-32 -15 2 25 6 43 9 41 10 -6 19 24 13 40 -7 19 16 32 27 15 7 -11 9 -10 9 4
0 9 -5 17 -11 17 -5 0 -8 4 -4 9 3 5 7 35 10 67 3 32 9 60 14 64 17 10 28 54
34 135 l6 80 -13 -76 c-17 -97 -35 -133 -36 -72 0 23 5 54 12 68 10 22 9 28
-3 36 -11 7 -11 9 4 9 9 0 17 5 17 11 0 5 -4 8 -9 5 -5 -4 -7 3 -4 14 3 11 9
17 14 14 5 -3 9 5 10 18 0 13 3 144 5 292 4 198 9 272 18 282 21 21 30 172 31
509 0 409 -13 704 -31 726 -10 12 -15 55 -16 162 -2 137 -5 152 -29 149 -4 -1
-5 8 -2 18 3 11 10 20 16 20 6 0 7 3 4 6 -4 4 -13 1 -21 -5 -11 -9 -16 -9 -22
0 -4 8 -3 9 5 5 8 -5 11 2 9 23 -2 23 -7 31 -23 32 -11 0 -14 3 -7 6 6 2 12
12 12 21 0 14 2 14 14 2 8 -8 22 -28 31 -45 l17 -30 -7 30 c-8 40 -42 70 -62
54 -11 -10 -12 -9 -7 5 4 10 1 16 -7 16 -7 0 -9 3 -6 7 4 3 -1 15 -10 26 -13
15 -14 18 -3 12 12 -6 13 -5 3 6 -7 7 -13 19 -13 26 0 11 5 11 21 3 13 -8 18
-17 14 -28 -4 -12 -3 -14 5 -6 17 17 0 44 -31 51 -15 3 -36 17 -45 30 -9 14
-11 22 -5 19 6 -4 11 -2 11 3 0 6 -4 11 -10 11 -5 0 -10 7 -10 16 0 14 2 15
18 3 15 -13 16 -12 3 4 -9 11 -18 14 -24 8 -5 -5 -19 -4 -35 5 -15 8 -33 14
-41 14 -11 0 -9 4 5 15 25 19 44 19 44 0 0 -8 5 -15 11 -15 7 0 10 14 7 35 -2
19 0 35 4 35 4 0 8 -15 8 -34 0 -24 5 -35 18 -38 16 -4 17 18 17 371 0 422
-18 290 -34 -251 0 -21 -5 -38 -10 -38 -4 0 -6 11 -4 23 3 14 -2 31 -12 41
-12 11 -15 25 -10 43 11 46 5 548 -9 699 -10 108 -4 153 27 186 28 30 28 67 0
128 -31 66 -44 311 -19 359 10 18 15 35 12 38 -3 3 -1 15 5 26 7 12 7 17 1 13
-15 -9 -25 63 -27 199 -1 108 2 150 20 263 9 53 10 57 19 64 5 3 10 29 10 56
1 28 5 48 10 45 4 -3 5 10 0 28 -9 40 -9 54 -2 94 3 17 3 24 1 17 -3 -7 -9
-10 -14 -7 -5 4 -5 15 2 27 6 11 7 23 3 27 -12 8 -11 44 0 53 6 4 4 13 -3 22
-7 9 -11 25 -8 36 3 11 1 23 -5 26 -6 4 -6 52 -2 127 4 67 7 132 7 144 -1 13
2 21 6 19 4 -3 6 27 5 65 -2 38 2 69 6 69 5 0 7 7 4 15 -4 8 -1 15 6 15 9 0 9
4 2 13 -6 7 -7 18 -3 26 5 7 7 34 5 59 -1 26 2 52 8 59 7 9 7 13 -1 13 -7 0
-9 5 -6 11 12 19 15 63 20 296 5 237 -9 413 -34 421 -8 3 -11 83 -12 260 -1
319 -23 747 -39 767 -4 5 -11 336 -14 734 -4 398 -12 749 -17 780 -5 31 -9
115 -9 188 0 101 -3 135 -14 146 -13 12 -15 82 -18 420 -3 405 -3 405 -26 436
-21 28 -23 43 -25 152 -1 66 -4 122 -8 124 -3 3 -4 28 -1 56 4 41 2 50 -8 44
-9 -5 -11 -4 -6 4 4 6 10 62 13 124 5 108 4 113 -21 150 l-26 38 0 284 c0 309
-14 531 -35 555 -9 11 -14 81 -18 265 -6 253 -14 321 -41 340 -12 9 -15 59
-18 306 -3 227 -6 300 -17 322 -8 15 -18 27 -23 27 -4 0 -8 64 -9 143 0 78 -5
167 -10 197 -4 30 -11 73 -15 95 -3 22 -11 46 -18 54 -7 9 -13 84 -16 202 -5
174 -7 189 -27 218 -15 20 -23 44 -23 71 0 36 -3 40 -24 40 -14 0 -36 4 -49 9
-22 8 -26 17 -29 63 -5 62 -9 80 -23 90 -5 4 -15 90 -22 193 -10 155 -15 190
-31 210 -13 16 -22 49 -26 95 -4 39 -14 76 -22 84 -8 8 -24 34 -37 58 -20 39
-26 43 -64 46 -32 2 -51 -3 -82 -24 -52 -34 -156 -44 -211 -21 -69 30 -101 90
-75 140 7 15 17 48 21 73 l7 46 -34 -5 c-19 -2 -69 -15 -113 -27 -70 -21 -80
-26 -92 -55 -13 -33 -14 -33 -56 -23 -42 9 -44 9 -77 -29 -30 -34 -33 -35 -28
-13 6 23 5 24 -8 7 -18 -25 -55 -14 -48 14 3 11 -2 50 -12 86 -16 58 -22 67
-51 79 -41 17 -65 18 -99 2 -24 -11 -25 -14 -25 -103 0 -70 4 -96 15 -105 11
-9 15 -35 15 -106 0 -78 -3 -97 -19 -113 -15 -15 -17 -29 -13 -93 3 -59 1 -81
-14 -109 -12 -23 -17 -51 -15 -88 5 -109 -38 -142 -102 -78 -28 28 -57 41
-134 63 -7 2 -13 16 -13 32 0 15 -4 32 -9 37 -6 6 -14 33 -18 60 l-8 50 -45 6
c-25 3 -58 11 -73 17 -16 7 -80 12 -145 12 -137 0 -162 -10 -162 -65 l0 -33
-82 -7 c-46 -3 -186 -5 -313 -3 l-230 3 -3 199 c-1 127 -6 204 -13 213 -8 9
-39 13 -99 13 -85 0 -89 1 -108 28 l-20 27 -204 5 -203 5 -5 150 c-7 201 -9
205 -124 205 -68 0 -88 -4 -109 -20 -20 -16 -40 -20 -105 -20 l-80 0 -19 -37
-18 -38 -92 -3 c-68 -2 -100 1 -122 13 -17 8 -46 15 -65 15 -29 0 -33 -3 -29
-19 8 -30 -30 -45 -66 -27 -26 14 -30 14 -42 0 -19 -23 -80 -12 -131 21 -88
58 -168 44 -251 -45 -48 -51 -62 -60 -91 -60 -19 0 -38 5 -42 11 -11 19 -124
6 -140 -16 -18 -24 -18 -79 -1 -93 7 -6 53 -12 103 -14 l89 -3 3 -37 3 -36
-56 -7 c-67 -9 -106 -35 -87 -58 7 -8 28 -18 47 -21 40 -8 57 -31 45 -62 -14
-35 15 -53 73 -47 29 4 51 12 54 20 3 8 17 19 30 24 14 5 27 18 30 29 6 24 31
26 48 3 7 -9 19 -14 29 -10 13 5 16 22 16 89 0 81 14 158 28 158 4 0 13 -9 19
-19 8 -13 29 -22 58 -27 29 -4 49 -13 56 -25 5 -11 17 -19 25 -19 8 0 25 -11
37 -23 30 -32 74 -39 257 -41 l155 -1 8 -40 c5 -22 11 -113 13 -202 l4 -162
-40 -38 c-124 -117 -170 -167 -166 -179 3 -7 24 -14 48 -16 40 -3 43 -5 48
-38 3 -19 3 -197 0 -395 l-5 -360 -37 -37 c-24 -25 -46 -38 -63 -38 -58 0 -65
-13 -65 -110 0 -87 1 -89 30 -110 28 -20 29 -24 32 -108 l3 -87 105 -6 c58 -4
198 -7 311 -8 249 -1 237 5 241 -126 l3 -90 65 -3 c35 -2 70 -8 77 -14 9 -7
13 -39 13 -99 0 -83 1 -89 25 -105 23 -15 25 -22 25 -99 0 -107 3 -115 49
-115 51 0 61 -14 61 -88 0 -62 -2 -66 -40 -105 -28 -27 -53 -42 -78 -46 -34
-6 -37 -9 -40 -41 -5 -46 -18 -60 -57 -60 -42 0 -59 -20 -50 -60 6 -25 3 -31
-17 -39 -13 -4 -31 -5 -41 -2 -17 7 -18 27 -20 321 l-2 315 -80 3 c-103 3
-122 8 -130 32 -6 18 -15 20 -91 20 -116 0 -124 5 -124 84 0 39 -5 68 -12 74
-8 6 -130 11 -316 13 -256 3 -304 6 -312 19 -5 8 -10 114 -10 236 0 121 -3
356 -7 522 l-6 302 -89 0 -90 0 -31 35 c-27 30 -37 35 -76 35 -41 0 -49 -4
-74 -35 -20 -25 -36 -35 -57 -35 -57 0 -60 -5 -60 -100 0 -122 3 -120 -180
-111 -172 9 -190 3 -190 -59 0 -21 -5 -42 -11 -46 -7 -4 -50 -7 -98 -8 -75 -1
-90 -4 -119 -26 -52 -39 -84 -115 -87 -211 -1 -44 -8 -86 -14 -92 -6 -6 -11
-24 -11 -39 0 -27 -40 -78 -61 -78 -4 0 -10 -8 -12 -17 -5 -21 -9 168 -12 712
-2 215 1 397 5 406 9 16 65 15 75 0 7 -12 106 5 116 20 14 22 11 272 -3 291
-9 11 -39 20 -90 26 -73 8 -78 7 -78 -10 0 -11 -4 -16 -10 -13 -6 4 -10 -11
-10 -38 0 -46 -30 -100 -47 -84 -4 5 -8 186 -9 403 0 231 -4 398 -10 404 -5 5
-86 11 -179 13 -94 3 -192 9 -220 15 l-50 11 65 -4 c44 -3 60 -2 50 5 -8 5
-31 10 -51 10 -32 0 -69 23 -69 43 0 4 7 7 17 7 14 0 14 2 -3 21 -10 11 -19
30 -19 42 0 13 -6 22 -15 22 -10 0 -15 -10 -15 -28 0 -27 -18 -47 -42 -47 -20
0 -41 29 -36 50 7 26 -1 28 -144 34 -119 5 -123 5 -152 -20 l-30 -25 -113 11
c-62 6 -142 10 -178 8 -59 -3 -66 -5 -78 -30 -23 -49 -73 -30 -103 37 l-19 43
-85 7 c-46 4 -92 4 -102 1 -10 -4 -85 -7 -167 -7 -111 1 -157 5 -179 16 -19 9
-59 15 -107 15 -102 0 -113 12 -108 107 l3 68 -95 3 c-52 1 -101 -2 -109 -7z
m-9086 -667 c13 -13 15 -28 11 -63 -4 -25 -11 -158 -16 -296 -6 -137 -14 -253
-19 -258 -5 -5 -19 -6 -31 -2 -20 6 -21 11 -15 83 3 43 6 131 8 197 2 111 0
124 -25 180 -15 33 -31 61 -37 63 -13 4 -101 -68 -101 -84 0 -6 16 -31 35 -55
22 -28 37 -60 41 -87 5 -36 -7 -155 -32 -307 -6 -37 -50 -105 -68 -105 -7 0
-21 9 -31 20 -11 12 -31 20 -50 20 -27 0 -34 -6 -53 -45 -19 -40 -25 -45 -56
-45 -27 0 -40 7 -58 31 l-24 30 -19 -41 c-18 -39 -46 -60 -80 -60 -36 0 -59
107 -32 144 10 14 11 33 4 80 -14 102 0 298 29 380 13 39 28 73 32 77 4 4 24
11 45 14 37 7 38 7 54 -34 19 -48 33 -45 33 8 0 43 12 60 60 88 44 25 68 19
85 -20 14 -31 14 -31 15 -7 1 17 16 37 46 63 67 55 111 48 134 -22 7 -23 17
-41 22 -41 4 0 20 25 35 55 15 30 30 55 34 55 4 0 15 -7 24 -16z m16239 -285
c14 -17 23 -35 20 -40 -3 -6 -3 -26 0 -45 l7 -34 68 0 c49 0 72 -4 81 -15 9
-11 10 -15 1 -15 -8 0 -4 -11 8 -29 26 -36 26 -39 -1 -68 -17 -18 -19 -26 -10
-35 16 -16 15 -63 -2 -77 -9 -8 -43 -11 -93 -9 -69 3 -79 5 -88 25 -5 12 -19
26 -31 32 -19 8 -23 19 -26 71 -1 34 1 65 6 70 6 6 3 11 -7 15 -9 3 -24 7 -32
10 -11 3 -15 19 -15 59 0 53 1 55 35 66 24 8 35 18 35 31 0 27 14 24 44 -12z
m-6624 -244 c-12 -22 -11 -27 4 -44 10 -11 31 -23 47 -26 33 -8 38 -21 10 -30
-33 -10 -33 -33 -1 -50 23 -12 30 -22 30 -45 0 -16 -4 -31 -9 -34 -4 -3 -11
-20 -15 -37 -9 -45 -23 -59 -60 -59 -39 0 -76 32 -76 65 0 13 -4 27 -10 30
-20 12 -11 64 13 76 12 6 23 13 25 14 2 2 -4 15 -13 29 -16 24 -16 28 -1 51
12 18 15 36 10 60 -4 23 -2 41 7 51 11 13 15 13 33 -5 18 -18 18 -23 6 -46z
m-462 -207 l3 -98 -56 0 -55 0 0 88 c0 87 0 88 28 99 15 6 38 11 52 10 25 -2
25 -3 28 -99z m7510 16 c2 -52 0 -63 -22 -83 -20 -18 -23 -28 -16 -51 7 -25 0
-36 -89 -129 -83 -87 -101 -101 -129 -101 -23 0 -39 8 -59 30 -15 17 -36 30
-49 30 -39 0 -53 50 -38 129 l7 31 126 0 c173 0 175 1 181 114 4 78 8 90 25
96 43 15 60 -3 63 -66z m-7458 -348 c-7 -19 -7 -40 -1 -64 6 -19 8 -39 5 -44
-3 -5 -3 -27 1 -50 5 -30 19 -52 51 -84 37 -35 44 -48 44 -81 0 -70 -15 -79
-122 -77 -51 1 -130 5 -175 9 -73 6 -85 10 -103 32 -42 54 -18 115 53 138 30
9 32 13 34 60 4 72 23 195 36 222 9 20 15 22 47 17 21 -4 46 -1 56 4 16 9 25
5 52 -22 30 -29 32 -35 22 -60z m460 46 l45 -18 8 -84 c5 -47 13 -88 20 -92
13 -8 186 -22 213 -16 15 2 21 18 31 73 7 39 18 83 24 98 10 25 16 27 43 22
142 -29 146 -34 145 -176 -1 -125 -9 -151 -54 -177 -21 -13 -35 -32 -43 -59
-18 -60 -35 -65 -215 -61 -130 2 -159 6 -173 20 -13 12 -23 14 -41 7 -19 -7
-29 -4 -47 14 -28 27 -56 72 -56 89 0 7 -14 21 -30 30 -17 9 -35 29 -40 44
-14 37 2 248 22 287 12 23 87 22 148 -1z m-164 -567 c32 -34 37 -36 76 -30 22
4 57 14 77 22 21 9 83 17 151 20 107 5 122 4 205 -23 78 -24 105 -28 200 -27
248 2 234 1 267 28 39 33 51 32 92 -9 l34 -35 -37 -25 c-20 -14 -50 -26 -65
-26 -16 0 -46 -5 -67 -11 -34 -11 -44 -9 -93 15 -36 18 -71 27 -98 26 -24 0
-52 0 -63 1 -27 3 -85 1 -240 -7 -83 -4 -152 -2 -190 6 -33 6 -148 14 -255 17
-107 3 -197 10 -201 14 -3 5 -23 17 -44 28 l-39 19 27 13 c15 8 68 15 127 17
l101 4 35 -37z m-8499 -31 c26 -16 29 -36 10 -52 -18 -15 -162 -39 -287 -47
-89 -6 -108 -5 -119 8 -10 13 -9 20 4 40 21 33 52 45 165 62 106 16 193 12
227 -11z m10733 -173 c5 -11 10 -31 10 -46 0 -17 16 -43 50 -78 53 -55 64 -92
35 -120 -22 -23 -155 -33 -213 -16 -26 7 -50 13 -54 11 -13 -3 -25 32 -30 86
-5 49 -4 52 18 52 13 0 32 9 42 20 102 117 121 129 142 91z m-18483 -758 c11
-27 16 -82 18 -203 2 -91 8 -235 14 -320 12 -182 14 -300 3 -317 -15 -24 -56
-3 -74 38 -9 22 -23 39 -32 39 -18 0 -56 -56 -56 -81 0 -22 -56 -91 -87 -107
-21 -12 -27 -11 -44 4 -10 9 -19 23 -19 30 0 21 -51 74 -71 74 -16 0 -19 -7
-19 -44 0 -62 -24 -116 -53 -116 -12 0 -50 -9 -84 -19 l-63 -19 -25 31 c-14
18 -30 38 -36 45 -13 15 -51 16 -67 0 -7 -7 -12 -27 -12 -46 0 -44 -16 -72
-40 -72 -11 0 -30 -11 -41 -24 -11 -13 -40 -31 -62 -40 -116 -43 -133 -22
-118 147 6 61 11 160 11 218 0 114 19 202 47 218 16 9 16 13 0 63 -22 71 -23
205 -1 236 31 45 131 71 151 40 4 -7 8 -125 8 -263 0 -174 4 -256 12 -270 l12
-20 6 20 c4 11 11 31 17 45 6 14 12 72 15 130 2 58 10 130 18 160 8 30 17 87
21 125 9 95 26 135 54 128 36 -9 41 -37 41 -206 -1 -159 22 -428 41 -477 l10
-25 19 24 c10 13 19 32 19 42 0 10 5 19 10 19 6 0 10 -4 10 -9 0 -15 40 -24
54 -12 8 7 16 47 20 103 3 51 11 111 16 133 13 54 12 142 -1 185 -6 19 -17 88
-24 154 -14 116 -13 119 7 147 12 16 25 29 29 29 9 0 36 -86 46 -145 l7 -40 9
35 c10 40 34 70 55 70 13 0 14 -17 9 -117 -3 -72 -12 -136 -22 -163 -31 -82
-3 -325 41 -361 22 -18 31 0 38 80 14 145 28 216 43 228 12 9 17 34 18 100 6
176 22 295 48 356 14 31 29 57 32 57 3 0 13 -17 22 -37z m-417 -145 c-5 -13
-13 -144 -19 -292 -5 -147 -12 -271 -15 -274 -11 -10 -19 7 -27 55 -5 37 -1
257 11 526 0 4 13 7 30 7 27 0 29 -2 20 -22z m5581 -124 c15 -7 31 -26 37 -42
10 -30 9 -33 -56 -134 -19 -30 -125 -122 -182 -158 -23 -15 2 -27 78 -35 54
-6 68 -4 78 9 25 34 37 18 29 -39 l-6 -55 30 0 c26 0 33 -6 50 -47 12 -27 25
-55 31 -63 6 -8 19 -34 30 -56 18 -38 19 -45 5 -77 -15 -36 -58 -77 -80 -77
-6 0 -20 -9 -30 -20 -9 -10 -33 -25 -53 -31 -19 -6 -50 -20 -68 -31 -22 -13
-61 -22 -111 -25 -52 -4 -86 -12 -103 -24 -18 -13 -51 -21 -115 -25 -49 -4
-100 -13 -112 -20 -19 -12 -29 -11 -72 6 -57 22 -107 18 -116 -10 -3 -9 -29
-32 -58 -51 -46 -30 -62 -34 -142 -40 -49 -4 -115 -14 -145 -23 -30 -9 -100
-21 -155 -27 -55 -5 -116 -14 -135 -19 -19 -6 -66 -10 -105 -10 -57 0 -84 6
-155 36 -74 31 -90 42 -122 87 -27 37 -38 62 -38 88 0 19 -7 59 -16 88 -15 52
-15 52 15 105 16 29 34 71 40 93 6 22 25 58 42 79 27 34 30 44 27 99 -3 85 13
107 94 129 35 10 97 28 138 41 135 43 298 85 328 85 16 0 49 7 73 16 24 8 79
22 121 30 42 8 92 21 110 28 18 8 62 19 98 26 36 6 101 22 145 35 211 62 275
73 415 73 95 0 142 -4 161 -14z m-6286 -120 c18 -36 19 -67 23 -415 4 -379 -1
-442 -29 -349 -17 56 -29 64 -78 50 -41 -11 -44 -16 -55 -81 -4 -23 -16 -43
-35 -57 l-28 -21 -29 30 -28 29 -26 -25 c-24 -23 -27 -24 -54 -10 -35 19 -39
16 -60 -39 -14 -36 -23 -46 -48 -51 -42 -10 -53 6 -51 70 1 39 -3 57 -15 68
-16 14 -20 14 -50 -4 -23 -15 -35 -33 -42 -62 -26 -107 -31 -117 -54 -123 -13
-3 -38 -23 -55 -45 -26 -32 -38 -39 -66 -39 -39 0 -56 19 -76 87 -8 29 -9 54
-2 80 5 21 6 52 3 68 -4 25 -10 31 -38 33 -23 2 -41 -4 -62 -21 -16 -14 -34
-27 -39 -29 -6 -1 -13 -58 -17 -124 -7 -121 -7 -121 -37 -139 -34 -21 -43 -13
-53 48 -7 43 -15 44 -78 17 -44 -18 -46 -21 -46 -60 l0 -40 -63 0 c-51 0 -68
-4 -82 -20 -24 -27 -32 -25 -40 9 -3 16 -14 36 -25 46 -17 15 -21 15 -59 -5
-36 -18 -41 -25 -41 -54 0 -67 -109 -138 -152 -99 -20 18 -24 90 -9 154 8 35
-1 69 -18 69 -12 0 -107 -94 -113 -111 -4 -11 -8 -11 -18 -2 -19 18 -24 130
-10 259 7 66 13 172 15 236 4 173 32 218 118 188 17 -6 41 -23 52 -38 19 -25
20 -40 17 -237 -1 -115 -5 -227 -8 -247 -6 -43 20 -78 59 -78 53 0 59 13 85
195 7 47 9 50 40 53 37 4 36 2 17 38 -18 34 -20 223 -4 294 12 52 59 106 100
115 16 4 38 19 49 35 38 53 113 51 129 -3 7 -24 9 -27 10 -10 1 12 11 29 23
37 25 18 74 21 83 6 4 -6 10 -106 15 -223 5 -127 14 -224 21 -242 12 -28 13
-26 20 53 4 45 13 108 19 139 7 31 11 95 10 142 -5 161 -4 170 35 207 42 40
95 53 127 32 21 -14 24 -13 43 16 11 16 35 39 53 49 33 20 34 20 63 -2 27 -20
31 -21 59 -6 16 9 30 20 30 25 0 14 40 37 76 43 43 8 66 -11 74 -64 l7 -44 2
38 c1 37 34 117 49 117 33 -1 41 -39 52 -265 l2 -30 10 35 c5 19 19 47 30 63
12 16 24 57 30 100 15 115 21 132 46 135 13 2 23 -2 24 -10 1 -7 2 -144 2
-305 1 -220 4 -295 14 -304 10 -10 12 -3 12 37 0 27 7 74 15 104 8 30 15 78
15 105 0 28 7 72 15 99 8 27 20 101 25 165 16 169 34 197 75 115z m21670 -74
c4 -6 9 -52 12 -103 8 -125 3 -132 -85 -141 l-70 -7 -11 -52 c-23 -98 -23
-111 -2 -159 l20 -47 63 -3 c48 -2 63 -7 63 -18 0 -12 -15 -16 -68 -18 -59 -3
-69 -6 -84 -28 -15 -23 -22 -25 -70 -22 -53 3 -61 0 -43 -17 12 -13 -91 -7
-104 5 -5 6 -5 15 2 23 13 15 10 44 -8 77 -9 16 -8 33 1 70 10 38 10 58 1 88
-15 51 -15 94 1 115 9 13 32 17 107 19 l95 3 2 60 c2 33 5 84 9 113 l5 52 79
0 c44 0 82 -5 85 -10z m-18278 -431 c15 -5 45 -28 67 -51 35 -37 38 -44 34
-87 -7 -67 -41 -138 -78 -159 -23 -12 -30 -24 -29 -42 5 -68 -82 -148 -194
-179 -38 -11 -45 -16 -36 -27 6 -7 16 -37 23 -66 l12 -53 44 1 c25 0 82 4 127
9 82 8 82 8 94 -18 9 -20 9 -33 -1 -57 -14 -34 -40 -48 -140 -73 -159 -40
-203 -48 -232 -42 -23 5 -35 2 -52 -14 -16 -15 -51 -27 -110 -38 l-87 -16 -34
33 c-36 35 -85 150 -85 201 0 17 -14 48 -35 78 -19 26 -35 53 -35 59 0 6 -12
25 -27 42 -14 18 -32 55 -39 82 -11 43 -11 54 1 79 18 33 54 54 110 65 22 4
58 13 80 21 37 14 85 23 353 72 57 11 105 21 106 23 38 52 47 72 42 93 -5 18
1 29 25 49 33 28 53 32 96 15z m-5349 -44 c2 -1 4 -36 5 -78 2 -61 -1 -79 -17
-96 -11 -12 -24 -21 -30 -21 -19 0 -89 -68 -83 -82 2 -7 25 -23 50 -36 50 -25
57 -36 57 -90 0 -61 -10 -80 -56 -107 -35 -20 -45 -33 -50 -62 -8 -40 11 -63
51 -63 33 0 45 -20 45 -76 0 -68 -15 -109 -46 -123 -30 -13 -93 -14 -114 -2
-10 7 -18 4 -28 -10 -18 -26 -87 -60 -107 -53 -21 8 -28 42 -21 111 25 275 35
551 21 605 -5 19 0 41 15 73 23 48 40 62 80 65 39 3 47 1 64 -16 14 -14 19
-12 48 22 36 41 64 55 93 47 11 -3 21 -7 23 -8z m-446 -136 c19 -36 24 -124 9
-148 -5 -8 -28 -24 -52 -35 -75 -37 -78 -78 -9 -101 22 -7 37 -20 42 -37 5
-15 6 -117 1 -232 -8 -183 -11 -208 -29 -232 -34 -46 -47 -50 -103 -32 l-51
16 -21 -29 c-15 -22 -28 -29 -52 -29 -38 0 -46 6 -71 45 l-19 29 -14 -39 c-16
-48 -55 -85 -88 -85 -33 0 -40 30 -30 128 4 42 8 149 9 238 2 156 9 201 26
173 10 -15 67 -16 82 -1 8 8 9 23 2 49 -9 37 -13 40 -83 60 -32 8 7 165 45
180 24 9 93 -16 104 -38 13 -23 15 -104 9 -325 -3 -126 -1 -165 10 -178 17
-20 45 -21 61 -1 12 15 29 146 35 275 8 158 18 215 46 271 28 57 92 123 112
116 7 -2 20 -19 29 -38z m4873 -173 c0 0 15 -20 33 -44 40 -51 76 -171 67
-220 -5 -27 1 -42 35 -91 63 -89 79 -176 44 -234 -5 -10 -44 -29 -84 -43 -63
-22 -93 -26 -190 -27 -158 -1 -195 7 -221 49 -17 29 -25 33 -47 28 -25 -6 -40
-19 -77 -69 -9 -11 -30 -39 -48 -62 -17 -23 -57 -73 -87 -112 -30 -40 -80
-103 -110 -141 -30 -38 -71 -90 -90 -115 -19 -26 -49 -65 -67 -86 -17 -21 -33
-44 -35 -50 -6 -18 -56 1 -62 24 -11 46 29 409 56 502 11 39 26 93 34 120 28
110 74 215 133 304 13 20 30 57 37 84 13 52 57 111 89 121 11 3 79 6 151 6
113 0 145 4 220 26 135 40 146 42 184 37 19 -3 35 -6 35 -7z m981 -813 c8 -11
13 -44 14 -80 0 -57 -3 -65 -40 -112 -48 -60 -56 -65 -145 -84 -203 -44 -346
-73 -465 -93 -52 -9 -124 -23 -160 -31 -36 -9 -112 -24 -170 -34 -58 -10 -134
-24 -170 -32 -36 -8 -101 -20 -145 -26 -44 -7 -102 -19 -130 -27 -72 -21 -480
-93 -533 -94 -27 0 -47 38 -29 57 26 25 109 63 227 103 69 23 134 47 144 52
10 6 46 18 80 29 63 18 166 54 316 110 204 75 250 91 335 114 50 13 102 28
116 34 15 5 60 13 100 17 41 3 108 17 149 30 41 12 118 28 171 34 52 6 122 19
155 30 79 24 162 26 180 3z m-10192 -4235 c22 -31 22 -234 1 -262 -19 -25 -20
-175 -3 -275 11 -63 10 -73 -7 -105 -21 -39 -30 -44 -38 -22 -6 16 2 654 8
674 7 18 22 15 39 -10z m31688 -874 c30 -15 38 -25 38 -49 3 -62 9 -79 70
-195 25 -47 29 -67 30 -132 0 -65 -5 -87 -30 -142 -37 -79 -61 -97 -170 -129
-90 -26 -95 -25 -177 21 -25 14 -93 114 -116 170 -9 22 -30 55 -47 73 -17 19
-38 47 -47 63 -13 25 -13 33 1 70 8 22 20 60 26 83 7 27 19 47 33 54 12 7 46
32 76 57 70 60 137 84 216 79 33 -3 77 -13 97 -23z m-28398 -700 c55 -3 105
-8 112 -11 8 -3 30 -27 50 -54 l36 -49 306 1 c169 0 316 4 327 8 13 6 31 3 50
-7 33 -18 77 -16 115 3 15 7 33 9 46 5 49 -19 169 -21 244 -5 49 10 98 14 140
10 150 -13 769 -24 802 -14 69 21 150 28 208 17 l59 -10 3 -41 c2 -25 -4 -58
-15 -82 -42 -93 -38 -89 -97 -93 -67 -4 -85 -19 -101 -85 -6 -29 -20 -60 -30
-70 -11 -10 -19 -27 -19 -38 0 -11 -9 -47 -20 -80 -20 -59 -30 -118 -51 -304
-16 -138 -18 -169 -25 -332 -5 -128 -3 -157 10 -184 9 -18 16 -55 16 -83 0
-44 -4 -54 -29 -76 -29 -24 -30 -29 -32 -115 -1 -49 3 -135 9 -190 6 -55 11
-137 12 -183 0 -113 19 -144 62 -105 11 10 18 30 18 54 0 41 9 53 35 43 14 -6
16 -15 11 -44 -4 -27 -2 -41 9 -50 8 -7 15 -9 16 -4 1 5 3 34 4 64 2 30 12
109 23 175 17 113 19 117 26 77 6 -32 14 -46 32 -54 26 -12 29 -19 43 -115 10
-63 37 -116 88 -170 48 -51 72 -101 84 -171 6 -37 20 -81 30 -97 10 -17 22
-65 27 -108 8 -61 15 -81 33 -96 14 -11 24 -33 28 -62 5 -38 11 -46 41 -61
l35 -17 -32 -6 c-17 -4 -34 -14 -37 -21 -3 -8 -9 -101 -12 -207 -8 -219 -4
-237 50 -237 40 0 48 -7 36 -30 -11 -20 -86 -40 -150 -40 l-40 0 1 137 c1 133
1 138 -22 153 -56 37 -58 42 -61 124 -2 50 -7 81 -15 83 -8 3 -13 -25 -17 -94
-3 -54 -9 -147 -13 -208 l-8 -110 -37 -9 c-25 -6 -55 -5 -93 3 -47 11 -56 16
-60 39 -3 15 -10 41 -16 59 -5 17 -12 54 -16 81 -7 65 -15 76 -46 69 -22 -6
-25 -13 -29 -75 -10 -136 -44 -156 -217 -128 -53 9 -145 16 -206 16 -80 -1
-130 5 -185 20 -139 38 -299 62 -395 59 -56 -2 -129 18 -192 51 -33 17 -65 23
-152 27 -132 6 -138 1 -98 -80 16 -31 29 -78 32 -117 4 -36 13 -78 20 -95 7
-16 16 -59 20 -95 3 -36 10 -80 15 -97 7 -26 4 -39 -14 -65 -14 -21 -29 -32
-42 -31 -37 5 -193 33 -319 58 -106 22 -188 35 -315 49 -108 13 -223 34 -315
57 -23 6 -58 25 -78 42 -32 27 -40 41 -47 87 -8 56 -41 184 -58 230 -5 14 -7
44 -4 66 3 32 -3 55 -28 103 -46 88 -57 93 -189 90 -62 -1 -115 2 -123 7 -7 6
-32 16 -55 24 -23 7 -56 25 -73 39 l-31 26 -5 235 c-2 129 -4 244 -4 255 -4
93 8 854 14 867 13 29 64 -8 78 -57 6 -22 22 -51 34 -65 12 -14 28 -47 35 -73
9 -38 18 -51 43 -64 17 -9 48 -29 68 -45 35 -27 110 -47 180 -48 14 0 157 134
225 211 12 14 38 68 58 120 20 51 43 101 51 110 8 8 21 55 29 103 9 49 22 98
30 109 8 12 15 33 15 48 0 15 9 55 19 90 11 35 19 81 19 101 0 55 22 180 37
203 12 20 26 176 25 281 -1 28 4 81 10 119 16 102 2 109 -207 105 -45 -1 -90
3 -101 9 -13 7 -121 11 -289 11 -287 1 -338 7 -365 41 -47 56 -10 82 127 89
126 7 637 3 769 -6z m2823 -237 c-2 -7 2 -20 11 -29 11 -14 12 -21 3 -32 -7
-8 -8 -17 -3 -20 15 -9 22 -46 8 -43 -6 1 -10 -7 -8 -17 2 -12 -10 -32 -32
-52 -20 -18 -36 -41 -37 -51 0 -10 -7 5 -15 32 -20 70 -22 76 -33 112 -5 17
-7 34 -5 36 3 3 6 18 7 33 2 25 7 29 37 32 19 2 39 7 44 12 12 12 28 2 23 -13z
m346 -7 c8 0 7 -4 -1 -12 -7 -7 -12 -33 -12 -59 0 -67 -7 -79 -44 -79 -42 0
-51 8 -72 59 l-17 44 24 18 c13 10 20 19 14 20 -5 1 8 5 30 9 22 4 46 5 53 4
8 -2 19 -4 25 -4z m-3301 -60 c15 -7 30 -20 33 -28 3 -8 8 -77 12 -152 5 -116
3 -142 -11 -170 -9 -18 -16 -45 -16 -59 0 -14 -11 -50 -25 -79 -30 -65 -31
-82 -5 -82 32 0 37 -30 9 -51 -20 -15 -25 -29 -29 -81 -6 -78 -21 -88 -138
-88 -112 0 -135 13 -158 87 -19 57 -21 97 -14 258 2 53 -1 89 -10 105 l-13 24
-23 -28 c-15 -17 -24 -40 -24 -62 0 -19 -11 -60 -24 -92 -13 -31 -27 -77 -31
-102 -6 -40 -38 -169 -51 -210 -4 -10 -12 -6 -30 18 -22 28 -31 32 -67 30 -55
-4 -70 23 -62 107 3 33 9 116 13 185 5 89 12 134 25 157 9 18 17 39 17 48 0 9
11 37 24 63 13 26 29 72 35 103 7 31 20 64 29 72 27 25 106 39 139 25 15 -6
35 -10 43 -9 8 2 62 9 120 17 116 14 191 12 232 -6z m-2873 -109 c11 -11 40
-28 65 -39 68 -31 73 -74 13 -130 -22 -21 -29 -22 -64 -13 -22 6 -49 22 -61
36 -21 24 -27 25 -124 25 -57 0 -110 5 -118 10 -31 19 8 30 123 33 64 1 119 5
122 9 13 13 13 49 0 55 -22 8 -18 33 5 33 11 0 29 -9 39 -19z m94 -235 c30 -8
63 -18 73 -24 11 -5 40 -16 65 -24 43 -14 50 -13 85 4 20 10 44 24 53 32 16
14 34 19 58 17 7 0 25 -19 39 -41 14 -21 41 -48 60 -59 21 -13 35 -30 39 -48
15 -71 19 -78 55 -79 102 -4 93 1 87 -51 -3 -30 1 -65 10 -92 25 -74 -6 -157
-71 -187 -30 -15 -34 -21 -39 -67 -2 -28 -10 -53 -16 -55 -21 -7 -41 -73 -41
-133 0 -61 -4 -68 -34 -46 -13 10 -17 24 -14 57 2 37 -1 49 -21 67 -13 11 -38
24 -55 27 -27 6 -35 2 -63 -33 -26 -31 -42 -40 -78 -45 -24 -4 -47 -11 -50
-17 -4 -5 -21 -9 -38 -9 -25 0 -36 -7 -49 -30 -10 -17 -33 -37 -52 -45 -21 -9
-36 -23 -40 -39 -3 -14 -16 -31 -29 -37 -38 -20 -66 -50 -72 -80 -8 -35 -33
-41 -165 -35 -52 2 -114 4 -137 5 l-43 1 0 39 c0 49 11 57 41 31 l24 -19 -25
6 -25 5 24 -17 c22 -17 24 -17 33 -1 5 9 15 16 23 16 9 0 12 6 9 15 -4 8 -10
13 -14 10 -5 -3 -12 0 -16 6 -4 7 -3 9 3 6 15 -10 26 23 13 38 -8 10 -7 16 6
23 13 7 -5 12 -69 17 -77 7 -91 5 -132 -15 -53 -26 -68 -22 -90 21 -23 43 -21
114 4 169 27 59 26 82 -4 118 -14 17 -25 41 -25 55 0 16 -10 34 -26 46 -49 39
-74 101 -74 186 0 66 2 75 18 75 10 0 23 5 29 11 7 7 38 12 70 12 l58 1 10
-39 c8 -36 20 -54 35 -55 3 0 14 14 24 31 17 29 17 32 1 63 -14 25 -16 44 -11
79 7 42 11 49 44 63 73 31 129 44 237 54 61 6 130 15 155 19 68 12 75 12 133
-3z m5347 -103 c-1 -62 -5 -94 -15 -107 -19 -25 -19 -97 -1 -158 8 -25 12 -49
9 -52 -3 -3 -12 -27 -18 -53 -11 -44 -11 -51 9 -78 18 -26 21 -44 21 -141 -1
-104 -2 -114 -28 -152 -18 -27 -27 -55 -27 -80 0 -28 -7 -47 -25 -66 -15 -16
-25 -39 -25 -56 0 -16 -4 -32 -10 -35 -14 -8 -13 89 1 140 11 38 10 40 -23 71
-31 28 -36 40 -48 116 -12 80 -11 117 7 261 l6 48 28 -27 c26 -25 29 -25 35
-9 4 11 -2 34 -16 60 -20 37 -22 50 -16 111 4 38 13 76 21 84 9 10 14 35 13
65 -2 33 5 66 19 98 19 41 26 47 52 47 l31 0 0 -87z m26418 -20 c6 -10 13 -42
17 -71 7 -50 6 -53 -26 -80 -54 -45 -139 -129 -139 -138 0 -5 -5 -27 -12 -49
l-12 -40 -7 53 c-4 34 -14 58 -25 67 -23 16 -122 35 -187 35 -44 0 -48 2 -78
47 -25 36 -33 58 -33 95 -1 75 10 81 161 86 71 2 130 6 132 8 2 2 48 4 102 4
83 0 100 -3 107 -17z m-25535 -41 c-2 -40 1 -44 32 -59 38 -18 46 -39 48 -128
1 -43 -3 -60 -19 -76 -17 -16 -25 -18 -48 -9 -30 11 -60 1 -69 -25 -4 -8 -24
-18 -46 -21 -23 -4 -45 -12 -51 -19 -5 -6 -13 -51 -16 -98 -4 -48 -9 -87 -13
-87 -3 0 -15 12 -27 27 -18 22 -24 25 -36 15 -11 -9 -18 -9 -31 1 -13 9 -17
32 -19 101 l-3 88 -50 19 c-64 24 -107 17 -139 -24 l-24 -30 -25 19 c-54 40
-75 150 -42 215 15 28 16 29 40 13 14 -9 25 -19 25 -23 0 -3 13 -23 30 -42 23
-29 35 -35 55 -32 22 5 25 10 25 49 0 57 19 67 111 61 76 -5 89 3 89 56 0 35
18 45 85 50 121 8 120 8 118 -41z m19119 -1272 c63 0 113 -21 130 -56 10 -22
24 -30 68 -40 30 -7 70 -13 88 -14 26 0 32 -4 32 -21 0 -13 8 -23 23 -27 49
-13 -42 -18 -261 -14 -197 4 -221 6 -202 19 20 14 25 38 14 67 -4 11 -19 16
-50 16 -43 0 -44 0 -44 34 0 31 4 35 43 48 35 12 47 12 76 1 18 -7 56 -13 83
-13z m-19025 -432 c-3 -57 -6 -104 -6 -105 -1 -2 -8 -3 -17 -3 -25 0 -14 -124
12 -150 11 -9 27 -27 36 -39 23 -27 32 -27 48 4 16 30 50 34 50 5 0 -11 1 -21
3 -21 1 -1 49 -4 107 -8 l105 -6 3 -29 c8 -68 1 -74 -95 -78 -67 -3 -94 0
-112 11 -15 10 -58 17 -117 19 -92 4 -94 5 -94 29 0 44 -17 63 -58 63 -70 0
-73 8 -62 145 14 167 13 164 61 171 26 4 46 15 55 29 8 13 26 26 40 29 13 4
24 13 24 21 0 8 5 15 11 15 7 0 9 -32 6 -102z m1061 16 c40 -10 52 -23 52 -57
0 -20 -11 -42 -36 -69 -30 -33 -35 -46 -33 -79 4 -45 -1 -50 -59 -72 -41 -16
-43 -16 -59 3 -10 11 -27 20 -39 20 -29 0 -33 7 -25 38 5 17 14 26 24 24 28
-5 40 36 34 119 l-6 77 40 -2 c22 -1 43 2 46 7 3 4 12 6 20 3 8 -4 27 -9 41
-12z m-768 -198 c0 -8 9 -18 20 -21 12 -4 29 -16 40 -27 15 -17 26 -19 67 -14
26 3 92 9 146 12 l98 6 -3 -33 -3 -34 -113 -13 c-109 -12 -114 -12 -147 8 -23
14 -58 22 -114 27 -46 3 -86 11 -91 19 -6 7 -14 28 -17 48 l-6 36 62 0 c46 0
61 -3 61 -14z m-774 -128 c50 1 77 -23 72 -64 -4 -37 -29 -52 -66 -38 -22 8
-33 8 -46 -2 -15 -10 -24 -10 -52 4 -30 14 -34 20 -34 54 0 31 5 41 23 48 12
5 31 6 42 3 11 -3 39 -6 61 -5z m-5456 -477 l29 -28 -26 -79 c-27 -83 -51
-119 -85 -127 -27 -7 -85 55 -99 106 -9 35 -7 42 25 92 40 59 46 63 94 64 24
1 42 -7 62 -28z m12680 -153 c0 -25 34 -48 70 -48 35 0 36 -1 36 -37 0 -21 3
-155 8 -298 7 -243 6 -264 -12 -317 -13 -39 -18 -73 -14 -107 3 -38 0 -58 -16
-83 -14 -24 -21 -58 -25 -125 -5 -83 -3 -97 17 -137 25 -50 27 -47 -41 -61
-35 -7 -32 -12 -49 80 -4 22 -8 78 -9 125 -1 47 -7 95 -13 107 -17 30 -15 76
4 116 13 28 15 49 8 118 -9 83 -9 84 -44 101 -28 14 -61 18 -166 18 -72 0
-134 3 -137 7 -4 3 2 16 13 28 14 15 20 36 21 82 2 51 6 66 25 84 15 14 24 34
24 54 0 35 16 56 35 48 25 -9 55 16 55 47 0 39 24 60 70 60 39 0 44 8 52 79 1
7 14 17 29 23 15 5 29 18 32 29 6 20 27 27 27 7z m-5490 -190 c0 -134 -11
-191 -25 -130 -8 37 -28 47 -49 23 -13 -14 -16 -42 -15 -152 2 -200 -25 -260
-95 -214 -35 23 -40 49 -32 169 3 55 9 156 13 224 4 94 9 122 20 122 7 0 18
-11 23 -25 16 -42 53 -33 90 22 18 26 36 57 41 70 20 53 29 20 29 -109z m-785
47 c66 -7 146 -10 177 -7 71 6 106 -8 137 -54 31 -45 31 -89 0 -143 l-23 -41
-26 25 c-30 29 -70 32 -110 8 -27 -15 -29 -15 -55 5 -29 23 -70 29 -80 12 -3
-5 -30 -10 -60 -10 l-53 0 -18 45 c-19 51 -40 61 -109 52 -38 -6 -43 -4 -49
15 -6 27 10 48 36 48 11 0 34 16 51 35 21 24 36 33 47 29 8 -4 69 -12 135 -19z
m-3654 -224 c23 -29 22 -43 -8 -152 -22 -78 -37 -99 -70 -99 -66 0 -106 53
-107 142 -1 46 2 52 49 97 44 42 55 48 83 43 19 -2 41 -15 53 -31z m3170 -24
c46 -38 45 -59 -4 -81 -46 -20 -137 -22 -149 -3 -19 30 -7 52 45 79 63 33 75
33 108 5z m8 -553 c34 -28 42 -77 16 -91 -8 -5 -19 -32 -25 -61 -13 -70 -35
-102 -70 -102 -58 0 -118 82 -104 143 24 114 115 169 183 111z m3635 -642 c63
-25 83 -98 47 -170 -10 -20 -21 -61 -24 -91 -7 -57 -14 -67 -81 -100 l-39 -20
-36 26 c-47 34 -77 69 -102 116 -27 52 -15 104 41 180 67 90 95 98 194 59z
m16004 -381 c24 -5 51 -16 60 -25 15 -14 14 -18 -5 -44 -21 -29 -21 -29 -3
-60 l19 -31 108 0 c59 0 124 -5 143 -11 19 -6 87 -11 150 -10 63 0 120 -3 126
-7 5 -5 16 -22 23 -40 13 -32 4 -68 -23 -85 -17 -12 -22 -10 -36 17 -7 13 -29
35 -49 49 -44 30 -129 37 -208 17 -49 -12 -53 -15 -53 -42 0 -34 0 -34 48 -13
20 8 51 16 68 16 37 0 94 -27 94 -45 0 -36 -84 -103 -115 -91 -9 4 -21 17 -26
30 -14 37 -31 29 -27 -13 3 -37 4 -38 43 -40 22 0 57 -4 78 -8 23 -5 60 -3 92
5 89 21 104 -7 62 -114 -39 -102 -27 -98 -405 -113 -228 -9 -338 -10 -363 -3
-54 15 -72 59 -65 158 2 42 4 95 3 117 -6 149 -2 193 21 217 18 20 22 36 22
85 0 64 8 78 50 86 42 7 123 7 168 -2z m-1471 -66 l43 -50 163 2 c89 2 285 6
434 9 299 7 327 4 341 -45 9 -33 8 -564 -1 -613 l-8 -36 -72 -5 c-40 -2 -97
-9 -127 -15 -131 -27 -248 -37 -435 -39 -110 -1 -258 -4 -330 -6 -369 -13
-740 -21 -1520 -36 -447 -9 -562 -9 -572 1 -9 10 -13 99 -15 366 -3 403 -10
374 87 387 41 5 65 15 95 40 32 27 52 35 98 40 31 3 73 10 93 15 20 6 46 10
58 10 23 0 85 -40 112 -73 23 -27 179 -39 369 -28 80 4 168 8 195 8 110 -1
583 14 620 19 27 5 57 21 90 49 64 54 66 55 159 52 l79 -2 44 -50z m-9866
-483 c13 -10 39 -24 57 -32 41 -16 72 -55 71 -89 -1 -15 -3 -19 -6 -9 -3 11
-18 17 -51 20 -26 3 -49 3 -52 0 -3 -2 -5 -33 -6 -68 -1 -80 -17 -111 -63
-125 -54 -16 -102 8 -135 67 -33 59 -33 89 0 149 21 36 39 53 83 75 68 34 72
35 102 12z"/>
<path d="M22546 21172 c-4 -12 -26 -34 -49 -50 -37 -25 -42 -32 -39 -62 3 -41
27 -70 58 -70 25 0 33 9 51 60 16 45 16 70 -1 111 -13 30 -14 31 -20 11z"/>
<path d="M13801 17955 c-2 -56 -21 -104 -42 -110 -40 -13 -50 -64 -50 -245 0
-140 3 -174 17 -202 l17 -33 8 25 c5 14 18 90 29 170 12 79 26 152 31 161 11
21 10 143 -1 214 -5 35 -8 41 -9 20z"/>
<path d="M14220 17965 c-27 -32 -40 -349 -17 -395 7 -14 19 -26 27 -28 29 -5
48 57 54 176 4 77 10 120 21 135 23 33 19 75 -11 102 -31 29 -56 32 -74 10z"/>
<path d="M14116 17962 c-3 -5 -19 -12 -36 -15 -35 -7 -50 -37 -50 -96 0 -37
23 -71 47 -71 6 0 22 -9 36 -20 l26 -21 6 28 c3 15 10 45 16 66 5 20 7 53 3
71 -6 36 -38 74 -48 58z"/>
<path d="M13618 17848 c-21 -38 -23 -312 -3 -442 22 -148 24 -158 34 -152 21
14 31 109 32 307 0 177 -3 220 -17 260 -20 55 -28 59 -46 27z"/>
<path d="M12724 17534 c-10 -40 5 -356 18 -371 16 -20 36 -15 54 12 12 19 17
53 19 128 2 83 7 111 26 150 l24 49 -33 29 c-44 40 -99 41 -108 3z"/>
<path d="M13366 10591 c-3 -5 -12 -37 -20 -71 -18 -76 -29 -89 -58 -71 -17 10
-22 10 -29 0 -14 -24 1 -29 85 -29 l83 0 7 56 c5 43 3 63 -9 80 -18 28 -52 48
-59 35z"/>
<path d="M11769 10353 c-7 -16 -15 -48 -16 -73 -16 -409 -14 -456 25 -502 22
-26 44 -5 31 28 -10 29 -11 137 -1 203 4 25 4 95 1 155 -3 61 -3 122 1 136 8
29 -1 72 -16 77 -6 2 -17 -9 -25 -24z"/>
<path d="M10837 8778 c-9 -18 -32 -44 -53 -58 -28 -19 -44 -40 -61 -85 -13
-32 -23 -70 -23 -83 0 -21 3 -22 33 -17 24 5 39 1 59 -14 39 -31 53 -27 54 17
2 53 18 79 56 87 47 11 140 53 136 62 -20 42 -49 74 -89 96 -64 37 -92 35
-112 -5z"/>
<path d="M11241 8776 c-4 -11 -5 -73 -2 -136 5 -93 9 -115 21 -115 15 0 31 74
32 148 1 21 6 27 22 27 24 0 46 17 46 35 0 6 -25 22 -56 36 l-56 26 -7 -21z"/>
<path d="M11790 8588 c0 -62 -6 -149 -13 -193 -15 -91 -8 -125 27 -125 39 0
50 17 56 77 5 54 7 58 30 58 21 0 27 -8 42 -55 9 -30 17 -65 17 -77 1 -23 19
-30 37 -14 9 9 51 14 112 12 39 -1 39 -19 2 -38 -24 -12 -56 -78 -42 -87 17
-10 103 -17 132 -11 17 4 46 20 65 36 28 25 32 34 26 57 -5 19 -2 37 12 59 16
28 18 43 12 94 -4 34 -8 106 -9 160 0 53 -5 101 -9 106 -5 4 -21 -6 -36 -24
l-27 -32 -44 35 c-25 19 -50 41 -55 48 -7 9 -51 16 -138 21 l-127 7 -1 -58
c-1 -33 -1 -86 0 -119 2 -73 -8 -94 -32 -67 -15 16 -15 27 -7 75 9 47 8 60 -5
81 -13 19 -14 29 -5 46 11 21 6 40 -11 40 -5 0 -9 -49 -9 -112z"/>
<path d="M12814 8596 c-9 -23 4 -66 20 -66 19 0 24 -34 25 -163 0 -120 11
-160 29 -108 6 18 22 35 36 41 25 9 31 32 39 154 1 22 8 42 17 47 8 5 63 11
123 15 82 4 107 9 107 20 0 11 -18 14 -79 14 -69 0 -81 3 -105 25 -22 21 -37
25 -85 25 -32 0 -72 3 -90 6 -23 5 -32 2 -37 -10z"/>
<path d="M13300 8540 c-9 -17 -6 -24 14 -43 21 -20 25 -33 30 -117 3 -52 8
-127 12 -167 6 -69 7 -72 37 -82 36 -13 38 -12 47 38 8 46 -2 326 -12 336 -4
4 -21 3 -37 -3 -28 -10 -31 -9 -37 11 -3 13 -14 28 -24 35 -16 10 -21 9 -30
-8z"/>
<path d="M11047 8494 c-27 -14 -27 -15 -11 -46 16 -30 13 -64 -11 -121 -7 -16
-2 -18 46 -15 l54 3 0 37 c0 20 3 39 7 43 7 7 -42 115 -52 115 -3 -1 -17 -8
-33 -16z"/>
<path d="M12606 8278 c-13 -40 -13 -69 -2 -122 14 -67 33 -81 94 -70 34 7 34
7 29 48 -15 108 -21 132 -36 143 -21 16 -81 16 -85 1z"/>
<path d="M21712 7253 c-14 -27 -22 -250 -12 -323 18 -137 31 -170 41 -110 35
209 41 385 15 425 -19 29 -32 32 -44 8z"/>
<path d="M33659 5280 c-27 -16 -11 -58 32 -86 52 -32 59 -67 57 -264 -2 -159
-1 -163 21 -181 13 -11 27 -19 31 -19 19 0 24 53 22 220 -2 96 1 189 6 205 6
21 20 36 46 48 40 19 60 54 44 75 -13 15 -234 17 -259 2z"/>
<path d="M33379 5263 c-19 -7 -42 -16 -51 -19 -45 -16 -73 -155 -44 -213 18
-34 69 -71 99 -71 31 0 77 -57 77 -95 0 -69 -70 -89 -120 -35 -23 25 -33 29
-59 24 -36 -8 -37 -9 -12 -66 23 -53 71 -81 141 -82 41 -1 54 4 79 28 17 17
31 34 31 39 0 5 9 20 20 34 54 69 -13 212 -107 227 -62 11 -85 38 -81 94 3 45
4 47 37 50 25 3 40 -3 61 -23 24 -23 31 -25 50 -15 19 10 21 18 16 48 -6 42
-23 61 -69 77 -26 9 -41 8 -68 -2z"/>
<path d="M31569 5239 c-27 -10 -49 -46 -49 -78 0 -10 11 -28 25 -41 l24 -23
31 27 c33 28 78 34 98 14 19 -19 14 -52 -13 -92 -14 -20 -29 -55 -34 -77 -5
-22 -16 -48 -25 -58 -9 -10 -22 -37 -29 -62 -8 -24 -26 -61 -40 -83 -25 -36
-26 -40 -11 -67 8 -16 21 -29 28 -29 23 0 74 67 87 112 7 24 31 84 54 133 23
50 46 101 50 114 4 14 18 45 31 69 26 49 32 113 12 130 -18 14 -208 23 -239
11z"/>
<path d="M32020 5243 c-32 -12 -91 -79 -101 -116 -12 -47 -3 -143 18 -175 18
-28 118 -76 152 -73 43 5 57 -56 19 -83 -30 -21 -71 -20 -117 3 -42 22 -61 14
-61 -24 0 -77 136 -124 217 -74 60 37 67 64 67 239 -1 185 -10 225 -64 274
-32 28 -48 36 -78 35 -20 0 -44 -3 -52 -6z m76 -112 c35 -21 48 -67 32 -113
-18 -52 -98 -44 -128 12 -15 28 -2 88 23 105 28 19 36 19 73 -4z"/>
<path d="M32319 5233 c-10 -12 -14 -50 -14 -140 0 -119 1 -126 24 -144 27 -22
68 -24 94 -4 23 17 72 2 87 -25 12 -23 13 -90 1 -109 -6 -9 -35 -16 -78 -20
-67 -6 -68 -6 -71 -37 -3 -28 1 -33 29 -43 18 -6 51 -11 75 -11 85 0 143 88
129 195 -6 49 -13 63 -50 101 -36 36 -50 44 -80 44 -25 0 -43 8 -60 25 -32 31
-31 50 4 85 25 26 33 28 60 20 26 -7 36 -5 52 11 10 10 19 25 19 32 0 29 -25
37 -116 37 -73 0 -94 -3 -105 -17z"/>
<path d="M32973 5228 c-29 -7 -45 -18 -49 -32 -4 -11 -21 -34 -38 -49 l-30
-29 3 -147 c2 -128 5 -151 24 -185 33 -59 69 -81 128 -79 103 3 162 75 157
192 -3 61 -5 66 -34 83 -36 21 -56 17 -74 -17 -10 -19 -10 -27 4 -46 21 -31
20 -78 -3 -108 -14 -19 -23 -22 -48 -17 -60 14 -73 47 -78 207 -3 108 9 173
35 189 21 13 80 -7 101 -34 17 -21 24 -24 35 -15 17 14 18 50 2 72 -17 21 -81
28 -135 15z"/>
<path d="M31215 5223 c-58 -6 -87 -37 -83 -88 3 -37 6 -40 33 -42 24 -2 34 3
51 30 16 26 26 31 50 29 43 -4 65 -34 54 -74 -5 -17 -16 -38 -25 -48 -8 -9
-18 -32 -21 -51 -4 -19 -14 -43 -24 -54 -27 -32 -100 -191 -100 -218 0 -25 23
-57 41 -57 14 0 67 89 85 145 9 28 22 57 29 65 16 20 85 174 85 191 1 8 9 32
20 54 25 51 25 80 0 105 -20 20 -80 24 -195 13z"/>
<path d="M33085 21884 c-5 -2 -36 -10 -67 -19 -47 -13 -58 -21 -67 -45 -8 -25
-7 -31 7 -39 40 -21 130 -41 187 -41 71 0 95 17 95 68 0 35 -22 52 -65 52 -14
0 -38 6 -53 14 -15 7 -31 12 -37 10z"/>
<path d="M20085 21706 c-13 -14 -37 -26 -52 -27 -15 -2 -34 -7 -40 -12 -8 -6
-13 -5 -13 2 0 6 -7 11 -16 11 -8 0 -12 -4 -9 -10 3 -5 0 -7 -8 -4 -9 3 -22
-4 -31 -17 -12 -17 -25 -23 -53 -22 -30 1 -44 -5 -67 -30 -28 -30 -28 -30 -13
-4 22 34 4 35 -29 2 -20 -20 -36 -26 -72 -27 -35 0 -53 -6 -71 -24 -23 -24
-43 -29 -89 -25 -13 1 -22 -2 -20 -6 2 -4 -6 -18 -19 -30 -25 -25 -32 -14 -7
11 10 11 11 16 3 16 -6 0 -22 -11 -35 -25 -17 -19 -34 -25 -66 -26 -51 -2 -78
-14 -78 -34 0 -14 -19 -19 -65 -16 -11 1 -26 -3 -33 -7 -17 -11 -4 -45 15 -38
8 4 11 1 7 -5 -4 -7 -24 -8 -55 -4 -27 4 -49 3 -49 -2 0 -5 -17 -9 -37 -8 -30
0 -40 -5 -48 -22 -7 -16 -18 -23 -37 -23 -15 0 -30 -5 -34 -11 -4 -8 -9 -7
-15 2 -10 16 -56 -3 -77 -32 -11 -15 -21 -18 -53 -13 -28 5 -39 3 -39 -6 0 -7
-7 -10 -16 -6 -9 3 -25 -4 -40 -19 -20 -20 -35 -25 -87 -26 -81 -1 -97 -6 -97
-30 0 -19 -13 -24 -62 -20 -31 2 -83 -22 -95 -44 -6 -10 -26 -16 -58 -17 -37
-1 -56 -8 -74 -25 -13 -13 -26 -23 -30 -24 -97 -7 -111 -13 -124 -52 -1 -5
-23 -10 -47 -11 -36 -1 -47 -5 -55 -23 -7 -17 -18 -23 -42 -23 -18 0 -33 -5
-33 -11 0 -5 -4 -8 -8 -5 -5 3 -9 -1 -9 -9 0 -10 5 -11 17 -5 10 5 20 7 22 4
11 -10 58 20 58 37 0 22 18 35 32 21 6 -6 6 -12 -3 -17 -8 -6 -10 -4 -4 5 5 8
4 11 -3 6 -16 -9 -3 -36 14 -29 8 3 14 9 14 13 0 5 8 7 18 5 9 -1 26 3 37 10
11 7 41 16 65 20 25 4 54 12 65 18 11 6 81 32 155 58 74 25 178 64 230 86 52
22 120 46 150 53 30 7 61 17 68 23 6 5 12 6 12 2 0 -4 6 -3 13 3 7 6 38 18 68
26 62 17 162 58 167 68 2 4 10 4 18 1 8 -3 14 -1 14 5 0 5 60 29 133 53 72 23
148 51 167 61 19 10 42 18 51 18 9 0 36 11 61 24 25 13 65 27 89 31 24 4 59
15 76 26 18 10 52 23 75 29 54 15 212 77 255 101 18 10 35 19 38 19 3 0 10 0
16 0 5 0 7 5 4 11 -4 5 3 19 16 30 12 10 17 19 10 19 -7 0 -23 -11 -36 -24z"/>
<path d="M34346 21369 c-29 -183 -29 -235 -1 -277 1 -1 15 4 31 13 16 8 52 15
80 15 59 0 74 12 74 57 0 18 5 33 10 33 14 0 12 104 -2 118 -15 15 -50 16 -65
1 -6 -6 -26 -9 -44 -7 -27 2 -37 10 -51 36 -23 47 -26 48 -32 11z"/>
<path d="M38018 21310 c-15 -9 -18 -26 -18 -98 0 -55 4 -92 12 -100 8 -8 46
-12 104 -12 75 0 93 3 98 16 8 22 7 137 -2 150 -9 14 -97 45 -142 50 -19 2
-43 0 -52 -6z"/>
<path d="M35577 20993 c-4 -3 -7 -23 -7 -43 0 -24 -7 -43 -20 -55 -17 -16 -20
-31 -20 -108 0 -83 2 -91 25 -113 18 -16 25 -33 25 -59 l0 -36 43 3 c36 3 42
6 45 28 8 70 7 70 75 70 36 0 68 5 75 12 17 17 16 172 -1 186 -7 6 -40 12 -72
14 l-60 3 -3 40 c-2 22 -8 45 -14 52 -11 14 -80 18 -91 6z"/>
<path d="M34760 20670 c-17 -17 -20 -33 -20 -101 0 -78 1 -81 33 -110 31 -28
32 -33 36 -114 1 -47 8 -88 15 -94 6 -5 38 -6 71 -3 l60 7 3 94 c3 102 -1 111
-49 111 -34 0 -39 14 -39 114 0 68 -3 86 -18 99 -25 23 -68 21 -92 -3z"/>
<path d="M31073 20644 c-9 -23 -9 -194 -1 -225 4 -14 19 -31 34 -38 31 -14 28
-15 41 24 8 24 4 39 -20 88 -25 50 -28 64 -20 95 5 20 7 45 5 55 -4 21 -31 22
-39 1z"/>
<path d="M34429 20248 c-22 -30 -22 -34 -12 -150 13 -149 29 -172 87 -127 25
20 26 22 11 45 -10 16 -15 48 -15 104 0 61 -5 90 -20 120 -11 22 -22 40 -25
40 -2 0 -14 -14 -26 -32z"/>
<path d="M14292 19594 c-14 -10 -21 -22 -18 -31 5 -11 2 -13 -11 -9 -9 4 -20
1 -25 -6 -6 -10 -8 -10 -8 2 0 10 -6 7 -19 -9 -10 -13 -30 -25 -45 -27 -30 -3
-34 10 -8 25 14 9 14 10 1 11 -8 0 -26 -10 -39 -22 -18 -17 -35 -22 -67 -21
-34 1 -41 -1 -36 -14 5 -13 3 -13 -15 -4 -26 14 -72 -2 -72 -24 0 -10 -11 -15
-37 -16 -21 -1 -42 -1 -46 0 -4 1 -18 -10 -31 -24 -26 -28 -58 -37 -36 -10 7
8 19 15 26 15 8 0 14 5 14 11 0 11 -43 2 -48 -10 -11 -25 -25 -31 -87 -35 -51
-3 -72 -9 -82 -22 -10 -14 -10 -19 0 -26 7 -5 2 -8 -15 -8 -15 0 -29 -3 -31
-7 -3 -5 15 -6 39 -4 32 2 44 7 45 20 0 11 2 12 6 3 4 -10 8 -10 20 0 8 6 22
13 31 15 10 1 53 12 97 24 44 12 126 31 181 43 56 12 108 27 116 34 8 6 37 16
64 21 81 16 85 18 159 104 19 21 7 22 -23 1z"/>
<path d="M14855 19438 c-16 -6 -55 -30 -87 -54 l-58 -42 29 -7 c37 -8 97 3
111 20 6 7 40 21 76 31 70 19 72 28 7 51 -44 15 -39 15 -78 1z"/>
<path d="M35513 18053 c-3 -9 -2 -42 3 -73 6 -38 6 -63 -1 -74 -15 -24 6 -50
44 -54 44 -5 64 14 57 52 -4 17 -1 54 5 83 15 67 4 83 -58 83 -31 0 -45 -5
-50 -17z"/>
<path d="M27710 17077 c0 -59 -4 -77 -18 -90 -10 -10 -24 -17 -30 -17 -14 0
-60 50 -76 82 -9 18 -22 24 -54 26 -32 2 -42 0 -42 -12 0 -8 9 -18 20 -21 11
-3 25 -15 30 -26 6 -10 17 -19 26 -19 8 0 20 -12 27 -27 6 -16 20 -34 30 -42
28 -20 15 -88 -21 -118 -22 -18 -25 -25 -16 -40 6 -10 29 -21 50 -25 21 -3 52
-11 67 -17 34 -13 84 -14 91 -2 3 5 -7 14 -24 19 -19 7 -31 19 -35 36 -3 14
-8 38 -11 54 -3 15 -5 91 -5 170 1 78 -1 142 -4 142 -3 0 -5 -33 -5 -73z"/>
<path d="M28782 17095 c-6 -14 -17 -25 -23 -25 -7 0 -9 -10 -4 -27 4 -17 0
-38 -11 -58 -12 -23 -15 -42 -10 -70 l7 -38 19 30 c24 40 35 46 60 33 24 -13
45 -52 54 -102 16 -86 95 -93 121 -10 5 18 -1 29 -26 53 -18 17 -45 33 -61 36
-19 4 -30 13 -34 29 -3 12 -14 30 -25 40 -10 9 -24 43 -31 75 -7 33 -15 59
-18 59 -4 0 -12 -11 -18 -25z"/>
<path d="M28228 17055 c-18 -21 -28 -44 -28 -64 0 -49 -21 -121 -35 -121 -7 0
-34 -20 -60 -45 -53 -49 -47 -63 21 -50 30 5 39 13 52 46 18 48 31 46 47 -7
21 -71 32 -84 73 -84 37 0 37 1 16 18 -31 25 -38 62 -39 199 0 68 -4 126 -10
131 -6 6 -20 -3 -37 -23z"/>
<path d="M27941 17067 c-40 -21 -84 -112 -84 -176 0 -46 4 -57 24 -73 13 -10
31 -25 40 -33 40 -39 77 70 45 133 -9 18 -22 32 -28 32 -7 0 -2 7 10 16 12 8
22 23 22 33 0 10 10 25 22 33 14 9 19 20 15 31 -8 20 -33 22 -66 4z"/>
<path d="M28468 16988 c-2 -25 -8 -34 -24 -36 -24 -3 -34 -27 -34 -82 0 -41 7
-53 38 -69 l24 -13 -23 -24 c-26 -28 -22 -34 43 -58 39 -14 54 -16 82 -6 73
24 66 50 -19 71 -49 13 -81 29 -57 29 16 0 52 78 52 113 0 20 -10 37 -30 55
-16 15 -30 32 -30 39 0 28 -19 11 -22 -19z"/>
<path d="M27221 16940 c-1 -32 -12 -64 -39 -110 -38 -64 -39 -65 -83 -66 -55
-1 -65 -25 -18 -44 24 -10 38 -11 63 -2 18 7 71 12 119 12 98 0 142 16 176 66
25 36 29 112 7 120 -27 10 -56 -15 -56 -49 0 -50 -11 -59 -65 -55 -61 4 -84
32 -95 115 -7 57 -7 57 -9 13z"/>
<path d="M28685 16829 c-4 -17 -16 -46 -27 -64 l-19 -33 23 -16 c15 -10 44
-16 85 -16 34 0 65 -4 68 -10 3 -5 27 -10 53 -10 l47 1 -37 19 c-43 23 -93 70
-132 123 -33 45 -52 47 -61 6z"/>
<path d="M28484 15461 c-18 -10 -35 -24 -38 -30 -10 -15 -66 -14 -98 3 -65 34
-140 27 -153 -15 -4 -11 -19 -26 -35 -34 -15 -8 -37 -26 -48 -40 -11 -14 -29
-25 -41 -25 -28 0 -61 -34 -61 -62 0 -13 -9 -41 -19 -63 -31 -70 -34 -93 -11
-100 36 -11 42 -39 23 -105 -14 -52 -20 -60 -37 -58 -15 2 -22 12 -26 37 -4
28 -11 36 -34 42 -45 12 -57 -4 -55 -73 3 -70 -12 -91 -68 -94 -21 -2 -46 -4
-56 -6 -14 -2 -23 8 -36 42 -11 32 -26 50 -48 61 -17 9 -43 23 -56 32 -13 8
-41 19 -61 22 -20 4 -39 11 -42 16 -8 13 -68 11 -82 -3 -9 -9 9 -30 74 -92 80
-74 85 -81 68 -93 -24 -18 -68 -10 -115 22 -50 32 -98 40 -141 22 -47 -20 -88
-74 -88 -118 -1 -19 -6 -44 -13 -57 l-13 -22 -28 29 c-24 25 -34 29 -60 24
-44 -8 -103 -43 -122 -70 -23 -36 -54 -44 -83 -22 -38 30 -87 24 -148 -18 -47
-32 -53 -40 -53 -71 0 -30 2 -33 15 -22 15 12 89 9 102 -4 12 -12 -17 -55 -46
-71 -17 -8 -35 -24 -41 -35 -12 -22 -49 -27 -68 -8 -15 15 -19 11 -26 -37 -11
-67 -25 -100 -48 -110 -25 -11 -26 -22 -5 -79 14 -37 13 -42 -4 -66 -18 -24
-40 -126 -42 -201 -1 -19 7 -52 17 -74 16 -32 18 -61 17 -186 -1 -82 3 -177
10 -213 l11 -65 26 24 c50 47 61 32 72 -95 9 -106 32 -159 81 -182 20 -9 46
-32 58 -51 11 -18 31 -38 44 -44 14 -7 28 -26 35 -49 10 -32 23 -45 70 -72
112 -64 145 -95 180 -166 l34 -68 26 25 c41 37 71 40 108 12 18 -14 36 -35 40
-47 11 -39 35 -58 71 -58 33 0 35 -2 84 -106 62 -127 72 -135 159 -111 33 10
68 17 78 17 23 0 51 30 87 94 21 36 40 54 72 68 28 12 48 29 55 46 6 15 13 82
16 150 4 112 3 126 -15 150 -11 15 -28 43 -38 62 -10 19 -39 57 -64 83 -25 26
-51 57 -56 68 -6 10 -26 30 -45 43 l-35 24 -48 -19 c-70 -28 -118 -25 -148 9
-57 63 -66 84 -52 122 6 19 12 44 13 55 0 11 34 55 76 99 53 55 81 94 95 131
10 28 30 62 44 75 32 30 32 45 -4 66 -40 23 -43 54 -20 153 28 118 90 232 164
305 125 124 175 152 291 166 71 8 82 7 106 -10 15 -11 41 -20 58 -20 35 0 62
-12 102 -46 15 -12 40 -25 55 -29 16 -3 43 -25 61 -47 29 -37 32 -46 32 -112
0 -63 3 -75 23 -94 15 -14 36 -22 58 -22 l34 0 -32 -20 c-18 -11 -33 -24 -33
-29 0 -17 -59 -99 -91 -125 -17 -14 -43 -26 -58 -26 -40 0 -116 53 -157 110
-20 27 -37 50 -37 51 -1 0 -65 8 -142 18 -93 12 -123 19 -90 20 94 2 230 22
251 36 30 19 36 70 12 101 -43 53 -82 58 -194 21 -97 -32 -166 -79 -224 -154
-42 -56 -48 -68 -39 -89 6 -17 5 -32 -3 -47 -35 -66 -28 -109 29 -185 l25 -34
19 42 c11 23 19 53 19 66 0 38 26 91 48 98 11 4 23 13 26 21 20 54 175 56 244
4 83 -64 100 -89 113 -164 7 -38 12 -92 12 -120 -1 -27 1 -54 4 -59 9 -15 23
18 23 56 0 44 37 93 76 101 23 4 28 -1 45 -37 10 -22 19 -50 19 -61 1 -19 28
-67 92 -163 23 -35 37 -44 105 -66 43 -14 93 -35 110 -46 l33 -20 -25 -36
c-14 -20 -25 -42 -25 -49 0 -6 -9 -20 -20 -30 -11 -10 -20 -26 -20 -36 0 -11
-9 -24 -21 -31 -11 -7 -36 -44 -55 -83 -20 -38 -45 -79 -57 -91 -37 -38 -48
-48 -71 -70 -13 -11 -25 -26 -28 -34 -3 -10 -8 -11 -27 -1 -28 15 -88 6 -113
-16 -30 -27 -18 -163 13 -163 5 0 20 -18 34 -40 23 -37 26 -38 54 -29 24 9 36
7 61 -8 l32 -18 24 29 c16 18 23 34 18 45 -28 68 -29 71 -12 87 14 15 18 15
41 -1 47 -31 141 5 173 67 9 18 25 39 35 46 11 7 19 24 19 37 0 13 3 30 6 39
10 27 24 7 24 -35 0 -63 13 -79 65 -79 44 0 75 18 75 45 0 8 9 19 20 25 11 6
24 29 30 53 15 58 68 166 99 202 l26 30 26 -29 c22 -25 28 -27 47 -17 12 6 25
24 28 39 4 15 25 65 47 112 35 76 39 90 34 140 -3 30 -2 73 3 95 4 22 13 66
19 97 11 55 49 137 77 169 10 11 14 42 14 101 0 85 0 86 40 134 22 27 40 52
40 56 0 20 -21 58 -33 58 -18 0 -39 47 -32 71 3 10 -1 43 -10 73 -11 38 -16
86 -14 148 3 93 2 93 -34 145 -42 60 -42 61 -22 83 14 16 11 24 -31 95 -43 74
-45 82 -39 130 11 94 -54 194 -192 292 -51 36 -65 52 -74 85 -10 39 -21 52
-128 145 l-33 29 -59 -15 -60 -16 -34 38 c-24 26 -42 37 -62 37 -16 0 -50 12
-77 26 -67 36 -150 42 -192 15z m333 -1796 c4 -16 6 -51 4 -77 -2 -36 2 -51
19 -68 14 -14 20 -31 18 -48 -3 -27 -4 -27 -84 -30 l-82 -3 -31 40 c-17 21
-31 47 -31 58 0 21 26 62 52 81 9 7 20 29 24 50 4 20 13 45 21 54 14 16 17 15
49 -5 20 -13 36 -34 41 -52z m-1114 -544 c32 -13 44 -60 59 -243 11 -133 10
-154 -7 -230 -20 -89 -31 -118 -45 -118 -18 0 -24 50 -25 235 -2 138 -7 206
-18 250 -29 108 -22 128 36 106z"/>
<path d="M37750 15006 c-5 -5 -4 -20 2 -35 6 -16 10 -133 10 -306 -1 -154 3
-286 7 -294 18 -28 32 28 30 115 -1 71 1 88 18 107 10 12 24 34 30 48 10 23 9
30 -10 46 -12 11 -30 23 -39 26 -22 8 -23 25 -2 76 14 36 14 42 0 70 -13 24
-14 35 -5 49 17 28 67 52 105 52 44 0 104 29 83 40 -20 11 -218 17 -229 6z"/>
<path d="M38163 15010 c-25 -10 -33 -39 -35 -145 -2 -55 2 -88 12 -105 14 -24
15 -20 20 63 6 99 11 107 76 107 48 0 63 -13 71 -64 3 -20 9 -33 14 -30 12 7
11 106 0 137 -15 39 -102 60 -158 37z"/>
<path d="M38180 14696 c0 -21 9 -46 23 -63 12 -15 29 -46 36 -68 7 -22 21 -49
31 -60 10 -11 21 -33 24 -49 4 -17 21 -47 38 -68 32 -41 32 -68 -1 -68 -11 0
-32 -16 -46 -35 l-27 -34 -48 24 c-37 19 -49 31 -55 57 l-9 33 -3 -36 c-5 -47
11 -87 39 -98 13 -4 49 -11 81 -14 l58 -6 23 37 c32 51 40 149 16 194 -9 18
-20 43 -24 55 -8 25 -67 126 -89 152 -8 9 -19 31 -27 49 -17 43 -40 42 -40 -2z"/>
<path d="M34323 14017 c-35 -18 -43 -40 -43 -117 0 -42 3 -79 6 -83 3 -3 18 8
32 24 25 30 25 30 44 11 13 -13 23 -43 29 -88 5 -38 15 -94 24 -124 17 -64 20
-153 5 -181 -8 -13 -21 -19 -46 -19 -29 0 -44 8 -80 45 -48 50 -64 56 -64 23
0 -28 -36 -216 -46 -243 -6 -15 -4 -17 10 -12 10 4 24 7 31 7 8 0 23 26 35 57
12 32 26 63 32 70 16 19 93 16 114 -4 19 -20 44 -75 44 -99 0 -9 13 -31 29
-49 28 -32 29 -33 35 -12 3 12 6 55 6 95 0 58 -4 76 -20 92 -10 10 -19 32 -19
47 0 15 -4 83 -9 151 -7 94 -12 125 -25 135 -22 16 -36 86 -37 177 0 41 -4 80
-8 86 -10 16 -57 22 -79 11z"/>
<path d="M33781 14006 c-7 -8 -13 -23 -13 -33 -2 -24 21 -94 37 -113 7 -8 17
-37 21 -65 4 -27 15 -75 25 -105 24 -71 23 -89 -2 -165 -29 -83 -12 -163 18
-85 31 83 91 24 122 -120 14 -66 24 -79 56 -72 18 3 24 9 21 21 -3 9 -13 48
-22 86 -9 39 -23 80 -31 93 -33 54 -46 201 -28 340 8 61 -3 67 -48 25 -31 -31
-26 -34 -72 45 -14 23 -25 56 -25 73 0 30 -27 89 -41 89 -4 0 -12 -6 -18 -14z"/>
<path d="M34909 13994 c-20 -21 -25 -40 -31 -112 -3 -48 -7 -129 -7 -179 -1
-79 -4 -96 -21 -113 -17 -17 -22 -41 -30 -166 -5 -80 -12 -149 -15 -154 -2 -4
4 -15 14 -24 17 -16 19 -15 25 6 3 13 6 44 6 69 0 26 6 51 13 57 20 16 130 31
145 20 7 -6 31 -47 54 -91 34 -64 43 -76 49 -61 14 34 9 86 -10 128 -14 29
-22 83 -30 191 -6 83 -14 160 -17 172 -13 49 -22 7 -29 -134 -4 -82 -12 -154
-17 -160 -15 -19 -62 -16 -87 5 -12 9 -25 33 -30 52 -7 35 20 317 34 353 10
25 27 17 50 -26 11 -20 23 -37 27 -37 10 0 20 99 15 135 -3 17 -6 36 -6 43 -1
7 -14 18 -31 23 -16 6 -30 15 -30 20 0 16 -16 10 -41 -17z"/>
<path d="M35250 13980 c-10 -25 -10 -66 1 -223 7 -106 12 -205 11 -222 -6 -65
-6 -285 0 -290 3 -3 12 -3 19 0 12 4 14 28 14 113 -1 59 -5 128 -10 154 -7 46
-7 48 19 58 15 5 49 10 75 10 31 0 53 5 61 15 7 8 20 15 29 15 23 0 61 79 50
105 -4 11 -8 63 -9 115 -3 136 -6 143 -65 153 -28 4 -70 9 -95 11 -25 2 -54 7
-66 11 -17 5 -23 1 -34 -25z m166 -38 c32 -20 54 -88 54 -162 0 -41 -3 -85 -6
-97 -12 -46 -148 -59 -169 -17 -13 26 2 252 17 272 11 13 86 16 104 4z"/>
<path d="M35745 13990 c-99 -17 -96 -16 -93 -63 3 -38 6 -42 31 -45 19 -2 27
1 27 12 0 9 9 25 19 35 16 16 26 18 58 11 45 -11 73 -41 73 -81 0 -32 12 -43
40 -34 36 11 20 118 -23 153 -19 16 -77 21 -132 12z"/>
<path d="M36180 13976 l-45 -12 45 -8 c67 -11 103 -36 112 -77 4 -19 8 -126 8
-239 1 -187 -1 -238 -15 -352 -4 -32 -2 -38 13 -38 11 0 25 15 37 38 16 31 19
66 23 226 3 181 3 189 -17 203 -18 12 -21 25 -21 87 0 40 -3 93 -6 118 -5 39
-10 46 -38 56 -38 14 -37 14 -96 -2z"/>
<path d="M37810 13980 c-18 -5 -42 -20 -53 -34 -10 -14 -25 -26 -33 -26 -16 0
-17 -11 -16 -290 1 -305 1 -305 32 -369 36 -74 65 -88 142 -71 47 11 56 17 81
57 l28 45 1 252 c1 178 -2 257 -10 273 -7 12 -12 39 -12 60 -1 44 -31 86 -73
102 -32 12 -38 12 -87 1z m52 -71 c54 -39 60 -69 66 -341 5 -228 3 -252 -14
-291 -25 -56 -33 -60 -67 -31 -16 13 -32 24 -37 24 -9 0 -26 40 -36 85 -4 16
-14 36 -21 44 -12 11 -11 16 3 32 12 14 15 27 9 56 -4 21 -7 73 -6 116 1 43
-3 94 -8 113 -8 28 -5 50 14 111 35 110 45 118 97 82z"/>
<path d="M36505 13935 c-5 -29 0 -419 4 -442 1 -2 5 -3 11 -3 5 0 12 17 15 38
4 20 12 51 18 69 8 24 8 38 0 55 -7 13 -14 32 -18 44 -8 31 12 233 25 249 20
24 71 7 118 -41 l42 -44 0 -84 c0 -87 13 -121 24 -65 3 18 6 70 6 116 0 83 -1
86 -32 116 -32 31 -36 32 -120 32 l-88 0 -5 -40z"/>
<path d="M37413 13970 c-13 -5 -23 -14 -23 -19 0 -6 -15 -14 -32 -19 l-33 -8
0 -112 c0 -62 2 -226 3 -364 2 -225 4 -249 17 -221 10 24 11 48 4 100 -10 80
-12 175 -3 197 3 9 14 16 24 16 9 0 25 9 35 20 10 11 22 20 27 20 6 0 30 -20
54 -45 l44 -46 0 -114 c0 -126 12 -170 40 -155 15 8 17 22 15 97 -1 48 -8 115
-14 148 -6 33 -12 78 -14 100 -2 33 -7 42 -30 53 -26 13 -31 12 -51 -7 -29
-27 -44 -26 -82 7 -40 35 -44 50 -45 163 -1 85 1 95 21 111 31 25 67 22 114
-9 23 -15 43 -28 45 -30 2 -1 3 -33 2 -72 0 -38 3 -80 8 -93 8 -22 9 -21 26
17 14 34 15 48 5 91 -6 28 -10 68 -8 89 1 26 -3 40 -14 46 -10 5 -23 16 -31
23 -19 19 -76 28 -104 16z"/>
<path d="M38355 13963 c-4 -10 -6 -82 -6 -160 1 -110 -3 -152 -15 -183 -13
-33 -19 -38 -30 -29 -8 6 -14 18 -14 26 0 8 -12 39 -26 69 -16 33 -31 92 -39
151 -11 78 -18 101 -35 115 -30 24 -45 23 -69 -8 -23 -29 -27 -79 -11 -134 6
-20 10 -144 10 -295 0 -247 7 -325 30 -325 21 0 27 64 19 210 -8 161 -6 186
19 234 l14 30 14 -25 c7 -13 13 -30 14 -38 0 -8 10 -28 23 -45 18 -23 26 -56
36 -131 14 -110 31 -176 55 -224 19 -36 26 -38 56 -13 17 14 22 27 20 58 -5
91 -2 312 5 347 6 32 3 44 -15 69 -21 28 -21 35 -11 86 16 80 13 141 -9 190
-21 47 -25 50 -35 25z"/>
<path d="M36071 13820 c-9 -83 -10 -175 -4 -330 9 -212 9 -215 34 -241 15 -14
28 -30 30 -37 10 -29 129 -30 129 -1 0 5 -15 16 -32 24 -18 7 -52 27 -74 43
l-42 31 -4 288 c-5 330 -18 405 -37 223z"/>
<path d="M35644 13804 c-3 -19 -3 -49 1 -67 4 -17 6 -48 6 -67 -4 -234 0 -354
14 -380 8 -16 15 -43 15 -60 0 -19 5 -30 14 -30 16 0 26 82 26 221 0 143 14
168 86 155 24 -5 38 -14 44 -31 5 -13 19 -34 31 -46 20 -20 21 -29 17 -132 -5
-110 5 -171 27 -164 6 3 9 60 6 163 l-3 159 -29 23 c-23 18 -29 32 -29 60 0
43 7 55 37 70 31 17 20 54 -16 50 -21 -2 -28 -10 -35 -41 -7 -29 -16 -39 -35
-43 -14 -3 -34 -10 -44 -15 -34 -19 -67 43 -67 124 0 59 -6 71 -37 79 -19 5
-23 1 -29 -28z"/>
<path d="M28018 13794 c-57 -35 -67 -47 -49 -58 4 -3 21 -30 36 -61 24 -47 32
-55 56 -55 34 0 54 19 69 65 6 19 15 35 19 35 4 0 15 6 25 13 15 11 16 15 2
48 -26 61 -74 65 -158 13z"/>
<path d="M36728 13420 c-2 -103 -6 -133 -18 -140 -20 -13 -116 -13 -140 0 -24
13 -40 62 -40 121 0 26 -4 50 -9 53 -11 7 -22 -154 -14 -210 l6 -44 83 0 c74
0 86 3 107 24 13 12 29 25 37 28 22 7 28 269 7 286 -14 12 -16 -2 -19 -118z"/>
<path d="M33252 12883 c-33 -6 -23 -23 34 -53 49 -26 49 -27 63 -98 13 -63 18
-72 37 -72 22 0 34 30 34 86 0 32 -44 101 -69 109 -10 3 -22 12 -25 20 -5 15
-27 17 -74 8z"/>
<path d="M33650 12880 c-23 -14 -1 -42 45 -58 93 -31 98 -50 96 -355 -3 -302
-8 -323 -84 -350 -13 -4 11 -57 25 -57 7 1 27 13 45 28 53 46 65 114 60 350
-3 108 -8 214 -12 234 -6 30 -3 43 14 64 21 27 21 28 2 48 -10 12 -22 31 -26
44 -3 12 -10 22 -14 22 -4 0 -18 9 -31 20 -25 22 -93 27 -120 10z"/>
<path d="M34739 12871 c-13 -10 -34 -21 -47 -25 -15 -5 -32 -28 -51 -71 l-29
-64 -1 -239 c-2 -225 0 -242 19 -274 11 -18 20 -43 20 -55 0 -12 14 -37 32
-55 30 -31 35 -32 92 -30 54 3 65 7 95 38 l34 34 7 122 c11 214 1 535 -18 564
-4 6 -21 18 -38 27 -17 9 -36 23 -43 31 -18 21 -43 20 -72 -3z m85 -81 c25
-27 36 -50 37 -73 9 -232 11 -513 4 -529 -3 -9 -24 -29 -46 -44 -39 -27 -40
-27 -75 -11 -63 30 -66 53 -62 369 3 207 7 281 16 290 11 11 64 35 83 37 4 1
23 -17 43 -39z"/>
<path d="M33576 12841 c-16 -26 -31 -131 -25 -176 4 -27 5 -140 2 -250 -5
-171 -4 -208 11 -251 13 -40 22 -52 47 -61 23 -9 37 -9 52 -1 19 10 19 11 -11
23 -24 11 -32 22 -38 52 -13 66 -10 595 4 625 10 24 9 29 -8 38 -23 12 -27 12
-34 1z"/>
<path d="M34171 12836 c-9 -11 -9 -33 2 -94 8 -44 11 -86 7 -94 -14 -24 -22
-520 -10 -553 l11 -30 19 25 c10 13 16 29 12 34 -3 5 -5 66 -4 135 2 69 -2
140 -7 157 -5 19 -5 66 2 123 11 105 26 123 61 78 12 -15 26 -27 30 -27 13 0
0 118 -14 135 -7 9 -17 36 -21 62 -5 26 -15 50 -22 55 -19 12 -53 9 -66 -6z"/>
<path d="M34446 12839 c-2 -8 -7 -117 -10 -243 -4 -185 -8 -232 -20 -244 -13
-14 -17 -13 -35 9 -11 13 -21 40 -21 59 -1 19 -5 44 -9 54 -8 20 -8 20 -12 0
-3 -10 -3 -54 -1 -96 3 -57 8 -78 18 -78 25 0 47 -47 41 -88 -12 -68 44 -191
68 -152 13 21 17 159 7 206 -8 35 -9 124 -3 304 7 207 6 258 -5 269 -11 13
-14 13 -18 0z"/>
<path d="M35180 12840 l-85 -5 -3 -34 c-2 -22 -9 -35 -22 -38 -34 -9 -38 -114
-6 -126 8 -3 15 -28 18 -61 4 -53 8 -59 61 -108 32 -29 57 -58 57 -64 0 -6 16
-28 36 -48 l37 -38 -6 -89 c-3 -49 -8 -93 -12 -99 -3 -5 -28 -10 -55 -10 -52
0 -73 17 -113 90 -33 60 -61 12 -36 -63 17 -51 69 -87 126 -87 36 0 43 3 43
19 0 11 9 23 21 26 28 9 85 66 94 94 3 12 4 39 0 61 -5 30 -12 40 -28 42 -20
3 -22 8 -19 49 3 43 0 50 -35 87 -132 137 -143 158 -145 268 -1 91 8 104 71
104 46 0 48 -1 69 -45 12 -25 26 -45 31 -45 5 0 16 -3 25 -6 12 -5 16 0 16 18
0 25 -34 104 -47 110 -5 2 -46 1 -93 -2z"/>
<path d="M35525 12836 c-10 -7 -12 -16 -5 -26 7 -12 14 -12 44 -2 31 12 40 11
66 -5 20 -11 34 -30 40 -53 5 -19 10 -165 12 -324 l3 -289 -29 -8 c-15 -4 -36
-15 -46 -24 -17 -15 -19 -15 -24 3 -4 10 -18 25 -32 33 -50 26 -53 46 -53 323
0 282 -6 322 -40 246 -17 -39 -18 -52 -9 -88 7 -29 7 -54 0 -83 -7 -26 -7 -52
-1 -72 5 -18 9 -95 8 -172 0 -77 4 -152 9 -166 16 -40 74 -69 138 -69 41 0 54
4 54 15 0 8 11 24 23 37 41 40 48 91 48 363 1 211 -2 262 -16 304 -14 44 -20
51 -48 55 -78 12 -128 13 -142 2z"/>
<path d="M38230 12839 c-29 -12 -40 -26 -40 -53 0 -11 -12 -32 -26 -47 -26
-27 -27 -29 -25 -165 1 -84 6 -145 14 -158 7 -13 10 -59 9 -126 -4 -139 17
-209 69 -227 19 -7 57 -12 85 -12 45 -1 54 3 84 34 31 32 35 42 41 117 8 93
-5 513 -17 543 -18 45 -57 90 -82 96 -41 10 -84 9 -112 -2z m101 -85 c7 -8 16
-41 20 -71 5 -36 14 -60 24 -66 15 -8 16 -28 9 -205 -7 -211 -21 -273 -63
-287 -32 -10 -78 20 -91 60 -17 51 -17 549 0 570 17 20 84 20 101 -1z"/>
<path d="M33174 12832 l-31 -3 -6 -82 c-4 -45 -7 -195 -7 -333 0 -275 3 -291
53 -279 32 8 35 33 7 58 -19 16 -20 29 -20 279 0 266 7 330 37 346 21 12 6 18
-33 14z"/>
<path d="M36073 12834 c-17 -7 -16 -37 2 -124 18 -84 51 -138 73 -116 11 11
12 34 7 114 -4 55 -10 104 -14 110 -8 13 -52 23 -68 16z"/>
<path d="M36389 12833 c-11 -3 -19 -28 -28 -91 l-12 -87 50 -47 c27 -27 54
-48 60 -48 20 0 12 61 -10 79 l-21 17 21 71 c12 38 21 77 21 85 0 22 -41 32
-81 21z"/>
<path d="M37440 12820 c8 -5 25 -10 37 -10 15 0 32 -14 51 -42 62 -91 60 -81
54 -353 l-5 -249 -29 -25 c-15 -14 -28 -33 -28 -41 0 -9 -5 -21 -12 -28 -9 -9
-5 -12 20 -12 22 0 32 5 32 15 0 9 11 20 24 27 14 6 28 18 31 27 4 9 5 117 3
241 -1 124 -1 263 0 309 l3 83 -35 34 c-32 31 -40 34 -98 34 -44 0 -59 -3 -48
-10z"/>
<path d="M37764 12818 c-7 -10 -7 -749 0 -755 1 -1 31 -5 68 -9 93 -9 149 1
172 32 41 57 62 275 31 334 -10 20 -15 62 -16 137 -1 158 -12 208 -50 244 -41
38 -81 39 -115 2 l-26 -28 44 -7 c59 -10 94 -50 101 -114 3 -27 5 -149 4 -271
-2 -246 -2 -246 -67 -258 -27 -5 -43 -1 -69 17 l-34 23 2 105 c1 63 -5 133
-14 175 -20 97 -19 167 3 196 12 16 16 32 12 49 -3 14 -2 44 4 67 7 31 6 46
-4 58 -15 18 -36 20 -46 3z"/>
<path d="M24764 11742 c-6 -4 -14 -15 -17 -26 -5 -13 -12 -16 -25 -10 -9 5
-42 9 -72 9 -46 -1 -67 -7 -133 -45 -42 -24 -103 -68 -135 -97 -31 -29 -60
-53 -64 -53 -12 0 -56 -92 -63 -131 -3 -19 -1 -47 5 -63 10 -28 106 -147 124
-155 5 -2 23 -17 40 -33 53 -49 108 -88 126 -88 10 0 23 -7 30 -15 6 -8 35
-23 63 -34 29 -11 70 -29 92 -40 21 -12 45 -21 53 -21 7 0 27 -7 44 -16 17 -9
72 -25 121 -35 53 -11 98 -26 111 -37 44 -41 83 -46 173 -23 64 16 112 21 223
21 109 0 148 4 172 16 17 9 51 22 77 30 48 14 181 123 181 148 0 7 9 21 19 30
10 10 22 33 26 52 3 19 15 55 26 80 13 31 19 67 18 112 0 37 -3 60 -6 52 -3
-8 -21 -28 -39 -45 -20 -19 -35 -45 -39 -68 -4 -20 -19 -47 -33 -60 -13 -12
-39 -37 -56 -55 -60 -65 -141 -87 -208 -58 -15 7 -18 3 -18 -17 0 -18 -14 -39
-45 -68 -64 -60 -94 -76 -130 -69 -16 3 -42 2 -56 -2 -15 -5 -76 -5 -142 1
-126 11 -183 31 -239 83 -17 16 -43 35 -57 43 -14 7 -43 28 -64 47 -35 32 -37
36 -26 66 10 29 8 36 -15 67 -15 19 -34 35 -42 35 -8 0 -20 13 -25 29 -11 31
-32 41 -91 41 -30 0 -42 6 -63 34 -55 72 -50 123 19 202 41 47 130 104 162
104 17 0 48 46 39 60 -7 12 -25 13 -41 2z"/>
<path d="M25239 10681 c-18 -24 -27 -29 -53 -25 -20 3 -79 -10 -161 -37 -71
-22 -161 -49 -199 -60 -70 -19 -184 -76 -222 -111 -23 -20 -64 -45 -122 -73
-18 -9 -79 -61 -134 -116 l-100 -101 4 -63 c4 -59 7 -66 48 -109 25 -26 69
-66 99 -89 30 -23 63 -52 74 -64 11 -12 33 -25 48 -28 16 -4 29 -10 29 -15 0
-4 19 -15 43 -23 23 -8 60 -26 81 -41 21 -14 47 -26 57 -26 10 0 24 -6 31 -13
19 -18 143 -50 166 -42 15 4 22 0 26 -13 9 -26 38 -38 126 -52 41 -7 93 -19
115 -26 35 -12 93 -21 255 -40 45 -5 89 5 269 60 92 28 121 48 121 81 0 13 10
27 25 35 37 20 65 71 72 131 4 31 14 60 25 71 26 26 34 90 33 243 -1 128 -2
132 -37 205 -44 91 -122 172 -223 228 -67 37 -76 39 -185 46 -85 5 -121 11
-140 24 -14 10 -46 26 -72 36 -26 10 -50 22 -53 27 -10 16 -24 10 -46 -20z
m316 -131 c35 0 43 -5 63 -35 12 -19 30 -35 40 -35 27 0 85 -40 149 -101 81
-78 103 -112 113 -172 5 -29 14 -76 19 -106 6 -29 8 -72 4 -95 -6 -42 -63
-156 -95 -190 -10 -11 -20 -27 -23 -35 -5 -15 -87 -68 -160 -104 -46 -22 -252
-41 -363 -32 -54 4 -133 9 -177 10 -44 2 -92 8 -106 14 -14 5 -63 13 -108 17
-65 5 -85 11 -96 27 -8 11 -37 26 -66 33 -29 8 -57 20 -61 28 -4 8 -26 17 -48
21 -23 4 -44 14 -50 25 -5 9 -32 35 -61 56 -49 38 -83 87 -100 147 -6 22 0 46
25 107 28 65 46 91 102 145 38 36 98 82 134 102 36 20 77 44 91 54 15 11 56
26 90 34 35 9 80 22 99 30 19 7 67 18 105 23 84 13 209 31 250 36 17 2 66 2
110 0 44 -2 98 -4 120 -4z"/>
<path d="M38270 10535 c-7 -8 -18 -15 -25 -15 -7 0 -18 -7 -25 -15 -10 -12 -8
-20 9 -41 23 -29 20 -60 -7 -82 -15 -11 -15 -17 2 -66 11 -31 15 -59 10 -67
-24 -40 -41 -213 -23 -236 19 -22 21 -129 4 -147 -8 -8 -47 -17 -87 -21 -40
-4 -76 -12 -80 -19 -6 -8 -10 -8 -15 0 -10 15 -94 27 -127 18 -26 -6 -26 -7
-10 -25 12 -14 31 -19 66 -19 48 0 48 0 48 -34 0 -26 5 -35 23 -40 36 -9 176
-7 195 4 9 5 42 21 72 35 115 54 131 67 153 124 16 41 28 56 52 67 25 10 33
21 42 57 5 26 6 68 2 98 -4 30 -8 78 -8 108 -1 44 -6 58 -26 77 -13 12 -27 35
-31 50 -4 16 -16 35 -26 44 -10 8 -22 35 -26 60 -6 37 -12 46 -31 48 -13 2
-36 -6 -52 -17 -15 -12 -33 -21 -39 -21 -19 0 -10 37 12 52 12 8 18 19 14 26
-10 17 -51 15 -66 -3z"/>
<path d="M34532 10454 c-12 -8 -22 -24 -22 -34 0 -17 -3 -18 -25 -8 -19 8 -29
8 -37 0 -16 -16 -1 -60 24 -68 52 -16 78 -80 78 -190 l0 -44 -55 0 -55 0 1
-32 c0 -18 4 -51 8 -73 6 -32 9 -36 15 -20 38 105 41 110 73 113 28 3 32 0 38
-28 5 -21 2 -39 -9 -55 -26 -40 -20 -73 16 -95 20 -12 35 -15 38 -9 9 14 0
220 -10 244 -17 38 -42 150 -41 184 0 18 9 48 20 66 18 32 19 34 2 49 -22 20
-31 20 -59 0z"/>
<path d="M30382 10320 c-24 -11 -72 -23 -108 -26 -63 -7 -65 -8 -80 -43 -14
-33 -13 -37 2 -48 10 -7 45 -13 78 -13 34 0 81 -5 106 -11 72 -18 209 -15 247
4 17 9 35 22 38 27 11 18 9 98 -3 112 -7 9 -45 14 -124 16 -95 2 -120 -1 -156
-18z"/>
<path d="M36058 10059 c-14 -8 -15 -14 -6 -35 10 -21 9 -27 -10 -40 -12 -8
-26 -33 -32 -55 -10 -35 -9 -44 6 -60 9 -10 32 -21 50 -25 18 -3 38 -12 45
-20 6 -8 17 -14 25 -14 23 0 26 20 6 38 -21 18 -52 129 -52 187 0 37 -5 41
-32 24z"/>
<path d="M34001 10031 c-6 -11 -11 -31 -11 -44 0 -14 -6 -30 -14 -36 -8 -7
-18 -26 -21 -42 -4 -16 -24 -48 -45 -71 -39 -41 -40 -41 -131 -49 -59 -4 -95
-12 -100 -21 -12 -18 -11 -45 1 -53 7 -4 7 -13 0 -26 -10 -18 -7 -19 85 -19
98 0 125 9 125 42 0 14 81 88 109 99 9 4 31 -2 48 -13 43 -26 93 -17 93 16 0
15 -9 27 -25 34 -13 6 -27 23 -31 36 -3 14 -15 28 -25 31 -16 5 -19 16 -19 59
0 62 -21 92 -39 57z"/>
<path d="M16497 9912 c-13 -14 -17 -39 -17 -108 0 -83 -2 -90 -22 -99 -19 -8
-23 -18 -23 -55 0 -38 3 -45 20 -45 15 0 21 8 23 30 7 76 4 74 95 77 l82 3 -3
35 c-1 19 -11 47 -22 62 -22 30 -15 41 33 53 33 9 40 19 32 45 -6 18 -15 20
-94 20 -72 0 -91 -3 -104 -18z"/>
<path d="M16835 9810 c-4 -6 -24 -22 -46 -36 -45 -28 -48 -42 -16 -72 46 -44
107 -22 107 38 0 13 8 24 20 27 13 3 20 14 20 29 0 21 -5 24 -39 24 -22 0 -43
-5 -46 -10z"/>
<path d="M27318 9795 c-23 -30 -23 -53 1 -116 17 -44 60 -99 78 -99 3 0 2 32
-1 70 -5 47 -3 81 5 104 10 28 10 38 0 50 -20 24 -63 19 -83 -9z"/>
<path d="M26188 9665 c-7 -127 -10 -145 -37 -200 -28 -56 -30 -69 -31 -175 -1
-192 -7 -344 -15 -362 -3 -9 0 -30 9 -46 14 -28 14 -30 -8 -52 -21 -18 -27
-20 -47 -10 -13 8 -78 14 -163 15 -151 4 -237 13 -356 38 -87 19 -310 37 -458
37 -57 0 -112 4 -122 10 -10 5 -110 12 -222 15 -112 3 -291 9 -398 12 -107 4
-224 7 -260 8 l-64 0 -14 -49 c-10 -35 -11 -55 -4 -72 l11 -22 283 -4 c277 -4
589 -27 843 -63 129 -17 286 -32 440 -41 61 -3 131 -12 157 -20 25 -8 118 -19
205 -24 87 -5 208 -15 268 -22 168 -18 187 -17 229 16 20 15 43 25 51 22 20
-7 444 -10 452 -2 18 18 -27 27 -161 35 -140 9 -149 10 -175 35 -15 14 -32 26
-39 26 -6 0 -19 11 -27 24 -9 13 -36 31 -62 41 -45 17 -47 17 -81 -1 -64 -34
-117 -6 -106 55 8 49 26 61 72 50 63 -14 65 -13 59 28 -4 21 -15 44 -26 53
-11 8 -23 27 -26 42 -4 14 -15 28 -24 31 -10 2 -21 18 -24 35 -4 20 -16 35
-34 44 -18 8 -29 23 -31 38 -2 14 -12 50 -24 80 -17 47 -21 90 -26 285 l-7
230 -7 -140z"/>
<path d="M7415 9720 c-17 -33 -22 -116 -5 -90 7 11 10 5 10 -25 0 -22 7 -51
15 -65 17 -29 20 -96 4 -105 -6 -4 -8 -13 -5 -20 3 -8 1 -16 -5 -19 -5 -2 -4
-3 3 -1 7 1 12 7 11 13 -1 5 4 13 12 16 9 3 12 0 8 -10 -3 -9 1 -14 13 -14 13
0 15 -3 7 -11 -16 -16 15 -47 54 -55 32 -6 53 9 31 23 -13 8 -18 9 -38 12 -5
0 -6 8 -3 18 5 12 3 14 -8 8 -11 -7 -12 -6 -2 6 22 28 20 62 -6 75 -14 7 -31
24 -38 38 -8 14 -18 26 -22 26 -5 0 -7 10 -4 23 4 18 3 19 -6 7 -6 -8 -11 -10
-11 -4 0 6 3 14 7 18 4 4 8 30 9 58 1 35 -1 46 -8 34 -5 -9 -6 -22 -2 -29 4
-6 -2 -4 -12 7 -13 12 -15 20 -7 23 7 2 10 10 7 18 -3 7 4 19 15 27 12 8 18
18 14 21 -12 13 -23 7 -38 -23z"/>
<path d="M27423 9539 c8 -20 26 -38 50 -50 20 -11 37 -23 37 -27 0 -5 23 -16
50 -26 50 -18 91 -16 117 6 14 11 8 53 -10 76 -14 18 -61 15 -89 -7 -24 -19
-25 -19 -71 2 -25 12 -48 29 -50 39 -3 10 -14 18 -25 18 -18 0 -19 -3 -9 -31z"/>
<path d="M27013 8663 c-35 -2 -63 -8 -63 -13 0 -17 292 -28 575 -21 200 4 136
16 -135 25 -113 4 -230 8 -260 10 -30 2 -83 1 -117 -1z"/>
<path d="M23685 7265 c-3 -8 -7 -21 -9 -29 -3 -8 -19 -17 -36 -21 -42 -9 -53
-41 -48 -139 3 -71 6 -80 31 -100 15 -12 27 -27 27 -33 0 -17 59 -73 78 -73 9
0 28 12 43 26 15 15 38 32 51 38 18 9 24 21 26 58 2 25 10 52 18 58 7 7 14 23
14 36 0 29 -47 99 -77 113 -12 5 -40 26 -61 46 -44 39 -51 42 -57 20z"/>
</g>
</svg>
