<?xml version="1.0" standalone="no"?>
<!DOCTYPE svg PUBLIC "-//W3C//DTD SVG 20010904//EN"
 "http://www.w3.org/TR/2001/REC-SVG-20010904/DTD/svg10.dtd">
<svg version="1.0" xmlns="http://www.w3.org/2000/svg"
 width="4272.000000pt" height="2568.000000pt" viewBox="0 0 4272.000000 2568.000000"
 preserveAspectRatio="xMidYMid meet">
<metadata>
Created by potrace 1.16, written by Peter Selinger 2001-2019
</metadata>
<g transform="translate(0.000000,2568.000000) scale(0.100000,-0.100000)"
fill="#000000" stroke="none">
<path d="M10006 14451 c-3 -5 0 -14 8 -20 10 -8 79 -9 262 -1 137 5 289 9 337
9 53 -1 93 3 100 10 8 8 -84 11 -345 11 -197 0 -359 -4 -362 -9z"/>
<path d="M5917 13708 c-4 -11 -13 -15 -28 -11 -19 5 -21 3 -15 -13 4 -10 4
-15 0 -11 -4 4 -14 1 -23 -7 -9 -8 -29 -16 -46 -18 -24 -2 -30 -7 -28 -25 3
-22 -7 -27 -45 -26 -7 1 -11 -1 -8 -4 10 -10 -48 -48 -69 -45 -15 2 -17 1 -6
-6 8 -6 10 -15 6 -22 -6 -10 -12 -8 -23 6 -13 18 -14 18 -7 -3 6 -23 4 -25
-40 -27 -14 -1 -19 -7 -17 -21 2 -11 1 -17 -4 -13 -9 10 -36 -11 -28 -23 10
-17 36 -9 73 21 56 47 57 48 92 63 48 20 99 65 99 88 0 11 -4 17 -10 14 -5 -3
-10 -1 -10 4 0 16 18 13 28 -4 7 -14 12 -14 48 1 39 16 94 60 94 76 0 5 -4 7
-9 4 -5 -4 -11 -1 -13 6 -3 8 -7 6 -11 -4z"/>
<path d="M8750 13710 c-91 -5 -331 -14 -535 -19 -729 -21 -991 -31 -1085 -41
-86 -9 -194 -15 -696 -39 -198 -10 -239 -24 -239 -82 0 -20 -7 -45 -16 -55 -9
-11 -29 -42 -44 -70 l-28 -51 36 -37 c20 -20 43 -36 52 -36 8 0 23 -8 33 -18
10 -10 39 -33 66 -52 47 -34 50 -35 164 -39 63 -2 404 2 756 8 353 6 880 14
1171 16 292 3 607 10 700 15 94 6 287 10 430 10 143 -1 289 4 325 9 36 6 196
11 357 11 l292 0 37 25 c26 18 50 25 82 25 71 0 38 18 -46 26 -68 7 -74 5
-114 -22 l-41 -29 -311 0 c-443 1 -1033 20 -1072 36 -26 10 -48 10 -118 -1
-69 -11 -93 -11 -123 -1 -29 9 -54 10 -103 2 -36 -6 -165 -11 -287 -11 l-223
0 0 28 c0 44 16 52 108 52 78 0 87 2 109 26 24 26 26 26 151 23 135 -2 245 10
264 29 8 8 52 12 129 12 99 0 127 4 190 26 73 25 219 67 354 101 63 16 144 18
805 21 803 4 875 1 883 -29 7 -25 27 -24 74 2 21 12 59 33 85 46 61 31 55 49
-20 58 -213 23 -2196 43 -2552 25z m-2079 -333 l36 -30 -35 -31 -35 -31 -160
0 c-106 0 -164 4 -172 11 -6 6 -31 20 -55 31 l-44 19 33 30 c32 28 37 29 159
34 191 8 230 3 273 -33z m385 -32 c70 -13 117 -36 103 -50 -3 -3 -85 -10 -182
-17 -189 -13 -227 -8 -227 31 0 30 16 35 115 42 50 3 95 6 102 7 6 1 46 -5 89
-13z"/>
<path d="M17600 13639 c0 -5 4 -8 8 -5 4 2 8 -4 8 -14 0 -15 -3 -17 -16 -7
-12 9 -12 7 1 -7 11 -12 42 -21 95 -27 43 -5 94 -16 112 -24 18 -9 77 -20 130
-26 53 -6 104 -15 112 -20 37 -22 61 -27 157 -31 79 -4 103 -2 107 9 6 16 -6
17 -21 2 -8 -8 -13 -8 -17 0 -4 6 -34 11 -67 11 -46 0 -59 3 -59 15 0 9 -12
20 -27 26 -22 8 -30 7 -39 -6 -10 -13 -13 -13 -17 -2 -4 10 -27 15 -82 16 -65
2 -80 5 -94 23 -15 17 -31 21 -116 25 -87 5 -101 8 -122 29 -25 25 -53 32 -53
13z"/>
<path d="M7355 12799 c-99 -4 -373 -12 -610 -18 -461 -10 -646 -16 -930 -31
-99 -5 -274 -14 -390 -20 -115 -5 -230 -14 -255 -19 -74 -13 -188 -52 -201
-67 -6 -8 -17 -14 -24 -14 -8 0 -26 -11 -42 -24 -15 -13 -73 -45 -128 -71 -55
-26 -106 -56 -113 -66 -7 -11 -31 -22 -53 -25 -28 -5 -36 -10 -27 -15 15 -10
242 -4 463 11 451 32 777 52 1095 70 195 11 407 25 470 32 81 8 467 11 1315
10 1133 -2 1422 -7 1815 -31 91 -6 262 -15 380 -20 130 -6 258 -18 325 -30
260 -47 652 -61 1560 -57 912 4 1380 -5 1442 -28 56 -21 436 -35 447 -17 5 7
5 15 2 18 -4 4 -99 10 -212 14 -168 6 -208 10 -223 23 -14 13 -58 19 -202 27
-182 12 -1065 15 -1799 7 l-375 -4 -32 30 c-25 25 -37 50 -56 121 -36 138 -17
133 -627 154 -173 6 -396 16 -495 22 -372 21 -2119 34 -2520 18z"/>
<path d="M4585 12729 c-4 -6 -13 -8 -21 -5 -9 3 -14 -1 -14 -13 0 -12 -14 -23
-41 -34 -22 -9 -43 -24 -45 -34 -3 -11 -15 -23 -27 -28 -16 -7 -22 -19 -23
-44 0 -39 19 -51 45 -27 10 9 22 16 27 16 5 0 37 27 72 60 60 58 80 100 46
100 -8 0 -12 5 -9 10 3 6 4 10 1 10 -3 0 -8 -5 -11 -11z"/>
<path d="M21087 12560 c7 -27 238 -138 316 -152 31 -5 57 -14 57 -18 0 -5 12
-15 28 -23 138 -75 194 -102 238 -117 28 -10 59 -22 70 -28 27 -15 119 -57
189 -86 75 -32 145 -41 145 -20 0 8 -4 13 -9 9 -5 -3 -11 5 -13 17 -3 25 -30
35 -96 37 -35 1 -45 5 -49 21 -4 15 -17 21 -53 26 -36 5 -50 11 -53 25 -3 11
-13 19 -22 19 -10 0 -13 -5 -9 -12 4 -7 3 -8 -5 -4 -6 4 -9 12 -6 17 4 5 -7 9
-24 9 -21 0 -32 6 -36 19 -4 14 -19 22 -51 27 -25 3 -56 16 -69 28 -13 12 -34
22 -46 23 -13 1 -31 12 -41 25 l-17 23 6 -24 c5 -19 3 -22 -8 -15 -15 9 -20
11 -44 13 -8 0 -15 8 -15 17 0 8 -4 12 -10 9 -5 -3 -10 -1 -10 4 0 24 -41 51
-78 51 -28 0 -42 6 -56 25 -16 21 -27 25 -67 25 -36 0 -49 4 -49 15 0 8 -9 19
-21 25 -26 14 -35 7 -14 -10 8 -7 15 -17 15 -23 0 -5 -9 2 -21 17 -26 33 -80
38 -72 6z"/>
<path d="M14227 12505 c-21 -8 -55 -28 -76 -44 -20 -16 -55 -37 -76 -47 -22
-10 -55 -31 -73 -46 -18 -16 -38 -28 -45 -28 -7 0 -4 -5 6 -11 10 -6 82 -16
160 -24 78 -7 185 -20 237 -29 52 -8 150 -20 218 -26 68 -5 132 -14 142 -20 9
-5 84 -16 166 -24 82 -9 178 -22 214 -30 36 -9 112 -22 170 -30 58 -7 123 -19
145 -25 49 -13 244 -14 264 -2 12 8 8 11 -15 16 -72 16 -95 29 -150 86 -32 33
-78 73 -101 90 -124 85 -130 88 -199 99 -38 6 -114 19 -169 30 -114 23 -296
45 -535 65 -204 17 -235 17 -283 0z"/>
<path d="M3996 12211 c-4 -5 -4 -16 -1 -23 3 -8 -2 -21 -11 -29 -14 -11 -16
-11 -10 -1 6 10 3 13 -10 10 -15 -2 -20 -14 -22 -50 -3 -39 -6 -47 -25 -50
-14 -2 -23 -11 -25 -26 -2 -12 -14 -33 -28 -47 -13 -13 -24 -35 -24 -49 0 -16
-7 -27 -20 -31 -23 -7 -35 -43 -25 -74 5 -17 -10 -38 -74 -105 -45 -47 -81
-89 -81 -95 0 -6 24 16 53 48 47 53 97 91 97 74 0 -4 -21 -30 -47 -57 -27 -28
-37 -41 -23 -30 42 35 57 39 27 6 -25 -26 -29 -39 -29 -89 -1 -33 -9 -75 -19
-98 -10 -22 -18 -35 -18 -28 -1 6 -6 24 -12 40 -10 27 -11 27 -25 9 -14 -19
-14 -19 -14 1 0 12 5 25 10 28 6 4 8 11 4 16 -11 18 -32 -37 -38 -98 -3 -32
-9 -94 -15 -138 -5 -44 -10 -139 -10 -211 -1 -72 -4 -134 -8 -138 -18 -18 -32
-137 -38 -336 -7 -184 -10 -218 -25 -235 -10 -11 -21 -30 -25 -43 -7 -23 -7
-23 -139 -18 l-132 6 4 -33 c3 -27 -1 -35 -18 -43 -27 -12 -264 6 -490 37 -85
12 -191 25 -235 29 -149 15 -255 40 -255 60 0 4 14 13 30 20 36 15 39 30 5 30
-14 0 -25 4 -25 10 0 12 -105 43 -128 37 -12 -3 -11 -5 6 -6 13 0 37 -8 53
-17 23 -12 28 -18 20 -28 -8 -10 -7 -17 4 -26 8 -7 13 -16 10 -20 -10 -16
-110 -22 -165 -10 -30 6 -64 12 -75 11 -45 0 -131 -14 -142 -23 -6 -5 -60 -34
-120 -65 -59 -30 -119 -65 -133 -78 -14 -12 -44 -34 -67 -49 -24 -14 -43 -31
-43 -36 0 -6 -6 -10 -13 -10 -8 0 -45 -24 -83 -53 -134 -102 -129 -100 -213
-101 -42 -1 -83 -4 -91 -7 -11 -3 -16 6 -18 38 -2 24 1 50 6 58 7 13 12 8 27
-25 31 -69 97 -68 142 3 15 23 34 49 43 57 49 46 170 206 170 225 0 5 12 21
27 37 23 25 25 30 14 54 -11 26 -14 26 -73 20 -57 -7 -62 -6 -89 20 -26 25
-28 25 -24 6 2 -12 -3 -23 -12 -26 -20 -8 -33 1 -27 19 4 8 10 12 15 9 5 -3 9
1 9 9 0 12 -10 14 -42 10 -80 -9 -113 -23 -168 -68 -60 -49 -68 -52 -76 -30
-9 24 22 62 61 75 38 13 45 25 18 34 -10 3 2 4 26 1 40 -3 42 -2 28 13 -13 12
-47 18 -144 23 -71 4 -131 5 -135 1 -4 -4 -8 -23 -10 -42 -4 -47 -39 -64 -113
-55 -49 7 -54 10 -60 36 -4 16 -4 33 0 38 8 14 -28 31 -64 31 -28 0 -30 -2
-29 -35 2 -62 -52 -98 -96 -64 -35 27 -71 24 -96 -8 -33 -42 -21 -86 36 -144
l47 -48 -6 -101 c-3 -64 -11 -109 -20 -123 -9 -14 -18 -62 -22 -117 -7 -96
-13 -119 -40 -156 -14 -20 -14 -23 0 -38 10 -10 35 -16 66 -17 27 -1 54 -3 59
-4 6 -1 18 -4 28 -5 9 -1 -3 -6 -27 -11 -27 -5 -53 -18 -65 -32 -23 -27 -152
-94 -176 -92 -21 2 -50 -25 -49 -44 0 -11 2 -12 6 -3 8 20 40 34 40 17 0 -8
-6 -16 -14 -19 -7 -3 -13 -11 -13 -18 0 -10 2 -10 9 0 26 42 31 -191 6 -308
-22 -106 -65 -397 -75 -510 -5 -58 -16 -139 -24 -180 -24 -124 -36 -280 -25
-334 14 -74 52 -130 126 -186 80 -61 102 -88 82 -102 -10 -6 -7 -8 13 -6 15 2
35 -5 48 -17 16 -15 40 -21 95 -23 64 -4 76 -1 94 17 12 12 31 21 43 22 13 0
17 3 11 6 -7 2 -13 9 -13 14 0 6 3 8 8 6 4 -3 8 21 8 53 1 44 21 115 78 284
42 124 76 235 76 248 0 13 8 37 17 53 9 17 24 64 33 105 10 41 30 120 45 175
15 55 34 134 42 175 8 41 23 102 33 135 10 33 21 89 25 125 4 36 15 108 26
160 11 52 21 128 22 168 2 69 0 75 -25 97 -16 13 -28 31 -28 39 0 26 -20 28
-29 4 -17 -45 -35 -51 -69 -23 -32 27 -47 26 -94 -7 -14 -10 -34 -18 -45 -18
-10 -1 -35 -7 -55 -14 -35 -13 -40 -12 -70 10 -17 13 -38 24 -45 24 -18 0 -17
54 7 188 13 76 26 121 39 139 17 20 21 40 21 93 0 65 34 183 62 218 12 14 67
16 102 2 21 -8 26 -16 26 -43 0 -18 6 -56 14 -83 8 -27 17 -83 20 -124 15
-178 24 -223 44 -239 11 -9 29 -32 39 -51 21 -37 44 -47 111 -49 62 -1 114 29
137 78 16 37 24 43 74 57 31 9 61 20 66 24 6 4 33 13 62 20 28 6 54 17 56 25
3 7 20 15 39 19 18 3 53 20 77 36 24 17 48 30 52 30 5 0 28 14 51 30 24 17 66
46 93 64 28 19 63 48 79 65 39 40 68 39 111 -4 32 -31 93 -75 264 -187 31 -21
63 -43 71 -51 13 -12 278 -187 380 -252 19 -12 48 -30 64 -41 16 -10 47 -31
70 -46 80 -54 159 -86 201 -82 54 4 339 -27 325 -36 -7 -4 2 -10 20 -13 17 -4
29 -11 25 -16 -3 -6 4 -8 17 -4 55 14 104 14 115 1 14 -16 -2 -117 -22 -132
-7 -7 -15 -44 -19 -91 -3 -44 -11 -81 -16 -83 -5 -2 -3 -11 6 -19 20 -21 18
-181 -4 -233 -21 -51 -29 -93 -42 -208 -6 -57 -15 -115 -20 -128 -5 -13 -16
-75 -24 -139 -9 -64 -22 -136 -31 -160 -8 -26 -17 -103 -21 -187 -3 -79 -14
-195 -24 -258 -10 -63 -24 -162 -30 -220 -5 -58 -17 -148 -25 -201 -8 -53 -17
-138 -20 -190 -3 -52 -9 -110 -12 -129 -6 -38 -5 -39 -33 38 -7 17 -19 32 -26
32 -8 0 -14 4 -14 10 0 5 -6 7 -14 4 -10 -4 -16 3 -19 23 -3 15 -4 -1 -4 -37
2 -50 -2 -69 -15 -82 -10 -10 -18 -27 -18 -39 0 -21 0 -21 20 2 l20 24 -5 -55
c-4 -39 -2 -49 4 -35 6 11 10 14 10 6 1 -11 4 -11 16 -1 37 30 40 -99 7 -300
-21 -127 -44 -244 -53 -267 -5 -13 -13 -74 -19 -136 -6 -61 -15 -128 -20 -147
-5 -19 -11 -62 -15 -95 -10 -97 -26 -188 -40 -226 -18 -47 -38 -147 -37 -184
1 -42 -17 -84 -42 -97 -20 -12 -25 -13 -53 -16 -22 -3 -14 -30 18 -63 30 -30
30 -33 26 -108 -3 -42 -8 -94 -11 -116 -4 -22 -11 -77 -17 -123 -8 -58 -17
-89 -30 -101 -14 -13 -21 -42 -29 -136 -6 -66 -17 -139 -26 -162 -29 -78 -22
-460 10 -550 8 -23 29 -101 47 -175 17 -73 39 -149 49 -168 10 -19 21 -51 25
-70 4 -19 25 -87 47 -150 22 -63 49 -142 59 -175 29 -94 64 -194 99 -275 17
-41 37 -91 45 -110 8 -19 25 -57 39 -84 14 -27 26 -58 26 -68 0 -10 20 -57 44
-103 24 -46 49 -100 56 -120 11 -34 32 -46 45 -25 3 6 1 147 -5 315 -7 168 -9
321 -6 341 10 52 34 59 163 46 59 -7 149 -18 198 -26 50 -8 158 -19 240 -25
83 -7 184 -18 225 -26 41 -8 113 -17 160 -20 47 -4 135 -15 195 -26 61 -10
166 -23 235 -29 69 -6 161 -17 205 -25 44 -8 136 -19 205 -25 69 -6 139 -15
155 -20 40 -13 257 -40 320 -40 28 0 66 -4 85 -10 19 -5 103 -16 185 -25 83
-9 200 -25 260 -35 61 -10 160 -21 220 -25 61 -3 133 -11 160 -16 28 -5 133
-18 235 -29 102 -11 223 -27 270 -34 47 -8 123 -17 170 -21 47 -3 139 -15 205
-25 66 -11 161 -22 210 -26 50 -3 142 -14 205 -24 63 -11 153 -22 200 -25 47
-4 124 -13 171 -21 47 -8 151 -21 230 -29 200 -20 340 -43 366 -61 33 -21 30
-77 -6 -145 -15 -30 -31 -67 -35 -84 -4 -16 -22 -59 -40 -95 -18 -36 -36 -76
-39 -90 -4 -14 -24 -64 -45 -110 -33 -70 -53 -98 -116 -157 -41 -40 -79 -73
-83 -73 -5 0 -35 -25 -68 -56 -33 -31 -76 -68 -95 -83 -20 -14 -67 -52 -106
-84 -104 -84 -209 -134 -298 -142 -65 -6 -311 14 -546 45 -41 5 -138 14 -215
19 -77 6 -183 17 -235 25 -52 8 -248 31 -435 51 -187 19 -392 44 -455 55 -110
19 -229 35 -480 65 -63 8 -151 21 -195 30 -44 8 -125 21 -180 29 -348 48 -419
59 -495 76 -47 11 -116 25 -155 30 -38 6 -88 15 -110 20 -22 5 -101 18 -175
29 -436 66 -530 95 -638 200 -23 23 -44 41 -47 41 -15 0 -1 -56 30 -118 34
-70 70 -112 129 -156 40 -29 187 -86 223 -86 16 0 53 -6 83 -14 30 -8 89 -19
130 -26 41 -6 91 -16 110 -20 19 -5 91 -16 160 -25 69 -8 152 -21 185 -29 33
-8 89 -17 125 -21 36 -3 110 -15 165 -25 55 -11 147 -24 205 -30 58 -6 139
-18 180 -26 76 -15 275 -42 520 -70 74 -8 189 -24 255 -34 66 -11 199 -27 295
-35 96 -9 181 -18 188 -20 7 -3 88 -12 180 -20 92 -8 196 -19 232 -25 36 -6
139 -17 230 -24 200 -17 455 -43 569 -58 169 -23 354 21 480 114 24 18 54 39
65 47 12 8 39 31 61 51 22 20 96 81 165 136 68 54 143 115 165 134 23 19 57
46 76 60 18 14 56 46 84 71 51 46 144 109 162 109 5 0 28 19 51 43 23 23 58
57 79 75 196 168 302 257 324 271 14 9 58 45 98 81 40 35 83 71 95 80 12 8 53
45 91 82 39 37 73 68 76 68 6 0 147 115 159 129 3 3 21 18 41 33 20 15 50 40
65 55 56 55 282 243 293 243 5 0 16 8 23 18 12 16 96 90 218 194 30 25 89 79
131 120 74 70 196 182 263 240 48 42 98 92 136 136 19 23 40 41 45 42 6 0 28
17 49 38 35 37 40 39 89 35 69 -6 122 -22 109 -35 -5 -5 -47 -13 -93 -17 -49
-5 -85 -14 -87 -21 -7 -19 -124 -130 -138 -130 -7 0 -17 -15 -23 -33 -6 -19
-25 -43 -41 -55 -16 -12 -36 -35 -44 -50 -8 -16 -32 -41 -54 -56 -22 -15 -52
-47 -68 -71 -16 -26 -39 -48 -56 -54 -15 -6 -32 -21 -38 -35 -5 -15 -14 -26
-19 -26 -6 0 -16 -18 -22 -41 -7 -22 -21 -45 -31 -50 -17 -9 -26 -49 -12 -49
18 0 90 25 95 33 4 6 15 7 25 2 18 -7 18 -8 -1 -15 -11 -5 -15 -9 -10 -10 6 0
2 -5 -8 -11 -9 -6 -15 -14 -12 -19 3 -5 1 -11 -5 -15 -20 -12 -11 -51 15 -63
20 -9 25 -19 25 -47 0 -19 9 -52 20 -72 24 -44 24 -61 5 -87 -10 -13 -15 -43
-15 -82 0 -72 -10 -104 -45 -146 -16 -19 -25 -42 -25 -63 0 -36 -25 -69 -73
-94 -15 -8 -27 -23 -27 -33 0 -22 -13 -23 -34 -3 -22 22 -32 19 -80 -27 -53
-52 -103 -91 -127 -100 -9 -4 -21 -13 -26 -21 -5 -9 -30 -16 -64 -19 -41 -3
-70 -13 -105 -36 -27 -17 -81 -46 -120 -66 -77 -38 -88 -48 -98 -89 -4 -18
-16 -31 -34 -38 -15 -6 -41 -21 -59 -35 -17 -13 -43 -24 -57 -24 -17 0 -30 -9
-42 -29 -16 -26 -22 -29 -90 -33 -47 -3 -83 -11 -101 -23 -28 -19 -87 -22
-108 -6 -5 5 -43 20 -83 35 -41 14 -81 30 -90 35 -19 9 -164 -29 -169 -45 -1
-5 4 -17 12 -27 10 -15 38 -22 122 -31 59 -7 118 -18 131 -25 12 -7 69 -18
125 -26 57 -7 119 -20 139 -28 53 -22 89 -9 167 61 53 48 68 60 132 110 37 28
85 56 108 62 22 6 43 15 46 20 3 5 25 18 48 29 23 11 49 25 57 30 21 13 118
57 160 72 19 7 42 18 50 25 9 8 49 20 89 29 40 8 77 17 81 20 5 3 64 14 132
25 68 11 148 24 178 29 30 5 154 15 275 21 121 7 270 15 330 19 153 10 221 -8
256 -68 20 -34 21 -41 10 -121 -9 -76 -23 -250 -35 -455 -4 -67 -6 -72 -43
-103 -21 -19 -55 -41 -75 -49 -29 -11 -38 -21 -38 -38 0 -18 -7 -25 -27 -28
-16 -3 -5 -5 22 -5 28 0 66 -5 85 -11 19 -6 55 -11 80 -11 25 0 53 -7 63 -15
14 -10 26 -11 49 -3 23 8 47 7 102 -5 39 -9 133 -24 209 -33 75 -8 152 -20
170 -25 17 -5 104 -16 192 -24 88 -8 192 -21 230 -29 39 -8 104 -18 145 -21
41 -4 98 -13 125 -21 28 -7 113 -19 190 -25 77 -6 160 -15 185 -20 25 -5 88
-17 140 -25 52 -8 124 -22 160 -30 36 -7 126 -20 200 -29 74 -8 178 -22 230
-30 52 -9 153 -22 224 -30 71 -9 146 -19 165 -25 20 -5 68 -12 106 -16 76 -7
106 -20 131 -60 27 -40 3 -56 -82 -55 -38 0 -166 0 -284 0 -118 0 -557 -1
-975 -1 -418 0 -821 -3 -895 -7 l-135 -7 210 -8 c236 -9 290 -10 705 -10 305
0 349 0 1063 3 485 1 480 2 485 -64 4 -43 25 -75 50 -75 35 0 83 -45 95 -87
l11 -43 5402 0 c5351 0 5402 0 5407 20 3 11 16 21 33 25 46 9 179 53 236 79
29 13 71 26 94 30 22 3 62 15 88 27 26 11 68 24 94 29 57 11 189 55 217 72 16
10 227 14 965 18 520 3 988 2 1040 -2 52 -4 102 -6 110 -5 8 0 388 1 843 2
l829 0 16 21 c10 12 22 30 27 39 13 22 36 12 110 -49 28 -23 72 -57 98 -76 27
-19 61 -45 77 -58 15 -12 31 -22 36 -22 4 0 28 -17 53 -38 25 -21 61 -48 79
-61 17 -12 32 -29 32 -37 0 -12 457 -14 3405 -14 3321 0 3405 0 3405 19 0 10
19 36 43 58 23 21 55 57 71 79 17 21 53 62 80 91 28 28 98 100 156 160 58 59
173 178 255 263 83 85 182 189 219 230 45 49 86 83 117 97 27 13 49 28 49 35
0 20 76 98 96 98 9 0 26 -7 36 -16 16 -15 17 -29 11 -149 -3 -72 -3 -144 1
-158 9 -36 39 -50 121 -58 100 -9 377 -47 465 -63 41 -8 100 -17 131 -21 68
-7 124 -45 253 -169 28 -26 67 -60 86 -75 19 -14 42 -33 50 -42 8 -9 42 -38
75 -65 33 -26 85 -71 116 -99 31 -27 91 -79 133 -115 42 -36 76 -73 76 -82 0
-17 50 -18 900 -18 770 0 900 2 900 14 0 29 35 72 92 113 43 32 58 49 58 67 0
88 23 108 113 99 52 -5 55 -7 38 -22 -10 -9 -24 -32 -31 -51 -7 -19 -18 -41
-23 -47 -19 -25 -67 -135 -67 -154 0 -18 9 -19 180 -19 l180 0 0 655 0 655
-39 0 c-67 0 -216 -64 -311 -134 -50 -37 -62 -41 -125 -44 -48 -3 -84 1 -115
13 -69 25 -150 43 -170 38 -10 -3 -31 2 -46 10 -16 8 -72 20 -124 27 -52 6
-131 20 -175 30 -44 11 -105 22 -135 25 -111 13 -161 46 -145 96 7 20 -4 534
-10 527 -2 -2 -6 -127 -10 -278 -4 -182 -10 -279 -17 -288 -15 -17 -128 -8
-210 19 -31 9 -89 20 -130 24 -40 3 -83 8 -95 11 -30 6 -42 53 -29 116 9 42 7
51 -10 75 -34 45 -61 55 -138 49 -38 -3 -73 -9 -79 -15 -5 -5 -12 -39 -16 -75
-4 -36 -10 -68 -13 -71 -10 -10 -269 24 -324 43 -41 14 -62 31 -111 87 -33 39
-81 91 -107 118 -25 26 -46 49 -46 52 0 14 94 17 220 7 247 -20 569 -41 698
-46 99 -3 125 -1 137 11 21 20 19 76 -3 103 -21 26 -94 36 -352 46 -85 3 -202
10 -260 14 -58 5 -204 14 -325 20 -121 6 -237 16 -257 21 -41 10 -91 49 -158
122 -36 40 -41 50 -29 58 19 14 1254 4 1374 -10 197 -23 290 -30 520 -35 132
-3 290 -10 350 -15 295 -24 406 -31 603 -33 l212 -3 0 2142 0 2143 -48 0 c-26
0 -117 9 -202 19 -85 11 -189 22 -230 26 -41 4 -123 15 -183 25 -59 11 -178
24 -265 30 -86 6 -173 16 -192 21 -19 5 -137 18 -262 29 -125 11 -237 24 -250
29 -13 5 -57 11 -98 15 -156 14 -288 27 -390 41 -58 7 -157 16 -220 20 -63 3
-146 12 -185 20 -38 7 -122 19 -185 25 -63 7 -151 18 -195 26 -44 7 -152 20
-240 29 -205 20 -561 62 -647 76 -61 11 -69 10 -101 -10 -22 -13 -51 -21 -81
-21 -59 0 -87 27 -116 114 -31 93 -169 295 -218 318 -15 7 -33 25 -40 40 -16
34 -89 88 -119 88 -13 0 -58 9 -101 20 -42 10 -124 24 -182 30 -58 6 -123 17
-145 25 -22 7 -83 18 -135 24 -238 29 -405 65 -446 96 -28 22 -37 23 -61 14
-32 -12 -109 -5 -168 16 -22 8 -80 19 -130 25 -49 6 -137 19 -195 30 -58 10
-132 22 -165 25 -33 4 -83 13 -110 20 -28 8 -109 21 -180 30 -72 9 -158 22
-192 30 -93 22 -274 54 -392 70 -57 8 -134 21 -170 30 -36 9 -111 22 -166 29
-107 15 -227 35 -395 67 -99 18 -273 45 -368 56 -43 5 -162 -18 -217 -43 -16
-7 -57 -22 -90 -33 -33 -11 -98 -34 -145 -51 -47 -17 -112 -40 -144 -51 -33
-11 -64 -23 -70 -28 -18 -15 -162 -69 -202 -77 -21 -4 -59 -16 -84 -28 -41
-19 -63 -21 -250 -21 -160 0 -220 4 -272 18 -37 9 -138 24 -224 32 -90 9 -169
22 -186 31 -16 8 -78 19 -139 25 -61 5 -129 13 -152 19 -23 5 -107 18 -186 30
-79 11 -147 22 -151 25 -4 3 -86 14 -181 25 -96 11 -187 25 -204 30 -16 5 -84
16 -150 25 -66 8 -135 20 -155 25 -19 5 -87 14 -150 20 -63 6 -139 18 -167 26
-29 8 -101 19 -160 24 -60 6 -144 17 -188 25 -44 8 -138 22 -210 31 -71 9
-138 20 -147 25 -10 5 -96 19 -190 30 -95 11 -189 24 -208 29 -19 6 -51 10
-70 10 -20 0 -105 12 -190 26 -85 14 -202 32 -260 39 -218 28 -389 54 -446 68
-32 9 -119 20 -192 27 -74 6 -159 17 -190 25 -32 8 -113 21 -180 29 -68 9
-127 18 -131 20 -3 2 -70 12 -149 21 -78 9 -167 23 -197 30 -30 8 -105 19
-167 25 -62 6 -160 19 -218 30 -58 10 -132 22 -165 25 -33 4 -76 11 -95 16
-19 5 -98 18 -175 29 -77 11 -176 26 -220 34 -44 9 -98 16 -120 16 -22 0 -80
9 -129 20 -50 11 -151 27 -225 36 -75 8 -154 19 -176 24 -22 5 -83 14 -135 20
-52 6 -120 18 -150 25 -30 8 -107 19 -170 25 -63 6 -137 15 -165 20 -124 23
-225 40 -290 49 -38 5 -90 14 -115 19 -25 6 -94 15 -153 21 -59 6 -116 15
-125 20 -9 5 -82 16 -162 26 -80 9 -174 22 -210 30 -36 7 -96 16 -135 20 -38
3 -108 14 -155 25 -47 10 -116 22 -155 25 -38 4 -121 16 -184 26 -62 11 -148
24 -190 29 -42 5 -125 19 -186 30 -99 18 -193 32 -410 61 -107 14 -197 30
-230 39 -16 5 -91 14 -165 20 -74 7 -169 20 -210 30 -41 10 -102 21 -135 25
-33 3 -91 12 -130 20 -38 8 -119 19 -180 25 -60 6 -144 20 -185 30 -41 10
-100 22 -130 26 -30 3 -72 15 -92 25 -21 11 -42 19 -49 19 -18 0 -255 117
-335 166 -40 24 -75 44 -78 44 -6 0 -89 49 -186 111 -41 26 -103 63 -136 81
-79 42 -215 124 -232 138 -7 6 -27 18 -45 26 -17 8 -61 33 -97 55 -36 22 -121
67 -190 101 -69 33 -136 69 -149 79 -13 11 -32 19 -42 19 -9 0 -30 11 -46 24
-16 13 -47 29 -71 35 -23 7 -46 21 -52 32 -16 28 -48 38 -182 55 -65 8 -146
21 -180 28 -35 8 -106 19 -158 25 -89 10 -138 18 -430 71 -63 11 -169 27 -234
36 -66 8 -123 17 -128 20 -4 3 -81 14 -170 25 -90 11 -179 24 -198 29 -19 5
-100 19 -179 30 -80 12 -148 23 -152 25 -4 3 -56 12 -117 20 -61 9 -133 22
-159 30 -27 8 -89 15 -141 15 -97 0 -121 7 -161 46 -26 26 -42 29 -72 13 -15
-8 -53 -4 -152 15 -73 13 -154 27 -182 31 -27 3 -90 14 -140 25 -49 10 -148
24 -220 30 -71 7 -163 20 -204 31 -41 10 -94 19 -117 19 -23 0 -84 9 -135 19
-52 10 -130 22 -174 26 -44 3 -121 15 -172 25 -51 11 -150 24 -220 30 -70 6
-155 17 -188 25 -33 7 -109 19 -170 25 -60 6 -157 20 -215 30 -58 11 -154 26
-215 34 -291 38 -356 47 -435 62 -47 8 -134 22 -195 29 -60 8 -139 19 -175 25
-78 14 -103 8 -155 -34 -22 -18 -51 -39 -65 -46 -14 -7 -66 -44 -116 -82 -50
-37 -95 -68 -99 -68 -5 0 -31 -18 -59 -39 -82 -64 -118 -89 -161 -112 -22 -12
-76 -50 -120 -84 -44 -34 -87 -66 -97 -71 -47 -26 -317 -282 -348 -329 -11
-16 -24 -37 -29 -45 -32 -50 -62 -140 -80 -240 -16 -94 -21 -177 -27 -453 -3
-186 -9 -351 -13 -365 l-7 -27 -134 0 c-133 0 -135 0 -147 25 -16 31 -10 351
12 590 19 212 35 571 37 829 1 206 0 215 -20 231 -35 28 -360 72 -752 100 -85
6 -173 15 -195 20 -22 5 -159 16 -305 24 -146 9 -310 20 -365 26 -55 6 -246
17 -425 25 -179 8 -383 20 -455 25 -71 6 -454 17 -850 26 -396 8 -823 19 -950
25 -241 10 -2084 14 -2126 5 -13 -3 -303 -13 -644 -21 -638 -16 -924 -28
-1055 -45 -41 -5 -112 -14 -158 -20 -46 -5 -103 -18 -127 -29 -36 -16 -47 -17
-61 -7 -40 30 25 160 133 262 35 34 51 56 48 67 -7 17 -47 16 -69 -2 -16 -13
-32 1 -21 19 3 6 4 10 1 10 -3 0 -7 -4 -10 -9z m10334 -457 c6 -14 10 -41 10
-59 0 -72 35 -105 111 -105 22 0 55 -6 73 -14 32 -13 34 -13 47 11 7 13 12 37
11 51 -1 15 3 39 9 54 11 27 12 27 39 12 l27 -17 6 -160 c6 -170 3 -187 -37
-187 -34 0 -46 20 -46 76 0 71 -6 84 -43 84 -16 0 -54 8 -84 17 -52 16 -54 16
-81 -4 -21 -16 -28 -29 -30 -66 -2 -35 -8 -50 -24 -58 -15 -8 -23 -8 -31 0
-12 12 -21 314 -11 364 7 36 41 37 54 1z m452 -71 c9 -10 19 -36 22 -58 12
-66 27 -80 122 -110 84 -26 89 -26 101 -9 7 10 13 38 13 63 0 58 13 80 37 65
27 -17 35 -69 31 -196 -3 -106 -5 -119 -26 -141 -28 -30 -61 -38 -110 -26 -20
5 -68 14 -107 19 -38 6 -78 13 -88 16 -25 8 -41 52 -26 70 15 19 43 18 160 -7
54 -11 103 -17 109 -14 14 9 12 61 -2 73 -7 6 -47 13 -88 17 -97 9 -174 45
-190 88 -20 59 -8 167 19 167 4 0 15 -8 23 -17z m605 -72 c147 -31 163 -47
163 -161 0 -41 7 -99 15 -129 14 -56 11 -74 -21 -105 -18 -18 -113 -22 -160
-6 -16 5 -60 14 -98 19 -38 6 -75 16 -83 24 -18 18 -30 325 -13 356 14 27 74
28 197 2z m-9848 -64 c11 -29 -2 -257 -16 -282 -10 -17 -13 -16 -32 16 -14 22
-19 45 -16 64 2 17 7 62 10 100 8 100 15 125 31 125 8 0 18 -11 23 -23z
m10291 -8 c90 -10 139 -30 162 -64 13 -18 8 -135 -7 -172 -14 -33 -14 -41 1
-85 16 -49 12 -88 -9 -88 -17 0 -68 66 -78 103 -13 45 -18 51 -75 79 -32 16
-61 24 -77 21 -27 -5 -28 -9 -39 -112 -2 -13 -11 -29 -21 -35 -14 -9 -21 -7
-32 8 -11 15 -14 53 -11 177 3 177 9 194 60 185 17 -3 74 -11 126 -17z
m-10787 -121 c-15 -17 -19 -47 -25 -222 -4 -139 -11 -220 -22 -256 -12 -40
-16 -100 -17 -229 0 -97 -4 -196 -7 -221 -7 -42 -9 -45 -41 -48 -33 -3 -33 -3
-27 30 3 18 10 107 16 198 11 195 25 325 39 361 5 15 12 71 16 125 8 127 24
313 30 340 3 11 15 25 27 31 22 10 23 8 26 -40 2 -36 -1 -54 -15 -69z m2591 6
c-4 -267 -17 -445 -40 -534 -16 -64 -28 -152 -36 -267 -6 -95 -15 -173 -20
-173 -4 0 -8 21 -8 48 -1 26 -3 111 -7 190 -3 82 -1 182 6 235 10 88 30 352
35 484 3 76 19 100 50 79 17 -11 21 -23 20 -62z m8520 41 c3 -8 6 -90 7 -181
1 -152 0 -169 -17 -181 -38 -28 -50 20 -49 208 0 106 4 150 13 162 15 17 37
13 46 -8z m626 0 c24 -22 44 -96 35 -135 -5 -24 -16 -35 -42 -46 -32 -14 -37
-13 -76 8 -30 17 -45 33 -53 57 l-11 34 -7 -36 c-4 -20 -7 -92 -7 -161 l0
-126 -42 -11 c-47 -12 -116 -7 -217 18 -87 21 -93 24 -103 64 -13 50 -5 315
10 330 10 10 32 9 106 -4 51 -9 107 -17 124 -17 19 0 43 -10 61 -25 42 -35 65
-32 81 10 19 54 38 68 84 62 21 -3 47 -13 57 -22z m-7990 -11 c16 -40 12 -136
-6 -162 -19 -27 -28 -28 -54 -2 -40 40 -17 190 30 190 13 0 24 -9 30 -26z
m-370 -27 c0 -24 -5 -48 -11 -54 -6 -6 -15 -81 -21 -175 -5 -89 -18 -228 -29
-308 -11 -80 -25 -215 -31 -300 -6 -85 -15 -160 -20 -166 -16 -22 -58 -23 -69
-2 -11 21 -1 120 30 293 11 61 21 133 21 161 0 27 5 55 11 61 5 5 12 72 14
150 4 123 19 294 31 361 4 18 11 22 39 22 35 0 35 -1 35 -43z m505 0 c6 -32
-6 -80 -22 -90 -4 -3 -9 -99 -11 -214 -3 -244 -14 -359 -38 -405 -14 -26 -19
-66 -22 -180 -4 -136 -6 -148 -23 -148 -18 0 -18 10 -13 218 3 120 12 249 20
289 8 40 14 105 14 145 1 40 7 141 14 225 12 141 14 153 37 172 33 27 37 26
44 -12z m-5225 13 c0 -5 10 -10 21 -10 21 0 22 -3 15 -79 l-6 -80 32 -3 c32
-3 33 -4 36 -58 5 -77 -7 -162 -21 -157 -12 4 -22 39 -32 121 -6 45 -8 47 -23
33 -9 -9 -19 -44 -23 -79 -7 -60 -7 -63 27 -102 38 -44 39 -48 22 -110 l-12
-44 -15 32 c-9 17 -26 35 -38 41 -28 12 -39 56 -21 87 9 16 13 73 14 188 3
228 3 230 14 230 6 0 10 -4 10 -10z m2550 -70 c0 -116 -22 -325 -37 -355 -12
-23 -16 -78 -20 -240 -2 -115 -6 -221 -9 -234 -5 -24 -6 -24 -24 -5 -17 18
-18 32 -10 229 8 211 15 271 31 281 5 3 9 49 9 102 0 96 14 246 26 284 4 15 9
17 20 7 9 -7 14 -32 14 -69z m3205 -23 c-8 -86 -21 -122 -49 -141 l-23 -15 5
-253 c5 -247 -3 -453 -17 -476 -4 -6 -18 -13 -31 -14 l-25 -3 -3 110 c-2 70 3
139 13 190 14 74 39 360 37 430 0 17 6 48 14 70 10 24 13 52 9 73 -6 33 8 95
28 120 8 10 14 9 29 -5 18 -16 19 -26 13 -86z m-784 83 c26 -14 24 -34 -6 -66
-14 -15 -25 -39 -26 -53 -10 -361 -20 -521 -35 -535 -9 -10 -15 -59 -18 -177
-6 -204 -8 -209 -53 -209 -35 0 -35 0 -30 38 3 20 12 88 21 150 9 62 20 130
25 150 6 20 10 51 9 67 0 17 5 93 12 170 7 77 13 187 15 245 3 99 11 189 20
218 5 15 39 16 66 2z m3083 -3 c13 -9 17 -29 19 -82 1 -39 -2 -86 -6 -105 -10
-44 -58 -84 -88 -75 -18 6 -20 12 -15 43 3 21 10 73 16 117 6 44 13 88 16 98
6 20 33 22 58 4z m5292 5 c33 -20 40 -156 10 -181 -17 -14 -84 7 -91 28 -12
39 -7 111 9 135 16 26 49 34 72 18z m-9529 -39 c4 -16 7 -75 7 -132 l1 -104
-42 -12 c-30 -9 -45 -9 -52 -2 -7 7 -11 56 -11 122 0 127 11 155 60 155 24 0
31 -5 37 -27z m612 -218 c0 -185 -18 -415 -38 -485 -19 -69 -31 -142 -31 -197
0 -34 -4 -53 -10 -51 -17 5 -24 366 -10 463 6 44 15 141 20 215 8 127 21 225
36 273 6 20 7 20 20 -4 10 -18 13 -74 13 -214z m1056 136 c-3 -42 -13 -108
-21 -146 -8 -39 -19 -169 -24 -290 -5 -121 -14 -238 -20 -260 -21 -75 -29
-120 -30 -166 0 -51 -24 -86 -36 -54 -12 31 4 347 21 399 10 35 15 94 16 200
0 137 8 240 25 336 8 47 42 84 61 68 11 -9 13 -29 8 -87z m8142 73 c24 -7 63
-64 63 -92 0 -9 -9 -32 -20 -50 -17 -27 -25 -32 -43 -26 -47 14 -46 16 -29
-63 8 -37 6 -47 -15 -79 -23 -33 -28 -35 -61 -29 -46 8 -52 14 -73 71 -18 46
-18 46 7 86 23 37 28 39 67 36 l42 -3 0 61 c0 37 5 67 14 77 15 19 17 19 48
11z m342 -95 c5 -14 6 -42 2 -60 -6 -31 -10 -34 -46 -37 -37 -2 -42 0 -62 37
-26 45 -20 78 18 105 20 14 25 14 50 -1 16 -10 33 -29 38 -44z m-7974 -53 c8
-100 -9 -296 -28 -331 -6 -11 -14 -103 -18 -205 -3 -102 -10 -193 -14 -202 -5
-14 -11 -15 -30 -6 -25 11 -25 6 -5 168 5 41 12 152 15 245 7 191 30 402 46
422 20 23 27 4 34 -91z m7242 29 c27 -13 32 -22 37 -68 3 -28 3 -65 -2 -82 -7
-27 -13 -30 -51 -33 -29 -2 -52 3 -76 18 -33 21 -35 24 -35 80 0 51 3 61 26
79 32 25 60 26 101 6z m-8705 -82 c22 -27 10 -231 -15 -247 -14 -8 -20 -8 -27
4 -11 16 -14 219 -4 244 8 21 27 20 46 -1z m9320 -13 c23 -28 24 -103 2 -124
-22 -23 -59 -30 -84 -16 -44 24 -65 123 -33 155 23 23 92 14 115 -15z m242
-51 c14 -17 26 -39 26 -49 0 -60 -46 -99 -95 -80 -25 9 -56 63 -50 84 2 6 6
23 9 38 10 46 74 51 110 7z m-10588 -81 c8 -91 -12 -438 -26 -452 -6 -6 -10
-27 -10 -47 0 -37 -19 -57 -42 -43 -14 9 -1 85 20 107 14 15 17 54 23 245 4
125 8 243 8 262 2 59 20 11 27 -72z m9577 76 c27 -13 35 -24 44 -62 9 -41 8
-52 -9 -85 -11 -23 -31 -44 -50 -51 -27 -12 -35 -11 -64 6 -32 19 -45 45 -58
113 -14 74 59 116 137 79z m283 -81 c11 -25 14 -50 9 -82 -10 -64 -20 -74 -56
-56 -61 32 -80 137 -29 162 42 21 60 16 76 -24z m-9198 -80 c-1 -45 -7 -86
-13 -92 -5 -5 -23 -11 -40 -13 -36 -4 -40 8 -30 109 6 66 9 75 33 87 44 23 54
5 50 -91z m9511 39 c22 -44 18 -86 -12 -119 l-19 -22 -33 26 c-38 31 -51 74
-34 121 9 27 16 32 45 32 29 0 36 -5 53 -38z m-11801 -332 c-4 -220 -7 -265
-19 -265 -12 0 -14 40 -14 240 0 132 4 263 9 290 8 46 9 48 18 25 6 -15 8
-131 6 -290z m-1914 64 c11 -8 24 -14 29 -14 12 0 2 -90 -11 -99 -5 -3 -12
-46 -15 -96 -9 -131 -24 -276 -30 -282 -3 -2 -15 -2 -27 2 -20 6 -21 11 -14
63 4 32 7 86 6 122 0 36 4 83 9 104 6 22 10 106 10 188 -2 159 11 222 19 100
4 -58 9 -77 24 -88z m10771 -39 c22 -8 72 -15 110 -15 96 -1 152 -13 180 -40
17 -16 29 -20 47 -14 25 8 112 7 141 -2 13 -4 17 -16 17 -55 0 -69 -13 -91
-46 -79 -14 6 -45 10 -70 10 -40 0 -46 3 -70 40 -15 22 -28 40 -29 40 -1 0
-19 -7 -38 -15 -49 -20 -80 -19 -102 5 -15 17 -32 20 -99 21 -106 1 -128 8
-137 43 -10 35 -2 55 25 66 28 12 25 12 71 -5z m937 -121 c28 -18 -18 -159
-52 -159 -9 0 -27 29 -45 73 -29 73 -29 74 -10 89 19 13 83 12 107 -3z m1366
-18 c88 -18 90 -22 98 -281 l7 -221 -25 -11 c-17 -8 -53 -9 -114 -3 -107 9
-119 14 -132 48 -14 38 -16 460 -3 476 12 14 74 11 169 -8z m-658 -55 c27 -7
54 -22 67 -38 21 -26 30 -26 65 -1 15 11 20 9 34 -11 13 -19 23 -22 53 -19 20
3 47 0 60 -6 20 -9 27 -6 47 17 28 33 44 28 44 -14 0 -50 -15 -69 -48 -59 -15
5 -75 14 -135 19 -59 6 -120 17 -135 25 -15 7 -65 16 -112 20 -47 4 -93 9
-102 12 -20 6 -25 53 -8 70 11 11 96 3 170 -15z m-542 -94 c9 -8 36 -17 60
-20 23 -3 50 -11 58 -18 14 -11 12 -14 -11 -26 -21 -12 -40 -12 -103 -3 -117
18 -161 41 -148 77 5 13 17 15 67 10 33 -3 68 -12 77 -20z m-13341 -151 c92
-17 224 -33 348 -42 49 -4 103 -11 120 -16 16 -5 70 -13 118 -18 113 -13 139
-19 134 -35 -5 -12 33 -12 122 0 19 2 46 -2 64 -12 17 -8 52 -15 78 -15 45 0
81 -19 66 -35 -4 -3 3 -14 14 -24 12 -10 19 -24 17 -31 -3 -8 -13 -3 -28 15
-13 15 -27 27 -31 27 -4 0 5 -13 19 -30 15 -16 32 -30 38 -30 6 0 19 -11 28
-25 14 -21 14 -24 1 -19 -8 4 -15 14 -16 23 0 11 -2 12 -6 3 -3 -8 7 -26 22
-42 22 -23 29 -43 37 -110 9 -68 8 -84 -3 -92 -11 -8 -10 -9 4 -4 10 3 23 6
28 6 5 0 9 19 10 43 1 36 2 38 9 17 7 -21 8 -22 9 -5 1 17 3 17 11 5 7 -11 10
-11 10 -2 0 7 4 11 9 8 14 -9 41 4 41 20 0 7 14 37 31 65 28 45 33 49 47 36
23 -24 27 -110 7 -183 -9 -35 -15 -74 -12 -87 11 -41 -3 -48 -69 -36 -32 6
-68 19 -80 30 -11 11 -23 17 -26 14 -6 -7 -116 -27 -138 -26 -8 0 -58 5 -110
11 -52 5 -112 12 -132 14 -43 4 -142 53 -215 107 -29 22 -55 39 -58 39 -4 0
-54 34 -112 76 -58 41 -112 78 -122 81 -9 3 -41 24 -71 47 -30 23 -69 50 -86
61 -154 97 -222 149 -223 173 -1 15 2 15 96 -2z m10206 -294 c14 -16 15 -37 7
-187 -12 -227 -15 -526 -6 -547 4 -9 22 -20 39 -23 91 -19 138 -39 144 -63 9
-38 -7 -525 -23 -657 -7 -66 -14 -165 -14 -220 0 -103 -26 -531 -35 -575 -2
-14 -11 -167 -20 -340 -17 -362 -20 -421 -35 -585 -5 -66 -14 -255 -20 -420
-5 -165 -14 -343 -19 -395 -6 -52 -18 -214 -26 -360 -9 -146 -20 -294 -25
-330 -5 -36 -14 -150 -20 -255 -10 -174 -23 -353 -51 -685 -8 -94 -15 -129
-28 -143 -14 -15 -45 -19 -194 -27 -97 -5 -183 -12 -189 -17 -19 -12 -631 -12
-645 -1 -24 19 -13 40 57 112 39 40 70 78 70 84 0 6 9 17 19 24 11 8 23 26 26
40 4 16 31 45 66 73 75 59 246 221 322 304 107 118 180 303 191 486 4 61 14
169 21 240 8 72 19 204 25 295 6 91 17 235 25 320 8 85 19 241 25 345 6 105
15 235 20 290 14 144 28 342 40 560 5 105 14 216 19 247 6 32 15 160 21 285 5
125 17 302 25 393 8 91 19 248 25 350 6 102 18 259 26 350 8 91 21 309 29 485
16 350 32 533 47 553 15 17 42 15 61 -6z m-7373 -444 c25 0 64 1 87 2 24 1 51
-5 63 -13 22 -15 22 -15 2 -26 -23 -12 -72 -15 -127 -6 -28 5 -46 2 -60 -8
-20 -16 -20 -17 19 -86 29 -49 75 -55 117 -15 15 14 32 23 38 20 6 -4 10 -81
11 -210 0 -268 12 -251 -183 -251 -80 0 -147 2 -150 5 -3 3 -6 52 -8 110 l-4
105 45 22 c72 36 73 38 67 115 -9 105 -46 134 -66 53 -6 -25 -17 -45 -23 -45
-7 0 -43 12 -80 27 l-68 26 29 18 c34 21 48 69 32 111 -9 23 -7 27 17 37 39
15 90 20 147 13 28 -3 70 -5 95 -4z m1749 1 c17 -6 50 -12 74 -13 42 -1 42 -1
39 -36 -5 -43 -4 -43 -35 -31 -20 8 -29 6 -47 -14 -16 -17 -32 -24 -54 -22
-26 2 -31 -2 -36 -28 -10 -53 -2 -66 36 -59 26 5 35 2 40 -11 9 -21 -11 -65
-30 -65 -17 0 -26 -22 -26 -66 0 -19 -4 -34 -10 -34 -5 0 -10 5 -10 12 0 6 -8
20 -17 30 -13 14 -14 21 -5 30 26 26 14 41 -29 35 -35 -5 -58 -17 -136 -72
-11 -7 -19 -4 -33 13 -15 18 -27 22 -56 20 -47 -4 -64 18 -47 61 8 24 8 34 -3
48 -21 28 -17 33 31 33 25 0 45 -4 45 -10 0 -5 25 -10 56 -10 50 0 55 2 49 18
-4 9 -9 24 -12 33 -7 23 53 136 74 142 35 9 110 7 142 -4z m-1495 -15 c12 -5
13 -11 5 -32 -6 -16 -11 -153 -12 -335 -1 -340 1 -327 -64 -327 -47 0 -56 19
-23 46 28 24 28 24 34 181 10 225 10 248 1 350 -4 50 -5 98 -2 107 6 16 33 21
61 10z m1167 -448 c19 -13 19 -14 -8 -31 -15 -10 -49 -20 -74 -23 -47 -4 -47
-5 -42 -36 4 -28 1 -34 -23 -45 -15 -7 -45 -26 -66 -42 -45 -36 -52 -82 -17
-112 15 -13 19 -27 17 -55 -3 -41 -18 -49 -61 -33 -24 9 -27 16 -27 60 0 27
-4 53 -10 56 -5 3 -10 13 -10 22 0 20 53 95 98 138 17 17 32 41 32 53 0 17 6
22 28 23 27 0 27 1 5 11 -17 8 -23 20 -23 45 0 32 1 33 44 33 25 0 48 5 52 11
4 7 18 -3 36 -25 16 -20 38 -42 49 -50z m7344 -315 l30 -9 -30 -1 c-52 -2
-120 -28 -199 -76 -72 -43 -82 -47 -165 -52 -117 -8 -186 8 -211 49 -25 42
-10 84 33 97 40 12 501 5 542 -8z m-8552 -30 c27 -11 38 -54 41 -176 1 -38 10
-116 19 -172 17 -93 17 -104 2 -140 -10 -24 -15 -60 -13 -99 2 -50 -2 -70 -25
-113 -32 -62 -32 -71 -11 -214 9 -61 14 -149 12 -200 -3 -79 -8 -103 -38 -170
-32 -73 -33 -80 -20 -110 18 -41 16 -98 -3 -128 -26 -40 -31 -101 -13 -157 10
-28 23 -56 31 -62 12 -10 12 -16 -1 -42 -11 -21 -15 -52 -13 -102 2 -39 -1
-78 -6 -86 -5 -8 -14 -42 -20 -75 l-11 -60 53 -49 c43 -41 53 -56 53 -82 0
-41 -17 -53 -36 -25 -8 12 -20 21 -26 21 -6 0 -33 14 -60 30 -26 17 -53 30
-59 30 -5 0 -17 -16 -24 -35 -14 -32 -17 -33 -44 -24 -53 19 -84 8 -106 -36
-12 -22 -28 -51 -38 -65 -11 -15 -17 -43 -17 -75 0 -65 -15 -83 -46 -54 l-22
20 -16 -22 c-22 -32 -20 -65 4 -82 17 -12 19 -19 10 -41 -7 -19 -7 -33 1 -47
10 -20 1 -52 -32 -112 -7 -12 -6 -19 3 -22 96 -30 138 -50 143 -66 9 -27 54
-59 84 -59 15 0 36 -6 46 -14 18 -13 17 -14 -9 -31 -22 -15 -31 -16 -52 -6
-14 6 -36 11 -50 11 -36 0 -29 -40 11 -59 17 -8 38 -18 47 -23 26 -12 96 -10
135 4 42 15 49 7 35 -39 -6 -21 -14 -60 -17 -87 -7 -54 -44 -98 -113 -135 -14
-7 -22 -21 -22 -36 0 -21 -5 -25 -32 -25 -34 0 -68 -24 -69 -49 0 -9 -7 2 -15
23 -14 40 -31 66 -43 66 -18 0 -44 -69 -47 -119 -1 -31 -3 -60 -5 -66 -1 -5 1
-20 5 -32 5 -17 1 -26 -19 -39 -24 -16 -29 -16 -60 -1 -23 11 -36 25 -40 44
-4 15 -16 55 -27 87 -11 33 -20 81 -19 108 1 60 -21 78 -99 78 -53 0 -91 12
-73 23 4 3 25 8 46 12 35 7 37 9 37 45 0 42 19 93 56 151 31 50 34 127 4 154
-19 17 -26 17 -104 5 -118 -18 -149 -10 -182 46 -26 43 -26 47 -14 107 17 89
27 112 44 98 9 -7 15 -42 18 -96 2 -47 7 -87 11 -91 12 -13 74 18 110 55 37
39 45 67 27 101 -7 13 -6 19 5 24 10 3 15 19 15 45 0 56 8 71 39 71 62 1 105
81 89 169 -4 25 -11 71 -14 102 -6 53 -5 56 26 83 l33 27 -33 29 c-46 41 -64
26 -57 -48 4 -42 2 -54 -9 -59 -33 -12 -48 23 -49 109 l0 83 43 20 c40 18 42
22 42 62 0 37 -5 46 -40 74 -27 22 -42 43 -46 66 -4 21 -16 40 -33 51 -14 9
-31 24 -38 33 -7 9 -21 19 -31 21 -17 5 -20 -2 -26 -62 -3 -37 -3 -114 0 -171
5 -86 4 -111 -11 -144 -9 -22 -21 -62 -25 -90 -5 -27 -14 -77 -20 -110 -7 -33
-9 -86 -7 -118 5 -59 -7 -117 -24 -117 -5 0 -14 12 -21 28 -15 38 8 435 28
474 11 22 14 79 14 265 0 131 5 346 11 477 9 196 14 244 29 268 13 22 15 39 9
77 -7 45 -12 216 -10 316 1 36 14 132 27 195 13 61 22 -19 29 -250 9 -300 11
-327 20 -368 7 -34 9 -35 40 -23 14 6 28 2 44 -11 21 -16 27 -17 45 -5 11 8
24 22 30 33 6 10 18 31 27 45 26 39 40 132 45 307 7 215 15 287 33 287 9 0 19
-21 27 -63 13 -61 54 -130 80 -131 14 -1 44 131 45 199 0 30 5 84 12 120 13
70 19 76 104 101 35 10 45 18 57 51 9 21 16 45 16 53 0 19 13 25 68 35 26 4
50 8 54 9 4 0 18 -3 31 -8z m29431 -144 c22 -22 51 -21 105 3 l43 20 28 -23
c15 -12 36 -27 46 -34 18 -11 18 -11 -1 -19 -51 -19 -74 -76 -42 -103 20 -16
103 1 98 20 -24 89 -25 101 -6 115 27 20 39 18 69 -12 24 -25 26 -33 26 -111
0 -75 -2 -84 -17 -81 -10 2 -25 18 -34 35 -18 36 -29 33 -29 -7 0 -48 -20 -53
-89 -22 -57 25 -62 30 -68 64 -5 33 -28 68 -37 57 -2 -2 -9 -24 -17 -49 -19
-60 -41 -59 -56 2 -16 66 -24 77 -49 68 -19 -8 -20 -12 -10 -60 12 -58 3 -71
-40 -62 -17 3 -31 17 -42 39 -16 33 -16 36 3 49 10 8 27 14 37 14 22 0 22 3 3
40 -19 37 -38 38 -53 5 -17 -38 -32 -30 -32 17 0 32 6 49 26 69 l26 27 48 -22
c26 -12 55 -30 64 -39z m491 -102 c-15 -60 -16 -91 -2 -109 14 -19 15 -19 46
3 38 28 40 56 5 93 l-27 27 27 12 c19 9 35 10 54 3 25 -9 27 -14 29 -64 1 -30
4 -71 8 -90 9 -46 -15 -81 -42 -63 -47 33 -82 42 -112 30 -25 -9 -37 -8 -68 7
-34 16 -36 19 -18 26 41 15 48 35 40 111 -6 55 -4 73 6 80 19 11 60 -39 54
-66z m-8194 3 c16 -27 19 -44 15 -88 -6 -61 -22 -80 -61 -72 -34 6 -35 10 -39
94 -3 91 -1 98 35 98 22 0 34 -8 50 -32z m8889 -172 c24 -50 29 -51 97 -4 58
39 79 37 90 -9 8 -33 13 -38 48 -46 54 -11 82 -2 89 27 5 20 14 26 52 32 63 9
126 0 173 -24 37 -19 41 -20 50 -5 11 21 65 21 89 0 10 -9 33 -22 50 -28 38
-13 48 -50 38 -136 -4 -36 -2 -60 5 -69 9 -11 6 -14 -20 -14 -26 0 -31 4 -31
23 0 42 -23 61 -63 54 -47 -7 -71 14 -63 55 7 36 -11 37 -39 3 -19 -23 -23
-24 -57 -13 -39 12 -101 2 -98 -17 0 -5 17 -16 36 -22 30 -11 41 -10 67 3 28
15 31 15 44 -2 7 -10 13 -23 13 -29 0 -51 -135 -44 -194 10 -32 30 -52 32 -61
6 -12 -39 -61 -34 -103 11 l-22 25 25 11 c25 12 55 7 55 -9 0 -5 7 -9 15 -9
18 0 20 40 3 62 -7 9 -25 18 -40 22 -16 3 -39 9 -53 12 -14 4 -32 1 -40 -6
-18 -15 -20 -61 -3 -78 9 -9 7 -12 -10 -12 -18 0 -22 6 -22 29 0 36 -15 48
-67 57 -39 6 -43 4 -61 -25 -16 -26 -21 -29 -26 -16 -8 22 -8 160 1 168 10 10
10 10 33 -37z m1128 -125 c-3 -36 -3 -36 -48 -34 -25 0 -68 7 -97 14 -46 11
-54 11 -71 -4 -26 -23 -40 -21 -54 8 -8 19 -8 31 0 50 10 21 19 25 52 25 22 0
51 -6 63 -14 20 -13 27 -12 72 10 l50 24 18 -22 c12 -14 17 -34 15 -57z m141
26 c7 -13 11 -39 9 -58 -2 -29 -7 -34 -30 -37 -26 -3 -28 -7 -28 -46 0 -26 6
-48 15 -56 15 -13 35 -6 35 13 0 7 10 32 22 57 12 25 25 61 28 80 4 27 10 35
25 35 19 0 20 -7 20 -122 0 -120 1 -122 28 -147 31 -28 32 -59 4 -64 -11 -2
-20 6 -26 22 -6 13 -20 30 -33 37 -13 7 -26 17 -30 22 -4 6 -10 -2 -13 -19
-11 -48 -14 -54 -30 -60 -24 -10 -43 14 -51 61 -7 47 -16 59 -51 68 -26 6 -29
-4 -11 -32 9 -15 8 -24 -5 -45 -9 -14 -26 -30 -36 -35 -16 -9 -21 -5 -36 27
-24 51 -41 62 -97 62 -33 0 -50 5 -54 15 -3 8 -21 23 -40 34 -40 24 -45 56
-15 92 19 23 20 23 26 4 15 -47 32 -68 67 -80 33 -11 39 -10 54 6 22 24 27 24
39 -3 7 -17 20 -24 49 -26 l39 -3 -6 40 c-8 66 -1 80 39 74 l35 -6 -2 41 c-4
64 35 96 60 49z m-30338 -130 c39 -26 50 -63 22 -70 -10 -3 -35 -8 -55 -11
-31 -6 -40 -13 -58 -51 -12 -25 -24 -45 -26 -45 -23 0 -74 33 -79 52 -10 29
-23 38 -57 38 -17 0 -31 -7 -38 -20 -9 -17 -17 -19 -49 -14 -37 6 -40 5 -56
-30 -10 -21 -23 -35 -29 -33 -48 18 -54 17 -96 -18 -48 -40 -41 -38 -77 -24
-35 13 -53 -8 -53 -65 0 -92 -42 -84 -47 9 -1 30 -7 64 -13 74 -11 21 -8 23
56 36 17 3 40 18 52 35 27 36 82 56 113 40 28 -16 92 12 108 46 7 17 19 24 38
24 16 0 41 7 56 15 22 11 38 12 70 5 64 -15 96 -12 124 10 33 26 52 25 94 -3z
m9865 -5 c6 -13 17 -29 23 -35 6 -6 11 -18 11 -27 0 -9 9 -33 20 -55 19 -36
20 -59 20 -305 0 -146 -4 -281 -10 -300 -5 -19 -12 -125 -14 -235 -3 -110 -9
-213 -14 -230 l-9 -30 -14 28 c-9 16 -33 38 -55 51 -44 24 -56 58 -41 116 10
38 3 552 -8 569 -3 6 -12 11 -19 11 -19 0 -27 66 -20 164 6 70 4 90 -10 111
-9 14 -23 25 -31 25 -14 0 -45 36 -45 53 0 4 11 18 25 31 l25 23 -30 13 c-18
8 -30 20 -30 31 0 17 8 19 107 16 101 -2 108 -3 119 -25z m21503 -81 c8 -5 11
-16 7 -26 -5 -13 -16 -16 -53 -14 -38 3 -49 0 -51 -13 -2 -12 7 -19 33 -24 49
-9 83 8 87 43 3 28 3 28 85 30 81 1 82 1 92 -27 11 -32 6 -40 -22 -40 -24 0
-57 -27 -57 -47 0 -7 -4 -13 -9 -13 -16 0 -20 -29 -9 -60 7 -20 15 -29 24 -26
8 3 20 8 27 11 19 8 66 -45 73 -83 5 -25 3 -32 -9 -32 -9 0 -19 4 -22 10 -13
22 -128 40 -253 41 -35 0 -34 -2 -82 117 -20 50 -21 81 -4 142 4 17 119 26
143 11z m-14697 -92 c29 -13 63 -110 49 -137 -5 -9 -12 -25 -15 -34 -7 -23
-51 -33 -82 -19 -23 10 -24 15 -24 96 0 88 1 90 47 104 1 1 12 -4 25 -10z
m-19302 -148 c5 -11 10 -30 10 -42 0 -12 5 -37 12 -55 10 -27 8 -35 -11 -62
-23 -33 -74 -51 -95 -33 -19 16 -29 104 -16 152 15 55 78 80 100 40z m3431
-115 c43 21 57 23 141 19 51 -2 109 -8 128 -13 19 -5 46 -5 60 -2 25 7 147 3
208 -6 25 -4 37 -13 49 -38 22 -47 2 -88 -47 -96 -19 -4 -46 -12 -58 -19 -29
-16 -69 -7 -99 21 -21 20 -24 20 -41 5 -26 -24 -38 -21 -64 13 -23 32 -64 40
-86 18 -7 -7 -12 -38 -12 -69 0 -35 -5 -61 -12 -66 -20 -12 -50 -4 -76 20 -17
15 -36 21 -76 22 -45 0 -59 5 -89 32 -20 17 -45 34 -56 38 -12 3 -21 10 -21
16 0 10 -67 55 -120 81 l-35 16 27 12 c21 10 36 9 79 -3 50 -15 54 -15 78 4
l25 20 24 -25 25 -25 48 25z m31218 -165 c27 -29 28 -34 34 -180 4 -95 11
-162 21 -184 14 -34 15 -35 59 -30 25 3 58 2 74 -2 25 -6 26 -8 9 -17 -10 -6
-43 -8 -72 -6 -51 4 -55 3 -60 -19 -4 -13 0 -33 8 -45 13 -19 12 -24 -4 -40
-22 -22 -22 7 -3 -543 18 -555 19 -562 40 -585 16 -17 16 -21 1 -42 -13 -19
-16 -56 -16 -234 0 -117 -2 -219 -5 -226 -5 -11 -19 -13 -68 -7 -101 12 -104
18 -111 251 -3 106 -8 420 -11 698 -3 278 -8 530 -11 560 -2 30 -7 89 -9 130
-31 599 -35 550 46 550 43 0 55 -4 78 -29z m-31780 -25 c13 -16 9 -26 -37 -98
-19 -29 -23 -45 -18 -73 3 -19 9 -50 12 -69 4 -21 0 -44 -10 -64 -9 -17 -16
-42 -16 -56 0 -29 -33 -56 -70 -56 -33 0 -87 33 -95 59 -8 27 -16 26 -38 -4
-17 -24 -17 -25 8 -41 34 -22 31 -34 -8 -34 -21 0 -36 7 -44 19 -17 28 -78 43
-110 28 -40 -18 -56 12 -49 91 4 34 10 72 15 85 12 32 75 95 106 107 34 13 82
13 90 0 12 -20 41 -9 78 30 23 24 46 40 61 40 12 0 36 11 52 25 33 28 56 32
73 11z m32291 -348 c18 -25 25 -51 32 -131 11 -119 7 -127 -67 -127 -63 0 -74
10 -82 79 -5 47 -4 51 15 51 22 0 55 37 46 52 -11 17 -55 8 -62 -13 -7 -18
-10 -16 -20 20 -10 32 -10 46 -1 63 17 32 28 38 75 38 34 0 44 -5 64 -32z
m275 -92 c163 -28 163 -28 193 -67 l24 -29 -61 0 c-36 0 -80 8 -108 19 -27 10
-83 22 -126 26 -71 7 -79 10 -92 35 -25 48 -20 48 170 16z m-35344 -59 c4 -15
3 -85 -2 -155 -7 -101 -12 -130 -26 -139 -24 -19 -32 -16 -43 12 -15 39 2 294
21 306 23 15 42 6 50 -24z m3907 -79 l-3 -73 -50 -8 c-104 -18 -118 -37 -42
-58 45 -13 87 -45 87 -66 0 -7 -11 -20 -24 -28 -20 -13 -32 -14 -63 -6 -46 12
-79 53 -106 126 l-18 50 31 28 c17 15 40 27 53 27 12 0 33 9 47 20 14 11 31
20 37 20 7 0 18 9 25 20 22 35 29 22 26 -52z m-425 -54 c-19 -40 -21 -41 -89
-28 -29 6 -32 4 -38 -26 -5 -29 -9 -31 -32 -26 -21 6 -32 -1 -71 -44 -45 -50
-67 -61 -76 -37 -6 16 18 63 35 70 7 2 24 25 36 51 19 38 28 46 51 46 15 0 32
-5 39 -12 9 -9 12 -9 12 0 0 7 7 12 16 12 8 0 28 14 43 30 15 17 41 34 57 39
25 7 29 5 32 -15 2 -12 -5 -39 -15 -60z m1574 -81 c70 -6 86 -18 81 -60 -3
-28 -3 -28 -85 -31 -93 -3 -118 5 -128 45 -5 21 -1 31 17 45 13 10 30 15 38
12 8 -3 43 -8 77 -11z m-3797 -105 c0 -40 -3 -49 -12 -40 -7 7 -25 12 -40 12
-26 0 -28 -3 -28 -39 0 -52 15 -60 50 -26 l29 28 11 -27 c14 -37 4 -49 -36
-43 -28 5 -34 2 -40 -16 -11 -37 -35 -57 -69 -57 -18 0 -38 -7 -45 -15 -7 -8
-16 -15 -21 -15 -15 0 -10 27 5 33 8 3 16 16 18 29 2 15 15 28 36 38 28 12 33
19 31 45 -3 49 0 65 14 65 13 0 28 24 41 63 3 10 15 17 31 17 24 0 25 -3 25
-52z m1268 -322 c21 -26 40 -143 35 -208 -5 -65 -5 -68 26 -99 27 -27 37 -31
66 -26 35 6 35 6 35 -33 0 -46 5 -44 -160 -66 -132 -17 -200 -13 -221 13 -17
20 -39 82 -39 109 0 29 47 58 87 56 28 -2 32 1 38 30 4 18 14 40 21 49 8 9 13
31 12 50 -3 30 1 36 32 51 44 22 44 38 2 58 l-33 16 28 10 c31 11 58 8 71 -10z
m1238 -531 c20 -51 -27 -89 -124 -102 -29 -3 -57 -15 -72 -29 -14 -12 -47 -28
-75 -35 -27 -6 -57 -17 -65 -24 -8 -7 -37 -18 -64 -25 -30 -8 -63 -27 -86 -49
-36 -34 -40 -35 -68 -24 -46 19 -62 47 -48 85 6 17 20 34 31 39 39 15 186 59
200 59 31 0 190 61 211 81 37 34 150 51 160 24z m-1278 -121 c18 -4 34 -14 37
-25 7 -23 40 -24 75 -4 44 25 105 19 144 -15 19 -17 51 -36 73 -44 32 -11 39
-18 44 -49 3 -19 12 -46 21 -59 8 -12 23 -47 32 -76 17 -49 17 -55 2 -77 -19
-29 -41 -31 -135 -11 -36 8 -99 19 -140 25 -40 6 -77 14 -82 17 -4 2 -4 16 1
30 14 37 11 83 -9 133 l-18 44 -7 -29 c-4 -16 -13 -42 -21 -59 -8 -16 -17 -47
-20 -67 -8 -48 -33 -62 -99 -55 -68 7 -196 46 -202 62 -3 7 6 41 20 75 14 35
26 76 26 92 0 16 7 44 14 63 l15 35 99 0 c55 0 113 -3 130 -6z m1059 -99 c2
-1 4 -31 5 -66 l3 -64 -109 2 c-120 3 -145 13 -98 37 16 8 32 22 35 30 3 8 20
17 37 21 18 4 41 18 53 31 15 18 26 22 46 17 14 -3 27 -7 28 -8z m-14 -219
c39 -18 33 -123 -9 -167 -24 -25 -25 -28 -10 -56 8 -16 35 -50 60 -76 25 -25
46 -53 46 -62 0 -8 9 -15 20 -15 15 0 22 -9 27 -30 3 -16 12 -30 19 -30 8 0
19 -11 24 -24 5 -13 18 -27 28 -31 11 -3 23 -16 26 -30 3 -13 12 -25 19 -27
20 -5 147 -143 147 -160 0 -9 -6 -18 -14 -21 -15 -6 -36 11 -36 29 0 6 -11 19
-25 28 -14 9 -25 23 -25 31 0 7 -9 17 -20 20 -11 3 -20 15 -20 26 0 12 -10 23
-25 29 -14 5 -25 16 -25 25 0 8 -11 21 -25 27 -14 6 -25 18 -25 27 -1 21 -20
45 -42 54 -10 3 -20 18 -24 32 -3 14 -12 25 -20 25 -7 0 -16 11 -20 25 -4 16
-13 25 -25 25 -14 0 -21 9 -25 30 -4 19 -13 30 -24 30 -9 0 -22 11 -28 25 -6
14 -18 25 -25 25 -7 0 -40 20 -72 45 -32 25 -70 48 -84 51 -59 13 -77 22 -88
45 -17 33 12 82 51 89 38 7 246 -5 269 -14z m1317 2 c0 -7 3 -23 6 -34 4 -17
-7 -34 -50 -78 -57 -57 -68 -86 -46 -126 9 -17 6 -20 -25 -26 -34 -6 -45 -5
-132 14 -36 8 -43 7 -43 -6 0 -11 8 -13 35 -9 32 5 35 4 35 -19 0 -23 -3 -24
-66 -24 l-65 0 3 33 c2 24 8 33 26 35 13 2 22 10 22 21 0 10 9 26 20 36 11 10
25 32 31 50 9 25 21 35 49 44 20 6 45 20 55 31 10 11 27 20 37 20 28 0 58 18
58 35 0 9 10 15 25 15 14 0 25 -6 25 -12z m-2595 -224 c8 -53 31 -69 53 -36
11 17 24 22 58 22 43 0 44 -1 44 -34 0 -34 0 -34 63 -45 34 -6 100 -16 147
-21 47 -5 114 -13 150 -19 36 -5 137 -11 225 -13 l159 -3 9 35 c26 105 27 108
52 114 75 19 206 -66 266 -171 31 -55 32 -57 21 -117 -7 -34 -17 -92 -22 -130
-17 -112 -7 -106 -185 -106 -145 0 -155 1 -165 20 -6 12 -8 30 -5 41 11 33
-23 107 -56 124 -30 16 -32 15 -29 -23 1 -13 -3 -28 -8 -35 -5 -7 -15 -34 -22
-60 -14 -52 -32 -67 -78 -67 -43 0 -56 20 -42 67 13 44 10 138 -5 138 -5 0
-13 -27 -17 -60 -4 -33 -14 -65 -22 -71 -8 -5 -18 -23 -22 -38 -7 -29 -37 -46
-79 -46 -24 0 -28 10 -37 89 -5 44 -25 33 -39 -21 l-14 -53 -50 0 -50 0 -3 42
c-2 23 2 68 7 99 9 47 8 62 -4 80 -14 21 -13 22 31 33 67 17 113 -17 123 -91
9 -65 27 -57 40 16 20 116 7 126 -176 126 -77 0 -119 5 -163 20 -42 14 -108
23 -218 30 -203 13 -222 16 -294 46 -52 22 -67 24 -116 17 -36 -5 -100 -4
-172 3 -63 7 -122 13 -130 14 -9 1 -6 5 8 10 12 5 22 16 22 23 0 8 10 34 23
58 22 41 26 44 70 47 58 4 82 -9 107 -57 30 -59 46 -63 330 -73 14 -1 42 2 63
6 32 6 41 13 54 44 8 20 26 49 41 64 32 35 47 24 57 -38z m-650 -176 c24 -7
47 -18 50 -26 3 -8 0 -42 -6 -76 -6 -33 -8 -86 -5 -117 l7 -55 -36 -17 c-36
-17 -121 -23 -141 -9 -22 15 -23 45 -4 145 25 139 35 158 82 166 4 0 28 -4 53
-11z m5514 -47 c6 -21 20 -46 31 -56 11 -10 20 -26 20 -35 0 -23 -64 -52 -92
-41 -13 4 -44 11 -70 15 -25 4 -49 13 -51 20 -9 22 -55 25 -73 5 -22 -24 -35
-24 -68 2 -25 20 -38 21 -217 20 -105 -1 -218 1 -252 5 l-61 7 55 14 c54 14
282 13 386 -3 33 -5 52 -1 85 16 41 21 42 21 67 2 15 -11 51 -21 84 -25 50 -5
61 -3 79 15 14 14 19 30 16 52 -3 30 -2 32 23 28 21 -3 29 -12 38 -41z m-7061
15 c35 -8 73 -22 85 -32 113 -94 138 -144 73 -144 -19 0 -63 7 -99 15 -35 8
-111 16 -170 19 -82 3 -113 8 -134 22 -16 10 -40 17 -54 15 -30 -3 -39 13 -32
53 9 46 104 76 133 41 6 -8 22 -17 33 -21 12 -4 35 -17 50 -30 32 -27 122 -36
115 -11 -3 6 -15 13 -29 15 -53 6 -69 13 -69 30 0 17 18 42 30 42 3 -1 33 -7
68 -14z m1730 -8 c15 -15 16 -178 1 -230 -7 -26 -19 -43 -40 -54 -28 -14 -33
-14 -56 1 -21 14 -24 22 -19 53 3 21 8 78 12 127 3 50 7 96 9 103 5 16 77 16
93 0z m220 -6 c10 -7 10 -15 2 -36 -5 -15 -10 -46 -10 -69 0 -30 -6 -48 -20
-60 -11 -9 -20 -25 -20 -35 0 -42 -22 -82 -44 -82 -28 0 -52 19 -59 47 -5 22
15 121 28 144 5 7 8 28 7 48 -1 19 4 39 11 43 16 10 89 10 105 0z m151 -1 c12
-8 13 -22 2 -98 -18 -127 -17 -125 -50 -161 -25 -27 -35 -31 -58 -26 -15 4
-31 9 -35 11 -12 7 -9 88 3 100 7 7 12 47 13 92 1 62 4 81 16 85 29 7 95 6
109 -3z m195 -32 c13 -19 12 -27 -15 -82 -19 -40 -29 -78 -29 -107 0 -54 -13
-70 -55 -70 -62 0 -68 33 -31 174 13 48 30 92 37 97 26 17 77 10 93 -12z m160
-4 c13 -13 13 -19 0 -50 -8 -19 -14 -47 -15 -62 -1 -44 -33 -125 -55 -139 -28
-18 -90 8 -79 33 15 35 33 148 28 174 -5 28 9 45 47 52 47 8 59 7 74 -8z
m3836 -460 c10 -12 7 -20 -21 -46 -52 -48 -114 -63 -161 -38 -17 9 -19 17 -13
47 4 20 12 40 18 44 7 4 46 8 88 8 56 0 80 -4 89 -15z m8565 -156 c94 -5 247
-13 340 -19 94 -5 355 -17 580 -25 226 -8 487 -20 580 -26 334 -20 532 -28
700 -29 235 -1 534 -24 573 -44 25 -13 34 -13 58 -2 24 10 83 11 334 0 168 -7
350 -17 405 -23 95 -10 520 -28 797 -33 79 -2 131 -7 138 -14 20 -20 0 -55
-39 -72 -20 -10 -50 -27 -66 -40 -17 -13 -57 -41 -90 -62 -33 -22 -78 -53
-100 -70 -22 -16 -56 -37 -75 -46 -19 -9 -37 -19 -40 -23 -4 -5 -83 -60 -169
-117 -9 -6 -42 -28 -74 -50 -126 -84 -143 -94 -173 -109 -17 -8 -34 -21 -38
-30 -3 -8 -18 -21 -33 -28 -30 -13 -203 -125 -313 -202 -36 -26 -87 -60 -115
-77 -132 -82 -145 -90 -235 -153 -36 -25 -80 -55 -97 -66 -18 -12 -33 -25 -33
-30 0 -5 -15 -9 -34 -9 -25 0 -40 -7 -53 -24 -25 -34 -174 -140 -487 -346 -13
-8 -36 -24 -52 -34 -16 -11 -58 -39 -94 -63 -36 -23 -74 -49 -85 -57 -11 -7
-81 -53 -155 -101 -74 -49 -150 -101 -168 -117 -18 -15 -39 -28 -47 -28 -8 0
-29 18 -47 41 -142 176 -225 262 -338 349 -18 14 -38 31 -45 38 -8 7 -33 21
-57 32 -24 11 -61 32 -83 45 -22 14 -60 32 -85 41 -25 9 -66 25 -91 35 -118
47 -518 47 -622 0 -24 -11 -56 -23 -72 -27 -34 -8 -210 -95 -270 -133 -75 -48
-158 -116 -269 -220 l-111 -103 -80 6 c-44 4 -96 11 -115 16 -19 5 -105 14
-190 20 -85 6 -191 15 -235 21 -44 5 -141 16 -215 24 -74 8 -189 22 -255 30
-66 8 -190 19 -275 26 -137 10 -157 14 -173 33 -18 19 -19 41 -15 353 2 256 0
335 -9 344 -11 11 -13 10 -14 -1 0 -8 -6 -161 -12 -340 l-12 -325 -28 -13
c-23 -11 -61 -11 -234 3 -113 8 -247 22 -297 30 -50 8 -131 17 -181 21 -49 4
-96 11 -103 17 -10 8 -12 35 -7 116 6 92 4 110 -12 140 -30 53 -93 72 -218 66
-126 -7 -185 -14 -208 -27 -24 -12 -37 -49 -48 -132 -13 -100 -26 -116 -97
-116 -31 0 -95 7 -142 15 -47 8 -132 16 -189 19 l-103 4 -42 39 c-22 22 -54
47 -69 57 -16 9 -36 24 -45 32 -15 14 -120 96 -182 142 -14 11 -39 26 -57 35
-17 9 -33 20 -35 25 -1 4 -41 35 -88 70 -47 34 -94 70 -105 80 -11 10 -37 29
-57 42 -20 14 -41 34 -47 46 -11 24 -15 21 104 74 28 13 96 44 152 71 57 27
108 49 113 49 6 0 57 22 113 49 56 26 113 52 126 56 14 4 38 16 55 26 17 11
38 19 47 19 9 0 36 11 60 23 24 13 62 30 84 37 22 7 45 16 50 20 6 4 28 13 50
20 22 7 50 18 62 26 12 7 43 18 69 24 26 6 71 22 101 35 29 14 57 25 61 25 4
0 19 6 34 14 15 8 53 22 85 31 32 9 63 21 68 25 6 5 42 18 80 29 39 11 108 31
155 46 47 15 114 35 150 46 36 10 92 27 125 38 89 28 339 100 425 121 41 10
91 25 110 33 19 8 70 21 112 28 75 12 79 12 108 -9 24 -18 30 -19 30 -7 0 8 9
24 20 35 42 42 110 2 150 -87 11 -24 22 -43 26 -43 13 0 44 33 44 47 0 20 18
16 25 -7 3 -11 16 -22 28 -24 12 -2 43 -8 68 -13 28 -6 56 -6 70 0 13 5 49 6
79 3 41 -5 61 -3 75 8 18 13 23 12 46 -11 26 -24 28 -24 59 -8 28 14 31 20 25
43 -10 39 -9 82 2 93 5 5 43 15 84 23 41 7 88 21 104 30 17 9 37 16 45 16 9 0
33 9 55 20 21 11 54 25 74 31 20 6 47 18 61 27 58 37 107 41 360 36 135 -3
322 -9 415 -15z m-15256 -159 c12 -22 25 -40 29 -40 4 0 15 14 24 30 36 64
119 57 154 -12 9 -18 18 -35 20 -37 2 -2 23 13 48 33 24 20 54 36 65 36 27 0
59 -32 78 -78 l15 -36 16 22 c28 35 84 72 112 72 16 0 37 -12 55 -30 64 -67
34 -227 -56 -300 -53 -42 -53 -73 2 -100 36 -19 40 -24 34 -48 -10 -43 -17
-45 -108 -43 -56 1 -96 33 -98 78 l-1 28 -7 -25 c-5 -17 -22 -32 -54 -48 -43
-20 -50 -21 -81 -8 -24 10 -37 24 -46 50 -6 20 -15 36 -19 36 -4 0 -20 -13
-36 -30 -30 -31 -79 -46 -113 -36 -11 4 -27 25 -36 47 l-16 40 -56 -36 c-40
-26 -64 -35 -80 -31 -82 21 -84 298 -4 440 54 94 115 104 159 26z m3927 -9
c27 -5 121 -17 209 -26 117 -12 167 -21 185 -34 19 -13 40 -16 90 -14 87 5
150 -5 157 -23 12 -32 -12 -37 -114 -25 -54 7 -128 12 -165 11 -37 -1 -84 3
-105 9 -21 5 -94 15 -163 21 -142 12 -240 29 -240 40 0 5 -3 15 -6 23 -9 26
65 34 152 18z m16439 -202 c83 -4 188 -13 235 -18 47 -5 159 -15 250 -21 169
-11 223 -13 730 -29 500 -17 596 -24 660 -55 54 -25 60 -25 160 -18 58 5 294
5 525 0 376 -8 426 -11 476 -29 30 -10 65 -19 77 -19 11 0 23 -4 26 -8 11 -18
-7 -51 -35 -62 -16 -7 -29 -17 -29 -22 0 -5 -18 -26 -40 -45 -31 -28 -40 -44
-40 -69 0 -45 -9 -64 -31 -64 -16 0 -19 8 -19 45 0 56 -28 98 -84 127 -31 16
-43 17 -65 9 -39 -16 -94 -21 -206 -20 -185 2 -172 -1 -186 44 -16 53 -42 75
-90 75 -40 0 -89 -17 -89 -32 0 -4 -15 -8 -34 -8 -28 0 -39 -7 -57 -32 -13
-18 -27 -36 -31 -39 -5 -3 -17 -27 -27 -54 -10 -27 -21 -43 -25 -36 -10 15
-51 14 -63 -1 -21 -27 -40 -152 -26 -171 5 -6 8 -25 8 -42 -1 -16 2 -35 8 -42
14 -19 26 -83 15 -83 -5 0 -7 -4 -3 -10 11 -18 -7 -57 -30 -68 -17 -8 -25 -8
-27 0 -5 15 -37 3 -44 -17 -4 -8 -3 -22 0 -31 5 -13 9 -14 21 -4 13 11 15 7
15 -29 0 -22 -4 -41 -10 -41 -5 0 -10 11 -10 25 0 20 -5 25 -25 25 -14 0 -28
7 -31 15 -7 16 -69 55 -89 55 -8 0 -22 -12 -32 -26 -13 -21 -22 -25 -45 -20
-24 5 -30 2 -39 -22 -13 -34 -57 -71 -85 -72 -11 0 -30 10 -42 23 -12 12 -32
33 -45 45 l-24 24 -7 -29 c-12 -44 -25 -53 -77 -53 -72 0 -99 16 -100 59 -1
20 -5 50 -8 66 -6 26 -8 21 -15 -32 -7 -54 -12 -65 -34 -75 -18 -9 -29 -24
-33 -47 -4 -19 -14 -38 -23 -43 -20 -12 -20 -20 3 -71 11 -23 22 -59 26 -80
13 -70 30 -55 41 36 5 43 3 56 -14 77 l-20 24 22 11 c11 6 25 25 31 43 10 35
25 43 25 13 0 -25 45 -61 76 -61 32 0 38 -15 11 -27 -15 -7 -28 -27 -36 -53
-12 -39 -11 -43 9 -57 16 -12 20 -21 15 -44 -4 -16 -3 -38 0 -50 l7 -21 20 22
c19 20 19 22 3 40 -26 29 -4 119 40 165 41 42 77 45 118 11 l29 -23 46 44 c25
25 56 49 68 54 16 5 25 20 30 46 l7 38 9 -32 c8 -31 3 -50 -27 -103 -20 -34
-19 -115 2 -151 16 -27 16 -29 -2 -49 -16 -18 -17 -25 -7 -53 6 -18 14 -52 18
-77 7 -46 28 -80 49 -80 7 0 16 -20 20 -47 4 -26 16 -60 27 -75 13 -19 18 -40
16 -65 -3 -34 0 -39 35 -59 31 -17 35 -23 21 -28 -16 -6 -577 -8 -729 -2 -38
1 -114 3 -167 4 -96 2 -98 3 -104 27 -8 33 16 61 60 69 22 4 37 15 44 31 11
23 12 24 43 8 31 -16 33 -15 47 5 8 12 23 22 34 22 12 0 24 12 33 33 7 17 23
40 35 50 19 16 21 25 15 65 -8 62 -24 112 -35 112 -17 0 -33 -44 -34 -90 -1
-33 -5 -45 -16 -45 -18 0 -27 53 -36 208 -4 59 -10 107 -15 107 -4 0 -13 -19
-19 -41 -9 -31 -8 -49 0 -70 18 -43 8 -153 -16 -186 -41 -55 -135 -37 -149 27
-4 16 -9 30 -11 30 -15 0 -57 -37 -70 -61 -13 -25 -20 -29 -59 -29 -74 0 -73
38 4 93 l48 35 -5 131 c-3 96 -1 135 8 146 15 19 44 19 59 2 6 -8 23 -12 41
-9 l30 4 -6 -93 c-4 -52 -11 -99 -16 -106 -7 -8 -5 -17 4 -26 8 -8 20 -33 28
-56 11 -33 18 -41 34 -39 28 4 36 44 36 185 0 86 4 124 13 130 6 4 37 10 67
13 l55 5 12 58 c11 50 11 65 -2 103 -8 25 -15 53 -15 64 0 10 -5 22 -12 26
-19 12 -38 -28 -38 -83 0 -63 -10 -70 -74 -54 -35 9 -50 8 -72 -4 -36 -18 -54
-5 -54 42 0 19 -5 43 -10 53 -10 19 -12 18 -47 -5 -19 -14 -39 -25 -43 -25 -4
0 -21 -23 -39 -50 -33 -51 -51 -57 -51 -16 0 27 -24 51 -40 41 -5 -3 -10 -13
-10 -20 0 -22 -32 -34 -76 -28 -34 5 -43 11 -69 56 -36 61 -49 67 -63 30 -6
-15 -23 -41 -36 -58 -24 -28 -31 -30 -93 -30 -57 0 -68 -3 -71 -17 -2 -10 0
-18 5 -18 4 0 28 -19 53 -41 l45 -41 -29 -23 c-47 -37 -86 -145 -52 -145 13 0
26 -20 26 -41 0 -18 -41 -49 -65 -49 -51 0 -36 -108 21 -145 13 -8 23 -19 22
-23 -1 -4 1 -21 4 -38 5 -22 16 -35 36 -43 43 -18 74 -55 75 -91 l2 -32 -523
-1 c-301 -1 -526 2 -529 7 -6 9 -6 25 7 376 5 118 13 352 19 520 6 168 15 328
20 355 5 28 13 124 17 215 3 98 11 171 18 179 9 12 49 13 236 6 124 -4 293
-11 375 -16z m-19033 -21 c22 -6 45 -20 51 -29 9 -14 20 -16 57 -12 58 7 68
-5 80 -88 5 -34 13 -66 19 -72 14 -14 29 -1 36 33 3 16 22 49 41 74 31 41 37
44 55 33 11 -6 22 -23 26 -36 5 -19 7 -21 14 -8 13 22 85 57 120 57 42 0 95
-24 109 -50 7 -13 9 -45 4 -90 -3 -38 -3 -90 1 -117 l8 -48 8 35 c5 19 9 70
11 112 2 57 7 78 16 78 8 0 24 8 37 18 18 15 39 18 99 17 121 -2 129 -19 111
-237 -7 -85 -7 -88 13 -88 12 0 27 10 33 23 7 12 30 43 51 69 48 56 48 88 3
100 -42 11 -56 33 -43 68 13 37 33 43 121 35 95 -9 102 -11 115 -41 17 -36 17
-37 -35 -95 -27 -28 -55 -64 -65 -79 -9 -15 -21 -31 -27 -34 -20 -13 1 -36 43
-47 22 -6 44 -16 48 -23 14 -20 8 -53 -11 -70 -17 -16 -32 -17 -118 -11 -111
8 -143 22 -143 63 -1 25 -1 26 -12 7 -11 -21 -37 -45 -49 -45 -4 0 -14 11 -23
25 -15 23 -16 37 -5 131 10 93 9 108 -4 122 -32 31 -52 -10 -78 -158 -14 -78
-32 -104 -62 -89 -43 23 -76 28 -104 14 -21 -10 -44 -12 -87 -6 -48 7 -65 14
-87 39 -26 29 -31 49 -41 166 -3 30 -28 50 -28 23 0 -9 -11 -29 -25 -45 -13
-16 -33 -50 -44 -75 -19 -45 -44 -67 -75 -67 -26 0 -46 55 -67 183 -29 180
-39 177 -59 -20 -13 -136 -23 -147 -130 -141 -48 3 -56 7 -84 41 -28 35 -31
47 -34 116 -5 95 20 163 79 216 42 38 67 42 131 23z m1443 -166 c47 -16 50
-19 53 -53 2 -21 -4 -65 -13 -98 -9 -34 -15 -92 -14 -129 2 -38 -3 -77 -10
-89 -11 -21 -19 -23 -97 -23 l-86 0 -39 41 c-31 32 -39 48 -39 77 1 59 19 185
28 191 4 3 18 22 30 42 37 60 92 72 187 41z m207 -74 c17 -16 34 -28 38 -28 3
0 27 -19 51 -42 25 -24 82 -74 127 -112 124 -104 127 -98 -125 -223 -114 -57
-209 -101 -211 -98 -14 14 13 57 47 75 28 14 41 28 46 50 6 26 1 36 -43 80
l-50 51 16 29 c11 19 32 35 56 43 27 9 45 24 59 49 l21 36 -41 41 c-22 23 -46
41 -52 41 -12 0 -14 20 -5 44 6 17 8 16 66 -36z m22848 -21 c54 -18 69 -60 70
-188 0 -58 -3 -134 -7 -169 -5 -56 -9 -64 -35 -79 -29 -16 -30 -17 -24 -81 3
-36 10 -96 15 -135 16 -107 14 -255 -3 -274 -8 -9 -19 -42 -25 -74 -6 -31 -21
-76 -35 -100 -13 -23 -26 -54 -30 -69 -4 -17 -27 -44 -57 -68 -40 -31 -59 -40
-91 -40 -38 0 -71 12 -94 34 -6 6 -23 21 -37 33 -19 16 -28 36 -33 72 -4 29
-14 57 -25 67 -18 16 -21 28 -35 129 -6 46 -7 48 -16 25 -5 -14 -12 -92 -15
-175 -3 -82 -10 -156 -16 -162 -15 -20 -68 -15 -94 9 l-23 22 -20 -22 c-50
-54 -190 4 -215 88 -4 14 -17 35 -28 48 -37 40 -46 338 -16 517 15 85 60 171
124 235 54 55 55 55 116 55 61 -1 63 -2 104 -47 42 -46 65 -101 65 -155 0 -21
-11 -40 -39 -67 -42 -41 -48 -40 -66 23 -12 40 -47 57 -101 46 -30 -5 -38 -13
-58 -59 -34 -76 -50 -185 -43 -291 5 -73 12 -102 37 -153 31 -61 32 -62 72
-62 34 0 46 6 74 36 50 52 45 95 -12 114 -33 11 -34 13 -34 66 0 41 5 59 20
74 23 23 45 24 122 6 l57 -13 10 26 c5 14 11 58 14 97 2 39 11 84 20 100 9 16
25 49 36 74 11 25 29 59 39 76 26 44 108 114 143 121 24 4 27 8 18 19 -6 8
-24 14 -38 14 -53 0 -66 21 -63 97 1 37 -3 85 -9 105 -20 62 -7 68 130 67 64
0 132 -5 151 -12z m707 -33 c78 -7 89 -19 74 -78 -6 -25 -11 -96 -11 -159 0
-101 -2 -116 -20 -132 -18 -16 -20 -31 -20 -154 0 -88 6 -161 16 -206 24 -104
27 -134 16 -148 -9 -11 -24 -288 -26 -502 l-1 -100 -85 -3 c-75 -3 -573 13
-737 23 -44 2 -70 10 -92 26 l-31 22 29 18 c71 43 150 161 168 250 3 17 14 40
25 51 12 12 18 33 18 62 0 33 7 52 25 74 24 29 26 38 28 166 3 121 5 138 24
158 12 13 37 56 58 95 20 40 41 75 46 79 6 3 28 42 50 87 21 44 45 87 54 97
19 21 36 109 25 130 -4 8 -20 25 -34 37 -21 18 -26 32 -26 66 0 24 3 47 8 51
7 8 303 1 419 -10z m2473 -3 c74 -5 245 -15 380 -21 135 -6 317 -17 405 -25
88 -8 297 -19 465 -25 287 -10 439 -18 760 -40 74 -5 142 -9 150 -8 8 0 110
-1 225 -2 200 -2 298 -7 535 -29 58 -6 224 -15 369 -21 145 -6 334 -17 420
-25 86 -8 215 -15 286 -15 190 -1 269 -24 189 -55 -46 -18 -43 -17 -479 -231
-187 -92 -358 -175 -380 -186 -22 -11 -61 -31 -86 -46 -105 -61 -278 -150
-312 -161 -20 -7 -39 -17 -42 -21 -3 -5 -43 -28 -88 -50 -45 -23 -116 -58
-158 -80 -93 -46 -193 -62 -309 -48 -41 5 -88 7 -103 5 -49 -7 -62 34 -62 193
0 74 -2 214 -4 310 l-4 175 -8 -175 c-3 -96 -11 -222 -15 -280 -13 -151 -11
-239 5 -249 7 -5 67 -9 133 -10 67 -1 125 -4 130 -7 23 -15 -5 -41 -96 -88
l-99 -51 -76 37 c-42 20 -130 62 -196 93 -66 31 -129 61 -140 67 -24 14 -48
26 -145 71 -126 59 -184 87 -210 102 -14 8 -63 32 -110 53 -125 58 -307 147
-370 182 -76 41 -388 190 -398 190 -5 0 -20 9 -34 19 -13 11 -38 23 -54 27
-16 3 -64 26 -106 50 -42 24 -80 44 -83 44 -8 0 -252 116 -295 140 -41 23
-150 69 -187 79 -23 6 -45 16 -48 21 -3 4 -29 16 -58 26 -51 17 -117 61 -117
78 0 10 207 3 420 -13z m-5734 -134 c3 -2 0 -24 -5 -48 -16 -67 -14 -77 20
-94 28 -15 29 -18 17 -37 -20 -30 -103 -31 -140 -2 -15 12 -33 24 -40 26 -14
5 -16 67 -4 129 l6 35 71 -2 c39 -1 73 -5 75 -7z m-15661 -37 c46 -51 16 -143
-50 -156 -39 -7 -57 3 -86 50 -26 42 -3 108 44 125 28 11 74 1 92 -19z m16813
-67 c5 -10 12 -60 16 -112 4 -52 12 -103 18 -114 6 -11 17 -96 24 -189 8 -93
18 -177 24 -186 8 -14 9 -14 10 -2 0 8 11 36 25 61 18 35 27 74 35 160 6 63
18 129 26 148 12 28 33 141 34 188 1 34 118 64 128 33 2 -5 30 -10 62 -10 43
0 61 -4 68 -15 4 -9 4 -50 0 -93 -9 -78 -5 -298 7 -407 5 -46 3 -67 -9 -90
-11 -20 -16 -58 -17 -115 0 -47 -4 -94 -8 -105 -5 -11 -5 -30 0 -42 6 -16 3
-33 -12 -57 -24 -41 -41 -49 -74 -36 -31 12 -41 50 -26 98 6 21 13 148 16 292
3 140 7 302 11 360 4 81 2 114 -9 140 l-14 35 -12 -60 c-6 -33 -20 -87 -31
-120 -11 -33 -24 -98 -29 -145 -6 -48 -19 -102 -31 -125 -11 -21 -20 -52 -20
-68 0 -16 -11 -76 -24 -135 -13 -59 -27 -133 -31 -164 -8 -71 -49 -124 -87
-113 -52 16 -65 40 -71 133 -3 48 -12 114 -21 147 -8 33 -20 110 -26 170 -18
168 -27 236 -38 285 -14 58 -26 234 -19 254 9 23 93 22 105 -1z m-854 -47 c24
-10 34 -24 54 -81 27 -79 29 -125 7 -159 -12 -17 -13 -30 -6 -49 11 -27 -8
-126 -28 -151 -6 -7 -28 -16 -49 -20 -43 -6 -51 -29 -27 -77 13 -24 13 -31 -2
-56 -14 -26 -14 -32 -2 -58 8 -17 31 -39 52 -50 33 -18 37 -24 37 -59 0 -47
-20 -65 -74 -66 -29 0 -45 6 -62 26 -17 18 -30 23 -44 19 -64 -20 -84 50 -30
107 17 17 30 39 30 49 0 28 -11 49 -26 49 -16 0 -19 26 -4 35 18 11 10 32 -17
45 -16 7 -76 14 -135 15 -123 4 -148 13 -148 55 0 39 28 54 89 45 25 -3 85 -7
131 -8 l85 -1 0 44 0 44 -82 17 c-76 16 -152 13 -183 -6 -4 -3 -22 13 -40 35
-39 50 -35 65 35 136 54 55 73 62 120 44 25 -9 26 -13 20 -50 -11 -63 1 -97
35 -102 41 -6 53 9 34 41 -14 24 -13 29 8 67 45 80 79 125 101 134 24 10 76 4
121 -14z m-21264 -24 c24 -18 50 -32 57 -32 7 0 21 15 30 34 l16 35 46 -35
c25 -20 49 -43 53 -52 6 -15 7 -15 7 -1 1 28 55 42 131 36 77 -6 104 -17 121
-49 10 -19 8 -25 -15 -44 -24 -21 -33 -23 -94 -17 -37 3 -96 16 -131 29 -65
25 -145 32 -156 14 -8 -13 -116 -13 -151 0 -14 6 -67 17 -118 26 -69 12 -97
22 -117 40 -16 15 -38 24 -60 25 -27 1 -23 3 20 10 30 5 57 11 59 14 3 2 62 3
132 2 125 -3 127 -3 170 -35z m18650 -365 c32 -16 36 -38 13 -66 -16 -19 -22
-21 -46 -12 -24 10 -27 8 -27 -12 0 -12 17 -40 38 -61 36 -38 37 -43 37 -110
0 -57 -5 -79 -23 -108 -28 -45 -48 -52 -98 -36 -42 14 -41 12 -35 113 0 11 1
70 1 130 1 92 4 112 18 125 10 8 21 23 25 33 8 21 60 23 97 4z m-196 -83 c3
-9 6 -34 7 -57 1 -23 4 -53 8 -67 4 -14 4 -35 -1 -48 -5 -16 -3 -30 7 -45 23
-33 19 -83 -7 -101 -29 -20 -92 -21 -112 -1 -11 12 -12 23 -5 47 5 18 9 34 9
36 0 2 11 13 24 25 13 12 26 33 27 46 3 19 -2 25 -31 35 -33 11 -35 13 -33 55
2 50 10 60 55 77 45 16 45 16 52 -2z m-15541 -35 c33 -9 37 -13 37 -44 0 -25
-6 -37 -21 -46 -29 -15 -128 -7 -140 12 -19 31 22 89 65 89 11 0 38 -5 59 -11z
m18093 -93 c3 -19 0 -67 -7 -105 l-12 -71 -34 0 c-21 0 -41 8 -55 22 l-21 21
-24 -27 c-21 -24 -24 -25 -29 -9 -3 10 -10 26 -15 36 -6 11 -6 25 2 39 10 18
8 24 -7 35 -36 26 -56 10 -48 -38 4 -19 -3 -29 -31 -47 -19 -12 -35 -26 -35
-31 0 -14 34 -39 60 -44 14 -2 1 -5 -27 -6 -50 -1 -53 0 -53 24 0 14 -10 39
-22 55 l-22 30 23 24 c15 16 20 31 16 47 -10 43 3 48 135 53 69 2 136 8 150
14 41 17 49 14 56 -22z m11087 -360 c18 -7 41 -25 50 -39 16 -25 16 -27 -3
-40 -11 -7 -33 -31 -50 -52 -24 -30 -30 -48 -31 -89 l-1 -51 -8 53 c-4 29 -15
64 -25 78 -15 24 -15 27 0 51 11 16 14 34 10 50 -3 14 -1 31 6 39 14 17 12 17
52 0z m-12820 -307 c12 -7 23 -13 24 -14 2 -1 -4 -23 -13 -49 -12 -36 -13 -50
-4 -61 6 -7 15 -35 20 -62 l8 -48 2 60 c5 158 17 181 81 155 28 -12 29 -15 29
-77 0 -70 16 -150 33 -160 22 -13 37 31 37 108 0 88 -11 125 -37 132 -10 3 1
5 25 6 39 1 44 -2 59 -34 9 -19 21 -35 25 -35 25 0 77 31 83 49 3 12 10 21 15
21 6 0 7 -53 4 -127 -7 -148 -12 -157 -82 -147 -31 5 -48 2 -60 -8 -24 -22
-61 -28 -70 -14 -7 13 -68 29 -112 29 -20 0 -77 -22 -132 -50 -12 -6 -38 28
-38 51 0 13 9 31 20 41 18 16 18 20 5 46 -17 32 -20 135 -5 173 11 29 45 35
83 15z m607 -4 c6 -8 13 -29 13 -46 2 -30 -1 -33 -50 -47 l-53 -15 0 -48 c0
-43 3 -50 28 -62 15 -8 39 -17 55 -21 34 -8 34 -25 2 -60 -38 -41 -65 -32 -97
34 -37 75 -37 131 2 208 27 55 40 67 76 71 6 0 17 -6 24 -14z m166 -26 c13
-25 19 -30 37 -23 38 13 131 5 144 -12 18 -24 26 -125 14 -189 -6 -32 -13 -60
-16 -63 -7 -8 -34 18 -40 39 -9 26 -17 24 -37 -11 -9 -17 -21 -30 -26 -30 -14
0 -60 111 -67 162 -8 61 -38 76 -74 36 -17 -17 -23 -19 -36 -8 -32 26 -9 107
35 123 33 12 50 6 66 -24z m406 1 c35 -39 70 -40 99 0 19 25 25 27 43 18 40
-20 66 -51 66 -79 0 -15 3 -35 6 -43 11 -28 34 2 34 43 0 20 7 44 15 54 13 18
14 18 24 -1 8 -15 8 -42 -1 -96 -11 -74 -11 -77 12 -101 13 -14 29 -25 37 -25
8 0 13 -12 13 -30 0 -32 -22 -50 -63 -50 -32 0 -45 16 -53 69 l-7 43 -13 -31
c-7 -17 -18 -31 -25 -31 -6 0 -20 -11 -31 -25 -11 -14 -25 -25 -33 -25 -17 0
-58 48 -74 89 -8 18 -21 31 -31 31 -25 0 -65 -35 -80 -70 -16 -38 -25 -38 -39
1 -14 41 -13 95 2 139 9 23 10 45 4 65 -22 77 42 115 95 55z m404 -25 c10 -19
21 -35 23 -35 3 0 15 12 27 27 20 25 24 26 49 15 25 -11 30 -10 51 9 36 34 95
13 116 -41 l10 -25 12 26 c18 43 37 59 67 59 22 0 32 -7 41 -25 12 -28 0 -50
-34 -61 -19 -6 -19 -7 7 -34 52 -55 43 -175 -14 -197 -25 -9 -32 -8 -45 6 -20
22 -20 32 1 76 16 34 16 36 -5 58 -12 13 -22 32 -22 42 0 19 -1 19 -19 0 -24
-25 -28 -53 -12 -86 10 -21 10 -31 1 -49 -13 -24 -66 -51 -86 -43 -7 2 -29 31
-49 64 -21 32 -39 59 -41 59 -1 0 -10 -22 -19 -49 -19 -58 -37 -78 -53 -59
-15 18 -42 129 -43 174 0 22 -4 48 -8 59 -8 20 6 65 19 65 4 0 15 -16 26 -35z
m598 12 c13 -13 26 -30 29 -38 4 -10 12 -6 32 19 30 36 67 42 96 16 18 -16 18
-18 -1 -44 -15 -21 -18 -34 -11 -52 6 -16 4 -32 -6 -52 -14 -26 -13 -32 10
-77 23 -42 24 -49 10 -60 -17 -15 -70 -14 -89 1 -6 6 -14 37 -18 69 -8 74 -30
101 -80 101 -30 0 -40 5 -56 33 -26 42 -25 72 2 91 31 22 55 20 82 -7z m370
-6 c20 -22 12 -49 -21 -62 -26 -10 -43 -45 -43 -90 0 -23 7 -34 30 -47 33 -19
45 -42 35 -71 -8 -26 -30 -33 -59 -19 -24 10 -54 63 -47 83 2 6 3 40 2 78 -2
88 6 115 38 132 35 19 45 18 65 -4z m164 -17 c8 -15 11 -15 34 0 45 29 53 15
50 -78 l-4 -83 36 -36 c20 -20 36 -40 36 -45 0 -20 -30 -33 -67 -30 -33 3 -40
8 -56 42 -14 30 -21 36 -28 25 -5 -8 -9 -20 -9 -28 0 -8 -7 -22 -16 -32 -16
-17 -18 -17 -54 1 -41 21 -57 57 -40 90 7 12 8 44 5 78 -6 55 -5 58 29 95 30
33 38 37 55 28 11 -6 24 -18 29 -27z m293 -9 l21 -35 22 32 c16 24 31 34 54
36 27 3 35 -2 53 -32 22 -38 35 -38 49 -1 6 17 20 26 44 30 42 8 54 2 71 -38
l13 -30 7 24 c10 32 22 39 68 39 40 0 46 -12 23 -45 -25 -37 -27 -71 -6 -98
31 -39 27 -99 -9 -139 -26 -29 -31 -31 -54 -21 -15 7 -46 10 -74 6 -29 -3 -68
0 -98 9 -28 8 -66 13 -86 11 -32 -4 -38 -1 -56 27 l-20 32 -21 -36 c-23 -39
-50 -46 -95 -25 -21 10 -23 15 -17 44 12 52 18 57 61 50 56 -10 71 5 55 53
-15 44 -34 50 -63 22 -28 -26 -28 -26 -43 9 -15 36 2 97 28 104 40 11 53 6 73
-28z m-2491 -503 c18 -85 26 -94 41 -41 13 45 63 109 86 109 14 0 33 -31 33
-54 0 -9 -16 -22 -35 -30 -19 -8 -35 -20 -35 -26 0 -18 21 -53 43 -71 13 -10
18 -22 14 -32 -8 -22 -32 -21 -54 2 -20 20 -56 41 -71 41 -6 0 -15 -13 -21
-30 -10 -30 -33 -38 -60 -21 -10 7 -11 13 -1 31 10 18 10 31 0 61 -7 22 -16
39 -20 39 -8 0 -23 -34 -35 -77 -5 -18 -14 -23 -38 -23 -18 -1 -43 -7 -56 -14
-59 -33 -96 8 -86 94 9 77 30 98 83 82 20 -6 60 -13 89 -15 45 -3 56 -1 74 19
12 13 25 21 30 19 4 -3 13 -31 19 -63z m547 26 c13 -11 18 -114 7 -155 -7 -24
-50 -39 -83 -28 -15 5 -20 19 -26 86 -6 75 -5 83 15 104 19 20 26 22 48 14 15
-6 32 -15 39 -21z m-251 1 c19 -18 21 -28 16 -87 -6 -81 -15 -95 -56 -87 -46
10 -56 29 -51 99 3 47 9 65 25 78 28 23 39 23 66 -3z m649 -11 c3 -13 -1 -43
-10 -67 -14 -40 -14 -46 1 -62 26 -29 11 -51 -33 -47 l-38 3 -6 85 c-8 97 -2
110 47 110 27 0 35 -5 39 -22z m165 7 c9 -10 11 -33 7 -68 -5 -55 5 -87 28
-87 18 0 28 33 20 68 -10 47 9 80 50 88 21 4 47 2 61 -5 22 -10 24 -16 24 -85
0 -41 -4 -77 -8 -80 -4 -2 -57 -6 -117 -8 l-110 -3 -3 77 c-4 100 16 142 48
103z"/>
<path d="M15288 11528 c-24 -8 -28 -15 -28 -49 l0 -39 104 0 c72 0 107 4 114
13 16 18 4 30 -58 54 -74 29 -100 33 -132 21z"/>
<path d="M15260 11380 c0 -47 80 -90 166 -90 55 0 71 19 44 53 -23 29 -63 42
-152 50 -52 5 -58 4 -58 -13z"/>
<path d="M16321 11338 c-7 -22 -5 -88 5 -135 2 -13 17 -29 33 -38 37 -18 161
-30 181 -16 19 13 18 170 -2 182 -22 14 -106 29 -159 29 -42 0 -51 -3 -58 -22z"/>
<path d="M4842 8093 c-48 -24 -53 -30 -50 -57 2 -24 12 -34 48 -53 25 -13 50
-34 55 -47 l10 -23 23 29 c13 15 19 28 14 28 -15 0 -32 57 -32 106 0 24 -3 44
-7 44 -5 -1 -32 -13 -61 -27z"/>
<path d="M4773 7258 c-38 -41 -78 -75 -100 -87 -22 -11 -22 -16 -20 -132 2
-117 3 -122 28 -142 15 -12 34 -34 44 -49 16 -26 23 -28 79 -28 67 0 95 14
139 66 39 46 47 76 47 170 0 98 -5 111 -68 177 -40 41 -51 47 -87 47 -30 0
-47 -6 -62 -22z m88 -99 c13 -25 5 -75 -15 -98 -8 -9 -16 -46 -18 -83 -4 -72
-19 -101 -40 -80 -15 15 -20 252 -6 270 17 20 66 15 79 -9z"/>
<path d="M17184 3665 c-11 -200 -8 -585 4 -597 15 -15 27 237 25 489 -4 279
-17 330 -29 108z"/>
<path d="M19492 3795 c-44 -37 -82 -158 -82 -262 0 -78 1 -82 30 -106 28 -24
35 -25 107 -20 110 8 109 6 117 191 l7 153 -35 35 c-43 43 -99 47 -144 9z m96
-87 c7 -7 12 -41 12 -84 0 -69 -2 -74 -31 -99 -29 -24 -33 -25 -49 -10 -10 9
-21 31 -24 50 -7 36 9 121 26 142 13 16 50 17 66 1z"/>
<path d="M20051 3775 c-39 -41 -44 -51 -51 -112 -4 -38 -13 -89 -20 -116 -10
-37 -10 -53 0 -76 21 -52 44 -64 133 -71 120 -10 117 -15 117 192 l0 168 -47
30 c-26 17 -56 30 -68 30 -11 0 -40 -20 -64 -45z m97 -78 c12 -14 16 -43 14
-109 -2 -52 -27 -88 -61 -88 -25 0 -35 30 -34 97 2 69 10 92 36 103 30 12 33
12 45 -3z"/>
<path d="M20423 3795 c-10 -8 -34 -15 -53 -15 -43 0 -58 -21 -66 -88 -12 -110
-28 -199 -41 -224 -12 -24 -11 -32 2 -58 12 -23 22 -30 45 -30 41 0 48 19 56
154 8 134 17 156 61 140 l28 -10 0 -139 0 -140 26 -3 c42 -5 50 30 45 209 -2
87 -9 166 -15 177 -16 29 -65 44 -88 27z"/>
<path d="M19722 3778 c-18 -18 -14 -84 8 -125 15 -28 20 -57 20 -113 0 -85 15
-123 48 -128 27 -4 72 22 72 42 0 7 9 24 19 38 11 13 24 43 31 67 6 24 21 57
32 72 28 38 28 113 0 142 l-20 20 -30 -65 c-16 -36 -35 -82 -42 -102 -6 -19
-15 -38 -20 -41 -9 -5 -30 55 -30 84 0 25 -41 101 -59 111 -12 6 -22 5 -29 -2z"/>
<path d="M20922 3778 c-13 -7 -36 -39 -54 -76 -25 -53 -32 -82 -37 -161 l-6
-96 36 -37 c33 -35 40 -37 100 -39 35 -2 74 3 86 9 23 12 39 63 27 83 -4 7 -6
67 -5 135 1 70 -2 132 -8 143 -6 10 -32 26 -58 35 -53 18 -51 18 -81 4z m68
-123 c9 -16 11 -46 8 -90 -8 -98 -41 -124 -78 -62 -31 50 -23 125 17 169 18
20 36 15 53 -17z"/>
<path d="M20615 3764 c-18 -14 -19 -17 -5 -42 9 -15 25 -31 37 -37 49 -25 53
-33 35 -73 -9 -20 -25 -45 -35 -56 -55 -61 -77 -100 -77 -135 0 -53 13 -61
103 -61 96 0 117 10 117 53 0 43 -15 57 -62 57 -27 0 -41 5 -45 17 -6 16 38
108 62 128 11 10 65 120 65 135 0 29 -159 41 -195 14z"/>
<path d="M21381 3551 c-11 -7 -10 -13 3 -33 17 -27 11 -69 -18 -110 -9 -12
-16 -31 -16 -41 0 -27 -62 -20 -74 9 -5 11 -19 25 -30 30 -14 6 -23 23 -28 53
-4 24 -9 45 -10 46 -2 2 -15 1 -30 -2 -36 -7 -50 -60 -22 -79 11 -8 26 -19 34
-26 8 -7 23 -18 35 -23 16 -9 20 -21 20 -55 0 -66 12 -67 80 -5 27 25 55 45
63 45 7 0 23 10 35 23 13 12 35 30 50 40 33 21 28 38 -29 95 -47 47 -44 45
-63 33z"/>
<path d="M4223 3928 c-11 -13 -26 -39 -34 -58 -17 -45 -19 -191 -2 -197 7 -3
16 4 19 14 4 10 17 41 30 70 17 36 24 70 24 110 0 75 -10 91 -37 61z"/>
<path d="M4418 3907 c-12 -14 -36 -27 -51 -31 -34 -8 -47 -39 -47 -115 0 -75
17 -93 44 -47 12 19 40 57 64 86 44 54 54 97 28 119 -11 10 -19 7 -38 -12z"/>
<path d="M24643 3678 c-10 -18 -25 -67 -32 -108 -7 -41 -20 -87 -29 -102 -23
-40 -6 -69 56 -91 42 -15 52 -24 57 -48 8 -35 19 -43 51 -35 16 4 30 19 39 40
24 57 72 62 127 14 32 -29 37 -40 44 -98 7 -55 9 -60 15 -35 3 17 7 58 8 91 1
46 5 63 17 68 42 16 64 -11 64 -80 0 -30 3 -54 8 -54 14 1 62 74 62 96 0 29
-39 91 -62 99 -16 6 -16 8 -2 30 19 29 9 55 -11 28 -10 -13 -10 -20 -2 -26 7
-4 1 -5 -13 -2 -19 4 -33 0 -51 -17 -31 -29 -79 -23 -108 13 l-18 23 -27 -29
c-16 -17 -30 -25 -35 -19 -12 12 -22 83 -24 158 l-2 59 -39 14 c-22 7 -47 20
-57 29 -15 14 -18 12 -36 -18z"/>
<path d="M25725 3322 c7 -34 -9 -80 -31 -89 -8 -3 -26 0 -39 7 -52 28 -63 -4
-56 -150 3 -64 10 -75 45 -66 l26 6 -21 29 c-30 41 -13 71 41 71 51 0 64 22
55 95 -6 47 -5 54 13 59 18 6 36 49 24 61 -3 3 -18 5 -34 5 -27 0 -29 -2 -23
-28z"/>
<path d="M24590 3274 c-15 -39 -12 -187 4 -209 21 -29 43 -11 60 46 21 71 20
111 -5 153 -25 42 -46 46 -59 10z"/>
<path d="M24803 3263 c-15 -5 -18 -169 -4 -191 5 -8 22 -12 42 -10 l34 3 8 80
c10 108 5 125 -36 124 -17 0 -38 -3 -44 -6z"/>
<path d="M25871 2719 c-6 -17 -11 -62 -11 -100 0 -48 -5 -72 -16 -83 -8 -9
-18 -31 -21 -50 -4 -29 -13 -38 -55 -60 -27 -14 -56 -26 -64 -26 -18 0 -18
-31 0 -55 13 -19 15 -19 55 0 27 12 44 27 47 42 4 12 9 23 13 23 15 0 74 103
91 157 19 61 12 145 -13 171 -12 12 -16 9 -26 -19z"/>
<path d="M25615 2498 c-5 -20 -19 -31 -62 -49 -99 -40 -90 -109 15 -109 40 0
49 5 84 42 38 41 38 43 19 58 -11 8 -27 31 -35 50 l-14 35 -7 -27z"/>
<path d="M24375 2426 c-15 -11 -20 -30 -23 -84 l-4 -71 38 -10 c59 -15 67 -16
92 -7 20 7 23 13 20 54 -3 40 -7 49 -31 60 -16 8 -33 27 -39 43 -11 32 -25 36
-53 15z"/>
<path d="M6930 3413 c-18 -7 -70 -63 -70 -75 0 -5 12 -25 26 -44 23 -29 32
-34 68 -34 39 0 44 3 59 35 20 42 22 96 5 113 -12 12 -61 15 -88 5z"/>
<path d="M29486 3028 c-56 -55 -69 -103 -73 -273 l-3 -150 33 -55 c28 -46 39
-56 65 -58 40 -4 81 23 98 65 16 37 18 148 4 208 -41 179 -40 167 -21 191 25
32 16 82 -16 95 -39 14 -51 11 -87 -23z"/>
<path d="M22202 12105 c-10 -12 -18 -13 -32 -5 -11 6 -20 9 -20 6 0 -2 -3 -11
-6 -20 -4 -11 5 -18 38 -26 23 -6 65 -20 91 -31 95 -39 190 -64 322 -84 50 -8
168 -32 261 -54 94 -23 182 -41 196 -41 14 0 56 -9 92 -21 37 -11 116 -26 176
-34 60 -7 113 -16 118 -19 12 -7 263 -53 417 -76 66 -9 147 -25 180 -33 33 -9
106 -21 161 -26 56 -6 114 -15 129 -21 15 -6 75 -17 134 -25 166 -23 428 -71
467 -85 11 -5 75 -14 140 -20 65 -6 142 -17 169 -25 28 -7 72 -16 100 -20 27
-4 62 -13 77 -21 14 -7 80 -20 145 -27 66 -8 128 -19 139 -25 10 -5 35 -11 54
-12 59 -3 72 -1 64 13 -6 10 -4 10 7 0 7 -7 20 -13 29 -13 12 1 11 4 -5 16
-11 8 -28 13 -38 10 -9 -2 -15 0 -11 5 7 12 29 11 76 -3 26 -8 35 -14 26 -20
-9 -5 -4 -8 14 -8 36 0 44 16 16 31 -22 12 -67 16 -271 23 -71 2 -90 6 -101
21 -8 11 -19 16 -30 12 -11 -4 -15 -3 -10 4 4 7 0 9 -14 5 -11 -4 -23 -3 -26
2 -3 6 -29 10 -57 10 -40 0 -54 4 -65 21 -8 11 -20 21 -27 21 -8 0 -8 -3 1
-12 14 -14 16 -28 4 -28 -5 0 -15 11 -22 25 -7 14 -20 25 -29 24 -11 0 -12 -2
-3 -6 6 -2 12 -9 12 -13 0 -5 -16 -2 -35 6 -19 7 -62 14 -95 14 -47 0 -68 5
-90 22 -27 19 -45 22 -172 26 -113 3 -146 7 -155 19 -16 20 -80 32 -177 33
-69 0 -83 3 -104 23 -21 20 -35 22 -152 25 -115 4 -131 6 -151 25 -20 19 -37
22 -131 25 -60 2 -108 7 -108 12 0 20 -97 40 -193 40 -91 0 -101 2 -129 25
-27 23 -38 25 -123 25 -85 0 -94 2 -107 23 -14 20 -24 22 -134 25 -108 4 -121
6 -147 28 -25 21 -38 24 -114 24 -79 0 -88 2 -109 25 -22 24 -27 25 -158 25
-126 0 -135 1 -141 20 -7 21 -20 26 -104 34 -36 4 -62 13 -77 27 -19 17 -26
19 -38 10 -11 -9 -15 -8 -20 5 -4 11 -17 15 -44 13 -66 -4 -74 -1 -67 21 7 24
5 25 -13 5z"/>
<path d="M15783 12093 c-13 -3 -23 -8 -23 -12 0 -11 51 -19 173 -27 65 -5 97
-11 97 -19 0 -21 228 -35 259 -16 15 10 -26 16 -171 27 -62 4 -88 10 -88 19 0
8 -12 16 -27 19 -36 8 -191 14 -220 9z"/>
<path d="M12475 11592 c-25 -37 -25 -42 -20 -167 5 -154 12 -166 103 -205 71
-30 106 -29 147 4 l28 23 3 171 c4 205 11 196 -138 206 l-97 7 -26 -39z"/>
<path d="M25980 11361 c-11 -8 -6 -11 25 -11 60 -2 255 -18 295 -25 19 -4 40
-11 45 -15 9 -8 120 -24 228 -34 26 -3 51 -16 29 -16 -19 0 40 -52 69 -60 15
-5 51 -8 80 -8 28 -1 56 -5 62 -11 5 -5 16 -7 23 -4 8 3 14 1 14 -4 0 -11 8
-13 82 -18 l57 -4 -33 30 c-38 33 -52 36 -77 13 -13 -12 -19 -12 -25 -3 -5 8
-3 10 7 4 8 -5 11 -4 6 1 -5 5 -27 10 -49 11 -27 1 -49 10 -67 26 -19 18 -37
25 -67 25 -31 1 -48 7 -67 26 -24 24 -33 26 -117 26 -52 0 -90 4 -90 10 0 18
-59 40 -102 39 -24 -1 -104 1 -178 5 -88 5 -140 3 -150 -3z"/>
<path d="M27123 11138 c-3 -29 30 -38 159 -49 67 -5 128 -15 135 -21 7 -6 54
-15 105 -19 52 -5 101 -15 115 -24 26 -18 184 -41 253 -38 73 3 82 5 71 16 -7
7 -15 6 -25 -2 -10 -8 -16 -9 -21 -1 -3 5 -22 10 -41 10 -21 0 -43 8 -56 20
-23 21 -51 29 -30 8 20 -20 14 -27 -13 -15 -26 13 -33 27 -13 27 6 0 8 3 5 7
-4 3 -16 -2 -27 -12 -18 -16 -20 -16 -26 -1 -3 9 -11 16 -18 15 -6 -1 -30 -1
-53 0 -31 1 -43 5 -43 16 0 22 -45 41 -63 27 -7 -6 -18 -7 -26 -3 -7 5 -49 9
-93 10 -62 1 -86 6 -105 21 -30 23 -99 36 -117 21 -7 -6 -16 -7 -20 -3 -15 15
-52 8 -53 -10z"/>
<path d="M28010 11000 c0 -5 -6 -7 -14 -4 -8 3 -16 -3 -19 -15 -3 -12 -1 -19
4 -15 5 3 9 1 9 -4 0 -5 46 -14 103 -21 56 -7 119 -19 140 -27 20 -8 63 -14
94 -14 42 0 67 -6 100 -26 70 -41 221 -36 255 9 16 21 16 22 -3 25 -11 2 -28
0 -37 -4 -28 -12 -42 -13 -48 -3 -3 5 -16 6 -30 3 -17 -4 -24 -2 -24 8 0 8
-11 20 -25 26 -42 19 -53 14 -17 -8 17 -11 32 -22 32 -25 0 -3 -15 -2 -32 1
-18 3 -38 7 -45 7 -7 0 -10 4 -7 9 3 5 10 5 16 2 7 -5 8 -2 4 5 -5 7 -14 10
-22 7 -8 -3 -14 -1 -14 3 0 5 6 12 13 14 6 3 -1 6 -16 6 -16 1 -26 -3 -23 -8
3 -4 -13 -5 -37 -1 -23 4 -71 8 -106 9 -41 1 -71 7 -80 15 -9 8 -45 20 -81 25
-80 13 -90 13 -90 1z"/>
<path d="M28740 10894 c8 -3 34 -12 58 -20 23 -9 42 -20 42 -25 0 -6 -4 -8 -9
-5 -5 3 -31 -4 -57 -16 l-49 -22 90 -11 c50 -7 108 -20 130 -29 22 -10 88 -21
149 -26 71 -6 117 -15 133 -26 17 -11 60 -18 132 -23 67 -5 118 -14 138 -24
17 -9 69 -23 115 -30 46 -7 92 -19 104 -25 11 -6 74 -18 140 -27 65 -8 146
-23 179 -31 33 -9 74 -14 90 -12 25 2 30 7 27 28 -5 43 -24 52 -134 61 -57 5
-130 15 -163 23 -33 8 -105 20 -160 27 -55 6 -105 16 -112 21 -6 5 -39 13 -73
19 -34 5 -74 19 -90 30 -24 18 -47 22 -161 26 -76 3 -144 11 -158 18 l-24 12
28 19 28 18 -24 7 c-35 10 -149 10 -149 1 0 -5 -25 -8 -55 -8 -36 1 -55 5 -55
13 0 17 -30 31 -81 38 -24 3 -37 3 -29 -1z"/>
<path d="M29460 10890 c-14 -4 -51 -8 -83 -9 -36 -1 -59 -6 -62 -13 -4 -9 -22
-12 -56 -9 -28 1 -55 -1 -61 -7 -6 -6 1 -9 19 -10 15 0 244 -2 508 -5 333 -3
500 -9 545 -18 36 -7 115 -13 175 -13 61 -1 112 -4 115 -7 5 -6 198 -30 238
-29 12 0 22 -5 22 -10 0 -5 20 -15 45 -21 47 -12 128 -82 140 -120 4 -11 11
-19 16 -19 9 0 26 -29 69 -116 11 -23 27 -47 35 -54 8 -7 15 -19 15 -26 0 -8
18 -25 40 -39 35 -22 51 -25 110 -24 73 2 82 7 53 30 -10 8 -14 9 -10 2 4 -6
3 -14 -2 -17 -5 -3 -12 1 -15 10 -9 22 -8 24 12 25 12 0 13 2 3 6 -8 3 -22 -5
-33 -18 -10 -13 -17 -17 -16 -9 2 8 -4 14 -12 15 -8 0 -15 7 -16 15 -2 35 -5
40 -21 40 -15 0 -14 -2 3 -14 10 -8 16 -17 12 -21 -10 -10 -45 16 -57 42 -6
13 -27 33 -46 44 -19 12 -35 25 -35 30 0 13 6 11 24 -7 15 -14 16 -14 16 1 0
9 -9 19 -20 22 -11 3 -20 8 -21 12 -9 68 -23 96 -44 87 -8 -3 -11 2 -8 15 7
24 -13 49 -38 49 -11 0 -19 6 -19 14 0 8 -5 18 -11 21 -14 10 -68 19 -102 18
-16 0 -24 3 -18 7 17 10 -20 40 -50 41 -199 5 -242 8 -249 19 -11 17 -88 32
-131 25 -20 -4 -40 -2 -43 3 -3 5 -75 10 -161 11 -130 1 -160 4 -182 19 -24
15 -59 17 -298 19 -148 1 -281 -2 -295 -7z"/>
<path d="M32286 10581 c-14 -9 -26 -19 -26 -23 0 -5 -29 -8 -64 -8 -55 0 -67
-4 -89 -26 -20 -20 -36 -25 -76 -26 -27 -1 -48 -5 -45 -10 3 -4 -3 -5 -12 -1
-11 4 -22 -2 -33 -15 -9 -13 -28 -22 -46 -23 -45 -2 -65 -9 -65 -22 0 -8 3 -8
12 1 7 7 16 12 20 12 4 0 -1 -9 -12 -20 -14 -14 -33 -20 -68 -20 -26 0 -54 -6
-61 -12 -11 -11 -12 -10 -6 1 12 20 -62 6 -97 -20 -34 -24 -114 -26 -138 -4
-10 9 -41 17 -71 20 -30 2 -43 2 -29 -1 58 -11 66 -14 87 -33 12 -11 37 -22
57 -24 50 -5 173 11 205 27 14 8 53 19 86 26 33 7 67 18 76 26 8 8 42 19 75
25 32 6 70 16 84 24 14 7 41 16 60 19 19 4 71 18 115 31 126 38 253 63 345 70
114 8 128 9 137 18 4 5 -83 7 -194 6 -162 -2 -206 -5 -227 -18z"/>
<path d="M33577 10494 c-13 -14 -7 -43 11 -48 9 -2 44 -7 77 -10 185 -17 206
-18 221 -5 12 9 14 9 11 -2 -2 -8 -2 -11 0 -6 8 14 39 7 55 -12 15 -18 99 -37
151 -34 9 0 17 -4 17 -9 0 -6 6 -8 14 -5 7 3 19 0 25 -6 6 -6 11 -7 11 -1 0 5
4 3 8 -4 5 -7 52 -16 122 -23 63 -6 125 -17 140 -24 30 -16 129 -35 179 -35
20 0 48 -6 63 -14 14 -8 59 -19 100 -25 40 -7 96 -18 123 -26 28 -7 89 -19
137 -25 47 -5 102 -17 122 -25 19 -8 79 -20 133 -26 54 -6 132 -19 174 -30 42
-10 91 -19 109 -19 17 0 64 -11 103 -25 40 -13 104 -27 142 -29 39 -3 90 -12
114 -21 44 -15 153 -21 149 -7 -2 4 2 8 7 9 6 1 9 -4 7 -11 -2 -13 88 -46 125
-46 12 0 69 -9 128 -21 117 -23 138 -21 133 13 -5 39 -34 47 -171 48 -114 0
-131 2 -145 19 -10 11 -28 22 -42 26 -23 7 -23 7 -7 -9 20 -21 23 -33 3 -17
-21 18 -52 23 -159 28 -86 4 -101 8 -124 29 -27 25 -70 34 -57 12 6 -10 4 -10
-7 -2 -8 6 -39 15 -70 18 -37 5 -63 14 -74 26 -10 12 -31 20 -49 20 -99 1
-180 10 -195 24 -23 21 -66 29 -89 17 -15 -8 -21 -7 -25 3 -4 9 -26 13 -77 13
-60 0 -74 3 -91 22 -11 11 -27 21 -37 21 -16 -1 -16 -2 1 -14 9 -7 17 -16 17
-20 0 -4 -11 1 -24 11 -13 10 -22 21 -20 25 3 4 -29 7 -70 6 -62 0 -79 3 -102
21 -15 11 -36 21 -47 21 -19 0 -20 -1 -2 -20 10 -11 13 -20 8 -20 -6 0 -13 7
-17 15 -3 8 -13 15 -23 15 -13 0 -14 3 -5 8 6 5 -45 9 -114 10 -116 2 -129 4
-154 25 -25 21 -38 24 -146 25 -90 2 -122 6 -130 17 -19 25 -56 33 -157 33
-89 0 -101 2 -123 23 -23 21 -36 24 -151 27 -103 3 -131 7 -152 23 -30 21 -73
33 -84 23z"/>
<path d="M36520 9918 c-11 -4 -20 -12 -20 -17 0 -13 40 -20 137 -26 64 -4 87
-9 102 -24 20 -20 115 -36 181 -29 29 2 34 7 32 23 -2 11 -8 24 -12 29 -5 5
-6 -2 -3 -15 6 -23 5 -23 -13 -8 -10 9 -27 15 -36 14 -10 -2 -18 2 -18 8 0 7
-5 5 -10 -3 -8 -12 -10 -12 -10 5 0 17 -2 17 -10 5 -6 -9 -13 -11 -17 -5 -5 6
-39 11 -78 13 -38 2 -75 8 -82 14 -7 6 -13 7 -13 4 0 -4 -10 -2 -21 5 -26 13
-82 17 -109 7z"/>
<path d="M36960 9804 c0 -17 24 -22 118 -27 54 -3 76 -8 85 -21 13 -18 72 -35
123 -36 17 0 38 -7 45 -16 8 -9 32 -25 54 -34 22 -9 46 -25 54 -34 7 -9 23
-16 36 -16 12 0 33 -9 46 -20 13 -11 40 -34 60 -50 20 -17 48 -30 63 -30 16 0
31 -9 42 -25 9 -14 23 -25 31 -25 7 0 35 -20 60 -46 26 -25 55 -49 65 -55 10
-5 18 -16 18 -24 0 -8 5 -15 10 -15 6 0 20 -15 31 -32 11 -18 49 -55 84 -83
35 -27 68 -62 74 -77 5 -16 42 -59 80 -97 39 -38 71 -74 71 -81 0 -7 20 -44
45 -81 25 -38 50 -80 55 -94 5 -14 13 -25 18 -25 9 0 68 -88 128 -191 18 -31
46 -70 62 -86 27 -30 32 -31 137 -37 111 -7 177 -16 249 -35 22 -5 72 -11 110
-12 39 -1 80 -5 92 -10 11 -4 70 -9 131 -12 88 -5 114 -3 123 8 10 12 8 13 -9
10 -25 -5 -28 12 -3 18 9 3 -62 5 -159 6 -162 1 -177 3 -194 21 -10 11 -23 20
-29 20 -6 0 -5 -5 2 -12 22 -22 12 -29 -15 -11 -28 17 -28 17 -14 -2 14 -19
14 -19 -5 -2 -16 15 -17 19 -4 27 13 8 12 10 -2 10 -10 0 -18 -7 -18 -16 0
-14 -2 -14 -22 0 -15 11 -46 16 -95 16 -54 0 -73 3 -73 13 0 20 -44 37 -94 37
-40 0 -44 2 -49 29 -7 33 -34 64 -48 55 -5 -3 -8 -2 -7 3 4 16 -14 53 -26 53
-8 0 -16 14 -20 31 -4 22 -10 30 -21 26 -17 -7 -31 11 -27 36 2 9 -1 17 -6 17
-5 0 -12 10 -15 21 -4 13 -11 20 -20 16 -7 -3 -14 0 -15 6 -1 7 -3 22 -4 34
-3 25 -64 94 -80 90 -9 -2 -17 17 -20 50 -1 6 -7 9 -15 6 -7 -3 -13 2 -13 11
0 9 -5 15 -11 13 -6 -1 -16 6 -22 16 -10 14 -9 20 3 27 12 8 11 10 -6 10 -21
0 -49 44 -39 61 3 5 0 6 -8 3 -19 -7 -47 32 -40 55 4 13 3 14 -5 1 -6 -8 -8
-18 -6 -22 3 -4 1 -8 -4 -8 -15 0 -34 28 -28 39 3 5 0 12 -6 14 -8 3 -5 6 5 6
17 1 17 2 3 17 -9 8 -16 20 -16 25 0 5 -11 11 -25 15 -14 3 -25 12 -25 20 0 7
-9 18 -20 24 -17 9 -19 8 -13 -7 3 -10 -4 -6 -16 10 -12 15 -27 27 -32 27 -19
0 -47 35 -54 67 -3 18 -11 30 -18 27 -7 -2 -25 7 -41 21 -16 14 -34 25 -40 25
-7 0 -19 9 -29 20 -10 12 -22 18 -28 14 -6 -3 -25 7 -42 23 -18 17 -42 37 -55
45 -16 11 -20 18 -12 23 6 4 22 -2 34 -14 28 -26 43 -28 17 -2 -24 24 -66 48
-57 32 4 -6 3 -11 -3 -11 -5 0 -12 6 -14 13 -4 9 -6 9 -6 -1 -1 -9 -8 -9 -32
4 -23 11 -30 21 -26 35 3 10 1 19 -4 19 -5 0 -9 -4 -9 -9 0 -5 -8 -8 -17 -6
-10 2 -21 4 -24 4 -3 1 -11 12 -17 25 -5 13 -21 26 -33 29 -21 6 -20 4 6 -18
17 -13 28 -24 25 -25 -11 0 -79 38 -75 42 3 3 -11 5 -31 6 -22 1 -47 11 -65
27 -36 29 -49 32 -49 8 0 -14 -2 -15 -9 -4 -8 12 -35 17 -119 20 -18 0 -31 5
-28 9 2 4 -5 9 -17 10 -12 1 -39 3 -59 5 -27 3 -38 0 -38 -9z"/>
<path d="M36605 9666 c-16 -6 -36 -15 -43 -19 -7 -5 -19 -2 -28 8 -31 30 -39
12 -42 -95 -5 -189 29 -430 72 -503 35 -59 93 -125 125 -141 14 -8 50 -17 79
-21 29 -4 76 -13 105 -21 28 -8 117 -21 196 -29 79 -9 151 -20 160 -24 9 -5
59 -14 111 -20 52 -6 124 -19 160 -28 82 -21 114 -9 149 57 23 42 24 56 25
195 1 113 -3 163 -16 205 -9 30 -21 76 -27 102 -6 27 -19 56 -28 67 -10 10
-31 37 -47 59 -35 50 -106 79 -226 94 -47 5 -126 21 -175 33 -50 13 -115 27
-145 30 -30 4 -77 13 -104 21 -27 8 -88 18 -135 24 -47 6 -97 12 -111 14 -14
2 -38 -1 -55 -8z"/>
<path d="M39445 8383 c11 -7 26 -13 35 -13 9 0 30 -6 46 -14 24 -11 93 -20
259 -31 6 0 16 -4 24 -9 10 -7 12 -5 6 5 -6 11 -5 12 6 2 15 -14 99 -18 99 -5
0 5 -9 17 -20 27 -17 15 -44 19 -192 22 -95 2 -182 8 -193 13 -11 5 -35 11
-54 13 -31 4 -32 3 -16 -10z"/>
<path d="M40829 8247 c31 -15 37 -33 12 -33 -11 0 -19 4 -18 9 1 5 -6 11 -16
12 -10 2 -14 -1 -10 -7 4 -7 -2 -9 -17 -5 -18 5 -20 3 -11 -6 8 -8 49 -12 114
-12 56 0 108 -4 115 -8 7 -5 12 -3 12 5 1 7 7 1 15 -13 8 -15 25 -29 37 -32
21 -6 121 -14 375 -32 40 -3 100 -11 135 -19 35 -8 110 -17 168 -21 64 -4 123
-14 152 -26 36 -14 74 -19 146 -19 107 0 134 8 113 34 -21 25 -78 36 -185 36
-90 0 -101 2 -128 25 -30 25 -30 25 -246 25 -204 0 -220 1 -257 22 -33 18 -62
22 -170 27 -71 3 -165 4 -208 4 -42 -1 -75 2 -72 7 6 10 -39 40 -62 40 -14 0
-12 -3 6 -13z"/>
<path d="M2570 4003 c0 -57 -4 -79 -16 -87 -25 -19 -34 -82 -34 -251 0 -192
-5 -231 -31 -238 -13 -3 -19 -14 -19 -32 0 -33 -17 -65 -34 -65 -7 0 -16 -14
-20 -32 -3 -18 -16 -43 -29 -57 -12 -13 -15 -21 -7 -17 8 4 7 1 -3 -7 -13 -11
-18 -26 -16 -54 2 -25 -5 -50 -19 -73 -20 -32 -22 -48 -21 -170 1 -74 3 -127
6 -117 2 9 9 17 14 17 5 0 9 -8 10 -17 0 -11 3 -13 6 -5 2 6 11 12 19 12 27 0
35 41 26 133 -8 83 -1 149 22 212 18 51 52 108 72 124 13 10 39 37 57 59 l34
40 7 154 c12 272 15 308 25 325 13 27 30 145 24 176 -6 31 -9 34 -46 41 l-27
5 0 -76z"/>
<path d="M2701 3849 c-7 -35 -17 -78 -22 -96 -10 -32 -23 -191 -21 -253 0 -19
0 -51 0 -70 -6 -155 -2 -209 14 -226 9 -11 22 -41 29 -69 6 -27 18 -55 25 -61
18 -14 34 -59 34 -92 0 -15 12 -55 27 -89 l28 -61 102 -7 c119 -8 139 -4 123
24 -5 11 -10 28 -10 38 -1 10 -16 35 -34 55 -31 35 -34 36 -54 22 -18 -12 -23
-13 -26 -2 -2 7 -9 27 -14 45 -9 28 -8 33 8 38 38 12 34 65 -5 65 -15 0 -25
-7 -28 -21 -4 -16 -12 -20 -34 -17 -25 3 -28 7 -31 43 -3 52 9 71 36 56 25
-13 32 1 32 64 0 69 -10 105 -30 105 -15 0 -19 13 -25 74 -5 59 -10 74 -21 69
-8 -3 -22 -2 -31 2 -16 6 -16 8 -2 18 9 7 14 21 13 32 -25 160 -34 215 -43
238 -6 16 -11 45 -12 65 -1 74 -15 80 -28 11z"/>
<path d="M3501 3106 c-10 -11 -9 -25 4 -63 12 -33 19 -105 25 -233 5 -125 12
-198 23 -225 72 -188 137 -304 200 -356 33 -26 82 -37 447 -99 63 -10 158 -28
210 -40 52 -11 136 -27 185 -36 50 -8 131 -24 180 -34 50 -11 113 -22 140 -25
120 -15 398 -58 490 -77 55 -11 156 -24 225 -28 69 -5 148 -13 175 -20 95 -22
445 -69 635 -85 41 -4 113 -13 160 -20 47 -8 144 -19 215 -25 72 -6 168 -18
215 -25 47 -8 155 -19 240 -25 85 -6 265 -22 400 -36 146 -15 266 -23 296 -19
72 9 125 45 263 182 129 129 159 177 206 331 12 42 28 91 33 107 6 17 18 59
28 95 34 133 34 129 13 141 -29 15 -226 45 -444 68 -104 11 -293 34 -420 50
-126 16 -279 35 -340 41 -60 6 -181 22 -268 36 -88 13 -180 24 -205 24 -26 0
-65 5 -87 10 -22 5 -107 16 -190 25 -82 9 -190 22 -240 30 -49 8 -171 22 -270
30 -99 9 -186 18 -194 20 -17 7 -446 62 -921 120 -153 18 -457 57 -635 80 -66
9 -185 25 -265 35 -80 11 -154 22 -165 25 -23 6 -288 35 -326 35 -15 0 -32 -6
-38 -14z m2447 -515 c53 8 87 -42 57 -84 -29 -41 -11 -112 22 -85 8 6 49 19
91 29 97 23 175 43 277 74 44 14 98 27 120 31 22 3 67 14 101 24 46 14 75 17
122 11 74 -9 85 -16 40 -29 -18 -6 -55 -19 -83 -31 -48 -19 -99 -33 -245 -67
-36 -8 -92 -24 -125 -34 -33 -11 -80 -22 -105 -26 -25 -4 -56 -13 -70 -20 -14
-7 -55 -18 -90 -24 -36 -6 -72 -16 -82 -21 -10 -5 -26 -5 -40 0 -16 6 -27 5
-36 -5 -13 -14 -6 -17 53 -26 16 -3 21 -12 23 -46 3 -37 0 -44 -17 -49 -14 -4
-21 -13 -21 -30 0 -15 -14 -39 -34 -59 -31 -31 -39 -34 -93 -34 -54 0 -62 3
-90 33 -17 17 -39 49 -48 70 -23 50 -52 61 -107 40 -24 -8 -79 -24 -123 -34
-104 -24 -248 -64 -305 -85 -31 -11 -68 -15 -117 -12 -101 5 -114 22 -27 37
37 7 81 19 97 28 17 8 65 20 106 25 42 5 83 16 92 24 9 8 47 20 85 28 70 13
189 52 211 69 7 5 27 16 46 26 29 15 37 15 54 4 18 -12 20 -18 9 -45 -9 -25
-8 -32 2 -36 7 -2 18 -11 25 -19 16 -19 39 -43 69 -70 30 -27 59 -21 108 20
39 34 34 56 -18 72 -18 5 -32 15 -32 21 0 15 -16 20 -84 30 -40 5 -45 8 -30
17 11 5 29 19 41 30 16 15 38 20 84 21 47 2 64 6 75 20 12 16 9 24 -23 62 -30
37 -41 44 -72 44 -54 0 -84 -20 -96 -62 -14 -49 -26 -62 -48 -46 -28 22 -7 81
50 139 54 56 96 71 151 57 18 -5 40 -8 50 -7z"/>
<path d="M42263 2809 c-31 -11 -40 -34 -45 -116 -6 -80 -1 -89 51 -99 38 -8
71 17 71 53 0 19 -5 23 -30 23 -26 0 -30 3 -30 29 0 23 5 30 26 35 33 9 39 3
39 -37 0 -27 4 -32 26 -35 20 -2 30 -12 42 -44 22 -54 39 -45 56 28 8 32 16
61 18 64 9 9 43 -42 43 -64 0 -12 15 -36 33 -52 30 -28 36 -30 95 -26 l62 4 0
77 0 77 -32 9 c-20 6 -38 21 -46 37 -17 36 -47 44 -79 21 -55 -39 -99 -62
-116 -63 -10 0 -26 13 -35 30 -12 22 -24 30 -45 30 -15 0 -40 6 -55 14 -17 9
-35 11 -49 5z"/>
<path d="M2547 2790 c-31 -24 -57 -101 -57 -167 0 -61 14 -83 52 -83 18 0 51
-10 76 -21 53 -26 64 -18 60 42 -3 42 -5 44 -35 47 -29 3 -33 7 -33 34 0 17 8
52 17 79 13 37 15 54 7 67 -16 25 -56 26 -87 2z"/>
<path d="M2783 2325 c-38 -27 -66 -83 -60 -121 3 -19 1 -48 -4 -64 -9 -25 -6
-38 17 -84 18 -37 35 -57 51 -61 28 -7 43 0 43 21 0 8 16 24 35 35 42 25 44
47 9 89 l-27 31 23 49 c27 58 22 96 -16 110 -34 13 -46 13 -71 -5z"/>
<path d="M10632 2188 c-22 -28 -62 -119 -62 -142 0 -50 23 -75 34 -38 7 22
129 122 148 122 43 -1 87 -85 89 -168 1 -56 1 -56 9 -17 21 101 13 167 -21
185 -10 6 -19 17 -19 25 0 36 -152 64 -178 33z"/>
<path d="M10023 1879 c-36 -11 -83 -53 -100 -91 -10 -23 -8 -29 24 -59 32 -31
34 -38 30 -79 -6 -51 13 -107 39 -117 25 -9 52 30 60 88 4 27 10 49 15 49 5 0
9 11 9 25 0 15 12 38 26 52 24 24 29 25 97 19 57 -5 69 -4 59 6 -6 6 -12 19
-13 27 0 9 -19 32 -41 51 -36 31 -47 35 -107 37 -36 1 -80 -2 -98 -8z"/>
<path d="M2365 1638 c-4 -112 -6 -213 -4 -223 5 -22 45 -33 62 -16 6 6 14 59
18 118 4 60 12 140 19 179 15 84 8 121 -26 136 -20 10 -27 9 -35 -3 -8 -12
-10 -12 -18 0 -5 8 -12 -66 -16 -191z"/>
<path d="M10169 1718 c-14 -31 -26 -41 -61 -52 -25 -8 -23 -44 7 -109 32 -70
61 -79 111 -35 42 37 46 83 10 117 -13 12 -29 43 -35 67 -6 24 -13 44 -14 44
-2 0 -10 -14 -18 -32z"/>
<path d="M9426 1478 c-22 -4 -54 -20 -72 -33 -18 -14 -44 -25 -58 -25 -17 0
-26 -5 -26 -16 0 -13 7 -15 29 -11 38 8 40 1 38 -133 -1 -114 16 -170 52 -170
27 0 82 107 70 137 -19 50 46 145 108 158 18 4 35 10 38 15 8 13 -77 76 -110
82 -16 3 -48 1 -69 -4z"/>
<path d="M2646 1222 c-25 -49 -39 -144 -27 -188 18 -65 15 -84 -15 -84 -14 0
-47 7 -75 16 -27 9 -55 14 -63 11 -18 -7 -26 -51 -19 -109 l6 -48 138 0 c123
0 139 2 139 17 0 9 -6 24 -14 32 -7 9 -16 32 -20 52 -6 35 -5 37 34 53 22 9
40 19 40 23 0 4 -10 17 -22 30 -21 22 -21 26 -9 66 30 93 9 157 -50 157 -21 0
-32 -7 -43 -28z"/>
<path d="M12094 1078 c-17 -33 -20 -109 -8 -205 6 -52 7 -53 40 -53 26 0 34 4
34 18 0 10 12 30 28 45 l27 26 465 10 c256 6 832 13 1280 16 800 5 920 8 920
24 0 23 -226 26 -1618 23 -740 -1 -1109 1 -1122 8 -15 8 -18 17 -13 43 10 57
20 66 71 70 39 3 36 4 -20 5 -66 2 -68 1 -84 -30z"/>
</g>
</svg>
