<svg xmlns="http://www.w3.org/2000/svg" width="1066.667" height="866.667" viewBox="0 0 800 650"><path d="M237.1 76.3c-2.9 7.4-3 7.5-3 2.9l-.1-4.4-8.2 6.8c-11.4 9.4-23.1 19.6-30.3 26.3-3.3 3.1-9 8.3-12.5 11.6-3.6 3.3-9.1 8.4-12.3 11.4-3.2 2.9-5.6 5.5-5.4 5.7.6.6 5.5-1.6 10-4.5 4.3-2.7 5.9-2.3 2.8.8-1.8 1.8-2 2.9-1.5 7.8.4 3.8.1 7.5-.8 10.8-.8 2.7-1.3 6.6-1.1 8.6.3 2.2-.1 4.6-1 6-.8 1.4-1.7 6.2-2.1 11.3-.3 4.8-1.1 9.6-1.7 10.5-.7 1.2-.9.2-.4-3.7.4-3.3.2-5.2-.5-5.2-.5 0-1 1.1-1 2.5 0 2.2-.3 2.5-2.5 1.9-3.1-.8-3.1-.8-4.2 13.8-.7 8.9-1.3 12.2-2.7 13.7-1.5 1.6-1.7 3.4-1.4 10.3.3 7.5.1 8.3-1.4 8-1.4-.2-1.8.5-2 3-1 17.5-1.8 22.7-3.9 23.3-1.1.4-1.9 1.6-2 2.8 0 1.2-.8 10.3-1.8 20.2-1.4 14.6-2 17.9-3.2 17.6-.8-.2-2.1-.4-2.9-.6-1.3-.2-1.5-2.4-1.2-14.1.7-28.8 4.8-91.6 6.9-103.9.7-4 .7-4 1.3-1l.7 3 1.1-4c.6-2.2 1.4-7.4 1.8-11.5l.6-7.5-3.8 3.5c-2.1 1.9-4.2 3.9-4.6 4.5-.8 1.1-1.1 3.7-3.3 30-2.1 24.7-5.2 61.7-7.1 82.5-1.4 16.9-3.1 27.9-4.4 29.3-.4.5-.5 2.8-.2 5.3.4 3.6.2 4.5-1.4 5-4.6 1.4-4.9 1.9-4.6 8.2.3 5 0 6.8-1.8 9.8-1.8 2.9-2.3 5.5-2.8 14.5-.5 11.4-1.6 14.4-4.9 13.2-1.4-.5-1.5-2.3-.9-14.7 1.1-25.9 1.6-71.2.6-60.1-2.3 25.6-3.1 38.4-3.7 55.2-.5 15.8-.9 18.5-2.4 19.9-3.7 3.4-4.1 1.2-3.5-20.5 1.6-55.1 4.6-101.8 6.8-106.6.9-1.9.7-2.7-.7-4.1-1.6-1.6-1.8-1.6-2.7-.1-.5.9-1.3 1.7-1.7 1.7s-4.2 2.2-8.3 5l-7.5 5-.7 20.7c-.3 11.5-1.3 29.6-2.1 40.3S84 326.1 84 329.3c0 4.1-.3 5.6-1.1 5.1-.8-.4-1-2.9-.6-6.9.2-3.5.1-6.9-.4-7.6-.9-1.4-1.5 7.8-1 15.3.2 3.9-.8 5.2-3.4 4.2-1.4-.6-1.6-1.5-1.2-4.8l.5-4.1-1.1 3.5c-.7 2-2.2 5-3.5 6.7-2 2.9-2.2 3.9-1.6 9.8.4 3.6 1.1 6.8 1.6 7.1 1.6 1 3.7-1.6 4-4.9.2-2.4.8-3.2 2.3-3.2s2.2.9 2.6 3.5c.6 3.2.7 3.1.8-1.5.2-4.3.4-4.7 1.3-2.8.6 1.2.8 4.1.4 6.6l-.7 4.4h-6.5c-7.4 0-10.1 1.5-7 3.9 1.3.9 2.3 1.1 3 .4 1.3-1.3 5.6-1.3 5.6 0 0 .5-.4 1-1 1-.5 0-1 .6-1 1.4 0 .9-1.2 1.3-3.7 1.2-3.8-.1-3.8-.1-4.4 4.4-1.1 8.4-.7-33.4.5-48.5l1.1-15 .8 9.4c.4 5.2.9 9.7 1.2 9.9.3.3 1.1-.3 1.9-1.3 1.2-1.6 1.2-2.1.1-3-1.1-.8-1.2-1.9-.3-5.5 1.5-6.2 1.5-13.7.1-15.1-1-1-1.4-.7-2.2 1.2l-.9 2.4-.7-2.7c-.4-1.6-.2-9.7.4-18 2-27.1 4.1-58.8 4.1-61.1 0-2.1-.4-2.3-3.3-1.9-1.7.2-3.7.9-4.4 1.4-1.4 1.1-2.9 12.5-4.3 32.3-1 13.9-3.6 48.8-5.9 78.3-.5 6.8-.7 13-.4 13.8.3.7-.1 5.3-.8 10.1-.8 5.8-1.5 8-1.9 6.4-.4-1.8-1.7-2.7-5.9-4-3-.9-5.6-2.2-5.9-3-.3-1 0-1.1 1.6-.2 3.9 2.1 4.9 1.4 5.6-4.2 1.4-10.6 3.3-33.2 2.9-34-.2-.4-1.3-.7-2.3-.7-2.6 0-2.8-.6-2-7.5.6-5.3.8-5.7 1.7-3.6l1 2.5.7-2.5c.5-1.3 1.2-16.4 1.6-33.4.5-17.1 1.2-32.1 1.6-33.4.5-1.8.4-2.3-.7-1.9-1.4.5-1.5 1-5 46-1 13.6-1.5 16.8-2.7 16.8-1.3 0-1.4-1.8-.8-12.6.3-7 1.1-14.7 1.7-17.2.5-2.4.8-4.7.5-4.9-.7-.7-10.6 2.9-10.6 3.8 0 .5.6.9 1.3.9 1 0 1.3 1.4 1 5.2-.1 2.9-.8 12.9-1.3 22.3-.6 9.3-1.5 22.6-2 29.5s-1 16.4-1 21.2c0 5.2-.4 8.8-1 8.8-1 0-1.5-3-1.1-6 .5-3 2.1-32.1 3-52.7.5-11.6 1.2-21.6 1.5-22.2.4-.5.2-1.2-.4-1.6-1.2-.8-1.7 1.9-2.5 13.5-.4 5.2-1.3 10.7-2.1 12.3-1.5 2.9-1.7 8-1 25.7.2 5.8.2 11.8 0 13.5l-.5 3h-7.4c-6.2.1-7.5-.2-7.8-1.7-.3-1-1.2-1.8-2.1-1.8s-1.6-.7-1.6-1.5c0-2.4-2.9-1.7-4.2 1-1.3 2.9-.1 4.9 1.3 2.2.6-.9 1.5-1.5 2-1.1 1.5.9-.2 7.7-2.4 9.6-1.7 1.5-1.8 1.8-.4 1.8 2.4 0 2.3 7.7 0 10.2-1.8 2-2.6 12.8-1 12.8.4 0 .7-.5.7-1 0-.6.5-1 1-1 1.2 0 .1 8.3-1.2 8.8-.4.2-.8 8-.8 17.3 0 13 .3 16.8 1.3 16.6.8-.1 1.3 1.3 1.5 4 .3 4.2 2.2 6.2 2.2 2.3 0-1.1.7-2 1.5-2q1.5 0 1.5-3c0-3.8 1.5-3.9 2.8-.3l1.1 2.8.7-2.3c.5-1.8.9-2 1.5-1 1.2 1.8 1.1 15.6-.1 16.3-1.2.8-1.3 4.2-.1 4.7.4.1 1.1 2.2 1.4 4.6.5 3.9.4 4.2-1.1 3s-1.6-1.1-.4.4c.8 1 1.7 1.7 2 1.6 2.2-.2 3.2.4 3.2 2.2 0 1.1-.3 2-.8 2-1 0-1.5 12.7-.5 14.2.4.7 1.3 2.9 1.8 4.8 1.3 4.4 4.7 6.1 13.6 6.9 5.9.6 7.2 1.1 11 4.6 5.3 4.7 13.8 13.7 13.9 14.7 0 .3 1.1 1.9 2.3 3.5 2.7 3.2 7.8 17.7 9.7 27.3.6 3.6 1.8 7.9 2.6 9.7.8 1.7 1.4 3.5 1.4 4 0 1.6 5.6 5.1 9.1 5.8 1.9.3 6.9.2 11.2-.3 9.1-1 9.6-.8 18.4 8.4 14.7 15.4 18 20 18.5 26l.3 3.9 68.8.3c46 .1 68.6-.1 68.2-.8-.3-.5-1.3-1-2-1-.8 0-3.9-1.1-7-2.5-5.1-2.2-5.5-2.6-4.3-4.4 1-1.6.9-2.3-.5-3.9-1.9-2.1-2.2-4.2-.6-4.2.6 0 .9-.8.6-1.9-.4-1.8 1.5-3 8.8-5.6 3.6-1.2 19.4-1.3 18.9-.1-.3.7 1.5 1.7 4.1 2.4 2.7.7 4.5 1.8 4.5 2.7s.6 1.2 1.5.9c.8-.4 1.5-.1 1.5.5s.5 1.1 1.1 1.1c.7 0 2.2 1.2 3.5 2.7 2.1 2.4 2.1 2.8.7 5-1 1.6-1.3 3.4-.9 5.8.7 3.5.7 3.5 6 3.5h5.4l-.2-6.3c-.2-3.4-.6-6.9-.9-7.7-.5-1.1.8-2.2 4.3-3.9 4.1-2 5.2-3.1 6-6 1.4-5.1 1.3-6.6-1-8.6-1.9-1.8-2-1.7-2 .3 0 2.6-.8 2.7-3.6.8-1.1-.8-3.3-1.6-4.9-1.8-2.5-.2-2.9-.7-2.7-2.6.2-1.2-.2-2.2-.7-2.2-.6 0-1.1-.5-1.1-1.1s-.9-2.2-2-3.6c-2.4-3.1-2.6-6.1-.4-7 .9-.3 1.4-1.5 1.2-3.2-.4-3.7 5.6-6.5 12.5-5.8 2.7.2 6.5 0 8.3-.6 6.1-1.9 16.3 2.6 16.4 7.1 0 1.8.5 2.2 2.8 2 2.2-.3 3.8.9 8.4 5.7l5.7 6.1-2 5.8c-1 3.3-1.9 6.9-1.9 8 0 1.2-.9 3.8-2 5.9-1.2 2.1-2.5 5.9-3 8.5-.6 2.6-1.3 5.9-1.6 7.5l-.6 2.7 207.8-.2 207.9-.3.7-13c.4-7.2 1-32.1 1.2-55.5.6-43.7.9-51.9 2.8-58.1.7-2.6.7-4.2-.1-5.8-2-3.6-3-24.2-3.6-71.1-.7-56-.8-60.2-1.9-61.9-.6-1-.6-1.2.2-.7 1.1.6 1.6-.5 1.3-2.6 0-.4 1.1-.3 2.5.2 1.4.6 6.3 1 11 1 9.7 0 15.6-2 17.4-5.9 1.4-3 .5-49-1-53.6-.5-1.7-1.2-4.8-1.4-7-1.1-9.8-3.5-17.5-5.5-17.5-.6 0-1.1-.7-1.1-1.5 0-2.3-5.1-12.9-6.9-14.2-.9-.7-1.3-1.3-.9-1.3 2.2-.1-15.9-15.4-19.7-16.7-1.5-.5-2.9-1.7-3.1-2.7-.6-4.1-1.6-14.6-1.9-20.6-.2-3.6-.6-8.3-.9-10.5s-.8-5.5-1-7.3c-.3-1.9-.8-8.8-1.1-15.5s-.9-15.6-1.2-19.7-.5-10.9-.5-14.9c.1-4.1-.4-8.2-.9-9-.9-1.3-1-1.3-.6-.1.6 2.1-1.1 6.3-2.2 5.5-2.7-1.6-54.5-5.2-109.1-7.5-12.9-.5-26.6-1.2-30.5-1.5-3.8-.3-17.1-1-29.5-1.5s-27-1.2-32.5-1.5C486.5 90.7 401 87.9 312 86c-27.8-.6-54.5-1.2-59.5-1.3l-9-.2-1.5-4.7c-1.7-5.4-3.7-6.8-4.9-3.5m129.4 40.8c.4.5.9 9 1.1 18.7.5 18.1 1.3 22.2 5 25.3 2.6 2.2 4.2 1.9 6.9-1.3 1.7-2 2.5-4.3 2.6-7.1.1-2.3.4-11.2.8-19.7l.6-15.5 5.1-.3c5.2-.3 5.2-.3 5.8 3.1.9 5 .6 37.5-.4 40.2-.5 1.2-1.4 2.8-2.2 3.6-.7.8-1.7 2.2-2.3 3-4.5 7.1-7.9 10.4-10.9 11-5.1.8-10.7-.1-11.4-2-.3-.9-1.3-2.4-2.3-3.4-.9-1-3.4-4.3-5.5-7.4l-3.9-5.7-.3-19.7c-.2-13 .1-20.5.8-21.9.8-1.5 2.1-2 5.5-2 2.4 0 4.7.5 5 1.1m62.8 1.8c.5.5.7 2.8.5 5.1-.2 3.6-.8 4.6-3.3 6l-3 1.7-.1 16.8-.1 16.7 3.4 1.4c3 1.3 3.3 1.8 3.3 5.8 0 2.4-.6 4.8-1.2 5.4-.8.6-5.3.8-12 .5-11.9-.6-12.5-1.1-11-8.3.6-2.5 1.4-3.6 3.2-4l2.5-.6v-35.9l-2.7-.3c-2.2-.3-2.7-.9-3.3-4.2-.4-2.3-.2-4.7.5-6.1 1.2-2.1 1.6-2.2 11.9-1.5 5.8.4 11 1.1 11.4 1.5m39.1.7c1.2.4 1.6 2 1.6 5.5 0 5.1-.1 5.2-5.2 6.3l-2.8.6v21c0 11.5-.4 22-1 23.4-.8 2.3-1.5 2.6-5.4 2.6-3.1 0-4.6-.5-5-1.6-.3-.9-.6-11.8-.6-24.2v-22.7l-3.6-.1c-2 0-4-.7-4.5-1.5-1.3-2-1.1-7.3.3-8.7 1.3-1.3 23.2-1.8 26.2-.6m40.1 1.4c3.8 0 4.4.4 7.4 4.7 3.1 4.4 3.3 5.1 2.9 11.7-.2 5.4-.9 7.9-2.6 10.3-2.2 3.2-3.1 10.3-1.2 10.3.6 0 1 .6 1 1.4s.4 1.6 1 1.8c.9.3 1.7 17.5.8 18.3-.6.6-3.6.9-7 .7l-2.8-.2v-8.8c-.1-11.4-.7-12.2-9.3-12.2h-6.6l-.3 10.2-.3 10.3-4.6.3-4.6.3-.6-12.8c-1.1-20.2-.8-43.2.4-45.5 1.1-2 1.7-2.1 11.7-1.4 5.8.3 12.4.6 14.7.6m49.9 2c1.4.5 3.7 2.7 5.1 4.9 2.5 4.1 2.5 4.1 2.5 27.9 0 25.1-.2 26.2-4.6 26.2-5.1 0-5.4-.6-5.4-11v-9.8l-6.5-.7c-3.5-.4-7.1-.5-7.9-.2-1.2.5-1.6 2.9-1.8 10.4l-.3 9.8-3.9.3c-2.1.2-4.2 0-4.7-.5-.4-.4-.9-12.1-1-25.8l-.3-25.1 2.9-3.7 3-3.7h10.2c5.6 0 11.3.4 12.7 1m44.7 2c4.5 0 4.8.2 7.3 4.5 1.8 2.9 2.5 5.4 2.2 7.2-.2 1.6-.5 3.2-.5 3.6-.1.5-2 .7-4.3.5-3.9-.3-4.3-.6-4.6-3.1-.3-2.7-.4-2.7-7.7-2.7-5.2 0-7.4.4-7.8 1.4-.6 1.4.1 10.7.8 11.4.3.3 4.7.8 9.9 1.1s9.6.8 9.8 1.1c4.3 5.2 4.8 7 4.8 16 0 8.8-.1 9.4-3.1 13.1l-3.1 3.9h-23.5l-3.1-4.4c-5.1-7.1-4.3-12.6 2-12.6 3.5 0 4 .3 5 3l1 3.1 7.2-.3 7.1-.3v-12l-10-.8-10-.9-2.5-3.6c-2.1-3.2-2.5-5.1-2.8-13.2-.3-9.4-.3-9.5 2.9-13.4l3.3-3.9 7.4.7c4.1.3 9.6.6 12.3.6m48.6 1.6c1.2.3 3.3 2.4 4.8 4.5l2.5 3.9-.2 24.3-.3 24.2-4.7.3-4.8.3v-19.9l-6.4-.7c-3.6-.4-6.9-.4-7.5 0-.7.3-1.1 4.2-1.1 9.4 0 10-.8 11.4-6.2 10.9l-3.3-.3-.3-24.9-.2-24.9 2.6-3.9 2.7-3.8h10.1c5.5 0 11.1.3 12.3.6M216 174.9c0 3.5-2.3 7.1-4.6 7.1-.7 0-1.9.6-2.6 1.2-2.8 2.7-6.9 4.3-7.7 3-.5-.9-1.2-.5-2.1 1.3-1.7 3.2-3 3.2-3-.1 0-2.7-1.1-2.8-6.5-.7-1.3.4-1.6.2-1.3-.8.3-.8 1.3-1.6 2.4-1.8 1.9-.3 8.9-5 12.7-8.5 1.1-1.1 4.1-2.9 6.6-4.2 5.2-2.5 6.1-2 6.1 3.5m144.5 55.2c-.3.4.2.9 1 1.3.8.3 1.8-.1 2.3-.9.6-1.1 1.5-1.3 3.9-.6 1.7.5 6.1.7 9.8.6 8-.4 11.1.5 12 3.7.4 1.3 1.4 3 2.1 3.9 2.1 2.4.7 4.8-3.4 5.5-4.3.8-41-.4-42.6-1.4-.6-.4.9-.9 3.4-1.2l4.5-.5-.3-4.3c-.2-2.5.1-4.2.7-4.2s1.1-.6 1.1-1.3c0-.8 1.2-1.4 3-1.4 1.6 0 2.7.4 2.5.8M754 273c3.2 52.1 5.1 141.5 3.2 151.5-.5 2.2-1.1-17.2-1.5-44.5-.4-26.7-1.1-56.6-1.6-66.5s-1.5-29.3-2.1-43c-.6-13.8-1.2-27.5-1.5-30.5-.3-4.5-.2-5 .6-2.5.5 1.6 1.8 17.6 2.9 35.5m-650.4-18.3c-.4 8.7-1.1 21.6-1.6 28.8-1.4 18.3-3 53.1-3 65.1 0 7.1-.4 10.6-1.4 12-1.2 1.5-1.7 1.7-2.7.6-1.4-1.3-1.4-5.1.1-20.2 1-9.8 1-11.6 1-38 0-8.5.6-24.1 1.2-34.5.6-10.5 1.1-20.6 1.1-22.6 0-2.8.5-4 2.6-5.2 1.4-.9 2.7-1.7 2.9-1.7s.1 7.1-.2 15.7m-8.6-9.3c0 1.5-1.4 3.5-2.1 3-.5-.3-.9 0-.9.5 0 .6.6 1.1 1.4 1.1 2.1 0 2.2 1.2 1.4 11.8-2.3 28.4-4.2 60.9-4.5 77.7-.2 10.4-.6 19.6-.9 20.4-1.1 3.2-2.7-1.1-3-8.6-.5-10.1.6-30.9 1.6-29.3 1.2 1.9 1.7-15.1.6-18.8-.7-2.3-.5-9.9.4-24 .8-11.4 1.4-23.4 1.4-26.7.1-3.3.5-6.3 1.1-6.7 1.1-.8 3.5-1.1 3.5-.4m139.3 44.1c-.3 5.5-4.2 94.7-5.2 116.8-.8 20.5-1.6 25.5-3.8 23.3-1-1-.9-6.4 1.6-67.6 2.7-69.5 3.3-76.3 6-75.8 1.1.3 1.5 1.3 1.4 3.3M27.1 360c2.6 0 3.6 2.8 1.6 4.8-1.5 1.4-1.5 1.8-.1 3.3 1.3 1.5 1.3 1.8-.2 3.4-.9.9-2.4 1.5-3.3 1.2-.9-.2-2.2.1-2.8.7-3.4 3.1-4.2 3.6-4.9 2.5-.4-.7-1-.7-1.6-.1-1.4 1.4 0 3.3 2 3 2.3-.4 2.9 3.7.7 4.6-3 1.1-4.5-1.8-4.5-8.9 0-5 .4-6.7 1.6-7.2.8-.3 2-.1 2.6.5.5.5 1.8.7 2.9.5 1.4-.4 1.8-1.1 1.3-2.5-.3-1.1-.3-3.6.1-5.6.6-3 .8-3.3 1.6-1.9.6.9 1.9 1.7 3 1.7m283.7 29.6c5.2 3.4 7.5 10.5 5 15.9-1.3 2.9-3.4 3.2-6.6.9-1.3-.9-3.2-1.4-4.3-1.1-1 .3-1.9.1-1.9-.5 0-.5.9-1.2 2-1.5 2.9-.8 2.4-2.3-.7-2.5-1.6 0-3.4-.2-4.2-.2-.8-.1-1.6-.7-1.9-1.4-.2-.8.9-1.2 3.8-1.2 5.6 0 4.8-2.2-1-2.7-2.5-.3-4.7-.6-4.9-.9-.8-.8.9-1.7 3.4-1.7 2.8 0 3.5-2.6.8-2.9-1 0-2.2-.2-2.8-.3-.5-.2-1.4-.4-2-.5-.5-.1-.1-.5 1-1 2.7-1.3 11.4-.2 14.3 1.6m-17.3 5.4c-.7 5 0 6.1 2.3 3.8.9-.9 1.2-.5 1.2 2 0 2.7.4 3.1 2.1 2.9 3.9-.4 3.1 2-.8 2.7-4.9.8-14.7.8-16.7 0-1-.4-1.6-1.8-1.6-4 0-4.5 7.3-12.4 11.4-12.4 2.8 0 2.8 0 2.1 5M53.3 422.1c.6 1 .7 8.5.2 20.5-.5 13.4-1 18.2-1.7 16.4-.6-1.7-1.1-2.1-1.7-1.2-1.3 2.2-9.1-5.6-10.1-10.3-1.1-4.8-1.3-23.5-.2-25.1 1.7-2.7 11.9-2.9 13.5-.3M377 468c1.1 1.1 2 2.4 2 3 0 1.4-2.6 1.3-5-.2-2-1.3-3.6-.5-4.2 2.1-.2 1 .7 1.5 3.1 1.7 4.2.2 6.1 2.5 6.1 7.3 0 7.3-7.7 10.8-12 5.3-1.9-2.3-2.1-3.7-1.8-10.1.3-6.2.7-7.6 2.7-9.2 3-2.5 6.6-2.4 9.1.1m33.5 0c0 1-1.3 1.7-4 2s-4.1 1-4.3 2.2c-.3 1.4.3 1.8 2.4 1.8 4.1 0 6.4 2.6 6.4 7.2 0 7.2-7.4 11.4-12 6.8-2.4-2.4-2.5-3.9-.4-4.7 1-.4 2 0 2.6 1 2.3 4.2 6.8.4 5.3-4.4-.6-1.8-1.2-2-4.7-1.4l-4.1.7.7-5.7c.3-3.2.9-6.2 1.2-6.7s2.9-.8 5.7-.6c3.8.2 5.2.7 5.2 1.8m14.8-.3c1 1.2 1.6 3.8 1.6 7.3 0 3 .1 6.6.2 8 .1 2.8-4.1 7-7.2 7-1.1 0-3.1-1.2-4.6-2.6-2.1-2.1-2.4-3-1.7-5.7.4-1.8.6-5.3.5-7.9-.1-3.8.3-4.9 2.1-6.2 3-2.1 7.1-2 9.1.1m335.3 44.8c-.6 8.3-.6 8.5 2 10.1 2.2 1.5 2.5 2.2 1.9 5.2-.8 4.2-2.6 8.2-3.7 8.2-.4 0-.8 1.1-.8 2.5s-.4 2.5-1 2.5c-.5 0-.7-.7-.4-1.5.4-.8.1-1.5-.6-1.5-.8 0-1.1.9-.8 2.5.4 2 .3 2.3-.8 1.4-2.1-1.7-3.2-.2-2.9 3.7.4 3.9 1 4.9 2.8 4.9 1.9 0 2.1 4.4.2 5.1-1.1.5-1.4 1.4-.9 3.8.5 2.8.1 3.6-2.8 5.7-6.8 5.1-18.1 9.9-26.9 11.3-2.8.5-3.8.3-4.3-.9-.5-1.3-1-1.4-2.7-.5-2.8 1.6-3.4.7-1.4-2.3 1-1.5 1.5-4.1 1.3-6.8-.2-3.5 0-4.4 1.5-4.7 1.9-.4 3.2-1.3 8.7-6.4 1.8-1.6 3.9-2.7 4.6-2.4 2 .8 6.7-1.2 5.9-2.4-.3-.5.2-1 1.2-1s3.3-.9 5.1-2c3.8-2.4 4-2.4 3.8-.8 0 .7.4 1.3.9 1.3.6 0 .9-.7.7-1.5-.1-.8-.4-4.5-.6-8.2-.3-7.9-2.2-11.4-6.6-12-5.8-.9-12 5.7-12 12.5 0 1.4-.8 3.2-1.8 3.9s-2.2 2.2-2.7 3.3c-.7 1.7-.9 1.4-1.5-1.9-.9-4.6-4-7.6-8.1-7.6-4.2 0-11.9 7.6-11.9 11.8 0 5 2 8.2 6.2 9.9 3.4 1.4 5.3 4.3 2.8 4.3-.5 0-1 1.3-1 2.9 0 1.7-.5 3.3-1 3.6-.6.4-.8 1.5-.5 2.5.5 1.5-.5 2.5-4.6 4.6-9.7 4.9-19.5 2-23.4-6.9-1-2.3-2.8-6.5-4-9.2-1.2-2.8-2.6-6.9-3-9.3s-1.3-4.6-2.1-4.9-1.4-1.9-1.4-3.7c.1-2.7.8-3.6 6.8-7.3 3.7-2.4 7.5-4.3 8.5-4.3s3.7-1.3 6-2.9c3.4-2.3 6.7-3.4 16.7-5.1 12.8-2.3 23.5-6 39.5-14 4.4-2.1 8.4-3.9 8.9-4 .5 0 .6 3.6.2 8.5"/><path d="M492.9 133.2c-.4 6.2.2 13.3 1.3 14 .7.4 3.4.8 6 .8 6.2 0 8-2.5 7.6-10.2l-.3-5.3-7.2-.3c-5.4-.2-7.3 0-7.4 1M540 141v7.9l3.3.6c1.8.4 5.3.5 7.7.3l4.5-.3.3-7.6c.3-8.8.3-8.9-10-8.9H540zM634 143.9v8l4.3.6c2.4.4 5.6.5 7.3.3 2.9-.3 2.9-.3 3.2-7.9l.3-7.6-3.8-.7c-2.1-.3-5.5-.6-7.5-.6H634zM80 256.1c-4.3 2.8-4.5 3.2-5.1 8.7-.9 7.9-1 18.2-.2 18.2.3 0 2.7-1.4 5.3-3l4.7-3 .7-7.7c.8-10.1.8-16.3-.1-16.2-.5 0-2.8 1.4-5.3 3"/></svg>