<svg xmlns="http://www.w3.org/2000/svg" width="2666.667" height="1777.333" viewBox="0 0 2000 1333"><path d="M788 127.9c0 .9-10.9 1.8-34 2.6-8 .4-18.5 1.2-23.5 2-4.9.8-18 2.4-29 3.5-23.3 2.4-51.4 5.7-60 7-3.3.5-11.7 1.6-18.5 2.4-18.8 2.3-55.9 7.3-70 9.6-6.9 1.1-21.7 3.3-33 5s-26.1 3.9-33 5c-18.2 2.7-31.1 4.2-31.6 3.7-.2-.2 4-1.1 9.3-2.1 5.4-.9 16.1-2.7 23.8-4.1 24.6-4.5 56.8-9.8 85.5-14.1 6.3-1 10.7-2 9.7-2.2-4.3-.9-130.7 19.2-193.7 30.8-18.4 3.4-59.8 11.8-86 17.4-22.6 4.9-22.5 4.9-21 3.1 1.3-1.6 0-2.1-1.5-.6-.6.5-2.6 1.2-4.5 1.4-9.1 1.4-10.8 2-10.4 3.2.7 1.8-9.6 4.1-10.6 2.4-.5-.7-1.6-.8-3.1-.3-2.8.9-2.5.9-6.4 1.8-1.6.4-4.3 1.1-6 1.6-1.6.5-4.1 1.1-5.5 1.4-3.6.6-7.8 2.5-6 2.6.8.1.4.6-1 1.1-3.7 1.5-24.7 6.9-27.7 7.1-2.2.2-3.2 1.5-6.2 7.8-3.6 7.4-3.6 7.6-3.9 23-.2 8.5-.9 16.1-1.4 16.7-.8 1-.6 1.3.5 1.3 1 0 1.8 1.2 2.2 3.2.8 5.2 3.5 62.3 3.5 75.8 0 12.8-1.7 30.9-3.1 32.4-.5.5-.1 1.5.8 2.1 1.9 1.4 1.9 2 .3 24-5.7 82.5-7.1 115.9-5.5 130.1.6 5 .4 6.4-1 7.7-1.4 1.4-1.8 5.1-2.5 20.4-1.9 40.2-3.2 114.2-2.6 145.8.6 32.1 1.2 43.9 3.6 80.8.9 12.2.9 18.1.2 19-1.1 1.3-.1 14.1 1.8 22 1.6 7.1 1.3 8.5-1.7 8.9l-2.8.4 3.5 2.2c1.9 1.3 5.1 4.3 7 6.7s5.2 5.2 7.2 6.1c3 1.4 3.5 2 2.6 3.1-1.6 2-.3 2.7 1.5.8 2.1-2 4.2-1.9 11.3.6 15.6 5.4 36 10.9 40.4 10.9 7.1 0 9.2-1.1 19.1-10.3 14.1-12.9 7.2-11.7 67.9-11.7 69.7 0 142.6-2.4 202-6.5 62.6-4.4 89.8-6.5 132.1-10.2 8.4-.7 11.5.3 23.7 8 17.5 11 26.8 13.4 39.2 10.2 6.8-1.8 39.3-11.8 51.9-16.1 10.3-3.5 12.1-2.6 7.7 3.8-1.9 2.9-2.5 5.2-2.9 13.4-.3 5.5-1.1 13.9-1.6 18.9-.6 4.9-1.3 11.5-1.5 14.5-.3 3-.9 8.4-1.5 12-1.6 10-1.5 11 1.3 11 3.3 0 3.5-.6 4.6-10.2.6-4.6 1.3-9.9 1.6-11.8s.7-5.1.9-7c.1-1.9.5-6 .9-9 .3-3 .8-7.8 1-10.5.2-2.8.8-8 1.1-11.6.5-4 .3-7.3-.3-8.5-.7-1.2-.7-2.4.1-3.8.5-1.2 1.3-2.7 1.6-3.4s3.3-2.4 6.5-3.7c6.1-2.5 11.8-7.1 14.1-11.6 1-1.9 3.3-3.2 9.7-5.3 4.6-1.5 9.2-3.6 10.3-4.6 1.1-.9 2.7-2 3.5-2.3 4.2-1.5-2.5-.5-8.2 1.3-5.2 1.6-12.8 2.7-12.8 1.7 0-.1.6-3.6 1.4-7.7s1.6-10.2 1.7-13.5l.3-6-4.5-.6-4.4-.5 4.5-.5 4.5-.4.3-29.2.2-29.1-7.2.4c-25.1 1.7-31.5 2-33 1.2-1.4-.7-1.7-2.9-2-14-.2-7.3-.2-13.5 0-13.8.8-1.1 38.3-2.3 39.3-1.3.6.6 1.5 4.4 1.9 8.4.8 6.8.6-45.2-.5-155.6-.3-22.6-.5-46.8-.5-54 0-13.4-.8-15-2.9-5.3-.7 3.3-2.2 6.7-3.6 8.2-2.6 2.8-2.5 2.9 2.9 4.1 3.4.7 2.6 1.8-2.9 3.8-2.2.8-5.5 2.1-7.3 2.8-2.6 1.1-3.6 1.1-5.2.1-2.6-1.6-4-1.5-4 .3 0 1.1-1.2 1.5-4.9 1.5-2.7 0-5.3.6-5.9 1.3-.7.8-1.3 11.6-1.7 28.2-.7 26.8-1.3 31.8-4.2 32.9-.9.4-1.3 1.3-.9 2.2s.3 2.2-.2 2.8c-1.1 1.4-2.8 7.7-3.7 13.3-.4 2.4-1.2 4.3-1.9 4.3-.6 0-1.3 1.2-1.4 2.7-.1 1.6-1.1 3.5-2.1 4.3-1.1.8-2.3 3.2-2.6 5.2-.5 2.7-1.2 3.8-2.5 3.8-3 0-4.9 1.1-4.4 2.5.4.8-.7 2-2.5 3-2 1-3.1 2.3-3.1 3.8l-.1 2.2-1.9-2.3c-2-2.4-4-2.2-4 .4 0 .8-.3 1.4-.8 1.4-.7 0-2.9 5.7-3.7 9.5-1.3 6.5-5.2 13.5-7.6 13.5-2 0-4.4 2.6-5.8 6.3-1.1 2.8-2.5 3.5-3.6 1.7-.4-.7-1.4-.6-2.8.2-1.2.7-3.1 1.3-4.1 1.5-3.1.5-4.3 2.1-5 6.2-.5 3.1-1.3 4.3-4.1 6-1.9 1.1-3.5 2.7-3.5 3.6 0 2.4-3.9 9.5-5.2 9.5-.7 0-2.4 1.2-4 2.7-4 3.8-4.6 2.1-1.3-3.8 2.5-4.7 2.6-5.2 1.1-6.7-1.3-1.4-2-1.4-3.6-.4-3.2 2-6.7 1.5-7.3-1-.5-1.8-.8-1.9-2.1-.8-.9.7-1.6 2.1-1.6 3.2 0 1.3-1.3 2.5-4 3.7-2.3 1-4.7 2.7-5.5 3.7-1.4 1.8-1.6 1.8-2.9.1-1.7-2.2-2.2-2.2-2.9.3-.3 1.1-1.3 2-2.2 2-1.3 0-1.6-.7-1.3-3 .3-1.7 0-3-.6-3.1-.6 0-.1-.4 1.1-.9 2-.8 4.3-6.1 4.3-10 0-.9.4-2 .8-2.5.5-.6 1.4-3 2.1-5.5 2.2-7.8 4.3-13.4 5.8-15.8.8-1.3 1.2-2.6.9-2.9-.2-.3-4.5.1-9.5.7-6.2.9-11.1 2.3-15.6 4.4l-6.5 3.2v-2.3c0-1.3-.3-2.3-.7-2.3-2 .1-14 17.3-18.1 26-1.1 2.5-2.6 7.6-3.3 11.3-1 5.1-1.6 6.7-2.8 6.6-.9-.1-2.4.1-3.3.5-3 1.4-6.3.3-6.6-2.2-.2-1.3.2-2.9.8-3.7.8-1 .8-1.5-.1-2-1.1-.7-.8-6.8.7-15 .5-2.9.3-3.1-8.6-7.8-5.1-2.7-9.4-4.6-9.8-4.3-.3.3 0 .6.6.6.7 0 1.2.7 1.2 1.6 0 1.5-.3 1.5-2.7-.1-3.4-2.1-5.4-4.5-4.7-5.6.3-.5-.2-.6-1-.3-1.9.7-8.5-3.7-10-6.8-1.3-2.5-4.2-3.3-9.1-2.4-2.9.6-3.4 1.1-4 4.6-.6 3.8-1.4 4.7-2.8 3.3-.4-.3-.2-1.3.5-2 1.7-2 1.7-5.1.1-6.4-.7-.6-1.3-2.9-1.3-5.1 0-4.4 0-4.4 6.6-1.7 3.9 1.6 10.4.5 10.4-1.8 0-1.3.3-1.4 1.2-.5 1.9 1.9 2.8 1.4 2.8-1.7 0-3.9 1.4-4.6 5-2.4 3.2 1.8 3.8 3.2 4.2 9.3.3 3.2.7 3.6 5 5s6.4 3 3.8 3c-2.3 0-.8 1.9 1.7 2.2s2.8.7 2.8 3.9c.1 2.9-.2 3.6-1.5 3.1s-1.3-.3-.1 1.1c2.1 2.6 3.1 2 3.1-1.8 0-1.9.4-3.5.9-3.5 1.8 0 2.1-3.7.6-6.6-1.9-3.6-1.9-4.4 0-4.4 3.2 0 1.1-1.7-7.3-5.7-16.6-8.1-20.7-10.8-20.7-13.4 0-1.9.5-2.4 2.4-2.3 2.2.1 2.3 0 .6-1.3-1.1-.7-3.8-1.3-6.2-1.3-4.9 0-4.7.3-2.9-6.6.8-3.2 1-5.7.4-6.7-1-1.9-12.8-8.7-15-8.7-.9 0-1.8-.7-2.1-1.5-1.6-3.9-14.8-7.4-28.5-7.5-4.4 0-6.2-.4-6.1-1.3.6-4.5-1.4-5-3.5-.8l-1.5 2.8-4.9-1.6c-2.7-1-5.7-2.5-6.6-3.4s-2.4-2.1-3.4-2.6c-1.4-.8-1.4-1.3-.4-3.6.7-1.4 1.2-3.7 1.2-5 0-1.4.5-2.5 1.2-2.5.9 0 .9-.3.1-1.1-1.8-1.8-4.3-.3-4.3 2.5 0 3.2-1.8 4.3-3.7 2.3-1.4-1.3-1.3-2.1.1-6.8.9-3.3 1.2-5.7.6-6.3-.5-.5-3.8-.9-7.2-.8-3.5.1-7.2-.3-8.3-.8-1.1-.4-3.2-1.1-4.7-1.4-3.8-.9-3.5-1.8 1.2-3.8 4.6-1.9 5-3.1 1.5-5.4-2.4-1.5-2.7-1.5-4.3 0-1.3 1.1-2.1 1.3-2.9.5-.7-.7-2.2-.7-4.9 0-2.2.6-5.5 1-7.4.9-1.9 0-6.1.3-9.3.7-5.2.7-5.6.9-3.8 2.1 1.2.9 2.2 3.2 2.7 6.6l.7 5.3 1.5-3.8c1.7-4.2 3-4.6 5.5-1.7 1.6 1.9 2.9 7.1 4.6 18.5.7 5 .7 5 1.9 2.2.7-1.6 1.2-3.3 1.2-3.8s.5-.9 1-.9c1.2 0 1.3 2.4.4 7-.5 2.4-1.1 3.1-2.5 2.7-1.7-.5-1.8-.1-1.3 3.4l.7 3.9h-4.4c-2.4 0-8.1.3-12.6.7-8.1.6-8.2.7-7.7 2.9.6 2.1.3 2.4-2.5 2.4s-3.6-.8-3.2-3.3c0-.4-.9-.7-2.1-.7-1.7 0-1.9.3-1 1.2 2 2 1.4 3.1-1.3 2.5-2-.3-2.5-.1-2.3 1.1.5 2.4 7.9 3.7 9.4 1.7 1.4-1.9 2.4-1.9 2.4.1 0 .9-.8 1.8-1.8 2-1.3.4-1.7 1.5-1.7 5.2 0 2.6-.3 6.3-.7 8.2-2.1 9.1-2.1 10.8.1 11.5 2.5.8 2.7 2.8.5 5-1.3 1.2-1.3 1.9-.4 3 1.6 2 .3 5.3-2.2 5.7-1.8.2-2.5 1.7-4.1 7.5-1.1 4-2.3 7-2.7 6.8-.9-.6-2 3-2 6.5.1 2.1.2 2.3 1.3 1 .7-.8 2.2-1.4 3.4-1.2 1.4.2 3.2-.6 4.8-2.2 3-3 3.1-4.2.7-4.8-1-.3-1.9-1.2-1.9-2.1 0-1.2.7-1.1 3.1.8 1.7 1.3 4.4 2.5 6 2.7s3.4 1.2 4 2.3 1.6 2.3 2.1 2.7c.6.5.5 1.1-.3 1.7-1.1.6-1 1 .3 1.5 2.6 1 3.4-.1 2.5-3.8-.5-2.2-.4-3.8.3-4.5.8-.8.6-1.9-.6-4.1-1-1.6-1.9-4.6-2-6.7-.1-2.8-.8-4-2.5-4.9-3.2-1.6-3.6-2.2-2.5-3.6.6-.7 1.3-2.5 1.7-4.1.5-2.2.3-2.7-1.3-2.7-3 0-3.2-1.2-1.3-6.8 1.9-5.8 3.2-6.7 3.2-2.2 0 1.8.6 3.3 1.5 3.6.8.4 1.5 1.2 1.5 2s.5 1.4 1 1.4c.6 0 1 1.3 1 2.9 0 2.1.6 3 2.1 3.4 3.9 1 8-3.3 4.4-4.7-.8-.3-1.5-1.5-1.5-2.7 0-1.5.4-1.9 1.6-1.5.9.3 2.5.6 3.6.6 1.8 0 2 .4 1.5 3.6-.4 2.6-.2 4.1.9 5.2 1.3 1.2 1.5 2.8.9 8.1-.4 3.6-.9 6.8-1.1 7-.4.4-2.2-.4-4.6-2.1s-2.8-.9-3 5.5c-.1 5 .2 5.8 3.1 8.8 2.8 2.8 3.2 3.7 2.7 6.8-.3 2-.9 6.9-1.2 10.8-.4 4-1 7.3-1.4 7.3s-1.5-1.1-2.4-2.5c-2.9-4.4-3.8-3-3.6 5.2.1 4.3.2 8.6.1 9.5-.2 2.9-1.9 2-3.2-1.6-.7-1.9-2.1-3.7-3.1-3.9-1.5-.4-1.8-1.6-1.8-8.5v-8l-3.5-.6c-3.3-.6-3.5-.9-3.5-4.4 0-2 .7-4.6 1.5-5.6.8-1.1 1.5-2.7 1.4-3.5 0-1.1-.2-1.2-.6-.4-.2.7-1.3 1.3-2.4 1.3-2.6 0-3.1 1.6-2 7.2.6 3.7.5 5-.5 5.9-.8.6-1.4 2.7-1.4 4.5 0 3.9-.8 4.2-4.3 1.4-1.4-1.1-2.8-2-3.2-2-.3 0-.5 2.1-.3 4.7l.3 4.8h5.7c10.5 0 6.7 2-6.2 3.2l-12.5 1.2 12.3-.6 12.2-.5v3.9c0 3.1.5 4 2.7 5 1.5.7 3.3 1.3 4.1 1.3.7 0 1.2.6 1 1.2-.5 1.3-15.2 5.6-19.8 5.7-5.5.2-5.5 1.4 0 10.2 2.9 4.6 7.7 11.9 10.7 16.2s5.2 8.1 4.9 8.5c-.4.3-5.5.9-11.4 1.3s-12.5 1-14.7 1.3c-3.8.6-4.1.5-7.5-3.9-1.9-2.5-8.3-9.3-14.2-15-9.6-9.4-12.7-13.5-9.9-13.5.5 0 .7-1.8.4-3.9-.3-2.2-.2-6.1.2-8.6l.7-4.7 7.8.4c6.6.2 7.5.1 5.7-.9-1.2-.6-4.4-1.7-7.2-2.4-2.7-.6-6.2-1.8-7.8-2.6-2.4-1.2-2.6-1.7-1.6-3.4.7-1.4.8-4.9.4-10.2-.4-4.5-.9-13.2-1.1-19.2-.1-6.1-.7-18.4-1.3-27.5-1-17.5-2.6-61.3-2.6-74.2 0-5.1.5-8.1 1.3-9 1.1-1.1 1.3-1 1 .2-.2.9.3 1.4 1.2 1.1.8-.2 2.3-.5 3.4-.6 2.5-.2 4.6-3.2 4.6-6.5 0-1.4.5-3.1 1.1-3.7s.7-1.3.2-1.6c-1.1-.7.4-21.9 1.6-22.7.5-.3 1.1-2.1 1.4-4s1.2-8 2.1-13.5c2.4-15.8 5.2-54.7 5-71.7 0-4.3-.7-4.1 15.9-5.9 6-.6 11.1-.8 11.5-.5.3.4.7 1.9.8 3.4s.2 3.3.3 4c.1.8 1.3 1.1 3.3 1 1.8-.1 3.3.3 3.5.9.3.9 1.2.8 3.1-.4 2.7-1.7 2.7-1.7.9.3-1.9 2.3-2.4 4.5-.5 2.6.7-.7 2-1.2 3-1.2 1.2 0 2.6-1.6 4-4.5 1.2-2.5 2.8-4.5 3.6-4.5.7 0 1.1-.3.8-.8-.5-.9 2.2-4.8 2.9-4 .3.3-.1 1.8-1 3.4-.8 1.6-1.5 4-1.5 5.4 0 2.1.2 2 1.9-1.3 2.8-5.5 7-10.7 8.4-10.4.7.1 1.1-.6.9-1.6-.2-.9.2-1.7.8-1.7.5 0 1 .7 1 1.7 0 3.1 1.1.6 2-4.8.6-3 1.4-7.3 1.9-9.7.9-4.7-.3-6.2-5.1-6.2-3.5 0-5.6-1.6-4-3.2.6-.6 1.2-1.5 1.2-2 0-.7-12.6-.3-24.1.7-2.5.2-5 0-5.7-.3-1.4-.9 0-7.9 2-9.5 1.4-1.2 4.5-12.4 5-18.2l.3-3 14-1.8c14.3-1.8 34-4.6 82.5-11.7 15.1-2.2 32.5-4.7 38.5-5.5 6.1-.8 17.1-2.4 24.5-3.5 18.3-2.8 46.6-6.4 82-10.5 16.2-1.9 30.6-3.7 32-4 3.4-.7 66.9-8 86.5-10 17.4-1.8 29.7-3.3 30.2-3.9.4-.4.7-4.8 1.8-24.6 2.4-44.8 9.1-134.8 10.5-141.3l.8-3.7h-37.9l1.5 2.2c2.2 3.1 2 6.5-.4 7.8-2.5 1.3-4.3.4-3.5-1.9.3-1-.7-2.9-2.4-4.9-2.9-3.1-3.2-3.2-11.5-3.2-4.7 0-8.6.4-8.6.9m-3.4 5.5c.3.8-.4 2.4-1.5 3.5-1.2 1.2-2.1 2.7-2.1 3.5s-2 1.9-4.7 2.6c-5.8 1.5-20 2.1-22.8 1-1.7-.7-1.7-.9-.2-.9 2.2-.1 2.2-1.9 0-4.3-1-1.1-1.3-2.2-.7-2.7 3.4-3.3 30.9-5.6 32-2.7m-91.7 63.5c1.2 1.2 1.8 2.7 1.4 3.6-.4 1.3 0 1.6 2.2 1.3 2.6-.3 2.8 0 2.9 3.2.1 1.9.5 4 .9 4.7.4.6.2 1.5-.4 1.9-1.8 1.1-6.8 1.3-7.4.3-.3-.4-1.3-.5-2.2-.2-1.2.5-1.5.2-1-1 .3-.9.2-1.9-.3-2.2s-.6-1.3-.3-2.2c.5-1.2.3-1.4-.8-.8-.8.5-2.1 1-2.9 1-5.3.5-5.4.5-4.2 1.7 1.5 1.5-.3 3.9-2.4 3.1-.8-.3-1.4 0-1.4.7 0 .6 1 1 2.2.8 1.1-.2 2.3.3 2.5.9.3.8-.4 1.3-1.6 1.3s-2.1.5-2.1 1.1.9.8 2.1.4c1.9-.6 2.1-.4 1.6 1.4-.3 1.1-.1 2.4.4 2.7.6.4.6 1.1-.1 1.9-.8.9-.4 1.1 1.6.7 2.3-.4 2.5-.2 1.9 1.7-.6 1.8-.2 2.1 2.5 2.1 2.4 0 3 .4 2.8 1.7s.3 1.7 1.9 1.6c1.6-.2 2.2.2 2.1 1.5-.3 3.9.3 5.2 2.3 5.2 1.6 0 1.9.4 1.4 2-.5 1.7-.2 2 2.2 2 2.5 0 2.8.3 2.7 3.2 0 1.8.4 3.8.8 4.5.5.6.4 1.4-.3 1.8-.8.6-.8 1 .2 1.5 1 .7 1 1.1 0 2.4-1 1.2-1.1 1.6-.1 1.6.7 0 1 .8.7 2-.3 1 0 2.1.6 2.3 1.9.6-.4 2.9-2.4 2.4-2.1-.6-3.5.8-1.9 1.8 1.5.9.2 2.5-2.1 2.5-1.6 0-1.9.5-1.4 1.9.8 2.6-.3 3.1-7.6 3.6-5.3.4-6.5.1-8.5-1.8-1.7-1.7-2-2.5-1.1-3.5 1.1-1.4-1.2-1.2-10.3.8l-3.5.8 3.3.1c3.6.1 4.1 2.5.6 2.7-3.7.3-3.9.4-2.5 1.3 2.4 1.6.2 2.9-6.1 3.7-12.1 1.4-13.8 1.3-11.8-1.1.9-1 .4-1.9-1.9-3.6-2.2-1.6-2.7-2.5-1.9-3 1-.7 1-1.1.1-2s-1-1.6-.2-2.6c.7-.8.8-1.3.1-1.3-.5 0-.9-1.5-.8-3.3.2-1.7-.2-3.8-.8-4.6-.8-1.1-.8-1.5.2-1.9 1-.3 1-.7.1-1.9-1-1.1-1-1.6 0-2.2s.9-1-.4-1.5c-1.4-.5-1.5-.9-.6-2 .7-.8.8-1.7.3-2s-.8-2.1-.7-4.1c0-1.9-.3-3.5-.6-3.5-.4 0-.6-1.8-.4-4 .2-2.5-.1-4-.8-4-.8 0-.8-.3.1-1.2s.9-1.5 0-2.6c-.9-1-.8-1.6.3-2.3s1.1-.9 0-.9c-.8 0-1.1-.7-.8-2 .3-1.1.1-2.3-.4-2.6-.6-.3-.5-1.1.2-2 .8-1 .8-1.4 0-1.4-2.1 0-1.1-2.1 1.5-3 2.2-.9 2.4-1.3 1.4-2.5-1.2-1.5-1.1-1.6 1-1.9.6 0 .9-.6.8-1.1-.1-.6-.8-.9-1.5-.7s-1.3-.2-1.3-.7c0-.6 1.7-1.3 3.8-1.6 2-.3 5.6-1 8-1.5 5.9-1.4 6.4-1.3 6 1.2-.3 2 .1 2.3 2.5 2 2.5-.3 2.8-.1 2.2 1.7-.7 2.5-.3 2.5 4.9.7 2.2-.8 3.4-1.6 2.7-2-1.7-1.1-.3-2.6 2.5-2.6 2.4 0 3.2-1.4 1.4-2.5-.6-.4-.8-1.1-.4-1.6.3-.5.9-.7 1.3-.5.4.3 1.2.2 1.8-.2s3.4-.8 6.2-1c4-.2 5.4.1 7 1.7m-57.2 9.2c-.3 1.1-.2 1.9.3 1.9.4 0 .7 1.5.6 3.2-.2 1.8.2 3.9.7 4.5.6.9.5 1.4-.4 1.7-4.1 1.3-4.3 1.4-2.2 1.5 2.7.1 4 2 2.2 3.2-1.1.7-1.1.9-.1.9.7 0 1.2.8 1.1 1.7-.1 1 0 2 .1 2.3s.3 3 .5 6 .4 5.5.5 5.5c.2 0 .3 2.5.4 5.5.1 3.1.4 6 .7 6.5.3.6.5 3.4.5 6.2-.1 2.9.2 5.3.6 5.3.3 0 .5 1.6.4 3.5-.2 2 .1 3.8.6 4.1s.4 1.1-.2 1.9c-.6.7-.7 1.6-.3 1.8.5.3.9 1.8.8 3.3 0 2.4-.5 2.8-3.4 3.2-2.9.3-3.3.1-2.7-1.4.4-1 .1-2.1-.6-2.6-1-.6-1-1 .2-1.8 1.3-.9 1.3-1.1 0-2s-1.3-1.1 0-1.9c1.2-.9 1.2-1.1-.3-1.7-1.3-.5-1.5-1-.7-1.9.8-1 .8-1.5 0-2s-.8-1 0-2c.8-.9.6-1.4-.7-1.9-1.5-.6-1.5-.8-.3-1.6 1.2-.7 1.2-1.2.3-2.1s-1-1.6-.2-2.6c.9-.9.8-1.3 0-1.3s-1-.8-.6-2c.4-1.3.2-2-.6-2-1 0-1-.3-.1-1.2s.9-1.5-.1-2.6c-.9-1.2-.9-1.6.1-2 1-.3 1-.7.1-1.9-1-1.1-1-1.6 0-2.2s.9-1-.4-1.5c-1.4-.5-1.5-.9-.5-2.1.9-1.1 1-1.5.1-1.5-.8 0-1-.8-.6-1.9.3-1.1.1-2.3-.6-2.6-.8-.6-.7-1 .2-1.6 1.2-.8 1.1-1.1-.1-1.9s-1.3-1.1-.1-1.9c2-1.3-.5-2.4-2.8-1.2-1.3.7-1.7 1.8-1.4 3.1.7 2.5-.1 2.5-4.3-.1l-3.3-2 .4 6.8c.2 3.7.5 6.8.5 6.8.3 0 1.9 14.9 2.5 23 .2 2.2.6 5.8.9 8 1.8 13.9 1.9 13.2-1.4 13.7-3.6.5-5.5-.5-4.7-2.6.4-.9.3-1.6-.1-1.6-1.3 0-1.1-10 .2-10 .6 0 .3-.5-.7-1.1-1.4-.8-1.6-1.4-.6-2.5.7-.9.8-1.4.1-1.4-.6 0-.9-1.6-.7-3.8.1-2-.2-4.1-.9-4.5-.8-.6-.8-1 .2-1.4s1-.8.1-2c-1-1.1-1-1.6 0-2.3 1-.6 1-.9.1-1.5-.6-.4-.9-1.3-.6-2 .2-.7.2-1.6-.2-1.9-.3-.4-.7-2.4-.9-4.4-.5-9.3-1.1-14-1.7-15.1-.4-.6-.4-1.6-.1-2.1.3-.6-.1-1-1-1-1.5 0-1.5-.1 0-1.6 1.3-1.3 1.4-1.9.4-2.5s-1-1.1 0-2.3 1-1.6.2-1.6-1-.8-.6-2 .2-2-.5-2c-.6 0-.8-.5-.5-1 .9-1.5 4.5-1.2 5.1.5.4.8 1.3 1.5 2.1 1.5 1.1 0 1.4.7 1 2.1-.5 1.8-.2 2 1.8 1.5 1.8-.5 2.7-.1 3.5 1.4 1.3 2.5 3 1.8 2.3-1-.4-1.6 0-2 2.2-2 2.3 0 2.6-.2 1.5-1.5-1-1.2-.9-1.6.4-2 5.2-1.6 5.1-1.6 3.7-2.4-1.8-1.1-.5-3.2 1.5-2.4.9.3 1.4 1.3 1.1 2.4m-29 1.1c0 .7.3 4.7.8 8.8.4 4.1.8 10.1.8 13.2.1 3.2.6 5.8 1.1 5.8.4 0 .6.7.2 1.5-.3.8.2 2.1 1 3 .9.8 1.1 1.5.5 1.5-1.3 0-.6 13.4 1.4 26 .3 1.9.7 6.5 1 10.2l.5 6.8h-3.9c-4.5 0-6-1.4-3.4-2.9 1.7-1 1.7-1 .1-1.1-2.1 0-2.3-1.1-.6-2.8.9-.9.9-1.2 0-1.2s-1.1-1.2-.8-4c.3-2.5.1-4-.6-4s-.6-.5.1-1.4c.8-.9.8-1.6.2-2s-.9-2.2-.7-4.1c.1-1.9-.1-3.5-.5-3.5s-.6-1.5-.5-3.3c.2-1.7 0-3.6-.3-4.2-1-1.9-1-6.5 0-6.5.8 0 .7-.5-.2-1.6-1-1.3-1-1.7.2-2.5 1.1-.7 1.1-.9 0-.9-.8 0-1.1-.7-.8-2 .3-1.1.1-2.3-.4-2.6-.6-.4-.6-1.1.1-1.9.8-1 .7-1.4-.2-1.8-1-.4-1-.7.1-1.5s1-1.2-.5-2.1c-1.5-.8-1.6-1.2-.5-2 1-.6 1-1 .1-1.6-.6-.4-.9-1.3-.6-2.1.3-.7.1-1.6-.5-2s-.6-1.1.2-2c.7-.8.7-1.4.1-1.4-.5 0-.9-1.4-.8-3.2.1-2.6.7-3.3 3.6-4.4 1.9-.7 3.5-1.3 3.6-1.3 0-.1.1.5.1 1.1m-11.3 2.6c.4.7 1.4 9.3 2.1 18.7.8 9.4 1.7 15 2.6 16.1.7.8.6 1.3-.1 1.6-.7.2-.7 1.4-.1 3.6.6 1.8.7 4 .4 4.8s0 1.4.7 1.4c.8 0 .9.4.4 1.2-1.2 1.6-1 4.3 1.5 21.3 1.1 7.8.8 8.3-3.7 7.5-2-.3-5.4-.3-7.4.1-2.1.3-3.8.3-3.8-.1 0-.3 1.7-1.1 3.8-1.6 2-.5 3.5-1.4 3.4-1.9-.2-.6-.9-.9-1.5-.7-4.4 1.3-6.9 1.4-6.3.4.4-.7 2-1.2 3.5-1.2 3.2 0 5.9-2.4 4.1-3.5-.8-.5-.8-1.1.1-2.1.7-.9.8-1.4.1-1.4-.6 0-.9-1.6-.7-3.8.1-2-.2-4-.9-4.5-.8-.5-.7-.9.3-1.6 1-.6 1-1 .1-1.6-.6-.4-.9-1.4-.6-2.2.5-1.2-.2-1.3-4.2-.7-5.2.7-6.4 1.2-5.8 2.2.2.4.7 3.4 1.1 6.7.3 3.3.9 8.2 1.2 11 .3 2.7.6 6 .6 7.3-.1 2.2.1 2.3 5.6 1.7 3.1-.4 6.4-.9 7.4-1.1.9-.3 1.7-.1 1.7.4 0 1.3-19.3 4.2-20.4 3.1-.6-.5-.1-.9 1.2-.9 1.2 0 2.2-.4 2.2-.9 0-1.2-7.1-1.1-8.7.1-.7.6-1.6.7-2 .5-.5-.3-3.8 0-7.3.7-9.4 1.7-13.5 1.5-13.4-.7.1-1.3-.6-1.7-2.8-1.7-4.2 0-6.7 1.6-6.1 3.9.4 1.5-.2 1.9-2.9 2.3-4.4.7-6 0-5.3-2.3.4-1.1.2-1.9-.6-1.9-.9 0-.9-.3 0-1.4.9-1 .9-1.6.1-2.1s-.8-1.1.1-2.1c.9-1.1.9-1.4 0-1.4-.8 0-1-.8-.6-2 .4-1.3.2-2-.6-2-1 0-1-.3-.1-1.2s.9-1.5 0-2.6c-.9-1-.8-1.6.3-2.3s1.1-.9 0-.9c-.8 0-1.1-.7-.8-2 .3-1.1.1-2.3-.4-2.6-.6-.3-.5-1.1.2-2 .9-1.1.9-1.4 0-1.4-.8 0-1-.8-.6-2s.2-2-.6-2c-.9 0-.9-.3 0-1.4 1.6-1.9-.3-3-2.8-1.6-2.5 1.3-9.3 1.4-7.1 0 .8-.5 3.2-1.2 5.2-1.5 6-1.1 5.4-2.4-.9-1.9l-5.8.4 5.2-1.8c7-2.3 7.7-3.3 1.7-2.6-5.3.7-5.5-.4-.3-1.5 5.7-1.2 4.7-3.1-1.3-2.6-5.4.5-4.1-.5 2.5-1.9 3.3-.8 3.6-2.6.5-2.6-2.3-.1-2.3-.1.2-1.5l2.5-1.4-2.5-.1c-1.4 0-5 .6-8 1.4-6.2 1.5-13 1.9-13 .8 0-.5.6-1.4 1.3-2.1 1-1.1.8-1.3-1-.8-1.4.3-3.1-.2-4.4-1.4-2.8-2.4-3.2-2.4-2.4.2.5 1.5.2 2.2-1.3 2.6-1.8.4-2.2 2.5-1.3 6 .1.2.1.6.2 1 0 .5.9 1.1 2.1 1.6 1.3.4 1.8 1.3 1.4 2.3s0 1.5 1.2 1.3c3.3-.3 4.3.1 4 1.8-.2 1 .4 1.8 1.2 1.9 3 .2 3.2.4 2.1 1.8-.8 1-.9 1.6-.1 2.1.6.3.8 1 .5 1.5-.3.4.3.7 1.3.6 1.1 0 1.8.7 2 2.1.2 1.6.9 2.2 2.5 2 1.6-.1 2.2.3 2.1 1.5-.1 1.4.7 1.8 4 1.9l4.1.1-3.7 1c-3.8 1-5.2 2.8-2.3 2.8.8 0 1.5.4 1.5 1 0 .5-.7 1-1.6 1-.8 0-1.2.5-.9 1 .4.6 1 .8 1.5.5s1.1-.1 1.5.5c.3.6-.1 1.3-.9 1.6-.9.3-1.6 1-1.6 1.5 0 .4.7.6 1.5.3.8-.4 1.5-.1 1.5.5s-.7 1.1-1.5 1.1-1.5.4-1.5 1c0 .5.7 1 1.5 1 1.9 0 2 1.6.1 2.3-1.2.5-1.3 1.3-.6 3.8 1.1 3.8.5 5.2-2.1 4.4-1.5-.5-1.9-.2-1.7 1.7.3 2.5.8 2.3-11.5 3.4-6.6.5-6.9.5-6.2-1.5.4-1.3.2-2.1-.5-2.1-.6 0-.9-.4-.5-.9.3-.5-.5-1.3-1.7-1.7-2-.6-2-.8-.5-1.9 1.6-1.2 1.6-1.3.1-1.9-1.3-.5-1.4-.9-.5-2s.9-1.5-.1-1.9-.8-1 .7-2.2c2.6-2 5.1-1.5 4.8 1.1-.2 1.8.2 2 2.4 1.6 2.3-.4 2.5-.2 2 1.7-.6 2.3.8 2.7 3.3 1.1 1.3-.8 1.3-1.1.1-1.9-1.9-1.2-.3-3.3 2-2.6 1.1.4 1.9.2 1.9-.4s-.5-1.1-1.1-1.1c-.8 0-.8-.4 0-1.4.9-1 .9-1.6.1-2.1s-.8-1.1.1-2.1c.9-1.1.9-1.4-.1-1.4-.7 0-1-.8-.7-2 .4-1.7 0-2-2.4-2-2.9 0-3.9-1.4-1.6-2.3.6-.3-.1-.6-1.8-.7-1.8-.2-2.3-.4-1.2-.7 2.1-.6 2.2-1.9.1-2.7-1.4-.5-1.4-.9-.3-2.3 1.3-1.5 1.1-1.6-.9-1-3.4.8-5.6-.2-4.1-1.9.6-.8.8-1.5.3-1.5-.5-.1-1.5-.2-2.3-.3-1.7-.1-2.8-2.6-1.2-2.6.6 0 .3-.9-.6-2-1-1.1-2.4-2-3.1-2-1.1 0-1.2-.3-.3-1.3.8-1 .7-1.7-.2-2.6s-.9-1.4.1-2c1.1-.6 1-1-.3-1.5s-1.5-.9-.6-2c.6-.7.8-1.6.4-1.9-1.6-1.6-1.1-5.6.8-6.2 2.2-.7 2.5-2.1.7-2.8-.7-.3 0-1 1.7-1.8l3-1.3-2.7-.4c-3.4-.4-3.7-2.2-.5-2.3 1.2 0 4-.2 6.2-.5 8.3-1.1 9-1 8.9.9-.2 1.3.5 1.7 2.5 1.5s2.6.1 2.5 1.4c-.1 1.1.5 1.8 1.7 1.8 1.3 0 2 .8 2.1 2.2 0 1.3.2 2.7.3 3.3.2.5.3 1.4.4 2 0 .5.6.4 1.3-.3s2.6-1.2 4.2-1.2c4 0 6.5-1.5 4.1-2.4-1.4-.5-1.5-.9-.6-2s.9-1.5-.1-1.8c-1-.4-1-.8.1-2.1.9-1.2 1-1.7.2-1.7s-1-.8-.6-2c.4-1.3.2-2-.6-2-3 0 1.3-2.5 4.6-2.7 2.9-.1 3.5.2 3.5 1.8 0 1 .5 1.9 1.1 1.9s.9-.7.5-1.5c-.3-.9 0-1.5.9-1.5 1.5 0 1.7.8 1.7 6.2.1 3 2.1 4 5.8 2.6 2-.7 2.2-1.1 1-1.8-1.7-1.1-.6-2.5 2.5-3.4 1.1-.3.1-.4-2.2-.2-4.3.4-4.3.4-2.1-1.4 1.2-1 2.8-1.5 3.5-1.3 1.5.6 1.8-1.3.3-2.2-1.6-1 0-2.6 2.3-2.4 1.2.1 3.8-.1 5.7-.5 3.2-.7 5.3-1 10.5-1.8 1.4-.2 2 .2 1.9 1.4s.6 1.6 2.5 1.5c1.9-.2 2.7.3 2.9 1.9.3 1.9.7 2 6.5 1.3 3.4-.4 6.6-.5 7-.2 1.5.9-1.6 2.3-5 2.3-1.8 0-3.3.4-3.3 1 0 1.5 8.7 1.2 9.2-.3.7-1.8.2-9.2-.6-10.5-.4-.7-.1-1.4.6-1.6.7-.3 2-.7 2.8-.9 2.3-.8 2.8-.8 3.4.1M229 224c1.4 2.1 1.2 3-.4 3-.8 0-1.6 1-1.8 2.2-.2 1.8-1.3 2.5-5.3 3.5-6.3 1.4-14.5 1.6-16.5.3-1.2-.8-1.2-1-.1-1 1 0 1.1-.3.2-1.3-.8-1-.6-1.9.9-3.5 3.9-4.2 20.9-6.6 23-3.2m254.8 5.8c-.2 1.2.3 1.6 2 1.4 2.4-.4 2.9.7 1 2.6-.9.9-.9 1.2.1 1.2.8 0 1.2 1.1 1 3.3-.2 1.8 0 3.7.3 4.2.4.6.5 2.5.4 4.3-.1 1.7.1 3.2.4 3.2.4 0 .7 1.3.7 3 0 1.6-.5 3-1.1 3s-.5.4.3.9 1.1 1.6.8 2.4-.3 1.8.1 2.2c.4.3.7 2.7.7 5.3s.3 5.1.6 5.7c.3.5.5 2.5.5 4.2-.1 1.8.1 3.3.4 3.3s.5 2.6.5 5.7c0 4.1.4 5.7 1.3 5.5 2.1-.4 1.3.8-1.2 1.8-2.2.8-2.4 1.2-1.6 4.1 1 3.5.5 5.3-1.4 4.6-.6-.3-4.1.1-7.7.8-6.3 1.2-11.6.7-9.1-.9 1.6-1 .5-2.7-1.3-2-2.2.9-3.8-.5-2.5-2.1.8-1 .7-1.4-.2-1.7-1-.4-1-.8.1-2.1.9-1.1 1-1.7.2-1.7-.6 0-1.1-.5-1.1-1 0-.6 1.1-1 2.5-1s2.5-.4 2.5-1c0-.5-.7-.7-1.5-.4-.8.4-2.2.3-3.1 0-1.3-.5-1.4-.9-.5-2s.9-1.5-.1-1.8c-1-.4-1-.8.1-2.1 1.2-1.5 1.1-1.7-.4-1.7s-1.5-.2-.4-1.6c1-1.3 1-1.7-.2-2.6-1.1-.7-1.1-1.1-.1-1.5s1-.8.1-2c-1-1.1-1-1.6 0-2.2s.9-1-.4-1.5c-1.4-.5-1.5-.9-.5-2.1.8-.9.8-1.5.2-1.5s-.9-1.6-.8-3.5c.2-2-.1-3.8-.7-4.2-.6-.3-.3-1.2.8-2 1.7-1.2 1.7-1.3.2-1.3-2 0-2.2-1.1-.5-2.8.9-.9.9-1.2-.1-1.2-.8 0-1-.7-.6-2 .4-1.2.2-2-.6-2-.9 0-.9-.3 0-1.4.9-1 .9-1.6.1-2.1-.6-.4-.9-1.3-.6-2.1s.1-1.4-.5-1.4c-2 0-.3-2.4 2.2-3.1 2.4-.7 2.4-.7-.3-.8-3.2-.1-3.9-2.1-.8-2.1 1.5 0 1.9-.6 1.7-2.3-.1-1.7.4-2.3 2.3-2.5 1.4-.1 5.2-.6 8.5-1 6.8-.9 7.7-.7 7.3 1.6m-24.9 3c-.1.9 0 1.9.1 2.2.3.9.7 4.3 1.5 13.2.7 8.8.7 8.8-1.7 8.9-1.2 0-1.7.3-1 .6 1.7.7 1.5 3.3-.3 3.3-.8 0-1.5.4-1.5.9s.6.8 1.3.7c.6 0 1.2.3 1.2.9 0 .5-.6.9-1.2.7-.8-.2-1.2.6-1 2 .1 1.8-.3 2.3-2 2.2-1.9 0-2.2.3-1.7 2.3.5 1.9.2 2.3-1.6 2.3-1.7 0-2 .4-1.5 2 .5 1.4.2 2-.9 2-2.4 0-1.9 1.8.7 2.3l2.2.4-2.3.8c-1.4.5-1.9 1.2-1.4 1.9.4.6.8 2.6.8 4.3-.1 3 .2 3.3 2.9 3.4l3 .2-2.7.4c-1.7.3-2.8 1.1-2.8 2 0 1.2.7 1.4 3.3 1 1.7-.3 5.5-.8 8.2-1.1 4.8-.5 4.9-.5 1 .4-2.2.5-5.7 1.2-7.8 1.5s-3.5 1-3.2 1.4c.2.5 2.6.5 5.1 0 2.6-.5 5-.7 5.2-.4.3.3 1.1 0 1.9-.7 2-1.6 2.9-.1 3.7 5.5.5 4.6.5 4.8-1.7 4.6-1.2-.1-2.9.1-3.7.4-1.5.6-7.4 1.4-14.5 2.1-2.2.2-4.7.6-5.5.9s-5.8.8-11 1.2c-5.2.3-9.7.9-10 1.4-.3.4-4.5 1.1-9.5 1.5-4.9.3-9.4 1.1-9.9 1.6-.6.6-3.7 1-7 1-3.4 0-7.9.5-10.1 1.1s-5.7 1-7.9 1c-2.1-.1-4.3.2-5 .7-1.1.9-4.7 1.4-21.3 3.2-4.5.4-8.6 1.1-9 1.3-.5.3-2.8.8-5.2 1.1-4.1.4-7 1.6-4 1.6.8 0 12.9-1.6 26.9-3.5 14-2 32.3-4.4 40.5-5.6 8.3-1.1 16.1-2.2 17.5-2.4 6.3-.9 15.4-1.7 15-1.2-.3.3-19.9 3.3-43.5 6.7-65.7 9.3-70.9 10.1-71.4 10.5-1.3 1.3 1.9 1.1 17.9-1 85.3-11.7 105.1-14.2 102.5-13-1 .5-64.4 9.6-97 14-26.3 3.5-24.5 3-24.5 7 0 1.9-.5 3.7-1.1 4-2.1 1.3-5.4-.5-6.6-3.5-.9-2.3-1.8-3-4-3.1l-2.8-.1 2.8-1c1.5-.5 2.7-1.4 2.7-1.9 0-.6-.5-.7-1-.4-.6.4-1.9.4-2.8 0-1.4-.6-1.3-.9.8-1.8l2.5-1-3-.7c-3-.6-3-.6-.6-1.4l2.4-.8-2.3-1.3-2.4-1.3 3-.5c1.6-.4 5.2-.9 7.9-1.2 8.9-1 11.5-1.6 11.5-2.4 0-.4-2.6-.4-5.7.1-13.5 1.9-16.3 2.1-16.3 1.1 0-.6 3.6-1.5 8.1-2.1 4.5-.5 8.6-1.6 9.3-2.2.8-1 .5-1.1-1.4-.6-1.4.3-5.9.8-10 1.1-5.7.4-6.8.3-4.5-.5 1.6-.5 5.6-1.2 8.7-1.6 3.2-.4 6.3-1.3 7-2.2 1.1-1.3 1-1.4-.7-.9-4.1 1.3-16 2.6-16.8 1.8-.4-.4 3.1-1.3 7.8-2s8.8-1.8 9.2-2.3c.4-.7-.6-.9-2.8-.5-1.9.4-6.3.9-9.9 1.2-11.8 1-3.2-1.2 14-3.5 10.4-1.5 17.1-2.9 18-3.8 1.3-1.2 1.3-1.3-.5-.9-3.2.9-22.4 3.6-30 4.2-11.4.9-3.9-1.1 13.5-3.5 8.5-1.2 15.7-2.4 15.9-2.6 1.5-1.4-2.6-1.2-18 1.1-9.5 1.4-17.7 2.1-18.1 1.7-.5-.5 6.9-1.9 16.4-3.2s17.7-2.7 18.3-3.2c1.4-1.2-2.8-1-18 1.2-15.6 2.2-18.3 2.4-17 1.2.6-.5 7.1-1.7 14.6-2.7 7.5-.9 14.3-2.1 15-2.6 2.1-1.3-3.1-1.1-14.1.6-5.2.8-11.3 1.4-13.5 1.4l-4-.1 3.4-.8c1.9-.5 7.8-1.4 13.2-2.1 9.1-1.1 13-2.2 11.9-3.2-.3-.3-6.1.4-13 1.4-14.4 2.1-15 2.2-15 1.1 0-.5 6.1-1.7 13.6-2.7 7.6-1 13.1-2.2 12.7-2.6-.5-.5-5.5-.3-11.4.6-10.6 1.5-16.6 1.9-15.7 1 .2-.3 6.2-1.4 13.3-2.5 14-2.1 18.1-3.6 7-2.6-3.8.4-10.1.9-14 1.1l-7 .4 8-1.4c4.4-.8 9.5-1.7 11.3-2 1.7-.3 3.2-.9 3.2-1.4 0-.4-4.2-.2-9.2.5-5.1.7-10.2 1.3-11.3 1.3-4.4.1 1-1.8 7.2-2.5 3.4-.3 7-1.3 8-2.1 1.7-1.3 1.6-1.4-.8-.9-1.4.3-5.9.8-10 1l-7.4.5 6.5-1.4c3.6-.8 7.5-1.4 8.6-1.5 1.2 0 2.7-.7 3.5-1.6 1.1-1.3.9-1.5-1.2-1-2.6.6-14.9 2.6-16.1 2.6-.5 0-.8-.4-.8-.8s3.7-1.3 8.2-2c4.5-.6 8.7-1.7 9.2-2.3.8-.9.1-1-2.9-.5-2.2.3-6.7.8-10 1.1-8.3.7-4.1-1.1 4.7-2 4.2-.5 7.3-1.4 8-2.3 1.1-1.3 1-1.5-1.2-.9-3.5 1-17 2.1-17 1.5 0-.3 3.8-1.1 8.5-1.8 4.6-.7 8.9-1.8 9.5-2.4.8-1-.5-1-6.3 0-8.6 1.5-12 1.7-11.3.5.3-.4 4.7-1.4 9.8-2.1s9.9-1.7 10.5-2.2c.7-.6 1.9-.8 2.8-.5.8.4 1.7.2 2-.3.8-1.4-1.6-1.2-11.5.5-9.5 1.7-15.4 2-13 .6.8-.5 6-1.4 11.5-2.1s11.1-1.9 12.5-2.6c3.2-1.7 1.5-1.7-9.5.1-8 1.3-18.6 2-16 1 .9-.4 31-5 81.8-12.5 10.9-1.7 20.8-2.9 22-2.9 1.2.1 0 .5-2.7.9-6.5 1.1-8.2 1.8-7 3 .6.6 2.2.6 4.4-.1 1.9-.6 6.6-1.3 10.5-1.5 3.8-.3 7.6-1 8.3-1.7.8-.6 3.1-1.3 5.1-1.4 2-.2 6.8-.8 10.6-1.4 3.9-.5 8.4-1.2 10-1.4 1.7-.3 4.8-.9 6.9-1.4 2.2-.5 4.3-.8 4.8-.5.4.3 1.5.1 2.4-.4s3.1-.9 5.1-1c2.7-.1 3.4.2 3.2 1.6m-57.4 178.1c.6 1.1-.5 1.3-30 4.7-12.1 1.3-29 3.3-37.5 4.4-31.4 3.9-37.7 4.5-36.7 3.4.5-.5 4.1-1.2 8-1.6 4-.4 9.2-.9 11.7-1.2 4.8-.7 19.8-2.5 26.5-3.2 4.5-.5 45.6-6.1 49.5-6.7 4.7-.8 7.9-.7 8.5.2M300 466c1.1 1.1 2 3 2 4.2 0 2.7 2.6 37.2 3.6 47.5.8 8.9-.6 11.8-6.3 12.7-6.7 1.1-50.2 3.6-51.8 3-2.3-.9-1.8-3.3.8-3.8 1.2-.3 10.5-1 20.7-1.5 10.2-.6 21.5-1.4 25.3-1.8l6.7-.6v-5.8c0-3.2-.4-6-.9-6.4-.6-.3-9.7.1-20.3.9-17.7 1.4-30.4 2-33.5 1.7-.7 0-1.3-1.2-1.3-2.4 0-1.9.8-2.6 3.9-3.6 7.6-2.2 9.2-8.4 7.2-26.3-.8-7.7-3.8-11.9-9.9-13.9-5.3-1.7-2.4-2.5 12.3-3.4 7.2-.4 16.4-1.1 20.5-1.5 14.9-1.4 18.8-1.2 21 1m-16.6 51.4c-.4 1 .6 1.3 4.5 1.1 2.7-.2 5.5-.6 6.1-1 1.8-1.1 4 .3 4 2.5 0 2.5-.7 2.8-9.2 3.4-6.2.4-6.8.2-6.8-1.5 0-1-.4-1.9-1-1.9-.5 0-1 .9-1 2 0 2.3-1.5 2.7-2.4.5-.3-.8-1-1.5-1.6-1.5-.5 0-1 .7-1 1.5s-.7 1.5-1.5 1.5-1.5-.5-1.5-1c0-.6-.8-1-1.7-1-1.5 0-1.6.2-.3 1 1.7 1.1 1.8 1.1-3.2 1.5-3.5.4-3.8.2-3.8-2.1 0-1.5.6-2.4 1.5-2.4.8 0 1.5.5 1.5 1.1 0 .8.5.8 1.5-.1.8-.7 4.4-1.5 8-1.8 4.6-.3 6.5-.9 6.5-1.8 0-.8.4-1.4 1-1.4.5 0 .7.6.4 1.4M195.6 595c.1 15.9 2.3 77.2 3 82.7.4 3.3 1 4.2 2.6 4.5 3.3.5 3.3 2.7 0 3.9-2.4.8-2.9 1.4-2.4 3.2.3 1.2 1.4 3.1 2.4 4.2 1.1 1.1 1.8 2.9 1.5 4.2-.2 1.3.2 2.4 1.1 2.8 3.2 1.2-.6 2.6-7.8 2.8-5.1.1-7.4-.2-7.7-1.1-.3-.6.3-1.2 1.2-1.2 1.5 0 1.5-.3.5-1.5-1-1.3-1-1.9.4-3.3.9-1 1.6-2.4 1.6-3 0-.7 1.2-1.3 2.8-1.3 1.6-.1 2-.3 1-.6-1-.2-1.8-1.1-1.8-1.8 0-.8-1.2-1.5-2.7-1.7-3.6-.4-4-2.5-.7-4l2.7-1.2-.7-11.5c-.4-6.3-1.2-12.3-1.7-13.3-.7-1.3-.7-2.3 0-3.2.7-.8.8-8 .5-20.7-.3-10.6-.2-26.7.1-35.7.6-14.4.9-16.3 2.4-16 1.4.3 1.6 2.1 1.7 12.8m270.6-.3c.5 1.8 1.3 3.3 1.8 3.3.6 0 1 .6 1 1.4 0 .7.9 1.6 2 1.9 1.3.3 2 0 2-.9 0-1.2.4-1.2 2-.4 2.6 1.4 2.7 5 .1 5-2.3 0-3.5 2.6-1.5 3.4.8.3 1.4 1.7 1.4 3.1 0 2.3-.2 2.4-2 1.5-1.6-.9-2.2-.8-2.6.5-.6 1.4-.8 1.4-2.3.1-.9-.8-2-1.6-2.6-1.8-.5-.2-1-1.8-1-3.5 0-2.3-.8-4.1-2.7-5.8-2.4-2.2-2.6-2.8-1.6-5 .9-1.9.9-2.8 0-3.7-2-2-1.3-2.9 2-2.6 2.7.2 3.3.8 4 3.5m88 21.9c2.7 1.4 3 2 2.5 4.9-.4 2.4-.1 3.5.9 3.9 1.7.7 1.9 3.3.2 3.9-1 .3-1.3 6.7-1.3 27.7v27.3l-4.5 1.3c-2.5.8-6.3 1.4-8.5 1.4s-5.7.5-7.7 1c-3.4 1-3.7 1.3-2.5 3.1 1 1.6.9 2.1-.2 2.8-1 .6-1 1.3-.2 2.9.8 1.5.7 2.3-.4 3.2-.9.8-1.3 2.1-1 3.1.9 2.6-.7 2.4-3.3-.4-1.9-2-2.1-2.9-1.4-6.8.5-2.4.5-9.4.1-15.4-.4-6.1-.8-13.1-.8-15.7-.1-3.8-.4-4.6-1.6-4.2-.8.4-1.5.1-1.5-.5s.9-1.1 1.9-1.1c1.8 0 1.9-.6 1.5-7.8-.3-4.2-1.1-8.2-1.8-8.7-1.8-1.5-1.9-6.5-.1-6.5.8 0 1.5-.4 1.5-.9 0-.6 1.7-1.1 3.8-1.3 3.2-.3 3.7-.7 3.8-2.8.4-8.4 1-9.6 4.7-7.9 3 1.4 3.1 1.7 1.7 5.3-1.2 3.2.1 3.3 8 1 3.9-1.1 4.9-1.8 3.9-2.5-1.1-.7-1-.9.6-.9 1.7 0 1.7-.2.5-1-.8-.5-2.5-1-3.8-1-2.1 0-2.2-.3-1.6-3.8 1.1-6 1.5-6.2 6.6-3.6m12.6 28.6c1.6 1.6 1.6 11.5 0 12.1-.8.3-.6.6.4.6 1.4.1 1.6.6 1 2.3-.4 1.3-.7 3.6-.7 5.3 0 2.3.4 3 2 3 1.4 0 1.9-.6 1.8-2-.1-1.1.3-2.3.9-2.6.7-.5.5-1.5-.5-3-1.2-1.6-1.5-3.4-1-6.3.3-2.3.7-4.2.8-4.4.2-.2 1.7.4 3.4 1.3 2.7 1.4 3.1 2.1 3.1 5.8 0 2.3-.4 5.6-.9 7.4-.7 2.2-.6 3.3.2 3.7.9.3.9.5 0 .5-.6.1-1.5-.4-1.8-.9-1.3-2.1-2.4-.9-1.5 1.5.5 1.4.9 4.3.8 6.4-.1 3-.5 3.8-1.6 3.3-1.2-.4-1.2 0 .2 2.4 2.3 3.8 1.1 12.7-1.7 13.2-2.9.6-4.7-1.7-4.7-6.2l-.1-4.1-1.4 3.3c-1.2 2.8-1.7 3.2-3.4 2.2-2.9-1.5-2.9-1.7-3.2-11.5-.3-6.3 0-9 .9-9.3.7-.2 1.2-1.8 1.2-3.7 0-6.1 1.1-9.4 2.9-8.8 1.4.4 1.4.3-.1-1-1.7-1.3-1.7-1.8-.9-11 .1-1.1 2.6-.8 3.9.5m27.6 7.8c7.2 4.1 9.6 7 3.3 3.9-5-2.4-7.6-1.8-4 .9 10.6 8 10.7 8.1 16.1 8 2.9-.1 5.8.4 6.4 1s1.2 3.6 1.2 6.6c.1 5.4 0 5.5-2.4 4.9-3.5-.8-17.5-7.8-23.6-11.8-4.6-3.1-5-3.7-4.7-6.7.7-6.3 1.4-9.8 1.9-9.8.2 0 2.9 1.4 5.8 3m-319.6 5.7c.6 1.6 1.4 5.1 1.7 7.8.5 4.2 2.3 9.4 2.5 7.5.1-.3.4-2.5.7-5 .6-5 1.5-5.9 5.2-5.7 2.3.2 2.7.8 3.2 5 .3 2.7.1 5-.3 5.3s-.8-.2-.8-1c0-2.3-2.1-1.9-2.7.4-.5 1.9-1.2 2.1-6.7 1.8l-6.1-.3-.5-8.5c-.3-4.7-.4-8.8-.2-9.3.8-1.6 3-.5 4 2m47.7 11.1c-.3.3.3 1.4 1.2 2.4 1.4 1.5 1.4 2.1.4 2.7-1.9 1.2 2.2 2.1 9.9 2.1 6.3 0 11 1.7 11 4.1 0 1-86.7 1.3-89.4.3-2.5-1-1.9-3.1 1.1-3.8 1.4-.4 16.7-.7 34-.6 17.7 0 31.3-.4 31.3-.9s-.7-1.4-1.5-2.1c-2.6-2.2-1.7-6.4 1.1-5.3.8.3 1.2.8.9 1.1m19.3 18.4c.5.7 1.3 2.8 1.7 4.5.5 2.8.4 3.3-1.2 3.4-1.5 0-1.5.2.3.9 1.2.5 2.5 1.3 2.8 1.8.6 1-87.8.7-89.5-.3-1.5-1-1-2.5.8-2.5 1.5 0 1.5-.1-.1-1.3s-1.7-1.6-.5-3.8c.8-1.3 1.9-2.7 2.4-3.1.6-.4 19.3-.8 41.6-.8 31.3 0 40.9.3 41.7 1.2m-14.9 17.7c2.3 4.3 2.3 7.9 0 10.2l-2.2 2.2 2.4-.8c1.3-.4 4.1-.9 6.2-1.2 3.3-.5 3.7-.3 3.7 1.6 0 1.2.8 2.4 1.8 2.7 3.9 1.2 4.6 2.2 4.9 6.8.4 4.2.2 4.8-1.2 4.3-2.3-.9-4.3 3.7-2.4 5.6.8.7 1.9 1.2 2.6 1 1.2-.4 2.8 4.9 2.4 7.8-.1.9.4 1.9 1.2 2.2.9.3 1.3 2.2 1.2 5.8 0 3 .5 5.7 1 6.1.6.4 0 .8-1.1.8-2.7 0-4-2.7-1.6-3.3.9-.3-1.3-.5-5-.6-3.7 0-7-.6-7.3-1.1-.3-.6-1.7-1-2.9-1-1.3 0-2.9-.7-3.6-1.5-.7-.9-1.8-1.4-2.4-1.2-1.1.4-7.2-1.4-11.1-3.3-3.1-1.4-31.8-12.2-42.5-16-5.2-1.8-10.1-3.8-10.8-4.5-1.5-1.4-2.7-10.4-1.8-14 .7-2.6.7-2.6 7.4-1.9 3.7.4 7.2.7 7.7.6 2.3-.1 5.4-1.1 7.2-2.3 1.6-.9 3.3-.9 8.4.1 10.4 2 17.2 2.6 20.7 1.7 1.9-.5 3.7-.6 4-.2.3.3.9 8.3 1.3 17.8s.8 17.5.8 17.9c.1.5.8.8 1.6.8 1.3 0 1.5-2.4 1.5-15.5 0-15.4 0-15.5 2.3-15.6 2.1 0 2.1-.1.2-.9-3-1.2-4.8-3.7-4.2-6 .3-1.1.1-2.3-.4-2.6-1.4-.8-1.1-2.2 1.1-4.4 1.6-1.6 2.4-1.8 5-.9 1.7.6 3.4 1.9 3.9 2.8m-125.8 0c.1.3.3 1.7.5 3.1.5 3.7 1.2 7.5 1.4 7.5.3 0 1.1 3.9 1.7 8.2.3 2.4.3 4.3-.1 4.3-1.2 0-14.6-7.1-15.1-8.1-.4-.5 0-2.2.8-3.8 1-2 1.1-3.4.4-4.6-.6-1.1-.6-2 .1-2.4.5-.3 1.1-1.5 1.3-2.6.6-2.7 8.5-4.2 9-1.6m398.4 3.4c1.7 1 1.8 1.2.3 1.5-2.3.5-1.8 4.2.7 4.7 1.1.2 2.9.6 4 .8 1.1.3-4.2.5-11.7.6-7.6 0-13.9-.3-14.3-.8-.3-.6.2-2.7 1.1-4.9l1.7-3.9 8.1.5c4.5.2 9 .9 10.1 1.5m-198.8 13.3c1 1.4 2.6 2.6 3.6 2.8.9.1 2.3.8 2.9 1.4.9.9.7 1.5-.8 2.7-1.8 1.4-1.8 1.6-.1 2.9 1 .8 1.7 1.8 1.5 2.2-.2.5 1.2 1.1 3 1.5 1.9.4 3.2.2 3.2-.4 0-.5.9-.2 2 .8s2 2.1 2 2.5c0 1.3-19.1 2.3-20.2 1.2-.6-.6-1.1-5.4-1.2-10.6-.1-10.3.7-11.7 4.1-7m141.3 3.8c0 .3-.7 1.1-1.5 2-1.4 1.3-.8 1.7 5.2 3.6 10.8 3.3 25.3 9.2 24.7 10.1-.3.5.1.7.8.4s6.3 1.6 12.3 4.1c6.1 2.5 13.4 5.2 16.2 6 2.9.8 7.3 2.3 9.7 3.4 2.5 1 11.9 4 20.8 6.6 29.3 8.3 69.8 22.6 69.8 24.5 0 1.4-1.7 1.1-8.3-1.5-16.5-6.4-34.9-12.6-64.4-21.6-5.6-1.7-13.3-4.3-17.1-5.9-8.4-3.5-13.8-4.8-12.8-3.2 1.2 1.9-.8 1.3-15.6-4.5-7.9-3-18.6-7.1-23.8-9.1-5.2-1.9-11.1-4.2-13-4.9s-5.3-1.3-7.4-1.4c-2.2 0-3.7-.3-3.3-.6.3-.3.9-.6 1.4-.6 2.1 0 4.4-2 3.6-3.1-.8-1-.9-2.2-.4-4.2.1-.6 3.1-.7 3.1-.1m-269.5 8.4c4.4 1.6 12.3 4.6 17.5 6.5 22.3 8.4 30.8 11.6 35 13.5 2.4 1.2 4.8 1.8 5.3 1.5.4-.2 1.6-.2 2.5.2 1.2.5-.9 1.4-6.3 3-10.1 2.9-11.6 3.5-10.9 4.6.7 1.2-1 1.1-4-.2-1.9-.9-4-.9-8.8.1-3.5.7-8.8 1.4-11.8 1.6s-8.2.6-11.4.9-6.4.1-7-.4-2.2-1.1-3.6-1.3 1.1-.8 5.5-1.2c7.2-.7 14.9-2.3 11.8-2.5-2-.1-1.5-1.8.7-2.4 1-.3 5.4-.1 9.7.4 5.1.5 11.1.4 17.3-.4l9.5-1.2-5.5-2.4c-8.3-3.6-14.5-5.1-24.7-5.8-6.2-.4-9-1-8.7-1.7.7-1.9-5.8-3.6-12.2-3.4-5 .2-6.6-.2-10.4-2.7-3.5-2.2-4.1-3-2.7-3.3 1.3-.3 1.6-.9 1.2-2-1.8-4.5-1.5-5.4 1.3-4.9 1.5.3 6.3 1.8 10.7 3.5m-76.7 10c.2 4.5.6 8.2.9 8.2 1.1 0 3.2-3.5 3.3-5.3 0-.9.4-1.7 1-1.7 2.1 0 3.4 4.9 3.6 13.2.2 4.8.8 9.6 1.4 10.7q1.05 2.1 0 2.1c-1.6 0-1.2 2.1.7 3.5 1.3 1 1.4 1.7.6 4.2-.6 1.6-.9 4.1-.6 5.4.4 2.3 0 2.6-5.5 3.8-3.2.7-7 1.1-8.3.9-2.3-.3-2.4-.6-2.1-5.8.2-3.3.9-6 1.8-6.7 1.3-.9 1.3-1.8.4-5.2-.8-3-.8-4.6.1-6.2.8-1.7.8-2.3-.1-2.9-1-.6-1.1-3.4-.5-11.6.4-6 .6-11.9.6-13.2-.1-1.5.4-2.2 1.2-2 .8.3 1.3 3.2 1.5 8.6m356.8-3.2c5.8 2.7 5.9 2.7 3 3.5-1.6.4-3.3.6-3.8.3-1.4-.9-6 .5-5.3 1.6.3.5 2 .7 3.8.4 4.3-.6 6.6.8 4.8 3-.8.9-1.9 1.6-2.7 1.6-.7 0-1.8.9-2.4 2.1-.7 1.1-1.4 1.8-1.7 1.5s-.1-1.2.6-2c.9-1.1.8-1.5-.3-1.9-.9-.4-1.8-.2-2.1.3-.4.6-1.7 1-3 1s-2.6.6-2.8 1.2c-.3.8-.6.6-.6-.5-.1-1.1-.9-1.7-2.3-1.8-2.3 0-2.3 0-.2-.9 2.1-.8 3.8-4.6 2.5-5.4-.4-.3-1.3-.1-2.1.5-.8.5-3 .9-4.7.9-2.9 0-3.3-.3-3.3-2.5 0-1.6-.6-2.5-1.5-2.5-.8 0-1.5-.5-1.5-1 0-.6 2.4-1 5.4-1 4.5 0 5.4.3 5.9 2 .3 1.4 1 1.8 2.1 1.4 1.2-.5 1.4-1 .6-1.9-2.8-3.4 3.9-3.3 11.6.1m-107.8 76.7c3.4 1.7 6.2 3.4 6.2 3.7s-2.8 2-6.2 3.7c-5.6 2.8-7.5 3.2-16.8 3.5-5.8.3-12.1.2-14-.2-3.3-.6-3.4-.7-1-1.3 1.4-.4 7.6-.8 13.8-1 7.2-.3 11.8-.9 12.5-1.7 1-.9.2-1.1-3.8-.6-2.7.3-15 .8-27.3 1.1l-22.2.6-1.1-2.8c-.7-1.9-.7-3.4 0-5.1 1-2.1 1.7-2.3 7.4-2.2 3.4 0 13.4-.3 22.2-.8 20.2-.9 22.6-.7 30.3 3.1m31.8 1.8c2 1.2 3.4 1.6 3.4.9 0-.6.4-.9.9-.6 1.3.9-1 7.7-2.9 8.4-.8.3-2.4 1.4-3.5 2.5-1.5 1.4-2.9 1.7-5.4 1.3-4.3-.7-6.9-3.1-7.7-7.4-.6-3-.5-3.2 2.4-3.2 2.1 0 3.5.7 4.6 2.5 1.8 2.8 6.6 3.4 8.4 1.2.9-1 .3-1.6-2.6-2.6-4.5-1.6-6.4-3-5.6-4.2.9-1.5 4.5-1 8 1.2"/><path d="M655 211.1c0 .7-.9.9-2.4.5-2-.5-2.3-.3-1.8 1.9.3 1.8 0 2.5-1 2.5-1.2 0-1.5 1.1-1.4 4.5.1 2.4.5 4.8.9 5.1.4.4.2 1.3-.4 2.1-.7.8-.8 1.3-.1 1.3.5 0 .9 1.8.8 4s.1 4 .4 4c.4 0 .6 2.5.5 5.6-.1 3 .2 5.7.7 6s.4 1.2-.2 1.9c-.7.9-.8 1.5-.1 1.9.6.4.9 2.2.7 4.2-.1 1.9.1 3.7.6 4s.6 1 .3 1.5c-.4.5.6.9 2 .9 2.2 0 2.5.3 2 2.1-.6 1.8-.4 2 1.7 1.3 1.2-.4 3.1-.8 4-.9 3.3-.3 3.1-1.5-.2-1.5-2.7 0-3-.2-2-1.4.6-.8 1.7-1.3 2.4-1 .9.4 1.3-.4 1.2-2.5-.1-1.7-.4-3.1-.8-3.1-.3 0-.5-1.6-.4-3.5.2-2-.1-3.8-.6-4.1s-.4-1.1.2-1.9c.7-.8.7-1.5.1-1.9-.5-.3-.9-2.1-.9-3.9 0-1.7-.1-3.4-.2-3.7-.2-.6-.8-7.2-1.3-14.2-.2-2.6-.6-5.1-1-5.4-1.5-1.5-.6-2.4 2.4-2.4 1.6 0 2.8-.4 2.5-.8-.3-.5-2.3-.7-4.6-.6-3.6.2-4 0-3.5-1.7.4-1 .4-1.9.1-1.9s-.6.5-.6 1.1M672.2 224.1c-1.3.5-2.8.7-3.2.4-.5-.3-1.1-.1-1.5.5s.5 1 2 1c1.7 0 2.5.5 2.2 1.2-.2.7-1.1 1.3-2 1.3-.8 0-1.9.4-2.3.8s.5.7 2 .7c1.8 0 2.6.4 2.3 1.2-.2.7-1.2 1.2-2.2 1-1.1-.2-1.5.2-1.3 1 .3.7 1.3 1.2 2.4 1 1.5-.2 1.9.4 2 2.9s-.2 3-1.7 2.6c-1.2-.3-1.9 0-1.9 1s.6 1.2 2 .8c1.4-.5 2-.2 2 1 0 .9-.6 1.5-1.3 1.3s-1.4.1-1.5.7c-.1.5.5 1 1.3 1s1.4.4 1.2 1c-.1.5-.8.9-1.4.9-.7-.1-1.3.5-1.3 1.3 0 1 .6 1.2 2.1.8 1.6-.5 2-.3 1.7.6-.3.8-1 1.4-1.5 1.4-.6 0-1.5.3-1.9.7-.4.5.2.8 1.4.8 1.4 0 2.2.6 2.2 1.6s-.6 1.4-1.5 1.1c-.8-.4-1.7-.2-1.9.2-.9 1.4.6 2.1 2.4 1.1 1-.5 4.2-1.1 7.2-1.2l5.3-.3v3.3c-.1 3.2 0 3.3 4 3 3.5-.3 4-.6 3.8-2.6-.2-1.6.2-2.2 1.7-2.2 1.1 0 2-.5 2-1 0-.6-.6-1-1.2-.9-2.6.3-3.9-.1-3.3-1.1.3-.6 1.5-1 2.6-1 1 0 1.9-.4 1.9-1 0-.5-1-.9-2.1-.7-1.2.1-2.4-.4-2.7-1.1-.3-.9.3-1.3 1.6-1 1.2.2 2-.2 1.9-.7-.1-.6-1-.9-2.1-.7-1.4.2-1.7-.3-1.3-1.8.3-1.1.1-2.3-.4-2.6-.6-.3-.5-1.2.3-2.2 1.2-1.5 1.1-1.6-.4-.4-2.2 1.7-4.1.6-3.5-1.9.4-1.6.1-1.9-2.1-1.7-2.1.2-2.7-.1-2.7-1.7 0-1.1-.7-2-1.5-2.1-3-.2-3.2-.4-2-1.9 1-1.2 1-1.5 0-1.5-.7 0-1-.7-.6-1.5.3-.9.1-1.5-.7-1.4-3 .4-3.8-.2-3.2-2.1.7-2.2.2-2.3-3.3-.9M543 240.5c-.6.7-.9 3.4-.6 6.3.4 4.2.1 5.2-1.2 5.5-1.5.4-1.5.5.1.6.9 0 1.7.7 1.7 1.5s-.8 1.7-1.7 1.9c-1.4.4-1.3.5.4.6 1.6.1 2.1.6 1.6 1.7-.3.8-1.2 1.3-1.9 1-.8-.3-1.4-.1-1.4.4 0 .6.9 1 2.1 1s1.9.5 1.6 1.2c-.2.7-1 1.2-1.6 1-.6-.1-1.1.2-1.1.8 0 .5 1.7 1 3.8 1.1 3.7.1 3.7.1.8.9-1.6.5-3.3.7-3.8.4-.4-.3-.8.2-.8 1s1 1.6 2.3 1.9c2.2.4 2.2.4-.3 1.5-2.8 1.2-2.1 1.5 2.6 1.2 1.8-.1 3.5.3 3.9.9.4.7-.4 1.1-1.9 1.1-3 0-5.6.9-5.6 2 0 .5 1.7.4 3.8-.1 6.4-1.7 6.5-1.8 5.3-3.3-1.4-1.6-.4-2.6 2.6-2.6 1.3 0 2.2-.4 1.9-.8-.3-.5-2.7-.7-5.3-.6s-3.8 0-2.6-.3c2.5-.5 5.3-3.3 3.4-3.3-.7 0-1.1-.8-1-1.8.4-4.4-.1-6.5-1.4-5.4-.8.7-1.8.7-2.7.2-1.3-.8-1.3-1 .1-1 .9 0 2.3-.8 3-1.7 1.3-1.5 1.2-1.6-.8-1.1-1.3.4-2.6.2-2.9-.3s-.1-.9.3-.9c.5 0 1.8-.7 2.9-1.6 1.8-1.5 1.8-1.5-.8-.9-3.2.6-3.8-1-.8-2s2.4-2.6-.7-2c-2.6.5-2.7.5-.6-.6 1.2-.6 2.4-1.8 2.7-2.5.4-1.1-.1-1.3-2.2-.8-2.5.6-2.6.5-.8-.8 1.6-1.3 1.7-1.6.3-2.1-.8-.3-2.1 0-2.7.8M474.4 241.2c.1 1.9-.4 2.2-2.3 2-1.6-.3-2.1 0-1.6.8.4.7.9 3.5 1.1 6.3.5 6.8 1.1 13.4 3 29.2.4 3.3.7 7 .6 8.3 0 1.8.4 2.1 2 1.6 1.3-.4 2.4 0 3.3 1.3.8 1 1.7 1.4 2.2.9.4-.5.2-1.1-.5-1.3-1.9-.7-.3-2.3 2.4-2.3 1.3 0 2.4-.5 2.4-1 0-.6-.5-1-1.1-1-.8 0-.8-.4 0-1.4.9-1 .9-1.6.1-2.1s-.8-1.1.1-2.1c.9-1.1.9-1.4 0-1.4-.8 0-1-.8-.6-2s.2-2-.6-2c-.9 0-.8-.4.1-1.5 1-1.2.9-1.6-.4-2.1-1.5-.6-1.5-.7 0-1.9 1.6-1.1 1.5-1.2-.2-1.9-1.6-.6-1.6-.9-.4-1.7 1.3-.8 1.3-1 0-2-1.1-.8-1.2-1.2-.2-1.6.6-.2 1.2-.9 1.2-1.5 0-.7-1.8-.8-5.2-.4-5.8.8-5.9-.4-.1-1.3 2-.3 3.8-1.2 4.1-1.9.3-1.1-.6-1.2-4.4-.7-3.6.5-4.5.4-3.4-.4.8-.6 2.7-1.1 4.2-1.1s3-.5 3.3-1c.7-1.1 0-1.2-5.5-1.2l-3.5.1 4.3-1.1c5.1-1.3 5.7-3.3.7-2.5-1.9.3-3.5.2-3.5-.3 0-.4 1.6-1.1 3.5-1.4 5-1 4.5-2.9-.5-2.1-2.6.4-4 .3-4-.4 0-.6 1.2-1.1 2.8-1.1 1.5 0 3.4-.5 4.2-1.1 1.2-.9 1-1-.8-.6-1.5.4-3-.1-4.3-1.4-2.4-2.4-2.6-2.4-2.5.3M448 243.2c-1.4.5-5 1.1-8 1.2-5.4.3-5.5.4-5.8 3.4-.2 2 .1 3.2.9 3.2.7 0 .8.5.3 1.2-1 1.3-1 3.6-.1 9.8.3 1.9.6 4.4.6 5.5.1 1.8.7 2.1 3.9 1.9l3.7-.3-3.4.7c-1.9.4-3.6 1.3-3.9 2.1-.4 1.1.4 1.3 3.9.9l4.4-.6-3.7 1.1c-3.4.9-3.7 1.3-3.4 4.1.2 1.7.4 3.7.5 4.3 0 .7.9 1.3 1.9 1.2 1 0 1.2-.3.5-.6-2.7-1-1.3-3.3 2-3.4l3.2-.1-2.7-1.2-2.8-1.2 3.6-1.3c2.2-.8 3.2-1.6 2.5-2-.6-.4-.9-1.5-.5-2.4.4-1 .1-1.7-.6-1.7-1 0-1-.3 0-1.4.6-.8 1.8-1.2 2.6-.9s1.4 0 1.4-.6-.5-1.1-1.1-1.1c-.8 0-.7-.5.1-1.5.7-.9 2.1-1.3 3.1-1 1.1.4 1.9.2 1.9-.4s-1.5-1.1-3.2-1.1l-3.3-.1 3.8-1.4c4.7-1.6 5.5-2.4 3.8-3.4-.9-.6-1-1.1-.2-1.5 1.7-1.1.3-2.6-1.7-1.9-1 .4-.7-.2.8-1.5 2.2-1.9 2.3-2.1.6-2.2-1.6 0-1.7-.2-.5-1.7 1.1-1.3 1.1-1.7.1-2-.6-.3-1-.8-.7-1.3.8-1.3-1.8-1.8-4.5-.8M288.5 467.7c-1.6.1-5.8.6-9.2.9l-6.3.6v8.9l5.5-.6c3-.4 5.5-.5 5.5-.3 0 .6-4.5 12.9-8.4 23.2-1.4 3.8-2.4 7.1-2.2 7.4.3.2 5.8.1 12.3-.4l11.8-.9v-8l-6.4.4c-5.1.2-6.3 0-5.9-1 .3-.8 3.1-7.8 6.2-15.6s5.6-14.4 5.6-14.7c0-.6-3.1-.6-8.5.1M260.3 470.3c-.3.5 0 9.4.7 19.8l1.3 18.9h2.9c1.6 0 3.1-.6 3.4-1.4s.2-9.7-.3-19.8l-.8-18.3h-3.3c-1.9-.1-3.6.3-3.9.8M927 159.1c-4.7.3-9.6 1.2-11 2-2.3 1.3-1.2 1.4 11.5 2.1 7.7.3 19.5 1.3 26.2 2.2 16.9 2.2 19.5 2 10.4-.9-4.1-1.3-7.7-2.8-8-3.3-.9-1.4-19.7-2.8-29.1-2.1M906.2 170.2c-7.8 11.3-20.7 42.6-26.2 63.1-3.3 12.4-7.2 32.5-9 46-.8 6-1.7 9-2.7 9.4-1.1.4-1.1.8-.3 1.3 1.2.7.1 16.5-3 47-6.6 63.5-8.7 228.4-4.4 343.5 2.2 59.1 3.9 83.6 6.5 92 2.1 7.2 6.4 14.8 9.9 18 1.1 1 2 2.2 2 2.6s-4.4 2.1-9.7 3.8c-5.4 1.7-10.4 3.5-11.2 4-2.3 1.5 11.1.4 15.8-1.3 5.6-2.1 7.7-2 11.5.3 9 5.6 19 7.8 38.6 8.6 21.3.8 30.2 1.7 33.4 3.2 2.9 1.3 2.6 1.3-4.4.8-4.1-.3-17.1-1.2-28.8-2-21.1-1.4-32.5-3.4-37-6.3-1.2-.8-2.5-1.2-2.9-.8-.3.3 0 .6.7.6 1.1 0 1.1.3.2 1.2-1.6 1.6-1.5 2.5.4 3.2 1.4.5 1.5.4.4-.9-1-1.2-1-1.5.2-1.5.8 0 1.9.5 2.5 1.1.7.7 2.8 1.3 4.9 1.5 2 .1 4 .6 4.3 1.1.3.4 2.4 1 4.6 1.1 2.2.2 4.5.8 5.1 1.3s1.4.6 1.7.2c.4-.3.7-.3.7.2 0 .4-.8 1.4-1.7 2.1-1.7 1.3-1.6 1.4.6 2 2.1.6 2.3 1.1 1.7 5.3l-.6 4.6 1.9-2.2c2.2-2.6 3.6-3 2.7-.8-.3.8-.1 2.7.5 4.2.8 2.2 1.2 2.4 1.9 1.3.6-1 .8-.2.6 2.5-.2 3.3-.6 3.9-2.2 3.7-1.5-.2-1.6-.1-.4.7.8.5 1.8.7 2.2.5.4-.3.8 1 .8 2.8 0 2.5-.3 2.9-1 1.8-.8-1.3-1-1.3-1 .2 0 .9 1 2.4 2.3 3.3 1.5 1.1 1.8 1.8 1 2.3-1.3.8-1.2 2.9.1 5.1.5.8.3 1.6-.5 2.2-.8.5-.9.9-.3.9.7 0 1.5 1.1 1.8 2.5.8 3-.3 7.7-1.5 6.9-1.4-.8-1.1 2.1.6 5.2 1.1 2.1 1.5 6.1 1.5 14 0 6 .4 11.4.9 12 1.4 1.4 2 8.3.9 9-2.6 1.6 3 2.4 17.2 2.2 8.5-.1 13.5-.3 11-.5s-5.2-.6-6-1c-.8-.3-4.5-.5-8.2-.4-5.1.2-6.8-.1-6.9-1.1 0-.7-.4-4.6-.8-8.6s-.3-7.6.1-7.8c1.4-.9.9-14.2-.4-14.8-1-.5-1-.7 0-1.2.6-.3 1.2-2.1 1.2-4 0-2.3.6-3.8 2-4.6 1.2-.8 2-2.4 2-4 0-2.3.4-2.8 2.5-2.8 2.8 0 3.5-2.7 1-3.6-.8-.4-1.5-1.2-1.5-2 0-1-1.3-1.4-4.4-1.4-4.3 0-4.5-.1-4.8-3.3-.5-5 .3-11.8 1.3-11.1.5.3.9 3.4.9 6.8v6.3l5.7.7c3.1.4 6.1 1.1 6.7 1.5 1.3 1.1 10.6.2 10.6-1 0-.4-.8-1-1.7-1.3-1-.3.1-.3 2.4 0 3.7.5 4.2.3 4.8-1.8.4-1.3 1.3-2.7 1.9-3.1.7-.5.3-.6-.8-.3-1.7.6-1.8.2-1.3-3.5.3-2.2.8-4.3 1-4.6.3-.2 5.4-.5 11.3-.6 7.8-.1 10.9.2 11.2 1.1.4 1.4 6.2 1.7 6.2.3 0-.5-1.1-1.8-2.5-2.9s-2.5-2.4-2.5-3c0-.5-1.2-1.8-2.7-2.7-1.4-1-3.6-2.8-4.8-4.1s-2.6-2.4-3.1-2.4-1.5-.9-2.2-2-2.6-2.9-4.2-3.8c-2.8-1.8-1.7-1.8 36.3-1.8 41.4.1 53.1-.7 68.1-4.6 6.4-1.7 8.6-2.8 11.8-6 4-4 9.3-14 9-17-.5-5.1 7.3-16.9 15-22.6 47-34.4 143.2-66.4 216.8-72 13-1 21-.4 25.6 2.1 1.8.9 5.8 4.7 9 8.4 17.7 20.2 17.9 20.3 41.7 17.4 8.9-1.1 21.2-2.5 27.2-3.1 16.8-1.5 46.4-4.6 58-6 4.4-.5 17.9-2.1 30-3.5s25.9-2.9 30.6-3.5c4.8-.5 10.9-1 13.8-1 2.8 0 9.5-.7 14.9-1.5 5.3-.8 14.7-1.9 20.7-2.5 9.5-.9 18.9-2 40.8-4.6 2.6-.3 4.5-.9 4.3-1.2-.2-.4 1.7-.6 4.3-.4s10.9-.4 18.6-1.2c7.6-.9 17.9-2.1 22.9-2.6s12.9-1.4 17.6-2 14.4-1.7 21.5-2.5c34-3.8 32.2-3.4 35.5-7.2 1.7-1.8 3-4.1 3-5.1 0-3.2 3.7-7.7 9.1-10.9 12.9-7.7 42.4-14.4 49.8-11.3 2.2.9 4.8 3.9 8.8 9.9 3.1 4.7 6.2 9.1 6.9 9.8 1.6 1.6 4.8 1.9 12.6 1l6.7-.8-.5-3.2c-.4-3.1-1.4-16.1-3.4-46.2-.5-7.7-1.2-16.3-1.6-19.1-.6-5.3 0-6.4 4.9-8.9 2.9-1.5 4.1-3.8 3.3-6.8-.7-2.9-5.6-6-8-5.1-1.9.7-2.1-.3-3.6-16.6-.6-6.9-1.7-19.5-2.5-28s-1.8-20-2.2-25.5c-.6-8.4-.8-9.3-1.3-5.5-.5 3.6-.8 4.1-1.4 2.5-.5-1.1-1.4-3.4-2.2-5.2-.8-1.7-1.4-3.5-1.4-4 0-1.4-3.4-4.3-5.1-4.3-.8 0-3.4 2.3-5.9 5.1-4.8 5.5-10.4 8.9-14.7 8.9-4 0-10.5-1.9-12.5-3.8-2.2-1.8-2.4-.3-.3 2.4.8 1 1.5 2.2 1.5 2.6 0 1.5-9.4 7.1-15.8 9.3-8.5 2.9-12.2 4.6-12.2 5.7 0 .4-.7.8-1.5.8s-1.2-.6-.9-1.5c.3-.8.3-1.8 0-2.3-.7-1.2-9.9.4-14.3 2.4-4.6 2.1-5.3 1.8-4-1.7 1.2-3.1 8.7-10 8.7-8 0 1.7 4 1.3 10.6-.9l6.1-2.1.1-11.7c.3-16.4-3.9-39.3-10.7-58.6-1.6-4.4-2.2-8.7-2.3-16.3-.1-5.7-.5-10.6-1-10.9s-3.6 1-6.8 3c-5.4 3.2-11.7 5.6-14.7 5.6-1.1 0-3-7.2-3.5-14-.3-3.4-.4-3.5-4-3.2-2.3.2-3.8-.1-3.8-.7s-.4-1.1-1-1.1-1 2.9-1 6.7c0 5.1-.3 6.4-1.1 5.3s-.9-.6-.5 2c.3 1.9 1 10.7 1.6 19.5 3.4 52.1 6.3 81.3 8.3 82.8.9.7 1.9 2.9 2.2 4.9.6 3.2.4 3.8-1 3.8-1 0-2.8-1.2-4.2-2.6-2-2.2-2.5-4-3.3-14.7-1-12.1-2.6-23.6-3.3-24.4-.3-.2-.7 1.1-1.1 2.9-.6 3-.8 3.1-2 1.5-.7-.9-1.8-1.7-2.3-1.7-1.4 0-2.3 9.9-1.2 12.7.6 1.6.5 2.3-.3 2.3-.6 0-.2 1.1 1.1 2.3 1.3 1.4 2.1 3.6 2.1 5.3-.2 5.6 1.3 18.4 2.1 18.4 1.5 0 1 4.7-.5 6-.8.6-1.2 1.8-.9 2.6.5 1.2-.3 1.5-4.3 1.2-4.7-.3-4.9-.4-5.2-3.6-.2-1.8-.9-3.2-1.7-3.2-1.7 0-2.5 2.2-1.8 4.9.5 2 .1 2.1-6.1 2.1-5.9 0-6.8-.2-7.5-2.2l-.8-2.2-.5 2.2c-.5 1.6-1.4 2.2-3.5 2.2-6.1 0-9.9-1.2-10.9-3.3-1.2-2.8-4.6-3.3-7.9-1.1-2.1 1.4-4.1 1.6-10.5 1.1-4.7-.3-10.9 0-15.7.9-9.3 1.6-13.3 1.7-15.3.4-1.1-.8-1.2-1.2-.3-1.8 1-.6 1-2.8.4-9.2-2-18.3-2.3-25.2-1.2-24.5.6.3.9 1 .6 1.5s.2 5.7 1 11.6 1.5 13.2 1.5 16.2v5.5l5-.7c8.2-1.1 8.3-1.2 7.6-7-.4-2.8-1.1-7.6-1.6-10.6-.4-3-.9-8-.9-11.2l-.1-5.6 5.3-.7c5.1-.7 6.7-1.7 6.7-4.4 0-1.1-1.6-1.2-8.2-.7-4.6.3-10.1.9-12.3 1.1-3.7.6-4.3.3-8.4-3.9-3.4-3.6-4.6-5.6-5.2-9.3-1.1-6.7-1.1-13.3.1-13.3.5 0 2.3 2 4 4.5 3.8 5.5 6.8 6.5 10.8 3.6 3.1-2.2 11.7-4.5 14.9-3.9 1.5.3 1.8-.4 1.7-4l-.1-4.2h6.8c5.7 0 7 .3 7.9 1.9.9 1.7 1.4 1.8 4.7.9 2.2-.6 8-.8 13.4-.5 6.2.3 11.6 0 15.2-.8 3.1-.7 5.8-1 6.1-.7s.6 1.9.6 3.6c0 4.1 1.2 5.8 3.4 5 1.5-.6 1.7-1.4 1.2-4.8-2.5-15.9-3.3-44.6-1.4-44.6.4 0 .8.2.8.4 0 .3.9 5.8 2 12.3s2.3 17.5 2.7 24.5c.5 10.3.9 12.8 2.1 12.8 1.1 0 1.3-.8.8-3.5-.8-4.3.6-4.6 3.1-.8 1.8 2.8 3.5 4.4 4.1 3.9.1-.2-.4-7.7-1.3-16.7s-1.6-22.3-1.6-29.5c.1-10-.2-13.5-1.4-15-.8-1-1.5-3.6-1.5-5.7 0-2.4-.5-3.7-1.3-3.7s-2.2-.9-3.2-2c-2.8-3.1-3.2-2.5-2.7 3.7.3 4.8.2 5.6-.9 4.5-2.2-2-4.3-1.4-7.9 2.3-1.9 1.9-3.7 3.5-4.1 3.5s-1.1-2.9-1.4-6.5c-.4-3.6-1.1-6.8-1.6-7.1-.4-.2-3.7-.5-7.1-.5-6.6-.1-10.7 1.2-18.8 6-4.6 2.7-24.1 9.4-36.6 12.6-8.4 2.1-11.7 1.6-14.1-2.5-1.6-2.8-5.3-4.2-5.3-2 0 .5.5 1 1 1 .6 0 .9 1.7.9 3.7q-.15 3.75-.6 1.5c-.4-1.9-.7-2.1-1.9-1.1s-2.2.6-5.2-2.4c-2.1-2.1-4.1-3.7-4.4-3.7s-3.9 2.1-8 4.6l-7.3 4.6-7.5-.6c-7-.5-7.9-.4-13 2.5-3.4 1.8-8 3.3-12.2 3.9-3.7.5-9.2 2.1-12.3 3.5-7.4 3.2-12.2 3.4-16.7.7-6.3-3.9-7.1-3.3-6.3 4.8.4 4.1.3 7-.2 7-1.4 0-4.8-5.1-6.2-9.1-1.9-5.7-8.3-6.6-15.8-2.2-3.3 1.9-6.3 2.8-10.2 2.9-3.1.2-6.7.5-8.1.7s-1.7.2-.7 0c.9-.2 1.5-.9 1.1-1.4-.3-.6-6.4-.9-14.2-.8-10.9 0-14.1.4-15.4 1.6-1 .9-1.8 2.2-1.8 2.8 0 1.2-4.6 3.2-12 5.3-1.9.6-7.3 1.3-12 1.7-4.7.3-11.8.9-15.8 1.3-7.9.9-8.3.7-10.1-2.6-1.3-2.5-3.1-2.9-3.1-.8 0 1.9-7.6 3.2-9.5 1.6-1-.9-1.5-.7-2 .9-1.2 3.9-3.1 2.8-9.6-5.9-1.7-2.2-3.4-9.8-2.4-10.8.7-.8 5.5 1.6 5.5 2.8 0 .5 1.7 2.5 3.8 4.5 4.4 4.1 7.5 4.4 17.5 1.5 3.8-1 11.2-2.4 16.5-3s10.1-1.5 10.5-1.9c.6-.6.2-2.8-.7-5.3-.9-2.3-2.7-9.9-4.1-16.7-2.8-13.8-3.5-32.7-1.3-34.9 1.6-1.6 9.1-1.5 13.3.2 2.6 1.1 3.6 2.3 4.4 5.3.6 2.1 1.5 5.8 2.2 8.3.9 3.4 1 9.3.3 22.9-.9 18-.9 18.2 1.1 17.7 1.1-.3 5.4-1.5 9.5-2.6 6.7-1.9 8.9-2.1 20.5-1.4 20.3 1.1 20.7 1 27.7-5.2 4.4-3.9 8.2-5.2 10.3-3.4.9.7 3 3.5 4.7 6.1 3 4.6 5.8 6.4 5.8 3.6 0-.6-.5-4.1-1.1-7.6-.6-3.7-.6-6.8-.1-7.3s3.1.6 6.1 2.7c6.5 4.3 9.4 4.4 16.8.5 3.2-1.6 8.7-3.4 12.3-4 4.2-.6 8.1-2 11.5-4.2 5.1-3.2 5.4-3.3 17.1-2.7 5.7.2 13.4-4.2 12.7-7.4-1.1-4.8-1.1-4.9-3.8-3.1-3 2-3 1.9-3.9-2.6-.5-3.2-.3-3.8 2.3-5.3 1.5-.9 3.1-1.4 3.5-1 .3.3.6-.8.6-2.6 0-3.3 0-3.3-2.5-1.7-3.8 2.5-5.2 2-5.9-2.3-1.2-7.5-4.6-17.1-6.1-17.1-1.2 0-1.5 1.9-1.7 9.2-.2 13.6.4 12.3-5.4 13.1l-4.1.7-1-6.8-1.1-6.7.5 7.7c.5 6.9.3 7.7-1.5 8.7-1.1.6-2.5 1.1-3 1.1-1.1 0-3.7-27.4-2.7-29 .4-.6 2.5-2.3 4.8-3.8 3.5-2.2 5.7-2.8 13.7-3.3 5.2-.4 10.5-1 11.7-1.4 1.7-.6 2.2-.2 2.6 1.7.2 1.2.5-.5.6-3.8.1-6.5 1.5-8.9 4.8-8.2 1.1.2 1.9 1.4 2.1 3.1.3 2.3.9 2.8 4.2 3.3l3.8.6.6 8.7c.4 4.7.9 11.4 1.2 14.8.6 6.7-.2 7.8-3 4-1.7-2.2-1.7-2.1-1.2 1.8.3 2.2.9 4.1 1.4 4.3 3.7 1.2 4.7 3.2 4.7 9.5 0 5.9.2 6.4 1.8 5.6 1.3-.8 2.3-.4 4.2 1.8l2.4 2.8-.4-3.5c-1.6-11.6-3.5-33.6-4.1-45.6-.7-12.9-.6-13.8.9-12.5 1 .8 1.7 2.8 1.7 4.7 0 3.1.2 3.4 3.1 3.4 2.8 0 3.1-.3 2.5-2.4-.7-2.8 1.8-5.6 3.5-3.9 1.1 1.1 8.2 24.3 10.4 34.3 1.8 8.1 1.9 19.1.3 20.9-1.8 2 .7.5 5.2-3 5-3.9 12.6-5.8 27-6.9 6.9-.5 13.2-1.1 14-1.4.8-.2 3.8-.7 6.7-1 5-.6 5.2-.6 5.5 2.1l.3 2.7 3.8-3.3c2.5-2.2 4.4-3.2 5.7-2.8 1.5.4 2 0 2-1.4 0-2.4.8-2.4 3.6.2 3.1 2.9 5.7 1.9 5-1.8-1.2-6.4-1.8-20.6-.8-21.2 1.2-.8-.5-15.3-2-16.2-.6-.4-1.5-6.1-2.1-12.8-.9-9.4-1.4-12.2-2.6-12.6-.9-.2-5.9-1.2-11.1-2.1-10.2-1.7-13.8-3-5.5-1.9 13.1 1.6 42.5 8 42.5 9.2 0 1.3 3.9 5.3 5.2 5.3.4 0 .8-1.1.8-2.5 0-3.2-.3-3.2 23.6 1 10.8 1.9 19.9 3.3 20.1 3.1.3-.2-2.2-.9-5.4-1.5-3.2-.7-7.6-1.6-9.8-2.1-2.2-.4-8.5-1.6-14-2.5-15.7-2.6-44.4-8.3-50.5-10-3-.8-13.8-2.9-24-4.6s-28.4-5.1-40.5-7.5c-12.1-2.5-26.7-5.4-32.5-6.5s-15.2-2.9-21-4c-5.8-1.2-13.9-2.7-18-3.4s-9.3-1.7-11.5-2.3-9.6-2-16.5-3.2c-6.9-1.1-16.3-2.7-20.8-3.6-4.6-.8-8.6-1.3-9-1-.3.3-.3.6-.1.6.3 0 7.2 1.3 15.4 3 8.3 1.6 18.4 3.4 22.5 4 4.1.7 10.2 1.8 13.5 2.7 3.3.8 8.3 1.9 11 2.3 2.8.5 20.5 4 39.5 7.9 19 3.8 42.1 8.4 51.3 10.2 9.2 1.7 16.6 3.3 16.4 3.6-.3.2-4.5-.3-9.3-1.1-12.3-2.2-13.9-2.1-15.9 1s-1.5 5.8 2.5 12.1c4.5 7.1 4.1 8.5-3.2 11.9-5.7 2.6-7.4 2.9-17.3 3-6 0-12.7.4-14.8.8-3.2.7-4.2.5-6.3-1.5-1.3-1.2-2.4-2.6-2.4-3.1s-.5-1.4-1-2.1c-.6-.7-1.9-2.3-3-3.7-1.7-2.1-2.1-2.3-3-1-.6.9-.8 3.5-.5 6.3.7 5.5-.6 6.6-5.9 5-2.8-.9-4.2-.6-9.3 1.9-4.5 2.1-8 3-14.4 3.5-7.9.5-14.9 2.8-16.4 5.3-1.2 1.9-6.6 4.1-13.8 5.4-3.9.8-9.8 2.2-13 3.2l-5.8 1.7-4-3.9c-2.2-2.1-4.9-5.3-6-7.1s-2.9-3.5-3.9-3.8c-1.2-.4-2-1.5-2-2.9 0-1.5-.9-2.7-2.5-3.4-3-1.4-3.4-3.6-.5-2.7 1.5.5 2 .2 1.8-1.2-.6-7.3 1.6-6.9 9.3 1.8 7 7.9 7.1 8 18.9 4.5 3-.9 7.3-1.6 9.6-1.6 4.2 0 8.5-2.3 15.1-8 1.7-1.6 5.6-3.5 8.6-4.4 8.9-2.6 11.7-7.5 9.2-16.1-2.1-7.3-1.9-11.7.6-14.9 1.5-2 1.7-2.7.7-3.1-2.6-.8-48.4-9.5-51.8-9.7l-3.5-.3v13c0 15.3-.7 17.3-4.9 14.2-1.2-.9-2.2-4-3.2-10.7-.7-5.2-2-11.8-2.7-14.5-1.6-5.6-.1-4.9-16.2-7.5-3.8-.6-10.8-2-15.5-3-16.3-3.6-23.7-4.4-26.9-3-1.7.7-3.3 2.1-3.6 3.1-1.3 3.9 7 11.7 16.4 15.5 4.3 1.7 9.1 6.5 9.1 9 0 .8-1.1 2.5-2.4 3.7-3.5 3.2-26 9.3-43.6 11.7-27.6 3.8-30.5 4.3-38.9 7.2-4.7 1.5-9.4 2.8-10.4 2.8-3.1 0-7.8-3.5-12.7-9.3-2.5-3-5.7-6.1-7.2-7-1.4-.8-2.8-2.6-3.1-3.9-.2-1.2-.5-.2-.6 2.4-.1 5.6-.9 6.4-17 16.3-6.2 3.8-13.3 9.1-15.8 11.6s-5.8 5.4-7.4 6.3c-2.6 1.5-2.9 1.5-2.9.2 0-.9-.4-1.6-1-1.6-.5 0-1 .7-1 1.5 0 .9-.7 2.9-1.5 4.5-1.5 2.9-1.7 3-9 2.8-6.9-.1-7.7.1-9.9 2.5-3.3 3.5-6.3 3.4-11.6-.5-4.9-3.7-5.6-3.7-23.5-2-6 .6-15 .9-20 .7l-9-.4 8.2.9c7.3.8 27.3 3.2 83.8 10 8.8 1.1 21.6 2.5 28.5 3.2 6.9.6 12.7 1.3 12.9 1.5.3.2-.4 1-1.5 1.8-2.5 1.9-5.8 1.9-7.4 0-2.3-2.7-5.4-1.7-10.5 3.6-5.9 6-19.3 15.7-23.4 16.9-3.3.9-31-1.5-32.3-2.8-.6-.6.4-1.4 2.4-2.2 2.8-1 3-1.3 1.4-1.9s-1.3-1.1 2.1-3.3c2.1-1.4 6.3-3.3 9.3-4.1 3-.9 8.1-3.2 11.2-5.1 6-3.7 8.4-3.5 4.4.3-1.6 1.5-2.2 2.9-1.8 4.6.2 1.4 0 3.1-.6 3.8-1.5 1.7-2.7 9.7-1.5 9.7.5 0 2-2.5 3.3-5.5s2.7-5.5 3.1-5.5c.8 0 7.2-12 6.7-12.5-.6-.7-15.8-2.4-26-3.1l-10.7-.7-6.8 3.4c-3.7 1.9-7.4 4.2-8.2 5.2-.8 1.2-2.1 1.7-3.4 1.3-2.2-.6-7.7 1.9-7.7 3.5 0 1.9-4.9 5.9-6.5 5.3-1.1-.5-1.8 0-2.1 1.3-.5 1.7-1.5 2-6 2.2-3 .1-5.4-.1-5.4-.4 0-2 4.4-8.7 7-10.5 1.6-1.2 4.2-4.2 5.7-6.8 1.4-2.6 3.2-5.4 4-6.3 1.2-1.5.4-1.7-8.7-2.8-10.6-1.2-16-1.4-16-.7 0 .3.9 4.2 2 8.8s1.9 10.5 1.9 13.3l-.1 5-1-4c-.5-2.2-2-7.6-3.3-12-1.4-4.4-2.6-8.9-2.7-9.9-.4-2.5-3.8-3.4-13.6-3.8l-7.7-.3-.6 5c-.7 6-1.6 8.3-4.3 11.1-5 5.1-6.5 7.8-5.3 9.3 1 1.2-.1 1.3-8.3.6-16.3-1.4-16.1-1.4-17.4 2.2-1.5 4.5-3.4 6.2-4.6 4.3-.5-.8-.7-2.2-.4-3.2.2-.9 0-1.9-.6-2.3-.6-.3-.8-1.1-.5-1.6.4-.5-.6-1.4-2.2-1.9-1.5-.6-3.7-1.4-4.8-1.9s-4.4-.9-7.4-.9c-5.3 0-7.9-1.5-6.2-3.7 1.8-2.2 2.1-7.7.6-10.5-.8-1.6-1.2-3.7-.9-4.7.6-1.6.5-1.6-.8.1-2.3 3-3.8 1-3.8-4.9 0-4 .4-5.6 1.7-6.3 1.3-.8.5-1.2-3.8-2.1-3-.5-7.9-1.2-10.9-1.3-5.1-.3-5.5-.1-6.8 2.4-.7 1.6-1.7 2.8-2.2 2.8s-.7.7-.4 1.5-.6 2.5-2 4c-2.3 2.3-2.3 2.5-.6 2.5 1.6 0 2 .7 2 3.9 0 2.1-.6 4.3-1.2 4.8-1.3 1-12.8 1.6-12.8.7 0-.2 1.1-.9 2.5-1.4 3.6-1.4 3.1-3-1-3-4.3 0-4.4-1-.4-3.3 3.9-2.2 3.5-2.8-1.1-1.8-3.4.7-3.5.8-3.3 5.4.3 5.2-.9 6-3.8 2.5-2.3-2.6-2.4-3.8-.4-3.8.8 0 1.5-.4 1.5-.9s-.7-1.1-1.5-1.5c-2.6-1-1.6-2.6 1.5-2.6 1.7 0 3-.4 3-.8 0-.5-1.8-.7-4-.5s-4 .2-4 0c0-.1.4-1.7.9-3.5.8-2.5.7-3.2-.5-3.2-1.9 0-1.8-1 .3-2.5 2.1-1.6.9-3.5-2.3-3.5-2.7 0-3.1-.8-1-2.4 2.3-1.8 3-5.6 1.1-5.6-1.1 0-1.4-.6-.9-2.5.4-1.8.2-2.5-.8-2.5-1.5 0-5.9 2.9-4.4 3 .5 0 .2.7-.5 1.6-1.6 1.9-2.2 5.4-1 5.4.5 0 .8.8.7 1.7-.3 1.9-3.6 3.2-3.6 1.4 0-.5-1.1.1-2.5 1.5s-2.5 2.9-2.5 3.4c0 1-3.9 2.4-4.6 1.7-.3-.2.7-1.2 2.1-2.1 3.2-2.1 3.1-2.9-.1-4.6-2.3-1.3-2.7-1.2-4.8 1.5-2.3 2.9-5.8 3.5-10.6 2-1.4-.5-2-.2-2 1 0 1.3.7 1.5 3.5.9 3.9-.7 4.7.2 1.3 1.6-1.9.7-2 .9-.5.9 1 .1 3.4-1.1 5.3-2.5 3.9-3 4.9-2.8 3.5.9-.7 1.7-2 2.7-4 3.1-1.7.3-4.4.9-6.1 1.2-2.4.4-3 .2-3-1.1 0-1.2-.5-1.5-1.6-1.1-1.3.5-1.5.2-1.1-1.4.3-1.4 0-2-1-2-1.1 0-1.4-.6-1-2.1.4-1.7.3-1.9-.6-1-.6.6-2.5 1.1-4.2 1.1-1.6 0-3.7.5-4.5 1-1.2.7-1.2 1-.1 1 .7 0 1.1.6.7 1.5-.3.8-.1 1.5.4 1.5 2.5 0 .6 2.7-2.6 3.9-1.9.7-6.3 2.9-9.7 4.8-3.4 2-7.2 4.1-8.4 4.7-1.3.6-2.3 1.4-2.3 1.8 0 .5-.4.8-1 .8-.5 0-1-.7-1-1.5 0-1.8-5-2.1-6.7-.4-.8.8-1.3.8-1.7 0-.4-.6 0-1.1.8-1.1 1.7 0 2-.9 1-3.4-.7-1.7-4.4-2.2-4.4-.6 0 .5.5 1 1 1 .6 0 1 .4 1 1 0 .5-1.3 1-3 1-2.3 0-3 .5-3 1.9 0 1.3 1 2 3.6 2.4 5 .8 6.6 2.4 5.3 4.9-.8 1.5-.8 1.9 0 1.4.6-.4 1.1 0 1.1.9 0 1.7-4.6 6.9-6.8 7.6-1 .3-1.3 4.5-1.5 16.7-.1 8.9-.5 16.2-.9 16.2-.5 0-.8-.5-.8-1.1 0-.5-.4-.7-1-.4-.6.4-1-.6-1.1-2.2-.2-5.8-.7-9.1-1.7-12.4-.6-1.9-1.4-6.1-1.8-9.4s-.8-6.9-1-8c-.1-1.1-.7-5.5-1.3-9.8-2.7-20.8-5.2-28-8.5-24.7-1 1-2.7 27.2-2 32 .6 3.8.5 23.3-.1 23.8-.3.3-.5-1.8-.5-4.6 0-8.2-2.2-6.6-3.3 2.3-.4 2.7-.4 2.7-.6-.6-.1-2.7-.5-3.6-1.7-3.5-1.1 0-2.1-1.3-3-3.7l-1.3-3.7h3c1.6 0 2.9-.5 2.9-1.1 0-.8-1.4-1-4-.6-3.5.4-4 .2-4-1.4s-.8-1.9-5.5-1.9c-4.8 0-5.5-.2-5.5-2 0-1.6-.7-2-3-2-2.1 0-3-.5-3-1.6 0-.9-1.6-3.1-3.5-5-3.5-3.3-4.4-5.7-2.5-6.9 2-1.2.9-2.5-2-2.5h-3v-6.5c0-3.7-.4-6.5-1-6.5-.5 0-1 1.1-1 2.5 0 2.3-.2 2.4-2 1.5-2.7-1.5-2.5-2.3 1.1-4.4 2.4-1.4 2.8-2.1 1.8-2.7-1.2-.8-1.1-1.2.3-2.3 1.9-1.4 1.4-2.6-1-2.6-.9 0-2.3-.6-3.1-1.4-.9-.9-4.1-1.6-7.4-1.7-3.9-.2-5.7-.7-5.7-1.5s-.6-1.1-1.3-.8c-.8.3-2-.2-2.7-1.1-.9-1.1-3.2-1.5-9.2-1.5-9.4 0-9.5-1.5-.1-2.5 7.6-.8 9.3-1.3 9.3-2.7 0-.6-1.6-.7-3.7-.4-2.1.4-4.4.2-5.1-.2-1.9-1.2-2.3-24.3-.4-25 .7-.2 1.8-.9 2.5-1.6 2.1-2.1 9.3-2.8 10.7-1.1 1.8 2.1 3 1.9 2.5-.5-.3-1.4.3-2.4 1.7-2.9 2-.7 1.9-.9-1-1.9-2-.7-3.2-1.8-3.2-2.8 0-1.4-.3-1.5-1.2-.6-.8.8-.8 1.5.3 2.9 1.3 1.7 1.3 1.7-.6.3-6-4.3-7.9-7-5.1-7 2.1 0 2.4-2.1.9-5.9-2.1-4.9-.8-5.3 4.5-1.5 1.2.9 2.2 1.2 2.2.6 0-1.4-8-7.8-12.4-9.9l-3.7-1.7 3.3-1.2 3.3-1.2-3-.3c-1.6-.1-3.6-.2-4.2-.2-.7.1-1-.3-.8-.8.3-.4-.3-1.3-1.2-1.9-1.3-.8-1.4-1.3-.6-1.6.9-.4 1-1.1.4-2.2-.5-.9-.9-2-.9-2.5 0-.4-.3-3.8-.6-7.5-.4-3.7-.9-9.4-1.1-12.7-.3-3.3-1-9.6-1.5-13.9-.5-4.4-1.3-14.2-1.6-21.8l-.7-13.8h2.5c1.4 0 12.4 1.8 24.4 3.9 12.1 2.2 57.2 9.9 100.4 17 118.2 19.7 133.8 22.5 136.5 25.1 2 1.9 2.8 2.1 5.4 1.2 3.3-1.2 14.7 0 16.3 1.6.6.6-.9 1.2-3.9 1.7-6.2.9-11.1 3.2-11.8 5.6-.7 2.2.2 4 1.8 3.8 3.7-.4 3.7-.3 3.7 21.3 0 11.7.4 21.9.9 22.6 1.6 2.5 6.1-7.2 7.7-16.6.9-4.8 1.9-10.7 2.4-13.2s.9-7.1.9-10.2c.1-6.9 1-8 9.3-10.7 6.7-2.2 12.4-1.7 12.2 1 0 .8-.4 4.5-.8 8.3-.6 5.6-.4 6.7.6 5.9.7-.5 4.6-3.6 8.6-6.9 5.6-4.5 7.9-5.8 10-5.6 4.3.6 5.2 2 5.2 8.4 0 5.2-.3 6-2.2 6.7-1.3.5-2.6.7-2.9.5-.4-.2-1.2.3-1.9 1.1-2.1 2.5-3.3 1.7-2.6-1.7.4-1.8 2.2-4.6 4.2-6.5 3-2.7 3.4-3.6 2.4-4.8-1.5-1.9-4.7-.4-5.9 2.8-.9 2.3-10.6 11-11.7 10.5-.3-.2-1.1.9-1.7 2.3-.7 1.5-3 4.8-5.2 7.4-3.7 4.4-7.7 12.7-7.3 15 .1.5-.4 2.1-1.1 3.4l-1.3 2.4 4.3-.7c4.3-.7 4.3-.7 2.4 1.4-1.1 1.2-2.5 1.8-3.6 1.5-1.9-.6-3.9 2-3.9 5 0 1.2.5 1.5 2.2 1 1.7-.6 2-.4 1.5.9-.6 1.6 1 29.5 1.9 34.5.7 3.3 1.8 1.8 4.8-6.7 1.4-4 3.2-8.4 3.9-9.7 1.5-2.9 8.5-10.5 9.7-10.5.4 0 1.1-1.8 1.5-3.9.6-3.5 2.9-6 4.3-4.6.3.3 0 .5-.7.5-.8 0-1.1.6-.6 1.7.3 1-.1 4.7-.9 8.3-3.8 16-5.6 27.2-5.6 35.3 0 5.6-.4 8.6-1 8.2-1.9-1.2-1.2-20.4 1-27.3 1.1-3.5 2-8.3 1.9-10.5l-.1-4.2-1.3 5c-.7 2.7-2.4 7.2-3.9 9.9-1.4 2.7-2.6 5.5-2.6 6.3 0 1.8-3.3 7.7-7.3 13.3-3 4-3.9 4.6-8.3 5-4.9.6-4.9.6-1.4 1.2 9.5 1.8 29.1 3 31.7 2 1.5-.6 5.5-1.3 8.8-1.5 3.3-.3 11.2-1.6 17.5-2.8 14.7-3 18.7-3 22.7-.1 1.7 1.2 4.4 2.2 5.9 2.2 3.9 0 9-3.8 11-8.1.9-2 4-6.2 6.9-9.3 4.7-5.1 6.2-6 15.1-9.2 10.5-3.7 21.2-9.2 23.5-12 .8-1 4.6-3.8 8.4-6.3 9.6-6.2 11.1-5.9 19.7 3.4 3.7 4 7.9 7.6 9.4 7.9 1.6.4 6.5-.5 13.3-2.4 5.9-1.6 14.3-3.4 18.6-4 11.7-1.4 25.6-4.8 29.3-7 2.2-1.4 3.2-2.7 3.2-4.4 0-3.7-4.5-8.3-9.8-10-5.7-1.9-17.7-9.8-19.2-12.7-.9-1.6-.8-2.5.6-4 .9-1 2.5-2.1 3.5-2.4 3-1 2.2-2.4-1.8-3.1-2.1-.3-9.4-1.7-16.3-3.1-25.7-4.9-29.2-5.4-30.6-4.2-1.1.9-1.5.8-2-.4-.3-.9-2.3-1.8-4.5-2.2-2.1-.4-3.9-1.1-3.9-1.7s1-.8 2.3-.5c1.2.3 12 2.4 24 4.6 11.9 2.2 28.3 5.4 36.5 7.1 14 2.9 46 8.9 69.7 13 6.1 1.1 12.1 1.9 13.5 1.9 3.4-.1-14.9-4.2-28.5-6.3-6-1-36-6.7-66.5-12.8-39.8-7.9-55.9-10.7-57-10-1.7 1.1-5.6.5-47-7.2-13.5-2.5-25.8-4.8-27.5-5.1-1.6-.3-11.8-2.1-22.5-4.1-10.7-1.9-24.2-4.4-30-5.4s-21.5-3.9-35-6.4c-49.5-9.1-63.1-11.6-93.5-16.9-17-3.1-43.4-7.6-58.5-10.2-41-6.9-73.9-12.8-109.1-19.5-8.6-1.7-17-3-18.7-3-2.2 0-3.2-.5-3.2-1.5 0-1.1 1.2-1.5 4.3-1.5 5-.1 3.3-1.4-3-2.4-4.1-.6-4.3-.5-7.1 3.6m373.2 80.6c.9 2.6 1.4 3 2.4 2 .9-.9.8-1.6-.6-3.1-1.7-1.9-1.6-2 1.8-1.3 1.9.3 6.9 1.1 11 1.7 15.2 2.1 31 5.2 31 6 0 .5-1.7.9-3.7 1-5.3.1-15.6.7-23.3 1.4-5.9.5-6.9.9-10.5 4.5-6.8 6.9-13.8 12.4-18.9 15-2.7 1.3-6.5 4.5-8.5 6.9-5.6 7-17.3 18.1-19 18.1-.5 0-.7-.9-.4-2s0-2-.6-2c-1.3 0-1.4-4-.2-7.3 1.7-4.5 19.3-21.7 27.6-27.2 4.4-2.8 8.9-6.2 10-7.5l2-2.2-3.1.6c-5.2 1.2-8.6-4-4.6-7 3-2.4 6.4-1.3 7.6 2.4m140.3 78.6c1.2 3.7 2.3 8.8 2.5 11.3.3 5.4.6 5.1-12.7 10.3-4.4 1.7-11.3 4.7-15.3 6.7-8.2 4-10.3 3.9-14.7-.7-3.7-3.8-2.6-5.1 1.5-1.6 1.7 1.4 3.8 2.6 4.7 2.6.8 0 6.8-2.3 13.2-5.1s13.1-5.5 14.8-6.1c2.3-.6 3.5-1.7 4-3.5.4-1.7.2-2.8-.5-3.1-.7-.2-1.2-2.6-1.2-5.7 0-3-.5-6.6-1-8-.6-1.5-.7-3.1-.4-3.6 1.3-2.1 3 0 5.1 6.5m82 14.1c1.3.9 3.9 4.5 5.9 8.1 2.8 4.9 4 6.3 5.3 5.9 1.1-.3 2.8.5 4.4 1.9 2.2 2.1 2.7 3.5 2.9 7.8.1 3.6.2 4.3.5 2 .5-3.5 2.2-4.3 3-1.3.7 2.8 5.4 4.4 10.2 3.6 2.3-.4 4.1-.3 4.1.2 0 .4.7 6.4 1.5 13.3 1.4 11.6 1.4 12.6-.2 13.7-2.6 2-3.2 1.6-3.8-2.5-1.1-6.3-3.7-15.2-4.5-15.2-1.1 0-2 5.5-2 12.2 0 4.3-.3 5.9-1.2 5.5-.7-.2-1.3-1-1.3-1.7 0-.8-.9-1.7-2-2-1.8-.4-2-1.5-2.4-10-.1-5.2-.6-10-1-10.7-.3-.7-.5 2.6-.3 7.4.2 4.7.1 9.2-.2 9.9-.8 2.2-3.5.5-3.8-2.4-.2-1.8-1-2.8-2.7-3.2-3.3-.8-3.9-2.9-.6-2.3 2.3.5 2.5.2 2.5-2.8 0-2.6-.6-3.7-2.2-4.4-1.2-.6-4.3-3.9-6.8-7.5-4.3-5.9-5-6.5-8.1-6.4-1.9.1-5.4.9-7.9 1.7-2.5.9-7.6 2-11.5 2.5-3.8.5-14.2 2.6-23 4.6-14.1 3.3-16.9 3.7-24 3.1-6.8-.6-8.9-.4-13.8 1.5-7.1 2.7-13.1 7.1-17.5 13-7 9.4-9.5 12-12 12.7-2.1.5-3.2-.1-6.6-3.9-2.3-2.5-4.9-5.7-5.9-7.2-1.1-1.6-2.7-2.6-4.2-2.6s-2.5-.6-2.5-1.4-.3-1.7-.7-1.9c-.5-.3-.6 1.7-.5 4.4.6 7.2-.3 9.9-3.2 9.9-1.3 0-4 .7-5.9 1.5-2 .8-4 1.5-4.5 1.5s-2.1-2.3-3.4-5c-2.9-5.8-2.6-6.3 4.8-8.5 2.7-.8 6.6-2.8 8.7-4.5 3.6-3.1 3.7-3.3 3.1-8.3-.3-2.9-.7-6.6-.8-8.2-.1-1.7-.7-2.9-1.4-2.8-.7.2-1.2-.2-1.2-.8s.7-.9 1.5-.5c.8.3 1.5.1 1.5-.4 0-2.5 3.4-.5 6.3 3.7 8.3 11.9 9.7 12.5 18.6 6.6 3-2 11.2-6.2 18.1-9.2l12.5-5.4 14.5-.8c14.5-.7 39.3-4.7 45.3-7.3 1.8-.7 5.2-3 7.5-5 4.8-3.9 7.5-4.4 10.9-2.1m-601.2 31.6c.2 7.9.4 22.5.4 32.4 0 16.2 1.4 51.5 2.6 66.8.4 5.1.3 5.8-1.3 5.5-1.1-.2-2.1-2-3-5.3-2.7-10.7-5.6-86.5-3.3-87.9.5-.3 1.4-6.4 2.1-13.6.7-7.1 1.5-12.8 1.7-12.6s.6 6.8.8 14.7m655.9-3.4c.3 3.8.8 10.3 1.2 14.5l.6 7.7-3.8.6c-2.2.3-5.6 1-7.6 1.4l-3.7.9-1-5.2c-1.5-7.5-3.1-17.8-3.1-20.3 0-2.6 2.4-4.1 8.3-5.3 8.6-1.7 8.4-1.8 9.1 5.7m-57.4 4 1.2 2.8 1.1-2.3c2.5-5.6 4.3-1.3 5.2 12.5l.8 11.3h-3.1c-1.7 0-3.4.5-3.7 1-.9 1.4-2.7.1-2.1-1.5.3-.8-.8-6.2-2.4-12.2-3.6-13.3-3.7-14.3-.7-14.3 1.6 0 2.8.9 3.7 2.7m-6.3 10.8c1.3 4.9 2.6 11.2 2.9 14 .6 4.9.5 5.2-3.1 8.3-3.5 3.2-3.9 3.3-11.3 3l-7.7-.3-.3-7c-.2-4.3.3-9.2 1.3-12.8.9-3.1 1.3-6.2 1-6.7s1-1.7 2.9-2.7c2.2-1 3.6-2.4 3.6-3.5 0-1.6.7-1.9 4.2-1.6l4.3.3zm-30.4-.7c-.1.6-.5 4-.8 7.7-.2 3.6-.7 7-.9 7.4-.3.4.1 3.2.9 6.2s1.5 5.5 1.5 5.6-1 .3-8.9 1.8l-2.8.6-.7-9.3c-.4-5.1-1-9.6-1.4-10s-.7 4.3-.7 10.5v11.2l-3 .3c-2.1.2-2.6 0-1.6-.6 1-.8 1.2-3.5.9-12.3-.3-6.3-.3-12-.1-12.7.7-1.7 2.3-1.5 2.3.4 0 3.1 3.5 1 3.8-2.3.3-2.9.8-3.4 5-4.7 5-1.5 6.8-1.5 6.5.2m116.4 5.9c2 4.3 1 5.8-4.4 6.7l-5.3.9v3.8c0 2.8-.5 4.1-1.9 4.9-3.4 1.7-3.8 1.2-3.9-5.4-.1-7.1.4-7.8 6.7-10.8 4.7-2.2 7.8-2.2 8.8-.1m-18.9 9.5c.4 2.9.2 3-9.7 4.9q-6.3 1.2-8.7 3.6c-3 3-4.4 2.2-4.4-2.2 0-3.6 1.9-5 5.3-3.9 1.2.4 1.7.2 1.3-.4-.8-1.4 2.3-3.1 7.7-4.2 6.5-1.3 8.2-.9 8.5 2.2m44.8 40.7c3.2 21.3 3.7 19.6-7.8 23.3-6.2 2-7.2 2.1-11.1.9-6.1-2-10.5-1.6-16.7 1.3-3 1.4-7.2 2.6-9.3 2.6s-7.4 1.4-11.8 3.1c-5.4 2.1-9.1 2.9-11.2 2.6-4.6-.7-11.1-3.3-11.5-4.6-.5-1.5-.1-1.4 5.8.9 6.5 2.6 6.8 2.6 15.6-1 4-1.6 9.7-3.2 12.6-3.6s8-2 11.3-3.6c7-3.3 7.6-3.3 13.3-1.1 4.6 1.7 7.6 1.4 15.7-1.7 2.6-1 2.8-1.3 1.3-2.1-1.3-.7-1.8-2.3-1.8-5.7-.1-2.6-.5-6.7-1-9.2-.5-2.9-.5-4.9.2-5.8.7-.8.8-3.9.4-8.3-.4-5.1-.3-7.6.6-8.6 1.1-1.3 1.3-1.3 1.9.3.4 1.1 2 10.2 3.5 20.3m39.1-9.6c1.7 5.4 3.3 12.1 3.5 14.9l.3 5.2-6 1.2c-3.3.7-7.3 1.7-8.9 2.4-2.3.8-3.3.7-5.1-.4-2.7-1.8-3.2-4.4-4.1-20-.5-8.9-.4-11.7.4-11.2.7.4 1.2 2.2 1.2 4.1s.4 4.5 1 5.9c.5 1.4 1 6.2 1.1 10.6l.1 8h3.3c3.8 0 4.8-.8 3.1-2.5-1.5-1.5-3-14-2-15.7.4-.7.7-3.2.5-5.6-.3-5.4 1.2-7.4 5.3-7 3 .3 3.2.7 6.3 10.1m-427.2-2.8c41.3 2.6 50.4 3.3 52.1 4.3 1.4.8 1.4 1 .1 2.4-.9.8-2 3.4-2.7 5.6l-1.1 4.2h-8.7c-4.8 0-21.7-.7-37.7-1.6-33.7-1.9-34.5-2.1-35.9-9.7-1.2-6.9-.5-8.1 4.7-7.4 2.3.3 15.5 1.3 29.2 2.2m79 5c9.1.7 19.9 3 33 7.3 5 1.6 12.2 3.7 16 4.7 15.6 4 13.6 5.8-5 4.5-7.7-.6-26.3-1.6-41.3-2.4s-27.6-1.7-28-2c-.3-.4.2-2 1.1-3.5.9-1.6 1.7-4.3 1.7-5.9 0-4.4-.4-4.3 22.5-2.7m296.7 10.4c-.1 1.9.5 5.3 1.4 7.7.9 2.3 1.3 4.7.9 5.3-.9 1.5-10 1.4-11.3-.2-.5-.6-1-4.7-.9-8.9v-7.6l5.1.1 5.1.2zm-148.9 7.3c.4 1.3 1.1 7.5 1.7 13.8s1.2 12.7 1.5 14.3c.2 1.9-.2 3-1.5 3.7-3 1.6-2.6 2.9-4.5-13-.3-2.5-1.4-7-2.5-10-2.1-5.6-2.5-9.2-1.3-10.3.3-.4 1.9-.7 3.4-.7 2 0 2.8.6 3.2 2.2m-138.5 12c-.1 3.4-.2 3.8-.8 1.8-.7-2.3-.8-2.3-1.5 1.2-.4 2.1-1.1 3.8-1.5 3.8s-1.3 2.1-2 4.7c-2.4 9.7-1.9 9.3-13 9.6-3.6.2-4.6-.2-5.5-1.9-2.5-5-3.2-5.4-14-8-2.8-.7-2.9-.6-1.2 1 .9.9 2.1 1.5 2.6 1.1 1.2-.7 2.2.8 1.3 2-1.2 1.8-5.3 3.6-6.3 2.9-.6-.3-.8-1.8-.4-3.2.3-1.4.1-2.8-.5-3.2-.7-.4.2-1.9 2.5-3.8 4-3.6 4.8-3.8 6.7-1.9 4.1 4 11.7 8.1 15.8 8.5 4.3.4 4.8.2 8-3.4 2-2.2 4.9-6.5 6.5-9.6 1.7-3.2 3.1-5.8 3.1-5.8.1 0 .2 1.9.2 4.2m205.9.7c1.3 1.9 2.3 3.9 2.3 4.5-.1.6-.7-.1-1.5-1.5-3.1-5.7-7.4-4.8-14.3 3.1-6.3 7.1-12.2 9.6-24.4 10.6-4.6.3-10.9 1.3-14.2 2.1-3.2.8-6 1.2-6.3.9-1-1 .9-2.6 3.3-2.6 1.3 0 3.2-.4 4.2-.9.9-.5 5.5-1.5 10.2-2.1 11.2-1.6 19.8-5.6 27.2-12.6 6.9-6.6 9.9-6.9 13.5-1.5m247.1 7.3-.3 9.3-9.5 4.7c-10.1 5.1-12.1 5.6-13.9 3.4-1.3-1.5-4.6-22.4-3.7-23.4.4-.3 1.2 0 1.8.6 1.6 1.6 4.3 1.5 9.3-.2 5.2-1.8 11.4-3.3 14.3-3.5 2.2-.1 2.3.1 2 9.1m-145.6 8c2.5 2 8.8 14.8 7.3 14.8-.7 0-1.6-.6-1.8-1.3-.4-.7-.8-.5-1.2.8-.5 1.8-1.4 2-8.3 1.9-5.1 0-8.7-.6-10.6-1.6-2.2-1.3-3.4-1.4-5.3-.5-1.8.8-2.9.8-4.4-.1-2.6-1.6-4.8-1.5-5.5.3-.4.8-1.4 1.5-2.4 1.5s-2-.7-2.4-1.5c-.7-1.9-2.7-1.9-5.2.1-1.8 1.4-1.8 1.5 1.2 1.2 2.6-.4 3-.1 2.6 1.4-.2 1-1.1 1.8-2 1.8-.8 0-2.3.7-3.3 1.6-1.3 1.2-2.8 1.5-5.4 1-3-.6-3.5-1.1-3.5-3.5 0-1.8.7-3.1 1.6-3.5s1.4-.9 1-1.3c-.3-.3-1.5.2-2.6 1.2-1.3 1.2-2.7 1.5-4.5 1.1-1.9-.5-3.7.1-7.1 2.5-4.9 3.4-10.4 5.4-10.4 3.8 0-.5-.8-.9-1.7-.7-1 .2-2.9-1.4-4.7-3.9-3-4.1-6.4-5.9-5.2-2.8.3.8.1 1.5-.4 1.5s-.9-1.1-.8-2.5c.3-2.9.4-3 5.1-1 5 2.1 9.1 1.9 17.2-1 3.9-1.4 8.4-2.5 10-2.5 1.7 0 6.8-1.4 11.5-3l8.4-2.9 4.2 2.1c5.1 2.5 8.2 2.1 17.9-2.7 7.9-3.9 8.5-4 10.7-2.3m-98.9 18.7c1.4.5 3.6 2.1 5 3.5s3.7 2.8 5.1 3.2c2.4.6 3.6 2.3 1.9 2.5-.5 0-1.8.2-3 .3-1.3.2-2.3-.1-2.3-.6 0-.4-.7-.8-1.5-.8s-1.5.4-1.5.9-1.4-.4-3.1-2-3.5-2.9-4.1-2.9c-2.3 0-9.8 4.2-10.8 6-1.4 2.5-3.5 2.5-6 0-2.1-2.1-6-2.7-6-1 0 .5.5 1 1.2 1 .6 0 .9.3.6.6s-1.5 0-2.6-.7c-1.5-.9-3.5-1-8.3-.2-3.6.6-8.6.7-11.4.3-5-.8-8.1.1-9.8 2.8-.5.7-2 1-3.8.7-2.5-.5-3.1-.1-3.9 2-.5 1.4-1.5 2.5-2.1 2.5s-.9-.6-.6-1.4c1-2.4-1.6-3.5-6.8-2.9-2.8.3-6.9.5-9.2.5-2.4-.1-4.3.4-4.3 1s-.8.8-1.8.6c-1-.3-2.3.1-3 .9-.7.7-2.9 1.3-5 1.3-4.1 0-11.9 2.5-14.2 4.5-2.2 1.9-11.2 2.6-13 1-.8-.7-2.6-1.6-4-2-2.2-.7-2.3-.6-1.1.9.7.9 1 1.6.5 1.6-1.7 0-3.1-1.5-3.6-3.8-.5-1.8-.2-2.2 1.6-2.2 1.2 0 3.1.7 4.3 1.5 3.9 2.7 9.8 3 14.3.6 2.3-1.2 4.6-1.9 5.1-1.5.5.3.8 0 .7-.8-1.1-5.2 39.1-13.2 71.2-14.3 14.8-.5 20.6-1.1 24.5-2.4 6.1-2.2 7.6-2.4 10.8-1.2m-247.8 5.1c.4.7 1.2.7 2.5 0 3.8-2 3.3 1.6-.5 3.8-1.8 1-1.6 1.1 1.7 1.2 2 0 6 .5 8.8 1.1 3.7.8 6.9.8 12.1-.1 7.8-1.3 9.6-.9 4.9 1.1-3.2 1.5-3.5 2-4.6 8.3-.7 4.2-.4 4.3 4.9 2.1.9-.4 1.7-.3 1.7.3 0 2.1-10.7 4.5-16.8 3.8-3.1-.4-8.1-.9-11.1-1.1s-5.9-.9-6.5-1.5c-.5-.5-2.5-1-4.3-1-2.6 0-3.1.3-2.6 1.6.7 2-4.3 6.3-7.4 6.4-1.4 0-2.3.6-2.3 1.5 0 .8-.6 1.5-1.4 1.5s-2.2-2.8-3.5-6.8c-1.3-3.7-2.5-7.2-2.7-7.8-.3-.7 2.7-1.4 8.8-1.8 14.1-1.2 14.3-1.2 15.7-2 .7-.5 1-1.8.8-3-1.8-7.8-1.9-8.6-.3-8.6.8 0 1.8.5 2.1 1m103.5 17.8c0 2.7-14.8 7.2-25.5 7.7-2.7.2-5.7.6-6.5.9-4.6 1.8-11.1 3.3-11.5 2.7-.2-.5-2.4-.7-4.9-.6-2.7.2-4.7-.2-4.9-.9-.3-.9 1.5-1.3 6.3-1.4 3.7-.2 9.8-1.2 13.6-2.2 3.8-1.1 9.4-2 12.4-2 3.1-.1 8.3-1.1 12-2.4 7.4-2.6 9-3 9-1.8m230.6 16.5c8.7-1.8 12.1-1.4 20.9 2.2l4 1.6-4-.7c-10-1.9-41.4 0-62.6 3.6-8.1 1.4-8.6 1.3-4.5-1.5 2.8-1.9 5.9-2.8 12.4-3.5 4.8-.6 10.7-1.4 13.2-1.8 3-.6 5.8-.4 8.4.5 3.4 1.2 5.1 1.1 12.2-.4m118.2 11.9c-.3.9-3.7 1.5-10.9 1.8-5.7.3-11 1-11.8 1.4-1.3.8-6.1 1.4-32.6 3.6-6.6.6-13.4 1.5-15.2 2.1-5.9 1.9-10.8 1.5-14-1.1-1.7-1.4-3.9-3-4.9-3.6-1.1-.7-1.6-1.5-1.2-1.9.3-.3 2.3.4 4.5 1.8 5.7 3.5 6.7 3.7 12 2 2.6-.8 10.7-1.9 17.8-2.4 16.7-1.1 31.9-2.6 37-3.6 2.2-.4 7.5-.9 11.8-1.1 6.1-.2 7.8 0 7.5 1m-237.8 7c0 2.9.5 8.4 1 12.2.8 5 .7 7.2-.1 8.3-1.9 2.2-3.4 1-3.9-3.3-.5-3.6-.8-3.9-3.8-4.2-7.2-.7-9.6-14.5-3-17.2 1.3-.5 4-.9 6.1-.9l3.7-.1zm1 28.5c0 1.8 4.1 25.1 4.8 27.8.8 2.7 1.3 3 4.5 2.8 3.4-.2 3.6-.1 2.7 2.1-.6 1.6-.5 3 .4 4.2 1.3 1.7 4.1 1.7 13.4-.2l3.2-.7v4.6c0 3.1-.5 4.7-1.5 5.1-2 .7-1.9 2.6.1 2.6 1.3 0 1.5.7 1 3.1-.3 1.7-.6 4.7-.6 6.5 0 2.1-.5 3.4-1.3 3.4-.7 0-2.1 1-3.1 2.1-1.4 1.7-2.5 2-5.6 1.5-2.9-.5-3.9-.2-4.4 1-.5 1.4-.1 1.5 2.8 1 1.9-.4 3.7-.2 4 .3.4.6-.9 1.3-2.9 1.7-1.9.3-3.5 1.1-3.5 1.6 0 .6 1.4.8 3.6.3 2.8-.5 3.5-.3 3.2.7-.3.9-2.8 1.4-7.6 1.6-5.6.2-7.5-.1-9.1-1.4-1.6-1.4-1.8-2.1-.9-3.1.8-1 .8-1.7 0-2.5-2.5-2.5-1.4-4.1 2.3-3.4 3.4.7 3.5.6 3.5-2.4 0-3.3-1.9-4-4-1.5-1.7 2-2.7 1.2-2.8-2.5 0-2 .6-3.3 1.9-4 1-.6 1.9-1.8 1.9-2.6 0-1.7-3.8-5.3-5.7-5.4-2.1 0-2.7-4.2-.9-5.6 1-.6 1.3-1.4.8-1.5-1.8-.7-2.4-4.9-.8-5.5 2.1-.8 2-3.5-.4-17.4-2.4-13.8-2.4-15-.5-15 .8 0 1.5.3 1.5.7m335.4 15.9c5.2 2.6 7.6 5.9 7.6 10.7 0 2.1-.2 2.1-5-.3-2.2-1.1-5.7-2-7.8-2-4.2 0-6.4-1.7-7.9-6-.5-1.4-.8-3.3-.5-4.4.3-1.5 1-1.7 4.3-1.2 2.1.3 6.3 1.8 9.3 3.2m-529.4 1.9c-.9 1.1-1 1.8-.1 2.9 1.6 1.9 4.2 10.9 3.3 11.7-.4.4-3.6 1-7.1 1.3-5.8.7-6.3.6-5.2-.8.8-.9 2.3-1.6 3.4-1.6 1.9 0 1.8-.1-.4-2.3-1.3-1.2-3.6-2.8-5.1-3.5-1.6-.6-2.8-1.6-2.8-2.1 0-1.4 6.4-5.1 8.8-5.1 1.1 0 2.4-.5 2.7-1 .3-.6 1.3-1 2.2-1 1.3 0 1.3.3.3 1.5m-330 12.2c-.1 2.1.3 6.9.9 10.8.5 3.8 1.1 9.8 1.4 13.2l.5 6.3h-3.3c-4.2 0-4.7-1.9-4.1-14.2.3-4.9.1-9-.5-9.3-1.3-.9 0-5.6 2.4-8.3 1.1-1.2 2.2-2.2 2.4-2.2s.3 1.7.3 3.7m649.4 20.8c1.5 14.9 2.6 23.4 3.2 26.2.4 2.2.3 3.3-.5 3.3-1.7 0-1.3 5.3.8 11.7 3.3 9.8 3 14.3-.9 14.3-1.6 0-1.9-.7-1.9-4.3.1-5.2-.5-11.8-2.5-27.2-2.8-21.9-2.8-22.2-1.5-24.6.7-1.3 1.2-4.7 1.1-7.4l-.1-5 1 4.5c.5 2.5 1.1 6.3 1.3 8.5m-55.6 38c2.2 1.9 4.1 2.5 7.5 2.5 4 0 4.9.4 7.2 3.4 2.1 2.7 4.5 11 4.5 15.7 0 1.8-7.2 1.4-14-.7-4.1-1.3-8.6-2.4-10-2.4-3.6 0-4.8-1.1-5-4.5-.3-4.5-.1-5.7.9-5.1 1 .7 2.1-2.7 2.1-6.5 0-2.4 1.6-4.9 3.1-4.9.4 0 2.1 1.1 3.7 2.5m-25.4 4.6c1.4 1.1 2.6 3 2.6 4.2s.7 4 1.5 6.2c2.3 6.5 1.9 9.2-1.5 11-1.6.8-4.2 1.5-5.8 1.5-2.8 0-3-.2-3.6-5.4-.3-3-.3-7.4 0-10 .5-3 .2-5.1-.6-6-3-3.7 3-4.9 7.4-1.5"/><path d="M1490.7 633.7c-1 .9.3 8.3 2 11.6.9 1.9 2 2.7 2.9 2.3.9-.3 3.3-.6 5.5-.6h3.9v-4.4c0-3-.5-4.6-1.5-5-.8-.3-1.5-1.5-1.5-2.6 0-1.8-.6-2-5.3-2-3 0-5.7.3-6 .7M1198 290.8c0 .5-1.8 1.9-4.1 3.1-2.2 1.3-5 3.8-6.2 5.7-1.4 2.1-4 4.1-7 5.4l-4.9 2 .7 5.8c.5 4.5.3 6.1-.8 7-.8.7-6.1 1.6-11.8 1.9l-10.3.6 4.8 4.3c2.9 2.7 6.8 5 10.1 6 5.1 1.6 5.6 1.6 10-.1 2.6-.9 5-1.3 5.5-.9.4.5 1.1 3.7 1.4 7.1.6 5.3.4 6.3-1.1 7.2-1.4.8-.9 1 2.6 1.1 2.4 0 4.1-.3 3.8-.7-.4-.3-.3-1.1.3-1.8.5-.6 1.2-9.5 1.6-19.8.6-16.2 1-19 2.6-20.9 2.2-2.6 2.2-2.9.3-2.2-1.1.5-1.5-.1-1.5-2.3 0-2.1.9-3.6 3-5.1 3-2.2 3.9-4.2 2-4.2-.5 0-1 .4-1 .8M1596.5 300.2c.4 1.3 1.9 6.7 3.2 12 1.7 6.4 3 9.8 3.9 9.8.8 0 1.4-.8 1.4-1.8 0-2.8 1.1-3.4 2.6-1.4 1.1 1.5 1.4 1.3 2.8-2 2.1-5 2-7.3-.6-11.9-1.6-2.9-3.2-4.2-6.6-5.4-6.4-2.1-7.6-2-6.7.7M1697.2 306.7c-1.9.7-.4 2.3 2.3 2.3 1.3 0 7.9 1.1 14.7 2.5 27.5 5.6 93.8 17.5 97.7 17.5 4 0-1.1-1.3-17.5-4.4-9.8-1.9-19.7-3.7-21.9-4-13.7-2.1-63.6-11.8-69.5-13.6-3.8-1.1-3.9-1.1-5.8-.3M1723 333.5c-.9 2.2-1 8.5-.6 22.8.4 10.8.9 20.3 1.1 21 .3.7 2.7 1.3 5.7 1.5 6.2.4 6.8.7 6.8 3.4 0 1.4.5 1.8 1.6 1.4.9-.3 4.6-.9 8.4-1.2 3.7-.4 7.4-1 8-1.4 1.8-1.1-4.6-10.3-12.6-18.1-6.9-6.8-11.6-15-13.5-24-.6-2.6-1.6-5.5-2.4-6.5-1.3-1.8-1.4-1.7-2.5 1.1"/><path d="M1901.4 344.3c3.6 5.9 14 91.6 25 206.7 10 103.5 13.2 142.9 17.1 209 .8 13.5 1.9 32.9 2.6 43.1 1 15.6.9 19.1-.2 21.5-.8 1.6-2.2 2.9-3.1 2.9s-2.6 1.1-3.8 2.5l-2.1 2.5.5-2.5c.3-1.4.8-3.6 1.2-5 .5-2.4.5-2.4-1-.6-.9 1.1-1.8 1.7-2.1 1.4-.3-.2-.7-4-1-8.4-.3-4.3-.8-11.3-1-15.4-.3-4.1-1-14.9-1.5-24s-1.4-20.3-1.9-25-1.3-15-1.7-23c-.3-8-.8-15.4-1-16.5s-.9-8.8-1.5-17c-.5-8.3-1.2-15.7-1.4-16.5-.5-1.9.3 22.3 1 30.5 1.6 18.1 6.5 98.6 6.7 107.8.2 16.9-1.8 15.4-2.7-2-.4-8.1-.9-16.2-1-17.8-.2-1.7-.7-8.9-1-16-.4-7.2-1.1-13.7-1.6-14.5s-.6 1.8-.4 6c2.2 40.7 2.6 55.4 1.6 57-1.1 1.5-1.2 1.1-1.6-7.5-.8-14.4-.7-14.1-1.5-11-.4 1.6-.5 4.9-.2 7.2.5 4.5-.3 9.3-1.7 9.3-.4 0-.7-1.5-.6-3.2.1-1.8-.1-4.4-.6-5.8-.5-1.7-.8-.2-.8 4.8-.1 7.3-1.4 11.8-3.1 10.7-.5-.3-1.4.3-2 1.4-.7 1.5-1.8 1.9-4 1.6-1.7-.2-3.4.2-4.1 1.1-1.2 1.5-4.9 1.9-4.9.6 0-.4.5-1.3 1.2-2 .6-.6.9-1.4.6-1.8-.4-.3-1.5.4-2.5 1.5-.9 1.2-2.5 2.1-3.5 2.1s-1.8.4-1.8 1c0 .5-.9 1-1.9 1-1.1 0-2.1.4-2.3.8-.8 2-7.9 5.3-9.9 4.7-1.2-.4-2.4-.2-2.8.4s-2.1 1.3-3.7 1.6c-1.6.2-4.1.7-5.6 1-2.1.4-2.8.1-2.8-1 0-2.5-2.4-1.6-4.5 1.7-1.1 1.7-2.7 3.4-3.5 3.6-1.2.4-1.2.2.1-1.4.9-1 2.9-4.2 4.3-7 2.5-4.8 2.6-5.6 2-15-.3-5.4-1.6-27.7-2.9-49.4-1.2-21.7-2.3-36.1-2.4-32 0 4.1.3 15.1.9 24.5.5 9.3 1 21.9 1.2 27.9l.3 10.9-11 2.8c-13.1 3.4-16.7 3.7-15.8 1.2.4-1 .7-3.1.6-4.8-1.1-43.1-1.5-48.4-3.9-65-3.4-23.3-7.6-37.5-13.6-46.6-5.3-7.9-7.6-9.3-13.5-8.5-11.3 1.5-21.2 13.9-25.7 32.1-2.7 11-5.6 47-6.4 79.4l-.7 31.5-5 1.3c-2.7.7-7.7 2-11 2.7-3.3.8-9.1 2.3-13 3.4-3.8 1.1-18.5 4.8-32.5 8.2s-53.6 13.1-88 21.7c-34.4 8.5-70.6 17.4-80.5 19.8-50.1 12.2-66 16.1-88.5 21.4-28.2 6.8-44.6 10.4-47.5 10.6-1.1 0-3 .6-4.3 1.3-3.1 1.8-31.5 8.2-32.4 7.4-.4-.4-1-7.5-1.3-15.7-.3-8.3-1-19.7-1.6-25.5s-1.2-12.8-1.5-15.5c-1.4-18.3-5.1-41.5-9-57.5-3.2-13.1-7.3-26-8.9-28-.6-.8-3.3-5.8-5.8-11-13.6-28-27.8-32.5-54.5-17.4-21.8 12.4-32.8 29-40.2 60.4-1.2 5.2-2.6 9.8-3.2 10.1-.6.4-1.2 2.2-1.3 4-.2 1.9-.6 5-.9 6.9-3.1 17.9-4.4 45.7-4.6 95.6l-.1 27.2-19.7 4.7c-31.9 7.6-55 13.4-123.2 31-141 36.2-153.7 39.3-178.5 43.4-26.5 4.4-52.5 6.1-118.2 7.8-26.7.6-31.6 0-21.8-2.7 12.2-3.4 17.4-11.2 12.7-19.2-3.5-6.1-12.4-8.7-23.1-6.7-11.4 2-17.5 6.6-18.7 14-.5 3-.1 4.1 2.5 7.2 1.8 2 4.9 4.1 6.9 4.8s3.1 1.4 2.5 1.6c-.7.3-1.3.9-1.3 1.5 0 .7 2 .8 6 .4 4.5-.5 6.7-.3 9 .9 1.6.8 3 1.9 3 2.4 0 1.4-4.7 3-16.2 5.2-6.2 1.2-17.6 3.5-25.3 5-7.6 1.6-14.1 2.7-14.3 2.4-.6-.6 6.2-2.3 25.3-6.2 9.9-2 18.4-4 18.8-4.3.5-.4-1.8-1.6-5-2.5-3.2-1-6.3-2.2-7-2.7-1.2-.9-16-.8-111.8 1.3-39.6.8-78.6.8-83.1-.1-.1 0-.4-2.5-.7-5.7-.3-3.1-1.2-6.3-2-7.1-1.2-1.2-9.8-1.4-56.3-1.2-59.4.1-96.5.7-97.3 1.6-.3.3-.4 3.4-.2 7l.3 6.4-5.9.2c-13.4.5-145.3.3-145.3-.3 0-.3.5-1 1.2-1.7.9-.9.4-1.2-2.2-1.2s-3.1.3-2 1c.8.5 1.1 1.3.6 1.7-.4.4-13.8.8-29.8.8h-29l.5 5.5c1 9.1 1.6 11.8 3.7 16 1.1 2.1 2 4.4 2 5s.7 1.8 1.5 2.7c.8.8 1.3 1.8 1.1 2.2-.3.4 0 .8.7.8 5.3.4 11.7 2 14.6 3.7 1.9 1.1 5.3 2.1 7.5 2.3 2.3.2 5.7.6 7.6.9s9.9.8 17.8 1.1c13.4.5 14.4.4 16.5-1.5 2-1.8 3.6-2 16.1-2.2 7.7 0 14.2-.3 14.6-.5 1.3-.8 6.7-1.4 17-2 5.8-.3 16.1-.9 23-1.4s13.2-.5 14.1 0c.9.4 8.8.8 17.5.8 18.7 0 20.4-.1 19.8-1.1-.4-.7 5.3-2.1 7.1-1.8.6.2 2.7.2 4.8.1 3.2-.1 3.7-.4 3.7-2.5 0-3.1 1.1-3.4 8.3-2.8l5.8.5-.3-3.4c-.3-3.3-.4-3.4-4.5-3.1l-4.3.4v-4c0-3.8.1-4 4.1-4.6l4.1-.7-.5-10c-.3-8.7-.2-10.1 1.3-10.9 1-.5 6.9-1.2 13.1-1.5 21.1-.9 124.4-1.6 125.5-.8 1 .7 3.3 29.7 3 37.8-.1 4-3.3 5.4-12.1 5.6-3.8.1-8.3.5-10 1s2.1.5 9 .1c6.6-.4 29.6-.5 51-.3 21.5.2 57 .3 79 .2 65.3-.3 172.3 1.6 185 3.3 6.1.8 18.4 1.9 27.5 2.6 9.1.6 20.3 1.6 25 2.1s15.3 1.2 23.5 1.5c13.6.6 16.2.4 28.5-1.9 7.4-1.5 20.5-3.3 29.1-4.1 14.6-1.4 22.6-3 37.4-7.6 6.6-2 16-4.7 27.5-8.1 7.2-2 10.6-3 26.5-7.8 3.9-1.1 16-4.6 27-7.6 11-3.1 24.1-6.9 29-8.5 5-1.5 11.8-3.3 15.2-4 9.2-1.8 11.1-.8 14.7 8.3 5.5 13.4 14.7 22.9 29 29.6 8.8 4.2 15.1 5.3 33.1 5.8 19 .6 34.9-.7 49.9-4.1 12.6-2.9 27.7-7.4 29.1-8.7.5-.5 1.6-.9 2.5-.9 2.4 0 7.9-4.4 10.8-8.7 1.4-2.1 2.9-4 3.2-4.3.8-.6 4.1-6.7 4-7.5 0-.3 1.1-2.6 2.4-5.3 1.3-2.6 3.6-8.3 5.1-12.7s3.1-8.9 3.6-10 1.3-4.3 1.8-7c2-10.4 2.2-10.6 12-12 2.4-.3 5.1-1 6-1.5 2.8-1.4 7.1-11.4 7.8-17.9.7-7 2.3-8.9 7.9-9.8 2.2-.3 5.5-1.6 7.6-3 2-1.3 6.9-3.3 11-4.3 20.4-5.2 39.6-10.3 72.8-19.5 9.1-2.6 18.3-5 20.5-5.5 2.2-.4 8.7-2.2 14.5-4 5.8-1.7 12.3-3.5 14.5-4s5.2-1.3 6.8-1.9c1.5-.6 5.5-1.7 9-2.6 3.4-.8 10.3-2.6 15.2-4 5-1.4 12.2-3.4 16-4.5 6.3-1.7 16.9-4.6 31-8.6 2.8-.7 8.2-2.3 12-3.4 3.9-1.1 13.9-3.8 22.4-6 8.4-2.2 15.7-4.2 16.1-4.5.4-.2 4.9-1.4 10-2.5 11.2-2.5 11.2-2.5 12 8.4l.5 6.9 5 2.8c2.8 1.5 7.7 3.5 11 4.4 7.7 2 29.2 2 44.5 0 7.8-1 19.9-1.4 37.5-1.3 26.4.1 27.7 0 37.5-2.8 3-.8 6.1-1.6 6.7-1.6.7-.1 3.3-2 5.8-4.2 3.9-3.6 4.8-5.2 7-13 1.4-4.8 2.5-9.8 2.5-11s1.4-3.5 3-5.1c1.7-1.6 3.7-5 4.4-7.4 1.3-4.5 1.9-5 8.6-6.5 2.1-.4 2.7-1.4 3.7-5.7.7-2.9 1.5-5.4 1.7-5.7.3-.2 4-.8 8.3-1.3 11.9-1.3 20.4-2.8 24.8-4.4 3.8-1.4 13.8-4.1 25.5-6.9 3-.8 8.2-2.3 11.5-3.4 3.3-1.2 7.2-2.3 8.6-2.6s3.8-1.7 5.3-3.1 3.1-2.5 3.7-2.5c2.1 0 10.8-6.7 13-10 3.1-4.5 3.4-4.7 8.8-5.5 2.5-.3 9.3-1.7 15.1-3s12.4-2.6 14.8-2.9c2.3-.4 6.5-1.1 9.2-1.7l5-1.1v-31.1l-3.2.7c-1.8.4-9.6 1.8-17.3 3.1s-17.4 3.1-21.5 3.9-7.8 1.1-8.2.8c-.8-.9-2.8-25.6-3.2-40.2-.4-12.6-2.6-42.2-5.5-73.5-1-11-1.7-20.3-1.5-20.6.5-.9 10.3-1.7 32.3-2.9 10.1-.5 20.6-1.3 23.3-1.6l4.8-.7v-45.9c0-43.3-.1-45.9-1.7-45.4-5.8 1.7-7 1.6-9.6-.4-3.4-2.7-3.6-4.6-.2-2.4 2 1.3 3.4 1.5 6.8.8l4.2-.9.3-9.3c.2-6-.1-9.2-.8-9.2-.6 0-2.7.7-4.7 1.5-4.2 1.8-6.8 1.2-8.4-1.7-.9-1.6-.7-2.4.5-3.6 1.5-1.5 1.6-1.4 1.6 1.1 0 2.7 1.2 3.3 4.4 2.1 1.2-.5 1.6-2.1 1.6-6.9 0-3.5-.4-6.6-.9-6.9-.7-.5-1.1-4.4-2.4-21.4-.2-1.9.6-2.6 3.6-3.7 4.1-1.4 4.2-1.3 5 6.5.2 1.9.5-.8.5-6.2l.2-9.6-2.7.8c-1.6.4-5 1.5-7.7 2.3l-4.9 1.6-3.4-3.6c-2.4-2.7-3.5-5-3.9-8.7-.6-4.4-.8-4.7-1.6-2.5-.5 1.3-.8 5.1-.6 8.4.1 3.3-.1 6.5-.5 7.1-.4.7-2.3 1.5-4.4 1.9-2 .4-5.3 1.5-7.3 2.4-3.5 1.8-13 1.8-13 .1 0-.4-2.5-.6-5.7-.4-4.2.3-6.1 0-7.4-1.2-1.6-1.4-2.7-1.5-7.1-.6-2.9.5-5.4.9-5.5.9 0-.1-.3-2.2-.5-4.7l-.3-4.5 13.5-.7c13.6-.7 19.3-1.9 26.8-5.7 2.3-1.2 5.5-2.1 7.3-2.1h3.1l-.7-9.3c-.4-6-1.2-9.6-2.1-10.3-.8-.6-1.4-1.6-1.4-2.3 0-.6-.4-1.1-1-1.1-.5 0-1 1.1-1 2.4 0 3.3-8.2 8-17.6 10.2-5.9 1.3-8.3 1.4-16.9.4-5.5-.7-10.6-1.3-11.2-1.3-.7 0-1.3-.9-1.3-2 0-1.8.4-1.9 4.8-1.1 2.6.5 9.7.9 15.7.9 9.2 0 11.7-.4 15.5-2.2 3.2-1.5 3.9-2.2 2.4-2.2-2.4-.1-2.8-1.7-4-16.3-.6-6.7-.4-7.8 1-8.4 1.4-.5 1.5-1.7 1-8.4-.6-7.3-.5-7.9 1.6-9 1.2-.6 2.3-1 2.5-.8s1.1 4.4 1.9 9.4c2.5 14.2 4.2 19.1 7 19.8s3.2 1.8 4.7 16.2c.7 6.2 1.7 11 2.2 10.7.4-.3 1.4.2 2 1.1 1 1.3 2.6 1.5 10.7.8l9.5-.7.3-32.7.2-32.8-9.2.7c-16.3 1.3-16 1.3-18.2-3.1-1.7-3.4-2-3.7-2.6-2-.7 1.8-.7 1.8-1.4-.4-1.3-4-2.3-2.3-1.8 3l.4 5.3-6.8 2.4c-9.2 3.3-19.4 5.1-28.9 5.1-4.4.1-9.7.7-11.7 1.4l-3.7 1.3-.6-4.6c-.3-2.5-.8-6.1-1.1-7.9-.4-2.8-.1-3.3 2.2-4.2 1.5-.6 7.9-1 14.3-.9 12.3.3 13.9-.2 19.6-4.9l3-2.5v-11.1c0-10.4.1-11.1 2.1-11.4 1.1-.2 2.8.6 3.9 1.8 2.2 2.4 4.1 2.6 4.9.4.9-2.5 2.3-.8 3.6 4.5.6 2.8 2.5 7.1 4.1 9.7 3 4.6 3 4.7 7.5 4 2.5-.3 6.6-.1 9.1.4 2.5.6 6 .8 7.9.4l3.4-.6v-31.7l-3.2-.4-3.3-.4 3.5-.2c2.3-.2-1.1-1.2-9.5-2.7-7.1-1.3-16.1-3-20-3.9-3.8-.9-11.3-2-16.5-2.5s-12.4-1.3-16-1.9c-7.7-1.3-11.9-1.3-8-.1 2.2.6 2.3.8.7 1.5-1 .4-3 .2-4.5-.5-2.5-1.2-2.6-1.3-.7-2 1.5-.5.5-.9-3.5-1.4-10-1.3-10.9-1.7-15.1-6.4-2.3-2.6-3.4-3.5-2.5-1.9m14.9 9.2c2.7.4 3.7 1.1 3.7 2.4 0 1 .8 2.9 1.9 4.2 1.7 2.1 2.2 2.2 4.6 1.1 1.5-.7 2.9-2.1 3.2-3.2s.9-2 1.4-2c1.5 0 41.5 6 47 7 2.9.6 5.5 1.3 5.8 1.6.3.4-.7.4-2.4.1-8.4-1.6-18.6-2.9-19.1-2.4-.3.3-.7 1.3-.8 2.4-.2 1.5-1.5 1.9-6.7 2.4-6.7.6-9.9 1.5-9.9 2.9 0 .5 1.4 1.9 3 3.2 2.6 2 2.9 2.8 2.4 5.5s-1.1 3.3-4.5 3.8c-2.2.4-6.7.4-10 0l-6-.7.7-3.2c.4-2.6 0-3.9-2.2-6.5l-2.7-3.3-1.8 2.4c-2.1 2.6-2.4 5.1-.9 7.8.9 1.6.5 1.9-3.3 2.5-2.3.4-4.9 1.4-5.9 2.2-2.6 2.3-3.1.1-3.2-14.6 0-7.5-.3-12.5-.6-11.1-.6 2.4-.7 2.3-1.3-.9-.8-3.9-.3-5 2.1-4.6.9.2 3.4.7 5.5 1m28.4 31.5h6.3v3.8c0 3.2-.5 4.1-3.2 5.7s-5.5 1.9-17.3 2.1c-7.7.1-14.7.5-15.6.8-2.8 1.2-3.2-6.3-.5-9.3 3.3-3.6 5.4-4.2 15-3.6 4.9.3 11.8.5 15.3.5m36 32.4c1 .8 3.6 18 5 32 1.5 16.4 1.5 17-.3 18.3-3.2 2.3-5.8 1.2-6.6-2.7-1.4-6.5-4.8-37.4-4.8-43.3v-5.9l3.3.7c1.7.4 3.3.8 3.4.9m-7.2 85.5c-.3.5-.1 1.2.4 1.5.5.4 1.2-.2 1.4-1.1.3-1 .5-.4.6 1.3.2 5.4 1.3 9.4 2.6 9.4 2.5 0 3.6 2.8 3.3 8.2l-.3 5.3-1.7-3.5-1.8-3.5v3c0 2.1-.3 2.6-.9 1.6-1.3-2.1-2.4.5-1.6 3.7.4 1.5 1 2.1 1.2 1.4.3-.6.9-1.2 1.4-1.2 1.4 0 1.1 2.8-.3 3.3-2.1.6-4.8-.4-4.8-1.9 0-.7-.5-1.6-1.1-1.9-2-1.3-2.1.3-.3 3.4 1.5 2.5 2.5 3.1 5.1 3.1s3.3.4 3.3 2c0 1.3-.9 2.2-2.7 2.6-1.6.3-5.9 1.5-9.8 2.6-5.3 1.6-10.9 2.2-22.7 2.6-10.2.3-15.8.1-15.8-.5s6-1.2 14.8-1.6c14.6-.5 24.6-2 25.8-3.8.3-.6.1-5.6-.5-11.2s-1.2-13.3-1.4-17.1c-.2-6.7-.1-7 2.3-7.7 3.6-1 4.2-1 3.5 0M778.6 1027.1c.3.6 0 1.5-.7 2-1 .6-.5 1.1 2 2 2.8 1 3.1 1.4 1.9 2.3-1.7 1.2-1.2 3.7.9 4.9 2.5 1.5-.5 3.7-5.1 3.7-3.9 0-4-.1-1.7-1.3 5.8-2.9 1.6-5.7-8.6-5.7-5.7 0-6.4.2-5.3 1.5 1 1.2 2.5 1.4 6.4 1 3.6-.4 4.5-.3 3.1.4-1.1.5-3.2 1-4.7 1-3.2.1-5.8 1-5.8 2.1 0 .4 3.5 1 7.8 1.3 7.1.5 13.2 2.3 13.2 3.8 0 1.2-8.4 4.1-11.8 4.1-1.8 0-6.1-.6-9.6-1.3-5.7-1.1-6.3-1.4-5.3-3 .8-1.3.8-2.4-.1-4.4-.9-1.9-.9-3.2-.2-4.6.6-1 1-2.5.9-3.2-.3-2.8.4-3.5 5.9-5 8.9-2.6 15.8-3.2 16.8-1.6M1810 346.9c0 .6-1.7 1.5-3.7 2-5.6 1.5-8.1 3.7-9.4 8-1.1 3.8-.5 13.1.9 13.1.4 0 3.9-1.3 7.7-2.8 9.1-3.7 10.3-5.8 7.9-14.2-1.5-5.4-3.4-8.8-3.4-6.1M31.2 348c-4 .9-7.8 4.3-8.7 7.7-.8 3.5 0 3.9 2.7 1.3 1.3-1.2 3.3-2.6 4.6-3.1 2.7-1 16.5-1.1 23.2-.1l4.5.7.6 6.5c1.1 10.7 4 16.4 10 19.5 4.7 2.5 44.7 9.7 57.8 10.5 8.8.5 12.7 1.1 13.5 2.1.9 1.1 4 1.3 15.1 1.2 18.2-.4 18.4-.4 18.2-4.8-.2-2-1-4-2.1-4.8-1.6-1.1-1.6-1.5-.4-1.9 1.7-.7 1.7-3.3-.1-6.7-.8-1.4-.9-2.6-.4-3 1.4-.9 2.2-6 1.1-6.7-.5-.3-.6-2.6-.2-5 .6-4.3.6-4.4-2.2-4.6h-4.7c-1 .1-1.5-.3-1.2-.8.3-.6 2.2-1 4.1-1 2.9 0 3.4-.3 3.4-2.4 0-3.1-1.5-3.6-11.3-3.7-4.5 0-10.7-.4-13.7-.9-4-.6-6.1-.4-7.6.5-1.7 1.1-7.6 1.2-30.5.5-50.7-1.5-72.3-1.8-75.7-1m74.5 6.7c14.4.3 26 .9 25.8 1.3s.6.5 1.9.3c2-.4 2.4 0 2.9 3.4.4 2.1.7 8.7.7 14.7v10.9l-11.2-.6c-12.3-.5-52-7.7-57-10.3-4.3-2.2-6-5.7-6.6-13.4l-.5-7h8.9c4.9 0 20.7.3 35.1.7M832.2 349.5c-1.2 1.4-2.2 2.8-2.2 3.2s-.9 1.6-1.9 2.7c-2.6 2.8-10.7 18.3-13.6 25.9-2.7 7.5-2.5 13.3.6 11.6 1-.5 1.9-1.6 1.9-2.4 0-2.3 3.7-1.8 4.3.5.5 2 3.7 2.9 3.7 1 0-.5.7-.7 1.5-.4 1.8.7 2 2.4.2 2.4-1.4 0-3.2 5.8-4.2 13.5-.4 2.7-1.6 6.2-2.7 7.8-2.7 3.7-1.8 6.1 1.7 4.5 1.4-.6 2.6-1.4 2.6-1.7.1-.3.3-1.5.5-2.6.5-3.6 2.9-9 4.1-9.2 1.6-.3 2.7 6.6 1.2 8.3-.6.7-1.5 1.1-2 .8s-.9.8-.9 2.3c0 1.6-.6 3.8-1.4 4.9-1.4 1.9-2.6 6-7.3 23.7-1.8 6.8-1 8.4 2.1 4.3 1.1-1.6 3.1-4 4.4-5.4 1.2-1.4 2.2-3.3 2.2-4.2 0-2.1 2.7-3.4 3.3-1.7s1.8-17.6 1.7-25.8c-.1-3.9.3-16.2.9-27.5 1.1-21.4 1.8-39 1.6-39-.1 0-1.1 1.1-2.3 2.5M1627.9 371.5c-.4 5.8-.5 6-3.6 7-2.7.7-3.3 1.4-3.3 3.6 0 3.6 1 4.1 4.4 2.3 1.6-.7 3-1.4 3.2-1.4s.4 2.9.4 6.4c0 6.6-1.4 9.6-4.6 9.6-2 0-1.9 7.9.1 8.6 1.7.7 6.8-2.3 6.1-3.5-.3-.4-.6-7.9-.7-16.7-.2-17.6-1.3-26.2-2-15.9"/><path d="M1818.2 383.3c-2.2 2.2-5.4 3.9-10.7 5.6-4.1 1.2-7.7 2.7-8 3.2s1.1 1.6 3.2 2.6c3.7 1.8 5.9 6.1 5.1 10-.3 1.5-11 5.2-20.6 7.2-5.8 1.2-6.1 1.8-1.8 3.6 5.5 2.3 7.6 4.9 7.6 9.4 0 4.6 1.4 5.9 3.8 3.8 1.8-1.6 10.3-4.7 12.8-4.7 1.2 0 1.3-.4.4-2-1.2-2.2-.5-4.4 1.1-3.5.5.4.9 1.6.9 2.7s.7 2.6 1.6 3.2c2.2 1.6 5.1 19.8 6.7 41.8 1.5 20.5 1.3 23.5-1.5 24.4-1.1.3-1.7.8-1.4 1.1.7.8 4.3-1.7 8.9-6 4.1-3.9 5.7-3.9 7.7-.1 1.8 3.3 2.4 2.3 1.2-1.8-1.1-3.4-2.7-22.6-2.4-28.8.1-1.9-.7-10-1.7-18-1.1-8-1.6-14.9-1.2-15.5 1.3-1.8.5-13.9-1.3-17.2-1-2.1-1.6-5.7-1.6-10.5 0-5.5-.5-8.1-2-10.6-1.1-1.7-2.3-3.2-2.8-3.2-.4 0-2.2 1.5-4 3.3M13.6 395.2c-.8 1.3-1.9 5.4-2.5 9.3-1.4 9.4-5.1 42.7-5.1 46.1 0 1.5-.6 3.5-1.4 4.3-2.4 2.6-2.5 3.8-4.1 39-.5 9.8-.2 13.4 1 17.2 2.1 6.2 8.2 11.9 12.8 11.9 1.8 0 4.2.7 5.3 1.5 2.6 1.7 9.4.9 9.4-1.1 0-.8 1-1.4 2.4-1.4 1.3 0 4.3-1.5 6.7-3.3 2.5-1.7 5.3-3.7 6.4-4.3s2.1-2.3 2.3-3.8c.2-1.4.6-2.4 1-2.2s.8-.6.9-1.7c.1-1.2.6-4.2 1.2-6.7 1.6-6.9 3-14.8 4.1-23 .6-4.1 1.3-8.6 1.6-10 1.4-7.6 1.5-15.5.2-16.5-1.2-.8-1.3-2.8-.6-10.5 1.1-13.5 2.4-38.4 2-40.3-.2-.9-1-1.7-1.8-1.7s-1.2-.5-.9-1c.4-.6 1.1-.8 1.6-.5.5.4.9-.1.9-.9 0-1.3-1.3-1.6-6.3-1.6h-6.4l.5 2.9c.3 2.6-.5 9.1-4.3 33.6-.4 2.2-1 9.4-1.5 16-.4 6.6-1.9 20.1-3.3 30s-3 21.1-3.4 25c-.8 6.8-.9 7-3.5 6.9-14.6-.3-17.6-.6-19-1.7-1.5-1.1-1.6-2.9-.8-17.2 1.5-24.6 3.9-54.2 6-73.3 2.3-19.6 2.4-23.2 1-23.2-.5 0-1.6 1-2.4 2.2M474.4 434c-.1 8.2.3 14.7.7 14.4.9-.5 6.9 2.4 7.9 3.8.3.4.5 2.4.5 4.4-.2 3.3 0 3.5 1.2 1.8s1.3-1.6 1.4.7c0 1.3.3 1.8.6 1.1.7-1.8 2.3-1.5 2.4.5 0 1 .5.4 1-1.2.5-1.7.8-8.9.7-16-.3-11.8-.1-13.4 2-17.4 1.2-2.5 2.2-4.6 2.2-4.7 0-.5-13.1-2.4-16.6-2.4h-3.9zM829.3 445.7c-.7 1.5-1.3 3.2-1.3 3.9 0 .6-.8 2.2-1.8 3.5-2.6 3.4-8.2 18.5-8.2 22 0 1.8-.6 3.2-1.6 3.6-1.2.4-1.4 1.4-1 3.9.4 1.8.2 3.5-.3 3.9-.6.3-.8 1.2-.5 1.9.5 1.2.9 1.2 3.1.1 1.5-.8 3-1.2 3.4-.9.4.2.8-.4.8-1.3.1-5.6 1.5-9.3 3.6-9.3.7 0 1.6-1.1 1.9-2.5.4-1.4 1.1-2.3 1.5-2 1 .6 2.4-17.6 1.9-24.7-.3-4.6-.3-4.7-1.5-2.1M1705.2 484.2c-1.8 1.1-2.9 2.4-2.6 2.9s.9.7 1.4.4c1-.6 2.5 9.7 1.7 11.7-.3.7-.6-.1-.7-1.7-.1-1.7-.6-4.1-1-5.5-.6-1.8-.7-1.2-.4 2.1.4 3.4.2 5-1 6.1-1.4 1.5-1.3 1.7 1.3 2.6 2.7 1 2.8 1.3 4 11.8.7 5.9 1.5 11.2 1.7 11.6.3.4 1.3.4 2.3-.1 1.3-.7 2.4-.6 4 .5 1.2.9 3 1.3 4.2.9 3.2-1 .9-2.5-4.9-3.2l-5.2-.6.1-17.1c0-23 0-23.4-.9-24-.4-.2-2.2.4-4 1.6M1671.3 491c-1.3.5-2.3 1.5-2.3 2.2-.1 4.9 3.4 34.5 4.2 35.4.5.7 2 1.4 3.4 1.7 2.3.4 2.5.2 2.3-2.7-.2-1.7-.1-3.6.3-4.1.6-1-.8-24.6-1.7-30.3-.6-3.4-2-3.9-6.2-2.2M199.3 863.8c-1 .6-.7 4.9 1.2 19.2 1.4 10.2 3.2 21.6 3.9 25.5.8 3.8 1.7 9 2.1 11.5.7 4.5 1.8 6 4.4 6 1 0 1.2-.9.7-3.8-.8-5-4.5-30.8-5.1-35.2-2-16.9-2.7-20.6-4.3-22.2-1-1-2.2-1.4-2.9-1M1165.5 883c-19.8 4.1-53.8 10.7-92.5 18.2-9.6 1.8-25.2 4.9-71 14.3-9.1 1.8-20.5 4.1-25.5 5-14 2.5-17.2 3.5-15.3 4.6 1.7 1 10.1-.6 149.6-28.2 41.4-8.2 76.3-14.9 77.7-14.9 2.9 0 4.3-1.9 2.4-3.1-.8-.5-1.6-.8-1.9-.8-.3.1-10.8 2.3-23.5 4.9M1184.3 885c-1.8.4-3.9 1.2-4.6 1.9-.8.6-1.6.8-1.9.5-.3-.2-5 .4-10.4 1.6-5.5 1.1-12.6 2.5-15.9 3.1-3.3.5-7.6 1.4-9.5 1.9s-8.7 1.9-15 3.1-11.9 2.3-12.4 2.6c-.4.3-2.5.7-4.7.8-2.1.2-5.3.8-7.1 1.4-1.8.5-10 2.2-18.3 3.6-21.9 3.9-35.9 6.6-36.4 7.1-.9.8 24.1.4 25.7-.5 1.3-.7 35.6-8.3 47.2-10.4 1.4-.3 14.7-3 29.5-6 14.9-3 29.5-5.8 32.6-6.2l5.6-.7.7 5.9c.4 3.2.9 9.6 1.2 14.3 1.1 15.7 2.4 11.1 2.2-7.3l-.3-17.7-2.5.1c-1.4.1-4 .5-5.7.9M1212.6 892.5c-.5 1.8-1.3 2.5-3.1 2.5-1.3 0-2.7-.5-3-1-.3-.6-1.4-1-2.3-.9-1 0-1.2.3-.5.5.9.4.9 1.3.2 3.1-1.2 3.3 2.4 8.2 6.2 8.2 3.8.1 9-2.3 11.6-5.3 1.3-1.4 2.8-2.6 3.4-2.6.9 0 .5-4.7-.5-5.8-.2-.1-2.2.5-4.6 1.3-4.9 1.7-7.3 1.9-4.7.4 1.9-1.1 1.4-2.9-.8-2.9-.7 0-1.6 1.1-1.9 2.5M847.5 912.6c-1.1.3-6.9 1.4-13 2.5-13.9 2.7-26.4 6.3-30.7 8.9-1.8 1.1-4.4 2-5.8 2-5.3 0-22.8 6.5-38.9 14.4-13.4 6.5-21.6 14.3-27.9 26.3-4.9 9.4-5.1 9.5-20.3 11.4-4.6.5-9 1.5-9.8 2-1.1.7-.2.9 3.4.5 13-1.4 21.7-1.8 21.3-1-4.5 9.5-7 15.1-8.8 20.7-3.9 11.6-1.5 8.4 4-5.5 8.9-22.3 15.9-34.6 24.5-43 4.9-4.8 18.9-12 35.5-18.3 16.1-6.1 17.8-6.7 40.5-12.4 29.5-7.5 42.9-8.3 58.8-3.6 6.1 1.8 7.2 1.4 2-.7-8.2-3.3-28-5.7-34.8-4.2M464.5 941.3c-7.6 3-13.3 9.9-16.1 19.4-2.1 7.2-2.1 19.6 0 22.8.9 1.4 2.1 2.5 2.6 2.5 1.3 0 12-8.1 12-9.1 0-.5.7-.9 1.5-.9.9 0 1.8-.6 2.1-1.4.3-.7 2.9-2.1 5.9-3.2 6.4-2.1 5.1-2.8 18 9 4.1 3.8 7.9 6.6 8.3 6.2s.7-5.4.7-11.1c0-9.2-.2-10.6-2.1-12.7-1.2-1.3-3.1-4.2-4.3-6.6-6.1-12-18.9-18.7-28.6-14.9"/><path d="M889.9 951.2c-5.3 5.7-12.1 13.3-15.3 17-3.1 3.7-7.6 7.9-9.9 9.2-2.3 1.4-7.2 5.6-10.9 9.4-11.3 11.5-17.4 13.8-44.8 17.1-22.2 2.7-85.8 9.1-90.4 9.1-3.3 0-3.7-.2-3.1-2 .3-1.1.2-2-.3-2s-1.8 2.5-2.9 5.5l-2.1 5.5h2.7q2.7 0 1.2-.9c-2.6-1.7 1.1-2.3 22.8-4.2 31-2.7 84.3-8.8 93.1-10.5 15.1-3.1 17.9-5.1 44.3-32 19.6-19.8 24.5-24.3 27.3-24.8 3.3-.7 4.8-2.6 2-2.6-.7 0-2-.9-2.7-2-1.3-2-1.9-1.6-11 8.2"/><path d="M836.5 948.6c-2.2.8-8.8 1.7-14.7 2l-10.6.6-1 3.8c-1.2 4.9 1 16.2 3.8 19 1.8 1.8 3.3 2 17.2 1.9 10.4 0 16.3-.5 18.3-1.4l3-1.3-4.7-.1c-7.9-.2-9.3-1.7-6.6-7.6.8-1.8.8-3.1 0-4.9-1-2.2-1.5-2.3-8.4-2-4 .1-6.2.1-4.8-.2s3.5-1 4.7-1.6 3.3-.8 4.7-.4c1.5.4 2.6.2 2.6-.4 0-.5-.4-1-1-1-2.4 0-.6-1.7 4-3.9 2.7-1.3 4.7-2.7 4.4-3.2-.7-1.3-6.2-.9-10.9.7M223 959.7c0 .7-.7 1.3-1.5 1.3s-1.4.5-1.2 1.2c.3 1.6-3.8 2.6-12.3 2.8-6.9.1-7.7.3-9.7 2.8-1.7 2.3-2 3.7-1.6 7.5.5 3.7.9 4.7 2.4 4.7 2.6 0 2.4 1.6-.3 2.5-2.1.6-2.1.7 1 1.6 1.7.5 3.2 1.6 3.2 2.4 0 1.2 1.6 1.5 7.9 1.5 4.3 0 9.9.3 12.5.6 3 .4 4.6.3 4.6-.4 0-.6-2.9-1.4-6.5-1.7-6.1-.7-8.1-1.7-5.2-2.8.6-.3-.7-.2-3 0-2.7.4-4.8.1-5.8-.7-2.8-2.3-1.6-3.3 3.5-2.8l5 .5v-3.2c0-3.1-1.2-4.3-6-5.8-.8-.3-.3-.6 1.2-.6 1.5-.1 2.9-.5 3.2-1 .3-.4 3.3-1.8 6.6-3s6-2.5 6-2.9c-.1-1.3-4-5.7-4-4.5M464.2 981c-2.8 2.7-6.3 5.7-7.7 6.6-3.7 2.4-3.1 4.5 2.8 10.7 7 7.3 13.4 9.5 22.1 7.7 6.2-1.3 10.3-4.6 14.5-11.7 2.1-3.5 1.8-4.3-1.5-4.3-1.3 0-2.5-.4-2.8-.8-.3-.5-3.7-2.1-7.5-3.6-3.9-1.5-7.1-3.2-7.1-3.7s-1.2-.9-2.6-.9c-2.2 0-2.4-.3-1.5-1.4 1-1.2.8-1.7-.8-2.5-2.6-1.4-2-1.8-7.9 3.9M195.9 1009.8c.6 1.1 2.6 2.5 4.3 3.1 6.6 2.1 56.7 8.1 67.6 8.1 3.6 0 4.2-.2 3.3-1.4-.7-.9-5.8-1.7-15.4-2.6-13-1.1-24.5-2.3-47.7-5.2-4.7-.5-9.5-1.7-10.8-2.5-2.2-1.4-2.3-1.3-1.3.5"/></svg>