<svg xmlns="http://www.w3.org/2000/svg" width="5696" height="3424" viewBox="0 0 4272 2568"><path d="m1351.4 264.6-3.1 3.4-8.9-.6c-7.4-.4-9.5-.2-12.4 1.3-3 1.5-3.5 2.3-3.2 4.8.6 6.7 8.6 9.2 20 6.3 5.1-1.2 11.4-6.6 13.1-11.2 1-2.5-.3-7.7-1.8-7.5-.3 0-2 1.6-3.7 3.5M1527 286c-.7 2.8-1 6.2-.8 7.5.5 2.6-.8 4.3-5.1 6.5-1.8.9-3.7 1-8 .1-32.6-6.4-32.1-6.4-55.6-5.7-27.2.8-43.9 2-48.5 3.5-7.4 2.5-24.3 4.1-36 3.5-10.1-.6-12-.4-16 1.3-3.5 1.6-8.6 2.2-23.7 3.2-15.8 1-20.4 1.6-25.5 3.5-3.5 1.3-9.4 2.7-13.3 3.1-3.8.4-9.5 1.5-12.5 2.5s-9.8 2.6-15 3.5-9.9 2-10.5 2.5c-1.8 1.4-8.7 2.9-18.3 3.8-6.7.7-9.8 1.5-11.3 2.8-1.6 1.5-4.9 2.2-14.5 3-6.8.6-13 1.6-13.6 2.2-3.2 2.6-13.5 5.2-20.7 5.2-6.3 0-7.8.3-9.8 2.1-1.8 1.7-4.5 2.5-13 3.5-5.9.7-10.9 1.3-10.9 1.3-.1.1-.4.9-.7 2-.4 1.6-1.9 1.9-12.5 2.5-10.7.7-12.2 1-12.7 2.7-.4 1-3.2 3.1-6.3 4.6s-6.6 3.5-7.8 4.5c-1.7 1.5-2.6 1.7-4.9.8-2.2-.8-3-.7-3.9.6-1.6 2.1-10.5 3.2-11.6 1.4-.5-.7-3.3-1.5-6.3-1.8-4.8-.4-5.6-.2-6.1 1.6-.6 1.9-6.8 4.2-11.4 4.2-2.2 0-3.7 2.6-1.9 3.3.9.3.7 1.2-.5 3.4-.9 1.6-1.5 3.9-1.1 5.1.5 1.9.1 2.1-5.3 2.4-5.3.3-5.9.5-6.4 2.8-.8 3.3-4.6 3.7-9.7 1.2-4.8-2.4-16.4-3.8-19.2-2.2-3.2 1.6-2.5 2.8 2.2 4.1 9.9 2.7 10.9 3.1 9.9 4.1-.6.6-4.8 1.7-9.4 2.5s-9 2-9.8 2.7c-.8.8-3.1 1.6-5.1 2-3.9.7-4.9 2.3-4.9 7.8 0 3.6-3.2 6.8-6.8 6.8-1.5 0-4.6.9-6.7 2-3.5 1.8-5.1 2-12.9 1.4-6.4-.5-8.7-.4-8.2.4.4.6-.4 1.6-1.6 2.3-3.2 1.6-3.1 1.5-1.8 3.9.9 1.7.9 2.9 0 5.1-1.6 3.8-.2 5.5 5.3 6.3 2.3.4 5.3 1.5 6.7 2.6 2.2 1.7 2.3 2 .7 2.5-1 .4-1.7 1.8-1.7 3.2 0 2.7 4.1 7.3 6.5 7.3 2.3 0 1.8 1.9-.7 2.4-1.3.2-4.8.9-7.8 1.6-6.2 1.4-13.2 1.6-17.2.5-2.3-.6-2.8-.3-4.3 2.8-1.3 2.8-2.7 3.9-7.4 5.6-3.2 1.1-7.3 2.1-9.2 2.1-1.9.1-4.5.7-5.9 1.5s-4.2 1.4-6.2 1.5c-2 0-3.9.4-4.2.8-.7 1.2 25.3 3.2 29.5 2.3 2-.5 4.9-1.5 6.5-2.4 4-2.2 22-7 26.9-7.2 10.7-.4 16.3-1.7 18.6-4.1 2-2.2 3.1-2.4 10.3-2.4 11.7.1 31.7-2.8 42.1-6 14.9-4.7 18.7-5.3 50.9-9 4.8-.6 9.7-1.5 10.9-2.1 2.5-1.4 13-3.7 21.7-4.8 3.6-.5 9.6-1.7 13.4-2.7 6.2-1.6 7.6-1.6 14-.4 11.8 2.3 30.6 1.2 36.1-2.2 1.6-1 4.5-1.8 6.3-1.8 3.6 0 3.6-.2 3.7 13 .1 4.1.7 8.9 1.5 10.7 1.2 2.7 1.2 5.4.1 18-2.4 27.4-4.2 55.7-5.1 78.3-1.2 31.8-2.1 44.1-3.5 47-.7 1.4-1.5 8.1-1.9 15-2 36.2-4.4 51.1-8.7 54.7-.8.6-8 1.7-16.4 2.3-8.3.6-18.3 1.8-22.4 2.7-6 1.3-10.6 1.4-24.5.9l-17.1-.8-5.2-3.4c-2.8-1.9-5.9-3.4-6.8-3.4-3 0-7.1 2.8-10.9 7.4-2.7 3.3-4.9 4.9-7.9 5.7-2.3.6-6.7 2.4-9.7 4-8.8 4.5-13.7 5.9-21.4 5.9-5.7 0-8.1-.5-11.9-2.6l-4.8-2.5-3.7 3.7c-5.8 5.8-16.4 8.9-34.8 10.2-10.2.7-16.7 1.7-20.7 3.1-8.5 3-21.7 4.5-32.2 3.7-18.2-1.5-24.1-2.3-29.2-4-5.6-1.9-6.2-3.1-4.4-7.9.5-1.3.5-3 .1-3.7-.7-1.2-1.2-1.1-2.8.3-3.2 2.9-6.2 2.1-10.9-3-2.3-2.6-4.3-5.1-4.3-5.5 0-1.5-7.5-.8-11 1-2.8 1.3-3.6 2.4-4 5.2-.3 1.9-.2 4.9.3 6.6.7 2.4.5 3.7-.8 5.7-.9 1.5-2.3 2.7-3 2.7-.8 0-1.6 1.5-2 3.2-.9 4.3-6.2 9.8-9.3 9.8-2.1 0-2.3-.3-1.7-3.1.6-2.7.3-3.5-2.1-5.4-2.3-1.8-3.3-2.1-5.4-1.3-3.5 1.3-5.7 3.5-6.5 6.6-1.2 5-9.3 9.1-17.7 9.2-5.5 0-5.8-.1-6.3-2.8-1.3-6.1-2.8-10.8-4.1-12.7-.8-1.1-1.4-3.6-1.4-5.6 0-2.2-.6-3.9-1.4-4.2-2.2-.8-52.8.1-53.7 1-.4.4-.9 2.1-1.1 3.8-.3 2.6-.8 3.1-4.3 3.6-4.8.8-8-.5-7-2.9 2.3-5.5.9-6.6-10.1-7.7-4-.4-9.7-1.9-13.6-3.6-3.6-1.6-7.2-2.9-8-2.9-.7 0-2.2-.6-3.3-1.4-2.6-1.7-13.2-4.6-21.2-5.7-7.3-1-11.6-3-19.7-9.3-3.2-2.5-6.8-4.6-8-4.6-2.9 0-6.5-2.7-7.6-5.6-.5-1.2-2.3-3-3.9-3.9L646 651l-2.4 4.7c-1.3 2.7-4.2 6.4-6.3 8.5l-3.8 3.6-5.9-2.9c-5-2.5-7.2-2.9-14.8-3-10.2-.2-13 1.1-16.1 7.4L595 673h-10.6c-9.7 0-10.7-.2-12.9-2.4-1.3-1.3-4.2-2.7-6.4-3.1-4.9-.8-10.4-4.7-15.7-11-8.9-10.6-12.1-13.3-16.6-14-6.1-.9-10.8-2.5-10.8-3.6 0-.5-.6-.9-1.4-.9-1.8 0-2.5 4.9-1.9 13.5.4 5 1.5 9 3.9 14 4.1 8.7 5 11.9 6.5 22.2 1.7 11.2.5 15.1-5.9 19.8-2.6 1.9-5.8 4.6-7.1 6s-2.9 2.5-3.7 2.5c-1 0-1.2.9-.7 3.2.7 4 .7 4 4.5 5.3 2.3.7 3.9 2.3 5.6 5.7 1.3 2.6 3.3 5 4.3 5.3 1.1.4 2.8 2.3 3.8 4.3 3.5 6.9 5.2 7.7 16 7.7 7.6 0 10.3-.4 12.9-1.9 2.4-1.4 3.6-1.6 4.4-.8 1.4 1.4-.4 3.8-3.5 4.6-2.7.7-6.2 7.5-5.2 10.5.3 1.1 2.4 4 4.5 6.3 5 5.3 4.6 7.6-2.3 14-5.5 5.1-8.6 6.3-18.2 7.3-3.3.4-7.8 1.5-10 2.5-5.2 2.4-12.8 4.9-18.5 6-8 1.6-15 4-19.7 7.1-2.6 1.6-5.3 2.9-6 2.9s-2 .9-3 1.9-4.4 2.4-7.6 3.1l-5.9 1.2 2.3 2.4c1.2 1.3 3.4 2.4 4.8 2.4 2.9 0 5.8 1.5 4.5 2.2-.5.3-2.5.8-4.5 1.2-2 .3-4.4 1.5-5.4 2.6-1.2 1.3-3.1 2-5.5 2s-5.4 1.1-9 3.4c-3.8 2.4-7.7 3.9-12.5 4.7-3.8.7-7.9 1.8-8.9 2.5-1.8 1.2-1.7 1.3.8 2 1.5.3 6.7.4 11.6.2 7.3-.3 9.3-.8 10.4-2.3 1.4-2 7.3-3.2 19.1-4.1 4.1-.3 10.1-1.7 14.5-3.4 9.9-3.7 15.8-5 22.7-5 3.1 0 9.7-.7 14.7-1.6 14.1-2.4 30.7-5.5 35.2-6.5 11.9-2.6 78.2-4.1 68.9-1.6-4.5 1.3-6.5 3.6-6.5 7.5 0 2.3-1 4.8-2.7 7-4.2 5.6-7.2 14-7.3 20.4 0 7.4 1.2 10.5 6.1 14.9 3 2.8 3.9 4.4 3.9 6.9 0 6.1-6.3 11.7-15 13.5-2.4.4-4.8 2.1-7.6 5.3l-4.1 4.6-11.9.7c-6.5.4-13.3.8-15.1.8-2.9.1-3.4.6-6.6 7.3-4.8 10-6.2 17-4.2 20.8.8 1.6 1.5 4 1.5 5.3 0 2.4-.1 2.4-8.7 2.1-6.8-.3-9.5 0-11.9 1.2-3.9 2.1-9.2 1.2-13.2-2.1-2.5-2.1-3-3.5-3.6-8.7-1.3-12-4.7-31.3-6.1-34.5-1-2.2-2.9-3.8-6.3-5.4-4.8-2.2-4.9-2.4-4-5.1.6-1.6.9-3.1.7-3.3-.2-.1-8.6-1.7-18.7-3.4l-18.3-3-2.4 2.7c-2.1 2.5-2.9 2.7-9.7 2.7h-7.3l-.3 3.5c-.2 2.1-1.4 4.7-3.1 6.5-4.4 4.6-4.9 13.2-1.6 25.5 1.4 5.2 3.2 12 4 15 1 3.7 2.4 6.3 4.5 8.1 2.3 1.9 3 3.4 3 6 0 4.1-3.3 11.7-5.4 12.5-.8.3-1.8 1.4-2.1 2.5-.4 1.1-1 1.7-1.5 1.4-1.5-.9-3.7 3.4-8 16-4.8 13.9-5.5 18.7-7 46-.6 11-1.6 21.6-2.2 23.5-.7 1.9-1.2 7.4-1.3 12.2 0 7.4.3 9 2.3 11.7 2.7 3.7 3 8.2 1.2 16.9-1.2 5.3-1.9 6.6-4.2 7.8-2.1 1.1-2.8 2.2-2.8 4.3 0 4.6 1 6.4 2.6 5 .8-.6 1.4-1.7 1.4-2.4 0-2.2 4.8-7.2 7.4-7.7 3.7-.7 5.6.9 5.6 4.6 0 3-1.2 7.1-5.4 18.3-2.2 6-3 19.3-1.6 29.3.6 4.7 1.5 15.9 2 25 1.1 20.7 2.5 33.3 5.1 43.6 1.5 6.2 1.7 8.8.9 10.8-.5 1.5-1 6.8-1 11.8 0 12.7-1.8 31.4-3.6 36.9-1.2 3.8-1.3 6.1-.4 13.5 3 23.7-1.5 98.5-6.5 108.4-.7 1.4-1.5 4.5-1.9 7-.9 5.7-7.4 28.7-9.1 32-.7 1.4-2.3 3.4-3.5 4.5s-3.5 4.8-5.1 8.3c-2.2 5-3.5 6.5-6.3 7.7-4 1.7-5.2 5.1-4.1 12.1.6 4.2.4 4.5-2.4 6.1-2.4 1.5-3.1 2.6-3.6 6.5-.9 6.6.2 12.8 2.3 12.9 1.4 0 1.4.2.2.6-.8.3-2.8 1.7-4.4 3-2.8 2.3-2.9 2.3-4.2.4-1.9-2.6-3.5-14.5-3.3-24.4.1-4.5-.3-14.5-.9-22.2-.8-10-.8-16.4-.1-22.5 1.6-12.2 2.2-89.8 1-105.5-.9-10.8-1.7-14.5-4.5-21.9l-3.4-8.9-1.5 2.9c-.8 1.6-2.1 6.7-2.7 11.2l-1.2 8.2-2.5-2c-1.4-1.1-3.4-2-4.4-2-4 0-4.9-2.6-4.9-14.1V1277l-3.4-3.7-3.4-3.7-2.1 3.4c-1.4 2.3-2.1 5.2-2.1 8.4 0 5.3 3.4 18.2 5.5 20.6.7.8 1.5 3.7 1.8 6.5 2 16.8 2.4 18.8 8.2 39.5 1.1 3.9 1.4 8.3 1.1 15.5-.8 18.2-2.4 37.3-3.2 38.6-.4.7-.9 4.2-1 7.8s-.6 15.9-1 27.3c-.5 15.6-1 21.1-2 21.9-.8.6-1.4 2.7-1.4 4.7 0 5.1-3 15.2-5.5 18.7-1.7 2.3-2 3.6-1.4 5.8 1 3.8-.9 14.7-3.1 17.2-1 1.1-2.1 3.1-2.5 4.5s-1.4 3.3-2.2 4.2c-1.3 1.5-1.2 1.8.6 2.7 1.1.6 2.6 1.1 3.4 1.1 2.5 0 2.8 3.9.4 6.3-1.2 1.2-2.7 3.8-3.3 5.9-1.1 3.5-1 3.7 1.4 4.3 1.4.3 3.7 1.5 5 2.6 4.1 3.2 10.2 2.6 15.1-1.5 2.5-2.1 5.7-3.7 8.3-4.1 2.4-.4 5.5-1.8 7.1-3.1 2.8-2.3 5.4-2.9 19.2-3.9 4.8-.4 9.2-1.4 11-2.4 1.7-1 4.4-2.1 6-2.5 1.7-.4 4.5-1.5 6.3-2.3 3-1.4 3.4-1.4 5.2.2 2.9 2.6 2.5 4.4-1.5 6.1-2 .8-5.8 3.7-8.5 6.4-2.8 2.8-5.4 5-5.9 5s-1.8 1-2.8 2.2c-1 1.3-3.3 3.1-5.1 4-2.9 1.6-3.5 1.6-7.8.1-3.8-1.3-5.6-1.4-9.8-.5-3 .7-10.8 1-19.3.7l-14.2-.4-1.2 5.4c-1.2 5.3-1.1 5.6 1.1 8 3.8 4 1.7 5-11 5h-10.9l-3.7-4.4c-3.6-4.1-3.8-4.2-5.2-2.5-.8 1.1-2.2 3.8-3.3 6.2-1.5 3.5-4.7 6.2-7.3 6.2-.2 0-.9-2-1.5-4.4-2.1-8.6-1.2-21.3 2.6-32.6 2-6.1 1.9-29.8-.2-40.8-1.7-8.6-2.6-40.4-1.2-41.8.4-.4 2 .2 3.6 1.4l2.8 2.1 1.2-9.9c1.1-9.9.2-23.1-1.9-27-.4-.8-1.3-6.9-2-13.5-.6-6.6-1.8-15.1-2.6-19-1.1-5.4-1.3-11.8-.9-29.4.3-12.3.7-22.7.9-23s.7-11.2 1.1-24.1c.3-12.9.8-29.8 1-37.5.3-7.7.7-20.3 1.1-28s.5-15.8.4-18c-.8-9 .6-35.3 3-54.8.6-5.4 1.1-12.8 1.1-16.5-.1-3.7.3-14.8.8-24.7s1.4-28.1 2-40.5c1.8-37.2 4.5-79.7 7.1-112 .5-6.9 1.4-23.1 2-36 .9-20.6 4.5-60.3 5.6-62.1.2-.3.8-6.8 1.4-14.3.6-8.1 1.7-15.3 2.6-17.4 1.1-2.5 1.9-9.2 2.5-21.2.6-9.6 1.5-20.2 2.3-23.5l1.2-6 1.3 10c.7 5.5 1.6 13.2 2.1 17.1s1.4 8.3 2 9.8c.5 1.5 1 4.9 1 7.5 0 2.7.7 8.8 1.5 13.6.9 4.8 1.3 9.5 1 10.4-.6 2 5.5 9.1 7.7 9.1.8 0 2.1 1.6 2.8 3.6.8 2 2.2 4.1 3.1 4.8 1.1.8 1.8 3.4 2.2 8.9.6 7.1 2.7 14.4 4.5 15.7 1.2.8 4.2 9.3 4.2 11.7 0 1.4-1.1 2.6-3.5 3.7-1.9.9-4 2.7-4.6 3.9-.7 1.2-2.3 3.2-3.6 4.4-1.8 1.7-2.3 3.3-2.4 7-.2 14.4-1.7 27.2-3.8 32.7-1.3 3.4-2.7 10.3-3.2 16-.5 5.6-1.3 12.8-1.8 16.1-1 7.3-.2 26.5 1.2 28.3.7.9 1.1 23.8 1.1 68.6.1 62.6.2 67.4 1.9 69.9 2.1 3.3 2.2 3.3 6.2.2l3.3-2.4 2.6 3.7c1.4 2.1 2.6 5.1 2.7 6.8l.1 2.9 1.6-3.8c1-2 2.4-3.9 3.2-4.2s2.6-3.3 3.9-6.7c2.3-6 2.3-6.6 1.5-23.2-.5-9.4-.8-20.3-.7-24.1.1-3.9.4-21.9.7-40 .3-18.2.7-36.9 1-41.7.4-6.2.1-10.9-1-16-2.8-12.2-3.4-72.4-.9-78.4.8-2 2.7-3.8 5.1-5l3.9-1.9 2.4 5c2.3 4.7 2.5 6.3 3.1 27.5.8 32.4-.3 58.3-2.6 64-1.7 3.9-1.9 7.1-1.8 25.5.5 75.9.5 75.4-1 79.9-1.1 3.1-1.3 6.5-.9 11.2.5 6.5.7 7 3.8 8.6l3.3 1.6.6-10.1c1.4-25.4 4.1-46.8 6.6-51.7 1.2-2.4 1.9-7.1 2.4-14.5 1.6-28.6 1.9-31 3.6-33.5 1-1.4 2.1-3.6 2.5-5 .9-2.7 2.6-13.9 2.4-15.5-.1-.6-.3-15.6-.5-33.5-.1-17.9-.6-37.6-.9-43.9-.7-10.6-.9-11.6-3.3-13.8-2.5-2.3-2.7-3.1-3.4-15.6-.7-13.1-1.7-19.6-3.5-22-.6-.7-2-3.8-3.3-7-1.2-3.1-2.6-5.7-3-5.7-.5 0-1.3-2.3-1.9-5-.6-2.8-2.4-7.6-4-10.8-1.6-3.1-3.4-8.1-4-11-1.4-6.8-2.5-8.9-7-13.3-4.4-4.4-7.7-9.7-8.6-14.1-.4-1.8-2-5.6-3.5-8.5-1.5-2.8-3.1-7.7-3.5-10.9-.4-3.3-1.5-7.5-2.5-9.4-1-2-2.1-5.8-2.5-8.5-.4-2.8-1.8-7-3-9.5s-2.5-6.3-2.9-8.5-1.9-8.5-3.2-14c-2.3-8.8-2.6-12.1-2.5-27.5 0-13.5.3-18.5 1.6-22 .9-2.5 2-9.7 2.5-16 .4-6.3 1.7-15.1 2.8-19.5s2.3-12.5 2.6-18c.5-8.8.4-10.3-1.3-12.9-1.9-2.8-1.9-2.8-3-.7-.7 1.1-1.6 2.1-2.2 2.1s-.5-.9.2-2.3c1.1-2 1.1-2.1-.5-.8-1 .8-1.6 2.5-1.4 4 .2 1.7-.4 3.2-1.9 4.4-2.9 2.4-4.2 9-4.2 22.6-.1 10.2-.3 11.7-2.2 13.7-1.1 1.2-2.5 4.8-3.2 8.2-.9 5-1.5 6.2-3.4 6.7-1.3.3-2.5 1.6-2.9 3-.5 2.2-1.2 2.5-4.9 2.5-4.5 0-7.5 1.9-7.5 4.6 0 1-1.4 1.4-5.4 1.4-4.7 0-5.9.4-8.4 3-2.7 2.7-3.7 3-9.2 3-6.5 0-9.7 1.1-11.8 4.2-1.1 1.5-2.7 1.8-9.6 1.8-7.8 0-8.4.1-11.1 3-2 2.1-3.8 3-6.1 3-4.3 0-8.2 1.8-8.9 4.2-.5 1.4-1.7 1.8-5.9 1.8-5.4 0-7.6 1.2-7.6 4.2 0 1.6-1 1.8-8.3 1.8-7.9 0-8.5.1-11.2 3-2.4 2.5-3.7 3-7.5 3-4.8 0-9 2.1-9 4.6 0 1-1.4 1.4-5.5 1.4-6.2 0-10.2 1.5-11 4.2-.5 1.4-1.7 1.8-5.9 1.8-5.4 0-7.6 1.2-7.6 4.2 0 1.5-.8 1.8-4.4 1.8-6 0-7.6.8-7.6 3.6 0 2.3-.2 2.4-8 2.4-7.4 0-8.2.2-11.3 3-3 2.6-4.2 3-9.6 3-5.5 0-6.3.3-8.8 3-2.4 2.7-3.2 3-8.8 3-5.5 0-6.4.3-9 3-2.8 2.9-3.1 3-12.5 3-9.5 0-9.6 0-11.8 3-2.1 2.8-2.7 3-9 3-6.4 0-7 .2-9 3-1.8 2.4-3 3-5.8 3-3 0-3.7.4-4.7 3-.8 2-1.9 3-3.7 3.2-1.9.2-2.6 1-2.8 3-.3 2.2-.9 2.8-2.8 2.8-3 0-7.4 2.7-7.4 4.6 0 .8-1 1.4-2.3 1.4-2.8 0-4.7 1.7-4.7 4.2 0 1-1 2-2.4 2.4-2.5.6-4.6 4.6-4.6 8.8 0 1.2-.9 2.5-2.2 3.1-2.7 1.2-3.6 4.1-3.7 12.2-.1 4.9-.5 6.4-1.9 7.2-3 1.6-4.1 7.7-4.2 22.4 0 11.8-.3 14.2-1.9 16.5-2.5 3.6-4.1 23.8-4.1 53 0 20.8-.1 22.5-2 25C3.9 978 3 993 3 1041c0 45.5.9 62.7 3.6 66.7 1.2 2 1.8 2.2 2.4 1.2.5-.7.6.4.3 2.7-.4 3.4 0 4.5 3.4 8.6 2.7 3.4 4.5 4.8 6.3 4.8 1.6 0 2.9.8 3.5 2.2 1.5 3.3 6 4 23.6 3.6l15.7-.3 2.2-2.8c1.2-1.5 2.8-2.7 3.6-2.7s1.4-.5 1.4-1.1 1.3-2.7 3-4.6l3-3.4v-17.8c0-16.3.2-17.9 1.9-19.5 2.6-2.3 4.1-9.7 4.1-19.6 0-6.8.2-7.9 1.9-8.5 2.6-.8 3.2-3.2 3.8-17.5.5-10.6.9-12.9 2.7-15.3 1.8-2.5 2.1-4.6 2.5-15.4.2-7.6-.2-14.9-.9-18.4-1-4.6-1-7.1 0-12.2 1-4.8 1-7.5.2-10.6-.7-2.8-.7-5.3-.1-7.4.5-1.8 1.2-17.2 1.6-34.2.4-25.2.8-31.3 2-32.7 2.2-2.5 4.2-8.8 4.3-13.1 0-3 .7-4.4 3-6.4 1.7-1.4 3-3.5 3-4.8 0-1.4.7-2.5 2-2.8 1.1-.3 2.3-1.3 2.7-2.4 1.2-3.3 8.2-9.3 10.8-9.3 1.4 0 3.9-1.3 5.7-3 1.9-1.9 4.1-3 5.9-3s2.9-.5 2.9-1.4c0-1.8 6-4.6 10-4.6 3.8 0 7-1.6 7-3.5 0-.9 1.8-1.6 5.8-2.1 3.6-.4 6.4-1.3 7.5-2.6 2.3-2.4 5.9-3.8 9.8-3.8 1.8 0 3.9-.9 5.5-2.5 1.7-1.7 4-2.6 7.7-3.1 3.4-.5 6-1.5 7.5-2.9 1.7-1.8 4-2.5 9.2-3 4.2-.4 7.3-1.2 7.8-2 1.1-2.1 6.4-4.5 10-4.5q3.3 0 6-2.7c1.9-2 3.9-2.7 7.7-3.1 3.4-.3 5.8-1.2 7.5-2.8 1.5-1.3 4.7-2.8 7.4-3.3 2.9-.5 5.8-1.9 7.5-3.5 2.3-2.2 3.6-2.6 8.3-2.6 4.6 0 6.1-.5 9.3-3 3.1-2.5 4.7-3 9.1-3 4.2 0 5.9-.5 8.4-2.7 2.9-2.4 4.2-2.7 16.8-3.6 17.1-1.2 22.1-1.2 23.4.1.5.5.9 2.7.9 4.8-.9 38-1.7 52.2-3.1 53.9-2.4 2.8-3.1 11.4-3.8 44.5-.7 31.5-.7 31.5-3.2 35l-2.5 3.5-.5 47.5-.5 47.5-2.5 3.5-2.5 3.5-.5 45.1c-.5 41.2-.7 45.2-2.2 46.8-1.5 1.5-1.8 3.8-1.9 14.9 0 7.3-.3 20.4-.7 29.2-.6 16.1-.8 45.5-.4 53 .1 2.2-.2 10.7-.7 19-.5 8.2-.9 29.9-1 48.1-.1 27.5-.3 33.4-1.5 34.3-2.2 1.9-2.5 13.1-3.4 121.2-.7 95.3-.8 98.8-2.6 100.8s-2 4.1-2.2 26.9c-.2 13.6-.7 32.7-1.3 42.5-.9 16.4-1.1 17.9-3.1 19.5-2.1 1.7-2.3 3-3.2 22.7-.5 11.6-.7 24.2-.4 28 .5 6.7.8 7.3 5 11.7 3.5 3.6 4.6 5.7 5.1 9.3.4 2.5.5 5.4.2 6.6-.3 1.3.2 2.8 1.4 4 5.6 5.6 8.6 10.8 9.3 16 .4 3 1.1 6.9 1.7 8.6.9 2.9 1.5 3.3 4.5 3.3 2.1 0 3.4.5 3.4 1.3 0 2.1 5.7 8.3 8.9 9.7 1.7.7 3.1 2.1 3.3 3.3.3 2 .8 2.2 9.1 4.1 1.7.4 2.7 1.3 2.7 2.4 0 1.3-.9 1.7-4.4 1.7-2.4 0-4.8.3-5.2.7-1.3 1.4 1.9 7 5.5 9.4 2 1.3 4.7 4.4 6.1 6.8l2.4 4.5-2 2.8c-1.1 1.5-2.4 2.8-3 3-.5.2-3.3-1.8-6.2-4.3l-5.3-4.7-7 .6c-6.8.6-10.8-.3-13.5-2.8-3.4-3.2-2.6-13.5 1.2-17 3.2-2.9 3-3.5-.8-3.5-5.3 0-7.6 1-8.2 3.6-.4 1.4-1.1 2.2-1.6 1.9-.6-.4-.7.1-.3 1.1s.2 1.5-.3 1.1c-2.4-1.4-.6 6.5 2 9.2 1.5 1.6 2.8 3.5 3 4.4.1.8.7 2.1 1.2 2.8 1.4 1.8 5.1 12.6 5.3 15.5.1 1.3 3.1 1.4 3.1.1 0-.5.7-.4 1.5.3s1.5.9 1.5.5.7-.1 1.7.6c.9.8 1.8 1.3 2 1.1.7-.5 2.3-.2 2.3.5 0 .5-2.3.9-5.1 1-8.3.3-9.5 2.8-6.1 12.6 1 2.8 1.8 7.1 1.7 9.4 0 2.2.3 3.9.7 3.7s.8.8 1 2.3c.4 3.8 2.8 4.2 2.8.4 0-5.3 6.5-7 14-3.7.8.4 3.3 3 5.5 5.7 2.2 2.8 5.6 5.8 7.5 6.9 1.9 1 4.8 3.9 6.4 6.4s3.5 4.6 4.2 4.6 2.2 1.3 3.4 3c1.3 1.9 3.3 3.2 5.6 3.6 2.1.4 4.1 1.6 5.1 3 .9 1.4 2.9 2.6 5 3 2 .4 4.1 1.6 5 3.1.9 1.3 3 3.1 4.7 3.9 6.7 3.2 9.2 4.8 12.1 7.5 1.7 1.5 4.9 3.4 7.1 4.2 2.3.7 7.2 3.4 11 5.9l6.9 4.6 13.5 1.1c7.4.7 16.4 1.8 20 2.7 6.4 1.4 15.4 2.2 50.5 4.4 9.9.6 20.5 1.5 23.5 2.1 13.8 2.5 17.4 3 31.5 3.9 8.3.5 18.8 1.6 23.5 2.4s14.6 1.7 22 2.1c17.5.8 45.3 3.3 51 4.5 2.5.5 12.2 1.6 21.5 2.5 9.4.9 20.2 2 24 2.5 8.6 1.2 27.7 2.7 49.5 4 9.1.5 21 1.6 26.5 2.4 18.1 2.7 27 3.6 35.6 3.7 8.2 0 26.7 1.8 39.9 3.7 3.6.6 15.1 1.5 25.5 2.2 10.5.6 23.3 1.5 28.5 2 17.8 1.8 32.9 3 46.2 3.6 7.3.4 18.7 1.3 25.3 2 6.6.8 22.6 2.1 35.5 3l23.4 1.5 10.6-4.1c11.8-4.7 27.6-9 33-9 6.5 0 26.7-3.9 33.5-6.5 3.7-1.3 9.7-3 13.3-3.6 3.7-.6 12.8-3.1 20.2-5.6 7.4-2.4 18.2-5.3 23.9-6.4 5.8-1.1 11.6-2.6 13-3.3 1.4-.8 4.4-1.6 6.6-2s7.6-1.8 12-3.1c4.4-1.4 12.3-3.6 17.5-4.9 14-3.5 17.9-4.6 24.5-6.7 7-2.3 19.2-5.7 32-8.9 5-1.3 11-2.9 13.5-3.7s8.3-2.5 13-3.7c4.7-1.3 9.9-3 11.5-3.8 1.7-.9 6.1-2.1 10-2.7 3.8-.7 9.6-2.1 12.8-3.2s9.1-2.6 13.2-3.4c4-.7 8.7-2.1 10.3-2.9s5.8-2 9.3-2.5c3.5-.6 8.9-1.8 11.9-2.6 11.8-3.3 25.6-5.8 28.2-5.2 1.5.4 3.1 1.5 3.6 2.5 1.4 2.6-.4 28.6-2.7 38.7-1.1 4.9-2.5 14-3.1 20.1-.5 6.1-1.9 14.7-3.1 19-2.6 10.1-2.9 23.9-.5 26.3 1.5 1.4 8.7 1.7 70.4 2.4 37.8.4 76.5 1 86.1 1.5l17.4.7 2.1 2.8c1.9 2.6 2.1 4.3 2.2 17 .3 51.7.5 61 .9 60.6.2-.3.5-17.1.5-37.4l.1-36.9 2.6-3.4 2.6-3.5 16.1.5c8.9.3 17.1.2 18.3-.3 1.2-.4 31.7-1.3 67.8-1.8 36.1-.6 67.5-1.5 69.8-2.1 2.3-.5 50.6-1.6 107.2-2.4 56.7-.9 109.2-1.8 116.7-2.1 14.8-.7 19.7.2 26.8 4.9 1.9 1.3 8.2 5.1 14 8.4s11.9 7.2 13.6 8.6c1.8 1.4 4.8 3.3 6.7 4.1 2 .8 5.9 2.9 8.9 4.7 2.9 1.7 8 4.6 11.3 6.3 10.7 5.7 16 8.8 18.5 11 1.4 1.2 4 2.7 5.7 3.3 1.8.6 7.7 4 13 7.5 5.4 3.5 11.4 7.2 13.3 8.2 1.9.9 4.4 2.5 5.5 3.4 3.7 3.1 25.3 16.1 35.5 21.3 8.1 4.2 21.8 12.3 23.8 14.1 1 .9 3.3 2.3 5.3 3.1 1.9.8 4.3 2.4 5.3 3.5 1.1 1.2 3.7 2.6 6 3.2 2.2.6 5.2 2 6.6 3 3.5 2.7 18.8 12.7 23.3 15.2 8.7 4.9 15.5 8.6 20.2 11 2.8 1.3 7 4.2 9.5 6.4s5.6 4.4 7 4.8 4.3 1.7 6.5 2.8l3.9 2-5.9 3c-3.9 1.9-9.6 3.6-16.3 4.8-5.7.9-11.1 2.4-12 3.2s-4.4 1.8-7.7 2.1c-8.9 1-16.7 2.7-19.7 4.2-1.4.8-6.9 2.1-12.1 2.9s-10.7 2.1-12.3 2.9-8.1 2.1-14.4 3c-6.3 1-12.5 2.3-13.7 3.1s-5.1 1.9-8.5 2.4c-3.5.5-9.2 1.8-12.8 2.9s-10.8 2.8-16 3.7c-5.2 1-11.1 2.3-13 3s-7.8 2.1-13 3-10.4 2.3-11.6 3c-1.1.7-6.5 2-11.9 3-5.5.9-11.1 2.3-12.6 3.1-1.5.7-7.3 2.1-12.9 2.9s-11.4 2.2-12.9 3c-1.6.8-7.2 2.1-12.5 3-5.3.8-10.7 2.2-11.9 2.9-1.2.8-6.7 2.1-12.3 2.9s-11.5 2.2-13.2 3.1-6.6 2.1-10.9 2.7-9.7 1.9-12 2.9c-2.2 1-8.3 2.3-13.5 3-5.1.7-11.3 2-13.8 3.1-2.5 1-8.7 2.6-13.9 3.4-5.2.9-11.1 2.3-13 3.1-2 .8-7.1 2-11.5 2.5-4.3.5-9.5 1.8-11.5 2.8s-8.6 2.5-14.8 3.4-12.3 2.3-13.7 3.2-6 2.1-10.2 2.6c-4.3.6-10.3 1.8-13.3 2.9-3.1 1-9.9 2.6-15.1 3.5s-10.2 2.2-11 2.9-5.9 1.8-11.3 2.4c-5.7.7-11.4 2-13.7 3.2-2.2 1.1-7.7 2.5-12.3 3.1-4.5.6-10.9 1.9-14.2 2.9s-10 2.6-14.9 3.5-10.2 2.3-11.7 3c-1.5.8-7.8 2.2-14.1 3.1-6.2.9-12.6 2.2-14.3 3-1.6.8-7.1 2.1-12.3 3-5.1.8-11 2.4-13.1 3.5-2.4 1.2-6.7 2.1-12.2 2.5-5.2.4-9.6 1.3-11.5 2.4-3.9 2.2-6.5 2.8-17.7 3.9-5.9.6-9.4 1.4-10.7 2.6-1.1 1-6 2.4-12.2 3.5-5.7 1-11.6 2.5-13.2 3.3-4.1 2.2-6.3.8-7.1-4.6-.6-4.5-.8-12.6-.5-19.2.1-2.2-.1-17.7-.4-34.5s-.5-40.8-.5-53.5c-.1-13.8-.5-22.5-1-22-.5.6-1.1 29.2-1.3 67.2-.3 60-.5 66.4-2 67.9-2.9 2.9-11.9 5.3-25.8 7-7.4.8-16.3 2.2-19.6 2.9-10.9 2.5-27 3.5-74.9 4.9-34 1-58.1 1.2-87 .5-68.3-1.5-109-2.9-124.8-4.3-23.9-2.3-29.9-2.7-51.7-3.6-14.9-.6-22.6-1.4-28.3-2.8-4.3-1.1-12.4-2.3-18-2.7-5.6-.3-19.2-1.7-30.2-3-11-1.4-27.2-2.9-36-3.5s-20.7-1.8-26.5-2.6c-7.4-1.1-13.7-1.4-21.2-1-5.9.4-13.8.2-17.5-.4-3.7-.5-14.3-1.7-23.6-2.5-9.2-.9-17.9-2-19.4-2.6-1.4-.5-10.5-1.8-20.2-2.9s-19.4-2.4-21.6-3c-2.2-.5-8.7-1.4-14.5-2s-15.1-2-20.7-3c-5.6-1.1-17.1-2.6-25.5-3.5-8.4-.8-17.4-2.2-19.9-2.9-2.6-.8-7.3-1.7-10.5-2.1-14.1-1.6-28.5-3.7-31.6-4.6-1.8-.5-9.8-1.6-17.6-2.4-7.9-.8-16.9-2.2-20-3-3.2-.8-11.2-2.1-17.9-2.9-12.9-1.6-13.2-1.7-23.3-4-3.6-.8-12.8-2.2-20.4-3.1-7.7-1-15-2.1-16.2-2.5-1.2-.5-6.9-1.4-12.5-2.1-5.7-.6-13.3-1.8-16.9-2.5-3.6-.8-13.6-2.5-22.3-3.9-8.6-1.3-17.5-2.9-19.8-3.5-2.2-.6-10.5-2-18.4-3-8-1-15.3-2.4-16.4-2.9-1.1-.6-6.9-1.7-13-2.5s-14.6-2.4-18.8-3.5c-4.3-1.1-11.8-2.5-16.8-3.1-4.9-.6-12.1-1.9-16-3-3.8-1-11-2.4-15.9-3s-11.4-2-14.5-3-9.2-2.4-13.6-3-10.1-1.8-12.6-2.6-8.4-2.1-13.2-2.8c-4.8-.8-10.1-2.2-11.8-3-1.8-.9-7.5-2.3-12.8-3.1s-12.1-2.3-15.3-3.4c-3.1-1-9.4-2.7-14-3.6-4.5-1-9.5-2.3-10.9-3.1-1.4-.7-6.1-2-10.5-2.8-10.5-2-22.7-6.4-34.9-12.5-5.5-2.8-10.5-5.1-11.1-5.1s-2.3-1-3.8-2.1c-2.3-1.8-3.1-2-5.2-1-1.7.8-2.5 1.8-2.4 3.4.1 1.2.2 2.9.1 3.7-.2 2.2-5-8-5.1-11-.1-1.4-.4-1.9-.7-1.3-.2.7 0 3.6.6 6.4 1.3 5.9 4.2 10.4 5.8 8.8.8-.8 1.3-.7 1.8.2.6.8.4 1-.6.5-.8-.5-.8-.2.2.6 1.8 1.5 1.4 4.2-.4 3.1-.7-.4-.6.1.2 1 .7.9.9 1.7.3 1.7-.5 0-.9 1.4-.8 3 0 1.7.5 2.9 1.2 2.6.6-.2 1.1.2 1.1 1 0 .7-.4 1.1-.9.8s-.6.7-.4 2.2c.3 1.5 0 3.5-.7 4.3-1.1 1.4-1 1.4.6.2 1.7-1.3 1.8-1.2 2.1 2.1.1.7.4 1.6.9 1.9.4.3.8 2.9 1 5.7.1 2.9.5 5.2 1 5.2.4 0 .7.5.7 1.1 0 .5-.4.8-.8.5-.6-.4-.8 3.8-.2 5.4.1.3.2.9.1 1.5-.1.5.6.1 1.4-.9 1.1-1.5 1.5-1.6 1.5-.5 0 .8-.5 2-1 2.5-.8.8-.5 1.5.7 2.5 1.7 1.3 1.7 1.3.3-.6-1.2-1.7-1.2-1.8 0-.7.8.7 1.6 3.2 1.7 5.5.4 9.4 1.1 16.3 1.9 18.1.5 1.3.4 1.7-.3 1.3-.7-.5-.9 0-.6 1.4.4 1.3.8 1.7 1.3.9s.9-.4 1.3.9c.3 1.4.1 1.9-.6 1.4-.7-.4-.6.1.2 1 .7.9 1.7 1.4 2.2 1.1s.9.1.9.9c0 2.2-4 .9-5-1.7-.5-1.2-.9-1.5-.9-.6-.1.8 1.3 2.8 3 4.6 1.6 1.7 3.1 4.3 3.3 5.8s1.4 3.7 2.7 4.9 2 1.9 1.5 1.4c-2.2-1.7-2.8-.5-.8 1.6 1.2 1.3 2.2 2.7 2.2 3 0 1.5-4.1-1.5-5-3.6-.7-1.9-.9-1.9-.9-.4-.1 1 2.6 4.6 5.9 8 3.2 3.4 5.7 6.3 5.5 6.5-.9.9-3.6-.9-4.5-3q-.9-2.4-.9-.6c-.2 3.6 2.9 5.1 9.9 5 1.7-.1 1.9.1.7.4-1.4.5-1.6.9-.6 2 .6.7 1.6 1.1 2.2.7s.8 0 .5.8c-.6 1.6.6 1.9 7.9 2 3.1 0 4.4.5 4.8 1.8.3 1 1.7 2.3 3.1 2.9 4.1 1.9 5.2 1.3 1.6-.9-1.7-1.2-3.2-2.5-3.2-3 0-1 2.9-.1 5 1.6 2.3 1.9 4.3 2.3 6.3 1.3 1.2-.6 1.7-.5 1.7.7 0 .8.5 1.5 1 1.5.6 0 1-.4 1-1 0-.5.7-.7 1.5-.4.8.4 1.2 1 .9 1.5s.6.9 2 .9 2.6-.4 2.6-.8c0-1.7 5.9 0 6.5 1.9.7 2.2 5.7 4.2 5.4 2.1-.1-.4-.5-.6-.9-.5s-1.6-.7-2.5-1.7c-1.6-1.7-1.6-2-.2-2 .8 0 2.3.8 3.3 1.7 1.9 1.9 8.5 4.3 12.2 4.3 2.3 0 6.5 3.4 5.4 4.4-1 1.1-2.1.6-4.3-1.6-2.1-2.3-2.1-2.3-1-.1 1.4 2.7 2.7 3.2 7.1 2.6 2.7-.4 3.2-.2 2 .6-1.1.8-.3.9 3.1.5 3.9-.5 4.8-.3 6 1.3.8 1.1 2.3 2.5 3.4 3.1 1.7.9 2.1.7 2.1-.8 0-1-.5-1.6-1.2-1.3-.6.2-1.6-.2-2.2-1-1-1.2-.8-1.3 1.4-.9 1.5.3 2.9 1.3 3.1 2.3.3 1 .9 1.6 1.4 1.3s.9 0 .9.6c0 .7.7.9 1.6.6.8-.3 1.2-.2.9.4-.4.6 1.6.8 5.2.5 3.2-.3 5.2-.1 4.5.3-.9.6-.5 1.5 1.5 3.3 1.5 1.3 2.2 1.6 1.4.7-.7-.9-1.1-2.5-.9-3.4.2-1.4.6-1.3 2.3.7l2 2.4-2-1.5c-1.7-1.2-1.8-1.2-.7 0 .7.8 2 1.5 3 1.5.9 0 1.6.5 1.5 1.2-.2.8 1.4 1 5.5.7 3.4-.2 5.2-.1 4.4.5-1.1.6-.7 1.3 1.4 3 2.8 2.2 5.9 2.7 6.9 1.2.3-.5.1-1.2-.5-1.6-.5-.3-1-1.2-1-1.8 0-.7 1 .3 2.1 2 1.9 3 5.9 4.6 5.9 2.4 0-.6 1.2-.6 2.8-.2 1.5.5 3.5.7 4.5.5 1.1-.1 1.6 0 1.3.4-.8.7 3.4 5.2 4.8 5.2.6 0 .3-.5-.6-1.1-2.3-1.3-2.3-3.8 0-3.5.9.2 1.7.9 1.7 1.7s.7 1.4 1.5 1.4 1.8.5 2.2 1.1c.4.7 3.9 1 8.9.9 7.6-.1 8.2 0 9.2 2.2.5 1.3 1.4 2.3 1.8 2.3s1.6.3 2.6.7.6-.4-1.2-2c-2.8-2.4-2.8-2.6-.9-2.7 1.2 0 2.4.7 2.8 1.5.3.8 1.2 1.5 2 1.5s1.6.5 1.8 1.2c.3.8 3.8 1.3 11 1.4 10 .1 10.9.3 13.8 2.8 1.7 1.4 3.9 2.6 4.8 2.5 1.3 0 1.1-.2-.4-.9-2.4-1-3.9-2.8-3-3.7.3-.4 1.5.2 2.5 1.1 1.1 1 2.5 1.5 3.2 1 .8-.5 1-.3.4.6-.6 1-.4 1.2.8.7.8-.3 1.8 0 2 .7.4.9 3.5 1.2 12.1 1 6.4-.1 11.6.2 11.6.7 0 1.4 6.2 4.9 8.5 4.9 1.5-.1 1.2-.4-1.1-1.4-1.8-.8-3.5-1.9-3.8-2.5-1.2-1.9 2.4-1.2 5.1.9 2.9 2.2 4.8 2.6 3.7.7-.4-.6.3-.3 1.5.8 1.9 1.6 3.9 2 11.2 2.1 7.8.2 9.1.5 10.7 2.3 1 1.3 3.3 2.3 5.7 2.6 3.8.5 3.9.5.9-.5-3.8-1.2-6.6-4-4-4 .8 0 3 .9 4.8 2s4.1 2 5.1 2c.9 0 1.7.3 1.7.7 0 .5 4.5.9 10 1.1 9.1.2 10.2.5 12.4 2.7 1.4 1.4 3.2 2.5 4.1 2.5 1.2 0 .8-.7-1.2-2.5-2.2-1.9-2.4-2.4-1-2.5.9 0 1.7.4 1.7 1 0 2.3 6.7 4.4 15.2 4.7 7.7.3 9 .6 11.2 2.8 1.4 1.4 3.2 2.5 4.1 2.5 1.2 0 .8-.7-1.2-2.5-1.5-1.3-2.2-2.5-1.6-2.5.7 0 2.2.9 3.3 2s2.7 2 3.5 2 1.5.3 1.5.8c0 .4 3.8.8 8.4.9 7.6.2 8.6.4 11 2.8 2.2 2.2 3.2 2.5 6.1 1.9 1.9-.3 3.5-.2 3.5.3s4.2 1 9.4 1.1c8.8.1 9.6.3 12.1 2.8 2.2 2.2 3.3 2.5 6.1 2.1 1.9-.3 3.4-.2 3.4.3s3 .8 6.8.7c5.7-.2 7.1.1 9.1 2 2.6 2.4 8.2 4 10 2.8.6-.3 1.1-.2 1.1.4s3.5.9 8.4.9c7.8-.1 8.6.1 11.3 2.6 2.1 2 3.6 2.6 6 2.4 1.7-.2 2.9 0 2.7.4-.3.4 2.4.8 6 .8 5.4 0 7.1.4 9.2 2.3 2.9 2.6 7.4 3.6 16.2 3.6 3.4.1 6.2.5 6.2.9 0 1.9 6.4 4.3 13.2 4.8 6.3.6 7.6 1 8.4 2.8.6 1.5 2.3 2.3 6 3 3.6.6 5.3 1.5 6 3 .5 1.1 2.4 2.4 4.3 2.9 1.8.4 4 1.5 4.8 2.3 2.4 2.4 4.5 3.1 11.1 3.9 3.4.4 6.2 1 6.2 1.5 0 1.9 7.2 3.4 20.8 4.4 11.3.8 15.3 1.5 17.4 2.9 2 1.4 5.7 2.1 14.7 2.7 9.9.7 12.5 1.2 14.9 3 2.7 2 4.7 2.3 18 2.9 11.8.5 15.4 1 16.9 2.3 2.7 2.4 20.4 3.8 57.3 4.5 23.7.4 31.9.9 33 1.9 1.1.9 6.4 1.4 18 1.7 37.8.9 76.5 3 78 4.2 2.4 1.8 16.8 3.4 38.5 4.1 17.2.6 20.4 1 22.5 2.6 3 2.2 16.9 3.7 34.1 3.8 8.6 0 12 .4 12.8 1.4 2.8 3.3 27.5 4.5 95.6 4.5 70.6.1 89.4-.7 93.6-3.8 2.5-1.9 4.3-2.1 17.6-2.2 21.6-.1 41.5-2.2 43.4-4.5.8-1 3.5-1.4 9-1.4 11.5 0 22.9-1.8 26.1-4.1 1.6-1.1 4.5-1.9 7-2 8.1-.1 14.8-1.5 17-3.6 1.9-1.6 4.2-2.2 12.1-2.6 9.6-.6 13.5-1.7 15-4.3.5-.9 2.8-1.4 6.7-1.4 8.4 0 15.8-1.8 17-4.1.9-1.5 2.2-1.9 6.4-1.9 8.4 0 15.9-1.7 17.5-4 1-1.6 2.5-2 6.5-2 9.9-.1 18.7-1.7 21-3.9 1.3-1.2 3.6-2.1 5.3-2.1 6.3 0 13.8-2 15.2-4 .8-1.2 2.5-2 4.2-2 5.3 0 12.9-2.1 13.9-3.9.7-1.4 2.7-1.9 9.1-2.4 5.4-.4 9-1.3 10.7-2.4 4.1-3 4.4-3.1 12.7-4.1 6.3-.8 8.3-1.5 9.4-3.1 1-1.6 2.4-2.1 5.8-2.1 7.8 0 18.7-2.1 21.5-4.1 1.6-1.1 4.4-1.9 7-1.9 9.5-.1 18.2-1.8 19.9-3.9 1.3-1.5 2.9-2.1 6.1-2.1 7.7 0 16.2-1.8 17.9-3.9 1.1-1.4 3.5-2.1 8.9-2.6 5.7-.6 7.8-1.2 9.4-3 1.7-1.8 3.7-2.3 10.1-2.9s8.5-1.2 10.5-3.1 4.1-2.4 10.9-3c6.6-.6 8.8-1.2 10.5-2.9 1.6-1.7 4.2-2.3 12-3.2 8.2-.9 10.3-1.5 11.7-3.3 1.2-1.5 2.9-2.1 5.6-2.1 7.8-.1 16.8-1.9 18.3-3.8 1.2-1.4 3.9-2 11.9-2.9 8.6-.8 10.7-1.4 12.1-3.1s3.3-2.2 10.3-2.8c6.9-.5 9-1.1 10.9-2.9 2-1.8 4.2-2.5 10.3-3 6.3-.6 8.3-1.2 10.2-3.1s3.8-2.5 10.1-3c8-.7 10-1.3 12.7-4 1-1 4-1.8 7.9-2.1 4.8-.4 7-1.1 8.9-2.9 2-1.9 4-2.4 11.3-2.9 6.9-.6 9.7-1.2 12.6-3.1 2.6-1.7 5.9-2.6 11-3.1 5.5-.5 7.7-1.1 9.4-2.8 1.9-1.9 4-2.4 13.8-3.3 9-.8 12.2-1.5 14.5-3.1 2.3-1.7 5.4-2.3 14.6-3.1 9-.7 12.5-1.4 15.3-3.1 2.9-1.7 6.2-2.3 15-2.9 8.8-.7 12.1-1.3 14.9-3 3.3-1.9 5.9-2.3 21-3 15.4-.7 17.7-1 21-3.1 3.1-1.8 6-2.4 15-3 9.2-.5 12-1.1 15-3 2.1-1.2 6.5-2.6 9.8-3.1s7.8-1.1 10-1.4c2.2-.4 5-1.6 6.3-2.7 2.2-2.1 3.3-2.2 24.7-2.2 21.8 0 22.4.1 24.7 2.2 1.4 1.4 3.7 2.3 5.5 2.3 2.5 0 4.9 1.9 14.9 12 9.1 9.1 12.3 13 13.4 16.4.8 2.4 2.3 5.3 3.3 6.4.9 1 2.3 3.8 3 6 1.5 5.2 15.7 20.1 20 20.9 1.5.3 3.3 1.3 4 2.3 1.7 2.4 5.1 4 8.5 4 1.6 0 4 .8 5.3 1.8 4 3.1 5.9 3.5 20.5 4.1 11 .5 14.6 1 16 2.2 3 2.6 18 3.4 70.6 3.4h48.6l3.1-2.2c2.4-1.8 4.3-2.3 9.5-2.3 3.6 0 6.7-.4 7-.9.3-.4 2.8-.6 5.5-.3 4.5.4 5.3.2 7.9-2.4 2.4-2.4 3.5-2.8 7-2.6 2.3.2 4.2-.1 4.2-.5 0-.5 1.8-.8 4.1-.8 3 0 4.6-.6 5.9-2.3 1.2-1.4 2.9-2.2 4.9-2.2 1.7 0 3.1-.4 3.1-.8 0-.5 1.3-.7 2.8-.4 2.2.3 3.2-.2 4.6-2.2 1.1-1.8 2.5-2.6 4.5-2.6 1.5 0 3.1-.3 3.5-.7.3-.4 2.1-.7 3.9-.7 2.3-.1 3.5-.7 4.2-2.3.7-1.7 2.2-2.4 6-3s5.2-1.3 6-3c.7-1.6 2.1-2.4 5.1-2.9 4.9-.7 5.7-1.2 7.3-4.2.6-1.2 2.1-2.2 3.3-2.2 1.1 0 3.4-1.3 5-3 1.5-1.6 3.3-3 3.8-3 2.2 0 19-17.1 19-19.3 0-.7 1.4-2.3 3-3.6 1.8-1.4 3-3.3 3-4.7 0-1.9.5-2.4 2.5-2.4s2.7-.6 3.1-3c.5-2.1 1.2-3 2.6-3 1.2 0 2.3-1.1 2.9-2.9.7-1.9 1.9-3.1 3.2-3.3 1.4-.2 2.3-1.1 2.5-2.6.2-1.3 1.4-2.8 2.7-3.4s2.8-2.4 3.4-3.9c.5-1.6 1.7-2.9 2.5-2.9.9 0 2.2-1.4 3.1-3 .9-1.7 2.2-3 3-3s2.1-1.3 3-3c.9-1.6 2.2-3 3-3 .9 0 2-1.1 2.6-2.4.9-1.9 2.1-2.5 6.8-3 3.9-.5 6.5-1.4 8.5-3.1 1.8-1.6 4.1-2.5 6.2-2.5 4.7 0 8.5-1.7 9.1-4 .4-1.3 1.4-2 3.1-2 3 0 10.2-7.3 10.2-10.3 0-1 1-2.7 2.2-3.6 2.8-2.3 3.6-8.5 3.7-27.7.1-14.5.2-15.1 2.5-17.3 1.3-1.2 2.6-3.9 3-6 .3-2.1 1.7-4.7 3.1-6.1 1.4-1.3 2.5-3.2 2.5-4.3 0-2 12.3-14.9 15.3-16 1.1-.4 2.1-1.6 2.4-2.7.3-1.2 1.4-2 2.6-2s3.4-1.2 5-2.7c1.5-1.6 4.5-3.3 6.5-3.8 2.7-.8 3.8-1.7 4-3.3.3-1.8 1-2.2 3.7-2.2 5 0 8.5-1.6 8.5-4 0-1.7.6-2 5-2 4 0 5.5-.5 8.2-2.9 2.7-2.3 4.5-2.9 9.6-3.3 5-.3 6.7-.9 9-3.1 2.4-2.3 3.6-2.7 9.1-2.7 6.4 0 11.4-1.8 12.4-4.5.5-1.2 2.4-1.5 8.5-1.5 8.9 0 13.8-1.3 15.3-4.1.8-1.6 2.1-1.9 8-1.9 7.3 0 13.6-2 14.6-4.7.4-.9 2.5-1.3 7.2-1.3 7.9 0 13.5-1.4 16.2-4.1 1.5-1.5 3.3-1.9 7.9-1.9 6.3 0 11.3-1.8 12.3-4.5.5-1.2 2.4-1.5 8.5-1.5 8.9 0 13.8-1.3 15.3-4.1.8-1.6 2.1-1.9 8-1.9 7.3 0 13.6-2 14.6-4.7.4-.9 2.5-1.3 7.3-1.3 9.1 0 12.5-.8 15.5-3.6 2.1-1.9 3.7-2.4 8.1-2.4 6 0 12.1-2.1 13-4.5.5-1.1 2.1-1.5 6.3-1.5 5.6 0 12.1-2.7 12.1-5 0-.6 2.6-1 5.9-1 8.2 0 11.7-.9 14.6-3.6 2.1-1.9 3.7-2.4 8.1-2.4 6 0 12.1-2.1 13-4.5.5-1.1 2.1-1.5 6.4-1.5 8 0 11.6-.9 14.4-3.5 1.9-1.7 4-2.4 9-2.7 5.5-.3 6.9-.8 9-3.1 2.3-2.5 3-2.7 11.1-2.7 8.8 0 14.6-1.5 16.1-4.3.7-1.1 3.5-1.6 11.3-1.9 9.8-.4 10.5-.5 12.5-3.1 2-2.5 2.7-2.7 10.1-2.7 6.2 0 8.7-.5 11.3-2 1.7-1.1 3.2-2.4 3.2-3s3-1 7.3-1c8.5 0 14.2-1.4 15.9-3.9 1-1.5 3.1-1.9 10.1-2.3 7.7-.4 9-.8 11.5-3 2.3-2.2 3.8-2.7 10.1-3 6.4-.3 7.6-.7 9.6-3s3-2.6 10.8-2.9c7.7-.4 8.8-.7 11.4-3.2 2.6-2.4 3.7-2.7 9.4-2.7 7.5 0 12.4-1.2 15.3-3.8 1.4-1.3 4.2-2.1 8.5-2.5 5-.4 6.9-1.1 9-3.1 2.2-2.1 3.7-2.6 8.1-2.6 6.4 0 11.8-1.8 12.5-4.1.5-1.4 2.2-1.8 9.5-2.1 8-.3 9.2-.6 11.7-2.9 2.5-2.4 3.7-2.7 12-3.1 8.4-.4 9.5-.7 12.1-3.1 2.5-2.4 3.6-2.7 9.3-2.7 7.8 0 13-1.4 15.4-4 1.4-1.5 3.1-2 6.9-2 6.9 0 12.7-1.7 13.3-3.9.4-1.5 1.9-1.9 9.4-2.3 8-.5 9.3-.9 11.8-3.2 2.2-2.1 3.7-2.6 8.2-2.6 7.9-.1 13.7-1.5 16.3-3.9 1.7-1.6 3.5-2.1 8.2-2.1 7.8-.1 13.1-1.4 15.8-3.9 1.7-1.6 3.5-2.1 7.3-2.1 5.9 0 11.2-1.6 13.3-4 1.1-1.3 3.6-1.9 9.9-2.3 7.2-.5 8.7-.9 11-3.1 2.2-2.1 3.7-2.6 8.2-2.6 7.8-.1 13.7-1.5 16.2-3.7 1.8-1.7 4.2-2.2 12.2-2.6 5.5-.4 11.6-1.1 13.5-1.7 1.9-.5 10-1 18-1 17.7 0 21.7 1.1 23.5 6.3.6 1.9 2.2 4.7 3.3 6.2 1.6 2 2.2 4.2 2.2 7.5 0 3.2.7 5.8 2.3 8.1 1.2 1.9 2.8 4.7 3.5 6.2.7 1.6 2.1 3.1 3.2 3.4 1 .3 2.6 1.6 3.4 2.9 1.9 2.7 7.1 4.4 14.2 4.4 3.6 0 5.4.4 5.7 1.4 1.3 3.3 7.7 3.9 44.2 4.3 41.4.4 45.3.2 49-3.3 2.2-2 3.7-2.5 8.8-2.5 6.3-.1 10.9-1.7 12.4-4.3.4-.8 3.1-1.7 5.8-2 5.1-.7 8-2.9 7-5.4-.2-.7-.1-1.1.4-.7 1.7 1 6.1-1.4 6.1-3.4 0-1.2 1.1-2.5 2.7-3.3 1.8-.8 3-2.4 3.3-4.1.3-1.5 1.7-4 3.3-5.6 1.5-1.6 2.7-4 2.7-5.4 0-1.6.7-2.6 2-3 2.2-.6 4-4.4 4-8.5 0-1.6 1-3.4 2.6-4.7 2.3-1.8 2.8-3.2 3.3-9.2.5-5.9 1.1-7.5 3.1-9.1s2.5-3 2.8-8.8c.4-5.8.8-7.2 2.8-8.9 1.7-1.4 2.7-3.6 3.3-7.1.6-4.1 1.6-5.9 5.4-9.8 3.2-3.2 5.8-4.9 8.1-5.3 1.8-.3 4.5-1.6 5.9-2.9 2.4-2.2 3.8-2.4 20.9-3.5 16.9-1 21.4-1.8 22.8-4 .4-.5 3.7-.9 7.5-1 9-.2 11.7-1 13.2-3.9.9-1.9 2.1-2.5 4.8-2.6s4.4-.9 6.6-3.3c1.9-2.1 3.6-3.1 4.8-2.8s2.4-.6 3.7-2.4c1.9-2.9 3.4-3.7 3.4-2 0 .6-1 1.7-2.2 2.6-2.1 1.5-2.1 1.6-.3 1.3 1.1-.2 2.4-1.3 2.9-2.4.5-1.2 2.5-2.9 4.3-3.9s3.3-2.4 3.3-3.2c0-.7.7-1.3 1.5-1.3 2.4 0 1.8 1.9-1 3.2-3 1.4-3.3 2.8-.4 2.1 1.2-.3 3-2.1 4.1-3.9 1.1-1.9 2.4-3.4 3-3.4.5 0 .6.4.3 1-.3.5.1 1 .9 1 .9 0 1.5-.5 1.4-1.2-.2-.7.2-1.2.7-1.3 2.1-.1 3.6-1.8 3.1-3.2-.5-1.2-.1-1.4 1.9-1.1 1.3.3 2.2.1 1.9-.4s.2-1.6 1.2-2.4c1.1-.9 1.3-1.3.7-.9-.7.3-1.3.1-1.3-.4 0-.6.8-1.1 1.8-1.1s2.4-.6 3-1.2c.7-.7 2-1.3 3-1.3.9 0 2.1-1 2.7-2.3 1.2-2.8 2.5-2.9 1.7 0-.3 1.4-.2 1.9.6 1.4.7-.4 1.2-1.4 1.2-2.2s.5-1.2 1-.9c.6.3 1 0 1-.7 0-.9.3-.9 1 .2 1 1.6 1.3 1 1.3-3.3 0-1 .2-1.6.4-1.3.3.2 2.1-.5 4.1-1.6 3.5-1.9 3.6-1.9 5-.1 1.3 1.7 1.4 1.6.8-.8-.4-1.9-.1-2.9 1-3.3 1-.4 1.3-.2.9.7-.4.6 0 .4.8-.6 1.1-1.4 1.7-1.5 2.3-.6.4.7-.2 2-1.6 3.1-1.7 1.4-1.8 1.8-.6 1.8.8 0 2.3-1.4 3.2-3.1 1.1-2.3 1.2-2.9.2-2.3-.7.4-.9.3-.5-.1 1.2-1.4 3.7-1.5 3.7-.2 0 .7.4.6.9-.2s2.7-1.5 5-1.6c4.3-.1 8.2-2.7 6.2-3.9-.6-.4-1.5.1-1.9 1.1-.7 1.9-3.2 3-3.2 1.4 0-1.4 2.9-3.4 5.3-3.5 1.2 0 2.3-.8 2.3-1.6.1-.8.2-2 .3-2.7.2-1.8 5.7-3.3 7.1-2 .8.9 1.8.4 3.9-2.2 1.9-2.3 3.2-3.1 4.1-2.6q1.35.75.6-.3c-.4-.7-.1-1.2.7-1.2s1.8-.7 2.1-1.6c.4-1 1.4-1.4 2.6-1.1 1.3.3 1.8.1 1.3-.6-.4-.6 0-.8 1-.4 1 .3 1.7.2 1.7-.4s.4-.8.8-.5 2.4-1 4.4-2.8 4.3-3.6 5.2-3.9c.9-.4 1.6-1.1 1.6-1.8 0-.6.7-.8 1.6-.5.8.3 1.2.2.9-.4-.6-.9 2.8-3.2 5.3-3.6.8-.1 1.5-.4 1.5-.6 1.6-3.1 2.8-4.4 4.6-4.6 1.1-.2 2.1-.8 2.1-1.3s.5-.9 1.1-.9c.7 0 2-1 3-2.2 1.1-1.1 1.9-1.8 1.9-1.4 0 .8 4.7-2.1 7.7-4.7 1.2-1 2.6-1.6 3.2-1.2.6.3 1.7.3 2.4-.2.6-.4 1.7-.8 2.2-1 2.9-.6 8.5-3 10.1-4.3 1.6-1.4 1.7-1.3 1 .4-.7 1.9-.6 1.9 1.4.1 1.7-1.6 2-1.6 2-.2 0 .9-1 2.3-2.2 3.1-1.6 1.1-1.8 1.6-.7 1.6 2.1 0 3.9-2 3.9-4.3 0-1.4.5-1.8 2-1.4 1.4.3 2.1-.1 2.7-1.7.4-1.1.6-2.4.5-2.9-.1-.4.3-.7.9-.7s.9.7.5 1.5c-.6 1.8.5 2 2.2.3.9-.9.7-1.4-.6-2.4-.9-.7-1.3-1.6-.9-2 .4-.5 1.2-.2 1.6.5.8 1.3.7-1.5-.3-12.2-.3-2.8-1.3-4.7-3.7-6.8-1.8-1.6-3.6-2.9-4-2.9s-2.1 1.6-3.9 3.6c-2.9 3.4-3.6 3.7-8.5 3.6-6.7 0-7.3-.4-8.1-5-1.3-7.4-3.6-8.9-8.3-5.3-2 1.5-2.3 2.4-1.8 5.4.5 3.5.4 3.7-5.2 7.2-3.6 2.2-7.1 3.5-9.2 3.5-5.4 0-16.1 2-19.4 3.6-3.5 1.6-13.1 3.4-18.6 3.4-5.3 0-6-1.3-3.5-7.3 4.1-10 12.1-17.7 18.5-17.7 1.8 0 5.3-.9 7.9-1.9 5.2-2.1 14-3.4 24.7-3.5l7-.1.3-4.5c.2-2.6-.3-5.2-1-6.2-1.2-1.6-1.7-1.5-7.2 1.1-4.8 2.4-6.4 2.7-8.7 1.9-2-.7-4-.5-7.4.6-6.6 2.3-9.3 2.1-10-.7-1.8-7.2 5.1-11.7 21.4-14.1 13.5-1.9 14.7-2.6 12.5-6.8-1.6-3-1.6-3.1-7.9-2.4-5 .5-6.6.3-7.8-.9-5.1-5-1.1-10.9 8-11.8 3.1-.3 6-1.2 6.4-1.9.5-.7.7-4.2.6-7.8-.1-5.1.4-7.9 2.6-13.2 1.5-3.6 2.7-8.1 2.7-9.8 0-2.4 1.2-4.5 4.7-8.4 2.8-3.1 5.5-7.4 6.6-10.4 2.2-6.4 6.3-10.1 10.5-9.4 3.7.5 4 1.6 4.3 14.2.3 14.4 1.7 18.1 7.2 19.4l2.7.6v-18.1c0-14.7.3-18.3 1.5-19.5 2.1-2.1 2.1-13.7 0-15.4-1.3-1.1-1.5-1-1.4.6.1 1.1.1 3 .1 4.4-.3 4.1-1.9.9-3.8-7.5-.9-4.4-2.4-9.1-3.3-10.5-1.7-2.5-2.1-9.4-3.7-56.5-.4-12.8-1.1-22.6-1.7-23.3-1.3-1.6-1.9-20.6-.7-23.6.4-1.1.4-3.4-.1-5.1-.4-1.6-1-12-1.3-23-.8-30.9-2.6-65.3-3.5-67.8-.5-1.2-.6-4.8-.3-8 .4-4.9.9-6 3.2-7.7l2.8-2 1.1 3.2c.5 1.8 1.2 4.2 1.4 5.3.3 1.1.5-4 .6-11.3.1-10.9-.2-13.4-1.4-13.8-1.3-.5-1.5-5.2-1.5-33.3-.1-38.6-1-52.3-4-56.3-1.8-2.5-2-4.2-2-20.5-.1-26.7-1.4-42-3.9-45.4-1.9-2.6-2.1-4.2-2.2-28.6-.1-31.6-1.9-54.2-4.5-56.4-1-.8-1.4-3.8-1.4-10.3 0-14.8-1.7-27.7-4-30.8-1.8-2.4-2-4.4-2.1-16.5 0-19.7-1.1-28.9-3.8-31.7-1.9-2-2.1-3.4-2.1-14.9 0-15.5-1.2-22-4.6-24.2-1.3-.8-2.4-2.4-2.4-3.5 0-2.4-3.1-3.8-8.8-4.1-3.3-.2-3.8-.6-3.4-2.2.7-2.9-1.5-3.7-10.7-3.7-7.8 0-8.7-.2-11.2-2.6-2.9-2.8-5.7-3.3-19.1-3.4-6.1 0-6.8-.2-6.8-2 0-2.8-2.6-3.7-10.5-3.9-3.8-.1-7.1-.5-7.3-1-1.2-3.7-3.1-4.5-11.3-4.9-7.4-.3-8.7-.7-11.6-3.2-3-2.7-3.8-2.9-11.9-2.8-8.4 0-8.7-.1-11.9-3.2-2.4-2.3-4-3.1-5.4-2.7-1.6.4-2.1 0-2.1-1.3 0-1.1-1-2.6-2.2-3.4-3-2.1-3.5-1.3-.8 1.4 2.4 2.4 2 4.1-.5 2-.9-.7-1.8-1-2.2-.6-.3.3-.2.6.3.6s1.1 1.5 1.2 3.2c.2 1.8.6 3.6 1 4 1.5 1.5 15.1 6 21.9 7.3 3.9.8 8.5 2.1 10.1 2.9s6.9 2.4 11.8 3.5c4.9 1 10.9 2.6 13.4 3.4s8.1 2.4 12.5 3.5c4.4 1 12.1 3 17 4.4 5 1.4 14.4 4 21 5.7 11.8 3.2 18.5 6.4 20.3 9.8.5 1 1 6 1.1 11.1s.9 12.7 1.7 16.9c1.6 8.8 1.8 20.6.4 23.4-1 1.8-1.3 1.8-3.2.5-2.3-1.6-5.6-6.7-8.7-13.2-1.1-2.3-2.4-4.3-3-4.5s-1.5-2.4-1.9-4.9l-.8-4.5-4.2.3c-3.5.3-4.9-.2-8.8-3.2-3-2.3-5.8-3.6-7.7-3.6-1.7 0-4.9-.8-7.1-1.9-12.3-5.5-33.5-8.8-38.9-6-1.1.7-5.8 1.2-10.4 1.3-4.5 0-8.3.4-8.3.7 0 .8 5.3 1.9 8.9 1.9 2.2 0 2.8.7 3.9 4 .6 2.2 1.2 4.4 1.2 5s.9 2.3 2 3.8c1.7 2.2 2.1 4.5 2.3 12.9.2 9.5.1 10.3-2.2 12.7-1.4 1.4-2.9 2.6-3.5 2.6s-2.4.7-4.1 1.6c-1.8.9-4.2 1.3-5.9 1-3.3-.7-7.6 1.6-7.6 4 0 2.1 4.1 3.5 6 1.9 3.1-2.5 4.9-2.5 6.7.1 1.5 2.3 1.5 2.6 0 4.1-1.4 1.4-2.2 1.5-5.5.5-2.2-.7-5.1-1.2-6.6-1.2-2.2 0-2.6-.4-2.6-3 0-2.3-.6-3.3-2.5-4-3.4-1.3-4.6-4.7-3-8.5 1.6-3.9.4-7-3.2-8.8-1.6-.8-3.9-3.3-5.1-5.6-2.7-4.8-4.2-5.1-7.6-1.4-2.4 2.6-2.6 2.6-6.8 1.3-2.4-.7-5-2.1-5.9-3.1-1.6-1.8-1.7-1.8-2.3.4-.9 3.9-6.4 5.1-24.1 5.2-17 .2-23.1 1.4-20.4 3.9.8.8 5 2.1 9.3 3.1 6.8 1.5 7.7 1.9 6 2.9-3.6 2.1-63.6.4-61.5-1.7.6-.6 4.6-1.2 8.8-1.3 8.5-.2 22.1-1.8 23-2.8.4-.3.3-.9 0-1.3-.8-.7-28.5-2-33.4-1.5-3.1.3-3.2.5-3.5 5.4-.2 3.3-.8 5.4-1.8 5.9-.8.4-3.5 1.8-6 2.9-10.1 4.8-12.1 6.1-12.7 9.1-.4 1.9-1.3 3.1-2.7 3.3-18.7 3.6-19 3.6-20.4 1.8-1.1-1.5-.8-2.1 2.5-4.9 4.4-3.7 4.1-3.9-6.7-4.6-4.2-.3-11.2-1.4-15.5-2.5-4.4-1.1-11.6-2.5-15.9-3-5.4-.7-8.4-1.6-9.2-2.7-1-1.4-2.4-1.5-9.7-.9-8 .6-8.7.5-11.8-1.8-5.4-4-9.5-5-12.9-3.3-4.1 2.1-7.7 1.9-12.4-.9-4.5-2.5-11.7-4-18.3-3.7-6 .3-8.8-2.7-9.7-10.3-.4-3.2-1.4-7.2-2.1-9-1.5-3.6-.6-10.3 1.6-11.6 2.7-1.7 9-2 11.7-.6 1.8.9 3.3 1.1 4.3.5 2.8-1.7 6.7-1 8.7 1.8 1.7 2.3 2.2 2.5 4.9 1.6 2.4-.9 3.5-.7 6 .8 2.6 1.6 3.1 1.7 5 .4l2.1-1.5-2.1-4.1-2-4.1-7.3.6c-7.2.7-7.3.6-9-2.1-1-1.5-1.9-2.9-2-3.1s-1.4.9-2.8 2.3c-3 3-6.5 2.8-10.1-.6-1.2-1-3.6-2.2-5.5-2.5-3.7-.7-7-3-7-4.8 0-.6-.9-2.2-2-3.6-1.2-1.6-2-4.1-2-6.8 0-3.9-.3-4.4-3.4-5.7-2.5-1.1-3.8-2.4-4.6-5-1.1-3.2-1-3.7 1.2-5.4 1.9-1.6 2.3-2.8 2.3-8 0-6.4-1.1-8.6-3.8-7.5-1.4.5-1.7 2-1.7 8 0 6.5-.2 7.4-1.8 7.4-6.1 0-7.8-13.9-2.4-19.2 1.8-1.9 1.8-2-1.3-5.2-1.7-1.9-4-3.6-5.1-3.8-1.2-.2-2-1.3-2.2-3-.4-3.1-3-4.2-13.6-5.7-4.3-.6-8.1-1.9-10.5-3.4-2-1.4-4.9-3.1-6.5-3.9l-2.9-1.5 3.3-1.2c1.8-.6 5.2-1.1 7.6-1.1 4.4 0 9.4-1.7 9.4-3.2 0-.4-.8-.8-1.7-.8-4.4 0-14.6-2.4-15.9-3.8-1.6-1.5-3.9-2.1-17.2-4.2-3.5-.6-7.5-1.6-9-2.4-1.5-.7-5.2-1.6-8.2-2s-8.2-1.8-11.6-3.2c-3.3-1.3-7.4-2.4-9-2.4-4.7 0-14.3-2.6-16.3-4.4-1.3-1.2-4.7-1.8-12.6-2.3-9.3-.5-11.2-.9-13.1-2.8-1.6-1.6-4.3-2.5-10.5-3.3-5.1-.8-9.4-2-11-3.1-1.8-1.4-5.8-2.3-13-3.1-8.2-.9-10.7-1.6-11.9-3.1-1.3-1.7-3.5-2.1-14.5-2.8-12.6-.9-17.7-1.9-18.9-3.9-.3-.6-5.6-1.3-11.8-1.7-9.9-.7-11.4-1-13.5-3.1-2-2-3.4-2.4-8.1-2.4-7.1 0-11.8-1.3-14.8-4.1-2.2-2.1-3-2.2-13.1-1.6-6 .3-9.9.3-8.8 0 2.2-.5 4.5-3 4.5-4.9 0-.8-3.1-1.4-9.7-1.9-13-.8-15.5-1.4-16-3.5-.4-1.4-2.3-1.9-10.6-2.7-8.3-.9-10.4-1.4-11.8-3.1-1.4-1.8-3.4-2.3-13-3.2-9.1-.8-11.7-1.4-13-2.9-1.2-1.4-4.3-2.3-11.8-3.4-6-.9-11-2.2-12-3.1-1.2-1.1-5.3-1.9-12.6-2.5-9-.8-11.1-1.3-12.4-3-1.3-1.6-3.8-2.3-12.9-3.4-6.9-.9-11.9-2-13-3-1-.9-4.8-1.8-9.7-2.2-8.2-.8-14.5-2.6-14.5-4.4 0-.5-2.6-1.2-5.7-1.6-11-1.2-17.8-2.7-19.4-4.1-.9-.8-5.1-1.9-9.5-2.4-5-.6-8.9-1.7-10.6-3-1.9-1.4-6-2.4-14.5-3.4-12.3-1.5-15.3-2.3-15.3-3.6 0-.5-2.6-1.1-5.7-1.5-3.2-.3-9.4-1.7-13.8-3s-11.2-2.9-15.2-3.5c-4-.7-8.9-2-10.9-3.1-2.1-1-7.4-2.3-11.8-3-4.5-.6-10.6-1.9-13.6-2.9s-9.9-2.5-15.3-3.3c-5.3-.8-10.5-2.1-11.5-2.9-.9-.8-6.5-2.2-12.3-3.2-5.8-.9-13.2-2.6-16.3-3.7-3.2-1.1-9.1-2.4-13.2-2.9s-8.7-1.6-10.4-2.5c-1.6-.8-7.3-2.2-12.7-3.1s-11.6-2.4-13.8-3.4-7.3-2.3-11.2-2.9c-4-.6-9.3-1.8-11.7-2.6-2.5-.9-9.5-2.5-15.7-3.6-6.1-1.1-12.1-2.5-13.2-3-1-.6-6.3-1.9-11.6-2.9-5.3-.9-13-2.7-17.1-3.8s-11.1-2.8-15.5-3.7c-15.8-3.2-34.4-7.3-35.2-7.8-.4-.3-6.2-1.5-12.8-2.6-6.6-1.2-14-2.8-16.5-3.5-2.5-.8-6.7-1.7-9.5-2.1-2.7-.3-9.9-1.9-16-3.5-6-1.5-13.2-3.1-16-3.5-2.7-.3-8.4-1.7-12.6-3s-11.4-3.1-16-3.9-9.7-1.9-11.2-2.5-7.3-2-12.9-3.1c-5.6-1.2-10.9-2.5-11.9-3.1-1-.5-6.3-1.6-11.8-2.4-5.4-.8-11.5-2.2-13.4-3-2-.8-8-2.2-13.3-3-5.4-.9-10.5-2-11.5-2.5-.9-.5-5.9-1.7-11.1-2.5-5.1-.9-11.8-2.4-14.8-3.5s-8.6-2.4-12.5-3c-3.8-.6-9.9-1.9-13.5-3-3.6-1-8.7-2.2-11.5-2.5-7-1-17.5-3.4-19.7-4.6-1-.6-6.2-1.7-11.6-2.5-5.3-.7-14.2-2.5-19.7-3.8-11.9-2.9-15.7-3.8-34-7.6-7.7-1.6-15.1-3.4-16.5-4-1.4-.5-6.4-1.7-11.3-2.5-4.8-.8-10.6-2.2-13-3-2.3-.8-7.6-2-11.7-2.6s-10.4-1.9-14-2.9c-3.6-1.1-10.5-2.6-15.3-3.5-4.9-.9-10.8-2.3-13-3.1-2.3-.8-8.4-2.2-13.7-3-5.2-.8-12.9-2.3-17-3.4-16.8-4.2-25.9-6.3-33.5-7.7-4.4-.8-10.7-2.1-14-2.9-6.4-1.5-29.5-6.5-38.5-8.4-20.1-4.1-43.4-9.2-51.5-11.4-3.3-.8-9.3-2-13.3-2.6-4-.5-8.9-1.7-10.9-2.5-2-.9-6.8-2-10.7-2.6s-10.5-2.1-14.6-3.3c-4.1-1.3-10-2.6-13-3s-8.6-1.5-12.5-2.6c-3.8-1-11.3-2.6-16.5-3.5-5.2-.8-11.7-2.2-14.5-3-2.7-.8-9.9-2.3-16-3.5-6-1.1-13.7-2.6-17-3.4s-10-2.1-15-2.9c-4.9-.8-12.8-2.4-17.5-3.5-4.7-1.2-15.5-3.5-24-5.3-8.5-1.7-18.4-4-21.9-5.1-3.6-1-11.5-2.6-17.5-3.4-6.1-.8-12.7-2.1-14.6-2.9-1.9-.7-6.6-1.9-10.5-2.5-3.8-.6-11-2.2-16-3.5-4.9-1.3-12.8-2.9-17.5-3.4-4.7-.6-11.5-2-15.3-3-3.7-1.1-10.2-2.5-14.5-3.1-4.2-.7-9.3-1.8-11.2-2.6-1.9-.7-8.2-2-14-2.8s-12.3-2.2-14.5-2.9c-2.2-.8-8.7-2.2-14.5-3.1s-12.3-2.3-14.5-3.1-8.5-2.1-14-3-13.1-2.4-17-3.5c-3.8-1-10.5-2.4-14.9-3-4.3-.7-10.4-1.8-13.5-2.7-3.1-.8-10.1-2.3-15.6-3.4-5.5-1-12.4-2.5-15.4-3.4-3-.8-8.9-1.9-13-2.5-4.2-.5-9.8-1.6-12.6-2.4-2.7-.8-9.5-2.2-15-3.1s-11.8-2.2-14-3c-2.2-.7-8.5-2.1-14-2.9-9.3-1.5-16.4-3.1-40-8.7-4.9-1.1-13.5-2.9-19-3.9s-11.1-2.2-12.5-2.8c-1.4-.5-7-1.7-12.5-2.7-5.5-.9-11.6-2.3-13.5-3.1-1.9-.9-8.7-2.2-15-3s-13.5-2.1-16-2.9-9.7-2.3-15.9-3.4c-6.3-1.2-14.6-3.2-18.6-4.5-3.9-1.3-10.3-2.7-14.1-3.1s-9.4-1.3-12.4-2-9.8-1.8-15-2.5c-5.1-.7-11.2-1.9-13.5-2.7-2.2-.8-8.7-2.1-14.5-2.9-5.7-.8-13.2-2.3-16.5-3.3s-8.8-2.2-12.2-2.6-6.8-1.3-7.4-2.1c-.7-.8-1.7-5.9-2.3-11.4-.6-5.4-1.4-10.1-1.7-10.5-.4-.3-1.2 1.7-1.9 4.5m-146.5 21.9c.8 2.5 3.7 3.5 8 2.7 2.9-.6 3.7-.2 7.4 3.6 2.3 2.4 5.1 5.9 6.1 7.9l1.9 3.5-3.4 3.7c-1.9 2-4.1 3.7-4.9 3.7-3.7 0-6.9 2.8-11.1 9.8-3.5 5.7-4.5 8.4-4.5 11.7 0 7.5-1.1 10.6-4.3 12.6-1.7 1-3.3 1.7-3.4 1.5-.2-.2-.8-3-1.3-6.2-.8-5-.7-6.3.9-9l1.9-3.2-3-2.9c-2.4-2.5-2.8-3.3-2-5.4 3.4-8.7 5.4-17.4 4.9-21.4-.2-2.5-.1-4.5.3-4.5s1.1-1.1 1.4-2.5c1.8-7.2 3.8-9.4 5.1-5.6m399 131.1c2.8 1 6.9 2.4 9.3 3.1 6.5 1.9 7.2 3.6 7.2 16.2 0 6 .7 16.4 1.6 23.1 1.6 11.9 1.6 12.2-.6 17.8-1.2 3.2-3.8 7.6-5.7 9.8-5.4 5.9-8 5.6-18.9-2.5l-8.8-6.6-3.1-9.7c-2.6-7.9-3.4-12.5-4.4-25.2-2.2-29.9-2.4-29.3 9.7-28.5 4.8.4 11 1.5 13.7 2.5m120 14.6 2 4.2 2.7-3c2.1-2.3 3.3-2.9 5-2.4 1.3.4 7.9 1.3 14.8 2.1 11.9 1.3 28 4.5 32.7 6.5 1.1.5 2.6 2.5 3.3 4.4.6 2 1.3 3.6 1.5 3.6.3 0 2.6-1.4 5.2-3 6.6-4.2 8-4 10.6 2 2.4 5.4 3.2 6 4.2 3.1 1.1-3.6 9.8-5.8 14.8-3.8 3.2 1.4 3.6 2.1 4.7 7.4.7 3.2 1.6 6.9 2 8.3.7 2.3.8 2.2 1.4-1.5.4-2.2 1.4-5.5 2.1-7.3 1.8-3.9 5.1-4.3 8.7-.9 2.2 2 2.7 3.8 3.8 12.8.7 5.7 1.6 11.4 2.1 12.6.7 1.9.4 2.3-2.2 2.8-2 .5-3.8.1-5.6-1-1.8-1.2-3.7-1.5-6.3-1.1-2.1.3-7.6-.1-12.1-1-4.6-.8-9.9-1.5-11.8-1.4-2.4 0-4.2-.7-6.2-2.6-2.6-2.5-3.2-2.6-9.1-2.1-5.3.6-7.2.3-12.1-1.7-4-1.7-7-2.3-9.2-1.9-4.4.7-5.7-1.8-6.5-12.2-.4-6.2-.8-8-2-8s-1.6 1.7-2 7.5c-.5 7.2-2.1 12-4 12-.5 0-1.8-1.2-2.9-2.6-1.7-2.2-2.1-4.1-2.1-10 0-4-.4-7.5-.9-7.9-1.7-1-3.1 3.1-3.1 8.7 0 6.4-1.1 7.8-6.3 7.8-3.6 0-3.9-.2-5.9-5s-3.8-6.5-3.8-3.6c0 .8-1.2 2.9-2.6 4.6l-2.7 3.1-3.4-3.3c-3.9-3.8-4.9-7-5.8-19.1-.5-6.4-.3-9.2.6-10.3 2-2.4 4.2-1.2 6.4 3.2m-516 235.5c2.2.5 7.5 1.1 11.8 1.3 4.4.2 8.4.9 9 1.5 1.9 1.9-2.4 5.3-11.5 8.9-1.9.8-3 2.2-3.7 5-1.4 5-.9 19.8.9 28.4 1.4 6.5 1.5 6.7 4.2 6.1l2.8-.6-.7 8.9c-.8 9.2-.8 15.2.1 23.9.2 2.7.2 3.9-.1 2.5-.7-3.3-2.1-5-4.4-5-3.2 0-4.9 2.8-4.9 8.1 0 5.6-1.3 8.9-3.5 8.9-2 0-3.2 2.6-4.5 10-2.9 16.5-4.4 18.1-9.3 10.2-3.7-6.1-4-7.3-6.8-29.2-.5-4.7-1.7-11.2-2.6-14.5-1.7-6.9-1.9-16.9-.3-23.9.7-3.4.8-5.8 0-8-.5-1.7-1.2-7.5-1.4-13-.4-11.6-1.1-12.6-12.1-17.5-3.8-1.7-6.1-3.1-4.9-3.1s3.9-1.3 6.1-2.9c8.3-6 24.9-8.8 35.8-6M620 695.6c0 2-.6 3.4-1.5 3.8-.9.3-2.6 2.9-3.9 5.7-3.1 6.5-2.1 10.1 3.4 12.9 2.1 1.1 3.9 2.5 4.2 3.2 1 3-.8 8.2-3.4 10.1l-2.8 2.1-2.4-2.3c-1.4-1.3-2.6-3.3-2.8-4.5-.6-4-9.7-3.4-11.6.8-.6 1.3-2 2.7-3.1 3.1-1.1.3-2.3 1.4-2.6 2.4-.8 2.5-7.4 5.5-17.5 8l-8.5 2-2.5-2.4c-1.5-1.4-3.8-2.5-5.2-2.5s-3.5-.8-4.5-1.8c-1.7-1.5-1.9-2.6-1.4-8.2.6-6.2.8-6.6 4.2-8.4l3.6-2 4.4 3.8c4.1 3.5 4.7 3.7 10.4 3.4 5.9-.3 6-.3 6-3.3 0-2.9.2-3 5-3.5 4.4-.4 5-.8 5.3-3 1.4-11 8.9-21.1 17.7-24 4.5-1.4 5.2-1.4 7.2 0 1.5 1 2.2 2.5 2.3 4.6m699.9 1 6.7 1.6-2 2.6c-1.2 1.3-3.2 3.4-4.5 4.6-1.4 1.2-5.4 5.1-9.1 8.8-3.6 3.6-7.8 7-9.3 7.3-2 .5-2.6 1.2-2.2 2.4.8 2.7-2.7 5.2-7.6 5.4-4.2.2-4.4.1-4.7-2.8-.2-1.7-1-4.4-1.8-6.2-.7-1.7-1.4-3.6-1.4-4.2s-1.6-2.8-3.6-4.8c-5.8-6.2-6-7-1.5-7.8 2.2-.4 5.2-1.8 6.8-3.3 2.2-2 4.5-2.9 10.8-3.8 11.5-1.6 15.9-1.6 23.4.2m-87.2 11.4c2.1 1.1 4.5 2 5.3 2 1 0 1.1.3.3.8-1.8 1.1-7.8 10.5-11.9 18.7-3.6 6.9-6.4 9.6-6.4 6 0-2.4-3.2-3.4-6.5-1.9l-3 1.2 2.8 1.1c1.6.6 3.5 1.1 4.3 1.1 1.6 0 1.7.6 1.5 7.5-.1 2.7.3 5.6.8 6.4.6.9.4 2.5-.7 4.8-1.5 3.2-1.5 3.4 1.3 6.3 2.9 3 10.4 6 15.4 6 1.4.1 3.6.6 4.9 1.3l2.3 1.3-3.4 3.1c-3.1 2.8-4.3 3.2-11.8 3.8-9.4.7-21 3.1-25.1 5.1-1.5.8-3.8 1.4-5.1 1.4s-5 .9-8.2 2-6.9 2-8.2 2c-3.3 0-2.9 1.7 1 3.6 1.7.9 4.3 2.5 5.6 3.5 1.4 1.2 4 1.9 6.5 1.9 7.4 0 11.4 1.7 13.5 5.8 1.8 3.6 1.8 3.6-.6 10.2-2.2 5.7-2.4 7.2-1.6 12.3 1 6.3.6 7.1-4.9 9.5-2.2.9-2.8 1.8-2.8 4.4 0 2.1-.9 4.1-2.6 5.9l-2.6 2.7-3.3-3.4c-3.1-3.1-3.9-3.4-9.5-3.4-5.3 0-6.4-.4-9-2.9-1.7-1.5-3-3.8-3-5s-.9-4-2-6.1c-1.9-3.6-2.4-4-5.9-4-4.4 0-16.7 5.9-18.9 9.1-.9 1.3-2.5 1.9-5 1.9-2 0-5.2.9-7 2s-4.6 2-6.3 2c-1.9 0-3.8.9-5.3 2.5-2.2 2.3-3 2.5-11.9 2.5h-9.5l-1.1-3.2c-1.4-4-.1-5.1 5.5-4.3 9.7 1.4 12.7-2.1 6.5-7.3-4.6-3.8-4.5-4.3 1.2-11.4 1.7-2.2 2.7-4.3 2.4-5.2-1.8-4.6-13.9-7.5-25.3-6-7.2.9-13.4 5.3-14.9 10.7-1.2 4.3-9.1 12.8-11.2 12-.7-.3-2.3-2.4-3.5-4.7-3.3-6.6-7.3-9.7-13.4-10.3-4.3-.5-5.9-1.2-8.5-3.9-2.2-2.3-2.8-3.4-1.8-3.4.9 0 2.4-1 3.5-2.1 1-1.2 3.5-3.2 5.4-4.5 1.9-1.2 5.5-4 8-6.2 4-3.5 4.3-4.1 3.1-5.6-.8-.9-4-2.4-7.2-3.3l-5.8-1.6 2.5-3c2.5-2.9 2.5-3.2.8-4.4-1-.7-2.4-1.3-3.2-1.3s-2.9-.9-4.7-2c-4.4-2.7-16.5-2.8-26.3-.1-6.3 1.7-7.8 1.8-10.5.6-2.4-.9-5-1-10.7-.3-7.7 1-20.8.7-22.8-.6-.6-.4-.9-1.3-.6-2.1.4-1 2.7-1.5 7.7-1.7 6.9-.3 7.2-.4 9.4-3.7 3.6-5.3 3.1-6.1-3.6-6.1-4.6 0-7.1.7-11.6 3-6 3.2-11.3 3.8-16.2 1.9-1.5-.6-9.5-1.2-17.8-1.4-9.2-.2-16.2-.8-18-1.5l-3-1.3 5.3-.9c4.9-.7 8.4-2 14.2-5.3 1.4-.7 6.3-1.9 11-2.5s10.3-1.7 12.5-2.5c2.2-.7 8.3-1.8 13.5-2.4 5.2-.7 12-2 15-3.1 6.4-2.2 21.1-5 26.1-5 1.9 0 7.9-1.1 13.4-2.5s12.3-2.5 15.2-2.5c2.8 0 6.4-.5 8-1.1 5.9-2.4 18.5-3.8 37.8-4.4 25.5-.9 26.7-1 52.5-7.7 15.1-3.9 20.8-4.7 38-5.7 9.6-.5 20-1.5 23-2 3-.6 9.3-1.5 14-2s9.9-1.4 11.5-1.9c4.6-1.6 7.2-1.4 11.2.8m252.7 17.1c1.4 1.7 2.6 3.8 2.6 4.8 0 12.6 3.5 46.7 5.9 58.1.6 2.5 1 15.5 1.1 29 .1 32.1 1.6 72.8 3.5 90.4.8 7.8 1.9 24.2 2.5 36.6 1.7 35.9 3 59.6 4 73 .5 6.9 1.4 25.3 2 41 .5 15.7 1.7 37.9 2.5 49.5 2.5 36.4 3.4 58.6 4.5 108 .6 26.4 1.6 54.1 2.1 61.5 1.8 23.7 2.8 39.9 3.9 65 .6 13.5 1.8 32.4 2.6 42s1.9 31.7 2.5 49c1.3 40.7 2.6 72.5 4 92.3.6 8.7.8 17 .4 18.5-.6 2.5-.7 2.5-3.6-2.5-2.9-5.1-3-5.8-4.4-27.5-2.3-34.8-3.6-51-4.6-53.5-1.2-3.2-2.7-31.3-3.4-64.3-.3-15.7-1-32.3-1.5-37-.9-7.7-2.3-33.4-5-94.9-.6-12.3-1.2-22.6-1.5-23-.5-.9-2.2-39.9-3.5-82.1-.5-17.9-1.4-34.5-2-37-.5-2.5-1.6-21.2-2.4-41.5-2.2-52.1-2.5-57.5-4-71-.8-6.6-1.7-19.7-2.1-29-1.3-34.7-3.5-78.6-5-97.5-.9-10.7-2-32.3-2.5-48-1-29-1.9-44-4-68-.7-7.4-1-20-.8-28 .5-18.2 1.2-19.8 6.2-13.9M1284 735.5c0 .8 1.1 2.2 2.5 3.1s2.5 2 2.5 2.4-1.1 1.2-2.5 1.8-2.5 1.6-2.5 2.1 1.6 3.6 3.5 6.9c5.3 8.8 5.9 11.7 3.3 16.3-1.3 2.4-3.3 4.2-5.8 5.2-5.5 2.1-7.4 6.3-6.7 14.8.8 9.6 2.7 13.4 7.9 15.9 2.4 1.1 5.4 2.9 6.7 4 3.1 2.7 6.1 12.6 6.5 22 .2 4.1.9 8.6 1.6 9.9.7 1.4 1.3 6.3 1.4 11.3.1 10.2-.2 10.8-8.8 13.3-5.8 1.7-5.3 2.2-12.1-10.2-2.6-4.6-6.1-9.3-8.1-10.8l-3.5-2.6-3.4 3.4c-2.6 2.6-3.5 4.3-3.5 6.9 0 2.3-.8 4.2-2.3 5.6l-2.3 2.2-1.7-3c-1-1.6-2.1-5.5-2.5-8.7-.8-6.3-1.7-7-9.5-7.2-4.6-.1-6-2.6-2.9-5 1.8-1.4 2.1-2.8 2.2-10.1.1-4.7-.1-10.2-.5-12.3-.8-4.3 1-12 3.2-13.9.8-.6 2.6-3.4 3.9-6 2.5-4.9 3-5.1 6.6-2.1 1.4 1.3 1.7 1.2 2.6-.3 1-1.8-.2-5.9-3.3-11.6-1.4-2.4-1.4-2.7.4-3.3 1.9-.6 14.6-13.8 17.8-18.5.9-1.4 2.9-4 4.5-5.8 2.5-2.9 2.8-4 2.8-10.2 0-4 .4-7 1-7s1 .7 1 1.5m-274.7 69.1c2 .8 4.6 1.4 5.6 1.4 1.1 0 2.1.9 2.5 2.2.9 3.7.7 4.6-1.4 5.3-1.1.3-3.8 2.1-6 4-5.1 4.2-9 5.2-13.1 3.1-1.8-.9-3.8-1.6-4.4-1.6-3 0-3.4-6.6-.5-7.5 1.1-.3 3.4-2.6 5-5.1 3.4-4.8 4-4.9 12.3-1.8m2769.6 36c1.2 1.5 2.1 3.9 2.1 5.4 0 3.2-2.1 4.3-11.5 6-5.1.9-6.7.8-11-.8-4.6-1.6-5-2.1-5.3-5.4-.2-2.9.2-4 2.4-5.7 2.3-1.8 4-2.1 12-2.1 8.8 0 9.4.1 11.3 2.6M581 934.8c0 4.2-1 4.6-4.1 1.6-3.2-3-4.4-2.6-6.4 2.3-1.9 4.5-1.9 8.5.1 16.9 1.7 7.6.8 13.5-2.7 17.2-1 1.1-2.1 3.3-2.5 4.9-.4 1.5-1.3 3.8-2.1 5l-1.4 2.1-2.5-2.5c-2.2-2.1-3-2.4-6.7-1.8-2.3.4-5.1 1.4-6.2 2.1-2.8 2-8.5 1.7-11.9-.5-3.1-2.1-4.9-1.7-8.9 1.8-1 .8-4.2 2.5-7 3.7-6 2.6-7.1 2.1-8.9-3.7-1.4-4.7-2.8-5.1-2.8-.8 0 4.6-2.9 13.8-5.1 16-1 1-2.9 1.9-4.2 1.9-1.5 0-2.8 1.1-4.1 3.5-1 1.9-2.7 3.7-3.7 4-2.9 1-4.1 3.3-4.8 9.3l-.6 5.7-3.7.3c-4.1.3-5.2-1.4-2.4-3.8 2.4-1.9 3.7-7.4 4.5-18.4.6-8.3 1.3-11.5 3.4-15.7l2.7-5.4-2.2-1.5c-6-4.1-6.1-4.3-4.5-8.1.8-2 2.9-4.7 4.7-6.1 3.2-2.5 3.3-2.9 3.5-10.4.3-9.4.7-10.6 4.3-12.1 5.4-2.3 7.3-2.5 9.5-1 4.3 2.8 8.9 7.3 11.8 11.4 2.2 3.1 3.8 4.4 6.4 4.9 3 .5 3.6 1.1 5.1 5.8.9 2.8 3.2 6.8 5 8.9 1.9 2 3.4 4.2 3.4 4.7 0 1.3 3.6 1.3 6.1-.1 2-1 2-1.1-.5-3.4-4.6-4.3-3.2-10.8 4-18 5.8-5.8 6.2-7.3 3.9-12.9-.9-2-1.3-4.1-1-4.6 1.1-1.8 3.5-1.1 4.6 1.3.8 1.8 1.8 2.3 5.1 2.2 5.1 0 6.8-2.1 5.1-6.5l-1.1-3H581zm3298.8 36.9c.7.7 2.5 1.3 4 1.4 3.2.1 7.5 1.7 5.2 1.9-4.2.5-34.9.5-37.3 0-2.6-.5-2.7-.6-1.2-2.7 2-2.9 4-3.2 17-2.5 7.2.3 11.4 1 12.3 1.9m-2814.4 7.2c.3.4 2.3.4 4.5-.2 5.8-1.6 10.5 0 10.9 3.7.2 1.5-.2 4.2-.9 5.8l-1.2 3-1.4-2.7c-.8-1.5-3.3-3.4-5.9-4.6-5.5-2.3-5.8-2.3-7.8-.3-1.3 1.3-2.2 1.4-4.7.5-1.7-.6-3.4-.9-3.8-.7-.4.3-1.2-.4-1.9-1.4-1.3-2.1-.1-3.6 2.2-2.7.7.3 1.9.1 2.7-.4 1.8-1.1 6.6-1.2 7.3 0m1466 99c3.9 4 7.3 4.7 10.7 2.2 2.3-1.7 3.2-1.9 5.9-.9 2.7.9 3.6.7 6.1-1.1l2.9-2.2v8c0 7.1-.2 8-2 8.6-1.1.4-2.9 2.4-4 4.6-1.9 3.6-1.9 4.1-.5 6.9.8 1.6 1.5 3.1 1.5 3.4 0 1.3-3.4 3.6-5.5 3.6-2.7 0-4.6-2.7-6.4-8.9-1.2-4-1.4-4.3-2.4-2.6-.6 1.1-2 2.7-3.1 3.6-1.8 1.5-2.1 1.4-5.3-3.4-3.2-4.7-3.3-5.2-3.3-14.8 0-11.1.7-11.9 5.4-7M505.2 1082c1.1 3.3 3 6.4 5 8 2.8 2.4 3.1 3 2.5 6.4-.6 3.6-3.1 7.6-4.7 7.6-.4 0-1-1.3-1.3-2.8s-1.9-4.1-3.5-5.8c-3.4-3.6-5-12.1-3.2-16.8 1.4-3.9 3.1-2.8 5.2 3.4m3680.3 41.7c.3 2.1.6 6 .7 8.8 0 2.7.5 5.7 1.1 6.6.7 1.2.8 3.3.1 6.6-.8 4.5-1.1 4.8-4.1 5.1-4.4.4-6.3-.8-7.9-5.4-1.4-3.8-1.2-6.5 1.2-18.9.3-1.7 5.6-6.3 7.6-6.4.3-.1.9 1.6 1.3 3.6m-826.3 28.7c1.6 2.9 1.1 7-1.2 11.6-1.9 3.7-2.1 3.8-5.2 2.9-5-1.4-14.9-1.1-18.2.6-2.8 1.5-3.1 1.5-6.3-1.7-1.8-1.8-3.3-4.2-3.3-5.5 0-2.9 4.5-5.3 9.8-5.3 3.9 0 17.8-4.2 19.6-6 1.1-1.1 3.2.3 4.8 3.4m857 26.1c5.9.7 12.2 2.2 14 3.2 1.8.9 3.5 1.8 3.8 1.8 3 .8 5.8 2.8 7.2 5.2 1.5 2.6 1.5 3.3.4 4.9-1.3 1.7-1.8 1.8-8.7.4-7.7-1.5-68.6-2.5-70.6-1.1-.6.3-2.5 3.6-4.3 7.3-1.8 3.8-3.3 6.8-3.4 6.8 0 0-1.6-.4-3.4-.9-4.1-1.2-13-1.3-59.9-.7-35 .4-39.5.7-55 3.1-9.2 1.5-18.2 2.9-19.9 3.1s-4.2 1.3-5.4 2.4c-4.3 3.7-7.4 3.7-28-.1-7-1.2-25.7-1-53.3.6-13.8.8-30.1 1.7-36.2 1.9-19.2.7-39.8 2.6-44.5 4.1-6.3 2-14.6 2.7-20.5 1.7-3.8-.7-4.5-1.1-3-1.6 1.1-.4 5.6-2.1 9.9-3.8 12.7-4.8 22-6.8 31.8-6.8 7.3 0 9.6-.4 13.6-2.4 4.5-2.3 5.9-2.4 31.2-3 53.6-1.3 63.4-1.7 65-2.6.9-.5 4.7-1.2 8.4-1.6 5.9-.6 6.9-.4 8.9 1.4 1.2 1.1 4 2.8 6.2 3.7 5.9 2.4 9.9 1.3 16.3-4.6 7.4-6.8 8.8-7.4 23.7-9.8 10.3-1.7 20-2.3 46.4-3 18.9-.4 35.4-.4 38 .1 2.5.5 8.4.6 13.1.3 4.7-.4 10.5-.2 12.9.3 5.4 1.3 8.2.3 12.5-4.3 2.8-2.9 3.8-3.4 6.2-2.9 1.6.3 6.3-.2 10.4-1.1 17.4-3.9 20.7-4.1 36.2-2m-409.5 46.6c3.5.6 6.3 1.5 6.3 1.9 0 1.6-9.1 3.2-18.1 3-5.2 0-15.7-.1-23.4-.1s-20.1-.5-27.5-1.2l-13.5-1.3 11-.8c6.1-.5 20.2-1.2 31.5-1.6 11.3-.3 22-.7 23.9-.8s6.3.3 9.8.9m-3263.2 8.4c2.8 1.8 6.9 4.2 9.3 5.4 5.5 2.8 6.9 5.7 4.8 9.9-.8 1.6-2.9 4.1-4.6 5.4-1.7 1.2-4.8 3.7-6.8 5.5-5.2 4.3-8.1 4.9-12.9 2.5-4.3-2.2-13.9-4.3-16-3.5-.7.3-1.3 1.3-1.3 2.3 0 2.5-1 5-2.1 5-1.7 0-.9-6.2 1.1-8.7 1.1-1.4 2-4 2-5.7s.7-4.2 1.5-5.6c.7-1.4 2-3.9 2.9-5.7.8-1.7 3.3-5 5.6-7.3 3.7-3.7 4.4-4 7.8-3.4 2 .3 6 2.1 8.7 3.9m494.9 7.4c.9 2.8 1.6 5.4 1.6 6 0 .5-1.8 3.1-4 5.6-3.6 4.1-3.9 4.9-2.8 6.8.7 1.2 1.3 5.4 1.3 9.3.1 6.6-.1 7.3-2.5 8.9-3.8 2.6-11 12-11 14.3 0 1.2-.8 2.3-2 2.7-1.1.3-2 1-2 1.5 0 2-5.9 2-11.3 0l-5.7-2.1v-4.5c0-4 1.1-5.7 2.4-3.5.5.8 4.7.5 7.6-.6.8-.4 1.8-.5 2.3-.5.9.2.9-3 .1-5.2-.3-.9-1.2-1.6-1.8-1.6-.7 0-1.9-1.1-2.6-2.5-1.6-3-2.6-3.2-3.3-.7-.9 3.8-4.3 3.2-9.2-1.7-8.5-8.4-8.8-8.8-8.1-11.6.6-2.4 1-2.6 3.9-1.9 1.8.3 3.3.9 3.5 1.3 1.6 3.9 4.4 6.9 7.2 7.5 9.3 1.8 12.6-.1 13.5-7.9.6-4.4.4-5.9-.9-7.4-.9-1-1.6-2.2-1.6-2.8 0-.5-.9-1.8-2-2.8-3-2.7-1.2-3.8 6.4-3.9 5.9-.2 6.9-.5 9.8-3.3 1.8-1.7 4.4-3.3 5.8-3.6 1.4-.2 2.8-.5 3.1-.6.4 0 1.4 2.1 2.3 4.8m3114.3 150.6c4 1.9 7.8 3.5 8.5 3.5.9 0 1.3 1.5 1.1 5-.1 3.7.3 5.3 1.5 6.1 1.3.7 1.4 1.2.4 1.5-1.5.7-4.2 5.7-4.2 7.9 0 .8.9 1.5 1.9 1.5 1.4 0 1.8.5 1.4 2.1-.3 1.1-1.3 2.3-2.2 2.6s-2.5 1.4-3.6 2.3c-2.4 2-8.6 3.2-10.6 2-1.1-.7-1.1-1.5-.2-4 .6-1.6.7-3 .3-3-.5 0-1-1-1.2-2.2-.3-2-.7-1.8-5.3 2.6-5.1 4.9-15.6 10.6-19.6 10.6-1.4 0-5.7 3.4-11.8 9.4-5.3 5.1-11.6 10.8-14 12.5-7.7 5.5-25.5 23.3-30 30.1-6.1 9.2-31.4 33.7-36.3 35.2s-11.4-.4-16.5-4.6c-2.1-1.8-5.4-3.8-7.3-4.6s-5.3-2.8-7.5-4.4c-4.5-3.4-7.1-5.1-13-7.9-4-2-5.5-3-14-9.7-8.3-6.5-10-7.7-17-11.5-6.7-3.7-9.9-5.7-19.9-12.5-2.4-1.7-4.8-3-5.2-3s-5.1-2.9-10.3-6.4c-5.3-3.5-14.1-8.9-19.6-12.1s-11.7-7-13.8-8.4c-2-1.4-5-3.2-6.5-4s-4.9-2.9-7.7-4.7c-2.7-1.8-7-4.1-9.5-5.2-10.2-4.3-8.5-8.2 4.5-10.7 4.4-.8 22.4-2.1 40-3 17.6-.8 36.1-2.1 41-2.9 11.4-1.9 36.1-3.5 63-4.1 11.6-.3 26.9-1.2 34-2 13.6-1.5 31.8-2.7 67-4.6 11.6-.6 22.8-1.4 25-1.9 7.3-1.4 9.9-1 17.2 2.5m40.1 3.4c1.2.7 1.1 1.4-.2 4-.9 1.7-1.3 3.1-.8 3.1 1.7 0 3.2 5.2 3.2 11.2 0 9.6-4.1 12.7-12.7 9.6-2.5-.9-4.1-.9-6.2-.1-2.2.8-3.4.7-5.5-.6-1.4-.8-2.6-2.3-2.6-3.2 0-1.7 3.9-6.4 5.9-7 1.5-.5 2.2-8.7.9-11.2-.5-.9-1.3-1.7-1.9-1.7-1.1 0-3.9-2.4-3.9-3.4 0-1.4 21.7-2.1 23.8-.7M1457 1418.2c1.9.6 4.2 1.6 5 2.3s3.2 1.8 5.3 2.5c2.8.9 4.3 2.1 5.5 4.6 1.6 3.4 1.6 3.5-1.4 6.3-3.9 3.7-18 8.7-28.4 10-21.5 2.6-27.1 2.3-40.4-2.4-6.7-2.5-7.9-3.3-9.6-6.5-1.8-3.6-1.8-3.7.1-6.9 1-1.7 2.7-3.4 3.7-3.7.9-.4 4.5-2 8-3.6 4.9-2.3 8.4-3.1 16-3.7 11.8-.9 31.4-.3 36.2 1.1m-373 6.7 4.5.7-7 .8c-8.7.9-12.8 2.2-17.3 5.3-3.2 2.1-4.6 2.4-12.2 2.2-4.7-.1-13.7.3-20 .9-17 1.7-18.9 1.6-19.9-1.1-1-2.6.3-3.2 12.1-4.7 4.2-.5 9.4-1.8 11.5-3 3.4-1.8 5.5-2 23.8-1.9 11 0 22 .4 24.5.8m2068.2 34.8 2.2 2.2-4 3.5c-2.1 2-5.5 4.3-7.4 5.3s-6.9 4.4-11.1 7.6c-4.3 3.1-9.7 6.6-12.2 7.7s-5.6 3.3-6.9 4.9-4.1 3.8-6.4 4.9c-2.2 1.1-4.6 2.8-5.3 3.6-.8.9-1.9 1.6-2.7 1.6-.7 0-5.7 3.8-11.1 8.5s-12.4 9.9-15.6 11.7-7.3 4.2-9 5.3c-1.8 1.1-4.8 2.9-6.7 4s-6.2 4.5-9.5 7.6-7.1 5.9-8.5 6.3c-1.4.3-4.8 2.8-7.7 5.5-3.5 3.3-6.4 5.2-8.8 5.7-2 .3-3.9 1.2-4.2 1.9-.5 1.4-9.6 8.5-13.4 10.6-1.2.6-4.2 2.7-6.8 4.7-2.5 1.9-6.9 4.6-9.8 5.9-2.8 1.3-5.8 3.5-6.8 4.9-.9 1.3-3.3 3.2-5.3 4.1-2 1-4.8 2.7-6.2 4-1.4 1.2-6.8 4.5-12 7.3-5.2 2.9-10.6 6.2-12 7.4-2.9 2.6-15.5 11.1-21.1 14.2-2.1 1.2-5.8 3.9-8.3 5.9-3.7 3-5.2 3.6-7.4 3.2-2.5-.5-3.5.1-7.9 5.1-2.7 3.2-7.4 7-10.4 8.6s-6.7 4-8.2 5.3c-1.6 1.2-3.5 2.3-4.4 2.3-.8 0-2.8 1.4-4.5 3.2-1.6 1.8-3.8 3.7-4.8 4.3-8 4.6-27.1 17.2-29.3 19.3-.4.4-2.1 2.8-3.7 5.4-2.2 3.5-3.6 4.8-5.3 4.8-1.3 0-3.4 1.1-4.7 2.5-2.8 3-8.4 3.4-13.3.8-1.8-.9-7.8-6.3-13.5-12-15.5-15.6-29.9-24.5-52.2-32.1-10.4-3.5-10.6-3.5-27-3.4-11.8 0-18 .5-21.7 1.6-2.9.9-7.6 2.3-10.5 3.1-8 2.3-21.3 9.2-29.8 15.4-15.2 11.1-18.6 14-27.9 23.6-10.4 11-16.1 14.4-25 15.2-9.7.8-18.4 4-22.4 8.2-2 2.1-3.9 5.1-4.3 6.7-.3 1.6-1.7 4-3 5.4-1.2 1.4-2.5 4.1-2.9 6.2-.7 3.6-3.7 7.8-5.6 7.8-1.2 0-5.9 10.3-5.9 13.1 0 3.4-2.9 7.9-5 7.9-1.1 0-2 .3-2 .7 0 3.2-2.1 12.8-2.9 13.2-.5.4-2.1 2.6-3.5 5.1-2.6 4.5-2.6 4.5-2.7 1.5-.4-6 .3-9 2.7-11.8 1.3-1.6 2.4-3.7 2.4-4.7s.8-2.6 1.7-3.5c.9-1 2-4.2 2.4-7.2.9-6.3 3.1-10.3 5.9-10.3 2 0 2.3-.9 2-6.5-.1-2.1.9-4.3 3-7 1.7-2.1 3.3-4.9 3.6-6.2.4-1.2 1-2.3 1.4-2.3s2-2.5 3.4-5.7l2.7-5.6-2.8-2.9-2.8-2.8-19.5-.9c-10.7-.6-46-1.3-78.5-1.6-37.8-.4-60.2-1-62.4-1.7-2.1-.6-5.1-.7-8-.2-5.4.9-80.8 1.2-102.9.3-9.5-.4-15.7-1-16.5-1.8s-.8-2.3.3-5.9c2-6.7 2.5-18.5.8-21.4-.7-1.3-1.5-5.2-1.8-8.8l-.5-6.5-4-.8c-15.3-3.1-31.8-1.1-48.7 5.8-1.5.6-1.6 2.5-1.5 15.8.1 8.4-.1 16.4-.6 17.9-1 3.8-6.8 5.5-13.1 3.9-3.9-.9-5.1-.9-7.8.5s-5.9 1.5-26.2.9c-15.6-.5-24.4-.4-27 .3-3.4 1-4.6.8-10.2-1.6-5.8-2.5-11.5-6.9-23.3-18.1-2.5-2.4-6.8-6-9.6-8.1-2.7-2-5.9-4.7-6.9-5.9-1.1-1.1-2.5-2.1-3.3-2.1-.7 0-3.9-2.5-7.1-5.5-3.1-3.1-6.8-6.7-8.2-8s-4.4-3.1-6.7-4c-3.6-1.4-4.3-2.2-4.3-4.4 0-1.4.4-3.2.8-3.8 1.1-1.7 8.7-2.9 26.7-4.3 8.3-.7 19.2-1.8 24.3-2.5 5.1-.8 17.1-1.9 26.5-2.5 9.5-.6 21.3-1.8 26.2-2.5 5-.8 16.2-1.9 25-2.5 15.4-1.1 35.1-3 52-5 4.4-.5 16.8-1.6 27.5-2.5 18.1-1.3 41.4-3.9 46.8-5.1 2.8-.6 6.1-7.3 6.2-12.1 0-4.1-3.7-14.4-5.8-16.1-2.1-1.6-13.8-1.6-24.3.2-4.6.8-16.9 1.9-27.4 2.5-18.4 1.1-46.4 3.8-49.5 4.6-.8.3-13.1 1.2-27.3 2s-30.4 2.2-36 3.1c-5.6.8-21.4 2.2-35.2 2.9-13.7.8-33.1 2.3-42.9 3.4-9.9 1.1-27 2.3-38 2.7-17.2.6-20.7.4-23.9-.9-4.1-1.8-10.2-6.3-15.7-11.8-2.1-2-4.7-4-5.9-4.4-1.3-.4-6.7-4.7-12.2-9.6s-10.4-8.9-10.9-8.9-1.5-.6-2.3-1.4c-1.2-1.2-1.2-2.2-.3-5.1 1.3-4.3 3.5-5 17.8-5.9 5.3-.3 14.1-1.4 19.5-2.5s16.1-2.5 23.8-3.1c16.1-1.2 19.2-1.6 29.6-3.6 4.2-.8 14.1-2.1 22-2.9s17.6-2.1 21.5-2.9 14.9-2.2 24.5-3c9.6-.9 18.9-2 20.8-2.6 1.9-.5 9.8-1.7 17.5-2.6 7.8-.9 18.7-2.4 24.4-3.5 5.7-1 17.4-2.6 26-3.4 8.6-.9 18.2-2.2 21.3-3s14.5-2.1 25.5-3c10.9-.8 26.4-2.2 34.4-3s25.5-2 39-2.5c13.5-.6 29-1.4 34.5-1.9 8.1-.7 10.5-.6 12.9.6 2.7 1.4 3 1.3 5.6-1.2 2.7-2.6 3.6-2.8 16.7-3.6 16-1 35.2-2.6 47.3-3.9 4.7-.4 17.5-1.3 28.5-1.9 11-.7 27.7-1.8 37-2.6 29-2.5 42.4-3.4 59-4 8.8-.3 23.9-1.2 33.5-2 17.9-1.4 39-2.7 72-4.5 10.2-.5 24.1-1.6 31-2.4s23.3-1.9 36.5-2.6c26.1-1.2 39.5-2.2 61-4.4 7.7-.8 22.8-1.7 33.5-2.1 19.9-.7 50.2-2.9 51.8-3.9.4-.2 11.1-1 23.8-1.6 23.6-1.1 60.7-3.7 63.4-4.5.8-.2 11.2-.9 23-1.5s28.7-1.8 37.5-2.6c30-2.7 75.3-5.2 88.7-5 7.6.1 9 .4 11 2.3m-2442.7 5.5c1.6 1 3.8 1.8 4.7 1.8 1.5 0 1.6.3.4 3.2-1.1 2.6-1.1 3.7 0 6.5 1.2 2.9 1.2 4-.3 9.4s-1.8 5.9-2.7 4c-.5-1.3-2.2-2.5-3.9-2.8-3.4-.7-4.7-3.5-4.7-9.8v-4.3l-6.4-.7c-11.4-1.2-28.9 3.4-34.2 9.1-1.7 1.8-4.4 3.6-6 3.9s-4.9 1.1-7.4 1.7c-5.3 1.2-26.6 1.1-43.5-.3-6.6-.5-18.4-1.4-26.2-1.9s-15.4-1.5-17-2.1c-1.5-.6-3.9-1.5-5.2-2l-2.4-1 3.9-3.4c2.6-2.3 4.9-3.4 7-3.5 4.2 0 20.7-3.5 26.2-5.4 8.5-3 16.9-3.8 40.7-3.8 13.2 0 27.2-.4 31-.8 3.9-.4 15.1-.5 25-.2 15 .4 18.5.8 21 2.4m156.1 11.5c3 3.2 3 3.3 1.2 4.9-1.2 1.1-3.1 1.6-5.6 1.4-2-.1-5.6-.2-8-.1-2.5.1-5.8-.7-7.9-1.8l-3.7-1.9 4.3-.7c2.7-.4 5.5-1.8 7.3-3.6 3.8-3.6 7.9-3 12.4 1.8m3070.7-.3c2 1.8 3.3 3.6 3 4-.4.3-3.4.6-6.7.6-8.8 0-18 4.8-21.3 10.9-1.3 2.4-4 5.9-6.2 7.7-2.1 1.9-4.6 5.2-5.5 7.4s-2.3 4.3-3.1 4.7c-2 .7-4 4.7-4.9 9.5-.4 2.1-1.1 3.8-1.5 3.8-.5 0-1.9 2.2-3.2 5-2 4.2-2.6 4.8-3.7 3.6-.9-.9-1.4-3.5-1.3-6.9 0-7.4 6.6-21.4 12.8-27.3 2.4-2.2 4.3-5 4.3-6.1 0-2.4 3.7-6.6 7.7-8.7 1.7-.8 3.8-2.6 4.7-4 3.1-4.8 8.5-7.5 15.2-7.5 5.6-.1 6.4.2 9.7 3.3m-2511.2 6.4c1.1 3.3 1 3.7-1.5 5.9-2 1.7-3.4 2.1-5.4 1.7-3.4-.8-7.2-3.1-7.2-4.5 0-2.6 3.4-7.2 6.3-8.4 3.9-1.6 6-.2 7.8 5.3M630 1502c5.2 0 10.1.4 10.8.9 1.9 1.1-1.9 6.6-11.1 16.1-9.5 9.8-16.3 17.7-18.7 21.7-1.1 1.8-2.4 3.3-3 3.3s-1.9 1.9-2.9 4.2l-1.8 4.3-1.6-3.8c-.9-2-2.3-4-3.1-4.3-2.1-.8-5.4 1.3-7.4 4.5-1 1.6-3.9 4.5-6.6 6.6-4.1 3.1-5.4 3.6-8.1 3.1-1.8-.4-4.5-.2-5.9.4-3.5 1.3-7.1-.4-6-2.8 1.8-4.2 1.6-8.7-.5-10.6s-2.2-1.9-3.6 0c-.8 1-2 3.5-2.6 5.4-2.7 8.3-5.7 9-37.1 9-13.4.1-40.9.5-61.3.9-31.3.8-37.4.7-39.7-.5-1.6-.8-2.8-1.9-2.8-2.4 0-1.6 4.9-9 6-9 .5 0 3.5-2.5 6.7-5.5s6.2-5.5 6.6-5.5c.5 0 3.4-2.4 6.5-5.3s8.1-7.3 11.1-9.7l5.5-4.5 17.3-.1 17.3-.2 4.6-3.8c5.4-4.6 6.8-5.4 15.4-9.1 5.6-2.4 7.7-2.8 14.9-2.6 4.7 0 10.2.7 12.3 1.4 3.1 1 4.3 1 6.6-.1 2.8-1.3 53-3.2 66.2-2.4 3.6.2 10.8.4 16 .4m3030.6 99.5c2 .8 4.5 2.6 5.6 4s2.5 2.5 3.1 2.5c.7 0 3.5 1.7 6.2 3.8 2.8 2 9.3 6.7 14.5 10.4 5.2 3.6 11.3 8.5 13.5 10.7 2.2 2.3 6.3 5.5 9 7.3 2.8 1.8 7.5 5.7 10.5 8.7 3 2.9 7.3 6.5 9.5 7.9s5.3 3.8 7 5.4c5.2 5.1 14 12.3 19.1 15.8 6.2 4.3 18.3 14.1 20.8 16.9 1.1 1.1 2.5 2.1 3.2 2.1s2.3 1.3 3.6 3c1.2 1.6 3 3.2 4 3.6 1.1.3 4.2 2.5 6.9 5 2.7 2.4 7.3 5.9 10.1 7.9 7.2 4.8 17.8 14.2 20.6 18.1l2.2 3.3-9.7 3c-5.4 1.7-14.1 4-19.3 5.2-9.7 2.2-14.5 4.1-21.5 8.4-3.6 2.3-5.1 2.5-16 2.5-10.3 0-13 .4-19 2.6-3.8 1.4-10.6 3.1-15.1 3.9-4.5.7-9.5 2-11.2 2.9s-6.4 2.1-10.4 2.6c-8.6 1.2-14.8 2.8-16.5 4.2-.7.5-4.7 1.4-9 2-4.3.5-10.9 2-14.8 3.3-3.8 1.4-10.9 3.1-15.7 3.8-4.8.8-9.5 2-10.3 2.7-.9.7-5.7 1.9-10.8 2.6s-11.2 2.2-13.7 3.3-8.8 2.5-14 3.2c-5.2.6-10.6 1.7-12 2.4s-6.3 2.1-11 3c-4.7 1-11.2 2.6-14.5 3.6s-9.1 2.3-13 3c-3.8.6-7.8 1.6-8.8 2.1-1.1.5-8 2.3-15.5 3.9-7.6 1.5-16.2 3.5-19.2 4.4-3 .8-6.4 1.5-7.7 1.5-1.2 0-4.4.8-7 1.9-2.6 1-9.2 2.6-14.7 3.5-5.4.9-12.4 2.5-15.5 3.6-3.1 1-9.6 2.6-14.6 3.6-4.9.9-10.3 2.3-12 3-1.6.7-6.8 1.8-11.5 2.4-4.7.7-10.5 2-13 3s-8.1 2.4-12.5 3c-4.4.7-9.8 2.1-12.1 3.1-2.2 1-8 2.3-13 2.9-4.9.7-10.2 1.8-11.9 2.6-1.6.8-8 2.4-14.2 3.4-6.1 1-12.2 2.5-13.5 3.3s-6.1 2-10.8 2.6c-4.7.7-11 2.1-14 3.3-3.4 1.2-8.4 2.1-13.2 2.2-6.4.2-8.2.6-11 2.8-1.9 1.4-5.4 2.8-8.3 3.3-5.9.8-10.1 2.8-11.4 5.4-.7 1.3-2.7 2-6.7 2.5-3.2.4-7.3 1.6-9.1 2.8l-3.4 2-2.8-2.6c-3.3-3.1-5.9-3.3-11.1-.6-2.2 1.1-5.4 2-7.2 2-3.1.1-12.5 2.4-19.3 4.9-1.6.6-7.5 1.7-12.9 2.6-5.5.8-10.5 2-11.2 2.6-.7.5-6 1.8-11.8 2.8-6.2 1.1-11.4 2.5-12.4 3.5-1 .9-3.2 1.6-4.8 1.6-4.3 0-40.9 8.5-46.5 10.8-1.4.5-6.1 1.5-10.5 2.2-4.3.6-10.1 2-12.7 3.1-2.7 1.1-6.3 1.9-8 1.7l-3.2-.4 2.8-1.2c1.5-.6 3.8-2.3 5-3.6 1.3-1.4 8.6-5.7 16.2-9.6 7.7-3.9 14.9-8 16-9 1.2-1.1 3.6-2.5 5.5-3.1 1.9-.7 5.1-2.3 7-3.6 1.9-1.2 4-2.3 4.6-2.3s2.7-1.1 4.7-2.5c2-1.3 7.5-4.4 12.3-7 4.7-2.5 9.8-5.3 11.2-6.3 1.5-1.1 4.3-2.4 6.2-3.1 1.9-.6 5.1-2.2 7-3.5 5.8-3.8 17.1-10.2 24-13.5 3.6-1.7 7.9-3.9 9.6-4.9 1.6-.9 11.4-6.4 21.7-12.2s20.4-11.4 22.4-12.5c2.1-1.1 6.9-3.8 10.8-5.9 18.1-10.1 22.8-12.5 25.8-13.1 1.8-.4 4.8-1.7 6.7-3 9.8-6.4 12.7-8.3 17.9-11.2 3.1-1.8 9.1-5 13.3-7.2 4.2-2.3 11.2-6.1 15.5-8.7 4.3-2.5 11-6.2 14.8-8.1 3.9-1.9 8.4-4.5 10-5.7 1.7-1.3 4.6-2.8 6.5-3.5 1.9-.6 5.1-2.2 7-3.5 7.1-4.6 15.6-9.4 18-10.1 1.4-.4 3.3-1.4 4.3-2.3s4.1-2.8 7-4.2c7-3.6 21.5-12 25.3-14.7 1.6-1.2 5.4-3.2 8.4-4.6 3-1.3 6.9-3.5 8.5-4.9 1.7-1.3 5.1-3.2 7.7-4.2s5-2.2 5.4-2.7c.3-.5 3.6-2.5 7.2-4.5 3.7-1.9 8.7-4.8 11.2-6.4s8.9-5.2 14.2-7.9c5.4-2.7 11-5.8 12.5-6.8 1.6-1.1 4.2-2.5 5.8-3.2 1.7-.7 4.8-2.4 7-3.8 11.8-7.2 21.4-12.7 25-13.9 2.2-.8 4.9-2.3 6-3.4 1.1-1 6.7-4.4 12.5-7.4s12.5-6.6 15-7.9 6.1-2.7 8.1-3.1c2-.3 4.9-1.8 6.3-3.1 1.5-1.4 4.6-3.5 6.9-4.6 2.3-1.2 7.1-4 10.7-6.4 3.6-2.3 8.5-5 10.9-5.9s5.5-2.6 6.8-3.6 4.1-2.4 6.1-3.1c2-.6 4.9-2.2 6.3-3.6 4.6-4.3 13.1-5.5 19.5-2.8M996.8 1821.9c1 .6 1 1-.2 2s-8.5 1.2-32.3.8c-29.9-.4-37-1-34.1-2.8 1.7-1.1 64.9-1.1 66.6 0m1381.6 263.9c1.3.7-1.6 2.2-4.5 2.2-2 0-2.8.6-3.3 2.3-.4 1.6-2.6 3.3-7.1 5.6-3.6 1.9-6.8 3.1-7.1 2.8-1.1-1.1.9-7.7 3.3-10.6 2.4-2.8 2.8-3 10.1-2.9 4.3.1 8.1.3 8.6.6m-1167.3 235.9c6.6 2.9 10.3 6.2 16.9 15.5 3.8 5.4 4.9 10.4 4.9 22.7.1 11.2-1.9 14.9-10.5 19.2l-6.2 3.2-4.4-2.1c-2.4-1.1-5.9-2.3-7.8-2.7-5.2-1.1-6.7-2.1-7.3-5.3-.3-1.7-2.8-5-5.8-7.9-4.5-4.3-5.3-5.7-6-10.3-.5-3-1.7-6.2-2.9-7.5-2.6-2.8-2.7-9.7-.1-13.3 1-1.5 2.1-3.7 2.5-4.9 1.1-3.6 11.3-9.1 17.1-9.2 1.7-.1 6 1.1 9.6 2.6"/><path d="M1771.8 450c-3.2 1.7-3.7 2.5-4.1 6.7-.3 2.7-.5 11.3-.4 19.2l.2 14.4 4.3 1.8 4.4 1.9 3-3c3.4-3.4 4.4-3.2 5.6 1.3.8 3 3.8 4.7 3.6 1.9-.1-.6-.2-2.5-.2-4.1-.2-2.6-.6-3-3.4-3.3-3.2-.3-3.3-.5-4.1-5.8-1-7-.5-8 3.7-8 2.9 0 3.6-.4 4.5-3.1 1.5-4.2 1.4-6.1-.4-12.3-1.2-4.1-2.2-5.5-4.8-6.8-5.2-2.6-7.9-2.8-11.9-.8M1119.4 739.5c-3.1.8-6.3 1.1-8 .6-3.7-1-10.7 3.6-13.3 8.7-1.9 3.7-1.9 3.7.6 8.2 2.3 4.2 2.4 5.1 1.8 15.1-.5 8.6-.3 10.8.9 11.8.8.7 5 1.9 9.3 2.8 7.9 1.7 8 1.7 13.7-.7 5-2 6.2-3.1 9.6-8.4l3.9-6.1-.1-10c-.1-11.9-2-17-7.7-20.9-4.2-3-3.9-2.9-10.7-1.1M1201.5 741.7c-5.3 1.2-12.5 4.7-13 6.4-.5 1.3-1.6 1.9-3.8 1.9-4.6 0-6.1 1.3-5.3 4.4.3 1.4 1.1 2.6 1.6 2.6 3.3 0-2.4 6.2-9.7 10.6-3.5 2.1-4.1 2.9-3.4 4.7 1.2 3.3 5.3 3.8 12.6 1.5 4.9-1.6 6.9-2.8 7.8-4.7 1.2-2.4 1.7-2.6 7.7-2.4 3.6.2 8.8-.2 11.6-.8 4.5-.9 5.2-1.3 6.1-4.2.5-1.8.6-4.1.2-5.2s-.8-3.9-.8-6.2c-.1-3.7-.5-4.5-3.8-6.8-3.8-2.5-4.2-2.6-7.8-1.8M2508.5 1526.1c-1.6.5-10.3.9-19.2.9-12 0-17.1.4-19.7 1.5-1.9.8-6.3 1.5-9.7 1.5-5.1 0-6.6.4-9.1 2.5-1.6 1.4-4.2 2.8-5.6 3.1-7.3 1.5-9 3.6-4.7 5.6 1.8.8 4.6.8 10.7 0 4.6-.7 9.9-1.2 11.9-1.2 1.9 0 6.9-.9 11-1.9 5.3-1.4 12.8-2.1 26.4-2.6 10.5-.3 19.8-.8 20.8-1.1 2-.6 2.4-6.3.5-8.2-1.4-1.4-8.9-1.4-13.3-.1M949.8 391.7c-1 .2-1.8 1.1-1.8 1.8 0 2.4-2.3 3-14.2 3.5-10.5.4-11.9.7-13.2 2.6-1.3 1.8-2.8 2.2-11.6 2.7-7.4.4-11.1 1.1-14 2.6-2.2 1.1-8.3 2.7-13.6 3.5s-10 1.9-10.4 2.5c-.9 1.5-6.7 3.1-11.3 3.1-4.7 0-12.5 1.9-15.2 3.6-1.2.8-5.7 1.9-10 2.5-4.4.6-9.4 2-11.2 3.1-1.9 1.1-6.6 2.3-11.9 2.9-5.6.6-9.9 1.7-12 3-1.8 1.1-6.1 2.4-9.6 3s-8.8 2.1-11.9 3.4c-3 1.4-8.2 2.7-11.5 3.1-4 .4-6.7 1.4-8.4 2.9-2 1.8-4.2 2.4-10.5 2.9-6 .5-8.9 1.3-11.5 3.1-2.1 1.4-6.4 2.8-10.7 3.5-6.3 1-7.2 1.4-7.7 3.6-.7 2.5-1.6 2.8-8.3 2.4-6.6-.3-10.3.8-10.3 3.2 0 1.8.5 1.9 5.8 1.5 11.4-.9 29.7-4.8 35.7-7.6 3.7-1.8 9.4-3.3 15-4 4.9-.7 10.3-2.1 12-3 1.8-1.1 6.1-2.1 11-2.5 4.9-.5 9.2-1.4 11.2-2.6 1.7-1 5.7-2.2 8.9-2.6s7.9-1.7 10.4-3c3.4-1.7 7.7-2.6 15.6-3.4 6-.5 11.1-1.5 11.2-2 .9-2.6 3.8-3.9 10.7-5.1 5.5-.9 7.9-1.7 8.6-3 .8-1.6 2.2-1.9 7.7-1.9 8 0 12.8-1.2 15.4-4 1-1.1 2.6-2 3.6-2.1 9.9-.4 19.5-1.8 20.9-3.1 1-.9 4.4-1.9 7.5-2.2 3.2-.4 8.4-2 11.5-3.6 3.2-1.6 8.9-3.4 12.7-4 6.7-1 9.6-2.1 12.4-4.3.8-.6 3.1-1.2 5.2-1.3s6.4-1 9.7-2c5.1-1.5 5.5-1.8 3.3-2.5-2.7-.8-12.5-.9-15.2-.2M3930.8 865c-3 1.9-2 2.7 3.9 3.3 5.1.5 6.1 1 8.9 4.4 3.1 3.7 3.4 3.8 9.6 3.7 3.8 0 7.9-.8 10.3-1.8 3.9-1.8 3.9-1.8 1.5-2.6-1.4-.5-6.9-2.2-12.2-3.9-11.1-3.5-19.5-4.7-22-3.1M3877.2 907.2c-1.6 1.6-1.5 7.7.2 10.7l1.4 2.5 3-3 2.9-3 .9 3.6c.8 3.3 1.3 3.6 6.8 5l5.8 1.5 2.3-2.7c3.3-3.9 6.8-4.5 10.1-1.9 3.1 2.5 6 2 8.6-1.3 2.7-3.2 2.2-4.4-2.2-5.1-2.2-.4-5.1-1.6-6.5-2.7-2.2-1.7-3.1-1.9-5.1-.9-3.7 1.7-6.9 1.4-14.6-1.4-7.6-2.7-11.8-3.1-13.6-1.3M403.6 1169.9c-2.1 2.4-2.1 13 0 20.2l1.7 5.4 2.3-6.8c3.1-9.2 4-15.3 2.3-17.3-2.4-2.9-4.5-3.5-6.3-1.5M362 1227.4c-1.4 3.7-2 29.6-.7 32.3.6 1.3 1.4 2.3 1.8 2.3.7 0 7.4-2.8 8.8-3.7.2-.1.6-1.7 1-3.5.9-3.9-.3-9.1-2.9-12.7-1-1.4-2.1-4.8-2.5-7.5-.7-5.4-2.4-9.6-3.7-9.6-.5 0-1.3 1.1-1.8 2.4M332.8 1451.1c-.2 3.3.2 5.9 1.1 7.2s1.3 4.4 1.2 9.6c-.2 9.7 1.7 13.9 7.2 15.7 3.6 1.2 3.8 1.2 4.6-.9.5-1.3.3-4.8-.5-8.7-.7-3.6-1.4-7.9-1.4-9.6 0-3.4-1.3-5.3-5.1-7.6-1.5-1-3-3.3-3.7-5.7-1.8-5.8-3-5.8-3.4 0M314 1891.9c0 .6-.8.7-1.7.4-1.3-.5-1.5-.2-1 1.1.4 1 .3 1.5-.3 1.1-.6-.3-1 .1-1 .9 0 .9.5 1.6 1.1 1.6.8 0 .8.4.1 1.2-.6.8-1 8.8-.9 20.3 0 10.4.2 15.7.4 11.7.4-8 2.2-9.9 2.4-2.5.1 4.3.2 4.5.9 1.8l.8-3 .1 2.9.1 3 3.4-3.7c5.7-6.3 6-17.1.7-25.1-1.7-2.6-2.6-5.3-2.6-7.9 0-2.3-.5-4.2-1.2-4.4-.7-.3-1.3 0-1.3.6M1167.5 1924.4c-2.6 1.5-6.3 2.5-10.7 2.9-3.7.3-8.5 1.5-10.6 2.6-2.2 1.1-7.2 2.7-11.1 3.5s-8.5 2.4-10 3.6c-1.6 1.1-3.1 2-3.4 2-.2 0-2.1.7-4.1 1.5l-3.6 1.5 2.5 3.7c1.4 2.1 2.8 5.9 3.1 8.6.6 4.4.8 4.7 2.4 3.2.9-.8 2.4-1.5 3.3-1.5s1.9-.5 2.2-1.1c1.1-1.6 5.3-3 14.4-4.5 5.2-.8 10.6-2.5 14.1-4.3 3.8-2 8-3.3 12.4-3.7 5.5-.6 6.6-1 6.6-2.5 0-1.1.9-2.8 1.9-3.8 3-3 4-5.4 3.4-8.6-1-5.9-6-7.1-12.8-3.1M1284.5 1933.7c-9.1 4-11.6 6.3-15 13.7l-3.3 7.1 1.5 9.5c1.5 9.7 6.2 21 9.9 24.1.9.8 2.5 2.7 3.4 4.2l1.7 2.8 2.2-8.8c1.1-4.8 2.1-10.4 2.1-12.4 0-4.2 1.5-5.9 5.2-5.9 2.1 0 3.2.7 4 2.6 1.1 2.4.9 2.9-1.6 5.1-1.6 1.3-2.7 2.5-2.5 2.7.2.1 5.1 1.7 10.8 3.5 10.3 3.3 10.3 3.3 12.9 1.4 1.4-1.1 3.6-3.7 4.8-5.8 1.2-2.2 2.7-4.1 3.3-4.3s2.6.7 4.4 2.1c1.8 1.3 3.8 2.6 4.6 2.8 1.1.4 1.1.8-.3 2.1-.9.9-1.6 2.6-1.6 3.6 0 1.8.3 1.9 3 .9 2.8-1.1 3-1.4 3-6.7 0-3.8-.6-6.4-2-8.5-1.1-1.7-2-4.5-2-6.3s-.5-4.2-1-5.3c-1-1.7-1.4-1.8-4.3-.5-4.9 2-9.3 1-10.7-2.4-1.4-3.5-2.3-3.8-11.3-4.7-6.8-.6-7.1-.5-9.2 2.2l-2.3 2.7-.4-3.6c-.2-2.3.1-4.1.9-4.8.7-.6 1.3-1.8 1.3-2.8 0-4.2 9.9-5.2 14.1-1.4 1.5 1.4 2.4 1.5 4.1.6 2.3-1 2.2-1.1-.9-2.3-2.1-.8-3.3-2-3.3-3.2 0-4.5-17.9-7.3-25.5-4M1180.5 1963.5c-2.9 1.5-5.9 3.9-7.2 5.9-1.9 3-2 3.6-.8 5.4.9 1.1 2.9 2.1 5 2.4 3.1.4 3.8 0 5.4-2.7 2.1-3.6 7.9-5.7 14.8-5.3 4.5.2 7.5-1.4 5.7-3.2-1.7-1.7-11.6-5-14.9-5-1.6.1-5.2 1.2-8 2.5M1177.2 1981c-6 3.7-6.8 6.4-4.8 16 .3 1.4.8 4.6 1.1 7.2.5 3.7 1 4.8 2.4 4.8 2.8 0 3-.8 1.5-6.3-1.3-4.8-1.3-5.5.6-9.7 1.3-2.8 3.4-5.2 5.6-6.5l3.4-2-3.4-2.7-3.3-2.7zM633.6 2029.7c-1.4 1.5-.4 4.4 1.9 5.5 3 1.4 3.2 2.9.5 5.3-2.9 2.6-2.5 4.2 1.3 5 4.4 1 7.6 4.1 6.9 6.8-1.1 4.6-3.3 6.7-6.1 6-1.4-.3-3-1.1-3.4-1.7-.5-.6-.6 1.6-.2 4.9.3 3.3.6 7.6.5 9.6-.1 3.1.3 3.8 2.4 4.3 3.8.9 5.1-.1 6.5-4.9s2.4-5.4 4.7-3c1 1 3.5 1.5 7.6 1.5h6l-.7-3.8c-.9-5-1.8-5.8-6.6-6.5-2.3-.3-4.6-1-5.1-1.5s-.9-3.7-.9-7.1c0-8.1-2.1-13.1-5.4-13.1-1.7 0-2.9-.8-3.7-2.5-1.2-2.7-5.2-5.8-6.2-4.8M664 2035c.5 1.6 1.2 3.5 1.6 4.1.4.7.7 4.6.5 8.7-.1 6 .3 8.1 2 11.1 1.6 2.8 2 4.6 1.6 8.2-.7 5.3.8 8.8 4.1 10 3.9 1.5 4.6-2 3.3-17.1-.6-7.3-1.6-13.9-2.2-14.6s-.8-2.2-.4-3.4-.1-3.7-1.2-6c-1.7-3.7-2.1-4-6-4-4.1 0-4.2 0-3.3 3M704.2 2037.9l-4.3.6 2.9 1.3c1.7.7 3.5 2.5 4.2 4.1.6 1.6 2.2 3.3 3.6 3.9 1.5.8 2.4 2 2.4 3.5 0 3.1 2 8.7 3 8.7 2 0 3.9 3.3 4.5 8 .4 2.7 1.8 6.6 3.1 8.5 1.9 2.8 2.2 4 1.4 6.1-1.6 4-1.3 4.4 3.3 4.4h4.4l-1.6-6.3c-.8-3.4-2-6.7-2.6-7.2-.7-.6-1.7-3.9-2.3-7.4s-2.2-8-3.6-10c-1.3-2-2.7-5.5-3.1-7.9-.4-2.3-1.2-4.8-1.9-5.5s-1.8-2.2-2.5-3.5c-1.2-2.3-2.5-2.5-10.9-1.3M750.8 2047.6c-.4 3.1 0 4 2.9 6.3 1.8 1.4 3.3 3.2 3.3 3.8 0 .7 1.1 1.5 2.4 1.9 1.6.4 2.9 1.9 3.9 4.6 1.8 4.3 3.5 4.6 5.4.8 1-2 .8-2.6-1.2-4.2-1.3-1-2.7-1.8-3.2-1.8-.6 0-1.6-1.9-2.4-4.3-1.4-4.2-7.1-10.7-9.4-10.7-.7 0-1.5 1.6-1.7 3.6M782.2 2049.3c-1 1.1-.8 1.9.6 3.8 1.6 2 2 5 2.6 18.5.4 9.7.3 17.1-.3 18.7-.9 2.2-.7 2.6 2.1 3.8 2.4 1 3.1 1 3.8 0 1.1-1.9.7-42.8-.5-43.9-1.9-1.8-7.1-2.4-8.3-.9M1345.8 2051c-1.7 1.3-5.8 2.5-12.3 3.4-5.3.8-10.2 1.9-10.9 2.5s-5.6 1.9-10.8 3c-5.3 1.1-10.7 2.6-11.9 3.4-1.3.8-5.7 2-9.7 2.6s-9.8 2-13 3.1c-3.1 1.1-9.1 2.6-13.2 3.4s-9.3 2.4-11.5 3.5c-2.1 1.2-5.8 2.1-8.1 2.1-2.2 0-5.5.5-7.2 1.1-2.8 1-3.1 1.4-2.5 4.1.9 4.5 6 8.7 10.3 8.7 3.8 0 6.1-1.3 7.8-4.5.7-1.3 2.9-2.6 5.6-3.3 6.2-1.5 7.4-1.4 9.3.9 1.4 1.6 3 2 7.7 2 4.8 0 6.8-.6 10.8-3 4.3-2.7 5.7-3 12.6-3 6.7 0 8.3-.3 11.1-2.5 1.9-1.3 5.3-2.7 7.7-3s6.3-.7 8.7-1c2.5-.3 5.4-1.6 7.1-3 2.5-2.1 3.9-2.5 9.6-2.5 6.6 0 6.6 0 8.3-3.5 1.9-3.9 4.2-5.4 6-3.6.6.6 1.9 1.1 2.8 1.1 2.1 0 3.3-5.4 2.3-10.5l-.6-3.5h-6.8c-5.2 0-7.3.5-9.2 2"/><path d="M702.3 2055.2c-1.7 1.8-4 4-5.2 4.8-2 1.5-2 1.6-.3 7.3 1.5 5 2 5.7 3.7 5.2 1.1-.4 3.9-1 6.3-1.4 2.3-.4 4.4-1 4.7-1.3.7-.7-1.3-11.6-2.7-14.5-1.8-3.8-3-3.8-6.5-.1M373.6 2059.8c-.2.4-.5 5.3-.5 10.8-.1 9.5.1 10.2 2.4 12.4 1.4 1.3 2.8 3.9 3.1 5.9.4 2 1.7 5.2 3 7.1 1.2 1.9 2.5 5.7 2.9 8.5.4 2.7 1.1 6.3 1.8 7.9 1 2.9 1.1 2.9 1.9.6 1.7-4.5 2.1-16.9.8-23.2-1.2-6.4-12.3-30.8-14-30.8-.5 0-1.1.4-1.4.8M752.3 2064.2c-1.9 3-5.8 16.6-5.5 19.3.2 2.2 1.3 3.7 3.8 5.4 4.2 2.9 5 2.2 5.9-4.9.3-2.5 1-5.9 1.5-7.5 2-6.4-2.8-16.7-5.7-12.3M1166.5 2065.6c-2.7.7-6 1.4-7.3 1.4s-4.7 1.1-7.6 2.4-7.1 3-9.4 3.6c-4.8 1.5-7.1 5.5-5.6 9.8.8 2.4 1.6 2.8 7.4 3.4 3.6.4 7.7.5 9.2.2 2.4-.5 2.6-.9 2.2-3.3-.6-2.7-.3-2.9 4.2-4 4.2-1.1 5-1 6 .4.9 1.3 2.7 1.5 8.5 1.3 7.7-.3 9.2-1.4 6.3-4.3-1.4-1.3-3-1.6-7.1-1.3-2.9.3-5.3.1-5.3-.4 0-.4 2.2-.8 5-.8 4.5 0 5-.3 5.6-2.5.8-3.3-1.9-7.5-4.9-7.4-1.2 0-4.4.7-7.2 1.5"/></svg>