<svg xmlns="http://www.w3.org/2000/svg" width="2666.667" height="1777.333" viewBox="0 0 2000 1333"><path d="M1049.6.8c.5.4 4.7 2 9.4 3.5 4.7 1.4 11.4 3.6 15 4.7 3.6 1.2 8.8 2.7 11.5 3.4 2.8.7 6.4 2 8 2.8 1.7.9 5 1.9 7.5 2.3s5.4 1.2 6.5 1.8 5.6 2.1 10 3.3 10.5 3.1 13.5 4.3c3 1.1 6.3 2.1 7.2 2.1 1 0 3.7.9 6.1 1.9 2.3 1.1 6.1 2.5 8.5 3.1s5.8 1.9 7.6 2.9 5.2 2.2 7.7 2.6c2.4.4 5.8 1.5 7.4 2.5 1.7 1 6.5 2.5 10.7 3.4 4.2 1 7.8 2.2 8 2.7.2.6 2.4 1.4 4.8 1.9 2.5.6 6.3 1.9 8.5 2.9 2.2 1.1 9.1 3.6 15.3 5.5 6.2 2 13 4.5 15 5.6 3.8 2.1 10.7 2.7 11.6 1.1.8-1.2-1.3-2.7-4.9-3.5-1.6-.4-4.8-1.6-7-2.6s-5.6-2.1-7.6-2.4c-1.9-.4-4.5-1.5-5.7-2.6-1.1-1.1-4.1-2.4-6.6-3-2.5-.5-6.1-1.9-8-2.9-1.8-1.1-5.5-2.3-8-2.6-2.6-.4-5.3-1.3-6-2.1-.8-.7-4.6-2.2-8.6-3.3s-7.7-2.5-8.4-3c-.6-.5-3.8-1.7-7.1-2.6-3.3-1-6.7-2.3-7.5-3s-4-1.8-7.1-2.4c-3.1-.7-7.3-2-9.4-3.1-2-1-6.2-2.2-9.3-2.6-4.1-.5-6.1-1.3-7.4-2.9s-3.1-2.4-7-2.7c-3.9-.4-5.7-1.1-7.2-3-1.9-2.2-2.9-2.5-9.6-2.7-5.8-.1-7.8-.5-8.8-1.8-1.9-2.7-.2-3.2 7.1-2.3 4.7.6 8 1.6 10.5 3.4 3.1 2.1 4.4 2.4 8 1.9 5.4-.7 5.9-1.6 1.7-2.9-2.3-.7-3.2-.7-2.8 0 .4.5-.8 0-2.5-1.3-1.8-1.2-3.6-2-4-1.7-.5.3-2.1-.2-3.6-1-1.6-.7-3.7-1.4-4.7-1.4s-2.1-.5-2.4-1c-.4-.6-1.9-.9-3.3-.7-1.5.3-3.2 0-3.9-.5-1.6-1.3-3.4-.1-2.6 1.7 1.1 3-12.5.9-23.5-3.6-2.8-1.1-24-1.2-22.6-.1M982.2 12.7c-1.9 1-3.1 2.3-3 3.2.5 2.5 12.9 6.1 24.3 7.1 5.7.5 12 1.6 14.1 2.5 2.1.8 7.5 2.2 12.1 3s9.3 1.9 10.4 2.5 5.3 1.8 9.4 2.5c4.1.8 9.2 2.2 11.2 3 2.1.9 7.3 2.3 11.5 3.1s9.2 2.1 11 2.8c1.8.8 6.2 1.9 9.8 2.5 3.6.7 8.4 1.9 10.8 2.7 2.4.9 6.9 2.2 10 2.9s8.2 2.3 11.2 3.4 7.2 2 9.2 2.1c2.1 0 5.5.7 7.5 1.5 2.1.8 7.3 2.1 11.5 2.9s8.7 2.2 10 3 4.1 1.8 6.3 2.2 5.2 1.5 6.7 2.6c1.5 1 5.9 2.5 9.8 3.2 3.8.8 7.6 1.9 8.3 2.5.8.6 4.5 1.7 8.3 2.5s8.7 2.4 10.9 3.6c2.1 1.1 5.3 2 7 2 1.6 0 5.3 1.2 8 2.5 2.8 1.4 6.4 2.5 8 2.5 1.7 0 5.4 1.1 8.3 2.5 3.2 1.5 7.2 2.5 9.8 2.5 4.2 0 4.4-.1 3.4-2-.7-1.4-2.1-2-4.4-2-1.9 0-4.5-.9-6-2.1-1.6-1.3-5.2-2.4-9.4-3-3.7-.5-7.2-1.6-7.8-2.4s-3.5-2-6.5-2.6-7.1-2-9.1-3c-2.1-1.1-6.1-2.4-9-3s-6.9-2-8.8-2.9c-3.6-1.8-8.2-3.3-23.7-7.4-4.5-1.2-8.8-2.8-9.7-3.5-.8-.7-4.8-1.8-8.8-2.4s-7.7-1.6-8.3-2.3c-1.5-1.8-22.2-8.5-30.2-9.9-2.3-.3-5.9-1.5-8-2.6-2-1-4.6-1.9-5.7-1.9-1 0-6-1.3-11-2.9s-11.8-3.6-15.1-4.4-10.7-2.9-16.5-4.6-14.3-3.9-19-5-9.8-2.5-11.5-3.2c-1.6-.6-6.6-1.5-11-1.9-4.4-.5-11.1-1.7-15-2.9-10.2-3-17.3-3.5-21.3-1.4M872.9 19.8c-1.9 1.7-4.8 3.2-6.4 3.4-2.7.3-3 .7-3.3 4-.3 3.1.2 4 2.7 5.9 3.4 2.5 3.7 3.6 2 7.3-.8 1.7-2.7 3-6.1 4.2-2.6.8-5.2 2.4-5.8 3.3-.6 1.2-2.7 2.1-6.2 2.5-2.9.4-6.2 1.5-7.3 2.5s-3.3 2.3-5 2.8c-2.4.7-3.3 1.9-4.6 5.7-.9 2.6-2.1 5.2-2.7 5.8-.7.7-4.7.5-13.7-.7-12.2-1.6-12.7-1.6-14 .2-1 1.4-1.3 6.2-1.2 21 .2 21.2.3 21.5 6.6 23.3 3 .8 3.6.6 9-4.3 7-6.3 8.1-8.2 8.1-15 0-2.9.4-5.9 1-6.7 1.3-2.1 3.1 3.2 2.8 8.3-.2 3.3.3 4.4 2.6 6.4 2.5 2.1 2.7 2.8 2.1 6.1-.3 2-1.3 4.7-2.1 6-.9 1.3-2.2 4.9-3 8s-2.1 6.3-2.8 7.2c-.7.8-1.6 2.7-2 4.2-.3 1.5-1.6 4.3-2.9 6.2-5.6 8.8-6.7 10.9-7.3 13.1-.8 3.2-3 5-4 3.3-.4-.7-1.1-6-1.5-11.8-.6-7.6-1.3-11.6-2.8-14.5-1.2-2.1-2.1-4.5-2.1-5.2s-2.2-3.5-5-6.3c-4-4-6.4-5.4-11.7-7.1-12.3-3.8-33.4-13-32.6-14.2.3-.5-.5-1.9-1.8-3.3-2.5-2.6-6.3-3.1-10.4-1.2-2.1.9-2.5 1.8-2.5 5.5 0 3.9-.5 4.9-5.7 10.3-10.7 11.1-15.3 16.5-17.7 21-1.6 3-3.1 4.6-4.7 4.8-2.1.4-5.6 2.8-11.4 7.9-1.1 1-3.3 2-5 2.3-2.2.4-3.4 1.4-4.4 3.7-1.3 2.9-1.9 3.3-5.2 3.3-3.6 0-3.9.3-4.9 3.7-1.2 4.4-7.4 9.3-11.6 9.3-2 0-2.9-.8-4.2-4-1.9-4.6-2.7-4.8-5.6-1.9-2 2-6.1 5.1-14.6 11.4-2.3 1.6-6.5 5.1-9.3 7.7-2.9 2.6-5.6 4.8-6 4.8-.5 0-2.1 1.2-3.7 2.7-1.5 1.6-4.6 4.1-6.9 5.8-5.6 4.1-17 13-20.3 15.9-1.4 1.3-3.5 2.7-4.6 3-1.1.4-2.7 1.8-3.6 3.1-.9 1.4-2.1 2.5-2.7 2.5-1.5 0-6 3.6-11.4 8.9-4.2 4.1-4.9 6.1-2.2 6.1 1.4 0 8.7 8.3 8.7 9.8 0 1.7 3.2 3.7 5.9 3.7 3.6 0 3.7 2.4.7 9.1-2.8 6.2-4 6.4-7.1 1.6-1.1-1.7-2.5-3.1-3.2-3.2-.6 0-1.6-1.4-2.2-3.1s-2.2-4.4-3.6-6.1c-2.2-2.6-2.5-3.7-2-6.8.7-4.4.3-4.9-4.7-4.3-2.9.4-5.1 1.8-9.7 6.3-3.3 3.3-6.2 6.8-6.6 7.9-.3 1.2-1 2.1-1.5 2.1-1.2 0-2.2 3.3-1.1 3.9.5.4 2.3 2.4 4 4.5 2.4 3 3.1 4.9 3.1 8.2 0 3.7.3 4.3 2.3 4.6 1.8.2 2.2.9 2.2 4 0 4.8-1.6 5.3-3.4 1-.8-1.7-2-3.2-2.6-3.2s-2.3-.6-3.8-1.3c-3.5-1.6-5.1-6.3-4.2-12.7.9-6.8-.6-6.6-8.5 1-3.4 3.3-7.1 6-8.1 6s-2.6 1.1-3.4 2.4c-.9 1.3-3.5 3.7-5.8 5.2-2.3 1.6-7.2 5.5-11 8.6-3.7 3.2-7.1 5.8-7.6 5.8-.4 0-1.3 1.1-1.9 2.5s-1.8 2.5-2.6 2.5-4 2.5-7 5.5-5.8 5.5-6.2 5.5-3.5 2.5-6.8 5.6c-3.4 3-7.4 6.6-9.1 8-6.1 5-12.5 11.3-12.5 12.3 0 .6-.8 1.1-1.7 1.1-2.1 0-9.3 7.8-9.3 10.2 0 1-.4 1.8-1 1.8-.5 0-1 1.3-1 3 0 2.4-.7 3.3-4 5-3 1.6-4 2.6-4 4.5 0 1.4-.9 3.3-2.1 4.3-1.1.9-3.4 2.9-5 4.4-1.6 1.6-3.3 2.8-3.9 2.8-.5 0-1.2 1.1-1.6 2.5-.3 1.4-1.5 3.1-2.5 3.8-3.3 2.4-7.9 8.9-7.9 11.3 0 1.4-1 3-2.5 4-1.4.9-2.5 2.2-2.5 2.9 0 .6-.9 2-2.1 3.1-1.2 1-2.8 3.2-3.6 4.9-.9 1.6-2.6 3.7-3.8 4.7-1.3 1-2.6 2.9-2.9 4.3-.4 1.4-1.1 2.5-1.6 2.5s-2.2 1.9-3.8 4.2c-1.7 2.4-4.1 5.4-5.4 6.8-4.7 4.7-16.4 15.5-20.2 18.5-2 1.6-4.3 3.5-4.9 4-3.9 3.4-12 9.5-12.7 9.5-.5 0-2.1 1.2-3.7 2.6-5.3 4.8-15.8 13-17.5 13.7-1 .3-2 1.8-2.4 3.2-.3 1.4-1.1 2.5-1.8 2.5-.6 0-1.7.4-2.5.9-2.1 1.4.4 5.1 3.5 5.1 2.2 0 2.5-.4 2.2-2.7-.3-2.4.2-2.9 3.6-3.8 2.1-.6 4.7-2.3 5.8-3.8s2.6-2.7 3.3-2.7c.8 0 1.9-.9 2.5-2s1.5-2 2-2c1.7 0 18-11.5 18-12.7 0-1.4 5.5-4.3 8.2-4.3 2.5 0 2.3 1.2-.7 4-2.8 2.7-3.2 5.2-1 7 2 1.6 1.9 7.9 0 10.8-1.4 1.9-1.4 2.4 0 5.1 2.1 4.2 1.9 6.4-1 9.5-2.8 3-3 3.9-1.4 6.4.9 1.4.7 2.7-1 6.1-3.3 6.3-5.3 5.3-7.7-3.6-.2-.9-2.6-1.2-8.4-1-7.7.2-8 .2-8-2 0-3.1-3.3-3-5 .1-1.6 3-3.5 3.9-5.8 2.7-.9-.5-3.5-1.3-5.7-1.8-3.9-.8-4-.9-4-5.1 0-7.1-2.2-7.2-9.1-.6-3.2 3.1-7.1 5.8-8.7 6.1s-3.3 1.5-3.9 2.8-2.1 2.8-3.4 3.4-2.4 1.5-2.4 2.1c0 1.5 5.2 6.1 8.2 7.3 2 .7 2.3 2.2.8 3.2-.5.3-1 2.2-1 4.2 0 3.2-.2 3.5-2.5 2.9-7.2-1.8-7.8-2.4-7.2-6.7.6-4.8-.7-5.8-5.1-3.5-3 1.5-5.1 6.6-2.7 6.6 1.4 0 5.5 5.4 5.5 7.4 0 1.5-2.1 2.6-5.2 2.6-1.4 0-2.4-1.2-3.6-4.1-1.4-3.7-1.7-3.9-2.9-2.3-1.9 2.7-1.6 5.3 1.2 8.5 2 2.4 2.2 3.4 1.5 5.5-.5 1.3-.7 5.1-.3 8.3.7 7.7.1 9.6-2.8 8-2-1-2.1-1.6-1.5-8.4.5-6 .4-7.6-.9-8.9-2.1-2.1-2.2-2.1-4 1.4s-2 11.1-.3 12.8c.9.9.9 1.5 0 2.4-.7.7-1.2 1.8-1.2 2.4 0 1.7-8 9.4-9.7 9.4-1.4 0-11.7 7.2-12.8 9-.3.5-1.9 1-3.5 1h-2.8l.5-6.3c.3-3.4 1.2-6.9 1.9-7.8.8-.8 1.4-3.4 1.4-5.7 0-3.6.4-4.4 3-5.7 1.7-.9 3-2 3-2.6 0-.5 1.2-1.4 2.8-2 1.5-.5 3.7-2.4 4.9-4.2 3.6-5.2 6.4-7.9 7.8-7.3 1.1.4 3.5-3.2 3.5-5.4 0-1.6-2.3-1.1-5.9 1.3-1.9 1.2-4.6 3-6 3.9s-3.3 1.7-4.2 1.7c-.9.1-2.4 1.2-3.3 2.6s-2.1 2.5-2.6 2.5c-.6 0-2.9 1.3-5.2 3-2.2 1.6-4.7 3-5.3 3-.7 0-3 1.4-5.1 3-10.6 8.3-13.1 10.1-16.1 11.5-1.8.8-3.7 2.4-4.3 3.5s-2.1 2-3.4 2c-1.2 0-3.3 1.1-4.6 2.5s-2.9 2.5-3.5 2.5c-.7 0-2.9 1.6-4.9 3.5-2.1 1.9-4.2 3.5-4.7 3.5s-.9.6-.9 1.4-1 1.8-2.2 2.1c-1.3.4-3.4 1.8-4.8 3-1.4 1.3-4 2.6-5.8 3s-3.2 1.3-3.2 2.1-.8 1.7-1.7 2.1c-1 .3-4.3 3.1-7.4 6.2s-7.4 6.9-9.5 8.4c-9.3 6.7-12.1 8.9-15.1 11.7-1.7 1.7-3.3 3.4-3.5 3.9s-3.3 2.2-6.9 3.9c-9.2 4.1-9.7 7.2-2 12.3 2 1.3 2.2 1.8 1.2 3.6-.6 1.2-1.1 3.4-1.1 5s-.9 6.2-2.1 10.3c-1.4 5.2-1.9 9.4-1.7 13.5.4 5.1 0 7.2-3 14.5-3.4 8.2-3.6 9-3.6 21.5l-.1 13-3 1.4c-3.6 1.8-22.5 1.9-26.9.2l-2.8-1.1.7-7.8c.4-4.2 1.3-8.4 2.1-9.3.8-.8 1.4-2.3 1.4-3.2 0-.8 1.1-2.4 2.5-3.5 3.2-2.5 3.2-5 .1-6.2-1.3-.5-2.9-1.6-3.4-2.6-1.2-2.2-3.9-1.3-8.6 3.1-6.1 5.5-6.9 4.5-5.1-6 .6-3.9 1-7.6.7-8.3-.7-2.1-5.4-2.6-8.4-.9-1.9 1.1-3.6 1.4-5 .8-1.8-.6-1.9-.9-.5-1.4.9-.3 1.4-1.3 1.1-2.1-.3-.7.3-2.2 1.4-3.2 2.3-2.2 3.8-6.4 2.3-6.4-1.7 0-6.1 2.3-6.1 3.1 0 .5-1.6 1.5-3.5 2.3-2.1.9-4 2.7-5 4.8-.9 1.8-2.4 4.9-3.5 6.8-1 1.9-1.9 4.2-2 5.1 0 .9-.7 2.2-1.6 3-.8.7-2.4 3-3.5 5-1 2.1-2.7 4.3-3.7 4.8s-2.4 2.7-3 4.9c-1 3.4-1.5 3.9-3.6 3.5-2.2-.4-2.5-.1-3 2.8-.3 1.9-.4 4.1-.4 4.9.1.8-.2 4.1-.6 7.3-.6 4.7-.5 5.8.8 6.3 1.8.7 2.1 4.1.5 8.1-.8 2.2-1.2 2.5-2 1.3-.7-1.1-.9.1-.9 4 .1 3-.3 8.4-.9 12-.5 3.7-.6 6.9-.1 7.4s.6 0 .3-1.3c-.6-2.3.6-2.8 2.5-.9 1.8 1.8 1.4 4.2-.9 5.6-1.5 1-1.9 1-1.4.1.5-.8.4-1-.3-.5-.7.4-1.2 1.6-1.2 2.6s-.4 2.2-1 2.5c-.5.3-.8 3.6-.6 7.3s-.1 7.5-.5 8.4c-1.1 2.1-2.3 14.1-2.3 24-.1 4.5-.4 7-.9 6-.4-1-.5-.1-.3 2.2.3 2.1-.2 5.8-1 8.4-1.2 3.4-1.4 6.4-.9 11.7s.2 8.2-1 11.9c-.9 2.6-1.5 6-1.4 7.4.1 1.5-.3 4-1 5.6-.6 1.6-1 3.5-.7 4.2.3.8.1 1.6-.5 2-.5.3-.7 1.5-.3 2.6.4 1.4.2 1.8-.5 1.4-.6-.4-1.1-.2-1.1.3 0 1.7 2.1 1.3 7.4-1.4 6.1-3.1 12.5-3.3 15-.6 2.9 3.2 3.2 9.4.7 13.4-1.6 2.7-3.2 3.7-6.8 4.6-2.9.8-4.9.9-5.5.3-1.6-1.6.1-5 3.1-6 3.2-1.1 7.1-4.9 7.1-6.9 0-1.9-3.1-1.6-5.4.6-3.5 3.1-8.8 3.5-12.2.9-1.6-1.2-2.6-1.8-2.2-1.4.3.4 0 2.9-.8 5.4-1.2 3.9-1.2 7.6-.4 21.6.6 9.3.8 18.3.4 19.9-.3 1.6-.2 8.4.2 15.1.5 6.6 1 10.8 1.2 9.3.5-4.1 2.3-2.8 4.1 2.9 1.7 5.2 1.9 12.5.7 32.9-.6 9.9-.4 12.6.8 15 2 3.7 2 6.5.2 10-2.1 4.1-.4 8.9 6.4 18 2 2.7 4.8 7.3 6.1 10.2 1.5 3.2 3 5.1 3.9 5 .8-.1 1.5.4 1.5 1 0 1.2.5 1.5 2.3 1.2 1.1-.2 4.5.1 6.9.6 1.6.4 2.1 1 1.7 2.3-.4 1.1-.3 1.3.3.5 1.4-1.9 8-.2 6.8 1.7-.3.4.4.6 1.5.3 1.2-.3 2 0 2 .6 0 .7.5.9 1 .6 1.4-.9 5.2.4 4.5 1.6-.3.5.2.6 1.1.2 1.2-.4 1.5-.3 1 .5s-.2 1 .8.6 1.6-.1 1.6.9c0 .9 1.5 2.8 3.3 4.2 1.7 1.5 2.6 2.4 2 2-.8-.4-1.3 0-1.3 1 0 .9.4 1.3 1 1 .5-.3 1 .1 1 1s-.4 1.4-.9 1c-1.3-.8-1.7 4.1-.8 10 1.7 11.6 2.9 17.1 4.2 19.5 2.6 5 12.4 13.9 18.2 16.6 5.4 2.4 6.5 2.6 17 2.2 6.1-.2 11.7-.9 12.5-1.5.7-.6 3-1.3 5.1-1.7 9.3-1.5 10.8-1.9 11.3-2.7.3-.5 1.3-.9 2.4-.9 1 0 4.4-1.4 7.5-3 4.5-2.4 7-3 11.7-3 5.7 0 6.1.2 11.1 4.7 2.9 2.7 6.1 5.4 7.2 6 9.3 5.8 19.1 9.4 39.2 14.3 6.8 1.6 14 3.7 16 4.6 8.6 3.7 15.7 5.3 26.8 6.1 3.9.2 7.4.9 8 1.4.5.5 3.3.9 6.1.9 2.9 0 5.6.4 5.9 1 .3.5 1.7 1 3 1s2.7.4 3 1c.3.5 2.1 1 4 1s3.7.5 4 1c.3.6 1.7 1 3 1s2.7.4 3 1c.3.5 1.4 1 2.5 1 1 0 4.4 1.3 7.5 3 3.1 1.6 6.5 3 7.5 3 1.1 0 2.2.4 2.5 1 .3.5 1.5 1 2.5 1 1.1 0 3.5.9 5.5 2s4.2 2 5 2 3 .9 5 2 4.2 2 4.9 2c1.3 0 13.5 6 18.4 9.1 3.8 2.3 5.4 7 7.1 20.9.9 7.3 2.1 11.4 4.7 16.2 2 3.6 14.3 16.8 15.7 16.8 1 0 3.7 2.6 3.7 3.6 0 .4.7 1.5 1.4 2.3.8.9 3.9 6.4 6.8 12.1 5.2 10.3 5.5 10.7 14.8 17.7 5.2 4 12.7 9.3 16.5 12 3.9 2.6 7.2 5 7.5 5.3 1.9 2.2 25.1 10.8 32.8 12.2 8.5 1.6 29.3 2.1 30.5.9.6-.6 2.6-1.1 4.3-1.1 1.8 0 3.6-.5 3.9-1 .3-.6 1.7-1 3-1s2.7-.4 3-1c.3-.5 1.7-1 3-1s2.7-.5 3-1c.3-.6 1.4-1 2.4-1 2.3 0 7.5-2.6 9.1-4.5.7-.8 1.7-1.5 2.2-1.5 1.5 0 7.8-6.8 7.8-8.5 0-.8.5-1.5 1-1.5.6 0 1-.9 1-2s.5-2 1-2c.6 0 1-.9 1-2s.5-2 1-2c.6 0 1-.8 1-1.8 0-1.1.7-3.3 1.5-4.9 1.3-2.5 2.3-3.2 6.1-3.8 3.9-.5 6.8 0 17.8 3.6 7.2 2.3 15.4 5.2 18.1 6.5 2.8 1.2 6.8 3 9 3.9 4.6 2 16.2 7.3 18.7 8.6 1 .5 2.4.9 3.1.9s3.2.9 5.5 2c2.2 1.1 4.5 2 5 2s2.3.7 3.9 1.5c3.4 1.7 18.3 6.5 22.6 7.2 1.5.3 3 .9 3.3 1.4s1.2.9 2 .9 3.4.9 5.6 2c2.3 1.1 4.6 2 5.1 2 .4 0 3.6 1.3 7 2.9s9.4 3.9 13.2 5.2c7.4 2.3 10.9 3.6 13.7 5 1 .5 2.7.9 3.8.9 1 0 3.5.9 5.5 2s4.5 2 5.5 2c1.1 0 2.9.4 4 1 1.1.5 2.9 1.4 4 2 1.1.5 2.9 1 3.9 1 1.1 0 2.3.4 2.6 1 .3.5 1.7 1 3 1s2.7.4 3 1c.3.5 1.6 1 2.9 1 1.2 0 2.6.3 3 .7.3.4 3.5 1.5 6.9 2.4s8.7 2.6 11.7 3.8c3 1.1 9.9 3 15.5 4.1 11.5 2.3 17.3 3.8 19.7 5.1 1 .5 2.5.9 3.3.9 1.6 0 4.9 1.7 7.7 3.9.9.7 3.8 2.4 6.4 3.7 4.6 2.3 5.4 2.4 28.6 2.4 15.2 0 23.8-.4 23.8-1s1.5-1 3.4-1 3.8-.5 4.1-1c.3-.6 2.1-1 4-1s3.7-.4 4-1c.3-.5 1.4-1 2.5-1 1 0 4.4-1.4 7.5-3 3.1-1.7 6.5-3 7.5-3 1.1 0 2.2-.5 2.5-1 .3-.6 2.1-1 4-1s3.7-.5 4-1c.3-.6 3-1 6-1s5.7-.5 6-1c.3-.6 3-1 6-1s5.7-.4 6-1c.3-.5 2.1-1 4-1s3.7-.5 4-1c.3-.6 2.6-1 5.1-1 2.4 0 4.4-.5 4.4-1 0-.6 1.8-1 4-1s4-.5 4-1c0-.6 1.8-1 4-1s4-.5 4-1c0-.6 2.4-1 5.4-1s5.8-.5 6.1-1c.3-.6 2.6-1 5-1s4.7-.4 5-1c.3-.5 3-1 6-1s5.7-.5 6-1c.3-.6 2.6-1 5-1s4.7-.5 5-1c.3-.6 3-1 6-1s5.6-.4 6-.9c.3-.5 5-1.3 10.5-1.7 5.5-.3 10.3-1.1 10.6-1.5.3-.5 2-.9 3.9-.9s3.7-.4 4-1c.3-.5 2.2-1 4.1-1s3.4-.5 3.4-1c0-.6 2-1 4.4-1 2.5 0 4.8-.5 5.1-1 .3-.6 2.6-1 5-1s4.7-.4 5-1c.3-.5 4.4-1 9-1s8.7-.5 9-1c.3-.6 3.5-1 7-1s6.7-.5 7-1c.3-.6 1.9-1 3.4-1s10.8-4 20.6-9c9.8-4.9 18.7-9 19.7-9s1.8-.5 1.8-1c0-.6 1.4-1 3-1 1.7 0 3-.5 3-1 0-.6 1.8-1 4-1s4-.5 4-1c0-.6 2.3-1 5-1 2.8 0 5-.5 5-1 0-.6 1.5-1 3.4-1s3.8-.5 4.1-1c.3-.6 3.5-1 7-1s6.7-.5 7-1c.3-.6 3-1 6-1s5.7-.5 6-1c.3-.6 4.4-1 9-1s8.7-.5 9-1c.3-.6 3-1 6-1s5.7-.5 6-1c.3-.6 2.6-1 5.1-1 2.4 0 4.4-.5 4.4-1 0-.6 2.3-1 5-1 2.8 0 5-.5 5-1 0-.6 1.8-1 4-1s4-.5 4-1c0-.6 1.5-1 3.4-1s3.8-.5 4.1-1c.3-.6 3-1 6-1s5.7-.5 6-1c.3-.6 3-1 6-1s5.7-.5 6-1c.3-.6 3.5-1 7-1s6.7-.4 7-1c.3-.5 3.9-1 8-1s7.7-.5 8-1c.3-.6 3-1 6-1s5.7-.5 6-1c.3-.6 2.6-1 5-1s4.6-.4 4.9-.9 2.3-1.1 4.3-1.4c7.2-1.1 10.8-1.8 12.8-2.7 1.1-.5 3.4-1.1 5-1.3 1.7-.3 7.4-1.4 12.9-2.6 5.4-1.1 11.3-2.1 13.2-2.1 1.8 0 3.6-.4 3.9-1 .3-.5 3-1 6-1s5.7-.5 6-1c.3-.6 2.6-1 5-1s4.7-.5 5-1c.3-.6 1.7-1 3-1s2.7-.5 3-1c.3-.6 2.1-1 4-1s3.7-.5 4-1c.3-.6 1.9-1 3.6-1 1.6 0 3.7-.4 4.7-.9 2.6-1.3 15.6-5.1 17.6-5.1.9 0 1.9-.6 2.2-1.4s1.5-1.1 3-.8c1.3.2 2.4 0 2.4-.5 0-.6 1.1-.8 2.4-.6 1.3.3 2.9-.2 3.7-1 .7-.7 2.1-1.2 3.1-.9 1 .2 1.8 0 1.8-.6s.8-.8 1.9-.5c1 .3 2.2 0 2.5-.6.4-.6 1.8-.8 3.3-.5 2 .5 2.4.4 1.8-.6s-.4-1.2.8-.7c.9.3 1.9.2 2.3-.4.3-.5 1.4-.7 2.5-.4 1.1.4 1.9.2 1.9-.5 0-.6.5-.8 1-.5.6.3 1 .2 1-.3 0-.6.7-1.3 1.6-1.6.8-.3 1.2-.2.9.4s.1 1 1 1c1 0 1.3-.5.9-1.2-.5-.8-.2-.9.9-.5 1 .3 1.7.2 1.7-.3 0-.4 1.6-.7 3.5-.5 2.3.2 3.3-.1 2.8-.8q-.6-1.05 1.2-.3c1.1.4 2.5 0 3.6-1s1.9-1.2 1.9-.6c0 .7.5 1.2 1.1 1.2.5 0 .8-.4.5-.9s.1-1.2 1-1.5c.8-.3 1.2-.2.9.4-1.1 1.7.7 1.1 2.1-.8.8-1 1.3-1.2 1.4-.5 0 .7.5 1.3 1.1 1.3.5 0 .7-.5.4-1-.4-.7.2-.9 1.7-.5 1.6.4 2.9.1 3.8-1 1-1.3 1.5-1.3 2.1-.3.7 1 .9.9.9-.5 0-.9.5-1.7 1.1-1.7.5 0 .7.6.3 1.2-.4.7.2.5 1.4-.6 1.2-1 2.8-1.6 3.7-1.3.8.4 1.5.2 1.5-.4s.6-.9 1.4-.6 1.7.1 2-.6c.5-.9.7-.9 1.2 0 .3.7 1 1.3 1.5 1.3.6 0 .7-.5.3-1.2-.5-.8-.2-.9 1.1-.5.9.4 2.4.2 3.1-.4.8-.6 2-.9 2.9-.5.8.3 1.4.2 1.4-.2-.3-2 .2-2.5 1.1-1.2s1.2 1.3 2.3-.1c1.5-2 2.8-2.4 3.7-1 .3.7 1.4.9 2.3.5.9-.3 1.5-.9 1.3-1.3-.3-.4.9-.7 2.7-.6 1.9.1 4.1-.7 5.4-1.8 1.2-1.1 3.6-2 5.3-2.1 1.6-.1 3-.5 3-1 0-.4 1-.6 2.3-.4s2.9-.1 3.5-.9c1.6-1.7 4.6-1.7 3.6-.1-.4.8-.3 1 .2.5s.9-1.4.9-2c0-.7 1.1-1.2 2.5-1.3 1.4 0 2.4-.6 2.3-1.2-.2-.7.6-1.2 1.8-1.2 1.3 0 1.8.4 1.3 1.2-.4.8-.3 1 .2.5s.9-1.4.9-2c0-.7 1.1-1.4 2.4-1.5 1.6-.3 2.1 0 1.6.9-.5.8-.4 1 .4.5.6-.4.9-1.1.6-1.6-.3-.4.2-1.1 1.1-1.4 2.2-.9 2.6-.8 1.8.6-.4.7-.3.8.5.4.6-.4.9-1.2.6-1.7-.4-.5-.1-1 .4-1 2.1-.3 2.6-.4 4-1.3 1.1-.7 1.3-.5.7.9-.5 1.5-.4 1.6.9.5.8-.7 1.2-1.7.8-2.4-.4-.6.1-.5 1 .3 1.5 1.2 1.7 1.2 1.1-.4-.5-1.3-.4-1.6.4-1.1.7.4 1.2.2 1.2-.3 0-.6.7-1.1 1.6-1.1s1.2.5.8 1.2.2.4 1.4-.6c1.2-1.1 2.2-1.6 2.2-1.1 0 .4.8.1 1.7-.6 1.4-1.2 1.6-1.2.9.1-.4.8-.1.7.8-.4.8-1 2.2-1.6 3-1.3.9.4 1.5.1 1.3-.6-.1-.7.8-1.1 2-1.1 1.3.1 2.1-.2 1.8-.5-.2-.4.5-1.3 1.7-2 1.6-1 1.9-1 1.2.1-.4.7.1.5 1.2-.4 1-.9 2.2-1.7 2.6-1.8 2.2-.2 3.8-1.4 3.8-2.6 0-.7 1.4-2 3-2.9 1.7-.9 3-1.8 3-2.1s-.6-.2-1.2.1c-.7.4-.3-.2.9-1.3s1.9-2.3 1.5-2.7c-.4-.3.2-1.3 1.2-2.1 1.3-.9 1.5-1.4.6-1.4s-.8-.5.6-1.6c1.3-1.1 1.5-1.7.6-2-.6-.3-1-.9-.7-1.3.2-.4.7-2.3 1-4.1s1.1-4.2 1.7-5.4c.7-1.1 1.2-3.2 1.2-4.6.1-1.5.6-2.4 1.4-2.2.9.2 1.1-.2.5-1-.4-.7-.9-4.2-1-7.8-.1-5 .4-7.6 2.2-11.4 1.9-3.9 2.1-5.3 1.3-7.2-1.6-3.6-2.4-3.3-9.2 3.1-2.7 2.6-3.9 3-9.7 3.1-4.3.1-7.8.8-10.5 2.2-2.2 1.1-6.4 2.7-9.4 3.6-3 .8-10 3.2-15.5 5.1-5.5 2-12.5 4.3-15.5 5.1s-7.7 2.1-10.5 2.9c-2.7.7-6.8 1.6-9 2s-8.7 2-14.4 3.6c-5.8 1.6-12.5 2.9-15 2.9s-6.4.9-8.6 1.9c-2.2.9-8.3 2.3-13.5 3s-11 1.4-12.7 1.7l-3.3.5v10.8c0 7.5-.4 11.2-1.2 11.9-.7.5-4.2 1.6-7.8 2.3-3.6.6-7.6 1.7-9 2.4s-5.2 1.8-8.5 2.4c-7.9 1.6-20.2 5-24.2 6.7-3 1.2-3.2 1.6-2.2 3.8 1.9 4 .6 5.6-4.6 5.6-2.5 0-5.9.7-7.5 1.5-1.7.9-6.2 1.7-10.1 2-5.6.3-7.7.9-9.5 2.5-2.6 2.5-4.4 1.9-4.4-1.5 0-1.2-.7-2.6-1.6-2.9-2.8-1.1-10.2-.6-14.6.8-4.5 1.6-24.2 5.5-31.5 6.3-6.7.8-7.1-.5-7.5-24.7l-.3-20.4 3-1.5c1.7-.8 4.2-2 5.6-2.7 2.9-1.5 13.6-3.4 19-3.4 2 0 4.7-.8 6-1.9 1.8-1.3 5-2 12.3-2.5 9.9-.7 14.5-1.8 15.7-3.8.4-.5 4.4-1.2 9-1.5 5-.3 10.5-1.3 13.4-2.5 2.8-1.1 9.8-2.6 15.8-3.3 5.9-.7 11-1.5 11.4-1.9 1.6-1.5-1.8-2.5-9.2-2.6-9.7-.2-16.7.7-22 2.7-2.2.8-7.8 1.9-12.5 2.3-4.7.5-10.3 1.7-12.5 2.8-2.6 1.3-7.1 2.1-13 2.5-4.9.3-10.9 1.3-13.3 2.1-2.3.8-8.6 2-14 2.5-5.4.6-11.2 1.7-12.9 2.6-1.8.9-6 2-9.5 2.6-12.1 1.9-12.1 1.9-11.9 22 .1 10.9-.1 14.8-1.1 15.6-1.6 1.3-10.2 3.7-21.8 6.2-14 3-31.1 7.1-37.5 9.1-10.8 3.3-19.3 4.4-22.1 3-2.1-1.2-2.8-1-6.1 1.3-2.6 1.7-6.3 2.9-11.7 3.7-4.3.7-10.2 1.8-13.1 2.5-2.9.8-9.2 1.9-14.1 2.5-4.8.6-11.7 1.7-15.4 2.5s-10.7 1.9-15.6 2.5-12.5 1.9-16.9 3c-4.4 1-11.6 2.2-16 2.5-4.4.4-11.6 1.5-16 2.5-4.4 1.1-12.2 2.4-17.3 3-5.2.6-13.7 1.9-19 2.9-5.3 1.1-13.7 2.4-18.7 3.1-4.9.6-11 1.7-13.5 2.5-2.5.7-7.3 1.9-10.8 2.5-5.2 1.1-6.7 1.9-9.2 4.9-5.3 6.5-11.2 11.7-16.7 14.4-7.6 4-31.3 4.8-34.8 1.3-1.5-1.5-2.5-1.8-6.7-2.1-1 0-3.4-1.6-5.3-3.5l-3.6-3.5-29.7.2c-16.3 0-35.1.6-41.7 1.1-15.4 1.2-86.3-1.4-89.5-3.3-.6-.4-4.3-.8-8.4-1-7.7-.3-12.8-2.2-14.1-5.2-.4-1-1.1-21.6-1.6-45.8-.4-24.2-1.3-54.6-1.9-67.5-1.6-32.3-2.6-79.7-1.8-81.9.9-2.6 9.2-4.5 13.6-3.2 2.2.7 5.3.7 9 0 3.1-.6 8-.8 10.9-.4 4.4.5 5.3.4 5.3-.9 0-.9-.4-1.6-1-1.6-.5 0-2.4-1.6-4.2-3.6s-5.7-5-8.5-6.6c-9-5.1-11.6-10.7-11-24.4.2-4.9 0-17.2-.4-27.3-.9-19.5-.6-20.9 3.6-23.7 4.4-2.9 27.9-3.5 34.2-.9 2.3 1 8.9 1.6 20.1 1.9 9.2.3 19.7.8 23.5 1.2 5.7.6 6.7.4 6.7-.9 0-1.1-1.4-1.8-4.7-2.3s-5.6-1.6-7.6-3.5c-1.6-1.6-3.2-2.9-3.7-2.9s-1.1-.9-1.5-1.9c-.3-1.1-1.6-2.1-2.8-2.3-1.5-.2-2.3-1.2-2.8-3.5-.9-4.4.3-5.9 2.6-3.3 1 1.1 2.2 2 2.6 2s1.9 1.1 3.3 2.5 3.2 2.5 4 2.5c2.1 0 3.8-3.5 3.1-6.2-.3-1.3.2-4.1 1.1-6.3 4.4-10.2 3.5-23-1.2-16.8-1 1.4-1.7 1.6-3.1.7-2.3-1.4-1.9-6.8.8-10.3 1-1.3 1.9-2.8 1.9-3.4s1.1-2.5 2.5-4.3c1.8-2.3 2.5-4.5 2.5-7.6 0-5.5 1.3-6.8 6.7-6.8 4.9 0 6.8 2.3 5.8 6.8-.5 2.3.4 3.9 4.5 9.2 2.7 3.6 5.5 8.2 6 10.2.6 2.1 1.5 3.8 2 3.8.6 0 1 .7 1 1.5 0 1.6-2 2-3.5.6-.6-.4-2.5-1.1-4.2-1.4-3.2-.6-3.3-.5-3.3 2.6 0 1.8.5 4.8 1 6.7.6 1.9 1.3 7.2 1.7 11.8.6 7.8.7 8.2 3 8.2 1.4 0 3.7-1.4 5.6-3.4 1.8-1.8 4.5-3.7 6.1-4 5.5-1.3 7.6-3.5 7.6-7.9 0-2.8.7-4.8 2.2-6.4 1.8-2 2.3-3.9 2.6-9.9.5-8.3 1.6-9 2.6-1.5.5 3.8.1 6.5-1.5 11.3-1.1 3.4-2.3 8-2.5 10.3-.3 2.2-1.3 4.5-2.2 5.2s-2.1 1.7-2.7 2.3c-3.1 3.5-11 10.7-12.7 11.6-1.8 1-1.8 1.1-.3 2.4 1.5 1.2 2.1 1.2 4.4-.1 1.4-.8 4.5-1.6 6.9-1.8 4.2-.3 4.2-.2 3.2 2.4-1.4 3.6-1.3 4.5.5 4.5.9 0 2.1-1.1 2.7-2.5s2.2-3.2 3.5-4c2.7-1.8 3.1-5.2.6-5.8-1-.2.2-.2 2.7.1 6 .6 10.3 3.4 13.4 8.7 1.5 2.4 4 5.9 5.6 7.7 3.4 3.7 3.7 5.4 1.4 8-2.1 2.2-.8 4 4.8 6.9 2.2 1.1 4.2 2.9 4.6 4 .4 1 2.1 2.7 3.8 3.7 6.4 3.6 15.8 9.8 19.9 13.2 2.3 1.9 6.1 4.8 8.4 6.5 2.3 1.6 6.4 4.7 8.9 6.7 15.2 12.2 16.1 12.6 25.7 9.8 2.2-.6 7.6-1.5 12-2.1 12.5-1.4 20.6-2.7 25.5-3.9 2.5-.6 8.1-1.5 12.5-2.1s9.2-1.7 10.7-2.5c1.4-.8 4.7-1.4 7.2-1.4 4.8 0 7.9 1.4 13.1 6 1.7 1.4 4 3.3 5.1 4.1 1.2.8 8.2 6.3 15.5 12.4 35.8 29.7 46.9 38.1 56.6 42.6 6.1 2.9 8.1 3.3 19.3 3.9 9.6.5 13.4.3 16.5-.8 7.6-2.6 15.1-4 25.5-4.6 5.8-.4 18.8-1.8 29-3.1 10.2-1.4 23.7-3.1 30-3.9 21.4-2.7 35.5-4.6 48-6.6 6.9-1.1 15.2-2.2 18.5-2.6 3.3-.3 10.5-1.5 16.1-2.5 5.6-1.1 15.4-2.6 21.9-3.4s17-2.4 23.4-3.5c6.4-1.2 17.9-3.2 25.6-4.5 35.6-6.2 68.7-12.6 81-15.6 4.5-1.1 11.9-2.4 16.6-2.9 5.3-.5 10.1-1.7 12.7-3 4.5-2.3 11.2-9.2 11.2-11.4 0-.8.7-1.6 1.5-2 1-.3 1.5-1.9 1.5-4.6 0-4.9-1.5-5.2-3.4-.7-2.6 6.4-16.4 11.1-45.1 15.3-5.5.8-12 2.1-14.5 2.9s-8.5 1.9-13.5 2.5c-4.9.6-11.5 1.7-14.5 2.5s-12.2 2.4-20.5 3.5c-8.2 1.2-15.6 2.5-16.5 3-.8.4-4.6 1.1-8.5 1.5-3.8.4-13.3 1.7-21 3s-17.1 2.6-21 3c-3.8.4-11.7 1.5-17.5 2.6-5.8 1-16.1 2.5-23 3.3-18.4 2.2-43 5.3-55 7-5.8.9-18.1 2.2-27.5 3.1-20.5 1.8-21.8 2-37 3.9-6.5.9-14.5 1.6-17.7 1.6-3.1 0-7.9.5-10.7 1.1-3.4.7-7.7.7-14.2 0-8.2-.9-9.9-1.5-14.6-4.7-2.9-2-5.3-4-5.3-4.4s-1.3-1.3-3-2c-1.6-.7-3.2-2-3.5-3s-1.9-2.2-3.6-2.5c-1.7-.4-4.3-1.9-5.8-3.3-6-5.6-13.4-11.8-15.7-13-1.3-.7-2.4-1.6-2.4-2s-2.8-2.8-6.1-5.2c-7.2-5.2-10.2-9.6-13.9-20-3.2-8.7-10-26-13.5-34.1-4.2-9.6-3-13.3 4.8-14.3 2.3-.3 9.6-1.2 16.2-2 12.9-1.6 19.7-2.1 49-3.6 10.5-.6 22.6-1.6 27-2.5 4.4-.8 11.8-1.5 16.5-1.5 9.4 0 25.4-1.2 46-3.4 7.4-.8 22.1-2 32.5-2.6 10.5-.7 21.5-1.6 24.5-2.1s16.5-1.6 30-2.5c13.5-.8 27.9-1.9 32-2.5 7.3-.9 11.9-1.3 52.5-4.5 10.5-.8 21.7-1.9 25-2.4s15.2-1.4 26.5-2 23-1.5 26-2c6.1-1.1 51.7-4 62.2-4 4.2 0 7.1.5 8 1.3 1 1 1.3 6.9 1.3 26.3 0 21.8-.2 25.2-1.7 27.4-2.1 3.1-3.4 10.5-2 11.4s2.8-1.9 3.6-7.3c.4-2.6 1.5-5 2.5-5.8 1-.7 2.3-3.2 2.9-5.5 1.4-5.5 7.9-14.4 11.5-15.7 2-.7 3.8-.6 6.8.4 5 1.8 10.9 1.9 14.3.4 2.9-1.3 4.2-4.5 5.7-13.7.5-3.6 1.6-7.7 2.4-9.1s1.7-4.7 2-7.2c.7-5.9 2.5-8.3 6.1-8.4 2.7-.2 2.9-.5 3.2-4.8.2-2.6-.2-5.6-.9-6.9-.6-1.2-1.1-5.9-1.1-10.5 0-5.7-.3-8.1-1-7.7-.7.5-.9-.2-.4-2.2q.6-2.85-.3-1.5c-1.1 1.7-4.1.7-4.1-1.4 0-1.3 1-1.9 3-1.7.3 0 .6-1.3.5-2.9 0-1.6-.3-2.9-.7-2.9s-.5-.7-.2-1.5c.4-.8.1-1.5-.6-1.5s-2.5-1-4.2-2.1c-2.4-1.8-2.9-2.7-2.6-5.5.2-2.4-.3-3.8-1.7-4.8-1.8-1.3-1.8-1.5-.1-4 2.1-3.3 4.2-4.2 6.1-2.6.8.7 1.5.8 1.5.3s-1.5-1.7-3.2-2.8c-1.8-1-3.6-2.3-4-2.9-1.4-2.1-.8-4.8 1.2-5.3 1.1-.3 1.7-.9 1.4-1.4s-.1-.9.4-.9.9-.7.9-1.5-.4-1.2-.8-.9c-1.3.8-6.1-3.8-7.5-7.3-.8-1.8-1.4-4.6-1.4-6.3s-1.1-5.5-2.4-8.3c-1.4-2.9-2.8-8.1-3.2-11.7-.3-3.7-1.5-8-2.7-9.9-1.2-2.1-2.3-6.2-2.8-11-.4-4.2-1.2-11.7-1.8-16.6-2.5-20.4-3.2-30.2-2.3-32.5.5-1.4.6-3.7.1-5.2-.6-2.1-.4-2.8.7-2.8.8 0 1.4-.4 1.4-1 0-.5-.6-.7-1.3-.5-1.6.7-4.8-10.5-4.7-16.5.1-2.5 0-5.4-.1-6.5s-.1-2.7 0-3.5c.1-1.3.3-1.3 1.2 0 .9 1.2.9 1.1.4-.5-.4-1.1-1.2-3.9-1.7-6.3-.5-2.3-1.3-4.2-1.7-4.2-.3 0-.5-1.9-.3-4.3.2-3 0-3.8-.7-2.8-.7 1.1-.8.2-.4-2.9.4-2.4.2-4.1-.3-3.8-.5.4-1-4.6-1.2-11.3-.3-11.2-.5-12.3-3.7-19.1-3.4-7-3.5-7.6-3.5-19.5 0-11.5-2-23.6-5-30.8-1.9-4.6-3-21.9-3.1-51.2 0-18.1-.4-31.5-1-31.8-.5-.4-.9-1.8-.9-3.3-.1-4.7-2.6-12.4-4.4-13.8-1-.7-1.6-1.6-1.3-2.1.3-.4-.9-.8-2.6-.8h-3.2l-.8-7.5c-.5-4.1-1.4-7.8-2-8.2-.7-.5-2.1.2-3.5 1.8-1.2 1.4-2.8 2.4-3.5 2.1-1.4-.5-6.7-20.6-6.7-25.5 0-1.8.7-4.8 1.4-6.7 1.2-2.7 2.1-3.5 4-3.5 3.2 0 4.4-3.7 2.6-8-.7-1.7-1.4-5.2-1.5-7.8-.5-8.4-2.5-22.9-4.4-32.9-1.1-5.4-2.4-13.9-3-19-1.1-9.1-6.2-31-7.8-33.5-.9-1.4-1.8-11.3-2.9-30.8-.8-13.5-2.1-18.3-5.6-20.1-1.3-.6-3.2-2-4.3-3-4.8-4.4-11.2-9.2-17.9-13.4-1.8-1.1-5.3-3.4-7.7-5-4.2-2.9-8.6-5.4-19.4-10.9-2.7-1.4-5.7-3-6.5-3.6-1.3-.8-20.2-10-41-19.8-3.6-1.7-7.8-3.4-9.5-3.8-1.6-.3-4.3-1.5-6-2.5-1.6-.9-4.8-2.4-7-3.2-6.8-2.5-18.7-7.3-26.5-10.7-4.1-1.7-9.7-3.9-12.5-4.7-2.7-.9-5.9-2.2-7-2.8-1.1-.7-4.5-2-7.6-2.9s-6.2-2.3-6.9-3.1-2.1-1.5-3.1-1.5c-2 0-17.2-5.6-24.5-9-2.3-1-5.9-2.2-8-2.6-2.2-.4-5.5-1.5-7.4-2.5-3.7-1.8-16.2-6.1-24.5-8.4-6.4-1.7-16.3-5-24.3-8.1-3.4-1.3-7-2.4-8-2.4-.9 0-3.9-.9-6.7-1.9-8.1-3.1-27.4-9.1-29.3-9.1-1 0-3.3-.8-5.2-1.9-2-1-6.2-2.4-9.5-3.1s-6.9-1.8-8-2.5-4.4-1.8-7.4-2.4-7.4-2-9.7-3.1c-2.4-1-6.5-2.2-9.1-2.6-2.7-.3-6.8-1.5-9.3-2.5s-7.2-2.5-10.5-3.3c-9.4-2.4-26.7-7.3-29.7-8.5-1.5-.5-5.8-1.6-9.5-2.2-3.8-.6-8.1-1.8-9.7-2.6s-6.1-1.9-10-2.5c-3.9-.5-9-1.8-11.2-2.8-2.3-1-7.5-2.3-11.5-3-4.1-.7-9-1.8-10.9-2.5s-6.9-1.8-11-2.5-8.7-1.8-10.2-2.6c-1.4-.7-5.9-1.8-10-2.4-4-.6-9.8-2-12.8-3-3.1-1-8.5-2.1-12-2.5-3.6-.4-9.2-1.5-12.5-2.5-3.3-1.1-10.9-2.6-17-3.5-6-.8-13.8-2.1-17.3-2.9s-11.1-1.9-17-2.6c-5.9-.6-14.3-1.7-18.7-2.6-4.4-.8-13.6-1.6-20.4-1.8-11.5-.3-12.6-.5-14.3-2.6-1-1.2-1.5-2.6-1.2-3.1.7-1.2-1.3-4.7-5.2-9.2-1.9-2-3.4-4.2-3.4-4.8 0-1.4-6.3-3.9-9.8-3.9-1.5 0-3.3-.5-3.9-1.1-1.1-1.1-8.4-2.5-18.9-3.5-5.7-.6-6.2-.5-9.5 2.4m171.4 66.8c1.7 1 5 1.9 7.2 2.1 13.7 1.1 16.1 1.5 16.9 2.3.6.6 2.5 1 4.2 1 1.8 0 3.6.5 4 1.1.3.6 2.2.9 4.2.7 2.7-.3 3.6 0 3.9 1.3.3 1 1.2 1.5 2.2 1.2 1-.2 2.3.3 3 1.1.9 1.1 1.8 1.3 3.1.6 1.1-.6 2.8-.5 4.8.2 2.6 1 3.4.9 5-.5 1-.9 2.3-1.7 2.9-1.7s1.3-.7 1.7-1.5c.7-1.9 4.6-2 4.6-.1 0 .7 1.3 2.9 2.8 4.8 1.5 2 3.6 6.2 4.6 9.4 1 3.3 2.2 6.7 2.7 7.6.5 1 .9 2.5.9 3.3 0 1.9 5.5 9.6 6.3 8.9.6-.7 17.1 2.7 25.7 5.2 4.1 1.3 6.9 3 11.3 7.3 8.5 8.2 10.5 11.9 14.7 27.9.6 2.3.2 6.6-1.1 14-2.2 12.4-2.4 17.9-.7 18.4 1.9.7 4.8 29.9 3.4 35.1-1.1 4.5-5.3 5.3-17.7 3.2-8.3-1.3-13.3-1.6-20.8-1.1-6.6.5-10.2.3-10.6-.4-.3-.6-1-.8-1.5-.5-1.5.9-5-1.8-5.1-4-.1-1.7-.2-1.7-.6-.3-.7 2.7-6 2.3-14-1.1-3.8-1.7-9.4-3.3-12.4-3.6-2.9-.3-7.6-1.6-10.4-2.7-10.2-4.3-14-6.1-15.7-7.5-1-.9-2.5-1.2-3.7-.8-1.1.3-4.1-.1-6.6-.9-2.5-.9-6.7-1.6-9.3-1.6-2.7 0-5.2-.4-5.8-.9-.8-.8-7.7-1.5-25.4-2.6-3.6-.2-7.6-.7-8.9-1.2-1.5-.6-4.3-.6-7.3 0-4.3.9-5.2.8-6.8-.9-1.8-1.8-1.9-4.3-2.2-43.5-.3-34.6-.1-41.9 1.1-43.3 2-2.4 3.3-.7 3.6 4.6.2 2.4.6 6.7 1 9.5.5 3.7.4 5.3-.4 5.3-.6 0-1.1 1.1-1.1 2.4 0 3 4.2 7.8 6.2 7.1 1.8-.7 3.8-8.1 2.6-9.3-.5-.5-.8-2.7-.6-4.8.2-3.1.7-3.9 2.3-3.9 1.7 0 2.2 1 2.9 5.5.4 3 .9 9.2 1 13.6.1 6.6.5 8.6 2.1 10.3 1.6 1.8 1.7 2.5.7 4.1-1.6 2.6-1.6 2.8 1.1 3.2 1.9.3 2.2.8 1.9 4-.3 2.8.1 3.7 1.6 4.2 2.4.8 6.5 9 5.7 11.5-.3 1.1.1 3.4 1 5.1 1.6 3 2.9 3.8 3.9 2.1.3-.4 1.7-.6 3.1-.3 1.8.3 2.5 0 2.5-1.1 0-2.7-1.2-4.7-2.7-4.7-1 0-1.3-.6-.9-1.6.3-.9.6-2.9.6-4.5 0-1.8.5-2.9 1.4-2.9.8 0 1.7-1.4 2.1-3 .7-3.3 1.6-3.7 3.5-1.5 1.6 1.9 2.9 1.9 7.1-.2 4.5-2.1 4.6-2.3 2.9-3.3-2.5-1.5 1.7-5.2 5.1-4.5 2.2.5 2.7.2 3.2-1.7 1.1-4-.4-17.2-2.2-19.2-1.2-1.3-1.6-4.1-1.7-11-.2-10.6-1.6-15.5-3.9-13.6-.9.7-1.8 1-2.2.7-.3-.4-1.1 0-1.7.9-1.5 1.9-6.5.9-7.3-1.5-.4-.9-1.9-3.2-3.5-5.2-3.5-4.6-3.7-7.9-.5-7.9 1.2 0 3.1 1 4.1 2.1 1.5 1.8 2.5 2 5.7 1.5 2.4-.4 3.9-.2 3.9.4 0 1.8 1.5 1 2.7-1.5.6-1.4.8-2.5.4-2.5-.5 0-2.1-1.1-3.7-2.5s-3.6-2.4-4.4-2.3c-2.1.4-8.7-2.9-9.3-4.6-.3-.8.4-2.4 1.5-3.6l2-2.2-2.3-1.6c-1.3-.9-3-1.7-3.9-1.7-2.3-.3-9.2-7.2-7.7-7.9 2.2-1 12.7.3 16 2m-160.8 24.5c.4.5-.7 1.5-2.3 2.1-2 .8-3.3 2.1-3.7 3.7-.4 1.5-1.3 3.3-2.1 4.2-2.2 2.5-3.2 42.4-2.9 115.4.2 59.1-.5 82.8-2.5 86.4-2.2 4-3.2-4.7-5.1-44.2-2.2-45.3-2-104 .6-138.8l1.2-17.6 4.4-4.7c2.4-2.5 4.9-4.6 5.5-4.6.7 0 1.4-.7 1.8-1.5.6-1.7 4.2-2 5.1-.4M765 149.4c0 2.8 2.2 3.6 5.2 1.8 2.9-1.7 3-1.6 4.9.7 1 1.3 1.9 3.8 1.9 5.6 0 3.9 2.7 5.6 4.7 2.9 1.1-1.5 1.3-1.5 1.3-.2 0 1.4-1.1 4.3-5.5 14.3-2.2 5.2-2.8 7.8-2.9 13.4-.1 3.4-.6 5.6-1.4 5.9-.7.2-3.7 2.4-6.6 4.8-6.8 5.5-8.2 4.6-7.2-4.9 1.4-13 1.7-13.8 4-13.5 1.6.2 2.1.9 1.9 3.2-.3 3.4 1.4 6.9 2.8 6.1.5-.4.9-2.7.8-5.3 0-2.6.3-6.7.7-9.2 1-6.3.8-9.1-.7-10.1-1.9-1.2-3.9.9-3.9 4.2 0 3.9-1.8 8.1-3.2 7.7-.7-.3-1.7-2-2.3-3.9-1.4-4.8-2.1-5.6-5.5-6.2-3.1-.7-4.2-2.7-1.4-2.7 1.2 0 1.5-1 1.3-4.7-.3-4.4-.1-4.9 2.4-5.7 1.5-.6 2.7-1.3 2.7-1.8 0-.4.9-1.7 2-2.8 2.1-2.1 4-1.9 4 .4m-15.9 4.5 2.4 1.9-3.2 1.9c-5.6 3.1-6.9 9.8-2.1 10.5 1.9.2 2.3.9 2.3 3.8 0 3-.3 3.5-2.1 3.2-1.2-.1-2.7.4-3.4 1.3-.7.8-2.7 1.5-4.6 1.5-2.3 0-3.7.6-4.4 1.9-1.4 2.7-1.3 4.1.4 4.1.8 0 2.1.9 2.9 2.1 2.1 2.9.5 5.5-6.2 10.6l-5.6 4.1-1.3-6.6c-1.2-6.7-.9-12.7.9-14.8 1.2-1.5 5.9-18.2 5.9-21 0-3.1 2.6-4.8 8.4-5.5 2.8-.3 5.6-.7 6.2-.8.7 0 2.2.8 3.5 1.8M679 168.7c0 8.3-2.9 11.9-5.8 7.2-1-1.6-2.1-2-5.5-1.7-3.8.3-4.2.1-4.5-2.1-.5-3.3.7-9.1 1.9-9.1.5 0 1.4 1.1 1.9 2.5 1.2 3.2 4.5 3.3 6.1.2 3-5.6 5.9-4.2 5.9 3m590.7 1.7c6.5 5.4 11.2 7 20.6 6.8 7.3-.1 9 .1 10.6 1.7 1 1 2 2.4 2.2 3s1.8 1.4 3.4 1.6c11.1 1.9 15.9 8.6 17.6 24.8.5 5.6 1.5 10.7 2.2 11.4.7.6 3.5 1.3 6.2 1.5l5 .3.7-9c.7-8.8.8-9.1 4.5-12.2 4.5-3.9 9.4-4.3 13.3-1.3 1.4 1.1 3.9 2 5.5 2 3.2.1 7.5 3 7.5 5.2 0 1 .2 1 .8 0 .5-.7 3.4-1.3 7.3-1.4 5.5-.2 6.9.1 8.9 2 1.3 1.2 3.2 2.2 4.3 2.2 1 0 3.1 1.3 4.6 2.8 2.3 2.6 3.2 2.9 8.4 2.7 4.2-.1 6.1.3 7.2 1.5 1.2 1.3 2.7 1.6 6.3 1.2 4.7-.4 4.9-.3 7.5 3.7 2.5 3.7 3.1 4.1 6.8 4.1 2.2 0 4.8-.4 5.8-1 1.4-.7 2.4-.4 4.1 1.5 1.8 1.9 3.4 2.5 6.5 2.5 2.9 0 4.7.6 6 2 1 1.1 2.3 2 3 2 1.5 0 3.5 4.3 3.5 7.5 0 1.5 1.1 3.1 3 4.5 2.5 1.8 2.8 2.5 2.3 5.1-.4 2.1-.1 3.4.8 3.9 1 .7.8 2.1-1.2 7.2-1.7 4.1-2.3 7.1-1.8 8.4 1.5 3.8.9 4.9-3.6 6.7-5.7 2.4-9.9 7.1-8.6 9.6 1.7 3.1 3.5 4 12.6 5.7 5 1 10.2 2.6 11.7 3.6s4.4 1.8 7 1.8c2.3 0 4.8.4 5.5.8.6.4 2.6 3.9 4.3 7.7 3.4 7.5 4.8 17.2 3 20.5-1.5 2.8-6.5 2.6-14.2-.5-3.4-1.4-7-2.5-8-2.5s-2.9-.7-4.2-1.5c-2.5-1.7-9.7-3.8-21.8-6.5-4.3-.9-8.6-2.4-9.5-3.3-1-.8-3.6-2-5.8-2.6s-5.5-2-7.3-3.1-4.4-2-5.8-2c-1.6 0-3.7-1.2-5.5-3.1-2.9-3.1-3.1-3.2-7-1.9-3.3 1.1-5.4 1.1-12.2 0-4.5-.7-9.8-2.1-11.8-3.1s-5.8-2.3-8.5-3-6-2-7.3-3.1c-1.3-1-3.6-1.8-5-1.7-8.2.3-23-5-27.5-10-1.4-1.5-2.3-1.8-3.7-1.1-3.5 1.9-9.6 1.2-12.7-1.5-1.9-1.5-3.3-2.1-3.7-1.5-1 1.6-4.1 1.2-10.2-1.6-4.5-2-6.9-2.5-10.7-2.1-4.3.4-5.1.1-7.4-2.4-2-2.3-2.8-2.7-3.9-1.7-2.3 1.9-7.9 1-14.1-2.3-5.1-2.7-6.1-2.8-9.1-1.8-8.6 3-21-4.3-19.6-11.6.6-3.3-.8-5.9-5.8-10.7-2.7-2.5-3.2-2.7-4-1.2-.5.9-.6 3.9-.3 6.6.5 3.7.3 5.6-.9 7.4-2.1 3.3-3.9 3-6.9-.9-2.4-3.1-2.6-4.2-2.6-12.8 0-7.6.4-10 2-12.7 1.8-2.9 2.4-3.2 6.6-3.2 3.9 0 5.4.6 9.2 3.7 4.3 3.5 4.5 3.6 7.2 2 3.8-2.3 8.3-2.1 10.5.3 1 1.2 3.2 2.9 4.9 4 3.2 1.9 3.7 1.9 14.4-.5 3.3-.8 4.3-3.1 1.7-4.1-2.5-1-1.7-2.4 1.3-2.4 2.2 0 2.9.6 3.8 3.6.9 2.9.9 3.7-.2 4.1-.8.3-1.4 1.2-1.4 2 0 1.1.6 1.4 2.3.9 1.2-.3 3.9-.6 6-.6 2 0 3.7-.5 3.7-1 0-.6-1.4-1-3.1-1-2.8 0-3.1-.2-2.4-2.3 1.5-4.8 1.1-6.1-2-6.7-2.5-.4-3.1-1-3.3-3.7-.4-4-2.6-6.1-4.7-4.3-1.9 1.5-13 .9-14.8-.9-1.1-1.1-1.4-5.2-1.8-23.6-.1-6.3 1.3-16.8 2.6-19.8.7-1.6 3.5-3.4 5.7-3.6.3-.1 1.9 1 3.5 2.3M657 171.9c.5 1.1 1 4 1 6.6 0 5.3-2.2 7.1-4.6 3.6-1.7-2.4-4.9-2.8-5.8-.6-.6 1.7 1.9 4.5 4 4.5.8 0 1.4.7 1.4 1.5s.4 1.5.9 1.5c1.5 0 2.3 3.2 1.1 4.4-.8.8-1.6.4-2.9-1.3-1.6-2.1-2.3-2.2-6.1-1.6-2.9.5-4.4 1.3-4.7 2.5-.3 1-1.1 2.1-1.9 2.4-2.5.9-1.5 3.4 1.7 4.5 4.4 1.5 4.9 1.4 4.9-1.3 0-2.8 2.4-5.1 4.5-4.2 3.1 1.2 1 6.6-2.6 6.6-.9 0-1.9.9-2.2 2.1-.3 1.1-1.5 2.3-2.6 2.6s-2.2 1.1-2.5 1.9c-.7 1.9-5.6 1.8-5.6 0 0-.8-.5-1.8-1.1-2.2-1.5-.9-5.8 4.5-5.9 7.2 0 1.2-.7 2.7-1.5 3.4s-1.5 2.1-1.5 3.1-1 2.1-2.2 2.5c-1.2.3-2.8 1.3-3.6 2-1.2 1.3-4.2 2-4.2 1 0-1.9 4.7-7.7 7.1-8.8 6.1-2.7 1.3-5.1-7.3-3.7-3.2.5-3.8.4-3.8-1.2 0-3 4.6-5.8 8.4-5.2 2.7.4 3.8 0 6-2.2 1.5-1.5 3.3-2.4 4.1-2.1s2.2.9 3.2 1.3c1.2.4 1.4.3.8-.6-.4-.7-.9-3.5-1-6.2-.3-4.6 0-5.1 4.7-10.1 2.8-2.9 6.2-6.8 7.6-8.6 1.3-1.7 3.1-3.2 3.8-3.2.8 0 2.2-.9 3.1-2 2.2-2.5 3.9-2.5 5.3-.1m35.6 31.3c.3.5-.6 2.1-2 3.5-3 2.9-2.9 2.5-2.6 11.8.2 8.7 1.8 11.5 6.4 11.5 1.8 0 3.5.3 3.9.6 1.2 1.3-2.6 5.3-6.1 6.5-2 .6-4.9 2.2-6.3 3.6-3.9 3.6-6.9 2.8-9.6-2.7-2.6-5.3-3-12.6-.7-15.8.8-1.3 2-5.3 2.5-8.9 1.2-8.4 2.9-11.1 7.1-11.5 4-.4 6.6.1 7.4 1.4m-96.5 16.4c3.7 3.8 5.7 4.3 6.6 1.6 1-2.8 3.5-5.2 5.5-5.2 2.3 0 2.5 5.6.2 8.8-1.3 1.9-2.1 2.2-5 1.6-3.7-.7-7.4 1.5-7.4 4.3 0 1.1-.7.9-2.9-.6-1.6-1.2-3.8-2.1-4.9-2.1-3.4 0-5.2-1.1-5.2-3.1 0-1 .5-1.9 1.1-1.9.5 0 1.6-1.5 2.4-3.3.7-1.7 1.6-3.5 2-3.8 1.2-1.2 4.3.3 7.6 3.7m416.4 5.4c2.8.5 10.3 1.6 16.9 2.5 8.6 1.1 12.5 2.1 14.3 3.5 1.5 1.2 4.1 2 6.3 2 5 0 14.8 1.9 18.7 3.6 1.8.8 4.7 1.4 6.5 1.4 10.5-.2 15.8.3 21.2 2.1 4.2 1.4 9.7 2.1 17.9 2.5 11.5.4 17.7 2 17.7 4.4 0 1.1 3.6.5 8.3-1.2 2.2-.9 3.1-.7 4.6.6.9.9 2.2 1.6 2.8 1.6 2.3 0 4.1 15.5 5.2 45 .5 13.3 1.6 27.2 2.6 32 .8 4.7 2 15 2.6 23 .5 8 1.3 18.8 1.8 24s1.2 21 1.6 35c.3 14 1.1 33.4 1.6 43 .6 9.6 1.5 31 2 47.5s1.3 37.2 1.8 46 1.1 30.8 1.3 48.8c.2 18.1.6 33.4 1 33.9.3.6.1 2.1-.4 3.4-1 2.2-1.2 2.2-3.9.9-3.3-1.7-3.6-3.2-4.2-18.8-.3-6.5-1-11.4-1.7-12-.9-.9-1 4-.6 21.1.3 12.3.8 22.7 1.1 23.2s1.2.7 1.9.4c.8-.3 2.1.4 2.9 1.6.9 1.3 2 1.9 2.7 1.5 2.1-1.3 3 1.8 3 10.5 0 9.9-.9 12.2-3.5 9.6-1.5-1.5-1.6-2.1-.5-4.2.7-1.3 1.1-2.7.8-3-.4-.3-.9.4-1.3 1.5-.7 2.4-2.5 2.8-2.5.6 0-.8-.3-1.5-.8-1.5-1 0-5.2 12-5.5 15.6-.2 2.3-.7 2.9-2.6 2.9-2 0-2.6-.8-3.7-5.3-.8-2.9-1.9-6.3-2.6-7.5-1.1-2.1-1.2-2.1-2.1 1.3-1.6 6.4-2.9 6.7-4.9 1.2-1.2-3.1-2.6-5.2-3.8-5.5-1.3-.3-2.3-2-3.1-5.1-.7-2.7-1.7-4.6-2.5-4.6-1.7 0-1.8-1.2-.1-2.9 1-1 .7-1.6-1.1-3-2.2-1.6-2.3-1.9-.8-3.4 1.9-1.9 2.1-6.7.3-6.7-2.6 0-5.7-4-5.7-7.4 0-5.8-2.3-6.9-15.4-6.9h-11.4l-4.1 3.4-4.2 3.3 2.7 1.1c2.6 1 2.6 1 .7 3.4-2.4 3-5.6 2.2-7.3-1.8-1.3-3.2-1.6-11.7-.5-14.4.4-1 .3-1.7-.4-1.7-2.3 0-3.3-5.7-3.5-18.1-.1-8.9-.5-13.1-1.4-14.2-.8-.9-1.1-2-.8-2.5s-.1-1.8-.9-2.8-1.5-2.8-1.5-3.9c0-4.8-4.7-6-5.6-1.5-1.1 5.4-2.5 3.8-3.9-4.5-.4-2.2-1.6-5.7-2.8-7.7-1.7-3.1-2.5-3.6-4.3-3.2-1.8.5-2.4.1-2.9-1.8-.7-2.6 1.8-9.4 3.7-10 .9-.3.4-1.5-1.5-3.8-1.9-2.2-2.7-4-2.3-5.5.3-1.2-.1-3.1-1-4.3-1.2-1.8-1.9-2-4-1.2-1.4.6-2.9 1-3.4 1-1.4 0-4-5.5-4-8.5 0-3.2 1.7-3.2 5 0l2.7 2.5 3.5-2.4c2-1.3 4.4-2.6 5.4-2.8s2.1-1.7 2.6-3.5c.5-1.7 2.2-4.1 3.8-5.3 1.7-1.2 3.4-3.7 4.1-6 1.1-3.5 1-4.2-.6-6-1.9-2.1-2.3-9.6-.6-11.3.5-.5.1-2.3-1.2-4.4-2.5-4.4-4-12.5-2.3-13.5.6-.4 2.1-.8 3.4-.8 2.9 0 3.1-4.4.2-6-1.1-.6-2-1.9-2-2.9s.9-3 2-4.4c2.6-3.3 2.5-4.7-.2-4.8-1.3-.1-2.7-.2-3.3-.4-.5-.1-1.8-.3-2.7-.3-.9-.1-1.9-1-2.3-2.1-.8-2.5-4.4-6.6-5.1-5.8-1.4 1.3-.5 27.4 1.2 33.8 2.2 9 1.9 10.8-2 12.4-3.8 1.6-5.6 5.4-5.6 11.6q0 6.15 3.6 2.4c1.8-1.8 4.4-2 4.4-.3 0 1.5-3 4.8-4.4 4.8-.6 0-2.4 1.1-3.9 2.6-2.1 2-2.8 2.2-3.3 1.1-1-2.7-4.3-.7-5.5 3.4-.9 3-.9 4.2 0 5.3 1.3 1.6.7 3.6-1.1 3.6-.6 0-2.5 1.6-4.2 3.5-2.3 2.5-3.8 3.3-5.2 2.9-1.3-.3-2.8.1-3.8 1.1-2.1 2.2-2 11.5.3 16 1.5 3.1 2.9 8.9 3.8 16.2.3 3 1 4.3 2.1 4.3 1.2 0 1 .6-.9 2.6-2 2.1-2.4 3.8-2.9 11.2-.3 4.8-.1 10 .3 11.5.6 1.9.5 3.8-.4 6-.8 1.8-1.3 3.6-1.1 4.1.2.4-.4 1.9-1.3 3.2-.8 1.3-1.2 2.4-.7 2.4s2.1 1.1 3.6 2.5c2.3 2.1 2.5 2.7 1.4 4.5-.7 1.1-1.8 2-2.4 2-1.4 0-2.7 4.7-1.8 6.2 1.1 1.8.5 9.7-1 12.6-.7 1.5-1.7 6.1-2.1 10.2-.4 4-1.7 9.4-2.8 12-1.1 2.5-1.9 4.9-1.8 5.3.1.5-1.2 3.6-2.9 7-1.6 3.3-3 6.1-3 6.3 0 .1 1.2.5 2.6.8 2.1.6 2.4.9 1.4 2.1-.8.9-2.1 1.3-3.5.9-1.6-.4-2.7.1-3.9 1.7-2.3 3.3-2 5.1 1.6 11.1 1.8 2.9 3.3 5.4 3.4 5.6s1.3-.4 2.6-1.2c1.4-.9 2.8-1.3 3.1-.9 1.1 1 .8 15.7-.3 19-1.7 4.7-5 5.7-11.2 3.2-5-1.9-5.3-2-6.5-.3-.7 1-1.3 3.3-1.3 5.2 0 2.8.3 3.2 1.9 2.7 1.4-.4 2 0 2.4 1.7 1 3.5-.9 4.5-3.6 2-1.3-1.2-2.9-2.2-3.5-2.2-.7 0-1.5-.7-1.8-1.5-.4-.9-1.9-1.5-4-1.5-3.3 0-3.9-.5-8.9-6.2-.8-1-1.5-3-1.5-4.5 0-3.6-3.5-18.2-5.5-23-.9-2.1-2.5-4.7-3.6-5.9-2.4-2.6-3.5-6.7-4.9-18.3-.9-8.4-2.3-10.9-4.7-8.9-.7.5-2.4.8-3.7.4-3.3-.8-7 2.3-8.4 7.3-1.8 5.9-5.8 10.2-8.7 9.5-1.7-.4-2.6 0-3.3 1.3-1.2 2.3-2.2 12.7-3.1 32.3-.8 16.8-1.7 20.7-3.6 15-1.7-5.1-4.1-6.1-6.9-2.8-6.1 7.7-9.2.5-10-23.1-.1-4.3-2.5-7.5-4.3-5.7-.4.4-1 5.1-1.3 10.3-.4 7.8-.8 9.8-2.3 10.7-2.8 1.7-3.7-.8-3.8-10.9 0-5-.6-10.8-1.3-13l-1.2-4-1.2 5.3c-.7 2.9-1.2 9.5-1.2 14.6 0 7.5-.4 9.8-1.8 11.6l-1.7 2.1-2.5-3.3c-2.4-3.3-2.5-3.9-2.1-15.8.1-1.9-.4-4.7-1-6.2-.9-2.2-.8-3.1.5-5 1.3-1.8 1.6-4.9 1.5-15.8-.1-23.1-1.2-34.2-3.7-37.7-2.7-3.8-3-12.8-.6-21 1.6-5.5 1.4-9.4-1.1-28.8-2.6-19.4-3.9-69.6-2.6-94.6.6-10.8 1.3-15.4 2.6-18 2.8-5.2 4.3-25.1 3.7-49.5-.2-11.7-.1-23.4.3-26l.7-4.9 1.4 2.7c.8 1.6 1.7 7.4 2.1 13.8.4 8 .9 10.8 1.7 10 .7-.7 1.1-9.1 1.1-25.3 0-21.7.8-39.1 2.1-45.5 1.1-5.6 10.4.5 10.4 6.9 0 1.7.5 4 1.1 5.1.9 1.7.8 2.4-.5 3.4-.9.6-2 2.5-2.5 4-.9 3.2.2 67.2 1.9 108.4 1 25.5 3.6 49.5 5.8 53.6.8 1.5 3 2.3 9.8 3.2 8.2 1.2 8.9 1.2 11.3-.6 3.4-2.5 3.5-4.5 2.2-34.2-.6-13.5-1.6-34.6-2.2-47-.5-12.4-1.5-28.1-2-35-.6-6.9-1.7-19.5-2.3-28-.7-8.5-1.6-16.3-2-17.2s-2-2.1-3.4-2.6c-8.3-2.9-9.4-8.2-1.8-8.2 4.8 0 5.1-.4 7-9.2l.6-2.7 15.3-.3c8.3-.2 18.4 0 22.2.4 11.5 1.2 24.1-1.7 25.1-5.8.3-1.2 1.2-2.5 2-2.8s2.2-2.2 3-4.1c1.2-3.1 1.4-10 .9-46.8-.3-23.8-.8-47.8-1.1-53.5-.5-9.1-.4-10.6 1.2-12.3 1.2-1.3 2.5-1.8 3.9-1.4 1.1.3 4.3 1 7 1.5m-448.7 19.5c-.3 4.2 1.1 5.5 6.3 5.5s6.1 1.6 4.4 7.3c-2.8 9.3-4.4 10.4-9.6 6.6-2.7-1.9-2.9-2.5-2.9-8.9 0-6-.2-6.9-2-7.5-1.6-.5-1.9-1.2-1.4-2.8.9-3.1 1.4-3.4 2.4-1.7.8 1.3 1 1.2 1-.3 0-.9.5-1.7 1.1-1.7s.9 1.5.7 3.5m97.5 6.1c1.1 1.2-1.3 4.4-3.4 4.4-1.4 0-2.5 1.3-3.9 4.4-1.4 3.4-2.6 4.6-5.3 5.5-1.9.6-5.3 2.7-7.5 4.7-4.1 3.5-5.1 5.8-5.6 13.3-.1 1.8-1.2 4.2-2.4 5.4-4.4 4.4-7-.6-7.1-13.9-.1-4.7.4-6.7 1.9-8.7 1.1-1.4 2.3-3.9 2.6-5.6.9-4.2 2.1-4.7 4.9-2.1 2.6 2.4 5 2.1 9.7-1.1 1.4-1.1 3.6-1.9 4.7-1.9 1.2 0 3.1-1.1 4.3-2.5 2-2.3 5.7-3.3 7.1-1.9m909.8 34.6c2.7 7.8 2.5 14.5-.6 19.1-3.4 4.9-5.2 4.8-6-.6-.3-2.3-1.3-5.9-2.2-7.9-1.5-3.7-1.5-3.9 1.1-7.6 1.4-2.1 2.6-4.5 2.6-5.3 0-1.6 2.1-4.1 2.8-3.4.3.3 1.3 2.8 2.3 5.7m-747.7 5.4c.3.9.7 78.2.7 171.7.2 174.6.6 203.6 3.2 214.8.9 3.5 1.9 8.2 2.2 10.4 1 6.2 17.5 31.7 23.8 36.8.8.7 2.4 2.7 3.7 4.5 1.2 1.8 4.5 5.1 7.2 7.3 2.7 2.1 7 6.7 9.5 10.1 2.5 3.5 6.5 8.3 8.9 10.8 2.4 2.4 4.4 5 4.4 5.7 0 2.6-4.1 3.5-12.9 2.9-4.7-.3-21.6-.8-37.6-1.1-15.9-.3-29.8-.8-30.7-1.1-1-.3-2.2-2.3-2.8-4.5-.8-2.7-.9-46.6-.6-144.2.5-132.7 1.3-181 3.6-216.7.5-8.5 1.5-33.5 2.1-55.5 1.2-43.2 1.6-48.4 3.9-49.5.8-.4 2.9-1.4 4.5-2.2 3.9-2.1 6.1-2.2 6.9-.2m-71 82.6c-.2 7-.6 9.4-1.8 10-2 1.1-2.1 4.7-.1 5.4 1.7.7 2 4 .4 4.9-2 1.3-3.3 6.1-3.3 13-.1 6.5-.3 7-2.4 7.3-2.2.3-2.2.3-1.7-10.4 1.1-21.6 2.9-32.4 5.5-32.4.6 0 1-1.6 1-3.5 0-2.3.5-3.5 1.3-3.5 1.1 0 1.3 2 1.1 9.2m-119 31c-.9 12.9-2.7 21-4.8 22.2-1.3.8-2 .7-2.9-.5-2-2.6-4.8-3.1-6.9-1.2-1.8 1.6-2 1.5-5.2-1.6-2.4-2.3-3.5-2.9-3.9-1.9-.3.7-.3-.1 0-1.8s0-4.1-.6-5.3c-.9-1.6-.8-2.7.4-5.1.9-1.6 2.1-3 2.8-3s2.9-1.2 4.8-2.6c2.7-2 4.3-2.5 7.9-2.2 4.2.3 4.5.2 5.4-3 .5-1.7 1.5-3.2 2.3-3.2 1.2 0 1.3 1.6.7 9.2M469 400.6c0 2.5 4 7.4 6 7.4 2.2 0 4.5 3.5 3.4 5.1-.4.7-2.3.8-5 .4-3.5-.5-4.4-.3-4.4.9 0 .8.4 1.8 1 2.1.5.3.8 2.6.6 5.2-.4 4.3-.6 4.7-4.2 5.9-7.5 2.6-10.9 1.7-12.4-3.5-1.8-6.4-.1-10.2 9-20.1 4.8-5.3 6-6 6-3.4m225.4 13.2c.3 1 .7 3.7.8 6.1.1 3.3-.3 4.7-1.7 5.8-2.4 1.7-4.4 9.1-4.5 16.3-.1 5-.2 5.3-1.5 3.5-.8-1.1-1.8-2.5-2.3-3-2.8-3.4-.1-18.9 4.7-26.8 2.5-4.1 3.7-4.6 4.5-1.9M590.6 422c0 2.7 3.3 7.8 5.3 8.5 2.2.7 1.8 3.5-.5 3.5-3 0-5.6 10.9-3.2 13.7 1.6 1.9 8.2 1.6 10.1-.5.8-.9 1.9-3.7 2.4-6.2 1-5.4 3.4-6.2 9.2-3.2 3.2 1.7 4.3 1.8 7.5.9 2.9-.9 3.9-1.8 4.3-4 1.3-6.3 4-.5 2.8 6.1-.8 4.5-3 8.2-5 8.2-.8 0-1.5.4-1.5.9s-.3 1.6-.6 2.5c-.4 1.1 0 1.6 1.4 1.6 4 0 4.3 11.1.6 25.5-1.4 5.6-2.7 13.7-2.9 18.5-.2 4.7-.7 9.5-1 10.7-.7 2.1-.4 2.3 3.1 2.3 4.8 0 5.6.6 7.9 5 4.2 8.2 3.7 15.9-1.5 22.1-2.4 2.9-3 3.2-4.4 2-.9-.7-1.6-2-1.6-2.7 0-2.3-2.6-1.6-3.8 1.1-1 2.1-.8 2.7 1.4 4.4 1.4 1.1 3.4 2.3 4.3 2.6 2.1.6 4.1 4.6 4.1 7.9 0 3.4-2 5.3-7.5 6.9-2.7.8-6.3 2.2-8 3.1-1.6.9-4.2 1.6-5.6 1.6s-4.1 1-6 2.3-5.4 3.1-7.9 4.1c-2.5.9-5.4 2.4-6.6 3.1-3.5 2.2-12.7 3.5-17 2.4-6.7-1.8-6.8-2.2-6.1-17.9.2-3.6.6-8.1 1-10s.4-5.7-.1-8.3c-.8-4.2-.7-4.9.9-5.8 1.1-.5 1.9-1.5 1.9-2.2 0-1.5 7.8-7.7 9.8-7.7.7 0 3.4-1.6 5.8-3.6 2.8-2.3 6.1-4 8.9-4.5 6.9-1.3 12-5.8 9.5-8.3-1.5-1.5-1.2-10.6.7-15.6.9-2.6 1.9-9.3 2.2-15.9.6-10.1.9-11.5 2.9-13.1 1.2-1 2.2-2.5 2.2-3.4 0-.8.9-2 2-2.6 2.2-1.2 2.6-4.9 1-8.1-1.4-2.6-2.3-2.4-4.3 1.1-1.5 2.4-2.5 3-5.3 3-4.7 0-7 1.3-9.7 5.6-2.5 4.1-9.9 7.3-18.3 8.1-4.5.4-5.4.2-6.8-1.8-2.3-3.3-2-6.6.6-8 3.1-1.7 5.6-4.9 6.3-8.2.8-3.3 2.7-3.1 3.6.4.5 2 .7 1.7 1.3-1.9.5-2.4.4-4.8 0-5.2-.5-.5-2.7-.5-4.9 0s-4.2.7-4.4.4c-.3-.3-.7-2.3-.8-4.4-.3-5.1 1.8-7.4 6.3-6.6 2.9.6 3.6.3 5.9-2.9 1.5-1.9 3.4-3.5 4.2-3.5 1.1 0 1.3-.7.8-3.1-.6-2.6-.4-3 1.2-2.7 1 .2 1.8 1 1.9 1.8m-124.5 9c2.1 1.2 2.5 4.4.8 8.7-1.3 3.4-2.6 4.3-6.1 4.3-3.2 0-3.4.7-1.3 4.6.8 1.6 1.5 3.7 1.5 4.7 0 .9.5 2.6 1.2 3.6.9 1.5.9 2.3-.1 3.5-1.8 2.1-3 2-5.7-.5-2.5-2.3-4.3-1-1.9 1.4 2.8 2.8 1.7 8.2-1.9 8.9-3 .5-4.2-2.5-2.7-6.8.7-2 1.3-6 1.2-8.9 0-4.6.3-5.5 2.5-7 2.3-1.5 2.4-2.1 2.1-7.8-.2-3.4 0-7 .5-8 1-1.9 6.7-2.4 9.9-.7m312.8 7.2c1.7 4.5 4.3 20.9 3.7 23.3-.3 1.3-1.6 3-2.8 3.6-3.2 1.7-4.4-.7-5.2-10.9-.7-8-.5-10.8 1.1-16.5.6-2.4 2.2-2.1 3.2.5m-397.8-.2c1 .6 1.9 1.7 1.9 2.6 0 1 1.1 1.5 3.8 1.5 18.1 0 29.8 2.3 35.4 6.8 1.9 1.6 2 2.3 1.2 5.2-.7 2.3-1.6 3.4-2.9 3.4-1.1 0-2.6 1.2-3.4 2.7-1.3 2.3-1.4 3.2-.2 6.4 1.1 3.1 1.1 3.8-.3 5.2s-1.6 1.3-2.4-.9c-.7-1.8-1-.1-1 6.2-.1 6.8.2 8.8 1.3 9.3 1.9.7 2.9-3.2 2.2-8.5-.3-2.1-.1-3.9.4-3.9s.9 4.4.9 9.7c-.1 8.5-.2 9.6-1.4 8-1.5-2-1.6-1.9-3.1 6.2-.6 3.1-.9 3.4-4.7 3.8-6.3.6-7.9 1.3-8.9 4.2-.6 1.6-2 3.2-3.2 3.5-4.8 1.3-6.8.6-11.1-3.9-2.5-2.5-5.1-4.5-5.9-4.5-.7 0-2.2-.9-3.1-1.9-1.6-1.8-1.6-2.1-.1-5 1.2-2.4 1.4-4.6.9-9.1-.6-5.3-.4-6 1.5-7.2 1.1-.7 2.1-1.9 2.1-2.7s1.1-3.4 2.5-5.8c2-3.3 3.2-4.3 5.2-4.3 2.3 0 2.5-.3 1.9-2.8-.4-1.5-.9-4.7-1.3-7.2-.3-2.5-1.1-4.8-1.7-5.2-1.9-1.3-3.4-.9-4.1 1.1-.8 2.5-3.1 3.4-5.6 2.1-2.8-1.5-2.3-3.7 1.1-5.5 3.8-1.9 4.1-5.5.6-5.5-2.7 0-4-2.2-2.3-3.9 1.3-1.3 1.4-1.3 3.8-.1m1220.4 14.6c1.6 2.7 2.9 6.7 3.2 10l.6 5.4-3.5 1.4c-1.9.8-5.4 3.6-7.8 6.2-3.8 4.1-4.5 4.5-5.5 3.1-3.1-4.3-2.4-17.5 1-21.7.7-.8 2-3.2 2.8-5.3 2.3-5.5 5.7-5.2 9.2.9m-24 7.6c0 3.6.3 7 .8 7.4 1.7 1.8.4 4.2-4.3 7.8-2.7 2-5.2 4.5-5.5 5.4s-3.2 3.5-6.4 5.7-6.8 5.4-8 7.3c-2.5 3.8-4.1 3.8-5.4-.3-.8-2.2-.6-3.1.6-4 1.4-1 1.3-1.2-.4-2.3-1-.7-1.9-2.2-1.9-3.4 0-2.1 0-2.1 2.1.3 1.7 1.9 2.2 2.1 2.9.9 1.4-2.2 1.2-2.7-1.2-4.4-2.2-1.5-2.1-1.7 8-11.5 5.6-5.5 10.2-10.4 10.2-11 0-2 4.1-5.2 6.3-4.9 2 .3 2.2.9 2.2 7M766.9 459c3.2 4.4 4.8 11.8 3.2 14.9-1.4 2.4-7.2 6.1-9.8 6.1-1.1 0-4.5 1.3-7.6 3-3.1 1.6-6.1 3-6.6 3-1 0-12.5 5.2-33.9 15.6-6.3 3-12 5.4-12.8 5.4s-3.7 1.1-6.6 2.5c-9.1 4.4-12.3 2.9-12.2-6 .1-3.3 1.2-7.9 3.1-12.7 1.7-4.1 2.9-8.6 2.7-9.9-.3-1.3 0-3.1.6-3.9.9-1.3 1.4-1.1 3.3 1.1 2.1 2.6 9.5 6.9 11.7 6.9.6 0 2.6-1.1 4.4-2.5s4.1-2.5 5-2.5c1 0 3.6-1.1 5.9-2.4s5.8-2.9 7.8-3.5c2-.7 5.3-3 7.3-5.2l3.6-4.1-2.2-1.8c-3.2-2.5-1.8-3.4 5.5-3.5 3.4-.1 7.2-.6 8.3-1.3 1.2-.6 2.4-.9 2.7-.6s1.8-.1 3.4-1c1.5-.8 4.5-1.5 6.5-1.6 3.3 0 4.2.5 6.7 4m-414.5 41.6c3.7.5 5 1.2 5.8 3 .6 1.3 2 2.4 3 2.4 2.8 0 2 5.2-.9 6.5-1.6.7-2.3 1.8-2.3 3.7 0 1.8-.5 2.8-1.5 2.8-.8 0-1.5-.5-1.5-1 0-.6-1-1-2.3-1-1.5 0-2.9-1.1-4-3-1.6-2.7-2.3-3-6.8-3H337l.1-3.3c.1-2.1 1.1-4 2.8-5.4 2.8-2.4 4.9-2.7 12.5-1.7m43 12.3c2.2 2.4 2.5 8.9.6 10.2-.8.5-2.7 1.2-4.2 1.6-2.4.5-2.8 1.1-2.8 3.8 0 3.7-2.6 6.7-4 4.6-.4-.8-.6-3-.3-5 .2-2 0-5.6-.5-8-1.3-5.3-.8-6.7 2.6-8 4.2-1.5 6.7-1.3 8.6.8m1057.5 8c1.1 1.1 3.2 2.1 4.7 2.3 4 .4 4.1 2.6.2 4.3-1.8.8-4.6 2.3-6.2 3.4l-2.9 2-3.4-2.6c-2.4-1.8-3.3-3.3-3.3-5.4 0-5.2 7.1-7.8 10.9-4m-39.8 10.5c1.9.8 4.3 2.3 5.3 3.4 1.7 2 1.7 2.1-.1 3-1 .5-4.4 1.3-7.5 1.6-3.3.4-6.8 1.6-8.3 2.8-1.6 1.2-5.1 2.3-9.5 2.9-3.7.4-10.9 2-15.9 3.4-9.7 2.7-13.4 2.4-14.5-1.3-1.7-5.1 5.2-11 12.9-11.2 1.7-.1 6.6-1.4 11-3 9.2-3.3 20.9-4 26.6-1.6m-364.3 21.4c1.3 2 1.7 4.6 1.5 11.7-.1 4.9-.2 15.1-.2 22.5-.1 14.2-1 17.7-4.3 16.5-.9-.4-2.8-3-4.1-6-2-4.1-2.6-6.9-2.6-12.4 0-3.9-.8-9.8-1.7-13.1-1.4-5-1.5-6.9-.5-11.8.6-3.2.8-7.3.5-9.1-.5-2.1-.3-3.6.5-4 1.7-1.1 8.9 2.7 10.9 5.7m297.4-3.4c4.1 5.2 2.3 7.6-6 7.6-1.8 0-4.9.7-6.9 1.5-1.9.8-4.7 1.5-6.2 1.5-3.1 0-10.3 1.6-26.9 5.9-6.7 1.8-13.1 2.9-14.1 2.6-4.2-1.3-3-6.6 2.2-9.9 2.3-1.5 13.8-4.7 26.7-7.3 4.1-.9 10.7-2.4 14.5-3.4 10.8-2.8 13.5-2.5 16.7 1.5M514 579.1c0 2.7-4.3 6.6-8.3 7.3-1.8.3-5.6 1.7-8.5 3.1-5.1 2.4-13.2 3.4-13.2 1.7 0-1.3 9.2-7.5 14.5-9.8 2.8-1.1 6.5-3 8.4-4.2 3.9-2.4 7.1-1.5 7.1 1.9m840.5 29.4c1.2 13.8 1.3 18.6.4 20.7-1.4 3.4-2.4 3.5-4 .7-.8-1.5-.9-7.6-.5-20.3.3-9.9.5-18.8.6-19.6 0-.9.3-1.1 1-.4.5.5 1.6 9 2.5 18.9m17.3-14.3c1.1 1.9 2.3 6.2 2.7 10.3.4 4.4 1.4 8 2.7 9.8l2 2.8-2.7 3.4c-4.7 6.2-7.6 4.3-7.9-5.1-.2-3.8-.6-9.5-1.1-12.6-.5-4-.4-6.7.5-8.8.7-1.6 1.4-3 1.5-3 .2 0 1.2 1.5 2.3 3.2m-671.5.7c.8.8.7 1.7-.3 3.5-1 2-1 3.9 0 10.4 1.7 11.2 0 15.2-6.5 15.2-2.8 0-3.7-.6-5-3-1.9-3.6-1.9-11.7-.1-16 1-2.4 1.1-4 .3-6-1.6-4.3.5-6.3 6.1-5.7 2.4.3 4.9 1 5.5 1.6m47.6 2c1.6 1.6 1.7 2.5.8 7.1-.7 3.9-.7 6.9.2 11.6 1.3 6.4 1.3 6.5-2.3 17.9-2 6.1-2 13.1-.1 16.5.9 1.6 1.2 4.1.8 7.2-.5 4-.1 5.8 2.5 11 2 4.3 3.2 8.6 3.7 13.6l.7 7.2-6.1 6.1c-5.8 5.7-6.1 6.2-6.3 11.2-.1 4.9-.2 5-.5 1-.2-2.3-1.5-6.3-2.8-8.8l-2.4-4.5.4-45.8c.5-51.3.7-53.2 6.5-53.2 1.7 0 3.8.8 4.9 1.9m-305.1 11.3c.7.7 1.2 2 1.2 2.9 0 2.1-7.7 8.9-10.1 8.9-.9 0-2.2.7-2.9 1.5-.8.9-3 1.5-6 1.5-9.5 0-14.1 1.1-15.1 3.6-.5 1.4-1.7 2.4-2.9 2.4-1.6 0-2-.7-2-3.3 0-4.4 1.4-5.6 5.9-5 3 .4 4.3 0 6.8-2.1 1.7-1.4 3.6-2.6 4.2-2.6.5 0 2.5-1.3 4.3-2.9 5.9-5.2 14-7.5 16.6-4.9m-296.6 24.3c1.6 2.8-.9 35.2-2.9 37.6-.6.8-1.7 3.7-2.4 6.4-.7 2.8-1.8 5.9-2.6 7-1 1.5-1.1 4.2-.7 11.2.6 8 .5 9.6-1 11.2-2.1 2.3-8.3 3.6-10.1 2.1-1.7-1.4-2.6-6.5-1.6-9.3.5-1.2 1.2-15.5 1.6-31.7.5-21.8 1-29.9 2-31 .7-.8 1.6-2.5 1.9-3.7.6-2 1.3-2.2 7.8-1.9 5.6.2 7.2.6 8 2.1m1108.2.8c.9 1.3.7 2.5-.9 5.4-3.1 5.6-6.7 7.8-13.1 7.8-6.1 0-6.9-1.2-2.3-3.9 1.6-1 4.5-3.4 6.2-5.3 5.4-6 5.9-6.4 7.5-6.1.8.2 2 1.1 2.6 2.1m351.6 7.1c.5 1.3 1.1 7.7 1.5 14.2.4 8.7 1 12.3 2.1 13.6.9.9 1.8 3.6 2.1 6 .4 4 .2 4.4-3.1 6.5-4.7 3-10.6 3.1-10.6.3 0-1.4.7-2 2.4-2 1.3 0 2.6-.6 2.9-1.3.7-2.2-.4-3.7-2.9-3.7-1.3 0-2.5-.6-2.5-1.3-.1-.6-.3-3.4-.5-6-.2-2.7-1.2-7.6-2.4-10.8-2.7-8-2.6-12.4.5-15.4 3.4-3.4 9.2-3.5 10.5-.1m-910.6 10.2c3.6 1.8 5.2 5.6 3.8 9.3-1.1 2.8-6.9 7.4-7.7 6.1-.4-.6-1.7-1.5-3-2-1.7-.6-2.4-1.9-2.9-5.3-.8-5.2 0-7.6 2.8-8.7 2.9-1.2 3.1-1.2 7 .6m428.8 20.7c1 1.2 1.8 3.3 1.8 4.7 0 3.2 5.9 8.1 8.7 7.4 3.8-1 6.2 5.3 3.6 9.7-1.4 2.3-2 2.6-3.7 1.7-3.4-1.5-7.6.6-7.6 3.7 0 2-.5 2.5-2.4 2.5s-2.5-.6-2.8-2.8c-.2-2.2-1-2.9-4-3.6-2-.5-3.8-1.6-4.1-2.5-.2-.9-1.6-2.2-3-3-3.5-1.9-8.1.1-7.1 3.1.4 1.4 0 2.1-1.4 2.5-1.2.3-2.3 1.2-2.6 2-.5 1.2-1 1.1-3.1-.4-2.6-1.9-3.4-7.4-1.5-10.3.9-1.3 1.2-1.3 2.4.2 2 2.7 2.6 2.2 2.6-2 0-5.9.9-8 3-7.5 1.2.3 3.6-.9 6.7-3.5 2.6-2.2 5.5-4.2 6.3-4.5 2.5-1 6.4.3 8.2 2.6m441.2 1.8c3.2 1.5 3.3 2 4.1 12.1.5 5.4.3 9.3-.5 11.3l-1.1 2.9-3.9-4.1c-3.8-4.2-3.9-4.3-3.8-12 .1-6.8 1-11.3 2.3-11.3.2 0 1.5.5 2.9 1.1m-409.3 19.5c1.7 2.1 1.6 11.9-.2 16.6-1.4 3.9-2.3 4.6-3.4 2.8-.3-.6-1.4-1-2.4-1s-2.1-.9-2.4-2-2-2.7-3.9-3.4c-2.9-1.3-3.6-1.2-6 .1-2.4 1.5-2.8 1.5-4.5-.2-1.3-1.3-1.4-2-.5-2.3.6-.2 1.2-1.2 1.2-2.2 0-2.7 2.8-4.6 4.9-3.3 1.7 1 4.6-.6 9.1-5.2 1.9-2 6.4-1.9 8.1.1m-113.1 2.9c1 1.2 1 2.1 0 4.5-.8 2-1 4.7-.6 7.8 2.4 16.3 2.6 28.7.4 30.9-1.4 1.3-2.2 1.5-4 .6-1.3-.6-3-1.3-3.9-1.6-1.4-.4-1.5-1.8-1.1-8.4.2-4.3.8-8.2 1.2-8.6.4-.5.6-6.4.3-13.2-.5-12.3-.5-12.3 1.8-12.8 4.2-.8 4.6-.7 5.9.8m49.3 8.6c-.2 1.9-.4 4.1-.4 4.9-.1.8.5 4.2 1.4 7.5 3 11.6 3 12 .1 15.4-2.2 2.6-3.2 3.1-6.4 2.9-3.3-.3-3.7-.5-2.8-2.1 1.3-2.5-.8-8.4-3.7-10.3-3.3-2.2-8.9-1-8.2 1.6.3 1.1-.3 2.6-1.4 3.6-1.8 1.6-2.1 1.6-3.5.2-2-2-2.2-8.1-.4-10.3 1.2-1.4 2.5-1.6 7.6-1 7.6.8 9.8-.7 8.4-5.6-1.1-3.6-.6-4.9 1.8-4.9.9 0 2.5-1.4 3.5-3.1 2.2-3.9 4.3-3.3 4 1.2m204.1 7.8c.9 1 2 4.2 2.5 7 .7 4.3.5 5.6-1 7.5-1.7 2.2-2.5 2.3-15.1 2.3-12.3.1-13.7.3-19.1 2.8-5 2.3-6.7 2.6-10.9 2.1-4-.6-5.6-.3-8.5 1.4s-5 2-12.1 1.9c-4.8-.1-13.9.3-20.2 1-11.6 1.1-25 .6-28.2-1.1-1.5-.7-1.8-2.3-1.8-9.3 0-8.8 1.2-13.1 3.9-13.9 2.3-.8 25.6-1.7 59.1-2.6 51.7-1.2 49.5-1.2 51.4.9M40.2 722.6c.4 7.5-1.5 29.8-3.3 38.1-1 5.1-1.9 12.1-1.9 15.6 0 8.4-1.5 16.8-4.5 24.7-1.3 3.6-2.6 7.7-3 9.3-.5 2.3-.8 2.6-2.4 1.7-1.1-.5-1.8-1.8-1.6-2.7.2-1 .7-3.9 1-6.6.4-2.6 1.4-5.5 2.5-6.5 1.6-1.5 1.8-3.5 1.9-16.7 0-13.6.7-21.8 3.1-40 .5-3.3 1.1-7.1 1.4-8.5s.8-4.2 1.1-6.2c.6-4.1 3.2-7.5 4.7-6 .5.5.9 2.2 1 3.8m94.6-3.7c1.1.7 1.2 2.9.4 12-.6 6.2-1.6 11.8-2.2 12.6-2.8 3.3-3.6 11.2-3.3 32.5.2 13.6-.1 22.5-.8 24.2-1.2 2.9-9.1 7.3-11.5 6.4-1.8-.7-1.8-2.6.5-14.3 1.8-9.1 2.5-20.6 3.5-56.8.4-12.8 1-15.3 3.9-16.5 2.9-1.1 7.8-1.2 9.5-.1m-68 3.2c2.3 2.8 2.3 3.3 1.3 9.7-.6 3.7-1.6 15.5-2.2 26.2-.6 10.8-1.7 20.9-2.4 22.5-.6 1.7-1.6 9.1-2 16.5s-1.1 14-1.7 14.7c-.7.8-1.7.9-3.9.1-3.1-1.1-3.5-2.3-2-6 .5-1.3 1.5-7.7 2.2-14.3s2.1-14.2 3.1-16.9c1.6-4.1 1.9-7.7 1.8-25.2 0-11.2-.2-21.4-.5-22.7-.8-2.8 1-7.7 2.7-7.6.7 0 2.4 1.3 3.6 3m29.5.9c10.5 0 11.7.2 11.7 1.7 0 1-.7 2.7-1.5 3.7-1 1.3-1.5 4.4-1.5 8.8 0 7-.9 9.8-5.5 17.3-3.1 5-3.1 7.7-.2 11.6 2 2.8 2.2 4.4 2.5 16.2.1 7.3.3 14.1.4 15.2s.1 3.2 0 4.6c-.2 2.6-.2 2.6-3.9 1.3-5.3-1.8-7.6-1.7-9.6.6-1 1.2-2.9 2-4.9 2-1.7 0-4.7.5-6.5 1.2-4.4 1.6-5.3.3-5.3-7.7 0-9.2 2-34 3.5-43.5.8-4.7 1.7-13.7 2.1-20 .7-12.2 1.5-14.5 4.8-13.6 1.2.3 7.4.6 13.9.6m1099.6 23.4c.6.8 1.1 1.8 1 2.2-.1.5-.1 1.5 0 2.2.2 2 2.1.3 2.1-1.8 0-2.5 3.3-4.2 7.3-3.8 2.8.3 3.3.8 4.1 4.1.7 2.6.6 4.4-.1 5.5-1.3 2.3-8.3 6.2-10.9 6.2-1.1 0-2.9.9-3.9 2-2 2.3-7.7 2.7-9.2.7-1.7-2.1-4.4-11.7-3.7-13 2.2-3.8 4.9-5.7 8.5-5.7 2 0 4.2.6 4.8 1.4m103.7 2.7c1.4 1.2 2.5 13.6 1.4 16.5-1.2 3-5.7 3.4-44 3.7-28.4.2-31.5 0-31.8-1.4-.2-1.1.8-2.1 2.5-2.8 1.5-.6 6-2.9 9.8-5.1 7.1-4 7.6-4.2 13-6.6 1.7-.7 4.3-2.4 5.8-3.6 2.4-1.9 4.3-2.3 14.5-2.8 12.4-.5 26.9.5 28.8 2.1M49.3 787.5c-.3 3.8-.9 7.8-1.4 8.7s-.9 4.3-.9 7.6c0 4.7-.4 6.3-2 7.7-1.8 1.7-2.2 1.7-3.6.4-1.3-1.3-1.3-2.6-.3-9 .6-4.1 1.8-8.2 2.7-9.2s1.9-4.8 2.3-9c.4-3.9 1.1-8.8 1.6-10.7l.7-3.5.7 5c.4 2.7.5 8.1.2 12m478.7-6c1 1.2 1.3 12 1.1 49.3-.2 50.9-.9 99.3-1.7 102.9-.3 1.8-1.3 2.2-6.6 2.8-3.5.4-13 1.8-21.3 3.1-8.2 1.3-17.2 2.4-20 2.4-2.7 0-7.9.5-11.4 1.1-5.8.9-6.8.8-9-.9-1.4-1-4.1-4.7-5.9-8.2-7-13.5-14.6-22-24-27.1-4.8-2.6-6.4-3-10.5-2.5-2.6.3-6 1.4-7.6 2.5s-4 2.5-5.4 3c-1.4.6-4.3 3.6-6.4 6.7s-5 7.6-6.5 9.8c-1.5 2.3-4 6.5-5.4 9.4-3.3 6.5-5.9 8.2-8.4 5.6s-9.7-13.1-19.9-28.9c-1.4-2.2-3.6-5.3-4.8-6.8s-2.7-4.5-3.3-6.5-2.4-5.3-4.1-7.2l-3-3.5-11.5.3c-11.1.2-14.4-.4-14.4-2.9 0-.4 2.2-2 4.8-3.4s5.5-3.8 6.4-5.2c2.1-3.6.6-9.1-4.1-14.5-2.1-2.4-5-6.5-6.7-9.2-1.6-2.6-4.1-6.7-5.6-9-1.6-2.2-3.4-5.5-4.2-7.2s-2.2-3.7-3.1-4.4c-2-1.7-5.5-8.3-5.5-10.5 0-2.1 2.7-3.1 14-5 5.2-.9 11.3-2 13.5-2.5s6.7-1.2 10-1.5 9.6-1.6 14-2.9c9-2.6 26.6-6 40-7.6 5-.6 12-1.8 15.8-2.6 3.7-.9 12.7-2.4 20-3.4 13.5-2 28.9-4.8 40.9-7.6 3.6-.8 11.7-2.1 18-2.9 6.2-.7 12.4-1.7 13.8-2.3s5.9-1.6 10-2.2c4.1-.7 8.2-1.3 9-1.5 4.1-.8 7.9-.3 9 1m313.7 13.7c4 2.1 5.3 4.1 5.3 8.1 0 1.1.7 3.5 1.7 5.4 1.5 3.3 1.5 3.8-.6 10.1-1.2 3.7-2.1 7.6-2.1 8.7 0 2.6-1.1 4.2-3 4.3-.8.1-2.7.4-4.1.8-2.1.4-3.2 0-5.1-2.1-2.9-3.1-3.8-8.2-3.8-22.3 0-9 .1-9.5 2.9-12.3 1.6-1.6 3.3-2.9 3.8-2.9.4 0 2.7 1 5 2.2m25.3 1.3c1.8.9 3.1 2.6 3.5 4.5 1.2 5.2 2.7 6 12.5 6 8.1 0 8.9.2 9.5 2 .9 2.9-1.5 6.2-7.2 10.1-4.3 2.9-5.6 3.3-13.5 3.6-5.2.2-8.8 0-8.8-.6 0-.5-1.6-1.8-3.5-3-3.4-2-3.5-2.2-3.5-8 0-7.3 1.3-10.9 4.8-13.8 3.3-2.7 2.7-2.6 6.2-.8m609.6 42.9c1.6 1.8 2.2 4.2 2.7 11.5.4 5.1 1.1 10 1.6 10.9 1.3 2.7.2 4.2-4.6 6.3-5.2 2.2-10.6 1.4-13.8-2.1-2.2-2.4-3.1-1.9-5 2.6l-1.4 3.5-7.3-.3c-6.6-.3-7.4-.5-8.7-2.9-1.5-2.8-1.2-4.1 3.1-13.5.5-1.1.8-3.4.6-5-.2-2.3-1-3.1-3.8-4-3.8-1.2-5.1-4.2-2.7-6.2.8-.7 4.1-1.5 7.3-1.8 5.2-.6 6.1-.4 7.8 1.5 2.9 3.2 7.7 2.8 9.8-.8 2.6-4.7 10.2-4.5 14.4.3m-215.6-.2c3 2.1 5.2 6.3 6.7 12.6.6 2.5-4.3 16.2-5.7 16.2-1.3 0-5.2 7.2-4.3 8.1.4.4 3.1 1.2 5.8 1.6 4.7.8 5 1 5.3 4 .4 4.5-2.2 5.6-14.3 5.8-5.5.1-11.2.5-12.7.9-5.9 1.7-7.1-1.5-9.4-24.1-.7-6.8-1.5-8-6.1-8.9-2.6-.5-3.1-.2-3.6 1.8-1.1 4.1-.7 8.2 1.3 12.7 2.4 5.2 2.5 7.8.4 13.1-1.8 4.6-8.5 10-12.3 10-3.9 0-10.9-4.7-13-8.8l-1.9-3.7-1.7 3.9c-2.6 6.2-7.3 10.6-11.3 10.6-6 0-9.7-2.6-13.3-9.3-3.2-5.9-3.3-6.8-3.7-18.8-.5-14 .2-17.5 4.6-22.8 2.3-2.6 3.7-3.4 7.5-3.8 4.3-.5 4.9-.3 8.2 3 3.9 3.9 4.4 6.6 1.6 9.1-1.9 1.7-2.1 1.7-4.9 0-3.9-2.2-6.4-1.3-6 2.3.3 3.1 3.8 4.4 6.3 2.3 1-.9 1.5-.7 2 .9.3 1.1 1.9 3 3.5 4.1 1.6 1.2 3.7 3.4 4.7 5 2.1 3.7 2.7 3.7 4.1.5 1-2.1.9-4.1-.3-9.4-1.5-6.4-1.5-7.2.3-12.2 1.6-4.6 2.3-5.6 5.3-6.6 5.9-1.9 11.7-.2 15.7 4.6l3.4 4.1 3-1.7c1.7-1 4-3.3 5-5.1 1.1-1.7 2.5-3.2 3.1-3.2 1.7 0 4.7 3.1 4.7 4.9 0 .9.4 2.2.9 3 1 1.6 2 .9 6.9-4.3 4.8-5.1 9.1-5.8 14.2-2.4m170.2 4.4c1.8 4.1 3.7 12.4 5.5 23.1.6 3.7-1 4.9-5.3 3.9-3.2-.8-5.4-5.8-5.4-12.4 0-5.4-1.9-8.9-4.3-7.9-1.3.5-1.7 2.5-1.9 10.8s-.6 10.4-2 11.3c-1.3.8-2.1.6-3.6-.7-1.7-1.6-2.2-1.6-4.8-.3-1.6.8-5.5 2-8.6 2.7-5.6 1.2-5.8 1.1-9.3-1.5-2.5-1.9-3.9-4.1-4.7-7.2-.9-3.3-1.8-4.6-3.6-5.1-3.3-.8-4.4.8-5.4 7.8-.4 3.4-1.3 6.8-2 7.6-2.4 2.9-9.8-1.3-9.8-5.6 0-.9-1.1-3.2-2.4-5s-2.7-4.7-3-6.6c-.4-1.8-1.3-3.8-2.1-4.5-1.2-1-1.6-.7-2.5 1.5-1.3 3.4-1.3 5.3.2 13.1 1.5 8.2.9 8.9-8.8 9.8-9.4.9-11.2-.1-14.8-8-3.3-7.1-3.4-14.1-.3-20.4 3.1-6.4 6.1-7.8 12.9-6.1 2.9.7 7.7 1.3 10.6 1.2 6.9-.2 8.9 1 10.3 6.2.7 2.3 1.6 4.6 2 5.1 1.3 1.5 4-1.5 6.5-7.1 1.3-2.8 2.8-5.4 3.4-5.8.6-.3 2.5.3 4.3 1.4l3.2 2 2.3-3.5c2.1-3.2 2.6-3.4 7.5-3.4 7.4 0 10.1 1.6 10.5 6.3s2.7 4.5 2.8-.2c.1-1.7.4-3.4.7-3.7 1.5-1.6 8.8-3.3 14-3.4h5.8zm81 11.3c1.5 1.4 2.8 3.2 2.8 3.9 0 2.2-3.9 7-6.3 7.8-1.2.4-4.1 2.6-6.4 5-5.3 5.6-7.8 5.9-7 .7.7-4.3 1.4-5.1 4.7-5.6 1.4-.2 3.1-1.5 3.7-2.8 1.5-2.9 1.7-7.5.3-8.4-1.7-1-1.1-2.5 1.3-3.4 2.5-1 3.2-.7 6.9 2.8m-1416 6.3c-.9 1.7-3.4 4.4-5.4 6.1-2.1 1.7-3.8 3.8-3.8 4.8 0 .9-2.2 3.7-5 6.2-2.7 2.5-5 5.2-5 6.1s-.7 2.7-1.5 4c-1.4 2.1-1.9 2.2-4 1.2-3.7-1.7-3.7-3.1 0-8.6l3.5-5.1-2.1-4c-1.1-2.2-2.6-4.2-3.4-4.6-3.6-1.3-.3-7 3.3-5.9 1.3.4 2.2.1 2.6-.9.4-1.1 2-1.5 5.4-1.5 2.6 0 5.2-.4 5.8-.9 1.2-1.3 8.6-1.8 10.1-.7 1 .6.9 1.5-.5 3.8m68 80.5c4.9 5.4 5.8 7.5 5.8 13.9 0 5.1-.4 6.5-2.6 9-3.3 3.8-4.5 6.8-3.8 10.1.3 1.6.6 3.9.8 5.3.1 1.4 1.1 4.3 2.1 6.5 2.3 4.8 2.3 11.6.1 16.8-1.5 3.4-1.5 4-.1 6.8 2.1 4 3.2 23.4 1.5 28.3-.6 2-1.8 3.6-2.6 3.6-1.9 0-9.8-4.5-11.4-6.5-1.6-1.9-4.4-1.9-6 0-1.7 2.1-5.4 1.9-7.5-.5-1-1.1-2.9-2-4.2-2s-3.6-.9-5.1-1.9c-1.5-1.1-5.6-2.5-9.2-3.1-4.9-.9-7.1-1.8-8.8-3.8l-2.2-2.6 2.8-3c1.6-1.7 3.8-5.6 4.8-8.6 2.5-7.2 10-16.2 13.2-15.7 1.2.3 2.2-.1 2.2-.8 0-1.5 8.6-3.4 12.7-2.8 4.1.7 5.3-1.7 2.9-5.8-.9-1.5-1.6-4.4-1.4-6.4.1-2.4-.3-3.9-1.6-4.8-2.1-1.5-2.7-9.4-.8-10.6.5-.3 1.5-2.5 2.1-4.7.6-2.3 1.8-4.7 2.6-5.4s2.6-3.7 4-6.8c3.7-8.1 5.5-8.9 9.7-4.5m459 29.5c.9 1.7 1.4 9.1 1.5 26.9l.3 24.6-2.5 2.3c-2.2 2-3.1 2.2-8.6 1.7-3.7-.3-7.6 0-9.8.7-6 2-37.7 1.4-40.6-.8-1.9-1.4-1.9-1.5-.1-3.5 2.1-2.3 1.5-7.1-.8-7.1-.7 0-2-1.8-2.9-4-1.5-3.9-1.5-4.1.4-5.9 1.1-1 2.8-3.4 3.8-5.2 1.6-2.9 1.7-4.2.8-8.5-1.3-6.4 1-12.3 5.7-14.6 3.6-1.8 16.6-3.8 24.9-3.8 3.8 0 7.3-.7 10.2-2.1 3.4-1.6 5.8-2 9-1.6 2.5.2 4.8.1 5.1-.4.9-1.5 2.3-1 3.6 1.3m-362.6 65.2c1.2 1.7 3.3 3.8 4.8 4.5 1.4.8 3.7 3.3 5.1 5.7 1.3 2.3 4.8 6.1 7.7 8.5 2.9 2.3 7 6 9.1 8.2 3.6 3.9 3.9 4 8.9 3.4 6.8-.8 8.8.8 8.8 7.1 0 5-2.1 8.2-5.2 8.2-2.2 0-9.4-3.5-10.3-5-.3-.5-1.6-1-2.8-1-3.5 0-32.9-9.3-35.4-11.3-1.7-1.2-1.8-29-.2-33.6l1.1-3.1 3.1 2.6c1.8 1.5 4.2 4.1 5.3 5.8m515.2-3c2.9-.4 4.2-.1 6 1.6 2.4 2.2 2.4 2.4 2.2 14.5-.1 7.5-.3 8.4-3.7 13.3-3.7 5.4-5.6 6.2-6.1 2.4-.2-1.5-1-2.2-2.6-2.2-4.6 0-5.7-2.8-5.7-14.9 0-6.1.3-12.2.7-13.5.5-2.2.9-2.4 3.1-1.5 1.3.5 4.1.6 6.1.3m-152.4 11.1c1.6 3.8.9 7.6-1.6 9.1-3 1.9-14.2-.6-15.2-3.3-.8-2 2.1-5.3 4.5-5.3 1 0 2.1-.5 2.4-1 .3-.6 1.7-1 3-1s2.7-.5 3-1c1.1-1.9 2.5-1 3.9 2.5m111.2 32c1.9 1.4 1.9 1.5-.3 5.4-1.3 2.2-2.3 4.8-2.3 5.7 0 2.7-3.1 5.4-6.2 5.4-2.4 0-4.6-.9-8.6-3.6-.9-.6-2.2-8.8-1.7-10.4.3-1 1.8-2.3 3.3-2.9 4.2-1.5 13.5-1.3 15.8.4m-219.1 44.6c1.7.5 4.1 2.5 5.5 4.5l2.5 3.7-2.3 1.5c-1.2.8-2.2 2.4-2.2 3.6 0 5.2-6.9 10.2-12.6 9.1-8.2-1.5-12.1-9-8.6-16.8 2.9-6.6 4.5-7.7 10-7.1 2.6.3 6.1 1 7.7 1.5"/><path d="M1147.4 157.2c-.8 1.2-.8 6.4.1 13.7l.7 5.8 5.1.6c5.7.7 6.2.4 7.1-5.6 1.1-6.6-.7-9.8-6.9-12.9-3.2-1.5-5.7-2.2-6.1-1.6M1151.5 209c-1 3.2-.8 15.1.3 16.2 1.6 1.6 8.8 2.2 9.7.7 1.2-1.9 1.4-11.9.3-14.8-1.2-3.2-2.5-4.1-6.5-4.1-2.3 0-3.3.5-3.8 2M1333.5 239c-1.6 1.7-2.6 2-6.2 1.4-4.7-.7-5.6.5-2.9 4.2 1.3 1.6 1.8 1.7 3.5.6 1.2-.6 2.3-1.2 2.6-1.2.9 0 .6 5.8-.3 6.4-.5.3-.4 3.1.1 6.2.7 3.8.7 6.5 0 8.3-1 2.8-.1 7.1 1.6 7.1 1.3 0 2.1-3.9 1.4-7.1-.4-2.4-.1-3 2-3.8 1.4-.6 2.8-1.9 3.2-3 1.3-4 6.1-4.2 14-.6 3.9 1.8 6.3 2.2 10.8 2 6.4-.4 7.7-1 7.7-3 0-3.6-2.6-6.7-7.4-8.9-7.3-3.2-17.7-6.6-20.3-6.6-1.3 0-3.2-.9-4.3-2-2.5-2.5-3.2-2.5-5.5 0M1380.5 257c-.8 1.4.3 3 2.1 3 1.3 0 3.3 3.5 4.8 8.2.4 1.5 1.7 1.8 6.5 1.8 5.6 0 6.3.3 9.4 3.5 2.8 2.9 4 3.5 6 3 1.4-.4 3.3-1.8 4.2-3.1 1.2-1.8 2.5-2.4 5.3-2.4 7.7 0 7.5-2.2-.4-5.3-2.3-.9-5.8-2.7-8-4.2-2.8-1.9-4.5-2.4-6.6-2-1.9.5-3.8 0-6.2-1.4-2.5-1.6-5-2.1-9.9-2.1-3.6 0-6.9.4-7.2 1M1090.3 381.2c-.6.7-1.3 2.1-1.6 3.1-.4 1-1.4 1.7-2.4 1.5-2.6-.5-2.8 3-.3 5.7 1.4 1.5 1.8 2.5 1.1 3-2.3 1.3-1.2 11.8 1.9 19 1.6 3.9 3 8.1 3 9.6 0 1.4.5 3 1.1 3.6.9.9.9 2 0 4.4-1.6 4.7-1.4 10.9.5 13.1 1.6 1.7 1.5 1.9-1.9 3.3l-3.6 1.5 3 3.2c4.6 5.2 10.3 10.8 11.1 10.8.6 0 2.8-5.5 2.8-7.2 0-.4-1.5-1.6-3.4-2.5-2.7-1.2-3.5-2.3-3.8-4.9l-.4-3.4 4.8.6c4.5.6 4.8.5 5.8-2 .5-1.5.9-3.7.8-4.9-.1-2.2 3.6-10.2 5.3-11.3.5-.3.9-2.5.9-5 0-4.2-.1-4.4-2.9-4.4-3.3 0-4.9-1.6-3.2-3.3.6-.6 1.1-1.9 1.1-2.9 0-2.4 2.7-2.3 3.5.2.3 1.1 1 2 1.5 2 .8 0 2.3-3.8 2.1-5.3-.1-.4.6-3.6 1.5-7.2 2.1-8.4 1.5-11-2.6-11q-3.15 0-5.1 2.4c-1.6 1.9-2.2 2.1-3.4 1.1-.8-.7-1.5-1.9-1.5-2.6s-1.2-2.2-2.7-3.1c-1.5-1-3.6-2.6-4.5-3.6-1-.9-2.4-1.7-3.2-1.7s-1.6-.7-2-1.5c-.7-1.8-2-1.9-3.3-.3M900.1 479.8c-.7 1.4-.9 6.4-.6 14.9.3 7 .7 21.7 1 32.7.4 17.1.7 20 2.1 21.1 1.3.9 1.7 2.8 1.8 7.1.1 12.1 1.6 41.1 2.2 42.7.3 1 1 1.7 1.4 1.7 1.8 0 2.1-9.1 1-30.7-.9-17.8-1.6-24-3.2-28.8-1.8-5.3-2.1-9.1-2.4-32.7-.3-26.7-1-32.4-3.3-28M911.6 639.9c-.5.8-1 31.7-.7 38.4.1 2.7 3.4 1.7 4.1-1.3.3-1.4.2-4.5-.3-7-.4-2.5-.6-8.2-.2-12.7.9-12-.7-21.1-2.9-17.4M458.9 813c-3.1.4-6.1 1-6.8 1.4-1.7 1.1-1.3 5.8.9 9.4 1.6 2.6 1.8 3.6.8 5.1-.6 1-.8 2.6-.4 3.6.5 1.5 1.6 1.7 7.2 1.2 4-.3 7-1 7.6-1.8.5-.8.7-3.4.4-5.8-.3-3.4.1-4.9 1.6-6.5l2-2.1 1.5 2.2c2.1 3.2 4 2.9 4.8-.7.9-4.1-.8-6.3-3.9-4.8-1.8.7-3.1.6-5.4-.6-1.7-.9-3.5-1.5-3.9-1.5-.4.1-3.3.5-6.4.9M378 831c-.8.5-2.6 1-4 1-3 0-5.1 1.7-4.3 3.6.8 2.1-4.4 2.9-8.1 1.2-3-1.4-8.6-.8-8.6 1 0 .9 6 5.7 8.2 6.5.9.3 1.8 1.6 2 2.9.2 1.2 1.1 2.4 2.1 2.6 2.4.5 2.3-4-.2-5.5-1.3-.8-1.8-1.9-1.4-3.3.5-2 2.7-2.7 3.7-1.1.8 1.3 7.7-1.2 7.1-2.6-.6-1.8 2-1.6 3.5.2 2 2.4 4.4 1.7 6.1-1.9 1.6-3.1 1.6-3.3-.2-4.4-2.3-1.4-3.9-1.5-5.9-.2M491.9 866.6c-5.5 1.7-6.9 4.1-6.9 12.3 0 10.5 2.1 13.3 10.9 14.7 4.7.8 7.6-.7 9.7-4.7 1.4-2.8 1.4-4.2.3-11.5-1.7-11.4-4.7-13.7-14-10.8M1253.3 848.2c-.4.7-1.3 2.2-1.8 3.3-.6 1.1-2.4 2.4-4 3-5.8 1.9-5.8 2-5.2 11.9.7 12.9 2.3 15.9 5 9.3.8-1.8 3.4-6.2 5.9-9.8 5.6-8.1 6.7-11.4 5.6-15.7-.9-3.3-3.9-4.4-5.5-2M152.8 1003c-.2.7-3.4 1.5-7.1 1.9-3.6.4-6.9 1-7.3 1.3-.3.4-2.5.1-5-.7-5.6-1.7-7.2-.5-7.6 5.5-.4 5.5 1.9 6.5 5.7 2.4l2.5-2.6 4.5 2.1c5.4 2.5 5 2.5 7.2.2 1.3-1.3 3.8-2 8.6-2.4 6-.4 9.8-1.8 9.7-3.6-.2-3.1-10.3-6.8-11.2-4.1M723 80.4c-3 1.9-6.4 4.4-7.5 5.4s-4.2 3.4-7 5.2c-2.7 1.8-6.1 4.3-7.5 5.6-1.4 1.2-8.2 7.3-15.2 13.4-13.7 11.9-18.4 17.1-17.4 19.5 1.1 2.9 1.8 2.5 17.6-10.2 3.6-2.9 7.4-6.2 8.6-7.3s2.5-2 2.9-2 2.5-1.5 4.6-3.3c2.1-1.7 5.6-4.6 7.9-6.2 2.2-1.7 5.1-3.9 6.3-5.1 1.2-1.1 5.9-5.1 10.5-8.9 4.5-3.7 8.2-7.1 8.2-7.5 0-1-2.6-2-4.9-2-.9 0-4.1 1.6-7.1 3.4M1366 107.5c0 1.8.5 2.5 1.9 2.5 1 0 3 .9 4.4 2 1.4 1.2 5 2.9 7.9 4 16.5 5.9 23.8 9.1 25.8 11.6.7.7 1.8 1.4 2.5 1.4.6 0 3.2 1 5.6 2.3s6 2.9 7.9 3.7c1.9.7 4.6 2.2 5.9 3.2 2.7 2 6.6 2.4 7.7.6.4-.7.3-.8-.4-.4s-1.2.2-1.2-.4-.4-.9-.9-.6-1.1-.1-1.5-.9c-.3-.9-1.2-1.2-2.2-.8-1.1.4-1.5.2-1.1-.4.6-1-4.7-4-5.6-3.2-.2.2-1.2-.3-2.1-1.1-1-.8-2.5-1.5-3.4-1.6-.9-.2-2.4-1.3-3.4-2.6s-1.8-1.9-1.8-1.4-.9.1-2-.9-2-1.4-2-1-.9 0-2-1-2-1.5-2-1.2c0 .4-1.5-.2-3.2-1.3-1.8-1.1-4-2-4.9-2s-2.2-.7-2.9-1.5c-1.4-1.7-6.7-4.5-8.7-4.5-.7 0-1.3-.5-1.3-1 0-.6-.9-1-2-1s-2-.5-2-1c0-.6-.8-1-1.9-1-1 0-3.2-.7-4.7-1.5-4.4-2.3-6.4-1.9-6.4 1M1458.1 154.4c-2 2.4 10.1 11.4 18.9 14.1 1.4.4 3.6 1.6 5 2.7 4.8 3.7 9.5 6.7 12.8 8.2 1.7.8 3.2 1.9 3.2 2.4 0 .6 1.7 1.8 3.8 2.7 3.6 1.8 16.5 11.5 17.7 13.5.3.5 1.4 1 2.5 1 1 0 6.4 4.5 12 10s10.8 10 11.5 10c2.5 0 4.5-1.2 4.5-2.7 0-.8-.4-1.2-.9-.9s-1.2-.1-1.5-1c-.3-.8-1-1.2-1.6-.9-.5.3-1-.1-1-.9 0-.9-.6-1.6-1.4-1.6-.7 0-2.1-1.1-3-2.5s-2.2-2.3-2.8-1.9-.8.3-.5-.3c.4-.6-.1-1.7-1-2.4-1.4-1.2-1.6-1.2-.9.1.4.8-.1.5-1.2-.7s-2.2-1.9-2.6-1.6c-.3.4-.6-.1-.6-1 0-1.6-1.2-2.2-3.5-1.7-.5.1-.7-.2-.3-.6 1.2-1.1-1.2-3.4-3.4-3.4-1.1 0-2.2-.9-2.5-2-.5-1.8-1.5-2.5-3.6-2.1-.5.1-.6-.3-.3-.8.7-1-1.8-3.4-2.6-2.5-.3.3-1.4-.6-2.4-1.9-1.1-1.3-2.4-2.2-3.1-2-.6.2-2-.8-3.2-2.3s-2.1-2.3-2.1-1.8c0 .4-.7-.1-1.6-1.2-.8-1-1.3-1.2-.9-.4s-.2.6-1.2-.5c-1-1.2-2.7-2.7-3.7-3.5-1.8-1.3-1.9-1.3-1.2 0 .4.8 0 .6-.9-.5s-2.3-1.9-3.1-1.7-1.4-.1-1.4-.6c0-.6-1.2-1.7-2.6-2.7-1.5-.9-2.3-1.1-1.9-.5.4.7-1.7-.6-4.7-2.9-3-2.2-5.8-4.1-6.1-4.1s-3.4-1.7-6.9-3.7c-7.2-4.3-8.3-4.6-9.7-2.9M100.1 617.4c-.6.7-2.4 1.6-3.9 1.9-1.6.3-4.9 2.8-7.7 5.9-2.8 2.9-6.2 5.8-7.7 6.5-1.6.7-2.8 1.7-2.8 2.2 0 .6-1.3 1.7-3 2.6-1.6.9-3 2.2-3 3 0 .9-1.5 2.3-3.4 3.1-3.5 1.7-7.8 8.4-5.3 8.4 4.3 0 15.7-8.8 15.7-12.1 0-1 .9-2 1.9-2.4 1.1-.3 2.6-1.7 3.5-3 1.2-1.8 2.5-2.5 5-2.5 2 0 4-.8 5.1-2 1-1.1 2.6-2.2 3.6-2.5 1.3-.4 1.9-1.6 1.9-3.6 0-1.9.5-2.9 1.5-2.9 1.6 0 2.1-2.5.6-3.4-.5-.3-1.4 0-2 .8M1682.9 893.7c-1.6 1.5-1.6 2.3.5 12 .3 1.2.9 3.1 1.5 4.1.8 1.4.7 2.9 0 5.1-1.2 3.4-.9 7.5 1.5 19.6 2.4 12.3 2.2 15.1-1.4 24-1.8 4.4-3.6 8.5-4.1 9.1-1.4 1.7-1.8 15.2-.5 16.8 1 1.3 5.5 3.2 5.7 2.4.1-.2.5-5 .9-10.8.5-5.8 1.4-15.3 2.1-21.2 1.1-9.3 1-13.4-.6-30.5-1-10.9-1.7-20.7-1.7-21.7.1-1-.6-3.2-1.3-4.7-.8-1.5-1.2-3.5-.9-4.3.7-1.9.4-1.9-1.7.1M1593.5 900c-4.4.4-14.7 1.4-23 2.3-8.2.9-20.4 2.1-27 2.6-6.6.6-17.4 1.7-24 2.5s-19.2 1.9-28 2.6c-8.8.6-20.3 1.8-25.6 2.5-5.3.8-17.4 1.9-27 2.5s-24.1 1.9-32.4 3c-8.2 1-20.4 2.1-27 2.5-6.6.3-14.9 1-18.5 1.5-8.4 1.1-34.9 3.7-46.5 4.5-4.9.4-10.7 1.1-12.8 1.6-2 .5-15.3 1.9-29.5 2.9-14.1 1.1-30.4 2.7-36.2 3.5s-17.9 1.9-27 2.5c-21.4 1.3-28 2-30.5 3.3-1.1.5-2.7 1.3-3.5 1.7-2.5 1.2-2.3 8 .5 16.4 1.4 4.3 2.5 9.3 2.5 11 .1 1.7.8 4.9 1.6 7.1s2.1 6.8 2.9 10.2c1.8 8.2 4.7 12.3 15.1 21.8 4.8 4.4 10.5 9.7 12.6 11.7 2.1 2.1 4.4 3.8 5.1 3.8s2.9.9 5 2c3.4 1.9 4.6 1.9 13.5 1.1 5.3-.5 13.3-1.4 17.7-2 12-1.6 33.9-3.9 63.5-6.6 14.6-1.4 28.1-2.9 30-3.4 1.9-.6 8-1.5 13.5-2.1 5.5-.7 15.6-2 22.5-3.1 6.9-1 16.1-2.1 20.5-2.4 4.4-.4 13-1.5 19-2.5 6.1-1 16-2.4 22-3 6.1-.6 14.2-1.9 18-3 3.9-1 10.7-2.1 15-2.5 4.4-.4 15-2 23.5-3.6s16.6-2.9 18-2.9c1.3 0 6.3-.9 11-1.9 4.7-1.1 12.6-2.7 17.5-3.5 15.1-2.4 37.8-6.6 41.5-7.6 7-1.9 9.3-4.2 14.4-14.6 7.2-14.4 8.6-20.2 9.3-38.4.4-12.1 1-16.3 2.4-19.1 3-6.1.8-6.6-19.6-4.9M920 1060.9c0 1.7 2.9 3.9 6 4.6 1.7.4 3.6 1.5 4.3 2.6.6 1 1.7 1.9 2.3 1.9s2.8 1.3 4.9 3c2.1 1.6 4.3 3 4.9 3s3.1 1.4 5.5 3c2.4 1.7 5.2 3 6.2 3 1.1 0 2.4.9 3.1 2 .8 1.2 2.4 2 4 2 3.7 0 3.6-1.9-.2-3.3-1.6-.6-3-1.7-3-2.5 0-.7-2-2.2-4.5-3.3s-4.5-2.4-4.5-2.9-1.7-1.4-3.7-2c-2.1-.7-4.7-2.1-5.8-3-1.1-1-3.2-2.2-4.8-2.5-1.5-.4-3.3-1.6-4-2.6-2.1-3-10.7-5.4-10.7-3M1479.5 1120.5c-.5.2-2.2.6-3.7.9-2.7.6-2.8.9-2.8 6.3 0 3 .5 7.4 1.2 9.5 1.1 3.8 1.3 4 4.7 3.4 1.9-.3 3.9-1 4.4-1.5 1.8-1.8 2-11.3.3-15.4-1.6-3.6-2-3.9-4.1-3.2"/></svg>