<svg xmlns="http://www.w3.org/2000/svg" width="2666.667" height="1777.333" viewBox="0 0 2000 1333"><path d="M881.2 22.3c-.6.7-1.6 2.6-2.2 4.2-1.7 4.5.3 7.8 7.8 12.7 6.1 4 7.2 4.4 12.2 4.2 3-.1 5.6-.7 5.8-1.3s1.5-1.1 2.8-1.1c3.3 0 3.1-2.9-.3-6.2-4.2-3.8-10.5-5.8-17.7-5.7-3.5.1-6.9-.2-7.5-.5-1.8-1.1-1.3-3.6 1.2-5.7 1.7-1.4 1.9-1.8.6-1.9-.9 0-2.1.6-2.7 1.3M807.5 46.2c-.9.6-3.7.8-6.1.5-4.5-.5-12.5 1.2-17.5 3.7-1.7.8-3.6 1.3-4.3 1s-1.9.2-2.6 1.1c-.7.8-1.6 1.5-2 1.5s-5 2-10.1 4.3c-5.2 2.4-11 5-12.9 5.7-3.2 1.2-11 4.4-18.5 7.5-1.6.7-6.6 2.7-11 4.5s-10.3 4.3-13.2 5.6c-2.8 1.3-5.4 2.4-5.7 2.4-.6 0-4.7 1.8-15.6 6.7-3 1.4-7.1 3.1-9 3.8s-6.6 2.7-10.5 4.5c-3.8 1.7-9.7 4.2-13.1 5.5-3.3 1.2-8.5 3.4-11.5 4.7-11.2 5.2-14.6 6.7-22.4 9.8-4.4 1.8-9.3 3.8-11 4.5-1.6.7-8.8 3.7-16 6.5-7.1 2.9-14.9 6.1-17.3 7.1-2.4 1.1-6.2 2.7-8.5 3.5-2.3.9-5.7 2.3-7.4 3-1.8.8-6.3 2.6-10 4-3.8 1.4-8.3 3.2-10 4-8 3.4-11.9 5.1-22.8 9.4-1.1.4-3.8 1.5-6 2.5-6.6 2.7-7.3 3-27.5 11-16.4 6.6-25.3 10.2-49.5 20.4-5.5 2.4-20.2 8.4-22 9.1-1.7.7-7.7 3.1-17 7-1.1.4-3.6 1.5-5.5 2.3-1.9.9-4.7 1.9-6.3 2.2-1.5.4-3 1.1-3.3 1.6s-1.1.9-1.9.9c-.7 0-4.2 1.3-7.7 2.9s-11.5 5-17.8 7.6-13.3 5.5-15.5 6.5-7.6 3.2-12 5-9.8 4-12 5c-2.2.9-5.1 2.1-6.5 2.5s-5.4 2.1-9 3.7c-3.6 1.7-8.7 3.9-11.4 5-2.7 1-7 2.8-9.5 4-2.5 1.1-6.5 2.9-8.8 3.9-2.3 1.1-4.4 1.9-4.7 1.9-.5 0-5.1 2-18.4 8.1-3.5 1.6-6.5 2.9-6.8 2.9-.2 0-2.3.9-4.7 1.9-6.2 2.9-17.2 7.5-25.7 10.9-4.1 1.6-10.1 4.1-13.3 5.6-3.1 1.4-8.1 3.7-11 5-6.2 2.8-23.2 10-30.2 12.8-2.7 1.1-5.8 2.4-6.7 2.9-1 .5-2.2.9-2.7.9s-3.8 1.3-7.3 2.9c-8.8 4-24.8 10.7-32.1 13.5-3.4 1.3-8.7 3.5-11.7 4.9s-10.4 4.6-16.5 7.2c-6 2.6-13.5 5.8-16.5 7.2s-7.7 3.4-10.4 4.5c-2.7 1-6.8 2.7-9 3.8-2.3 1-10.6 4.6-18.6 7.9s-15.8 6.8-17.3 7.6c-1.6.8-3.5 1.5-4.3 1.5C.2 378 0 416.4 0 650.9c0 217.1.3 273 1.3 273.4q1.35.6 0 .6c-1 .1-1.3 8.2-1.3 37v36.9l5.9-.5 5.9-.6.4 7.4c.3 4.1.3 7.6.2 7.8-.2.2-2.6-.6-5.3-1.8-2.7-1.1-5.4-2.1-6-2.1-1.8 0-1.4 8.7.4 9.4 1.9.7 1.9 2.5 0 4.6-1.3 1.5-1.1 1.8 2.5 3.8 2.2 1.2 4.7 1.9 5.5 1.6.9-.4 1.5 0 1.5 1 0 1.1-.9 1.6-3 1.6-1.6 0-3-.5-3-1 0-.6-1.1-1-2.5-1-2.1 0-2.5.5-2.5 3s.4 3 2.3 3c2.5 0 5.7 2.8 5.7 4.8 0 4.1 8.1 13.2 11.7 13.2 1.3 0 2.3.4 2.3 1 0 .5 1 1 2.3 1s2.7.4 3.2.9c.6.4 3.5 1.6 6.5 2.6 3 .9 6.3 2.1 7.2 2.6 1 .5 2.7.9 3.7.9 1.1 0 2.3.4 2.6 1 .3.5 1.5 1 2.5 1s3.3.8 5.2 1.7c6 3 6.8 3.3 8.2 3.3.8 0 1.6.5 1.8 1.1.5 1.4 16 1.4 18.6 0 3.7-2 19.2-.5 21.8 2.2.4.4 2 .7 3.6.7 1.5 0 2.8.4 2.8 1 0 .5.5 1 1.1 1s2.5.6 4.2 1.4c7.3 3.1 14.1 5.6 15.5 5.6.9 0 3.4.9 5.6 1.9 2.3 1 5.9 2.7 8.1 3.6s4.8 2.1 5.7 2.6c1 .5 2.6.9 3.7.9s4.3 1.2 7.3 2.6c2.9 1.5 6.3 3 7.6 3.5 4.2 1.7 7.7 3.1 9.2 3.9.8.4 4.2 1.5 7.5 2.5s6.4 2.2 7 2.7c.5.4 1.9.8 3.2.8s2.3.4 2.3 1c0 .5 1.4 1 3 1 1.7 0 3 .4 3 1 0 .5.4 1 1 1 .9 0 10.4 4 14.2 6.1 1 .5 2.5.9 3.3.9s1.5.4 1.5.9.8 1.1 1.8 1.4c.9.3 3.5 1.6 5.7 2.8 6.5 3.5 7.4 3.9 9.5 3.9 1.1 0 2 .4 2 1 0 .5.7 1 1.4 1 2.3 0 11 4.9 12.1 6.8 1.7 2.9 3.4 17.2 3.5 28.9v11.2l5.2 2.8c2.8 1.5 5.5 2.7 6 2.5.4-.1.8.2.8.6 0 .9 6.6 2.8 13 3.8 5.6.8 9.2 2.6 11.8 5.9 1.1 1.3 3.9 3.5 6.2 4.7 3.7 2 4.7 3.4 8.4 11.3 5.4 11.7 8.9 17.6 14.8 25.2 5.6 7 13.4 14.3 15.5 14.3.7 0 3.1 1.1 5.3 2.5s7.5 3.7 11.7 5.2c6.4 2.2 9.5 2.7 17.1 2.6 5.6 0 9.8-.5 10.5-1.2.6-.6 2.1-1.1 3.3-1.1 1.3 0 2.6-.5 2.9-1 .3-.6 1.9-1 3.5-1s3.2-.5 3.5-1c.3-.6 1.7-1 3.1-1 2.7 0 11.7-2.5 14.6-4.1 1-.5 3.3-.9 5.2-.9s3.8-.5 4.1-1c.3-.6 1.7-1 3.1-1 1.3 0 3.2-.4 4.2-.8.9-.5 4.2-2.1 7.2-3.5 3-1.5 5.9-2.7 6.3-2.7 1.2 0 15.9-11.8 17.4-14 .8-1.1 2.5-2 3.8-2s2.7-.5 3-1c.8-1.2 7.2-1.3 7.9-.1.3.5 2.2 1.2 4.2 1.6 2 .3 4.5 1.1 5.5 1.6 1.1.5 2.8 1.4 3.9 1.9s2.9 1 4 1 2 .4 2 1c0 .5 1.3 1 2.9 1 1.7 0 3.3.5 3.6 1 .8 1.3 7.2 4 9.6 4 1.1 0 1.9.4 1.9 1 0 .5 1.3 1 2.9 1 1.7 0 3.3.4 3.6 1 .3.5 1.7 1 3.1 1 1.3 0 2.4.4 2.4 1 0 .5.5 1 1.1 1 1.2 0 6.1 2 12.2 5.1 2.2 1 4.5 1.9 5.1 1.9.7 0 3.4 1.1 6 2.5s5.4 2.5 6.2 2.5 2.3.5 3.4 1c1.1.6 2.9 1.5 4 2 1.1.6 2.9 1 4 1s2 .4 2 .9 1 1.2 2.3 1.6c2.4.7 6.1 2.2 8.9 3.6 1 .5 2.9.9 4.3.9s2.5.4 2.5 1c0 .5 1.4 1 3 1 1.7 0 3 .3 3 .7 0 1.2 5.9 4.3 8.1 4.3 1 0 1.9.4 1.9 1 0 .5.8 1 1.8 1s4.1 1.1 6.8 2.5 5.5 2.5 6.2 2.5 2 .4 3 .9c.9.5 3.1 1.4 4.7 2.1 1.7.7 3.8 1.6 4.7 2.1 1 .5 2.7.9 3.8.9s3.8 1.1 6 2.5 4.8 2.5 5.9 2.5 2.3.5 2.6 1c.3.6 1.5 1 2.6 1 1 0 2.7.4 3.7.9 3.4 1.9 9 4.1 10.1 4.1s2.3.5 6.8 2.8c1.3.7 3.2 1.2 4.2 1.2 1.1 0 2.3.4 2.6 1 .3.5 1.7 1 3 1s2.5.3 2.7.7c.5 1.3 6.8 4.3 8.9 4.3 1 0 1.9.4 1.9 1 0 .5 1.1 1 2.4 1 1.4 0 2.8.5 3.1 1 .3.6 1.7 1 3 1s2.6.4 3 .9c.3.5 2 1.3 3.7 1.7 3.1.6 4 1 8.8 3.4 1.1.5 2.9 1 3.9 1 1.1 0 2.3.5 2.6 1 .3.6 2.2 1 4.1 1s3.4.4 3.4.9 1 1.2 2.3 1.6c1.2.3 3.1 1 4.2 1.4 1.1.5 3.3 1.4 4.8 2s4.1 1.1 5.7 1.1c1.7 0 3 .4 3 1 0 .5 1.1 1 2.5 1s2.5.4 2.5.8c0 1.1 11.9 2.8 28.9 4.3 29.2 2.5 105.1-.3 112.3-4.2 1-.5 4.6-.9 8.1-.9s6.7-.4 7.2-.9c.6-.5 4.6-1.2 9-1.5 18.4-1.2 39.4-4.1 41-5.7.5-.5 3.3-.9 6.1-.9 2.9 0 5.6-.5 5.9-1 .3-.6 2.5-1 4.7-1 2.3 0 5.5-.4 7.2-.9 1.7-.6 8.5-1.8 15.1-2.7s12.4-2.1 13-2.5c.5-.5 2.6-.9 4.6-.9 2.1 0 4.1-.4 4.4-1 .3-.5 2.2-1 4.2-1s5-.4 6.7-.9 6.7-1.7 11.1-2.7c4.4-.9 8.4-2.1 9-2.6.5-.4 3-.8 5.6-.8s5.1-.5 5.4-1c.3-.6 2.3-1 4.4-1 2 0 4.1-.4 4.6-.9.6-.5 3-1.1 5.5-1.4 7.2-.9 16.4-2.8 17.5-3.8.5-.5 2.6-.9 4.6-.9 2.1 0 4.1-.5 4.4-1 .3-.6 1.7-1 3-1s2.7-.4 3-1c.3-.5 1.5-1 2.5-1 2.8 0 13-3.3 13-4.2 0-.4 1.8-.8 3.9-.8 2.2 0 4.2-.4 4.5-.9s2-1.1 3.8-1.4c7.7-1.4 10.4-2 11.3-2.7.6-.4 2.9-1.1 5.3-1.5 2.3-.4 4.2-1.1 4.2-1.6s1.8-.9 3.9-.9c2.2 0 4.3-.5 4.6-1 .3-.6 1.7-1 3.1-1 1.3 0 3.2-.4 4.2-.9.9-.5 4.2-1.7 7.2-2.6 3-1 5.9-2.2 6.5-2.6.5-.5 2.4-.9 4.1-.9 1.8 0 3.6-.5 3.9-1 .3-.6 1.7-1 3-1s2.7-.4 3-1c.3-.5 1.7-1 3.1-1 2.9 0 12.4-2.9 13.9-4.1.5-.5 1.9-.9 3.1-.9 1.3 0 2.6-.5 2.9-1 .3-.6 1.9-1 3.5-1s3.2-.4 3.5-1c.3-.5 1.9-1 3.5-1s3.1-.4 3.4-.9 2.2-1.2 4.1-1.5c1.9-.4 3.5-1.1 3.5-1.6 0-.6 1.6-1 3.5-1s3.5-.5 3.5-1c0-.6 1.1-1 2.4-1 1.4 0 2.8-.5 3.1-1 .3-.6 1.9-1 3.5-1s3.2-.5 3.5-1c.3-.6 1.6-1 2.8-1s3.5-.7 5.1-1.5c1.5-.8 3.7-1.5 4.7-1.5s2.1-.5 2.4-1c.3-.6 2.1-1 4-1s3.7-.5 4-1c.3-.6 1.6-1 2.8-1s4.5-1.2 7.2-2.5c2.8-1.4 6.4-2.5 8.2-2.5 1.7 0 3.5-.5 3.8-1s1.7-1 3-1 2.7-.4 3-1c.3-.5 1.6-1 2.7-1 2.6 0 8.3-1.7 12.1-3.6 1.6-.8 3.9-1.4 5.2-1.4s2.7-.5 3-1 1.9-1 3.5-1 3.2-.5 3.5-1c.3-.6 2.1-1 4-1s3.7-.5 4-1c.3-.6 1.9-1 3.5-1s3.5-.7 4.4-1.5c.8-.8 2.9-1.5 4.7-1.5 3 0 7-1 12.4-3 1.1-.5 4.6-1.6 7.7-2.5 3.2-.9 6-2.1 6.4-2.6.3-.5 2.1-.9 4-.9s3.4-.5 3.4-1c0-.6 1.5-1 3.4-1s3.8-.5 4.1-1c.3-.6 2.1-1 3.8-1 1.8 0 5.5-1.2 8.2-2.5 2.8-1.4 6-2.5 7.3-2.5 1.2 0 3-.4 4-.9.9-.5 3.7-1.4 6.2-2.1 2.5-.6 5.9-1.5 7.5-2 1.7-.5 6.2-1.2 10-1.6 3.9-.4 7.9-1.3 9-2s2.3-1.3 2.7-1.4c1.6-.1 4.6-1.2 11.3-4.2 3.9-1.7 8.5-3.3 10.3-3.5 1.8-.3 3.5-.9 3.8-1.4s1.7-.9 3.1-.9c2.7 0 8.4-1.6 11.5-3.1 1-.5 2.2-.9 2.8-.9.9 0 10.3-4 14.2-6.1 1-.5 2.3-.9 2.8-.9.6 0 3.7-1.2 6.8-2.6s6.8-3 8.2-3.6 3.3-1.4 4.2-1.9c1-.5 2.4-.9 3.2-.9s4.2-1.6 7.6-3.5 6.6-3.5 7.1-3.5c1.8 0 18.6-11.4 21.9-14.9 4.4-4.5 9-11.6 9-13.6 0-.8.5-1.5 1-1.5.6 0 1-1.4 1-3 0-1.7.5-3 1-3 .6 0 1-.6 1-1.3 0-.6.6-2.3 1.3-3.7s1.9-5.2 2.6-8.5 1.7-6.8 2.2-7.7c.5-1 .9-3.3.9-5.1s.4-3.7.9-4.2c1.2-1.4 3.1-14 4.3-28.5.6-6.9 1.2-47.3 1.4-89.7.2-49.6.7-78.6 1.3-81 .6-2.1 1.1-13 1.1-24.3 0-12.9.4-21 1-21.6s1.3-7.6 1.6-15.9c.3-12.1.2-15.2-1.1-17.1-.8-1.3-1.5-3.5-1.5-4.9s-.4-2.5-1-2.5c-.5 0-1-.9-1-1.9 0-1.1-.9-4.1-2.1-6.8-2.6-5.9-3.9-17.1-4.5-36.8-.3-8.3-1-16-1.6-17.2-.8-1.7-.8-2.9 0-4.8.7-1.4 1.2-3.6 1.1-4.8 0-2.1-.1-2.1-.9-.2-.6 1.4-.9.3-1-4-.1-3.3-.4-7.4-.6-9-.2-1.7 0-4.6.3-6.5l.7-3.5.6 4.5c.7 4.2.7 4.1.8-2.2.1-3.7-.3-7-.8-7.3-.8-.5-.7-1.1.1-2.1.9-1.1.9-1.7 0-2.8-.8-.9-.9-1.6-.2-2 .6-.4.8-1.9.5-3.4s-.9-14.6-1.5-29.2c-1.4-36.2-2.6-59.9-3.2-63.5-.4-1.7-1.1-6-1.8-9.8-.9-5.1-1.4-6.5-2.4-5.7-.6.5-1.5.7-1.8.3-1.3-1.2-.7-5.4.8-5.9 1.2-.5 1.5-2.4 1.5-8.3 0-4.2-.5-8.2-1.1-8.8s-1.1-4.1-1-7.7c0-3.7-.4-7.9-1-9.4s-1-6.1-1-10.2c0-7.7-1.1-25-3.1-49-.6-7.4-1.4-19.6-1.9-27-.4-7.4-1.3-17.8-1.8-23-1.8-16.1-2.8-25-4.1-37.5-.7-6.6-1.6-12.9-2.1-14-.4-1.1-1.1-5.8-1.4-10.5-.6-10-2.1-27.7-3.4-41-2.4-24.8-3.3-32.6-4.2-33.5-.5-.5-.9-3-.9-5.6s-.4-5.1-1-5.4c-.5-.3-1-2.8-1-5.5s-.4-5.2-1-5.5c-.5-.3-1-2.4-1-4.6s-.5-5-1.2-6.2-1.3-5.7-1.4-10c-.1-4.2-.7-8.4-1.3-9.1-.7-.8-1.3-4.9-1.5-9.2-.2-4.4-.7-9.5-1-11.4s-.6-5.6-.6-8.2c-.1-2.6-.5-5-1.1-5.3-.5-.4-.9-1.5-.9-2.6 0-1-.4-1.9-1-1.9-.5 0-1-.4-1-1 0-1.3-7.7-9-9-9-.5 0-1-.3-1-.8 0-.4-1.8-1.6-4-2.6-2.2-1.1-4-2.3-4-2.8 0-.4-.7-.8-1.5-.8s-1.5-.5-1.5-1c0-.6-1-1-2.3-1s-3.4-1.1-4.7-2.5-3.1-2.5-4.1-2.5-2.1-.5-2.4-1c-.3-.6-1.5-1-2.6-1-1 0-1.9-.5-1.9-1 0-.6-.9-1-1.9-1-1.1 0-2.3-.5-2.6-1-.3-.6-1.4-1-2.4-1s-2.4-.7-3.1-1.5-2.3-1.5-3.6-1.5-2.4-.5-2.4-1.1-.6-.9-1.4-.6-2.2-.1-3.3-.8c-1-.8-3.3-1.5-5-1.5-1.8 0-3.3-.5-3.3-1.2 0-.6-.3-.8-.6-.5-.4.3-1.8-.3-3.2-1.3-1.3-1.1-3.5-2-4.8-2-1.2 0-2.6-.5-2.9-1-.4-.6-1.1-.8-1.6-.4-.5.3-2.1-.1-3.4-1s-3.5-1.6-4.8-1.6-2.7-.3-3.1-.7-1.9-.9-3.4-1.1-3.7-1-4.9-1.8-2.9-1.4-3.8-1.4c-.8 0-2.4-.5-3.5-1-1.1-.6-2.9-1.5-4-2-1.1-.6-3.3-1-4.8-1-3.4 0-9.4-1.9-10.3-3.2-.3-.5-2.5-1.1-4.8-1.4-2.4-.2-4.8-.7-5.4-1.1-.7-.4-2.1-.9-3.2-1-1.1-.2-2.4-.8-2.9-1.3-.6-.6-2-1-3.3-1s-2.3-.4-2.3-.8-1.7-.9-3.7-1c-2.1-.2-4-.7-4.4-1.3-.3-.5-1.8-1.2-3.4-1.5s-3.3-.8-3.9-1.2c-.6-.3-2-.8-3.1-.9-1.1-.2-2.4-.8-2.9-1.3-.6-.6-2.5-1-4.3-1s-3.3-.4-3.3-.8-1-.8-2.2-.9c-1.1-.1-2.4-.7-2.8-1.3s-2.6-1.4-4.9-1.7c-2.2-.3-4.1-.9-4.1-1.2 0-.4-1.9-.8-4.2-.8-2.4-.1-4.4-.7-4.6-1.3-.2-.5-1.4-1-2.7-1s-2.6-.4-2.9-.8c-.2-.4-1.9-.9-3.7-1s-3.8-.7-4.6-1.3c-1.2-1.1-5.9-2.4-11.8-3.5-1.6-.3-3.4-1-4-1.5-.5-.5-2.5-.9-4.5-.9s-5.9-1.1-8.6-2.5-6.4-2.5-8.1-2.5c-1.8 0-3.3-.5-3.3-1 0-.6-1.8-1-3.9-1-2.2 0-4.3-.5-4.6-1-.3-.6-1.7-1-3-1s-2.7-.5-3-1c-.3-.6-2.4-1-4.6-1-2.3 0-4.7-.7-5.5-1.5-.9-.8-2.4-1.5-3.4-1.5s-2.2-.5-2.5-1c-.3-.6-2.2-1-4.1-1s-3.4-.5-3.4-1c0-.6-2-1-4.4-1-2.5 0-4.8-.5-5.1-1-.3-.6-1.9-1-3.4-1s-3.1-.4-3.6-.9c-.6-.5-1.9-.5-3-.1-2 .7-1.5.9 13 4.7 6.8 1.8 31.3 8.9 47.5 13.8 8.5 2.6 16.9 5.1 18.5 5.5 8.2 2.3 17.5 5 19.6 5.9 1.3.5 4.2 1.4 6.4 2s7.6 2.2 12 3.5c4.4 1.4 12.7 3.9 18.5 5.6 5.8 1.8 15.2 4.7 21 6.6s11.9 3.8 13.5 4.3c1.7.5 6.4 1.8 10.5 3s8.8 2.9 10.3 3.7c1.6.8 4.1 1.4 5.6 1.4s3.1.4 3.6.9c.6.5 4.6 2 9 3.4s9.6 3.1 11.5 3.8c7.5 2.6 14.6 5.2 17.5 6.4 1.7.7 4.4 1.7 6 2.3 6.5 2.3 26.2 10.2 30.2 12.2 2.3 1.1 4.8 2 5.6 2s2 .7 2.7 1.4c.6.8 2.8 2 4.8 2.7 2 .6 4.2 1.7 4.7 2.4.6.7 2.9 2.3 5 3.5 6.1 3.3 10.5 6.9 10.5 8.5 0 .7.9 1.6 1.9 2 1.1.3 2.4 1.9 3 3.5l1 3h-6.5c-7.4 0-8.1 1.1-3.8 6.7 2.9 3.8 5 4.2 5.9 1.2.4-1.2 1.1-1.7 1.5-1.3 1 1 3.2 12.5 2.6 13.2-.3.2-1.7-.4-3.3-1.5-5.8-3.9-20.5-9.3-50.3-18.4-10.5-3.1-12.2-3.6-32.5-8.9-13.7-3.6-26.3-7.1-42.5-11.6-6.9-2-14.7-4.2-17.5-4.9-2.7-.7-9.3-2.5-14.5-4s-11.1-3.1-13-3.5c-1.9-.5-6.6-1.7-10.5-2.8-3.8-1.1-15.1-4.1-25-6.6-9.9-2.6-23.8-6.3-31-8.2-13.4-3.5-35-8.9-60.5-15-28.1-6.8-35.5-8.6-38.5-9.5-1.6-.5-10.2-2.6-19-4.8-8.8-2.1-25.2-6.2-36.5-9-11.3-2.9-22.5-5.6-25-6.2s-7.4-1.9-11-2.9-10.3-2.8-15-4c-4.7-1.1-18.2-4.5-30-7.5-17.9-4.5-40.1-9.8-57-13.5-3.8-.9-43.1-8.9-67.5-13.9-8.2-1.7-18.1-3.7-22-4.4-3.8-.8-10.4-2-14.5-2.7s-10.7-2.1-14.6-3.1c-3.8-1.1-8.9-1.9-11.1-1.9s-9.2-.9-15.4-2c-6.3-1-19-2.8-28.4-3.9-14.9-1.7-21.7-2.2-46.1-3.6-2.8-.1-5.9.2-6.9.7M838.8 66c-.2 1.8.3 3.4 1.1 3.9 1.1.7 1 1.1-.5 1.9-1.6.9-1.5 1.2 1.1 3.5l2.9 2.4-4.3 2.7c-3.4 2.2-4.5 2.5-5.7 1.5-2.1-1.7-1.7-2.7 1.4-3.1 3.2-.4 3.2-2.3-.1-2.4-4.3-.2-4.7-.4-4.7-2.3 0-1.8.3-1.9 3.1-.9 3.6 1.2 4 .9 3.2-2-.6-2.3-3.2-2.9-4.9-1.2q-1.05 1.05-3.3-4.5c-1.2-3-2.2-5.8-2-6.2.1-.4 1.6-1.3 3.3-1.9 2.8-1 3.4-.8 6.4 2.2 2.6 2.6 3.3 4 3 6.4m-249.4 97.9c-1.4 4-2 4.7-4.3 4.6-2 0-2.7.6-2.9 2.4-.3 2.1-.1 2.3 2 1.6 1.2-.4 3.4-.8 4.8-.9 2.2-.1 2.5.3 2.4 2.9-.1 1.6-.3 8.8-.4 16-.2 7.1-.6 13.4-1 14-.4.5-1 2.5-1.4 4.3-1.2 6.8-6.9 12.3-10.4 10.1-3.6-2.3-4.4-7.1-3.7-22.2.7-17.3 1.2-20.7 2.9-20.7.8 0 2-.7 2.7-1.6 1.1-1.4 1-2.1-.4-4.6-3-5.3-1.5-12.8 2.7-12.8.9 0 1.6-.5 1.6-1 0-.6 1.1-1 2.5-1 1.5 0 2.9-.7 3.3-1.8 1.6-3.8 1.3 6.2-.4 10.7m167.3-8.8c.6.6.9 1.8.6 2.5-.3 1 .3 1.4 2 1.4 1.3 0 3 .7 3.7 1.5s1.9 1.5 2.6 1.5c.8 0 1.4.4 1.4 1 0 .5.7 1 1.5 1s1.5.7 1.5 1.5c0 1.9-4.4 2-6 .1-.6-.8-2.6-1.6-4.3-1.8-2.4-.2-3.1-.7-2.9-2.1.3-1.9.1-2-2.2-1.1-.9.3-1.6 1.2-1.6 2s-.7 1.4-1.5 1.4c-2.1 0-1.9-1.6.7-4 1.8-1.7 1.9-2 .5-2-.9 0-1.7.4-1.7 1 0 .5-.9 1-2 1-2.3 0-2.4.3-.7 3.1 1 1.7.9 2.2-.5 3-1.1.6-1.8 2.2-1.8 3.7 0 2.7-1.5 5.2-3.2 5.2-1.3 0-.9-3.2.7-5 1.4-1.5 1.4-2.1 0-5.3-2-4.9-1.9-5.7.8-5.4 1.4.1 2.1-.3 1.9-1.2-.5-2.3 1.9-4.1 5.7-4.1 2 0 4.2.5 4.8 1.1m-73.2 12.1c.4 2.9.5 7.3.3 9.8-.3 4.1-.5 4.5-3.2 4.8-1.6.2-3.5 1-4.3 1.8s-2.1 1.4-2.9 1.4-2.2.4-3.2.9c-3.3 1.6-8.5 3-9.3 2.5-.5-.3-1.9.4-3.1 1.5-1.2 1.2-3.4 2.1-4.9 2.1s-3.1.5-3.5 1.1c-.3.6-1.7.9-3 .6-1.4-.2-2.5.1-2.8 1-.4.8-1.6 1.3-2.8 1.1-1.7-.2-2.4-1.1-2.7-3.3-.5-2.8-.5-2.8-1 1-.5 3.5-.9 4-3.6 4.3-1.6.2-3.4 1.1-4.1 2-1 1.4-1.4 1.4-2.8.3-1.4-1.2-1.6-3-1.4-10 .3-8.4.4-8.6 2.6-8.3 1.3.2 2.9-.3 3.5-1.1 1.7-2.2 19-8.7 23-8.7 1.1 0 2.1.9 2.4 2.1.5 1.9.7 1.8 1.7-1.2.9-2.9 1.6-3.4 4.1-3.4 1.9 0 4-1 5.7-2.8 3.4-3.4 4.4-3.4 6.1 0l1.4 2.6 1.2-3.6c1-2.9 1.8-3.7 3.6-3.7 2.1 0 2.4.6 3 5.2m125.1 22.7c.5.5 2.7 1.4 4.9 2.1 3.9 1.2 14.1 6.7 17.1 9.2 3.3 2.9 4.1 3.4 8.2 6.2 3.9 2.7 4.4 2.8 6 1.3s2.2-1.3 8 2.1c3.4 2 6.4 4.5 6.8 5.5.3 1 1.9 2.1 3.6 2.4 3 .6 3.3 1.9 1.4 6.3-.4.9.2 2.4 1.3 3.7 1.2 1.3 1.6 2.4 1 3s-.6 1.9 0 3.5c.5 1.5.6 2.9.1 3.4s-1.2 4-1.6 7.9c-.3 3.8-1.3 8-2 9.2-.8 1.3-1 2.3-.4 2.3.5 0 1 .4 1 .9 0 1.5-3.8 2.3-7.2 1.6-2.4-.6-2.8-.9-1.6-1.6 1.3-.7 1.5-2.2 1.1-7.6-.3-3.8-.9-8.3-1.5-10-1.2-4-.3-7 2.3-7.8 2.5-.8 4.1-4.5 2.7-6.2-.6-.7-.7-2.9-.4-4.8.5-2.6.3-3.5-.6-3.5-1.9 0-9.1-3.9-10.5-5.8-.7-.8-2.7-1.5-4.5-1.5s-4.6-.9-6.3-2.1c-1.6-1.2-4.3-2.8-6-3.6-1.6-.8-3.2-1.7-3.5-2s-2.1-1.4-4-2.4c-3-1.7-6.1-3.8-10.7-7.6-.7-.6-1.9-1-2.8-1-.8 0-1.5-.5-1.5-1 0-.6-.7-1-1.5-1s-1.5-.5-1.5-1c0-1.2 1.3-1.3 2.6-.1M1192 191c2.5.5 7.4 1.6 11 2.4s8.2 1.5 10.2 1.6c2.7 0 4 .6 4.8 2 1.5 2.7-1.1 3.7-5.4 2.2-4-1.5-8.9-1.6-8.1-.2.3.5 1.9 1 3.4 1s3.1.4 3.7.9c.5.5 2.3 1.1 3.9 1.3 1.9.2 3 .9 3 1.8s-.8 1.4-2 1.2c-1.1-.2-4-.5-6.5-.9-2.5-.3-5-.9-5.6-1.4-.5-.4-2-.6-3.2-.2-1.5.3-2.7 0-3.5-1-.7-.9-3.4-1.7-6.2-2-7.1-.7-11.8-2-12.3-3.6-.4-1.3 5.5-.9 12.8 1 4.7 1.2 11 1.1 11-.1 0-.6-1-1.1-2.2-1.2-1.3 0-3.6-.2-5.1-.3s-3.3-.7-4-1.4c-.6-.6-2.2-1.1-3.5-1.1-3.6 0-10.2-2.2-10.2-3.3 0-1 5.2-.5 14 1.3m184.5 42c.3.5 2.6 1 5 1s4.7.4 5 1c.3.5 2.8 1 5.5 1s5.2.4 5.5 1c.3.5 1.9 1 3.5 1s3.2.4 3.5 1c.3.5 1.7 1 3 1s2.7.5 3 1c1.3 2.1-2.4 2-10.1-.1-4.3-1.2-9.7-2.4-11.9-2.7-2.2-.2-4.4-.8-4.9-1.3-.6-.5-3.2-.9-5.9-.9-6.3 0-6 2.4.4 2.7 2.5.1 6.5.9 8.9 1.7 2.5.8 6.4 1.8 8.8 2.2 2.3.4 4.5 1.1 4.8 1.5.3.5 2.5.9 4.9.9 5.9 0 7.9.8 6.4 2.6-.7.9-1.6 1.1-2.3.6-.6-.5-3.1-1.2-5.6-1.6-9.4-1.4-21.2-4.3-21.9-5.4-.4-.6-2.6-1-5.4-.8-5.7.3-8.4-1.7-5.3-4 1.1-.7 1.6-2 1.3-2.9-.7-1.7 2.7-2.2 3.8-.5m59 13c.3.5 2.2 1 4.2 1 1.9 0 5.6.6 8.2 1.4 6 1.9 13.7 3.6 16 3.6 2.6 0 3.5 3 1.5 4.5-1.5 1-1.3 1.3 1.5 1.8 3.9.8 3.2 2.7-1 2.7-1.8 0-2.8.4-2.4 1 .3.5 1.8 1 3.1 1 1.6 0 2.4.5 2.2 1.2-.3.7-1 1.3-1.6 1.2-.7-.1-2.4-.2-3.8-.3-2.3-.1-2.5-.4-1.9-3 .6-2.8.4-2.9-3.7-3.6-2.4-.4-5.6-1-7.3-1.5-5.1-1.5-14.9-3.4-16.5-3.2-.8.1-2.6-.7-4-1.8l-2.5-2h2.8c1.5 0 2.7.4 2.7.9s2.4 1.2 5.3 1.5c9.1.9 14.2 1.8 15.2 2.6 1.5 1.2 10 1.6 10 .5 0-1-4.6-2.1-13.4-3.2-2.5-.3-5.1-1.2-5.9-1.9-.7-.8-2.9-1.4-4.8-1.4-3.8 0-7.4-1.5-7.4-3 0-1.3 2.7-1.3 3.5 0m-187 3.6c4.4.9 10 2 12.5 2.5s6.4 1.2 8.8 1.5c2.3.4 4.5 1.1 4.8 1.5.3.5 2.3.9 4.5.9 2.7 0 3.9.4 3.9 1.4 0 .8-.6 1.6-1.2 1.9-1 .3-1 .9 0 2.6.6 1.1 1.2 2.3 1.2 2.6 0 .8-3.9.6-5.8-.4-1.4-.8-8.7-2.1-19.2-3.6-4.2-.6-12.3-2.5-15.8-3.6-2.2-.7-3-1.5-2.4-2.1s4.7-.2 11.3 1.1c11.8 2.4 23.9 5.1 25.4 5.7 1.4.5 4.1-1.3 3.3-2.2-.8-.7-5.7-1.8-14.8-3.4-5.5-.9-12.8-2.3-18.5-3.5-1.6-.3-4-.8-5.2-1.1-1.5-.3-2-.9-1.7-1.9.4-.8.7-1.5.8-1.5 0 0 3.7.7 8.1 1.6m-386 14.7 2.6 2.2-2 2.4c-1.2 1.3-2.1 3-2.1 3.6 0 .7-1.6 3.9-3.5 7.1s-3.5 6.1-3.5 6.5-2.9 6.8-6.5 14.3c-3.6 7.4-6.5 13.9-6.5 14.3s-1.9 5.5-4.3 11.3-4.9 13.1-5.7 16.3c-.7 3.1-1.9 6.2-2.7 6.8-.7.6-1.3 2.2-1.3 3.6 0 3.6-4.7 10.3-7.2 10.3-.4 0-.8-.7-.8-1.5s.7-1.5 1.5-1.5 1.7-1.2 2-2.8c.4-1.5 1-3.5 1.6-4.4.5-1 .9-3.4.9-5.3 0-2 .7-4.9 1.5-6.5 1.6-3 1.1-6.3-.9-5.7-.6.2-1.2 1.6-1.4 3-.2 1.5-1.2 3.2-2.3 3.7-1 .6-1.9 2.1-1.9 3.4 0 1.5-.7 2.6-2 2.9-1.6.4-2 1.4-2 5 0 3.1-.5 4.7-1.5 5.1-1 .3-1.5 1.9-1.5 4.7 0 7.5-.9 3.6-1.4-6.1-.3-5.2-.1-11.3.4-13.5.5-2.3 1.4-9.5 2-16 2.4-27.3 5.6-52.7 6.8-53.4.5-.3 1.2-1.7 1.3-3 .3-2 1-2.4 4.4-2.7 8.9-.6 25.2-3.5 29.5-5.3 3.5-1.4 3.6-1.4 6.5 1.2m578.5 24.6c1.4.5 6.6 1.5 11.5 2.1 5 .7 9.5 1.6 10 2 .6.5 2.6 1 4.5 1.2 4.9.4 4.4 2.2-.7 2.6-2.4.2-4.3-.1-4.3-.6s-2.5-1.3-5.5-1.7c-3-.3-5.7-1.1-6-1.6-.8-1.2-10.2-1.2-11 .1-.4.6 1.1 1 3.7 1 2.4 0 5.2.6 6.3 1.4 1.1.7 4.5 1.6 7.5 2 11.7 1.5 13.1 1.8 12.7 3-.5 1.2-8.2.9-10.8-.5-1-.5-4.3-1-7.4-1.1s-5.9-.6-6.1-1c-.3-.4-2.5-.8-5-.8-2.4 0-4.4-.4-4.4-.9s-1.2-1.1-2.7-1.3c-4.5-.5-4-2.8.6-2.8 2.3 0 4.1-.5 4.1-1 0-.6-1.5-1-3.4-1-3.5 0-5.2-1.1-3.8-2.4.7-.8 6.1-.1 10.2 1.3M934.5 297c5.5.5 11.1 1.2 12.5 1.4 1.4.3 8.8 1.2 16.5 2.1s15.4 1.8 17 2.1c1.7.3 7.7.9 13.5 1.4 10.4.8 17.9 1.7 40 4.5 6.3.8 17.6 2.2 25 3 7.4.9 14.3 2 15.2 2.5 1 .6 4.7 1 8.2 1 8.6 0 10 .6 7.5 3.1-2 2-4.9 2.6-4.9.9 0-.7-3.3-.9-9.4-.6-8.2.4-9.6.2-11.1-1.4-.9-1-2.4-1.6-3.5-1.3-1 .3-4.4-.3-7.6-1.2-5.8-1.7-5.8-1.7-7.6.5-2 2.5-2.2 3.6-.8 4.5.6.3 1 2.6 1 5.1 0 5.1.5 5-14.6 3.4-12.3-1.3-12.5-1.4-12.4-6.4.1-2.2-.3-5.7-.8-7.6-.8-3.3-1-3.5-4.5-3.2-2.1.2-3.7-.2-3.7-.8 0-.5-1.5-1-3.2-1-1.8 0-9.1-1-16.3-2.1-13.6-2.2-22.1-3.2-39.5-4.8-35.8-3.3-35.4-3.3-35.8-5.5-.4-1.7.1-1.8 4.4-1.2 2.7.3 9.4 1.1 14.9 1.6m5.8 7.6c3.2.8 7.4 1.4 9.2 1.4s3.5.5 3.7 1.1c.2.7 2.7 1.1 6.3 1.1 3.3 0 7.1.6 8.7 1.4 1.5.8 4.3 1.4 6.3 1.4 2.1 0 5.1.7 6.9 1.5 1.7.8 5.8 1.9 9 2.3 6.6.8 8.7 2.9 3.4 3.4-4.8.4-4 2.2 1.2 2.6 2.5.2 5 .8 5.5 1.3 1.2 1.2-8.8.6-17.7-1-3.2-.6-8.2-1.5-11-2-9.1-1.5-16.1-2.9-23.8-4.6-4.1-.9-9.7-2.1-12.5-2.5-7.9-1.3-15.8-3.2-17.7-4.2-2.6-1.3-2.3-4.6.5-5.1 3.4-.8 15.6.3 22 1.9m177.2 15c6.6.9 15.4 2 19.5 2.5 16.1 1.8 21.7 2.6 22.9 3.3.6.4 5.1 1.2 9.9 1.7s11.9 1.4 15.7 2c3.9.5 9.9 1.3 13.5 1.7 5.1.5 5.9.9 4 1.4-3.4 1-11.8 1-12.4 0-.5-.8-9.7-1.8-24.9-2.6-3.1-.2-7.3-1.1-9.2-2.1-2.9-1.6-3.8-1.7-5.8-.6-2 1-3.3.9-8.5-.8-6.7-2.3-10.2-2.7-10.2-1.1 0 .5 1.6 1 3.5 1s3.5.4 3.5 1c0 1.3-8 1.3-10 0-1.3-.8-1.2-1 .3-1 .9 0 1.7-.5 1.7-1 0-.6-.9-1-1.9-1-1.1 0-2.3-.5-2.6-1-.3-.6-3.5-1-7.1-1-5 0-6.4.3-6.4 1.5 0 1.9-3.2 1.9-8.5.1l-4-1.4 3-.7c5-1.1 5.2-1.3.9-1.4-2.2-.1-4.9.6-6 1.4-2.3 1.8-6.1 1.9-6.6.3-.3-.7.3-2.1 1.1-3.1 1.8-2.1 3.2-2.1 24.6.9m-890 18.3c.5.9.2 8.3-2.5 54.1-2.4 40.3-5 101.8-6 140.5-.5 23.1-1.4 50.8-1.9 61.5s-.9 21.3-.8 23.5c0 2.2-.4 22.4-1.1 45-.6 22.5-1.1 53.8-1 69.5s.1 33.3 0 39.1l-.1 10.6 3.6.1c1.9.1 4.1.6 4.9 1.2.9.8 1.9.8 3.4 0 1.3-.7 5.2-1 10.3-.7 17.6 1 41.1 2.7 44.1 3.2 2.9.5 33.4 2.8 51.6 4 4.7.3 10.3.7 12.5 1 6.7.8 18.2 1.6 37 2.6 9.9.5 26.3 1.4 36.5 2 10.2.7 21.3 1.2 24.8 1.3 4.4.1 6.6.6 7.3 1.6.9 1.5.6 46.6-.8 101.5-.3 14.3-.5 27.9-.4 30.2.1 2.4-.3 4.3-.8 4.3-1.1 0-.8 6.4.8 16 .5 3 .6 5.9.3 6.5-.3.5-.5 39.7-.3 87.1.2 75.5 0 86.2-1.3 86.7-.8.3-2 0-2.6-.8-1.3-1.6-4-.9-4 1 0 2.1-1.7 2.7-4 1.5-1.5-.8-1.9-1.7-1.5-3.1.5-1.6.1-1.9-2.5-1.9-2.8 0-3 .2-2 2 .6 1.1 1.8 2 2.6 2 .9 0 1.4.6 1.1 1.2-.2.7-.1 2 .4 2.8.6 1.3-.1 1.6-3.9 1.8-5.8.3-9.8-1.3-10.6-4.1-.9-3.6-.7-7.2.6-8.5 1.8-1.8.5-2.5-10.2-6.1-5.2-1.8-10.4-3.6-11.5-4.1-1.1-.4-3.1-1.2-4.5-1.7-1.5-.6-3.5-.7-4.8-.2-1.4.6-3 .4-4.1-.3-2.1-1.3-2.7-5-3.7-22.8-.3-6.3-1.5-17.1-2.7-24-1.1-6.9-2.1-14.5-2.3-16.9s-.5-4.5-.8-4.8-1.6.7-3 2.2c-3 3.2-8.1 3.3-8.1 0-.1-2.2-4.3-9.5-5.5-9.5-.5 0-.8-3.4-.9-7.5-.1-7 .1-7.6 2.2-8.4 1.2-.5 2.9-2.1 3.6-3.5.8-1.4 2-2.6 2.8-2.6 1.7 0 1.7 3.4.1 5.2-4.3 4.6-5.3 12.4-2.2 15.9.9 1.1 3.6 2.5 5.8 3.1 2.3.7 4.4 1.7 4.8 2.3 1.4 1.9.8-4.9-1.2-13.5-1.1-4.7-2-10.3-2-12.6 0-2.2-.5-4.5-1-5-.8-.8-.7-1.9.1-3.8.9-1.9.9-3.2.1-4.9-.6-1.2-1.3-3.3-1.6-4.7-.2-1.4-1-4.3-1.6-6.5s-1.5-5.6-1.9-7.5c-.9-4.1-4.9-17.5-6.2-20.8-.5-1.3-.9-3.1-.9-4.1 0-1.4-2.5-8.3-7.9-21.6-.4-1.1-2-4.5-3.4-7.6-1.5-3.1-3-7-3.3-8.7-.4-1.7-1.3-3.7-2-4.3-.8-.6-1.4-1.7-1.4-2.4s-.7-1.9-1.6-2.6-3.3-3.8-5.4-6.9c-5.5-8.2-15.7-17.7-22.4-21-7.8-3.9-16-4.1-24.1-.5-19.1 8.4-36.5 42.3-43.9 85.5-4.4 25.7-5 33.2-5.1 63.7 0 32.7-.2 33.9-5 28.7-1.4-1.5-3.7-2.8-5.1-3-4-.4-31.4-9.3-36.4-11.7-2.5-1.3-4.4-2.8-4.2-3.5.3-1.5-4.6-8.2-5.9-8.2-1.7 0-.9 2.9 1.3 5 2.9 2.7 1.4 3.9-2.3 1.7-1.7-.9-4.5-1.7-6.2-1.7-2.9 0-3-.1-1.1-1.4 1.8-1.4 1.8-1.5.1-2.1-.9-.4-2.4-.2-3.2.5-2.2 1.8-7.7.8-19-3.5-5.5-2-13.7-4.9-18.2-6.3-5.5-1.8-8.5-3.3-9.2-4.7-.5-1.1-1.1-5.6-1.3-10-.3-7-.1-8 1.5-8.3 1-.2 3.2.9 5 2.5 1.8 1.5 4.8 3.9 6.6 5.3 1.9 1.4 4.2 3.2 5.2 4s4.4 3.3 7.4 5.5c3.1 2.2 6.8 5.1 8.3 6.4s4.1 3 5.7 3.7c1.7.8 3.7 2 4.7 2.6 1.3.9 2 .9 3.2-.1 2-1.6 1.2-3.1-1.7-3.1-1.6 0-1.8-.3-.9-1.2 2.7-2.7-.1-3.9-3.8-1.6-1 .7-2.3.8-2.7.4-.4-.5-.2-1.1.5-1.3.6-.3 1.2-.9 1.2-1.4s-.9-.4-1.9.3c-1.5.9-2.3.9-3.5-.1-1.9-1.6-2.1-3.7-.3-4.5.6-.3 0-.4-1.4-.1-2.1.4-3.1-.1-4.3-2.1-1-1.3-2.8-3-4.2-3.6-2.6-1.2-3.3-3.8-1-3.8.8 0 3 .9 4.9 2 2.8 1.7 4.1 1.9 7.3 1.1 3.5-.8 3.6-.9 1-1-1.6-.1-3.8-1.1-5.1-2.5-1.2-1.3-2.8-2.5-3.6-2.8-1.1-.4-1.2-.8-.2-1.9 1.1-1 2-.9 5.2.9 4.4 2.5 5.1 2.6 5.1 1.1 0-2.3-4.4-7.2-7.6-8.5-3.3-1.4-3.4-1.6-3.4-7.4 0-3.2-.4-6.2-1-6.5-.5-.3-1-1.3-1-2.1 0-1.4.2-1.4 1.5 0 .8.8 1.5 2.6 1.5 4 0 3.4 5.6 11.2 9.2 12.7 2.7 1.1 2.8 1.5 2.6 6.3-.3 4.7-.1 5.2 2.4 6.3 1.6.7 3.1 2.5 3.9 4.6.8 2.4 2.1 3.8 3.8 4.3l2.6.7-2.7 1c-1.6.6-2.8 1.4-2.8 1.9 0 1.4 5.1.9 6.7-.8 1.3-1.3 1.4-1.7.1-2.7-2.1-1.7-9.8-14.4-9.8-16 0-.8-.8-2.5-1.8-3.8s-2.2-3.1-2.5-3.9c-1-2.2-2.9-5.1-4.9-7.4-1-1.1-1.8-2.5-1.8-3.2s-.3-1.4-.7-1.6c-.5-.2-2.9-4.4-5.4-9.3-4.4-8.6-4.7-9-7.7-8.9-1.8.1-3.2-.2-3.2-.7s.7-.9 1.5-.9c1.5 0 2.2-4.5.8-5.2-1.4-.6-6-7.3-6.8-9.8-1.1-3.5-6.1-12.2-8.5-14.7-1.1-1.2-2-2.6-2-3s-.8-2.2-1.7-3.8c-1.3-2.4-1.7-6.6-2-21.5-.2-10.2-.8-25-1.4-33-1.9-30-4.1-103.4-3.2-108.4.7-3.7 2.4-2.8 3.8 2.2.7 2.2 2.1 4.9 3 5.9 1.8 1.7 1.8 1.7 1.1-1.2-.4-1.7-1.3-4.4-2.1-6-5-11.6-5.5-13.8-5.5-23.4.1-10.4 3.3-34 4.8-35 .5-.3 1.2-2.2 1.5-4.1s1.5-7.7 2.7-12.9c2.5-11.8 2.5-12.8-.4-6.6-1.3 2.7-2.9 9-3.6 13.8-.9 6.6-1.5 8.6-2.4 7.7-1.4-1.4-1-61.9.5-76.5.6-5.5 1.3-29.6 1.5-53.5.3-24.7.9-44.8 1.5-46.5.5-1.6.7-5.5.3-8.6-.7-6.3.9-12.9 3.2-12.9.8 0 1.4-.4 1.4-1 0-2.2 11.3-6.3 21.3-7.7 2-.3 4-.9 4.3-1.4s1.9-.9 3.6-.9c1.8 0 4.5-.4 6.2-.9s8.3-2.1 14.6-3.5c13.2-3.1 17.8-4.2 28.8-7.1 2.8-.8 3.1-4.5.3-4.5-1.1 0-2.2.4-2.5.9s-2 1.1-3.8 1.4-6.2 1.3-9.8 2.1c-3.6.9-9.9 2.3-14 3-4.1.8-8.8 1.9-10.5 2.5-1.6.6-4.8 1.3-7 1.4-2.2.2-5.3.9-7 1.6-6.5 2.7-28.5 5.9-28.5 4.2 0-1.1 7.8-9.1 8.8-9.1 1.6 0 7.3-4.8 6.3-5.4-.5-.3-2.3.5-3.9 1.9s-3.7 2.5-4.6 2.5-3.9.9-6.8 2-5.6 2-6 2c-1.6 0-.7-3.8 1.2-5.5 1.1-1 2-2.1 2-2.6 0-1 12.6-19.3 14.4-20.8.8-.7 4.3-1.9 7.8-2.7 7.9-1.8 44.4-12 51.8-14.4 1.4-.5 5-1.4 8-2.1s6-1.7 6.6-2.1c1.3-1 3-27 1.9-28.8-.5-.9-1-.9-1.8-.1-1.4 1.4-4.4 1.4-5.2.1-.4-.6 1.1-1.8 3.4-2.7 4.4-1.7 5-4 1-3.6-3.2.3-10.2 2.4-11.4 3.5-.5.4-1.8.8-2.8.8-1.7 0-8.5 1.9-14.2 4.1-5.8 2.1-8.6 3-14.5 4.4-3.6.9-8.4 2.5-10.7 3.6-2.4 1-4.8 1.9-5.5 1.9-.6 0-3.7.8-6.7 1.9-3.1 1-8.3 2.6-11.6 3.6-3.3.9-8.6 2.6-11.8 3.7s-6.4 1.8-7 1.5c-1-.4-.9-6.6.5-27.8.9-15.1 1.7-27.9 1.7-28.6.1-.6 3.1-2.3 6.9-3.6 15.8-5.9 46.4-17.2 54.7-20.2 5-1.8 17.3-6.2 27.5-9.9 10.2-3.6 19.2-7.1 20-7.6 2-1.2 2.8-1.2 3.5-.1M1566.4 431c.8 9.6 2 27.4 2.6 39.5s1.5 30.3 2 40.5 1.4 29.7 2 43.5c.5 13.7 1.4 31.3 2 39 2.1 29.8 4.3 117.2 2.9 118-.4.3-.5 2.8-.2 5.5.4 3.4.2 5-.6 5-.6 0-1.1-1.1-1.1-2.5 0-1.8-.7-2.8-2.6-3.5-3-1.2-2.7-3.6.5-3.3 2.4.3 2.5 0 1-2.8-.6-1.2-1.2-14.7-1.5-34.7-.2-18-.7-35.9-.9-39.7-.3-3.9-.7-12.4-1-19s-.7-16.5-1-22c-.2-5.5-.9-18.3-1.4-28.5-1-18.3-1.6-29-2.6-54.5-.3-7.2-1-19.8-1.5-28-1.8-29.2-3.2-72.7-2.4-77.3l.8-4.7.7 6c.4 3.3 1.4 13.9 2.3 23.5M1081 418.6c7.4.8 14.5 1.9 15.8 2.4 1.3.6 4.9 1 8 1s9.3.7 13.7 1.5 13.6 2.1 20.5 3c26.5 3.3 42.7 5.5 47.3 6.5 2.7.6 5.9 1 7.3 1 1.3 0 2.4.5 2.4 1.1 0 .7-1.2.9-3.2.5-1.8-.3-7.3-1-12.3-1.6-4.9-.5-14.2-1.7-20.5-2.6-6.3-.8-14.4-1.9-18-2.4s-10.1-1.3-14.5-1.9c-4.4-.5-10.9-1.4-14.5-2s-8.3-1.1-10.5-1.1c-2.3 0-4.5-.4-5-.9-1-.9-6.4-1.6-20-2.7-3.8-.3-7.4-1-7.9-1.5-.6-.5-2.3-.9-3.9-.9-1.7 0-2.6-.4-2.2-1.1.4-.6 1.4-.7 2.4-.4.9.4 7.7 1.3 15.1 2.1m-819.2 35c3.9 1.9 4.4 5.4.8 5.4-3.4 0-4.6 1.9-3.9 6.8.5 3.9 2.3 6 2.3 2.7 0-.9.6-1.2 1.6-.8 2.1.8 3.4-1.3 3.4-5.7v-3.4l3 3.2c1.7 1.8 3 3.7 3 4.2s.9 2.4 2 4.2c1.2 1.9 2 5.1 2 7.6 0 2.3.6 5.1 1.2 6.2 1 1.6 1 2.4 0 4-.6 1.1-1.2 2.9-1.2 4s-.4 2-1 2c-.5 0-1 .9-1 2 0 1-.8 2.4-1.9 2.9-1.6.9-1.7.7-1.3-1.5.2-1.4 1.1-2.8 1.8-3.1.9-.3 1.3-2.3 1.3-6.1-.1-3.2.2-7.3.6-9.3.5-2.6.2-3.9-.9-4.8-.9-.8-1.6-1.9-1.6-2.6 0-.6-.8-2.1-1.8-3.3-1.8-2.1-1.8-2.1-3.6 2.8-1.3 3.7-1.6 6.3-1.1 10.1l.7 5.2-2.6-.7c-2.5-.6-2.6-.5-2.6 3.8 0 2.5-.6 5.1-1.4 5.9-2.2 2.2-4 9.8-2.5 10.7.8.5.5 1-1 1.5-2.7.8-3.6.1-2.5-1.7.5-.7.7-2.2.5-3.2-.5-3.3 1-10.6 2.1-10.3.6.1 1.7-2 2.4-4.7 1.2-4.7 1.2-5.1-1.2-7.9-2-2.4-2.4-3.6-1.8-5.6.5-1.4.9-5.8 1-9.6.3-12.1.4-12.5 1.2-12.5.5 0 2.3.7 4 1.6m538.9 20.2c3.2 3.7 3.3 3.8 3.5 15.2.1 6.3.3 14.6.3 18.4 0 4.6.4 7.1 1.3 7.3.6.3 1.2.1 1.2-.4 0-.4.9-1.4 1.9-2 1.9-1.2 1.9-1.1.9 1.7-.6 1.9-1.7 3-2.9 3-2.4 0-4.2 3.5-3.6 6.9.2 1.4.2 6.3-.2 10.9-.5 6.6-.3 8.9 1 11.4 1.6 3 1.7 3.1 2.3 1 .8-2.4 2.6-3 2.6-1 0 .7 0 19.1-.1 40.8s-.1 40.4-.1 41.5c.1 3.9-.9 6.5-2.3 6.5-2.3 0-2.8-1.9-1.1-4.5.9-1.3 1.6-2.8 1.6-3.4 0-1.7-3.3-2.2-4.8-.7-1.3 1.2-1.3 2-.2 4.6s1 3.3-.3 4.8c-2.2 2.4-.7 4.5 2.9 4.1 4.8-.5 5.2.2 4.7 10.8-.7 17.2-.9 18.8-2.1 18.7-.7-.1-1.9-.2-2.7-.3-2.3-.2-1.8-2.8.8-3.6 2.1-.6 2.1-.7-.7-1.5-1.7-.5-3.2-.8-3.4-.6-.2.3-.6 5.6-.9 12l-.6 11.6h4.7c4.4 0 4.6.1 4.6 2.9 0 3.4-1.5 4.8-2.7 2.7-.4-.8-2-1.8-3.5-2.1l-2.8-.7-.2 9.8c0 5.5 0 10.6.1 11.4.4 2.7.1 12.4-.9 23.5-.5 6-.7 15.3-.4 20.5.7 13.4.4 26.5-.7 30.3-.5 1.7-.9 6.7-.9 10.9 0 8-1.4 12.8-3.7 12.8-.8 0-1.3-1.1-1.3-2.8 0-1.5-.6-3.4-1.2-4.1-1.5-1.5-1.5-64 .2-159.6.9-55.9 1.3-72.1 2.5-110 .2-7.2.5-25.1.6-39.9.3-24.6.4-26.7 1.9-24.7.8 1.2 3 3.8 4.7 5.9m114.9-1.3c.7 2.7 1.1 5.8.8 6.7-.6 1.9-3.4 2.4-4.9.9-.6-.6-3-1.1-5.5-1.3-5.2-.4-6-1.9-3.5-7.2 1.7-3.6 3.6-4.5 8.9-4.2 2.6.1 3 .6 4.2 5.1m124.5 12.9c.2 12.1.9 25 2 37.8 1.2 14 1.1 15.9-1.6 35.3-2.3 16.6-3.6 26.6-4 31-.2 2.2-.4 4.2-.5 4.5-.5 1.3.2 8.6.9 9.3.5.4 3.7 1.5 7.2 2.3s8.9 2.3 11.9 3.4c10 3.4 16.8 5 20.9 5 3.6 0 4.3.4 5.2 2.7.6 1.5.8 3.6.5 4.6-.2 1-.1 3.1.4 4.7.5 1.7.5 3.2 0 3.5-1.5.9-4-3.8-4-7.5 0-4.1-1.3-4.9-12.5-7.5-9.4-2.3-14.5-3.6-17.5-4.5-1.4-.4-5-1.5-8.1-2.4-8-2.4-10.2-4.7-9.4-10 1.4-9.8 2.7-17.3 3.6-20.7.5-2 .9-5.4.9-7.5 0-2.2.7-6.4 1.6-9.4 2-7 2-45.3 0-73.5-.7-9.2-.6-9.8.8-8.1 1 1.2 1.6 4.1 1.7 7m-123.7.2c.3.9.6 3.7.6 6.2 0 5.7 1.3 10.7 3.4 12.7 1.3 1.4 3.5 16.4 2.7 19-1.4 4.2-1.3 4.4 2.9 5.5 3.2.9 4.4 1.8 5.2 4.1 1.5 4.3 4.8 4 4.8-.6v-3.4l4.9 2.4c3.5 1.8 5.2 3.4 6 5.6.6 1.7 1.9 3.3 3 3.6 2.1.5 3.1 3.1 3.1 8.3 0 4.2-1.2 6.3-3.1 5.5-1.1-.4-1.8 1.9-3.2 10.7-1 6.2-1.7 14.1-1.7 17.5 0 4.7-.4 6.3-1.4 6.3s-1.5-2.6-2-10.8c-.3-5.9-.9-13.7-1.2-17.4-.6-6.6-.6-6.8 2-7.8 3.2-1.2 3.3-3.4.4-5.5-2.2-1.5-2.4-1.4-4.1.7-1.3 1.5-1.7 3.1-1.3 5 .3 1.5.1 3-.4 3.3-.6.4-1-.8-1.1-2.7 0-1.8-.4-4.2-.9-5.3-1.3-3.4-2.4 4.8-1.5 11.8.5 3.4.9 10.7 1.1 16.2.1 5.5.3 10.2.4 10.5s.4 7.6.6 16.2c.2 12.2.7 16.3 1.9 18.1 1.2 1.9 1.3 3 .5 4.8-1 2.3-1.5 2.4-10.3 2.3-9-.2-21.6 1.5-26.9 3.5-1.9.7-2.9.7-3.7-.3-.7-.9-.1-2.1 2.5-4.4 4.7-4.3 7.7-11.3 7.9-18.5.1-3.1-.1-5.7-.5-5.7s-1.3-1.2-2-2.8c-.8-1.5-2.2-3.9-3.2-5.4-2.4-3.4-2.3-3.8.8-3.8 4.7 0 1.4-1.8-4.6-2.5-3.9-.5-5.9-1.1-5.7-1.9.3-.6 1.1-.9 1.8-.7 1.7.5 3 .5 14.2.3 8.4-.2 8.7-.3 8.7-2.6 0-2.9-2-3.6-11.7-3.6-6.6 0-8.9-.9-6.4-2.4.5-.3.7-1.5.4-2.5-.4-1.7-1.4-1.9-10.6-1.8-8.8.1-10.2-.1-10.5-1.6-.4-2 3-3.7 3.6-1.9q.3 1.2 9.3 1.2h8.9l-.6-2.8c-1-4-1.2-4.2-4.4-4.2-1.6 0-4-.4-5.5-1-1.8-.7-3.7-.6-6.5.4-2.2.7-4.2 1.1-4.5.8-1-1.1-.5-2 1.8-2.7 3.3-1 21.9-1.2 24.1-.2 1.1.6 2.7.5 4-.1 1.1-.6 3-1.2 4.1-1.4 3.2-.5 2.3-2.3-1.2-2.6-3.2-.3-3.3-.5-2.9-4.3.4-4.2 1.6-6.6 1.6-3.1 0 3.1 1 5.2 2.6 5.2 1.7 0 2-10.5.4-11.5-.6-.4-.4-1.5.6-3 1.8-2.7 1.1-6.5-1.2-6.5-1.1 0-1-.8.6-3.7 1.1-2.1 2-5.1 2-6.8s.9-4.7 2-6.8c2.6-4.9 2.5-6.5-1-10.7-1.7-1.9-3-4.3-3-5.5 0-1.1-1.4-4.4-3-7.4-3.7-6.7-3.8-8.3-.6-7.5 1.3.3 2.7.1 3-.5 1-1.6 3.3-1.3 4 .5m66.1 38.9c0 2.2.3 4.4.6 5 .4.5.7 11.3.8 24 .1 12.6.2 23.7.3 24.5.3 4.1-.2 4.6-4.1 4.4-2.1-.1-4.3-.4-4.9-.8-1.3-.8-2.5 1-1.7 2.5.4.6 1.3.8 2 .5.8-.3 1.9.1 2.5.9.8 1 1.8 1.1 3.6.5 2.8-1.1 2.7-1.5 2.9 8 .1 4.1.5 8.5.9 9.7.4 1.3.2 3-.6 4.3-1.1 1.8-1.1 2.3.4 3.1 1.3.7 1.5 1.5.8 3.3-.5 1.4-.4 3.9.2 6.4 1.7 6.8 1.3 7-10.3 6.6-5.6-.3-10.9-.9-11.6-1.6-.8-.7-1.3-2.9-1.3-5.7 0-2.5.1-7.5.1-11.1 0-3.5.2-6.6.4-6.9.3-.2 0-1-.5-1.6-.7-.8-.7-2.1-.1-3.8.6-1.5.7-2.8.3-3.1-.4-.2-.8-5-1-10.7s-.8-11.1-1.3-12.1c-.6-1-.9-9.2-.8-18.6.1-9.2 0-18.3-.2-20.2l-.4-3.5 5 .3c2.8.1 7.1.5 9.6.8 3.3.4 4.9.1 5.8-.9 1.7-2.2.2-2.8-7.7-3.1-3.7-.1-7.4-.6-8.1-1-.8-.5-1.7-.3-2.2.5-.8 1.2-1.1 1.2-1.9-.1-1.4-2.1-.7-3.5 1.7-3.5 1.2 0 2.4-.3 2.7-.6s4.5-.5 9.3-.5l8.8.1zM111.6 539c.1 20.6-1.5 54.6-2.7 59.2-1.8 6.9-2.9 4.1-2.9-7.2 0-10.3-.2-11.1-2.1-11.8l-2-.8 2-1.8c2.4-2.2 2.6-3.8.9-6.5-.9-1.5-.9-2.8 0-5.8.7-2.1 1.3-8.3 1.5-13.8.2-9.6.1-10-1.9-10.3-1.6-.2-2.3-1.2-2.7-3.5-.6-4.4.1-5.7 3.5-6.4 2.3-.5 2.9-1 2.4-2.5-.7-2.8.4-5 2.3-4.6 1.4.3 1.6 2.4 1.7 15.8m746.6 8.7c.4 14.1.1 17.3-1.7 16.7-.8-.3-2.2-.1-3.2.5-1.7 1-1.7 1 .2 1.2 1.1.1 2.6.1 3.3 0 .9-.1 1.2 2.7 1.2 11.4 0 9.3-.3 11.5-1.4 11.5-2.4 0-3 2.1-.7 2.7 1.2.3 2.1 1.2 2.1 2 0 .9-.6 1.3-1.4 1-1.6-.6-2.6 1.3-2.6 5 0 1.8-.4 2.4-1.5 2-.8-.4-1.7-.2-2 .3-.9 1.5-4.8 1.2-7.2-.5-1.2-.8-2.4-1.1-2.7-.6s-1.5.7-2.5.4-2.9.1-4.1.7c-1.8 1-2 1.4-.9 2.1.8.5 2.6.9 4.2.9 1.5 0 2.7.5 2.7 1 0 .6-.6 1-1.2.9-2.4-.3-3.8.1-3.8 1.1 0 1.5 6.7 2.9 15.3 3.2l7.7.2V623h-8.2c-4.5 0-7.9.3-7.6.6.4.3 3.2.5 6.3.5 4.4 0 5.8.4 6.2 1.7.4.9 1.4 2.8 2.4 4.3 2.2 3.1 1.4 4.3-3.1 4.6-1.9.1-5.2.5-7.3.8-2.4.5-4.3.3-5.2-.5-2.2-1.9-9.3-2-10-.1-.5 1.3-.8 1.3-2 0-1.2-1.2-1.3-3.8-.5-15.9.5-8 1-28.3 1-45.3 0-31.8.1-32.2 4-29.7 1.3.8 1.2 1.1-.5 2.4-1.9 1.4-1.9 1.5.8 2.1 1.7.5 3.3.3 3.9-.3.8-.8 1.6-.8 2.3-.2 1.4 1.2 3.1-.4 3.7-3.5.2-1.5-.3-2.1-2.2-2.3-4.6-.7-4.6-2.2.1-2.2 2.5 0 4.9-.4 5.5-.9.9-.9 4.1-1.7 8.1-2 2.1-.1 2.2.3 2.5 10.6m52.1-5.7c1.2 1.1-1 5-2.8 5-.8 0-2.1 1-2.9 2.2-1.4 1.9-1.4 2.4-.1 3.8 1.4 1.5 1.3 1.9-.3 3.3-2.2 2-3.6 2.1-5 .4s-15.9-2.2-17.8-.6c-1.7 1.4-2.9.6-2.1-1.6.5-1.2 2.5-1.5 10.2-1.5h9.6l-.3-3.3-.3-3.2-8-.6c-4.3-.4-9-.3-10.3.2-2.9 1.1-3.1 1-3.4-2.1-.3-2.1.2-2.5 2.7-2.6 13.6-.8 21.9-1.4 22.2-1.8.6-.5 7.6 1.4 8.6 2.4m-271.8 6.2c2 .9 2.5 1.7 2.1 3.4-.4 1.5-.1 2.4 1 2.8 1.3.5 1.5 1.4.9 3.9-1.3 5.9-1.5 13.6-.5 14.2 1.3.8.3 7.2-1.6 10.2-.8 1.3-2.3 2.3-3.4 2.3-2.5 0-5.3-2.9-4.5-4.8.3-.8-.3-2.3-1.5-3.4-2.6-2.4-2.5-4.4.2-5.9 1.9-1 1.9-1.2.5-2.1-2-1.1-2.2-2.9-.5-4.6.6-.6 1.2-3.1 1.3-5.4 0-2.4.4-4.9.9-5.6.4-.7.3-1.9-.3-2.6-.7-.9-.7-1.6.1-2.4 1.5-1.5 2.1-1.5 5.3 0m48.9 40.2c-.1 17.4-.4 31.9-.7 32.2-.3.4-2.2-.4-4.1-1.6-3.1-1.9-3.6-2.7-3.6-6 0-2.1-.6-4.1-1.2-4.3-1-.4-1-.8 0-1.5.8-.5 1.2-1.8 1-2.8-.2-1.5-1.3-1.9-4.8-2.1-2.5-.1-5.7-.4-7.3-.7-1.5-.3-3.8-.1-5.1.4-1.5.5-2.7.5-3.4-.2-1.3-1.3-2.4.9-2.6 5.1-.1 2.4-.5 2.6-4.1 2.6-3.9 0-4-.1-4.3-4-.2-2.2-.8-4.4-1.3-4.9-1.4-1.5-1.1-3.7.8-5.8 1.8-2 4.2-2.3 8.7-.9 1.7.6 5.8 1.5 9.1 2.1 3.3.7 7.7 1.8 9.7 2.5 3.1 1.1 4 1.1 5.7-.2 1.8-1.2 1.9-1.8 1-3.5s-.8-2.4.3-3.2c1.2-.9 1.6-4.2 1.7-17.1.1-9.8.6-16.4 1.3-17.2 3-3.6 3.3-.5 3.2 31.1m909.7-17.2c3.2-.4 3.9 1.5 3.9 10.6 0 6.5 1.1 9.8 3.9 11.9 1.4 1.1 1.4 1.3-.4 2.7-2.9 2.2-3.3 2-4.5-2.4-.6-2.1-1.5-4.2-2-4.5-.6-.3-1-1.3-1-2.1 0-2.3-5.1-8.5-7.7-9.5l-2.4-.9 2.7-3.5c1.5-2 3.1-3.2 3.8-2.8.6.4 2.3.6 3.7.5M535.4 591.8c.2.4 2.1.7 4.1.7 2-.1 3.8.3 4 .9s.5 8.9.7 18.4l.3 17.2h-5.2c-4.7 0-5.3-.3-5.7-2.3-.8-3.6-1.5-31.3-.9-33.6.5-2.1 1.8-2.7 2.7-1.3m39.1 4.2c1.4 1.1 1.6 3.2 1.2 14.1-.2 7.1-.1 14.6.2 16.6.9 4.8.3 7.3-1.5 7.3-.8 0-1.7-.8-2-1.8-.3-.9-1.2-3-2-4.5-.7-1.6-1.4-3.8-1.4-4.8 0-1.5-.6-1.9-2.1-1.7-1.6.2-2.4-.6-3.5-3.7-4-10.7-4.2-12.9-1.8-19 1.5-4.1 1.6-4.2 6.4-4 2.7.1 5.6.8 6.5 1.5m313.5 1c0 .5 1.4 3.2 3 6.1 2.7 4.4 2.9 5.3 1.6 6.3-1 .7-1.6 3.3-1.8 7.6l-.3 6.5-3.2.3-3.3.3v-6.5c0-5.4-.3-6.7-2.1-7.9-2-1.5-2-1.5 1-7.6 2.8-5.4 5.1-7.8 5.1-5.1m450 1.1c14.9 3.5 15.5 3.7 14.8 3.9-.5.1-3 .3-5.7.4-3 .1-5.6.7-6.8 1.8-1.3 1.2-2.9 1.5-6.1 1.1-2.3-.3-4.2-.2-4.2.3s-2.3 1-5 1.2c-2.9.2-5-.1-5-.7s-.9-1.8-2-2.8c-2.4-2.3-1.7-6 1.4-6.6 4.7-.9 10.5-.5 18.6 1.4m38.5 6.3c6.6.8 15.8 2.1 20.5 2.9 4.7.9 12.8 1.8 18 2.2 18.7 1.2 51.1 7.5 54.5 10.6.5.5 1.9.9 3.2.9s2.3.4 2.3 1c0 .5 1 1 2.3 1 3.4 0 11.1 3 12 4.6.5.9 1.6 1.2 2.8.9 1.1-.4 2.6 0 3.5.9 1.4 1.5 1.4 1.6-.3 1.6-1.1 0-2.5.6-3.2 1.2-1 1.1-1.5.9-2.9-.8-.9-1.2-2.7-2.5-3.9-2.8-1.1-.4-2.7-1.3-3.3-2.1-.7-.8-2.5-1.5-4.1-1.5-1.5 0-3.1-.5-3.4-1-.3-.6-2.1-1-4-1s-3.7-.5-4-1c-.3-.6-2.2-1-4.2-1-3.1 0-3.4.2-2.3 1.5 2 2.4.3 3-4.3 1.6-8-2.4-9-2.4-12.2-.7-2.9 1.6-3.4 1.6-7.6.1-2.5-1-8.7-1.9-14.4-2.1-15.1-.7-18.8-1.3-18.1-3 .9-2.4-2-2.7-11.5-1.3-9.1 1.3-14.9 3.7-14.9 6.2 0 .7-1.6 2.1-3.5 3-3 1.4-4.2 1.5-7.4.5-2.1-.7-4.2-2.1-4.7-3.2s-2.2-2.3-3.7-2.7-3.7-1.9-4.8-3.3-2.9-2.6-3.9-2.6c-1.3 0-1.8-.5-1.3-1.5.3-.9-.2-2.2-1.3-3-1.5-1.1-1.7-1.7-.7-3.2.6-1 1.7-1.6 2.5-1.4.7.1 3.5.9 6.2 1.6 3.6.9 5.6 1 7.3.2 3.2-1.4 2.9-2.7-.6-2.7-1.7 0-3.3-.5-3.6-1-.8-1.4 4.6-1.2 19 .4m-1115 8.6c.7 0 1.5 1 1.7 2.2.2 1.5.9 2.2 2 2s2.3.9 3.3 2.8c1.3 2.5 1.9 2.9 3.5 2 1.5-.8 2-.5 2.8 1.8l.9 2.7.7-3.2c1-4.2.4-5-4.4-6.4-6.6-2-5-4.3 2.1-3.1 4.1.7 4.4 1 4.5 4 .1 4.3 1.1 5.1 1.9 1.6 1.1-4.9 1.4-5.4 3-5.4s2.1 3.5.7 4.4c-.5.3-1 3-1.1 6.1s-.8 8.4-1.6 11.8-1.5 7.7-1.5 9.4c0 3.8-.6 4-3.4 1.5-2.3-2.1-5.3-3.3-13.8-5.7l-5.8-1.6-.1-9.7c-.1-5.3-.3-11.7-.4-14.2-.3-5.5.2-6.5 2.1-4.5.9.8 2.2 1.5 2.9 1.5m50 5.7c-.3 4.3-.7 8.9-.7 10.3s-.5 2.8-1.1 3.2c-.8.5-.6.9.6 1.4 2.3.8 2.2 4.4 0 4.4-4.4.1-6 4.3-8.1 21.5-.6 5.1-1 6-2.9 6.3-1.6.2-2.6-.5-3.7-2.6-.9-1.7-2.9-3.5-4.6-4-2.8-1-4-3.5-2.2-4.6.5-.3 1.4-3.1 2.1-6.3s2-8.4 2.7-11.6c.8-3.2 1.4-7 1.4-8.4s.8-3.7 1.9-5.1c1-1.5 2-3.6 2.2-4.6.2-1.1 1-2.1 1.8-2.4 1.1-.4 1.3.3.8 3-.3 1.9-.1 4.1.4 4.9.7 1.1.9 1 1-.6.1-1.1 0-3-.1-4.2-.1-1.8.3-2.2 2.7-2 2.3.2 3.1-.4 4.2-3.1.8-1.7 1.7-3.2 1.9-3.2s.1 3.5-.3 7.7m364.8 2.4c.3 1.2 1.4 1.9 3 1.9 2.9 0 3.6 1.5 3.5 7.2 0 4.7-1.4 5.2-8.9 3.3-3.3-.9-6.4-1.3-6.8-1-.5.2-1.4-.2-2.1-1-.9-1.1-.9-2.2 0-5 .9-2.7 1.7-3.5 3.6-3.5 1.7 0 2.7-.8 3.4-2.5 1.1-2.8 3.5-2.5 4.3.6M616 625v4.1l-10.1-.3-10.1-.3-.3-3.8-.2-3.7H616zm-255.4-.1c3.9.5 8.2.7 9.6.4s2.9 0 3.2.6c.9 1.4 10.3 1.5 11.1.1 1-1.7 7.8-1.1 11.1.9 3.6 2.2 5.3 4.3 9.5 11.9 1.9 3.4 3.4 5 4.2 4.5 1.6-1 3.9-1.3 13.6-2 7.9-.5 8.3-.4 7.5 1.3-.5 1.1-.9 4.4-.9 7.4s-.4 6-.8 6.7c-1 1.6-6.7-.4-6.7-2.4 0-1.2-.3-1.3-1.4-.4-1 .8-1.9.6-3.8-.8-1.9-1.5-2.8-1.7-3.6-.9-.9.9-1.2.6-1.2-1.4 0-1.5-.5-3-1.1-3.4-.9-.5-1 .6-.5 4.2 3.8 25.7 3.1 49.7-2 66.6-3.3 11.3-6 16.4-11.4 22-4 4.1-5.2 4.8-8.6 4.8-14.3 0-24.4-23.8-24.4-57.5 0-12.9 1.6-25.4 4.4-35 2.7-9.3 4-13 5.4-14.4.7-.7 1.1-1.8 1-2.3-.6-1.7-7.9-3.8-16.7-4.8-4.6-.6-8.8-1.3-9.2-1.6-1-.6-1.2-5.8-.3-6.7.3-.3 1.6-.2 2.7.3 1.2.5 5.4 1.4 9.3 1.9m296.7-1c.5.5.4 1.7-.3 3-.8 1.6-1.7 2-3.2 1.5-5.3-1.7-10.9-.3-15.4 3.8-1.7 1.5-3.3 1.8-7.5 1.6l-5.4-.3.3-4.5c.5-6.8 1.4-7.1 17.1-6.6 7.4.3 13.9 1 14.4 1.5M34.9 637.1c2.4 7 .3 23.1-3.2 23.7-3 .6-5-5.9-4.3-14.5.4-4 1.2-8.4 1.8-9.8 1.6-3.5 4.4-3.2 5.7.6m949.9 1c2.3.9 2.8 3.7 1.6 9.7-.6 2.9-1 3.1-4.3 3-2-.1-4 0-4.6.2-.5.2-3.8 0-7.2-.4l-6.2-.8-.5-4.1c-1-8.4-.6-9.1 5.5-9.7 5.2-.5 10.9.3 15.7 2.1m-47.8-.6c.7.9 1.9 1.4 2.7 1.1.7-.3 1.3-.1 1.3.4 0 .6-.7 1-1.5 1-1.1 0-1.5 1.3-1.6 5.2-.1 6.1-1.1 9.8-2.3 7.9-.5-.7-2.9-1.2-5.9-1.2-2.9.1-7 .1-9.2.1-4 0-17.8 4-22.7 6.6-3.7 2-4.8 1.8-4.8-1 0-2.6 2.4-5.1 4-4.1.5.3 1.9 0 3.1-.8l2.1-1.5-2.2-.7c-1.2-.4-2.7-.2-3.3.4-1.5 1.5-3.7-.5-3.7-3.5 0-2.9 1.9-3.9 9.5-5.3 3.3-.6 9.6-1.7 14-2.6 4.4-.8 9.8-1.8 12-2.1s4.2-.7 4.4-1c.9-.9 2.9-.3 4.1 1.1m480.2 5.5c4 1.7 6.5 1.9 26.1 1.7s21.8 0 23.4 1.6c2.9 2.9.1 3.9-8.8 3.2-6.4-.4-8.8-.1-15.3 2-9.3 3-13.5 3.2-16.9.5-3.2-2.5-5.3-2.5-6.7-.1-2.2 4.1-14.2 5.2-15.7 1.4-.4-1-1.4-1.3-3.4-.9-3.6.7-4.8-1.1-2.1-3 1.2-.8 2.9-2.2 3.8-3.1.9-1 3.8-2.5 6.3-3.4s4.7-1.7 4.7-1.8c.1 0 2.1.8 4.6 1.9m-199.8 2.8c.6 1 1.8 26.9 2 41.2.1 7.7.4 9.5 1.6 9.5 9.3-.2 37.5-1.8 44.5-2.5 5-.6 18.9-1.2 31-1.5 12.1-.2 24.7-.9 28-1.5s19-1.7 34.9-2.5 29.2-1.7 29.5-2.1c.3-.3.6-3.1.6-6.2v-5.5l5.5-.3c5.8-.3 16.8-1.5 36.5-3.9 21.2-2.6 43-3.6 58.8-2.6 1.1.1 1.7.9 1.7 2.4 0 1.3.7 4.6 1.5 7.4l1.5 5.1 6.8 1.7c3.7.9 7.8 2.1 9.2 2.7s5.9 2.1 10 3.5 8.7 3.6 10.2 5c1.4 1.4 3.1 2.2 3.8 1.8.6-.4 2.2.1 3.7 1 2.1 1.4 2.7 1.5 3.4.4.8-1.2 1-1.2 1.8 0 .7 1.1 1.4 1.1 4.2-.3 2.2-1.1 4.4-1.4 6.4-1 2.4.5 2.8.4 1.8-.7-.7-.7-1.3-2.3-1.3-3.6 0-1.6-.8-2.7-2.5-3.3l-2.5-1 2.1-2.1c1.1-1.1 1.8-2.7 1.5-3.5s-.1-1.4.4-1.4 1 1.6 1.2 3.6c.2 2.3 1 4 2.1 4.5.9.5 2.5 1.3 3.5 1.8 1.2.6 1.6 1.9 1.5 4.6-.1 2.8.4 4.2 2 5.5 1.5 1.3 2.3 3.4 2.8 7.6 1.9 15.1 2.9 21.9 3.8 24.8.5 1.7 1.2 5.3 1.6 8.1l.7 5-2.1-1.9c-1.2-1.1-2.1-3-2.1-4.4 0-2.9-3.7-11.2-5-11.2-.5 0-1-1.2-1.2-2.7-.2-2-.9-2.7-2.8-2.9-1.4-.2-4-.6-5.7-1-2.6-.5-3.3-.3-3.3.9 0 3.1 3.2 5.2 7.3 4.8 1.3-.2 1.7.5 1.7 2.9 0 2.5.3 3 1.8 2.6 1.2-.4 2.2.4 3.5 2.6 2.3 4.1.7 5.9-2.1 2.3-2.9-3.7-4.4-2.4-3.6 3.4.5 3.6.2 5-1 6-1.8 1.5-2.2 4.1-.6 4.1 1.2 0 .3 6.9-1 8.3-.4.5-1.8-.5-3.1-2.2-1.6-2.1-3.1-3.1-5-3.1-1.5 0-2.9-.7-3.3-1.5-.4-1 .1-1.5 1.4-1.5 1.1 0 2-.5 2-1 0-1.4-2.3-1.3-3.7.1-.7.7-1.9.9-2.8.6-1.3-.6-1.5-2.3-1.3-11.4.3-10.3.4-10.8 2.6-11.1 2.6-.4 3-3.2.4-3.2-1 0-2.8-.9-4-2-1.5-1.5-2.9-1.8-5.1-1.4-2.4.5-3.2.2-3.8-1.2-.3-1.1-1.4-2.9-2.4-4.1-1.3-1.8-1.9-2-2.7-1-.8.9-.6 2.1.8 4.2 2.2 3.4 1.8 4.5-1.7 4.5-2.7 0-7-3.1-13.1-9.2-3.8-3.8-10.1-6.4-8.8-3.7.3.8.9 2.2 1.2 3.2.5 1.3 1.4 1.7 3 1.4 1.3-.2 2.4 0 2.4.6 0 1.2-9.4-.1-9.9-1.5-.2-.5-1.5-1.4-3-1.9l-2.6-1.1 2.5-1.2c1.4-.7 9.1-1.8 17.2-2.5 13.3-1.1 15-1 17.3.5 1.4.9 2.5 2.3 2.5 3 0 .8.7 1.4 1.5 1.4 2.1 0 1.9-1.6-.5-3.3-1.3-.9-1.9-2.3-1.7-4.3l.2-2.9-24.5.4c-39.4.5-88.7 2.5-94.3 3.7-1.5.3-6.9 1-12 1.5-18.2 1.7-49.1 5.7-52.2 6.6-1.1.4-3.3.7-5 .9-1.6.1-5.7.7-9 1.2s-6.6.7-7.3.4c-1.8-.6 4.4-4.2 14.3-8.2 4.4-1.8 9.4-3.8 11-4.5 6.6-2.9 27.8-7.3 38.7-8 3.5-.2 9.9-.9 14.3-1.4 16.1-2 37.7-3.1 67.5-3.3 16.8-.2 29-.4 27.3-.6-1.8-.2-3.3-.7-3.3-1.2 0-1.4-2.9-2-16.9-3.6-14.3-1.6-46.6-1.3-65.6.6-4.9.5-17.1 1.4-27 2s-24.3 1.5-32 2c-7.7.6-18.7 1.3-24.5 1.5-20.3.9-31.6 1.5-38 2-4.6.3-7.3 0-9.4-1-3.3-1.7-14.3-2-14.8-.4-.6 1.7-7 2.5-21.6 2.8-11.3.2-13.9.6-16.8 2.3-2.5 1.5-4.5 1.9-7.2 1.5-3.3-.5-3.9-.3-5.7 2.5-2.5 3.9-5.6 5.9-6.2 4-.7-1.8-2.6-1.5-4.7.9-1.2 1.5-2.4 1.9-3.9 1.4-5.3-1.6-11.3-1.6-14.2-.1l-3 1.6h4c4 0 12 2.3 14.1 4.1.6.5 1.4.6 1.7.2.4-.3 1.5.1 2.4.9 3.7 3.3 9.4 4.8 17.9 4.8 4.9 0 9.2-.5 10.4-1.2 2.1-1.3 3.6-.6 2.5 1.1-.3.6-2.6 1.1-5 1.1-2.9 0-4.5.5-4.9 1.5-.3.8-1.2 1.5-2.1 1.5s-1.8-.7-2.1-1.5c-.4-1.1-2.1-1.5-5.7-1.5-4.6 0-15.9-3.2-18.2-5.2-1.8-1.6-3.4-.8-8.4 4.3-5.2 5.3-9.2 6.3-9.9 2.6-.3-1.3.3-1.7 2.7-1.7 3.6 0 4.2-2.3 1.2-4-1.6-.8-2.3-.6-3.5 1.2-1.5 2.2-1.6 2.2-1.6.2 0-1.1-.5-2.5-1.1-3.1-1.6-1.6-.1-3.6 2.2-3 3.2.9 3.1-1-.2-2.3-2.3-1-4.4-1.1-8.7-.3-3.9.7-5.9.7-6.4 0-.7-1.2-18.8-.1-20.2 1.3-.6.6-.4 1.6.4 2.5 1 1.2 1 1.9.2 2.7-2 2-2.5 0-2.6-10.4-.1-9.2-.3-10.3-2-10.6-1.6-.3-1.8 0-1.1 1.9 1.1 3.6.6 10.2-.9 11.7-2 2-34.5 1.7-36.5-.3-1.2-1.1-1.5-5.1-1.8-17.2-.1-8.7-.4-21.7-.7-29-.3-9.4-.1-13.5.7-14.1 1.9-1.6 21.8-3.1 42.2-3.2 10.5-.1 24-.5 30-.9 15.6-1.1 40.3-1.3 40.9-.3m-671.1 2.8c1.4.5 1.7 1.7 1.7 7.6v7l-2.7-.7c-1.6-.3-4.5-.9-6.5-1.2l-3.8-.5v-6.2c0-3.5.3-6.6.7-7 .7-.7 6.6-.1 10.6 1m59.1 8.6c.6 4 .5 4.8-.9 4.8-2.6 0-2.7 2.5-.3 6.4 1.4 2.2 3.4 3.9 5 4.2 2.3.5 4.8 3.8 3.6 4.9-.1.1-3 .4-6.3.6l-6 .4.3-13c.2-8.5.8-13.2 1.5-13.7 1.7-1 2.4.1 3.1 5.4M107.9 675c0 3.2-.6 8.3-1.3 11.3-1 4.1-1 8-.3 15.9 1.1 11.1.1 24.7-1.8 23.8-1.5-.7-.7-56.2.8-57.2 2-1.2 2.6.2 2.6 6.2m1437 3.6c1.6 2.1 2.1 4.1 2.1 8.9 0 7.2-.2 7.3-7.8 6.7-4.2-.3-5.6-.9-6.8-2.8-.9-1.3-1.3-2.8-.9-3.4.9-1.5 3.2-1.2 3.9.6.3.8 1 1.3 1.5.9 1.4-.8.2-3.5-1.5-3.5-.9 0-1.4-1.2-1.4-3.4 0-3 .5-3.6 3.8-4.9 4.9-2.1 4.7-2.1 7.1.9m-58.3 36.7c-.1 2.3-.4 2.5-9.6 3.1-5.2.3-13.5.6-18.3.6-7.9 0-8.8-.2-8.5-1.8.3-1.4 2.1-1.9 11.8-2.7 6.3-.6 14.5-1.1 18.1-1.3 6.5-.3 6.7-.3 6.5 2.1m-56.5 7.2c3 2.7 4.8 3.5 7.7 3.5 2.1 0 4.2-.4 4.8-.9.5-.6 3.2-.4 6.9.4 3.6.9 10 1.3 16.2 1.1 5.7-.1 10.6 0 10.8.2.3.3-.3 1.1-1.2 1.7-1.6 1.2-1.4 1.7 2 5.4 4.2 4.7 4.4 5.1 1.9 5.1-.9 0-2.2-1-2.7-2.2-1.3-2.9-7.1-4.2-14.5-3.3-3 .4-8 .8-11 .9-3 .2-10.1.7-15.7 1.1-9.8.7-10.3.8-10.3 3 0 2.6-2.6 4-4.6 2.5-.9-.9-1.8-.6-3.3.9-2.5 2.5-2.7 3.9-.7 4.7s2.7 3 1.6 5.6c-.9 2.3-.9 2.3-.9.2-.1-2.9-2.7-4.9-6.2-4.6-2 .2-2.9-.2-2.9-1.3 0-.8.4-1.5 1-1.5 1.1 0 5-4 5-5.2 0-1.7-5.5-.7-9.8 1.8-4.1 2.4-5.1 2.6-11.6 2.1-46.4-3.9-53.1-4.2-84.1-4.2-18.1 0-45.1.3-60 .7-14.8.4-25.9.4-24.5.1s3-.9 3.7-1.5c.7-.5 14.7-1.1 33.5-1.4 40.3-.5 42.4-.7 45.8-4.4 5-5.3 9.4-6.8 22-7.3 6.3-.3 12.3-.8 13.2-1.2s2.4-.3 3.2.2c1.5.8 19.8-.5 36.6-2.6 4.7-.6 15.4-1.3 23.8-1.5s15.6-.7 15.9-1c1.5-1.5 4.9-.3 8.4 2.9m-369.1 5.7c0 .7-1.4 2-3 2.8-6.8 3.5-13 7.6-13 8.6 0 .6-1.1 2.1-2.5 3.4s-2.5 2.9-2.5 3.6c0 .6-.7 1.4-1.5 1.8-.8.3-1.5 1.2-1.5 2.1 0 .8-.4 1.5-1 1.5-.5 0-1 1.5-1 3.4s-.4 3.8-1 4.1c-3.6 2.2 1.7 3.3 6.7 1.4 1.5-.6 4.8-1.2 7.3-1.4 12.4-.8 22-3.4 22-5.9 0-.9.9-2 2-2.6s2.3-2.2 2.6-3.5 1.5-2.7 2.5-3c1.2-.4 1.9-1.6 1.9-3.1 0-2-.5-2.4-2.2-2.3-6.2.5-18.9-.2-18.3-1.1.3-.5 5.4-.8 11.8-.6 10.2.2 11.5 0 14.6-2 3.5-2.4 5.1-2.3 5.1.1 0 .8.7 1.8 1.6 2.3 1 .5 1.8 2.2 1.9 3.8s.3 3.7.3 4.7c.3 2.5 4.5 3.8 14.3 4.4 7.1.4 9.2.2 11.3-1.3 2.2-1.4 3.1-1.5 5.2-.5 1.4.6 2.3 1.5 2 2-.7 1.1-6.7 2.4-13.1 2.7-2.7.2-7.2.6-9.8 1-4.1.5-4.8.9-4.4 2.5.3 1.2 0 1.9-.8 1.9-1.6 0-6.5 5.6-6.5 7.5 0 1.5-2.5 2.6-4.4 1.9-.8-.3-2.3 1.4-4.1 5-4.8 9.6-7.5 8-5.7-3.2.9-5.5.9-7-.3-8.9-1-1.5-2.1-2-3.3-1.6-2 .7-8.8 6.1-12.3 9.7-1.3 1.4-2.9 2.6-3.6 2.6s-1.7.8-2.2 1.7c-1 1.7-1 1.7-1.1 0 0-.9 1.4-3.1 3-4.9 1.7-1.7 3-3.5 3-3.9 0-2.1-1.6-2-18.7 1.2-3.2.6-7.8 1.2-10.3 1.4-10.8 1.1-16.1 2.2-21 4.8-2.8 1.5-5.8 2.7-6.6 2.7s-1.4.4-1.4.9c0 .4-2.4 2.4-5.2 4.4-2.9 2-6.6 4.7-8.3 6.1-3.2 2.6-2.7 2.6-40.5 4.1-8 .4-15.5.8-16.7 1.1-4.6.9-3.7 9.8 1.2 11 4.4 1.1 2.7 2.2-4.2 2.7-5 .3-7.4 0-9.2-1-2.1-1.4-2.5-1.4-3.3.1-.6 1.1-2.3 1.6-5.6 1.6-2.6 0-7.3.4-10.6 1-3.7.6-6.5.6-7.6 0-1.3-.7-2.1-.5-3 .5-.6.8-2.4 1.4-3.8 1.3-5.4-.1-11.3.6-11.8 1.4-.3.5-16.5.8-36 .6l-35.4-.2v-5.3c0-3 .6-8.3 1.2-11.8l1.3-6.5 7.5-.1c11.1-.1 17.2-.6 19.5-1.4 7.7-2.7 10.2-3.9 12-5.5 2.3-2.1 13.8-4 24.5-4 5.8 0 7 .3 8.2 2.1 1.3 2 2.3 2.2 10.8 2.1 5.2 0 11.5-.5 14-1.1s6.4-1.1 8.8-1.1 6.2-.4 8.5-.9 16.6-2.6 31.7-4.6c15.1-1.9 30.7-4.1 34.5-4.6 3.9-.6 10.8-1.5 15.5-2 4.7-.4 10.9-1.4 13.8-2.1 4.8-1.2 5.5-1.7 6.7-4.8 2.8-7.7 4.7-11.3 7.9-14.5 1.9-1.8 4-4.2 4.7-5.2.8-1 5.9-4.2 11.4-7 9.8-5.1 15.5-6.6 15.5-4.1m-954.4 38.2c-.3 4.7-.2 8.7.2 9 .5.3 1.2 15.5 1.6 33.8s1.1 36.7 1.5 40.8c.6 5.9.5 7.9-.7 9.2-1 1.2-1.2 2.8-.8 5.3 1.3 6.5.4 7.4-6.7 6.8-8.8-.8-9.1-1-9.4-8.7l-.2-6.6 3 2.2c3.4 2.5 2.9 2.9 7-4.4 1.7-2.8 1.5-6.8-.2-6.8-.5 0-.7-1-.4-2.3.3-1.2.1-2.8-.4-3.6-.7-1.1-1.4-1-3.8.7-1.8 1.3-3.8 1.9-5.1 1.6-1.6-.5-2.4.1-3.6 2.5-.9 1.6-1.6 3.6-1.6 4.4s-.7 2-1.5 2.7c-1.1.9-1.9.7-3.8-1.2-1.3-1.3-2.9-2.2-3.5-2-1.1.3-2.3-4.1-2.5-9.9l-.2-3.4 11.5-.1c6.3-.1 12 .3 12.7.8 2.4 1.9 3.6-3.1 2.9-12.1-.7-10.4-.7-18.8-.1-34.5.4-8.7.2-12.2-.7-12.7-.8-.5-.9-1.1-.1-2.1.6-.7 1.3-4.4 1.6-8.2.6-6 1.8-9.6 3.5-9.6.3 0 .2 3.8-.2 8.4m1257.5-7.5c-.8.5-8.7.9-17.5.9-8.9 0-26.4.1-39 .2-15 .1-23.2-.2-23.9-.9-.8-.8 11-1.1 40.4-1.1 24.9 0 40.8.4 40 .9m-191.6 1.7c1.3.5 1 1-1.5 2.5-1.7 1.1-3.7 1.9-4.4 1.9s-2.4 1.6-3.7 3.5c-2.5 3.7-2.8 3.8-7.2 3.5-1.5-.1-3.4.3-4.1.9-1.8 1.5-4 .5-5.6-2.5-.7-1.3-1.6-2.4-2-2.4-1.3 0-5.9-4.8-5.3-5.4 2.1-2.1 10.3.5 10.3 3.3 0 .4 1.8 1.4 4.1 2.1 4.9 1.7 6.7.8 9.2-4.3 1.5-3.2 2.2-3.7 5.1-3.7 1.9 0 4.2.3 5.1.6m20.5.1c0 .1-1.6 1.1-3.5 2.3-2 1.2-4.2 2.8-4.9 3.6-.8.7-3.9 2.5-6.9 3.9-3 1.5-6.3 3.5-7.3 4.6-.9 1-2.1 1.9-2.6 1.9-.4 0-3.1 1.6-5.8 3.5-5.2 3.7-8 4.4-8 2.1 0-2 5.4-5.7 15.5-10.6 5-2.4 9.2-4.7 9.5-5s1.4-1 2.4-1.6c3.8-2 3-3.4-1.9-3.4-2.5 0-4.4-.4-4.1-.9.4-.6 17.6-1.1 17.6-.4m56 .2c0 .5-1.2 1.2-2.6 1.5-2.1.6-2.3 1-1.4 2.1s.6 1.7-1.5 3.1c-1.8 1.2-2.4 2.2-2 3.5.6 1.8-.4 2.4-2.9 2-.5-.1-4.8.3-9.5.8-4.7.6-12.2 1.1-16.6 1.2-8.3.1-15 1.3-16 2.8-.8 1.4.6 7.1 1.9 7.1.6 0 2.2.9 3.6 2l2.5 2h-8c-11.3.1-26.9 2.4-29.9 4.3-1.4 1-2.8 1.7-3.1 1.7-1.2 0 7.3-7.9 11.5-10.7 2.5-1.7 5.7-4.1 7.1-5.4 5.1-4.6 9.1-7.3 15.7-10.7 6.4-3.2 7.1-3.3 14.5-2.8 9.9.7 22.1-.8 26.1-3.3 3.2-2 10.6-2.8 10.6-1.2m53 9.1c.6.8.8 2.6.5 3.8-.3 1.3-.1 3 .6 3.8.6.7.9 2.1.5 2.9-.4 1.2-2.8 1.5-12.8 1.5-6.8 0-14.3.5-16.7 1.1-2.4.5-4.5.8-4.6.7-.9-.9 1-6.1 2.4-6.5.9-.2 2.3-1.9 3.1-3.6 2.1-4.5 4.3-5.2 15.9-5.2 7.9 0 10.4.3 11.1 1.5m-89 65.2c.2 15.7-.2 37.7-.7 39.5-.4 1.8-1.2 2.3-3.6 2.3h-3l.7-15.5c.5-12.1.4-15.5-.6-15.6-.7-.1-2.2-.2-3.3-.3-3.6-.2-3-4.1 1-6.5 1.9-1.1 3.8-2.7 4-3.6.3-.8.7-2.2 1-3 .2-.8 1.4-1.5 2.5-1.5 1.7 0 2 .7 2 4.2m-21.9-1.9c4 3 5.2 11 2.5 16.2-1.3 2.5-1.3 3.1.5 6.4 2.3 4.3 2.5 12 .4 16-.8 1.6-2.8 4-4.5 5.4-5.6 4.8-13.9 1.4-16.1-6.6-1.2-4.5-.3-6 3.2-5.5 1.8.2 2.5 1.1 2.9 3.3.5 2.7.9 3 4 3 4.7 0 6.8-3.6 5.5-9.2-.8-3-1.5-3.9-3.5-4.2-1.4-.1-2.8-.8-3.1-1.3-1.1-1.7.2-4.8 2.5-6 1.1-.6 2.4-1.6 2.8-2.2 1.3-1.9.8-6.9-.8-8.7-2.2-2.4-5.1-.9-7 3.7-1.5 3.6-4.7 4.7-5.8 1.9-.6-1.8 1.2-7.2 3.3-9.8 3-3.6 10-4.9 13.2-2.4m-24.8 3.7c2.7 2.2 4.7 7.4 4.7 12.4 0 3.5-3 10.1-6.2 13.6-6.8 7.5-8.9 10.3-8.1 11.1.5.5 3.5.4 6.7-.1 6.7-1.1 7.6-.8 7.6 2.4 0 3.4-1.5 4.2-11 5.5-13 1.7-12.4 1.9-11.6-3.6.7-5.4 3.7-10.9 9.5-17.5 7.4-8.3 8.5-14.9 3-17.8-2.6-1.4-4.8.4-6.5 5.2-2.2 6.7-7.1 6.2-5.9-.6 1.9-10.1 11.3-15.7 17.8-10.6m-26.8 1.6c3 3 4.7 6.4 4.1 7.9-.8 2.3-6.1 1.9-7.7-.6-2.6-3.8-6.9.1-8.3 7.4l-.7 3.7 4.9-1.9c4.6-1.8 5.1-1.9 7.3-.3 3.6 2.4 4.6 4.2 5.7 9.4.7 3.6.5 5.9-.9 10.3-2 6.6-4.1 9.2-8.7 11.2-3 1.2-3.7 1.2-6.5-.4-4.3-2.5-6.5-7.4-7.7-16.7-1.1-8.5.3-18.5 3.5-24.6 3.1-5.9 11.4-8.9 15-5.4M955 839c2.7 1.7.1 2.2-13.7 2.6-7.6.3-22.1.9-32.3 1.5-31.3 1.7-86.6 3-105 2.4-26-.7-31.8-1.7-29.2-4.7 1.4-1.7 17.4-.7 19.8 1.3 1.2 1 9.7 1.2 40.2 1.1 21.3-.2 42.2-.7 46.6-1.3 4.3-.6 16.9-1.2 28-1.5 11-.2 23.5-.8 27.6-1.2 10.8-1.2 16.3-1.3 18-.2m457.8 4.9c1.4.8.7 8.1-.7 8.1-.4 0-.7 1-.7 2.2.1 1.9-.4 2.3-2.9 2.3-1.9 0-3.1-.6-3.3-1.6-.2-1.3.3-1.5 2.2-1.2 2.1.4 2.6 0 3.2-2.2 1-3.9-1.6-5.3-3.4-1.8-1.1 2-1.6 2.3-2.3 1.2-.8-1.2-1-1.2-1.8 0-1 1.6-3.1.6-3.1-1.5 0-1.7-1.2-1.8-2.8-.2-1.3 1.3-1.7 6.8-.4 6.8.4 0 1.3-.5 2-1.2.9-.9 1.5-.9 2.3-.1s.4 1.5-1.2 2.7c-4.2 2.9-6.1 1.8-6.3-3.8-.1-3.3-.4-3.6-3.6-3.6-2.6 0-2.6 2.6 0 4 1 .6 1.7 1.6 1.4 2.3-.5 1.5-5.1 3.7-7.6 3.7-2.6 0-2.2-1.9.7-3s3-1.6 1-3.6c-2.3-2.3-5-1.3-5.3 2-.5 3.7-2.6 5.8-5.4 5.4-1.8-.2-2.4-1.1-2.6-3.8-.2-1.9-.7-3.9-1.2-4.4-1.5-1.5-4 1.4-4 4.4 0 4.7-.9 6.1-3.2 4.9-1.4-.7-2.3-.7-3.4.2-2.5 2-5.4-1.5-4.7-5.7.5-3.1.4-3.4-2-3.4-3.6 0-4.4 1.9-1.7 4 2.8 2.1 2.1 4.6-1.7 6.1-3.1 1.2-6.9.8-6.6-.6.1-.6 1.2-1.2 2.4-1.5 3.4-.8 3.3-2.5-.1-5-2.2-1.6-3.1-1.8-3.4-.8-1.1 3.4-1.9 7.4-1.7 8.4.2 1.8-6.2 2.5-7.5.8-1.4-1.8-2.8-1.8-4.4.1-1.8 2.1-4.6 1.9-7-.7-1.5-1.7-2-3.5-2-8 0-5.7 0-5.8 3.6-7.3 4.1-1.7 8.4-2 8.4-.6 0 2.5-1.4 4.1-3.6 4.1-1.7 0-2.4.6-2.4 1.9 0 1.1-.4 2.3-1 2.6-.5.3-1 1.7-1 3.1 0 1.9.5 2.4 2.4 2.4 2.8 0 5.6-2.4 5.6-4.7 0-3.1 3.1-5.3 7.5-5.3 6.8 0 15.8-2.2 17.5-4.2 1.5-1.9 1.6-1.9 3.8.2 2.5 2.4 2.8 3.6.8 4.3-2 .8-2.7 5.7-.8 6.4 2.2.9 4.4-2.6 3.7-5.8-.7-3.3 0-3.8 5.9-4.3 2.5-.3 4.9-.7 5.4-1 .4-.2 1.4-.1 2.2.4s2.1.5 3.1-.1c1-.5 3.5-1 5.7-1.2 2.1-.2 4.4-.7 5-1.1.6-.3 3.9-.7 7.5-.7 3.5-.1 7.1-.5 7.8-1 1.8-1.1 4-1.1 5.7 0m-102.1 5.5c4 3.8 4.3 4.4 4.3 9.4 0 5.4-1 8.4-3.9 11.3-1.5 1.5-1.9 1.5-5.3-.2-2.1-1.1-4.6-1.9-5.6-1.9-3.5 0-6.3-3.3-7.3-8.3-1-5.6-.6-7.1 2.7-8.5 1.3-.7 2.4-1.8 2.4-2.6s.7-2.2 1.6-3c2.2-2.3 6-1 11.1 3.8m-406.8-1.2c24.2.1 31.7.4 25.1.9-5.2.4-11.5 1.2-14 1.7-2.5.6-11 1.3-19 1.7l-14.5.7-3.5 4.4c-1.9 2.4-4.4 6-5.5 8.1s-2.9 5.1-3.9 6.7c-2 2.8-2 2.9 0 4.3 1.7 1.3.3 1.4-11.4.8-7.3-.3-15.2-1.2-17.5-2-2.3-.7-5.5-1.5-7.2-1.7-2.6-.3-3-.7-3.1-3.3 0-1.7-.5-3.9-1.1-5.1-.7-1.1-1.1-3.5-1.1-5.2.1-2.9.4-3.2 3.2-3.3 1.7-.1 4.2-.4 5.6-.9 2.3-.6 2.2-.8-1.5-1.4-2.2-.4-5.9-1.1-8.2-1.7-2.3-.5-7-.9-10.5-1-3.5 0-7.2-.4-8.3-.8-3.4-1.4 3.6-2.1 20.4-2.2 8.6 0 17.4-.4 19.6-.9s8-.7 12.9-.5c4.9.3 24.5.6 43.5.7m-313.1 14.4c-1.3 1.9-2.6 3.4-2.9 3.4-.4 0-2.6 1.8-4.9 4s-4.4 4-4.6 4-1.2.8-2.2 1.7c-1.1 1-2.8 2.5-3.8 3.3-4.9 3.9-12 9.6-13 10.5-.7.5-3.5 2.8-6.4 5s-6.2 4.9-7.4 6c-1.1 1.1-4.8 4.2-8.1 7-3.3 2.7-7 6-8.2 7.2-1.2 1.3-2.6 2.3-3 2.3-.5 0-2.5 2.1-4.5 4.8-2 2.6-4.6 5.8-5.8 7.2s-2.7 3.7-3.2 5.2c-.6 1.6-1.4 2.8-1.9 2.8s-1 1.5-1 3.2c-.1 2.7-.3 2.9-.6.9-.3-1.4.3-5 1.3-8 1.5-4.3 3.4-7.1 8.4-12.1 3.6-3.6 7.7-7.4 9-8.4 1.4-1.1 3.9-3.1 5.6-4.5 1.6-1.4 4.5-3.7 6.4-5.1s5.3-4.2 7.6-6.3c2.3-2 4.4-3.7 4.7-3.7s2.1-1.5 4-3.3c1.9-1.7 4.6-4.1 6.1-5.1 1.5-1.1 3.7-2.8 4.9-3.8 1.2-1.1 3.2-2.8 4.5-3.9 1.2-1 2.5-1.9 2.8-1.9s3.2-2.8 6.3-6.2 6.8-7.5 8.4-9.1c1.5-1.6 2.8-4.1 2.9-5.5.1-1.8.3-1.4.5 1.1.3 2.9-.2 4.8-1.9 7.3m-557.3 19c3.9 1.5 10.1 3.2 13.8 3.9 7.5 1.4 9.1 2.3 8.5 5.1-.3 1.6-1.2 1.9-5.8 1.6-6-.4-13.2-2-14-3.1-.8-1.2-13.1-5.1-16.1-5.1-1.5 0-3.4-.3-4.3-.6-1.9-.7-2.1-4-.3-4.8 2.4-1.1 11.3.4 18.2 3m49.8.1c2.8 1.4 5.9 3.2 6.8 3.9 2.3 2 16.5 6.4 20.4 6.4 2.9 0 3.5.4 3.5 2 0 3.1-1.8 3.2-10.4.5-4.3-1.4-8.3-2.5-8.9-2.5-.5 0-3.2-1.4-5.9-3-2.7-1.7-6.5-3.1-8.3-3.2-3.5-.1-4.5-1.5-3.7-5.1.5-2.2.3-2.2 6.5 1m1535.4 19.5c.6 18 .6 124.5 0 133.2-.3 4.3-.2 8.9.3 10.2.6 1.5.6 2.4 0 2.4s-1 2.1-1 4.7c0 6.9-2 17.2-3.7 18.8-.9.9-1.2 2.3-.8 3.5.7 2.4-2.4 17-3.7 17-.4 0-.8.9-.8 2s-.4 2.8-.9 3.8c-.5.9-1.2 2.5-1.5 3.5-.9 3-2.6.9-2.5-3.1.2-6.5 1.3-9.7 3.3-9.5 1.6.1 1.7-.5 1.1-4.9-.6-4.3-.5-5 .8-4.5 1.1.4 1.7-.3 2.1-2.5.8-4 .2-4.5-2.8-2.4-1.4.9-3.2 1.6-4.1 1.6-.8 0-1.5.4-1.5 1 0 .5-.9 1-1.9 1-1.1 0-2.2.4-2.6.9-.6 1-15 6.9-20 8.1-1.6.4-5 1.5-7.5 2.4s-8.5 2.7-13.5 4.2c-4.9 1.4-10.5 3.2-12.3 4s-4.3 1.4-5.6 1.4-2.9.7-3.6 1.5c-.9 1.1-1.7 1.2-3.2.4-1.8-1-1.9-1.7-1.3-6.4.3-2.9 1-10.6 1.6-17.2.5-6.5 1.1-13.6 1.4-15.8.4-4.1 2.7-32.3 4.5-56.5.5-7.4 1.2-22.7 1.6-34 1-30.3-.6-24.9-2.5 9-.5 8-1.6 22.4-2.5 32s-2.1 23.3-2.6 30.5c-2.8 39.2-4.6 59.1-5.5 60.4-.3.6-1.8 1.1-3.3 1.1-2.4 0-10 2.1-47.2 12.6-3 .9-6.4 2-7.5 2.4s-4.9 1.6-8.5 2.5-7.6 2-9 2.4c-9.5 3.2-37.7 11.1-65.5 18.4-7.1 1.9-16.1 4.4-20 5.5-3.8 1.1-10.6 2.9-15 4.1s-9.6 2.8-11.5 3.6c-1.9.7-9.3 2.8-16.5 4.5-19.4 4.6-24.1 5.8-34 8.5-8.3 2.3-20.2 5.4-69.5 18.1-49.9 12.9-84.4 21.4-86.5 21.4-1.3 0-2.7.5-3 1-.4.7-1.3.7-2.4 0-1.6-.8-1.9-3-2.5-15.7-.4-8.1-1.4-21.3-2.3-29.3-.8-8-1.8-19-2.2-24.5l-.8-10 .2 12c.3 13.1 2.1 51.3 2.9 61.2.4 4.1.2 6.4-.7 7.1-.7.5-7 2.2-14.2 3.7-21.6 4.5-35.5 7.4-45.5 9.5-5.2 1-14.7 3-21 4.4-21.5 4.6-27.8 5.8-56.5 10.5-19.3 3.2-29.6 4.6-64.5 8.5-46.3 5.3-113.1 4.4-138.3-1.8-3.2-.8-6.4-2-7.2-2.6s-1.9-.9-2.5-.5c-1 .6-7.5-1.2-9.6-2.7-1.2-.9-1.6-9.2-3.3-72.3-.6-20.9-1.5-47.7-2.1-59.5-.8-18.4-1-34.4-.7-69 .1-14.9-1.4-122.8-1.8-126.3-.6-5.2.2-6.9 2.5-5.7 1 .6 3.2 1 4.9 1 2.7 0 3.1.3 3.1 2.7 0 1.6 0 32.2.2 68.1.2 67.4.3 69.5 4.1 66.4.9-.8 1.1-5.7.6-21.4-1.4-43.9-2.2-108.5-1.3-109 1-.6 22 2.5 48.4 7.3 25.3 4.5 25.9 4.6 33 6.3 3.6.8 9 1.6 12 1.6s6.1.4 6.9.9c.7.5 2.5.4 4.2-.3 2.3-.8 3.4-.7 5.1.3 1.4.9 7.4 1.6 16.2 2.1 7.8.5 18.6 1.3 24.1 1.9 37.4 4.2 53.8 6.4 58.9 8.1 1.6.6 5.2 1 8.1 1 2.8 0 7.6.4 10.6.9 3 .6 11.7 1.7 19.4 2.6s14.8 2.1 15.7 2.6c1 .5 5 .9 8.8.9 4.7 0 8.2.6 10.3 1.7 1.8.9 5 1.9 7.1 2.2 4.4.7 6.3 3.1 2.4 3.1-1.4 0-4.7-.7-7.6-1.5-2.8-.9-8-1.7-11.6-2-3.6-.2-7.6-1-8.8-1.7-2.3-1.3-17.8-2.8-31.4-3.1-5.3-.2-7-.5-6.7-1.5.4-.9-1.9-1.2-9.3-1.2-13 0-11.8 1.1 2.1 1.9 5 .3.8 1.8-7 2.5-6.8.7-12.2 1.9-15.7 3.7-1 .5-2.7.9-3.8.9-3 0-1.4 2.7 2.1 3.4 1.7.3 2.9 1.2 2.9 2.1 0 2-4 3.6-11 4.4l-5.4.6.4 5c.2 2.7.4 6.8.4 9l.1 4-5.5.7c-3 .3-8.6.2-12.5-.3-14.8-1.9-37.3-4.3-44.2-4.7-4.1-.2-7.3-.8-7.3-1.4 0-.7-1.9-.8-5.3-.4-2.9.4-7.3.2-9.8-.3-6.1-1.5-28.7-3.3-30.1-2.5-1.1.7 7.6 3.1 19.5 5.4 3.7.8 6.7 1.7 6.7 2.1 0 .5-1.6 1.1-3.4 1.5-3.7.6-3.7.3-.2 7.1.9 1.7 1.6 4.9 1.6 7 0 2.2.3 4.3.7 4.7.5.4 1.4 3.8 2.1 7.4.7 3.7 1.5 7.9 1.8 9.4.4 1.8.2 2.8-.5 2.8-.6 0-.2.9.9 2 1.9 1.9 2.5 4.6 2 9.7-.1 1.7.4 2.3 1.9 2.3 1.2 0 2.1-.3 2.1-.8.1-2.1-4.3-24-5.1-25.4-.5-1-.9-3.3-.9-5.2s-.4-4.5-.9-5.8c-5.3-13.9-2.6-17.8 10.1-14.8 10.3 2.5 26.8 5.3 46.8 8 31.1 4.2 39.7 5.6 49.1 8.1 2 .5 5.2.9 7.1.9s5.9.4 8.9 1c3 .5 19.1 3.2 35.9 6s34.1 5.7 38.5 6.6c19 3.5 18.4 3.5 24.6 1.4 4.8-1.6 6.7-1.8 10.6-1 2.6.5 7.1 1.3 9.8 1.7 4.6.7 5.1 1.1 6.2 4.3.7 1.9 1.3 6.2 1.3 9.5.2 5.5.3 5.7 1 2.5.5-1.9 1.2-5.2 1.5-7.4.4-2.6 1.2-4 2.6-4.3 1.7-.5 1.9-1.2 1.5-6.2-.3-3.1-.9-7.6-1.5-10.1-.5-2.5-1.5-8.6-2.1-13.5-.6-5-1.5-11.2-2-13.8-1.7-8.6-1.3-13.2 1.6-16.6 1.7-2 3.5-3.1 5.2-3.1 1.5 0 4.7-.7 7.2-1.6 5.1-1.8 14.9-4.8 23-7 3-.8 15.8-3.1 28.5-5 12.6-1.9 27.3-4.1 32.5-4.9 5.2-.9 12.7-2 16.5-2.5 3.9-.6 7.7-1.2 8.5-1.5.8-.2 5.6-.9 10.5-1.6 11.4-1.4 16.7-2.1 39-5.4 18-2.6 40.3-5.8 52.5-7.5 12.8-1.7 28.6-4 35.5-5 3.9-.6 10.6-1.5 15-2s11.2-1.4 15-2c10.7-1.7 75.3-10.1 92.5-12 5.2-.7 15.7-2 23.4-3.1 16.8-2.4 20.3-2.6 21.8-1.1 1.8 1.8 3.6 1.4 4.3-.8.7-2.3 4.3-2.7 5.1-.5.5 1.3 1.1 1.2 4.1-.6 4-2.5 5.4-2 2.5.9-1.1 1.1-2.2 2.8-2.4 3.9-.3 1.3-1.1 1.7-3.1 1.5-3.2-.3-3.3 0-1 3.4 1.4 2.3 1.5 3.3.5 8.3-1.6 7.4-1.5 17.4 0 18.9 1 1 .7 1.7-1 3.4l-2.1 2.2.2-14 .2-13.9-3-4.2c-3.2-4.5-4.3-5.1-6.3-3.1-1.7 1.7-13.1 3.6-21.9 3.7-3.9.1-7.5.5-7.8 1.1-.3.5-2.3 1-4.3 1s-5.3.4-7.2 1c-3.7 1-19.3 3.5-32 5.1-9.9 1.3-18.9 2.6-34 5-6.9 1.1-19 2.8-26.9 3.9-8 1.1-15.2 2.2-16 2.6-1.8.8-8.9 1.8-23.1 3.4-5.2.5-12.6 1.4-16.5 1.9-3.8.5-10.8 1.4-15.5 2-4.6.6-10.5 1.4-13 2-2.5.5-8.5 1.5-13.5 2.1-10.2 1.3-19.7 2.6-30 4-3.8.5-12.6 1.7-19.5 2.6-6.8.8-12.8 1.8-13.3 2.1-1.2.7-11.7 2.2-35.7 5.2-4.1.5-11.8 1.6-17 2.6-15.2 2.7-49.1 7.7-60 8.9-3.9.4-10.9 1.6-12.6 2.1-.9.3-.8 1.9.3 6.2.7 3.2 1.8 9.8 2.3 14.8.5 4.9 1.6 13.7 2.3 19.4l1.3 10.4-2.8 3c-1.6 1.6-2.7 3.1-2.4 3.4.9 1 7.8.5 8.9-.6.6-.6 2.5-1.1 4.2-1.1s8-.9 14.1-2c6-1.2 17.4-3.2 25.4-4.6s18.1-3.2 22.5-4c13.1-2.5 16.5-3.1 26.5-4.7 14.4-2.4 26.7-4.6 34.5-6.1 3.9-.7 11.1-2.1 16-3 5-.9 11-2.1 13.5-2.6 4.4-1 14.5-2.6 22.5-3.5 2.2-.3 5.1-.9 6.5-1.5 1.4-.5 6.9-1.7 12.2-2.5 5.4-.9 10.3-1.8 11-2 .7-.3 6.5-1.4 12.8-2.5 6.3-1.2 14-2.5 17-3.1 3-.5 9.3-1.7 14-2.5s11-1.9 14-2.5c3-.5 8-1.4 11-1.9 8.1-1.3 15.1-2.8 28.5-6 6.6-1.6 13.6-3 15.5-3.1 1.9-.2 4-.6 4.5-1 .6-.3 5.3-1.2 10.5-1.8 11.4-1.5 30.9-4.7 33-5.5 1.9-.8 24.1-4.7 30-5.3 2.5-.3 4.9-.9 5.5-1.4.5-.5 1.8-.9 3-.9s2.5-.4 3.1-.9c.5-.5 4.1-2.6 7.9-4.6 3.9-2.1 7.2-4.1 7.5-4.5s2.1-1.4 4-2.2c4.5-1.9 34.1-21.5 39.9-26.5 2.5-2.1 7.2-6.6 10.5-10s6.3-6 6.5-5.7c.2.2.6 5.5.8 11.6M81.5 914c.3.5 1.7 1 2.9 1 1.3 0 3.5.9 4.9 2 2.1 1.7 4 2 11.5 2 7.4 0 9.2.3 10.6 1.9 1.5 1.6 1.5 1.9.1 3.1-2 1.7-1.9 3.3.4 4.7 2.6 1.6 4 8.8 4.2 21.8.2 14.8.3 14.3-2.5 13.8-2.4-.5-4.9 1.8-2.8 2.5.7.2 1.2 2.5 1.2 5.9 0 4.6.3 5.6 2 6 1.1.3 2 .9 2 1.4s-.6.6-1.4.3c-1.7-.6-4 5.2-2.5 6.2.5.3.7 1.5.4 2.5-.4 1.2.1 3.1 1.1 4.6 1.3 2.1 1.7 4.9 1.7 13 0 5.7-.3 10.6-.7 11-.8.8-29.4-8.5-31.3-10.2-1.2-1.1-3.7-37.2-2.7-39.8.3-.9.1-4.9-.5-8.9-.9-5.7-1.6-33.7-1.2-44.1.1-1.9 1.6-2.3 2.6-.7M57 922.4c0 1.1-1.4 1.6-4.7 1.8-6.2.4-6.7 2.4-.9 3.9 2.5.6 5 1.6 5.5 2.3.5.6 1.2 8.1 1.5 16.6.4 8.5 1 17.9 1.5 20.7l.8 5.3h-2.9c-1.6 0-6.1-1.4-10-3-5.1-2.2-8.6-3-12.8-3-3.3 0-6.1-.4-6.4-.9-.4-.5-2.4-1.2-4.5-1.6-2.2-.4-4.5-1.3-5.1-2.1-1.7-2-3.6-33-2.1-34.7 1.9-2.3 22.7-6.5 32.9-6.6 5.6-.1 7.2.2 7.2 1.3m69.4 22.7c-.4 2.6-.3 6.1.2 7.6.7 2.6.8 2.5 1.3-1.7.7-5.3 2.3-5.5 3.4-.5.5 2.6.3 4.3-.8 5.8-1.9 2.7-1.9 5.3-.1 6 1.9.7 2.6-.1 2.6-3.2v-2.5l1.6 2.3c1.4 2 1.5 2.6.3 4.9-.8 1.5-1.7 2.9-2 3.2-.4.3-1.1 2.4-1.5 4.8-1 4.7-2.6 5.6-3.5 2l-.5-2.3-.7 2.5c-1 3.8-2.9 1.1-2.5-3.6.2-3.1.7-3.8 2.1-3.6 1.2.2 1.7-.4 1.7-1.9 0-1.7-.3-1.9-1.3-1-.8.6-1.7.8-2 .4-.4-.3-.7-6.5-.7-13.6 0-11.5.2-12.8 1.5-11.7 1.2 1 1.4 2.4.9 6.1m14 41.5c.3.8.1 2.4-.4 3.4-2.2 4.2-.2 12 3.1 12 1.6 0 3.9 2.7 3.9 4.4 0 1.2-2.8.5-3.3-.8-.4-.9-1.9-1.2-4.5-1.1-4.9.3-7.5-1-5.2-2.5 1.3-.9 1.3-1.1 0-2-.8-.5-2.7-.7-4.1-.4-2.5.5-2.7.2-3.1-3.6-.4-4.3.5-6 3.4-6 1 0 2.5-1.1 3.4-2.5 1.8-2.8 5.9-3.4 6.8-.9m203.6 31.7c0 .7 1.4 2.3 3 3.7 1.7 1.4 3 2.9 3 3.5s1 2.8 2.1 5c1.2 2.2 2.8 6.2 3.5 9 1.6 5.9 1.9 19.5.4 19.5-.5 0-1-.6-1-1.4 0-.7-.7-1.9-1.5-2.6-1.1-.9-1.5-2.8-1.3-5.8.1-2.9-.3-4.7-1-5-.7-.2-1.2-2.2-1.2-4.7 0-2.4-.4-4.7-1-5-.5-.3-1-1.7-1-3.1 0-2.8-1.6-3.2-2.4-.7-.2 1-.2-.4.1-3.1.5-4.3.4-4.8-1.1-4.3-.9.4-1.6.2-1.6-.3 0-.6-.7-1-1.5-1-1.8 0-2-3.6-.2-4.3 2.1-.9 2.7-.8 2.7.6m354 2.2c5.4 1.1 5.9 1.3 2.8 1.4-4.1.1-13.7 1.4-26.3 3.6-4.4.8-11.1 1.9-15 2.4-3.8.6-10.4 1.5-14.5 2.1-23.1 3.3-37 4.5-35 3.1.8-.6 2.8-1.1 4.4-1.1s4.5-.4 6.5-.9 6.8-1.5 10.6-2.1c11.4-1.8 31.6-5 38-6.1 3.3-.6 9.4-1.6 13.5-2.3s7.7-1.4 8-1.4 3.4.5 7 1.3m-193 29.9c0 .8-.5 1.8-1 2.1-.7.4-1 20.3-1 59.8 0 32.6 0 59.9-.1 60.7-.2.8-.6-3-1-8.5-.9-13.2-2.3-112-1.6-114 .8-1.9 4.7-2 4.7-.1m906.5 110.8c1.2 24.5 1.3 24-5.8 25.7-4.6 1-13.2 3.9-15.9 5.2-.9.5-3.5 1.2-5.8 1.5-2.2.4-4.3 1.1-4.6 1.5-.3.5-1.5.9-2.8.9-1.2 0-2.6.3-3 .7-.8.8-6.7 2.5-17.1 4.8-3.8.9-9.1 2.5-11.7 3.6-2.6 1-5.7 1.9-7 1.9-2.5 0-12.3 3.2-13.5 4.3-.3.4-1.8.7-3.3.7s-3 .3-3.4.7c-.7.7-12.2 3.9-18.1 5-1.6.3-3.4.9-4 1.3-.5.4-5.5 1.9-11 3.4s-10.8 3.1-11.8 3.7c-1.2.7-1.9.6-2.2-.3-.5-1.6-1.3-14.9-1.8-31.6l-.4-12.2 4.1-1c2.3-.6 5.5-1.5 7.2-2 1.7-.6 4.4-1 6-1s3.8-.7 4.8-1.5c1.1-.8 2.9-1.5 4.1-1.5s2.6-.5 3.3-1.2 2.8-1.1 4.7-1c2 .2 4.8-.4 6.3-1.2 3.7-1.9 11.3-4 13.8-3.7 1.1.1 2.6-.5 3.3-1.3.8-.9 1.7-1.3 2.2-1s4-.4 7.7-1.6c3.8-1.1 7.9-2 9.1-2s2.9-.4 3.9-.9c5.3-2.7 9.7-4.1 12.6-4.1 2.1 0 3.6-.6 4-1.5.3-.9 1.5-1.5 2.8-1.3 2.1.2 18.1-4.3 22-6.3 1-.5 2.9-.9 4.2-.9 1.4 0 2.8-.5 3.1-1 .3-.6 2.1-1 3.9-1s4.1-.7 5.2-1.5c3.3-2.4 4 .4 4.9 17.7m-877.8 26c10.3 2.5 11.4 3.2 8.9 5.6-1.4 1.2-2 1.4-2.3.4-.3-.6-1.9-1.2-3.7-1.2s-5.7-.8-8.7-1.7c-6.3-1.9-8-1.8-12.3.8-3.4 2.1-3.4 2.1 7.4 2 9.7-.2 11.2.8 6.8 4.2l-3.3 2.7 9.7-.5c5.4-.3 10.1-.5 10.5-.6 2.2-.4 2.4.3.8 2.1-1 1.1-2.6 2-3.7 2-2 0-2.5 1.5-.5 2.2.6.3 5 .2 9.7-.2s8.9-.3 9.3.1c.5.4-.5 1.7-2.2 3-4 2.9-3 4.3 2.6 3.4 6.3-.9 10 .1 9.9 2.7-.1 1.6.7 2.4 2.9 2.9 1.7.3 5.7 1.8 8.9 3.3 5.5 2.4 6.8 2.6 15.8 2.2 5.4-.2 10 0 10.3.4.3.5-1.1 2-3 3.3-4.7 3.2-3.2 3.7 8.6 2.7 5.4-.5 9.8-.4 10.4.1.5.6-.4 2.1-2.5 3.9l-3.5 3 11.3-.5c9.2-.4 11.2-.2 11.2.9 0 .8-1.4 1.7-3.1 2.1-5.3 1.2-3.2 3.7 4.6 5.6 3.9 1 8.2 2.5 9.7 3.3 2 1.2 4.8 1.5 12.5 1.2 11.9-.4 13.8.5 9.1 4.5l-3.3 2.9 12.3-.6c10.6-.5 12.2-.4 12.2 1 0 .8-.9 2-2 2.6s-2 1.7-2 2.5c0 1.1 1.4 1.3 5.8 1.2l5.7-.2.3 12.9c.1 7.5-.1 13.3-.7 13.9s-2.8.1-6.3-1.5c-2.9-1.4-7-3.1-9-3.7-2.1-.7-4-1.7-4.3-2.2-.4-.5-1.5-.9-2.5-.9-1.9 0-14.3-4.7-19.5-7.4-1.7-.9-3.8-1.6-4.8-1.6-.9 0-2.5-.4-3.5-1-3.8-2.1-36.3-14.9-57.2-22.5-1.9-.7-8.2-3.3-14-5.8-5.8-2.4-14.3-5.9-19-7.7-10.3-3.9-22.4-8.7-26.5-10.5-1.6-.7-6.6-2.7-11-4.5s-11.1-4.7-15-6.5c-3.8-1.8-8.1-3.6-9.5-4s-5-1.9-8-3.4c-7.6-3.6-8.4-4.9-5-7.8 2.7-2.4 2.5-4-.6-4.7-2.2-.6-2.4-.9-1.3-2.2 2.5-3 6.7-4.5 10.9-3.8 2.2.4 4.5.2 5.2-.4 3.6-2.9 18.9-2.9 30.5 0m216.6 109c-.2 5.5-.4 10.3-.6 10.4-.7.7-7.1-1.6-7.9-2.8-1.2-2-1-15.2.4-16.6.7-.7 2.8-1.2 4.8-1.2h3.6zm-17.4-7.6c.2.2-.2 1-.8 1.8-.8 1-.9 1.6-.1 2.1.5.3 1 2 1 3.6 0 3.4-2.3 4.8-5.1 3.1-3.1-1.9-13.2-5.2-16.1-5.2-1.8 0-2.8-.5-2.8-1.5 0-.8.1-1.5.3-1.6 16.3-3.3 21.9-3.8 23.6-2.3"/><path d="M137.9 597.7c-.1 1-.1 2.2 0 2.7s-.4 2.3-1.1 4c-.8 1.9-1.5 11-2 23.6-.3 11.3-.9 23.2-1.2 26.5-.4 4.8-.3 5.2.4 2 4.4-22.1 5-27.4 4.9-44.3-.1-8.9-.3-16.2-.5-16.2s-.5.8-.5 1.7M125.6 834.5c-4 6-.3 24 4.9 24 1.7 0 2.2-1.1 3.4-6.9 1.1-6.2 1.1-7.3-.3-10.4-1.3-2.7-1.9-3.2-3-2.3-1.8 1.5-2.7-.6-1.4-3.2.9-1.8.3-3.7-1.1-3.7-.5 0-1.6 1.1-2.5 2.5M409.6 887.1c-2.3 1.8-2.7 2.7-2.4 6.8.3 4.5.4 4.6 3.8 4.7 5.7.3 10 1.6 10 3 0 1.6-3.7 2.8-5.3 1.7-.7-.5-2.7-1-4.4-1.1-2.9-.2-3.3.1-3.3 2.3 0 1.5.6 2.5 1.4 2.5s1.7.7 2 1.6 1.3 1.4 2.1 1c.8-.3 1.7-.1 2 .4.4.6 1.7 1 3.1 1 1.6 0 2.3.4 1.8 1.1-.3.6-1.5.9-2.5.6-2.1-.6-2.4-.3-3.3 3.5-.6 2.5-.3 2.8 2.9 3.4 5.5 1 12.9-.7 13.4-3.1.2-1.1 1.2-3.2 2.2-4.6 1.5-2.1 1.7-3.3.9-6-.6-1.9-1-5.3-1-7.7 0-3.7-.4-4.4-2.6-5.2-1.5-.6-3.8-1.9-5.2-3-1.3-1.1-3.9-2-5.6-2s-4.1-.7-5.3-1.5c-1.9-1.3-2.3-1.3-4.7.6M440.4 930.8c-1.8 1.2-4 6.3-5.3 12.5-1 4.7-1 7.7-.1 14.5 1.1 7.7 3.6 16 4.5 15 .2-.2.5-3.8.6-8.1.3-6.7.1-8-1.4-8.9-1.4-.7-1.6-1.7-1.1-4.6.4-2 1.1-4.6 1.7-5.6.5-1.1.9-4.1.8-6.7 0-3.9.3-5.1 1.9-5.9 1.1-.6 2.5-.8 3-.5.6.3 1 .2 1-.3 0-1.8-3.7-2.7-5.6-1.4M1144.3 666c-2.2 1.3-3.1 2.5-2.7 3.5.7 1.6-4.9 7.5-7.1 7.5-.6 0-2 .9-3.1 2.1-2.8 3.2-6.6 4.8-9.7 4.2-3.6-.7-4.5-2.3-1.3-2.3 3.9 0 3.1-1.7-1.1-2.3-2.3-.4-4-.2-4.4.5-.6.9-1.1.9-2.2 0-.7-.7-1.7-.9-2-.5-1.2 1.1-.8 6.8.5 8.1 1.5 1.5 9 1.6 10.5.1 1.3-1.3 3.3-.4 3.3 1.7 0 1-1.2 1.4-4.5 1.4-2.5 0-4.7-.1-4.9-.3-.7-.4-4.6 3.6-4.6 4.9 0 1.6 3.6 2.8 5.2 1.8 1.1-.7 9.8-2.4 14.1-2.7.9-.1 1.7-.5 1.7-.9 0-.9 10.2.2 11.6 1.3.6.5 2.7.4 4.8-.2 2-.6 4.3-.8 4.9-.6.7.2 2 0 2.9-.4 1.4-.8 1.7-2.4 1.7-10.1 0-9.5-1.2-12.8-4.6-12.8-.8 0-1.9-1.4-2.4-3-1.3-3.5-2.3-3.7-6.6-1M1130.2 863c-2.9 2.8-3.2 11.8-.4 14.3q3.9 3.6 6.9-.9c3.2-4.9 1-15.4-3.2-15.4-.6 0-2.1.9-3.3 2M1585.7 943c-2.6 2.1-3.6 5-1.8 5 1.6 0 2.6 9.1 1 10-1 .7-1 1.1 0 2.4.7.9 1.1 2.5.8 3.5-.3 1.1.2 2.9 1 4.1 1.8 2.6 1 5-1.6 5-1.3 0-2.5-1.3-3.7-4-2.4-5.4-3.7-5-2.8.7.7 5 3.6 9.3 6.3 9.3 2.4 0 7-4.7 7.6-7.8.3-1.5 1.2-5.5 2-9 1.9-8 .7-14.7-3.4-18.6l-2.8-2.7zM1612.6 970.2c-2.7 4.6-9.2 12.4-14.8 17.6-3.6 3.3-4.8 5.2-4.8 7.4 0 5 2.5 4.4 8.3-1.9 3-3.2 7.5-8.1 10-10.8 4.3-4.6 4.6-5.4 4.7-10.3 0-2.8-.4-5.2-.8-5.2s-1.6 1.5-2.6 3.2M1395.2 984.3c-4.9 5.2-5.2 17.4-.6 21.8 2.2 2.1 2.5 2.1 4.8.5 1.4-.9 3.6-1.6 5-1.6 3 0 3.2-.8 3.1-13v-9.5l-5-.3c-4.3-.2-5.4.1-7.3 2.1M1381.9 985.5c-7.1 1.5-7.9 2.1-7.9 5 0 3.2 1.6 4 4.6 2.4 1.3-.7 2.6-1 2.9-.7.4.3-1.5 4.5-4 9.3-3 5.7-4.2 9.2-3.6 9.8s3.5.3 8-.8c6.5-1.6 7.1-1.9 7.1-4.2 0-2.4-.2-2.5-3.8-1.9-2.2.3-4.1.3-4.4 0-.3-.2 1.4-3.9 3.8-8.2 4-6.9 5.6-12.4 3.7-12.1-.5.1-3.3.7-6.4 1.4M1361.2 989.6c-1.2.8-2.8 1.4-3.5 1.1-.6-.2-2 0-2.9.5-1.6.8-1.8 2.4-1.8 12.7 0 6.5.3 12.1.6 12.4.4.3 1.5.2 2.5-.4 1.6-.8 1.9-2.2 1.9-8.7.1-7.9 1.3-11.2 4.2-11.2 2 0 2.8 3 2.8 11.2 0 5.3.3 6.8 1.4 6.8 2.2 0 2.5-.9 3-9.7.3-4.5.7-8.5.8-8.9.2-.5-.3-2.4-1.1-4.2-1.5-3.6-4.2-4.2-7.9-1.6M1342.5 993c-2.7.3-5.6.9-6.4 1.4-4.4 2.8-5.8 17.4-2.1 22.6 2.1 2.9 2.8 3 7.5 1 1.1-.5 3.1-1 4.5-1.2 2.5-.3 2.5-.3 2.7-12 .1-6.5-.1-11.9-.5-12.1s-2.9 0-5.7.3M1325.3 997.6c-.3.9-1.4 4.6-2.3 8.3-2.2 8.2-4.4 9.3-5.3 2.6-.4-2.5-1.4-5.9-2.3-7.6l-1.6-3.2-2.1 2.2c-2.2 2.1-2.2 2.2-.3 6.9 1 2.6 2.8 7.3 3.9 10.4 2.8 7.4 5.1 8.1 7.6 2.5 3.7-8.6 7.4-20.4 6.8-22-.8-2.2-3.6-2.2-4.4-.1M1295.5 1001.4c-1.1.8-3.1 3.4-4.3 5.9-4.1 8.2-1.3 20.7 4.6 20.7 1.4 0 3.4-.7 4.4-1.6 1.4-1.4 2-1.4 3.3-.4.9.7 1.7 1.1 1.9.9 2.7-3.6 3.4-5.4 2.4-6.6-.6-.8-.9-4.6-.6-10.4l.4-9.1-2.8.4c-1.6.3-3.1.1-3.4-.4-.8-1.2-3.7-1-5.9.6M940.9 1031.5c-15.1 4.2-24.1 14.2-24.3 27.4-.1 5.6.3 7.4 2.7 11.4 6.7 11.4 21.4 14.1 32.5 5.9 1.8-1.3 3.1-2.6 2.8-2.9-.2-.3-3.1.5-6.3 1.7-7.7 2.9-14.7 2.2-18.5-1.9-2-2.1-2.4-3.1-1.6-3.9.9-.9 1.7-.7 3.3.8 2.6 2.4 8.5 2.9 11 .9 4.1-3.3 11.4-11.5 11.1-12.4-.2-.6.2-2.1.9-3.5.6-1.4 1-4.4.7-6.8-.6-5.6-5.7-11.2-10.2-11.2-1.7 0-3-.5-3-1 0-1.3 4.5-1.3 9.1 0 4.1 1.1 6.9 4.6 6.9 8.5 0 1.4.5 2.5 1 2.5.6 0 1 1.7 1.1 3.7.1 2.1.4 4.9.8 6.3.5 1.7.2 3.7-1.1 6.2-2.3 4.8-2.5 7.6-.3 5.8 3.3-2.7 5.8-10.4 6.3-18.5.3-7.1.1-8.4-2-11.5-2.5-3.8-9.2-7.5-14.8-8.3-1.9-.2-5.6.1-8.1.8M1014.1 1042.7c-7.1.9-15.6 8.3-19.8 17.3-5 10.9-2.4 23.6 5.8 28.5 4.4 2.6 14.9 2.7 17.7.2 1-.9 2.3-1.7 2.9-1.7 2 0 3.4-2.5 2.1-3.8-.9-.9-.7-1.5.8-2.6 1-.8 1.5-1.8 1.1-2.2-.4-.5-1.2-.2-1.6.5-.5.8-1.7 1.1-3 .6-2.9-.9-4.1 2.3-1.6 4.1 1.7 1.3 1.5 1.4-2.2 1.4-2.3 0-4.3.5-4.5 1.1-.3.9-.9.9-2.5 0-1.2-.6-3.4-1.1-4.9-1.1-2.2 0-2.4-.2-1.4-1.5 1-1.2.7-2-1.3-4.5l-2.6-3 1.8-4.3c1.9-4.4 3.3-5.4 3.9-2.5.2 1.1-.3 1.8-1.2 1.8-2 0-2.1 2.4-.1 4 .8.7 1.5 1.6 1.5 2.1 0 1.3 4.6 5.9 5.9 5.9.6 0 1.1-.9 1.1-2s.5-2 1-2c.6 0 1-.5 1-1 0-.6-.7-1-1.5-1-2.3 0-6.5-3-6.5-4.6 0-.8.7-1.4 1.5-1.4 1.6 0 2-1.2.8-2.4-.4-.4-.8-2.4-.8-4.5-.1-4.9-2.1-7.4-5.2-6.6-3.8.9-2.9-2.9 1.4-5.7 2-1.2 4.9-3.1 6.3-4 5.9-3.9 16.4-.4 17.6 5.9.3 1.8 1 3.3 1.5 3.3s.3 1.3-.5 2.8c-1 1.9-1.3 4.3-.9 7.1.4 2.6.1 5.1-.7 6.7-.7 1.3-1 2.7-.7 3.1.4.3.7-.1.7-1 0-1 .7-1.7 1.5-1.7s1.5-.5 1.5-1.2c0-.6.3-.9.6-.5.3.3-.1 2-1 3.8-1.9 3.8-2.1 5.6-.3 3.7 2.1-2.3 4.7-7.5 4.7-9.6 0-1.2.5-2.4 1-2.7 1.6-1 .2-14.4-1.8-18-1-1.6-3.6-4-5.8-5.2-3.8-2.2-6-2.5-13.3-1.6M1300.3 1100.7c-1.3.2-2.3 1.2-2.4 2.1 0 .9-.1 7.9-.1 15.6-.1 15.1.5 16.6 5.2 14.1 1.4-.7 3.3-1.6 4.3-1.9.9-.3 1.7-1.3 1.7-2.1 0-1.6-1-1.5-5.7.2-1.8.7-2.8-2.6-1.5-4.7.8-1.3.7-2.3-.4-3.8-1-1.5-1.2-3.1-.5-6.6.5-2.6.5-4.9 0-5.2-1.7-1-.9-3.4 1.4-4.4 1.2-.6 2.9-1.5 3.8-2.2 1.4-.9 2-.8 3.4.6 1 .9 2 1.5 2.2 1.2.3-.3-.2-1.2-1-2.1-1.5-1.4-5.5-1.7-10.4-.8M900.3 1104.2c-.5.7-.9 3.3-.9 5.8.1 3.5.5 4.5 1.9 4.8 2.9.6 5.3-.6 3.9-2-2.9-2.9.1-7.4 3.2-4.9.7.6 2.1.9 2.9.5.9-.3 3.3 0 5.4.7s6.3 1.4 9.3 1.6c12.1.7 20.4 2.5 20.8 4.6s-2.5 3.4-4.7 2.1c-2.3-1.4-12.3-1.2-12.8.3-.3.7 1.8 1.3 6.4 1.7 6.8.5 10.9 1 31.8 4.1 22.6 3.2 21.1 3.3 25-1.1 5.6-6.4 5.1-6.9-7.2-8.3-14.6-1.6-32.5-3.8-45.8-5.6-6-.8-14.5-2-18.8-2.6-4.3-.5-10.1-1.4-12.9-1.9-6.4-1.2-6.4-1.2-7.5.2M1369.5 1110c.7 2.3 1.3 2.2-9.4 2.5-6.9.1-8.7.5-10 2.1-2.1 2.5-9 4.9-10.3 3.6s-5.9.9-5.6 2.8c.4 1.8 7.5 2.7 9.1 1.1.6-.6 2.1-1.1 3.3-1.1s2.4-.7 2.7-1.4c.7-1.7 8.2-4 9.8-3 .6.3 3.5.3 6.5-.1 4.5-.5 5.7-1.1 6.6-3 .8-1.9.7-2.7-.5-3.9-2.1-2.2-3-2-2.2.4M943.8 1144c-10.5 2.6-19.2 10-24.4 20.5-2.4 5.1-2.9 7.2-2.9 14 0 9 1.8 13.6 7.7 19.2 5.6 5.4 12.1 7.6 20.4 7 8.6-.6 14.1-3.1 20.7-9.6 13.1-12.6 15-34.2 3.8-44.7-6.2-6-16.6-8.6-25.3-6.4m2.4 6.7c2.9 2.6 2.2 6.2-1.8 9.9-1.9 1.9-3.2 3.8-2.9 4.4.3.5 3.9 1 8 1 7.8 0 10.2 1.3 6.9 3.7-1.4 1.1-3.5 1.3-8 .8-6.7-.7-9.1.7-7.9 4.5.6 1.8 1.5 2 8.4 2 9 0 9.5.4 10.5 7.2.6 3.8 1.1 4.8 2.7 4.8 2.6 0 2.4 1.6-.6 3.6-4.2 2.8-5.9 1.6-6.5-4.6-.5-5.1-.7-5.5-3-5.5-2 0-2.6.6-2.8 2.8-.5 3.9-7.2 10.4-11.5 11.2-8.3 1.6-14.7-3.7-14.7-12.1 0-5.9 5.1-12.7 10-13.4 3.5-.5 3.5-.5 3.3-5.5-.1-2.8-.4-6.4-.8-8-.5-2.4-.1-3.6 2-5.8 2.9-3.1 6-3.5 8.7-1"/><path d="M931.1 1177.2c-4 4.1-4.7 6.8-2.7 10.6 2.9 5.6 11.3 5.3 15.5-.6 3-4.2 2.6-5.2-1.6-5.2-4.7-.1-7.4-1.9-6.7-4.7.9-3.4-1.2-3.5-4.5-.1M1004.8 1153c-13.5 6.6-21.7 18.2-22.6 31.6-1 15.7 7.2 26.4 21.4 28 5.9.6 7 .4 12.8-2.5 5.4-2.7 14.6-10 14.6-11.6 0-.3 1-2.2 2.3-4.3 3.9-6.3 5-11.4 4.4-20.1-.6-8.8-2.1-12.2-7.9-17.9-1.9-1.8-5-3.7-6.9-4.2-5.4-1.6-14-1.1-18.1 1m11.6 4.2c2 2.8 2 5.2.1 6.8-1.4 1.2-1.4 1.5.3 3.4 4.2 4.7 7.3 13.7 7.8 22.4.3 4.6.2 9.3-.2 10.4-1.3 4.1-3.4-.9-3.4-7.9 0-5.9-2.3-13.3-4.2-13.3-2 0-2.7 8.9-1.8 21.4.3 4.8.1 6.2-1.3 7-2.4 1.5-3.8-.4-4.4-5.8-.7-5.4-1.6-5.8-3.3-1.4-2.1 5.8-3.8 8.3-5.9 8.6-2.8.4-2.7-1.6.3-10.9 3.2-9.8 4.3-17.9 2.4-17.9-.7 0-2.1 1.4-3 3-1.9 3.3-4.4 4.8-5.9 3.3-1-1 8.2-15.6 11.6-18.4 1.6-1.4 1.7-1.9.6-3.3-1.1-1.3-1.1-2.2-.1-4.6 2.2-5.3 7.7-6.7 10.4-2.8M1065.2 1158c-10.7 5.4-18.3 15.5-21.2 28.1-2.7 11.8 3.7 26.2 13.3 29.8 4.3 1.6 13.4 1.3 17.5-.6 17.1-7.9 27.1-31.7 19.6-46.7-3.3-6.6-5.6-9-11-11.5-6.1-2.9-11-2.7-18.2.9m2.5 13.2c.4.7.8 3.1.8 5.3 0 3.8.1 4 3 3.8 1.7 0 5.6-.2 8.9-.3 5-.2 6.2-.7 8.4-3.1 3.1-3.6 4.1-3 1.5.8-1.1 1.5-2.3 3.9-2.6 5.3-.9 3.3-1.4 3.9-6.4 7.9-2.4 1.8-4.3 3.8-4.3 4.4 0 .7-1 1.8-2.2 2.6-2.1 1.3-2.1 1.4-.2 2.8 1.8 1.3 1.6 1.4-2 1.1-2.5-.2-4.1.2-4.4 1-.5 1.6-2.2 1.5-2.2-.1 0-1.9-4.2-5.6-9.2-8.1l-4.3-2.1.1-5.7c.2-7.3 3.2-12.3 8.8-14.9 4.9-2.2 5.3-2.3 6.3-.7M1396 1150.9l-4.5 1.7.3 16.4c.1 9.1.6 16.8 1.1 17.3s1.8.6 2.9.3c1.9-.6 2-1.3 1.5-7.9l-.6-7.2 3.7-1.8c2-.9 4.3-1.7 5-1.7.8 0 1.6-.6 1.9-1.4.7-1.7-1.8-4-3.3-3.1-.6.4-2.6.8-4.6 1-3.5.3-3.5.3-3.2-3.3.3-3.3.7-3.8 4.3-5 5-1.6 5.9-2.5 5-5.1-.8-2.5-3.2-2.6-9.5-.2M1376 1156.3c-2.8 1.4-2.7.3-1.6 21.7.4 6.9 1.1 12.9 1.7 13.5s2.4.4 5.1-.5c6.9-2.4 10.2-11.1 6.8-17.5-1.1-2.1-1.2-3-.2-4.6 1.5-2.4.6-9.7-1.6-12.2-1.8-2-6.6-2.2-10.2-.4M1365.2 1160.5c-.7 1.4-1.2 3.6-1.2 4.9s-.7 2.9-1.5 3.6c-1.3 1.1-1.5.7-1.5-2.6 0-2.2-.5-4.6-1-5.4-.8-1.3-1.2-1.2-3 .6-1.9 1.8-2 2.5-1 9 .5 3.8 1 11.3 1 16.6s.4 9.9.8 10.2c.5.3 1.9.2 3.1-.1 2.1-.5 2.2-.9 1.5-7.4-.8-8.2.6-9.2 2.6-1.8 1.3 4.9 4 7.7 6 6.4 1.8-1.1 1.1-4.2-2.6-11.5-3-5.8-3.5-7.5-2.6-9.3 3.1-6.7 5.3-13.1 4.8-14.3-.9-2.3-4.2-1.6-5.4 1.1M1337.2 1166.9c-1.9 1.2-4.2 5.9-4.2 8.7 0 1.7.6 2.4 2 2.4 1.5 0 2 .7 2 2.9 0 2.1-.6 3.2-2 3.6-1.1.3-2 1.5-2 2.6 0 1.2.7 1.9 2 1.9 1.8 0 2 .7 2 6.4 0 7.1.6 8 4.5 7 2.3-.6 2.5-1 1.9-4.1-.3-1.8-.9-9.8-1.3-17.6-.5-11.5-.9-14.2-2.1-14.4-.8-.2-2.1.1-2.8.6M1318.9 1171.4c-1.7 1.3-4.9 15.3-6.5 28.2-.8 6 .1 6.9 5 5.5 3.1-.8 3.6-.7 4.1 1 .9 2.8 3.4 2.3 4.6-.9.6-1.5 1.5-3.5 2-4.5.7-1.2.5-2.4-.6-4-.8-1.2-1.5-2.9-1.5-3.8s-.7-2.2-1.6-3c-1.3-1-1.7-1-2.5.2-.5.8-.9 2.4-.9 3.5 0 1.2-.7 2.7-1.5 3.4-2.7 2.2-1.8-3.2 2.9-18.5 1.9-6.2.1-9.9-3.5-7.1M1297.6 1179.7c-3.1 4.5-3.2 5.8-.6 7.6 1.8 1.3 2.1 2.9 2.6 12.8.6 12.2 1.4 14.5 4.5 12.9 1.7-1 1.8-2 1.2-14.8-.3-7.5-.6-15.5-.7-17.7-.1-3.3-.5-4.1-2.3-4.3-1.6-.2-2.9.7-4.7 3.5M1280.7 1182.5c-.9.8-1.8 2.9-2.2 4.7-2.2 11.6-2.8 12.8-5.7 12.8-3.3 0-3.7 1.5-.7 3 1.8 1 2 1.9 1.7 7.3-.3 6.1-.2 6.2 2.2 6.1 1.4-.1 3.5-.5 4.6-.9 1.6-.5 2.3-.2 2.7 1.5.8 3.1 5.3 2.4 4.9-.8-.2-1.3.3-2.5 1.2-2.8 2-.8 2.1-4.8.2-6.4-.8-.6-1.6-2.4-1.8-3.8-.2-1.9-.9-2.7-2.3-2.7-1.5 0-2.1.8-2.3 3.2-.3 3.4-3.2 6.9-3.2 4 0-2.4 3.9-18.7 5.2-22 .9-2.3.8-3.1-.3-3.8-1.9-1.2-2.5-1.1-4.2.6"/></svg>